<svg xmlns="http://www.w3.org/2000/svg" viewBox="0 0 229.09 165.62"><defs><style>.cls-1{fill:#030;}.cls-1,.cls-2{stroke:#000;stroke-linecap:round;stroke-linejoin:round;stroke-width:0.24px;}.cls-1,.cls-10,.cls-11,.cls-2,.cls-3,.cls-4,.cls-5,.cls-6,.cls-7,.cls-8,.cls-9{fill-rule:evenodd;}.cls-2{fill:#124500;}.cls-3{fill:#002100;}.cls-4{fill:#c00;}.cls-5{fill:#ed0000;}.cls-6{fill:#fff;}.cls-7{fill:#360;}.cls-8{fill:#540000;}.cls-9{fill:#69d4f5;}.cls-10{fill:#ffb0b0;}.cls-11{fill:#d15c5c;}</style></defs><title>Asset 5</title><g id="Layer_2" data-name="Layer 2"><g id="_ÎÓÈ_1" data-name="—ÎÓÈ_1"><path class="cls-1" d="M100.6,24.58c.51,1.38-4,7.7,2.47,10,6.7,2.39,4,2.54,7.76,5,.13.08.22-.22.23-.28-1.53,1.3.86-6.16-4.17-8.38-1.42-.63-5.31-2.43-5.8-4a15.34,15.34,0,0,1-.49-2.32Z"/><path class="cls-1" d="M132.31,22.5C131,24.07,133.54,32,123.88,32c-9.92,0-5.94,4-12,5.45-.2.05-.19-.39-.18-.48,1.42,2.43,1.77-8.5,9.41-9.07,2.16-.16,8.11-.72,9.49-2.57a25.14,25.14,0,0,0,1.74-2.82Z"/><path class="cls-2" d="M148.53,27.81c-2.69,1.47-3.43,13.83-16.86,8.62-13.8-5.35-10.43,2.33-19.66,1-.32,0-.06-.65,0-.76.66,4.13,7.07-10.86,18-7.51,3.09.95,11.66,3.4,14.59,1.58a36.43,36.43,0,0,0,3.94-3Z"/><path class="cls-2" d="M70.34,27.81c2.93,1.47,3.74,13.83,18.39,8.62,15.06-5.35,11.38,2.33,21.46,1,.34,0,.06-.65,0-.76-.71,4.13-7.7-10.86-19.63-7.51-3.36.95-12.72,3.4-15.92,1.58a39,39,0,0,1-4.29-3Z"/><path class="cls-3" d="M62,46.12c4.83-2.28,15.75-12.79,36.6-11.86,4.28.2,10.88,4.33,15.27,3.51,7.33-.05,33.53-3.72,36.56-1.46,11.11,8.3-21.56,24.7-35.23,22.82C99.39,57,74.6,40.18,62,46.12Z"/><path class="cls-4" d="M114.55,42.24c52.93-19.06,83.19,20.63,83.19,57.19s-37.24,66.19-83.19,66.19S31.35,136,31.35,99.43s22.47-72.28,83.2-57.19Z"/><path class="cls-5" d="M114.55,48.57C160.14,33.08,186.21,65.34,186.21,95s-32.09,53.79-71.66,53.79S42.89,124.75,42.89,95,62.24,36.3,114.55,48.57Z"/><path class="cls-6" d="M60.21,55.85c3,1.71,3.16,7,.4,11.83S53.18,75,50.2,73.31s-3.17-7-.41-11.83,7.43-7.34,10.42-5.63Z"/><path class="cls-6" d="M171.82,57.8c-1.23,1-1,3.34.55,5.33s3.79,2.84,5,1.88,1-3.34-.55-5.33-3.79-2.84-5-1.88Z"/><path class="cls-7" d="M160.07,56.31C157.22,52.2,115,39.14,115.35,38.24s33.82,4.39,50.83.17c-14.1,1.94-29.45-14.32-48.59-3.16-4.88-9.21-1.2-17,8.43-19.92,1.19-1.63-1-3.51-2.41-3.29-6.69,4.66-14.73,11.1-14.58,24.08-6.06-2.8-7.38-9.25-17.61-5.51s-31,9.54-31.11,9.52c.07.19,26.4,7.75,37.07-3.37,3.52-3.66,9.34,4.32,15.31,1.58.52-.24.82.1.66.28-4.08,4.64-26.75,1.23-26.75,19.71,17.06-10.12,21,3,27.06-19.64,0-.1.29-.07.3,0,1.51,19.49,7.74,16.58,28.64,16.58,14.36,0,4.94-.08,16.79,1l.68,0Z"/><path class="cls-6" d="M99.94.54c3.1,1.66,3.66,6.65,1.26,11.13s-6.87,6.79-10,5.13S87.57,10.15,90,5.66s6.87-6.78,10-5.12Z"/><path class="cls-8" d="M134.82,62.57c-5.3-2.85-1.2-5.3,2-3.8a25.6,25.6,0,0,0,9.15,2.13c3.81.29,4.33,4-2,3.81a20,20,0,0,1-9.16-2.14Z"/><path class="cls-8" d="M94.05,62.19c5.36-3.23.4-5.36-2.84-3.63a28.93,28.93,0,0,1-9.74,2.81c-4.16.57-4.09,4.29,2.83,3.63a22.31,22.31,0,0,0,9.75-2.81Z"/><path class="cls-8" d="M79.72,75.3a1.19,1.19,0,1,1-1.32-2,20.28,20.28,0,0,1,9.32-3.57,17.21,17.21,0,0,1,8.78,1.52,1.2,1.2,0,0,1-1,2.19A14.88,14.88,0,0,0,88,72.12a18.09,18.09,0,0,0-8.23,3.18Z"/><path class="cls-8" d="M148.33,75.3a1.19,1.19,0,1,0,1.32-2,20.2,20.2,0,0,0-9.32-3.57,17.19,17.19,0,0,0-8.77,1.52,1.2,1.2,0,0,0,1,2.19,14.9,14.9,0,0,1,7.58-1.33,18.06,18.06,0,0,1,8.22,3.18Z"/><path class="cls-9" d="M74.5,72.2c-1.24-4-1.37-10.27-4.47-13.11-4-3.7-9.25.25-6.76,5,1.95,3.72,7.74,5.75,11.23,8.1Z"/><path class="cls-6" d="M65.26,64.26a1.29,1.29,0,0,0,.4-1.72c-.3-.74-1-1.16-1.49-.94a1.26,1.26,0,0,0-.4,1.71c.3.74,1,1.16,1.49,1Z"/><path class="cls-6" d="M66.52,66a.73.73,0,0,0-.82-1.1.61.61,0,0,0,0,.84c.23.3.59.42.8.26Z"/><path class="cls-9" d="M46.55,39.86c-3.9-1.59-8.81-5.45-13-4.85-5.43.78-5.67,7.32-.42,8.4,4.12.86,9.36-2.34,13.39-3.55Z"/><path class="cls-6" d="M34.55,42c.16-.53-.32-1.16-1.08-1.39s-1.51,0-1.67.55.31,1.17,1.07,1.4A1.3,1.3,0,0,0,34.55,42Z"/><path class="cls-6" d="M36.7,42.1c0-.27-.29-.5-.67-.52s-.69.19-.71.46.29.5.67.52.69-.19.71-.46Z"/><path class="cls-9" d="M6.11,85.71c-2,3.72-6.29,8.23-6.1,12.43.24,5.48,6.72,6.37,8.32,1.24,1.25-4-1.42-9.54-2.22-13.67Z"/><path class="cls-6" d="M7,97.86c-.52-.22-1.19.2-1.5.93a1.3,1.3,0,0,0,.39,1.73c.52.21,1.19-.2,1.5-.94A1.28,1.28,0,0,0,7,97.86Z"/><path class="cls-6" d="M7.37,95.74c-.27,0-.53.23-.59.61s.12.71.39.75.53-.24.58-.61-.12-.71-.38-.75Z"/><path class="cls-9" d="M10.43,47.42c-2.88,3.07-8.24,6.27-9.18,10.37C0,63.14,6,65.71,9,61.19c2.27-3.54,1.16-9.57,1.48-13.77Z"/><path class="cls-6" d="M8.1,59.38c-.44-.35-1.2-.12-1.69.5a1.29,1.29,0,0,0-.08,1.77A1.3,1.3,0,0,0,8,61.15a1.3,1.3,0,0,0,.08-1.77Z"/><path class="cls-6" d="M9,57.42c-.25-.11-.57.09-.73.43a.62.62,0,0,0,.18.83c.24.11.57-.09.72-.43s.08-.72-.17-.83Z"/><path class="cls-9" d="M18.22,60.84c-1.41,1.5-4,3.07-4.5,5.08-.6,2.62,2.35,3.88,3.77,1.67,1.12-1.74.58-4.7.73-6.75Z"/><path class="cls-6" d="M17.08,66.7a.63.63,0,0,0-.83.25.62.62,0,0,0,0,.86.63.63,0,0,0,.83-.25.62.62,0,0,0,0-.86Z"/><path class="cls-6" d="M17.51,65.74c-.12-.06-.28,0-.35.21s0,.35.08.4.28,0,.36-.21,0-.35-.09-.4Z"/><path class="cls-9" d="M53.91,60c-1.27-1.63-2.44-4.46-4.35-5.21-2.51-1-4.19,1.74-2.22,3.48,1.55,1.36,4.56,1.26,6.57,1.73Z"/><path class="cls-6" d="M48.28,58a.63.63,0,0,0-.12-.86c-.26-.28-.64-.36-.84-.16s-.15.57.11.85.65.36.85.17Z"/><path class="cls-6" d="M49.17,58.54c.07-.11,0-.28-.16-.38s-.34-.09-.41,0a.31.31,0,0,0,.16.39.29.29,0,0,0,.41,0Z"/><path class="cls-9" d="M62.45,47.37c-.77-2.42-.89-6.2-2.78-7.9-2.47-2.22-5.6.21-4.06,3.07,1.2,2.24,4.72,3.43,6.84,4.83Z"/><path class="cls-6" d="M56.81,42.62c.32-.13.42-.6.24-1s-.6-.69-.91-.56-.42.6-.23,1,.59.7.9.56Z"/><path class="cls-6" d="M57.59,43.67a.37.37,0,0,0,0-.51c-.14-.18-.35-.25-.48-.15a.37.37,0,0,0,0,.51c.14.18.36.25.49.15Z"/><path class="cls-9" d="M24.49,33.37c-2,.15-5-.45-6.75.73-2.2,1.53-.87,4.45,1.67,3.77,2-.53,3.58-3.09,5.08-4.5Z"/><path class="cls-6" d="M19.7,36.93c0-.27-.39-.44-.78-.37s-.65.34-.61.61.4.44.78.38.66-.34.61-.62Z"/><path class="cls-6" d="M20.67,36.52c-.05-.13-.23-.16-.4-.09s-.27.24-.21.36.23.16.4.08.27-.23.21-.35Z"/><path class="cls-9" d="M42.34,53.38C36.46,46.15,24.43,49.61,23,51.1c-1.86,1.94,0,4.54,2.38,3.37,1.85-.92,9.77-6.71,17-1.09Z"/><path class="cls-6" d="M25.48,53.49a.64.64,0,0,0-.84-.21c-.36.14-.57.46-.47.72s.47.36.83.22.58-.47.48-.73Z"/><path class="cls-6" d="M26.35,52.89c-.08-.11-.26-.11-.42,0s-.21.29-.13.39a.29.29,0,0,0,.41,0,.31.31,0,0,0,.14-.39Z"/><path class="cls-9" d="M48.47,37.06c-4.45-4.55-9-7.4-11.36-7.21a1.43,1.43,0,1,0,0,2.84c1.48,0,6.23.36,11.32,4.37Z"/><path class="cls-6" d="M37.51,32.09c0-.2-.2-.37-.48-.39s-.51.13-.52.33.2.37.47.39.52-.13.53-.33Z"/><path class="cls-6" d="M38.25,32c0-.09-.13-.15-.27-.12s-.22.12-.2.21a.22.22,0,0,0,.27.12c.13,0,.22-.12.2-.21Z"/><path class="cls-9" d="M154.6,72.2c1.23-4,1.37-10.27,4.47-13.11,4-3.7,9.25.25,6.76,5-2,3.72-7.75,5.75-11.23,8.1Z"/><path class="cls-6" d="M163.84,64.26a1.28,1.28,0,0,1-.4-1.72c.3-.74,1-1.16,1.49-.94a1.28,1.28,0,0,1,.4,1.71c-.3.74-1,1.16-1.49,1Z"/><path class="cls-6" d="M162.57,66a.61.61,0,0,1,0-.84c.23-.31.59-.42.8-.26s.21.53,0,.84a.61.61,0,0,1-.8.26Z"/><path class="cls-9" d="M182.55,39.86c3.89-1.59,8.8-5.45,13-4.85,5.42.78,5.67,7.32.41,8.4-4.12.86-9.35-2.34-13.38-3.55Z"/><path class="cls-6" d="M194.55,42c-.17-.53.31-1.16,1.07-1.39a1.28,1.28,0,0,1,1.68.55c.16.54-.32,1.17-1.08,1.4s-1.51,0-1.67-.56Z"/><path class="cls-6" d="M192.4,42.1c0-.27.28-.5.66-.52s.7.19.71.46-.28.5-.66.52-.7-.19-.71-.46Z"/><path class="cls-9" d="M223,85.71c2,3.72,6.28,8.23,6.1,12.43-.24,5.48-6.72,6.37-8.32,1.24-1.26-4,1.41-9.54,2.22-13.67Z"/><path class="cls-6" d="M222.06,97.86c.52-.22,1.19.2,1.5.93a1.29,1.29,0,0,1-.39,1.73c-.52.21-1.19-.2-1.49-.94a1.28,1.28,0,0,1,.38-1.72Z"/><path class="cls-6" d="M221.73,95.74c.26,0,.53.23.58.61s-.12.71-.38.75-.53-.24-.59-.61.12-.71.39-.75Z"/><path class="cls-9" d="M218.66,47.42c2.89,3.07,8.25,6.27,9.18,10.37,1.22,5.35-4.79,7.92-7.69,3.4-2.28-3.54-1.17-9.57-1.49-13.77Z"/><path class="cls-6" d="M221,59.38a1.53,1.53,0,1,1,.09,1.77,1.3,1.3,0,0,1-.09-1.77Z"/><path class="cls-6" d="M220.11,57.42c.24-.11.57.09.72.43s.08.72-.17.83-.57-.09-.72-.43a.61.61,0,0,1,.17-.83Z"/><path class="cls-9" d="M210.87,60.84c1.42,1.5,4,3.07,4.5,5.08.6,2.62-2.35,3.88-3.77,1.67-1.11-1.74-.57-4.7-.73-6.75Z"/><path class="cls-6" d="M212,66.7c.21-.17.58-.06.82.25a.53.53,0,1,1-.78.61.62.62,0,0,1,0-.86Z"/><path class="cls-6" d="M211.58,65.74c.12-.06.28,0,.35.21s0,.35-.08.4-.28,0-.35-.21,0-.35.08-.4Z"/><path class="cls-9" d="M175.19,60c1.27-1.63,2.43-4.46,4.35-5.21,2.5-1,4.19,1.74,2.21,3.48-1.55,1.36-4.55,1.26-6.56,1.73Z"/><path class="cls-6" d="M180.81,58a.63.63,0,0,1,.12-.86c.27-.28.65-.36.85-.16s.15.57-.12.85-.65.36-.85.17Z"/><path class="cls-6" d="M179.93,58.54c-.07-.11,0-.28.15-.38a.31.31,0,0,1,.42,0,.31.31,0,0,1-.16.39c-.16.1-.34.09-.41,0Z"/><path class="cls-9" d="M166.64,47.37c.77-2.42.89-6.2,2.79-7.9,2.46-2.22,5.59.21,4.06,3.07-1.21,2.24-4.72,3.43-6.85,4.83Z"/><path class="cls-6" d="M172.28,42.62a.78.78,0,0,1-.23-1c.19-.44.59-.69.91-.56a.78.78,0,0,1,.23,1c-.19.44-.59.7-.91.56Z"/><path class="cls-6" d="M171.51,43.67a.37.37,0,0,1,0-.51c.14-.18.36-.25.49-.15s.12.32,0,.51-.35.25-.48.15Z"/><path class="cls-9" d="M204.6,33.37c2.06.15,5.06-.45,6.75.73,2.21,1.53.87,4.45-1.67,3.77-2-.53-3.58-3.09-5.08-4.5Z"/><path class="cls-6" d="M209.39,36.93c.05-.27.4-.44.78-.37s.66.34.61.61-.39.44-.78.38-.66-.34-.61-.62Z"/><path class="cls-6" d="M208.42,36.52a.31.31,0,0,1,.41-.09c.17.08.26.24.21.36a.31.31,0,0,1-.41.08.3.3,0,0,1-.21-.35Z"/><path class="cls-9" d="M186.75,53.38c5.88-7.23,17.92-3.77,19.34-2.28,1.86,1.94,0,4.54-2.38,3.37-1.84-.92-9.76-6.71-17-1.09Z"/><path class="cls-6" d="M203.61,53.49a.64.64,0,0,1,.84-.21c.36.14.58.46.48.72a.63.63,0,0,1-.84.22c-.36-.14-.58-.47-.48-.73Z"/><path class="cls-6" d="M202.75,52.89c.07-.11.26-.11.41,0s.21.29.14.39a.31.31,0,0,1-.42,0,.29.29,0,0,1-.13-.39Z"/><path class="cls-9" d="M180.62,37.06c4.46-4.55,9-7.4,11.37-7.21a1.43,1.43,0,1,1-.05,2.84c-1.47,0-6.23.36-11.32,4.37Z"/><path class="cls-6" d="M191.58,32.09c0-.2.21-.37.48-.39s.52.13.53.33-.2.37-.48.39-.51-.13-.53-.33Z"/><path class="cls-6" d="M190.84,32a.22.22,0,0,1,.27-.12c.13,0,.22.12.2.21s-.13.15-.26.12-.23-.12-.21-.21Z"/><path class="cls-10" d="M86,136.1c-4.92-5.3,2.22-45.39,30.07-45.39s30.12,40.49,26.05,45.23-14.91-.86-28.33-.86S91,141.41,86,136.1Z"/><path class="cls-8" d="M86,136.1c-4.92-5.3,2.22-45.39,30.07-45.39s30.12,40.49,26.05,45.23-15.06-4.31-28.48-4.31S91,141.41,86,136.1Z"/><path class="cls-11" d="M137.12,117.88c1.92,3.62-12.3,11.82-23.16,12s-25.37-9.24-22.6-12,15-2.1,22.6-2.1,21.23-1.52,23.16,2.1Z"/></g></g></svg>