<svg xmlns="http://www.w3.org/2000/svg" viewBox="0 0 205.92 153.6"><defs><style>.cls-1{fill:#030;}.cls-1,.cls-2{stroke:#000;stroke-linecap:round;stroke-linejoin:round;stroke-width:0.24px;}.cls-1,.cls-2,.cls-3,.cls-4,.cls-5,.cls-6,.cls-7,.cls-8,.cls-9{fill-rule:evenodd;}.cls-2{fill:#124500;}.cls-3{fill:#002100;}.cls-4{fill:#c00;}.cls-5{fill:#ed0000;}.cls-6{fill:#fff;}.cls-7{fill:#360;}.cls-8{fill:#540000;}.cls-9{fill:#ffb0b0;}</style></defs><title>Asset 13</title><g id="Layer_2" data-name="Layer 2"><g id="_ÎÓÈ_1" data-name="—ÎÓÈ_1"><path class="cls-1" d="M69.25,12.56c.51,1.38-4,7.7,2.47,10,6.7,2.39,4,2.53,7.76,5,.13.08.22-.22.23-.28-1.53,1.3.85-6.17-4.17-8.39-1.42-.62-5.31-2.42-5.8-4a15.34,15.34,0,0,1-.49-2.32Z"/><path class="cls-1" d="M101,10.48C99.64,12.05,102.19,20,92.53,20c-9.92,0-6,4-12,5.45-.2,0-.19-.39-.18-.48,1.42,2.43,1.76-8.5,9.41-9.07,2.16-.16,8.11-.72,9.49-2.58A25.52,25.52,0,0,0,101,10.48Z"/><path class="cls-2" d="M117.18,15.79c-2.69,1.47-3.43,13.83-16.86,8.62-13.8-5.36-10.43,2.33-19.66,1-.32,0-.06-.65,0-.75.66,4.13,7.06-10.87,18-7.51,3.09.94,11.66,3.4,14.59,1.58a38,38,0,0,0,3.94-3Z"/><path class="cls-2" d="M39,15.79c2.93,1.47,3.73,13.83,18.39,8.62,15.06-5.36,11.38,2.33,21.46,1,.34,0,.06-.65,0-.75-.71,4.13-7.7-10.87-19.63-7.51-3.37.94-12.72,3.4-15.92,1.58a40.6,40.6,0,0,1-4.29-3Z"/><path class="cls-3" d="M30.67,34.1c4.83-2.28,15.75-12.79,36.6-11.86,4.28.19,10.88,4.33,15.27,3.51,7.33-.05,33.53-3.72,36.56-1.46C130.21,32.58,97.54,49,83.87,47.11,68,44.93,43.25,28.16,30.67,34.1Z"/><path class="cls-4" d="M83.2,30.22c52.93-19.07,83.19,20.63,83.19,57.19S129.15,153.6,83.2,153.6,0,124,0,87.41,22.47,15.13,83.2,30.22Z"/><path class="cls-5" d="M83.2,36.55C128.79,21.06,154.85,53.31,154.85,83s-32.08,53.79-71.65,53.79S11.54,112.73,11.54,83,30.89,24.28,83.2,36.55Z"/><path class="cls-6" d="M28.86,43.83c3,1.71,3.16,7,.4,11.83S21.83,63,18.84,61.29s-3.16-7-.4-11.83,7.43-7.34,10.42-5.63Z"/><path class="cls-6" d="M140.47,45.77c-1.23,1-1,3.35.55,5.34s3.79,2.84,5,1.88,1-3.34-.56-5.33-3.78-2.84-5-1.89Z"/><path class="cls-7" d="M128.72,44.29C125.87,40.18,83.6,27.12,84,26.22s33.82,4.39,50.83.17c-14.1,1.94-29.45-14.32-48.59-3.16C81.36,14,85,6.22,94.67,3.31c1.19-1.63-1-3.51-2.41-3.29C85.57,4.68,77.53,11.12,77.68,24.1c-6.06-2.8-7.38-9.25-17.61-5.51s-31,9.54-31.11,9.52c.07.19,26.4,7.75,37.07-3.37,3.52-3.67,9.34,4.32,15.31,1.58.52-.24.82.09.66.28-4.08,4.64-26.76,1.23-26.76,19.71,17.07-10.12,21,3,27.06-19.64,0-.1.3-.07.31,0,1.51,19.49,7.74,16.58,28.64,16.58,14.36,0,4.94-.08,16.79,1l.68,0Z"/><path class="cls-8" d="M64.92,75a6.6,6.6,0,1,1-12,3.85,7.55,7.55,0,0,1,0-.83l11.92-3Z"/><path class="cls-6" d="M55.73,78.28a1.88,1.88,0,1,1-1.88,1.87,1.87,1.87,0,0,1,1.88-1.87Z"/><path class="cls-8" d="M117.4,78.05a5.69,5.69,0,0,1,0,.83,6.6,6.6,0,1,1-12-3.85l11.91,3Z"/><path class="cls-6" d="M107.18,76.93a1.88,1.88,0,1,1-1.88,1.87,1.87,1.87,0,0,1,1.88-1.87Z"/><path class="cls-8" d="M61.76,50.39c4.59.72,3.29,4.25.65,4a13.38,13.38,0,0,0-6.59,1.2c-2.45,1-4.56-2-.65-4a10.62,10.62,0,0,1,6.59-1.21Zm46.89,0c-4.6.72-3.3,4.25-.65,4a13.4,13.4,0,0,1,6.59,1.2c2.45,1,4.56-2,.65-4a10.62,10.62,0,0,0-6.59-1.21Z"/><path class="cls-9" d="M111.26,99.55c2.44,0,4.43,4.31,4.43,9.63s-2,9.64-4.43,9.64-4.43-4.31-4.43-9.64,2-9.63,4.43-9.63Z"/><path class="cls-8" d="M111.26,101.24c2.44,0,4.43,3.27,4.43,7.3s-2,7.29-4.43,7.29-4.43-3.27-4.43-7.29,2-7.3,4.43-7.3Z"/><path d="M195.6,60.83a3.42,3.42,0,1,1,2.18-6c2-5.33,1.26-8.87,0-13.6.72.45,5.61,2.47,8.14-.62v3.65c-1.25,1.22-4.29,1.14-6.9-.65a45.59,45.59,0,0,1,0,13.85,3.59,3.59,0,0,1-3.42,3.42Z"/><path d="M185,93.15A5.12,5.12,0,0,1,179.89,88c0-2.84,3.09-5.13,5.12-5.13a3.83,3.83,0,0,1,3.27,1.17c3.59-3.27,2.41-10.15,1.65-11.58-2.34,1.58-9.14,1.85-12.84-.67a68,68,0,0,1,0,20.78c-.37,2.83-2.29,5.13-5.13,5.13a5.13,5.13,0,1,1,3.27-9.09c3.05-8,1.88-13.3,0-20.4,1.63.79,10.24,3.79,14.87-1.6,1,6.83,1.7,15.65,0,21.39-.79,2.74-2.29,5.12-5.13,5.12Z"/><path d="M171.64,41.7a2.25,2.25,0,1,1,1.43-4c1.35-3.51.83-5.84,0-9,.48.29,3.71,1.63,5.37-.41v2.4c-.82.81-2.82.75-4.55-.42a29.72,29.72,0,0,1,0,9.13,2.36,2.36,0,0,1-2.25,2.25Z"/></g></g></svg>