<svg xmlns="http://www.w3.org/2000/svg" viewBox="0 0 176.05 153.6"><defs><style>.cls-1{fill:#030;}.cls-1,.cls-2{stroke:#000;stroke-linecap:round;stroke-linejoin:round;stroke-width:0.24px;}.cls-1,.cls-10,.cls-2,.cls-3,.cls-4,.cls-5,.cls-6,.cls-7,.cls-8,.cls-9{fill-rule:evenodd;}.cls-2{fill:#124500;}.cls-3{fill:#002100;}.cls-4{fill:#c00;}.cls-5{fill:#ed0000;}.cls-6{fill:#fff;}.cls-7{fill:#360;}.cls-8{fill:#540000;}.cls-9{fill:#ff7373;}.cls-10{fill:#ffb0b0;}</style></defs><title>Asset 16</title><g id="Layer_2" data-name="Layer 2"><g id="_ÎÓÈ_1" data-name="—ÎÓÈ_1"><path class="cls-1" d="M69.25,12.56c.51,1.38-4,7.7,2.47,10,6.7,2.39,4,2.53,7.76,5,.13.08.22-.22.23-.28-1.53,1.3.86-6.17-4.17-8.39-1.42-.62-5.31-2.42-5.8-4a15.34,15.34,0,0,1-.49-2.32Z"/><path class="cls-1" d="M101,10.48C99.64,12.05,102.19,20,92.53,20c-9.92,0-6,4-12,5.45-.2,0-.19-.39-.18-.48,1.42,2.43,1.76-8.5,9.41-9.07,2.16-.16,8.11-.72,9.49-2.58A25.52,25.52,0,0,0,101,10.48Z"/><path class="cls-2" d="M117.18,15.79c-2.69,1.47-3.43,13.83-16.86,8.62-13.8-5.36-10.43,2.33-19.66,1-.32,0-.06-.65,0-.75.66,4.13,7.06-10.87,18-7.51,3.09.94,11.66,3.4,14.59,1.58a38,38,0,0,0,3.94-3Z"/><path class="cls-2" d="M39,15.79c2.93,1.47,3.73,13.83,18.39,8.62,15.06-5.36,11.38,2.33,21.46,1,.34,0,.06-.65,0-.75-.71,4.13-7.7-10.87-19.63-7.51-3.37.94-12.72,3.4-15.92,1.58a40.6,40.6,0,0,1-4.29-3Z"/><path class="cls-3" d="M30.67,34.1c4.83-2.28,15.75-12.79,36.6-11.86,4.28.19,10.88,4.33,15.27,3.51,7.33-.05,33.53-3.72,36.56-1.46C130.21,32.58,97.54,49,83.87,47.11,68,44.93,43.25,28.16,30.67,34.1Z"/><path class="cls-4" d="M83.2,30.22c52.93-19.07,83.19,20.63,83.19,57.19S129.15,153.6,83.2,153.6,0,124,0,87.41,22.47,15.13,83.2,30.22Z"/><path class="cls-5" d="M83.2,36.55C128.79,21.06,154.86,53.31,154.86,83s-32.09,53.79-71.66,53.79S11.54,112.73,11.54,83,30.89,24.28,83.2,36.55Z"/><path class="cls-6" d="M28.86,43.83c3,1.71,3.16,7,.4,11.83S21.83,63,18.84,61.29s-3.16-7-.4-11.83,7.43-7.34,10.42-5.63Z"/><path class="cls-6" d="M140.47,45.77c-1.23,1-1,3.35.55,5.34s3.79,2.84,5,1.88,1-3.34-.55-5.33-3.79-2.84-5-1.89Z"/><path class="cls-7" d="M128.72,44.29C125.87,40.18,83.6,27.12,84,26.22s33.82,4.39,50.83.17c-14.1,1.94-29.45-14.32-48.59-3.16C81.36,14,85,6.22,94.67,3.31c1.19-1.63-1-3.51-2.41-3.29C85.57,4.68,77.53,11.12,77.68,24.1c-6.06-2.8-7.38-9.25-17.61-5.51s-31,9.54-31.11,9.52c.07.19,26.4,7.75,37.07-3.37,3.52-3.67,9.34,4.32,15.31,1.58.52-.24.82.09.66.28-4.08,4.64-26.75,1.23-26.75,19.71,17.06-10.12,21,3,27.05-19.64,0-.1.3-.07.31,0,1.51,19.49,7.74,16.58,28.64,16.58,14.36,0,4.94-.08,16.79,1l.68,0Z"/><path class="cls-8" d="M107.13,49.19c-3.88-2.57-1.23-5.23,1.07-3.9a13.47,13.47,0,0,0,6.5,1.64c2.65.09,3.29,3.76-1.07,3.9a10.61,10.61,0,0,1-6.5-1.64Z"/><path class="cls-8" d="M62,48.87c3.62-2.91.74-5.32-1.43-3.79a13.47,13.47,0,0,1-6.31,2.24c-2.64.33-2.94,4,1.42,3.78A10.68,10.68,0,0,0,62,48.87Z"/><path class="cls-8" d="M51.36,71a1.2,1.2,0,0,1-1-1.38c.11-.65.74-.8,1.38-1,5.22-1.51,9.41-.92,13.35,2.25.51.42,1.09.73,1,1.38a1.19,1.19,0,0,1-1.37,1c-3.53-2.92-8-3.54-13.35-2.25Z"/><path class="cls-8" d="M117.7,71a1.2,1.2,0,0,0,1-1.38c-.11-.65-.74-.8-1.38-1-5.21-1.51-9.4-.92-13.35,2.25-.51.42-1.09.73-1,1.38a1.21,1.21,0,0,0,1.38,1c3.52-2.92,8-3.54,13.35-2.25Z"/><path class="cls-9" d="M142.54,81.31c4.3-2.69,10.08,2.58,8,6.74s-12,3.59-13.93,5.11c.35-2.19-6.73-9.28-4.26-14.22s9.83-2,10.19,2.37Z"/><path class="cls-6" d="M143.1,82a4.25,4.25,0,0,1,5.25.7,4.23,4.23,0,0,0-5.14-.09,3.12,3.12,0,0,0-.11-.61Zm-5.94,10.18c.32-1.93-5.94-8.2-3.76-12.56,1.62-3.24,5.62-2.62,7.7-.53-2.17-1.74-5.73-2.07-7.24.94-2.34,4.69,3.77,9.87,3.3,12.15Z"/><path class="cls-9" d="M162.08,33.66c2-6.42,12.29-6.17,13.82-.22s-8.88,14-9.47,17.17c-1.54-2.49-14.76-3.43-16.57-10.49s8.12-10.46,12.22-6.46Z"/><path class="cls-6" d="M163.24,33.85A5.61,5.61,0,0,1,169.08,30c-2.22-.09-4.37,1.63-5.2,4.37a5.2,5.2,0,0,0-.64-.52Zm2.9,15.3c-1.36-2.2-13-3-14.64-9.27-1.19-4.63,3.33-7.48,7.23-7.2-3.68.14-7.52,2.9-6.41,7.22,1.71,6.7,12.3,6.58,13.82,9.25Z"/><path class="cls-9" d="M149.33,10.25c2.76-1.73,6.48,1.65,5.14,4.33s-7.72,2.31-8.95,3.28c.23-1.41-4.32-6-2.73-9.13s6.31-1.26,6.54,1.52Z"/><path class="cls-6" d="M149.69,10.69a2.75,2.75,0,0,1,3.38.45,2.74,2.74,0,0,0-3.31-.06,1.78,1.78,0,0,0-.07-.39Zm-3.81,6.54c.2-1.24-3.82-5.27-2.42-8.07,1-2.08,3.61-1.68,4.95-.34-1.39-1.12-3.68-1.33-4.65.61-1.51,3,2.42,6.34,2.12,7.8Z"/><path class="cls-4" d="M69.55,100.83c6.57,6.18,11.52-5.37,15-5.37,4.3,0,8.89,11.94,14.94,5.26-1.69,3.07-5.46,5.39-7.87,7.56s-3.42,6.1-7,6-5.25-4.14-7.33-6a101.11,101.11,0,0,1-7.79-7.45Z"/><path class="cls-10" d="M69.55,100.83c2.65,2.49,5,2.18,7.53,1.46s4.51-5.48,7.48-5.48,5.83,4.64,7.41,5.25,4.69,1.79,7.53-1.34c-1.69,3.07-5,3.89-7.87,5.5s-4.51,5.21-7,5.18-4.87-4-7.33-5.19-5.09-2.36-7.79-5.38Z"/><path class="cls-8" d="M69.55,100.83c2.65,2.49,5,2.18,7.53,1.46s4.51-3.61,7.48-3.61,5.83,2.77,7.41,3.38,4.69,1.79,7.53-1.34c-1.69,3.07-5.12,2.88-7.87,4s-4.51,3.08-7,3-5.25-2.49-7.33-3-5.09-.83-7.79-3.85Z"/><path class="cls-9" d="M112.07,94.08c.22-3.31,5.22-4.36,6.63-1.66s-2.7,7.74-2.62,9.33c-1-1-7.49,0-9.16-3.19s2.73-6,5.15-4.48Z"/><path class="cls-6" d="M112.65,94A2.79,2.79,0,0,1,115,91.53a2.75,2.75,0,0,0-2,2.69,2.53,2.53,0,0,0-.37-.18Zm3.12,7c-.9-.91-6.62,0-8.09-2.81-1.09-2.1.76-4,2.67-4.28-1.76.48-3.29,2.24-2.27,4.19,1.58,3,6.66,1.78,7.69,2.9Z"/><path class="cls-9" d="M130.82,56.58c.22-3.31,5.22-4.36,6.63-1.66s-2.7,7.74-2.62,9.33c-1-1-7.49,0-9.16-3.19s2.73-6,5.15-4.48Z"/><path class="cls-6" d="M131.4,56.54A2.79,2.79,0,0,1,133.78,54a2.75,2.75,0,0,0-2,2.69,2.53,2.53,0,0,0-.37-.18Zm3.12,7c-.9-.91-6.62,0-8.09-2.81-1.09-2.1.76-4,2.67-4.28-1.76.48-3.29,2.24-2.27,4.19,1.58,3,6.66,1.78,7.69,2.9Z"/></g></g></svg>