<svg xmlns="http://www.w3.org/2000/svg" viewBox="0 0 166.39 153.6"><defs><style>.cls-1{fill:#030;}.cls-1,.cls-2{stroke:#000;stroke-linecap:round;stroke-linejoin:round;stroke-width:0.24px;}.cls-1,.cls-2,.cls-3,.cls-4,.cls-5,.cls-6,.cls-7,.cls-8,.cls-9{fill-rule:evenodd;}.cls-2{fill:#124500;}.cls-3{fill:#002100;}.cls-4{fill:#c00;}.cls-5{fill:#ed0000;}.cls-6{fill:#fff;}.cls-7{fill:#360;}.cls-8{fill:#540000;}.cls-9{fill:#ffa1a1;}</style></defs><title>Asset 4</title><g id="Layer_2" data-name="Layer 2"><g id="_ÎÓÈ_1" data-name="—ÎÓÈ_1"><path class="cls-1" d="M69.25,12.56c.51,1.38-4,7.7,2.47,10,6.7,2.39,4,2.53,7.76,5,.13.08.22-.22.23-.28-1.53,1.3.86-6.17-4.17-8.39-1.42-.62-5.31-2.42-5.8-4a15.34,15.34,0,0,1-.49-2.32Z"/><path class="cls-1" d="M101,10.48C99.64,12.05,102.19,20,92.53,20c-9.92,0-6,4-12,5.45-.2,0-.19-.39-.18-.48,1.42,2.43,1.76-8.5,9.41-9.07,2.16-.16,8.11-.72,9.49-2.58A25.52,25.52,0,0,0,101,10.48Z"/><path class="cls-2" d="M117.18,15.79c-2.69,1.47-3.43,13.83-16.86,8.62-13.8-5.36-10.43,2.33-19.66,1-.32,0-.06-.65,0-.75.66,4.13,7.06-10.87,18-7.51,3.09.94,11.66,3.4,14.59,1.58a38,38,0,0,0,3.94-3Z"/><path class="cls-2" d="M39,15.79c2.93,1.47,3.73,13.83,18.39,8.62,15.06-5.36,11.38,2.33,21.46,1,.34,0,.06-.65,0-.75-.71,4.13-7.7-10.87-19.63-7.51-3.37.94-12.72,3.4-15.92,1.58a40.6,40.6,0,0,1-4.29-3Z"/><path class="cls-3" d="M30.67,34.1c4.83-2.28,15.75-12.79,36.6-11.86,4.28.19,10.88,4.33,15.27,3.51,7.33-.05,33.53-3.72,36.56-1.46C130.21,32.58,97.54,49,83.87,47.11,68,44.93,43.25,28.16,30.67,34.1Z"/><path class="cls-4" d="M83.2,30.22c52.93-19.07,83.19,20.63,83.19,57.19S129.15,153.6,83.2,153.6,0,124,0,87.41,22.47,15.13,83.2,30.22Z"/><path class="cls-5" d="M83.2,36.55C128.79,21.06,154.86,53.31,154.86,83s-32.09,53.79-71.66,53.79S11.54,112.73,11.54,83,30.89,24.28,83.2,36.55Z"/><path class="cls-6" d="M28.86,43.83c3,1.71,3.16,7,.4,11.83S21.83,63,18.84,61.29s-3.16-7-.4-11.83,7.43-7.34,10.42-5.63Z"/><path class="cls-6" d="M140.47,45.77c-1.23,1-1,3.35.55,5.34s3.79,2.84,5,1.88,1-3.34-.55-5.33-3.79-2.84-5-1.89Z"/><path class="cls-7" d="M128.72,44.29C125.87,40.18,83.6,27.12,84,26.22s33.82,4.39,50.83.17c-14.1,1.94-29.45-14.32-48.59-3.17C81.36,14,85,6.22,94.67,3.31c1.19-1.63-1-3.51-2.41-3.29C85.57,4.68,77.53,11.12,77.68,24.1c-6.06-2.8-7.38-9.25-17.61-5.51s-31,9.54-31.11,9.52c.07.19,26.4,7.75,37.07-3.37,3.52-3.67,9.34,4.32,15.31,1.58.52-.24.82.09.66.27-4.08,4.65-26.75,1.24-26.75,19.72,17.06-10.12,21,3,27.05-19.64,0-.1.3-.07.31,0,1.51,19.49,7.74,16.58,28.64,16.58,14.36,0,4.94-.08,16.79,1l.68,0Z"/><path class="cls-8" d="M106.55,46.19c-4.6.72-3.3,4.24-.65,4a13.52,13.52,0,0,1,6.59,1.21c2.45,1,4.56-2,.65-4a10.62,10.62,0,0,0-6.59-1.21Z"/><path class="cls-8" d="M59.66,46.19c4.59.72,3.29,4.24.65,4a13.5,13.5,0,0,0-6.59,1.21c-2.45,1-4.56-2-.65-4a10.62,10.62,0,0,1,6.59-1.21Z"/><path class="cls-9" d="M37.2,93.52c17.48,10,78.41,8.83,92,.08-2,9.77-25.8,48.72-45.91,48.25S39.43,105.39,37.2,93.52Z"/><path class="cls-8" d="M37.2,93.52c17.48,10,78.41,8.83,92,.08-2,9.77-26.84,45.15-46.95,44.67s-42.81-32.88-45-44.75Z"/><path class="cls-6" d="M51,99.77c18.5,3.61,46.74,3.36,64.5.06v10.53a166.86,166.86,0,0,1-64.5,0V99.77Z"/><path class="cls-8" d="M57.45,71.68a6.6,6.6,0,1,1-6.6,6.6,6.59,6.59,0,0,1,6.6-6.6Z"/><path class="cls-6" d="M54.68,73.63A1.88,1.88,0,1,1,52.8,75.5a1.87,1.87,0,0,1,1.88-1.87Z"/><path class="cls-8" d="M108.75,71.68a6.6,6.6,0,1,1-6.6,6.6,6.59,6.59,0,0,1,6.6-6.6Z"/><path class="cls-6" d="M106,73.63a1.88,1.88,0,1,1-1.88,1.87A1.87,1.87,0,0,1,106,73.63Z"/><path class="cls-6" d="M109.28,120.46c-8.18,8.71-18.07,16-27,15.76-8.69-.2-17.9-6.74-25.52-14.84,8,5.93,16.85,10.25,25.33,10.42,8.86.17,18.52-4.74,27.17-11.34Z"/></g></g></svg>