<svg xmlns="http://www.w3.org/2000/svg" viewBox="0 0 188.54 99.09"><defs><style>.cls-1{fill:#44c0be;}</style></defs><title>Asset 12</title><g id="Layer_2" data-name="Layer 2"><g id="_ÎÓÈ_2" data-name="—ÎÓÈ_2"><path class="cls-1" d="M105.68,32.64,98,45H36.5L27.31,33.57s-9.06,10.7-18.31,1L7.25,26.27l4.75-8L21.25,16l5.95,5,5.3,2.25L47.75,11.52H95Z"/><path class="cls-1" d="M3.76,70.4S8,59.27,19.75,58l97-2,29.07,7.19,3.64,9.31-5,3.9s.75,16.35-23.25,18.85h-94s-13.7-5.5-13.95-17.75Z"/><rect class="cls-1" x="166.5" y="28.27" width="17.5" height="9.5"/><path d="M81.67,4a2.26,2.26,0,0,1-2.44,2H57.51a2.25,2.25,0,0,1-2.43-2V2a2.25,2.25,0,0,1,2.43-2H79.23a2.26,2.26,0,0,1,2.44,2Z"/><path d="M18.54,42.54A14.78,14.78,0,1,1,33.31,27.77,14.79,14.79,0,0,1,18.54,42.54Zm0-23.55a8.78,8.78,0,1,0,8.77,8.78A8.79,8.79,0,0,0,18.54,19Z"/><path d="M35.32,92.63A11.12,11.12,0,1,1,46.43,81.52,11.13,11.13,0,0,1,35.32,92.63Zm0-16.23a5.12,5.12,0,1,0,5.11,5.12A5.13,5.13,0,0,0,35.32,76.4Z"/><path d="M76.56,92.63A11.12,11.12,0,1,1,87.67,81.52,11.13,11.13,0,0,1,76.56,92.63Zm0-16.23a5.12,5.12,0,1,0,5.11,5.12A5.13,5.13,0,0,0,76.56,76.4Z"/><path d="M116.79,92.63a11.12,11.12,0,1,1,11.12-11.11A11.12,11.12,0,0,1,116.79,92.63Zm0-16.23a5.12,5.12,0,1,0,5.12,5.12A5.12,5.12,0,0,0,116.79,76.4Z"/><path d="M98.7,47.92H35.8L35,47.24C34.62,47,26.32,40,27.28,30.13,28,22.39,34.14,15.37,45.45,9.28l.67-.36H96.27l13.87,23.95Zm-60.65-6H95.72l7.23-9.5L92.81,14.92H47.64C38.77,19.83,33.8,25.26,33.26,30.67S36.43,40.3,38.05,41.92Z"/><path d="M183.54,24.42H167.71a5,5,0,0,0-5,5v.22H103.18v6h59.53v.22a5,5,0,0,0,5,5h15.83a5,5,0,0,0,5-5V29.42A5,5,0,0,0,183.54,24.42Zm-1,10.44H169V30.42h13.59Z"/><path d="M120.88,99.09H26.55l-.61-.24c-6.32-2.45-16.77-9.42-16-19.62C7,78.5,3.33,77,1.36,74.08A8.08,8.08,0,0,1,.41,67c2.65-8.74,13.77-12.64,15-13.06l.54-.17H116.86l31.51,5.73,6,14.72-7,3.43C145.45,82.78,138,99.09,120.88,99.09Zm-93-7h93c14.72,0,20.26-17.79,20.31-18l.44-1.46,3.81-1.86-2.09-5.11-27.12-4.93H17.14c-2.76,1-8.75,4.05-10,8.26-.22.74-.05,1,.06,1.16,1,1.43,4.8,2.52,7.21,2.76l4.4.43-1.43,4.19C14.61,85.58,25.31,90.92,27.92,92.09Z"/></g></g></svg>