<svg xmlns="http://www.w3.org/2000/svg" viewBox="0 0 217.67 57.41"><defs><style>.cls-1{fill:#44c0be;}.cls-2{fill:#f8c34f;}</style></defs><title>Asset 14</title><g id="Layer_2" data-name="Layer 2"><g id="_ÎÓÈ_2" data-name="—ÎÓÈ_2"><polygon class="cls-1" points="8.54 11.66 23.21 11.66 23.21 17.66 34.87 17.66 44.87 2.66 82.21 2.66 82.21 15.2 136.87 17.66 213.21 33.32 213.21 42.99 22.87 44.32 2.21 35.83 2.21 20.66 8.54 11.66"/><circle class="cls-2" cx="50.7" cy="35.83" r="17.68"/><circle class="cls-2" cx="156.52" cy="35.83" r="17.68"/><path d="M213.39,29.63l-42.34-9.7a21.39,21.39,0,0,0-22.61-4.09L138.35,13h-53V5a5,5,0,0,0-5-5H42.44l-10,14.25H26.07L24.07,9H5.66L0,18.15V37.88l22.43,8.77h9.62a21.53,21.53,0,0,0,37.29,0h68.53a21.53,21.53,0,0,0,37.29,0h37.51a5,5,0,0,0,5-5V35A5.63,5.63,0,0,0,213.39,29.63ZM50.7,51.41A15.58,15.58,0,1,1,66.28,35.83,15.6,15.6,0,0,1,50.7,51.41Zm21-10.76a21.85,21.85,0,0,0,.56-4.82,21.58,21.58,0,0,0-43.16,0,21.26,21.26,0,0,0,.56,4.82H23.57L6,33.78V19.86L9,15H19.93l2,5.25H35.56L45.56,6H79.33V19h58.19l4.19,1.18a21.48,21.48,0,0,0-6.77,15.65,21.26,21.26,0,0,0,.56,4.82Zm84.8,10.76A15.58,15.58,0,1,1,172.1,35.83,15.6,15.6,0,0,1,156.52,51.41Zm55.15-10.76H177.54a21.85,21.85,0,0,0,.56-4.82,21.37,21.37,0,0,0-1.78-8.54l35.35,8.1Z"/><path d="M156.52,27.35A8.49,8.49,0,1,0,165,35.83,8.49,8.49,0,0,0,156.52,27.35Zm0,11A2.49,2.49,0,1,1,159,35.83,2.49,2.49,0,0,1,156.52,38.32Z"/><path d="M50.7,27.35a8.49,8.49,0,1,0,8.48,8.48A8.49,8.49,0,0,0,50.7,27.35Zm0,11a2.49,2.49,0,1,1,2.48-2.49A2.49,2.49,0,0,1,50.7,38.32Z"/></g></g></svg>