<svg xmlns="http://www.w3.org/2000/svg" viewBox="0 0 134.1 71.55"><defs><style>.cls-1{fill:#44c0be;}</style></defs><title>Asset 4</title><g id="Layer_2" data-name="Layer 2"><g id="_ÎÓÈ_2" data-name="—ÎÓÈ_2"><path class="cls-1" d="M126.44,31.65a5,5,0,0,0,4.65-5V24.58a5.45,5.45,0,0,0-4.45-5.31L112.18,16.7a4,4,0,0,1-1.56-.94C104.68,9.18,92.32,1.1,67.18,0h-.26C41.75,1.1,29.39,9.2,23.45,15.8a3.65,3.65,0,0,1-1.5.89L5.54,19.3A5.39,5.39,0,0,0,1,24.58v2.08a5,5,0,0,0,5,5H7.64C-4.56,45.11,1.43,68.23,1.73,69.33l.59,2.22H26.66v-6h75.66v6h29.46l.6-2.22C132.67,68.23,138.66,45.12,126.44,31.65Zm-94,17h-19s-3-4,1.67-10L32.45,46Zm.83-22.75s5.3-11,33.77-13.5,33.48,13.5,33.48,13.5Zm86.5,23.5h-18.5V45.66l18.5-6.25C123.78,43.16,119.78,49.41,119.78,49.41Z"/><path d="M131.78,71.55H102.32v-6H26.66v6H2.32l-.59-2.22c-.3-1.1-6.29-24.22,5.91-37.67H6a5,5,0,0,1-5-5V24.58A5.39,5.39,0,0,1,5.54,19.3L22,16.69a3.65,3.65,0,0,0,1.5-.89C29.39,9.2,41.75,1.1,66.92,0h.26c25.14,1.09,37.5,9.17,43.44,15.75a4,4,0,0,0,1.56.94l14.46,2.57a5.45,5.45,0,0,1,4.45,5.31v2.08a5,5,0,0,1-4.65,5c12.22,13.47,6.23,36.58,5.94,37.68Zm-23.46-6h18.74c1.24-6.51,3.56-25.54-9.3-33.36-2.4-1.46-2.17-3.34-2-4.08s1-2.45,3.78-2.45h5.52v-.57l-14-2.48a9.66,9.66,0,0,1-5-2.82C101,14.06,90,7,67.05,6c-23,1-34,8.07-39.14,13.81a9.44,9.44,0,0,1-5,2.8L7,25.14v.52h7.5c2.8,0,3.58,1.71,3.78,2.45s.43,2.62-2,4.08C3.45,40,5.8,59.05,7,65.55H20.66v-1a5,5,0,0,1,5-5h77.66a5,5,0,0,1,5,5Z"/><path d="M67.05,16.37c14.16.68,22.45,3.79,27.24,6.87H39.82c4.79-3.08,13.07-6.19,27.23-6.87m0-6C33,11.93,28.1,26.88,27.68,28.42l-.09.82h78.93l-.1-.81c-.41-1.54-5.3-16.5-39.37-18.07Z"/><path d="M32.38,51.68H10.28l-.61-2.2c-1.39-5,2.29-11.19,2.71-11.88l1.2-1.94,19.71,5.69a5.81,5.81,0,0,1,4.09,5.39A5,5,0,0,1,32.38,51.68Zm-16.88-6H26.65L16.47,42.74A14.66,14.66,0,0,0,15.5,45.68Z"/><path d="M123.83,51.68h-22.1a5,5,0,0,1-5-4.94,5.81,5.81,0,0,1,4.09-5.39l19.71-5.69,1.2,1.94c.42.69,4.1,6.88,2.71,11.88Zm-16.37-6h11.15a15.38,15.38,0,0,0-1-2.94Z"/></g></g></svg>