<svg xmlns="http://www.w3.org/2000/svg" viewBox="0 0 189.67 106.45"><defs><style>.cls-1{fill:#f8c34f;}.cls-2{fill:#44c0be;}</style></defs><title>Asset 6</title><g id="Layer_2" data-name="Layer 2"><g id="_ÎÓÈ_2" data-name="—ÎÓÈ_2"><path class="cls-1" d="M171.21,3.09l-131.34,2L22.21,82.84l6.33,8.92H182.21l4.33-5.67V16.42ZM161,52.42H110.37V31.26H161Z"/><circle class="cls-2" cx="121.21" cy="87.76" r="17.5"/><path d="M166.67,0h-122a9.5,9.5,0,0,0-9,7.25L21.6,72.35H6V68.78a2,2,0,0,0-2-2H2a2,2,0,0,0-2,2v4.57a5,5,0,0,0,5,5H20.3l-.45,2.08A10.72,10.72,0,0,0,30.67,93.84h72.88a19,19,0,0,0,35.81,0h42.31a8,8,0,0,0,8-8V23A23,23,0,0,0,166.67,0ZM121.45,100.45a13.05,13.05,0,1,1,13.06-13A13.07,13.07,0,0,1,121.45,100.45Zm62.22-14.61a2,2,0,0,1-2,2H140.49c0-.15,0-.29,0-.44a19.06,19.06,0,0,0-38.11,0c0,.15,0,.29,0,.44H30.67a4.75,4.75,0,0,1-5-6.14L41.54,8.52A3.5,3.5,0,0,1,44.67,6h122a17,17,0,0,1,17,17Z"/><path d="M82,28.44H56.33a5,5,0,0,0-5,5v47.4a2,2,0,0,0,2,2h2a2,2,0,0,0,2-2V34.44H81v46.4a2,2,0,0,0,2,2h2a2,2,0,0,0,2-2V33.44A5,5,0,0,0,82,28.44Z"/><path d="M160,27H111a5,5,0,0,0-5,5V51.81a5,5,0,0,0,5,5h49a5,5,0,0,0,5-5V32A5,5,0,0,0,160,27Zm-1,23.79H112V33h47Z"/></g></g></svg>