<svg xmlns="http://www.w3.org/2000/svg" viewBox="0 0 187 90.85"><defs><style>.cls-1{fill:#44c0be;}.cls-2{fill:#f8c34f;}</style></defs><title>Asset 9</title><g id="Layer_2" data-name="Layer 2"><g id="_ÎÓÈ_2" data-name="—ÎÓÈ_2"><rect class="cls-1" x="4.16" y="3.91" width="109.67" height="71.98"/><path class="cls-1" d="M165.83,18.91H134.16v57h48.67V41S181.83,23.31,165.83,18.91Zm5.1,33.66h-20.1v-22h14C175.16,37.24,170.93,52.57,170.93,52.57Z"/><circle class="cls-2" cx="155.97" cy="75.89" r="12.24"/><circle class="cls-2" cx="41.54" cy="75.89" r="12.24" transform="translate(-16.32 11.57) rotate(-13.28)"/><path d="M41.54,90.85a15,15,0,1,1,15-15A15,15,0,0,1,41.54,90.85Zm0-23.92a9,9,0,1,0,9,9A9,9,0,0,0,41.54,66.93Z"/><path d="M156,90.85a15,15,0,1,1,15-15A15,15,0,0,1,156,90.85Zm0-23.92a9,9,0,1,0,9,9A9,9,0,0,0,156,66.93Z"/><rect x="53.5" y="72.89" width="90.5" height="6"/><path d="M30.94,78.89H5a5,5,0,0,1-5-5V5A5,5,0,0,1,5,0H113.25a5,5,0,0,1,5,5V75.89h-6V6H6V72.89H30.94Z"/><path d="M182,78.89H167.93v-6H181V45.75c0-.79-.08-18.69-17.29-25.25H136V75.89h-6V19.5a5,5,0,0,1,5-5h29.78l.49.18C187,22.56,187,45.55,187,45.79v28.1A5,5,0,0,1,182,78.89Z"/><path d="M170.25,55h-18.5a5,5,0,0,1-5-5V32a5,5,0,0,1,5-5h13.11l.74.46c7.78,4.89,9.37,16.15,9.62,22.42a4.9,4.9,0,0,1-1.36,3.59A5,5,0,0,1,170.25,55Zm-17.5-6h16.41c-.26-3.9-1.39-12.38-6.1-16H152.75Z"/></g></g></svg>