<svg xmlns="http://www.w3.org/2000/svg" viewBox="0 0 174.72 94"><defs><style>.cls-1{fill:#44c0be;}.cls-2{fill:#f8c34f;}</style></defs><title>Asset 16</title><g id="Layer_2" data-name="Layer 2"><g id="_ÎÓÈ_2" data-name="—ÎÓÈ_2"><path class="cls-1" d="M156.09,25.28h-38l-.66,39.91h-10V15l7.66-5,.34-6h-103l-.34,50.67-10,8.66,4,18H35.43l5.29-2h130v-22C166.79,37.08,156.09,25.28,156.09,25.28Zm2,32.34H134.43V33h15C158.43,41,158.09,57.62,158.09,57.62Z"/><rect class="cls-2" x="81.43" y="14.62" width="10.67" height="46.63"/><rect class="cls-2" x="54.39" y="15.04" width="10.67" height="46.63"/><rect class="cls-2" x="27.36" y="15.47" width="10.67" height="46.63"/><circle class="cls-2" cx="54.39" cy="82.53" r="8.2"/><circle class="cls-2" cx="84.89" cy="82.53" r="8.2"/><circle class="cls-2" cx="155.64" cy="83.53" r="8.2"/><path d="M174.68,57.47c-.16-.9-4.11-22.26-17.45-34.89l-.87-.82h-36.3a5,5,0,0,0-5,5V62.17h-4.67V16.4l5.37-2.65A6.21,6.21,0,0,0,119.08,8l-.22-3.18A5.16,5.16,0,0,0,113.72,0h-100a5,5,0,0,0-5,5V53.77L2.48,58.59a6.76,6.76,0,0,0-2.42,6l2.4,15.61a5.44,5.44,0,0,0,5.26,4.52H36.09l5.25-2.26h2.41c0,.17,0,.34,0,.51a11,11,0,0,0,22,0c0-.17,0-.34,0-.51h8c0,.17,0,.34,0,.51a11,11,0,0,0,22,0c0-.17,0-.34,0-.51h48.52c0,.17,0,.34,0,.51a11,11,0,0,0,22,0c0-.17,0-.34,0-.51h3.58a5,5,0,0,0,5-5V58ZM54.72,88a5,5,0,1,1,5-5A5,5,0,0,1,54.72,88Zm30,0a5,5,0,1,1,5-5A5,5,0,0,1,84.7,88Zm70.46,0a5,5,0,1,1,5-5A5,5,0,0,1,155.16,88Zm13.56-11.51H164a11,11,0,0,0-17.69,0H93.54a10.95,10.95,0,0,0-17.68,0H63.57a11,11,0,0,0-17.69,0H40.11l-5.25,2.26H8.3L6,63.77a1.14,1.14,0,0,1,.14-.43l8.58-6.62V6h98.21l.16,2.29-.07.12-8.63,4.26v50.5a5,5,0,0,0,5,5h6.67a5,5,0,0,0,5-5V27.76h32.88C164.48,38.45,168.27,56,168.72,58.29Z"/><path d="M90.7,11.53h-7a5,5,0,0,0-5,5V60.19a5,5,0,0,0,5,5h7a5,5,0,0,0,5-5V16.53A5,5,0,0,0,90.7,11.53Zm-1,47.66h-5V17.53h5Z"/><path d="M63.21,11.53h-7a5,5,0,0,0-5,5V60.19a5,5,0,0,0,5,5h7a5,5,0,0,0,5-5V16.53A5,5,0,0,0,63.21,11.53Zm-1,47.66h-5V17.53h5Z"/><path d="M35.72,11.53h-7a5,5,0,0,0-5,5V60.19a5,5,0,0,0,5,5h7a5,5,0,0,0,5-5V16.53A5,5,0,0,0,35.72,11.53Zm-1,47.66h-5V17.53h5Z"/><path d="M150,29.5H135.72a5,5,0,0,0-5,5V56.25a5,5,0,0,0,5,5h21a4.83,4.83,0,0,0,3.65-1.63,4.78,4.78,0,0,0,1.13-3.74c-1.76-13.55-10.29-24.74-10.65-25.21ZM136.72,55.25V35.5h10.21c2,2.88,6.86,10.75,8.41,19.75Z"/></g></g></svg>