<svg xmlns="http://www.w3.org/2000/svg" viewBox="0 0 165.55 107.9"><defs><style>.cls-1{fill:#44c0be;}.cls-2{fill:#f8c34f;}</style></defs><title>Asset 7</title><g id="Layer_2" data-name="Layer 2"><g id="_ÎÓÈ_2" data-name="—ÎÓÈ_2"><path class="cls-1" d="M11.51,11.15H156.15s16.16,34.25,0,62.33L11.51,74.85S-9.82,40.82,11.51,11.15Z"/><circle class="cls-2" cx="22.77" cy="94.03" r="10.5"/><circle class="cls-2" cx="52.27" cy="94.03" r="10.5"/><circle class="cls-2" cx="112.15" cy="94.03" r="10.5"/><circle class="cls-2" cx="142.27" cy="94.03" r="10.5"/><rect class="cls-2" x="73.18" y="76.15" width="18.67" height="22"/><path d="M142.27,107.9A13.88,13.88,0,1,1,156.15,94,13.88,13.88,0,0,1,142.27,107.9Zm0-21.75A7.88,7.88,0,1,0,150.15,94,7.89,7.89,0,0,0,142.27,86.15Z"/><path d="M112.15,107.9A13.88,13.88,0,1,1,126,94,13.89,13.89,0,0,1,112.15,107.9Zm0-21.75A7.88,7.88,0,1,0,120,94,7.9,7.9,0,0,0,112.15,86.15Z"/><path d="M52.27,107.9A13.88,13.88,0,1,1,66.15,94,13.88,13.88,0,0,1,52.27,107.9Zm0-21.75A7.88,7.88,0,1,0,60.15,94,7.89,7.89,0,0,0,52.27,86.15Z"/><path d="M22.77,107.9A13.88,13.88,0,1,1,36.65,94,13.88,13.88,0,0,1,22.77,107.9Zm0-21.75A7.88,7.88,0,1,0,30.65,94,7.89,7.89,0,0,0,22.77,86.15Z"/><path d="M90.29,101.35h-15a5,5,0,0,1-5-5V74.85h6v20.5h13V74.85h6v21.5A5,5,0,0,1,90.29,101.35Z"/><rect x="4.08" y="71.85" width="157.39" height="6" rx="2"/><path d="M157.39,77.85H9.89L9,76.3c-20-36.22-.69-65.77.14-67L10.06,8H157l.88,1.36c.69,1.06,16.72,26.31.27,66.67Zm-143.93-6H153.34c12-31.2,3.08-52.47.28-57.9H13.34C10,19.75-1.42,43.33,13.46,71.85Z"/><path d="M62.27,57.88h-2a2,2,0,0,1-2-2V14h-19V55.88a2,2,0,0,1-2,2h-2a2,2,0,0,1-2-2V8h31V55.88A2,2,0,0,1,62.27,57.88Z"/><rect x="36.27" y="16.88" width="25" height="6"/><rect x="36.27" y="31.42" width="25" height="6"/><rect x="36.27" y="45.95" width="25" height="6"/><rect x="99.06" width="39.43" height="6" rx="2"/></g></g></svg>