<svg xmlns="http://www.w3.org/2000/svg" viewBox="0 0 175.12 60.14"><defs><style>.cls-1{fill:#f8c34f;}.cls-2{fill:#44c0be;}</style></defs><title>Asset 10</title><g id="Layer_2" data-name="Layer 2"><g id="_ÎÓÈ_2" data-name="—ÎÓÈ_2"><rect class="cls-1" x="3.6" y="3.55" width="120.33" height="36.09"/><path class="cls-2" d="M160.43,9.8l-22.25,1.5V49.89h34.75V27.3Zm-12,23.08v-13h8.33l5.17,12.17Z"/><path class="cls-1" d="M160.43,49.89a6.79,6.79,0,1,0-6.79,6.79A6.79,6.79,0,0,0,160.43,49.89Z"/><path class="cls-1" d="M118.16,49.89a6.79,6.79,0,1,0-6.79,6.79A6.79,6.79,0,0,0,118.16,49.89Z"/><path class="cls-1" d="M92.43,49.89a6.79,6.79,0,1,0-6.79,6.79A6.79,6.79,0,0,0,92.43,49.89Z"/><path class="cls-1" d="M49.43,49.89a6.79,6.79,0,1,0-6.79,6.79A6.79,6.79,0,0,0,49.43,49.89Z"/><path class="cls-1" d="M24.43,49.89a6.79,6.79,0,1,0-6.79,6.79A6.79,6.79,0,0,0,24.43,49.89Z"/><path d="M111.37,60.14a10.25,10.25,0,1,1,10.25-10.25A10.26,10.26,0,0,1,111.37,60.14Zm0-14.5a4.25,4.25,0,1,0,4.25,4.25A4.25,4.25,0,0,0,111.37,45.64Z"/><path d="M85.64,60.14A10.25,10.25,0,1,1,95.89,49.89,10.26,10.26,0,0,1,85.64,60.14Zm0-14.5a4.25,4.25,0,1,0,4.25,4.25A4.25,4.25,0,0,0,85.64,45.64Z"/><path d="M17.64,60.14A10.25,10.25,0,1,1,27.89,49.89,10.26,10.26,0,0,1,17.64,60.14Zm0-14.5a4.25,4.25,0,1,0,4.25,4.25A4.25,4.25,0,0,0,17.64,45.64Z"/><path d="M42.64,60.14A10.25,10.25,0,1,1,52.89,49.89,10.26,10.26,0,0,1,42.64,60.14Zm0-14.5a4.25,4.25,0,1,0,4.25,4.25A4.25,4.25,0,0,0,42.64,45.64Z"/><path d="M153.64,60.14a10.25,10.25,0,1,1,10.25-10.25A10.26,10.26,0,0,1,153.64,60.14Zm0-14.5a4.25,4.25,0,1,0,4.25,4.25A4.25,4.25,0,0,0,153.64,45.64Z"/><rect x="118.62" y="46.89" width="27.77" height="6"/><rect x="90.6" y="46.89" width="13.89" height="6"/><rect x="24.1" y="46.89" width="12.14" height="6"/><path d="M170.12,52.89h-9.23v-6h8.23v-15c0-.55-.21-13.65-10.88-18.5H140.87V49.89h-6V12.37a5,5,0,0,1,5-5h19.59l.55.23c14.93,6.2,15.11,23.54,15.11,24.27v16A5,5,0,0,1,170.12,52.89Z"/><path d="M160.81,35.35h-11a5,5,0,0,1-5-5v-9a5,5,0,0,1,5-5h6.67l.41.12c.31.09,7.67,2.34,8.78,13.59a4.78,4.78,0,0,1-1.21,3.68A5,5,0,0,1,160.81,35.35Zm-10-6h8.72c-.82-4.9-3.2-6.55-4.07-7h-4.65Z"/><path d="M122.78,45.4H5a5,5,0,0,1-5-5V5A5,5,0,0,1,5,0H122.78a5,5,0,0,1,5,5V40.4A5,5,0,0,1,122.78,45.4ZM6,39.4H121.78V6H6Z"/></g></g></svg>