<svg xmlns="http://www.w3.org/2000/svg" viewBox="0 0 157.31 89.5"><defs><style>.cls-1{fill:#44c0be;}.cls-2{fill:#f8c34f;}</style></defs><title>Asset 3</title><g id="Layer_2" data-name="Layer 2"><g id="_ÎÓÈ_2" data-name="—ÎÓÈ_2"><path class="cls-1" d="M148.06,36.5l-27.34-7.2S108,5,71.87,2.63,21.72,30,21.72,30-3.94,37,3.06,53.5l7,16.5H153.72S155,42,148.06,36.5ZM46.64,29.63s8.71-13.42,25.23-12.75A32.09,32.09,0,0,1,96.39,29.63Z"/><circle class="cls-2" cx="44.83" cy="70" r="16.5"/><circle class="cls-2" cx="117.86" cy="70" r="16.5"/><path d="M44.83,89.5A19.5,19.5,0,1,1,64.33,70,19.53,19.53,0,0,1,44.83,89.5Zm0-33A13.5,13.5,0,1,0,58.33,70,13.52,13.52,0,0,0,44.83,56.5Z"/><path d="M117.86,89.5A19.5,19.5,0,1,1,137.36,70,19.53,19.53,0,0,1,117.86,89.5Zm0-33A13.5,13.5,0,1,0,131.36,70,13.52,13.52,0,0,0,117.86,56.5Z"/><rect x="61.33" y="67" width="40.03" height="6"/><path d="M156.57,73H134.36V67h16.69c.6-9.58.12-22.49-2.92-25.76-3.68-4-19-7.8-27.8-9.28L119,31.74l-.71-1.15C118.14,30.35,102.63,6.24,72.77,6h-.39C42.64,6,23.47,32.52,23.28,32.79l-.63.88-1,.28C21.5,34,10.17,37.17,6.9,46c-2.11,5.72-.49,12.77,4.79,21H28.33v6H8.49L7.6,71.69C.46,61.19-1.66,51.84,1.29,43.9,5,33.87,15.6,29.62,19,28.48,22.75,23.56,42.42-.23,72.82,0,102.51.23,119,21,122.61,26.27c5.48,1,24.27,4.8,29.92,10.89,6.34,6.83,4.69,28.78,4.29,33.11Z"/><path d="M96.83,34.06h-50A3.77,3.77,0,0,1,44,27.5c3.89-4.13,14.5-13.78,28.77-14h.46c14.17,0,23.46,9.85,26.8,14.09a4,4,0,0,1,.61,4.28A4.06,4.06,0,0,1,96.83,34.06Zm-44.7-6H92.39C88.5,24.22,81.94,19.5,73.21,19.5h-.37C64,19.63,56.7,24.22,52.13,28.06Z"/></g></g></svg>