<svg xmlns="http://www.w3.org/2000/svg" viewBox="0 0 156.7 75.09"><defs><style>.cls-1{fill:#f8c34f;}.cls-2{fill:#44c0be;}</style></defs><title>Asset 15</title><g id="Layer_2" data-name="Layer 2"><g id="_ÎÓÈ_2" data-name="—ÎÓÈ_2"><path class="cls-1" d="M16.15,3.08,4.34,30.57V63.65H145.73l8.11-7.32V3.08ZM142.34,30.57l-102,1-11.25,11-18,2c-.5-18.25,11.75-35,11.75-35l119.5.51Z"/><circle class="cls-2" cx="122.82" cy="63.65" r="8.96" transform="translate(-11.96 94.78) rotate(-40.4)"/><circle class="cls-2" cx="27.59" cy="63.65" r="8.96" transform="translate(-13.94 8.08) rotate(-13.33)"/><path d="M27.59,75.09A11.45,11.45,0,1,1,39,63.65,11.45,11.45,0,0,1,27.59,75.09Zm0-16.89A5.45,5.45,0,1,0,33,63.65,5.45,5.45,0,0,0,27.59,58.2Z"/><path d="M122.82,75.09a11.45,11.45,0,1,1,11.44-11.44A11.46,11.46,0,0,1,122.82,75.09Zm0-16.89a5.45,5.45,0,1,0,5.44,5.45A5.46,5.46,0,0,0,122.82,58.2Z"/><path d="M146.4,66.65H133.06v-6h11.33l6.31-4.76V6H18.16C4.87,19.61,5.72,51.22,6.3,60.65H19.15v6H.81L.53,64C.35,62.09-3.87,18.23,14.9.8l.86-.8H151.7a5,5,0,0,1,5,5V58.88Zm-30.67,0H36v-6h79.69ZM8.19,48.27l.17-3.51C8.8,35.5,10.87,18.45,19.7,8.13l.89-1.05H43.05v25.7l-12.32,13ZM23.41,13.08c-4.67,6.15-7.81,16.3-8.83,28.44L27.89,40l9.16-9.65V13.08Z"/><path d="M140.73,34.58H37.05V7.08H140.73a5,5,0,0,1,5,5v17.5A5,5,0,0,1,140.73,34.58Zm-97.68-6h96.68V13.08H43.05Z"/><rect x="59.39" y="10.08" width="6" height="21.5"/><rect x="87.56" y="9.57" width="6" height="21.5"/><rect x="115.73" y="9.07" width="6" height="21.5"/></g></g></svg>