<svg xmlns="http://www.w3.org/2000/svg" viewBox="0 0 156.58 110.83"><defs><style>.cls-1{fill:#f8c34f;}.cls-2{fill:#44c0be;}</style></defs><title>Asset 13</title><g id="Layer_2" data-name="Layer 2"><g id="_ÎÓÈ_2" data-name="—ÎÓÈ_2"><polygon class="cls-1" points="5.29 81.13 94.62 81.13 152.62 47.03 152.62 16.7 91.62 16.7 75.65 2.7 55.62 2.7 78.29 34.91 78.29 45.7 68.5 37.91 13.86 37.91 8.29 68.7 3.29 69.7 5.29 81.13"/><circle class="cls-2" cx="36.16" cy="85.16" r="22.3" transform="translate(-56.36 85.36) rotate(-67.11)"/><circle class="cls-2" cx="115.14" cy="85.16" r="22.3" transform="translate(-26.49 106.36) rotate(-45)"/><path d="M36.16,110.83A25.67,25.67,0,1,1,61.83,85.16,25.7,25.7,0,0,1,36.16,110.83Zm0-45.33A19.67,19.67,0,1,0,55.83,85.16,19.69,19.69,0,0,0,36.16,65.5Z"/><path d="M115.14,110.83a25.67,25.67,0,1,1,25.67-25.67A25.69,25.69,0,0,1,115.14,110.83Zm0-45.33a19.67,19.67,0,1,0,19.67,19.66A19.68,19.68,0,0,0,115.14,65.5Z"/><path d="M115.14,94.18a9,9,0,1,1,9-9A9,9,0,0,1,115.14,94.18Zm0-12a3,3,0,1,0,3,3A3,3,0,0,0,115.14,82.15Z"/><path d="M36.16,94.18a9,9,0,1,1,9-9A9,9,0,0,1,36.16,94.18Zm0-12a3,3,0,1,0,3,3A3,3,0,0,0,36.16,82.15Z"/><rect x="58.46" y="78.13" width="34.38" height="6"/><path d="M4.14,84.13,0,67.25l5.82-1.18L9.13,34.91h18V14H56L75.49,40V36.18L55.23,6H19.45a2,2,0,0,1-2-2V2a2,2,0,0,1,2-2h39L81.49,34.36V47a3.55,3.55,0,0,1-6.6,2.19L53,20H33.14v21H14.53l-3.2,30.16-4,.82,1.53,6.24h4.64v6Z"/><rect x="30.14" y="34.91" width="38.35" height="6"/><path d="M122.47,66l-2.62-5.4,30.62-14.86a2.36,2.36,0,0,0,.12-.26V20H91.43L73.87,6h-17V0H76L93.52,14h58.06a5,5,0,0,1,5,5V45.57a6.51,6.51,0,0,1-3.49,5.58Z"/></g></g></svg>