<svg xmlns="http://www.w3.org/2000/svg" viewBox="0 0 110.22 129.65"><defs><style>.cls-1{fill:#44c0be;}.cls-2{fill:#f8c34f;}</style></defs><title>Asset 1</title><g id="Layer_2" data-name="Layer 2"><g id="_ÎÓÈ_2" data-name="—ÎÓÈ_2"><polygon class="cls-1" points="41.77 2.71 41.77 43.71 72.78 43.71 57.27 5.04 41.77 2.71"/><path class="cls-2" d="M67,53.87l-45.13,0-4.34-6.16L14.17,42.9a10.8,10.8,0,0,0-7.88-4.09H0V80.14l38.13,0,0,49.48H53.39A7.76,7.76,0,0,0,60.15,125L77,80.17l33.21,0V67C110.23,59.77,90.88,53.88,67,53.87Z"/><path d="M67,53.87l-45.13,0-4.34-6.16L14.17,42.9a10.84,10.84,0,0,0-7.88-4.09H0V80.14l38.13,0,0,49.48H53.39A7.76,7.76,0,0,0,60.15,125L77,80.17l33.21,0V67C110.23,59.77,90.88,53.88,67,53.87Zm37.2,20.32-27.2,0H72.86L71.4,78.06,54.54,122.83a2.13,2.13,0,0,1-1.15.82H44.11l0-43.49v-6H6V44.81h.28a5.21,5.21,0,0,1,3,1.55l3.38,4.79L17,57.31l1.79,2.54h3.11l45.13,0c22.58,0,35.22,5.24,37.2,7.66Z"/><path d="M76.68,48.58,60.2,4.69A7.76,7.76,0,0,0,53.44,0H38.17l0,48.22H67C70,48.23,73.25,48.34,76.68,48.58ZM44.16,6h9.25a2.09,2.09,0,0,1,1.17.79L67.89,42.24H44.15Z"/></g></g></svg>