<svg xmlns="http://www.w3.org/2000/svg" viewBox="0 0 160.77 67.28"><defs><style>.cls-1{fill:#44c0be;}.cls-2{fill:#f8c34f;}</style></defs><title>Asset 8</title><g id="Layer_2" data-name="Layer 2"><g id="_ÎÓÈ_2" data-name="—ÎÓÈ_2"><path class="cls-1" d="M7.12,55.72H157.45V35.17S145.5,24.91,125,22h0l-10.19,3.44-43-.32-11.7-7.09h-36S-9.55,26.61,7.12,55.72Z"/><circle class="cls-2" cx="35.67" cy="52.76" r="12.56"/><circle class="cls-2" cx="131.07" cy="52.72" r="12.56"/><path d="M35.67,67.28A14.53,14.53,0,1,1,50.2,52.76,14.54,14.54,0,0,1,35.67,67.28Zm0-23.05a8.53,8.53,0,1,0,8.53,8.53A8.54,8.54,0,0,0,35.67,44.23Z"/><path d="M131.07,67.28A14.53,14.53,0,1,1,145.6,52.76,14.54,14.54,0,0,1,131.07,67.28Zm0-23.05a8.53,8.53,0,1,0,8.53,8.53A8.54,8.54,0,0,0,131.07,44.23Z"/><rect x="46.81" y="52.72" width="73.13" height="6"/><path d="M142.18,58.72l.06-6,12.5.12-.41-15.54c-.81-1.24-5.88-7.22-30-12.35l-1-.21-.66-.72c-.11-.13-10.72-11.9-21-18.55a2.07,2.07,0,0,1-.67-2.78l1-1.72A2,2,0,0,1,104.84.3c9.59,6.18,19.11,16.19,21.7,19,29.17,6.36,33.17,14.34,33.7,16.65l.07.29L160.77,54a4.7,4.7,0,0,1-4.71,4.84Z"/><path d="M5.64,58.88l-.86-1.57C-.37,47.94-1.36,39.47,1.83,32.13,7.35,19.44,23.36,15.25,24,15.08l.37-.09H63l7.88,6.65h43.17l10.17-2.54,1.45,5.82-10.88,2.72H68.7L60.83,21H25.19c-2.12.62-13.92,4.44-17.87,13.56-2.23,5.15-1.6,11.3,1.89,18.3l15.3-.13,0,6Z"/><path d="M67.26,13.78a2,2,0,0,1,1.36-2.48l1.92-.56A2,2,0,0,1,73,12.1l3.43,11.7-5.76,1.68Z"/></g></g></svg>