<svg xmlns="http://www.w3.org/2000/svg" xmlns:xlink="http://www.w3.org/1999/xlink" viewBox="0 0 211.16 211.16"><defs><style>.cls-1{fill-rule:evenodd;fill:url(#linear-gradient);}.cls-2{fill:url(#linear-gradient-2);}.cls-3{fill:url(#linear-gradient-3);}.cls-4{fill:url(#linear-gradient-4);}.cls-5{fill:url(#linear-gradient-5);}.cls-6{fill:url(#linear-gradient-6);}.cls-7{fill:url(#linear-gradient-7);}.cls-8{fill:url(#linear-gradient-8);}.cls-9{fill:url(#linear-gradient-9);}.cls-10{fill:url(#linear-gradient-10);}.cls-11{fill:url(#linear-gradient-11);}.cls-12{fill:url(#linear-gradient-12);}.cls-13{fill:url(#linear-gradient-13);}.cls-14{fill:url(#linear-gradient-14);}.cls-15{fill:url(#linear-gradient-15);}.cls-16{fill:url(#linear-gradient-16);}.cls-17{fill:url(#linear-gradient-17);}.cls-18{fill:url(#linear-gradient-18);}.cls-19{fill:url(#linear-gradient-19);}.cls-20{fill:url(#linear-gradient-20);}.cls-21{fill:url(#linear-gradient-21);}</style><linearGradient id="linear-gradient" x1="109.35" y1="84.59" x2="-18.22" y2="182.26" gradientUnits="userSpaceOnUse"><stop offset="0" stop-color="#c27c37"/><stop offset="1" stop-color="#80370c"/></linearGradient><linearGradient id="linear-gradient-2" x1="222.6" y1="26.08" x2="106.63" y2="144.49" xlink:href="#linear-gradient"/><linearGradient id="linear-gradient-3" x1="138.8" y1="78.36" x2="152.04" y2="23.66" gradientUnits="userSpaceOnUse"><stop offset="0" stop-color="#4b220c"/><stop offset="1" stop-color="#8d5120"/></linearGradient><linearGradient id="linear-gradient-4" x1="152.13" y1="64.46" x2="188.77" y2="-20.63" xlink:href="#linear-gradient-3"/><linearGradient id="linear-gradient-5" x1="-51.08" y1="89.68" x2="82.08" y2="12.16" xlink:href="#linear-gradient-3"/><linearGradient id="linear-gradient-6" x1="100.09" y1="-54.26" x2="105.59" y2="48.29" gradientUnits="userSpaceOnUse"><stop offset="0" stop-color="#d5a159"/><stop offset="1" stop-color="#754019"/></linearGradient><linearGradient id="linear-gradient-7" x1="164.41" y1="94.62" x2="164.41" y2="68.14" gradientUnits="userSpaceOnUse"><stop offset="0" stop-color="#7d3b00"/><stop offset="1" stop-color="#120503"/></linearGradient><linearGradient id="linear-gradient-8" x1="155.9" y1="71.73" x2="161.68" y2="82.58" gradientUnits="userSpaceOnUse"><stop offset="0" stop-color="#ffeb8a"/><stop offset="0.18" stop-color="#caba6d"/><stop offset="0.48" stop-color="#756b3f"/><stop offset="0.73" stop-color="#36311d"/><stop offset="0.91" stop-color="#0f0e08"/><stop offset="1"/></linearGradient><linearGradient id="linear-gradient-9" x1="39.21" y1="88.99" x2="88.65" y2="48.25" xlink:href="#linear-gradient-3"/><linearGradient id="linear-gradient-10" x1="939.48" y1="94.62" x2="939.48" y2="68.14" gradientTransform="matrix(-1, 0, 0, 1, 986.23, 0)" xlink:href="#linear-gradient-7"/><linearGradient id="linear-gradient-11" x1="172.25" y1="26" x2="89.34" y2="61.53" gradientUnits="userSpaceOnUse"><stop offset="0" stop-color="#f5f0ea"/><stop offset="1" stop-color="#c2bcb1"/></linearGradient><linearGradient id="linear-gradient-12" x1="31.91" y1="377.93" x2="199.56" y2="143.22" gradientUnits="userSpaceOnUse"><stop offset="0" stop-color="#2d2017"/><stop offset="0.13" stop-color="#382b22"/><stop offset="0.35" stop-color="#554a40"/><stop offset="0.65" stop-color="#847b71"/><stop offset="1" stop-color="#c2bcb1"/></linearGradient><linearGradient id="linear-gradient-13" x1="-108.18" y1="334.92" x2="49.34" y2="168.58" xlink:href="#linear-gradient-12"/><linearGradient id="linear-gradient-14" x1="109.09" y1="47.47" x2="40.88" y2="66.24" xlink:href="#linear-gradient-11"/><linearGradient id="linear-gradient-15" x1="105.7" y1="200.65" x2="105.7" y2="221.15" xlink:href="#linear-gradient-12"/><linearGradient id="linear-gradient-16" x1="159.79" y1="138.99" x2="94.43" y2="167.01" xlink:href="#linear-gradient-11"/><linearGradient id="linear-gradient-17" x1="98.66" y1="152.94" x2="36.61" y2="165.35" xlink:href="#linear-gradient-11"/><linearGradient id="linear-gradient-18" x1="38.73" y1="71.6" x2="44.11" y2="81.69" xlink:href="#linear-gradient-8"/><linearGradient id="linear-gradient-19" x1="105.66" y1="129.63" x2="105.66" y2="171.55" gradientUnits="userSpaceOnUse"><stop offset="0" stop-color="#3f3934"/><stop offset="1" stop-color="#605a55"/></linearGradient><linearGradient id="linear-gradient-20" x1="135.43" y1="161.32" x2="90.71" y2="192.46" gradientUnits="userSpaceOnUse"><stop offset="0" stop-color="#423e3b"/><stop offset="0.16" stop-color="#353230"/><stop offset="0.71" stop-color="#0f0e0d"/><stop offset="1"/></linearGradient><linearGradient id="linear-gradient-21" x1="117.94" y1="162.34" x2="72.23" y2="200.46" xlink:href="#linear-gradient-20"/></defs><title>Asset 8</title><g id="Layer_2" data-name="Layer 2"><g id="Layer_1-2" data-name="Layer 1"><path class="cls-1" d="M47.06,0h69.76a47.06,47.06,0,0,1,47.06,47.06v117a47.06,47.06,0,0,1-47.06,47.06H47.06A47.06,47.06,0,0,1,0,164.1v-117A47.06,47.06,0,0,1,47.06,0Z"/><path class="cls-2" d="M164.1,0H105.6V211.16h58.5a47.06,47.06,0,0,0,47.06-47.06v-117A47.06,47.06,0,0,0,164.1,0Z"/><polygon class="cls-3" points="132.68 45.68 157.73 58.13 132.68 75.77 132.68 45.68"/><path class="cls-4" d="M164.1,0H105.6l10.64,38.29c0-11.6,5.5-25.32,14.35-25.32,14.41,0,36,12.6,36,41.35,24.64,0,20.43,27,20.43,27l24.13,18.57V47.06A47.06,47.06,0,0,0,164.1,0Z"/><path class="cls-5" d="M47.06,0h58.51L94.92,38.29c0-11.6-5.5-25.32-14.35-25.32-14.41,0-36,12.6-36,41.35-24.64,0-20.43,27-20.43,27L0,99.89V47.06A47.06,47.06,0,0,1,47.06,0Z"/><path class="cls-6" d="M163.7.6H47.47A46.73,46.73,0,0,0,.73,47.34v3C.73,23.27,21.65,2.3,47.47,2.3H163.7c25.81,0,46.74,20.33,46.74,48.05v-3A46.74,46.74,0,0,0,163.7.6Z"/><path d="M139.82,91.32s3-23,22.91-23c14.11,0,24.3,13,24.3,13s-11.29,17.46-24.69,17.46A38.37,38.37,0,0,1,139.82,91.32Z"/><path class="cls-7" d="M145.94,88.34s2-16.82,17.43-16.82c11.34,0,19.51,10,19.51,10s-8.71,13.19-19.08,13.19A30.21,30.21,0,0,1,145.94,88.34Z"/><path d="M174.58,80.82a10.74,10.74,0,1,1-10.73-10.73A10.73,10.73,0,0,1,174.58,80.82Z"/><path class="cls-8" d="M164.27,72.89c-5.17-.69-9.31,2-12.45,5.69a6.86,6.86,0,0,0,13-1.12A6.74,6.74,0,0,0,164.27,72.89Z"/><polygon class="cls-9" points="78.49 45.68 53.43 58.13 78.49 75.77 78.49 45.68"/><path d="M71.34,91.32s-3-23-22.9-23c-14.12,0-24.31,13-24.31,13S35.42,98.78,48.82,98.78A38.37,38.37,0,0,0,71.34,91.32Z"/><path class="cls-10" d="M65.22,88.34s-2-16.82-17.43-16.82c-11.33,0-19.5,10-19.5,10S37,94.67,47.36,94.67A30.21,30.21,0,0,0,65.22,88.34Z"/><path d="M36.58,80.82A10.74,10.74,0,1,0,47.32,70.09,10.73,10.73,0,0,0,36.58,80.82Z"/><path class="cls-11" d="M105.6,0V107.85l11.45-3.63V38.06c0-14.28,8.73-33.25,28.79-38.06Z"/><path class="cls-12" d="M148.59,190.89H128.22l.79,20.27H164.1a47.06,47.06,0,0,0,47.06-47.06V143.46Z"/><path class="cls-13" d="M62.57,190.89H82.94l-.79,20.27H47.06A47.06,47.06,0,0,1,0,164.1V143.46Z"/><path class="cls-14" d="M105.75,0V107.85l-11.46-3.63V38.06C94.29,23.78,85.56,4.81,65.51,0Z"/><polygon class="cls-15" points="146.18 211.16 65.22 211.16 54.55 178.11 156.84 178.11 146.18 211.16"/><path class="cls-16" d="M105.51,199.47a26.27,26.27,0,0,0,19.22,8.2H142.2c14.41,0,19.16-7.86,19.16-24.72,0-13.73-3.05-23.54-21.52-55.39C123.51,99.4,112.37,101,105.51,98.72Z"/><path class="cls-17" d="M105.65,199.47a26.27,26.27,0,0,1-19.22,8.2H69c-14.4,0-19.16-7.86-19.16-24.72,0-13.73,4.06-24.85,21.52-55.39C87.47,99.29,98.79,101,105.65,98.72Z"/><path class="cls-18" d="M40.58,81.87a6.81,6.81,0,0,0,6.81-6.81,6.74,6.74,0,0,0-.6-2.76,25.13,25.13,0,0,0-12.63,5A6.79,6.79,0,0,0,40.58,81.87Z"/><path class="cls-19" d="M137.29,173.7,131.53,158A39.52,39.52,0,0,0,106,147.8h-.66A39.51,39.51,0,0,0,79.8,158L74,173.7Z"/><path class="cls-20" d="M105.55,198.63s24.61-1.13,31.74-24.93c-3.08-4.7-17-14.41-31.74-14.41Z"/><path class="cls-21" d="M105.7,198.63S81.09,197.5,74,173.7C77,169,91,159.29,105.7,159.29Z"/><path d="M77.63,181.22,97,187S101.11,159.83,77.63,181.22Z"/><path d="M133.58,181.22,114.18,187S110.1,159.83,133.58,181.22Z"/></g></g></svg>