<svg xmlns="http://www.w3.org/2000/svg" xmlns:xlink="http://www.w3.org/1999/xlink" viewBox="0 0 211.16 211.16"><defs><style>.cls-1{fill-rule:evenodd;fill:url(#linear-gradient);}.cls-2{fill:url(#linear-gradient-2);}.cls-3{fill:url(#linear-gradient-3);}.cls-4{fill:url(#linear-gradient-4);}.cls-5{fill:url(#linear-gradient-5);}.cls-6{fill:url(#linear-gradient-6);}.cls-7{fill:url(#linear-gradient-7);}.cls-8{fill:url(#linear-gradient-8);}.cls-9{fill:url(#linear-gradient-9);}.cls-10{fill:url(#linear-gradient-10);}.cls-11{fill:url(#linear-gradient-11);}.cls-12{fill:url(#linear-gradient-12);}.cls-13{fill:url(#linear-gradient-13);}.cls-14{fill:url(#linear-gradient-14);}.cls-15{fill:url(#linear-gradient-15);}</style><linearGradient id="linear-gradient" x1="111.01" y1="115.65" x2="-51.8" y2="47.77" gradientUnits="userSpaceOnUse"><stop offset="0" stop-color="#f3f2ef"/><stop offset="1" stop-color="#c2c1bb"/></linearGradient><linearGradient id="linear-gradient-2" x1="206.55" y1="117.09" x2="60.41" y2="94.68" gradientUnits="userSpaceOnUse"><stop offset="0" stop-color="#e9e8e5"/><stop offset="1" stop-color="#c0beb9"/></linearGradient><linearGradient id="linear-gradient-3" x1="100.33" y1="-14.74" x2="106.1" y2="53.99" gradientUnits="userSpaceOnUse"><stop offset="0" stop-color="#fff"/><stop offset="1" stop-color="#dddcd8"/></linearGradient><linearGradient id="linear-gradient-4" x1="15.8" y1="94.8" x2="138.98" y2="-5.04" gradientUnits="userSpaceOnUse"><stop offset="0" stop-color="#423e3b"/><stop offset="0.11" stop-color="#534f4b"/><stop offset="0.53" stop-color="#918b86"/><stop offset="0.84" stop-color="#b8b1ab"/><stop offset="1" stop-color="#c7bfb9"/></linearGradient><linearGradient id="linear-gradient-5" x1="120.62" y1="188.26" x2="108.08" y2="226.02" gradientUnits="userSpaceOnUse"><stop offset="0" stop-color="#423e3b"/><stop offset="0.16" stop-color="#353230"/><stop offset="0.71" stop-color="#0f0e0d"/><stop offset="1"/></linearGradient><linearGradient id="linear-gradient-6" x1="97.74" y1="192.62" x2="84.6" y2="214.22" xlink:href="#linear-gradient-5"/><linearGradient id="linear-gradient-7" x1="105.59" y1="171.69" x2="105.59" y2="194.73" gradientTransform="translate(0 -0.64)" gradientUnits="userSpaceOnUse"><stop offset="0" stop-color="#3f3934"/><stop offset="1" stop-color="#605a55"/></linearGradient><linearGradient id="linear-gradient-8" x1="202.78" y1="12.34" x2="154.4" y2="55.69" gradientUnits="userSpaceOnUse"><stop offset="0" stop-color="#423e3b"/><stop offset="0.18" stop-color="#615d5a"/><stop offset="0.57" stop-color="#9e9b98"/><stop offset="0.85" stop-color="#c4c2be"/><stop offset="1" stop-color="#d3d1cd"/></linearGradient><linearGradient id="linear-gradient-9" x1="12.92" y1="12.28" x2="41.48" y2="44.72" gradientUnits="userSpaceOnUse"><stop offset="0" stop-color="#a36b63"/><stop offset="1" stop-color="#efc3bb"/></linearGradient><linearGradient id="linear-gradient-10" x1="45.12" y1="66.74" x2="42.13" y2="56.98" gradientUnits="userSpaceOnUse"><stop offset="0" stop-color="#36322e"/><stop offset="0.21" stop-color="#5b5752"/><stop offset="0.58" stop-color="#99938f"/><stop offset="0.86" stop-color="#c0bab5"/><stop offset="1" stop-color="#cfc8c3"/></linearGradient><linearGradient id="linear-gradient-11" x1="166.73" y1="66.42" x2="164.97" y2="57.44" xlink:href="#linear-gradient-10"/><linearGradient id="linear-gradient-12" x1="251.73" y1="207.25" x2="183.66" y2="176.27" xlink:href="#linear-gradient-2"/><linearGradient id="linear-gradient-13" x1="1699.77" y1="204.88" x2="1631.7" y2="173.9" gradientTransform="matrix(-1, 0, 0, 1, 1664.41, 0)" xlink:href="#linear-gradient-2"/><linearGradient id="linear-gradient-14" x1="194.49" y1="190.75" x2="171.43" y2="179.58" gradientUnits="userSpaceOnUse"><stop offset="0" stop-color="#ebd7d4"/><stop offset="1" stop-color="#5f4946"/></linearGradient><linearGradient id="linear-gradient-15" x1="1865.15" y1="190.75" x2="1842.08" y2="179.58" gradientTransform="matrix(-1, 0, 0, 1, 1881.8, 0)" xlink:href="#linear-gradient-14"/></defs><title>Asset 4</title><g id="Layer_2" data-name="Layer 2"><g id="Layer_1-2" data-name="Layer 1"><path class="cls-1" d="M57.44,0h59.38a47.06,47.06,0,0,1,47.06,47.06v117a47.06,47.06,0,0,1-47.06,47.06H52.92C26.93,211.16,0,170,0,144V59.62C0,33.62,31.45,0,57.44,0Z"/><path class="cls-2" d="M155.07,0H105.6V211.16H156c26,0,55.15-41.88,55.15-67.87V60C211.16,34,181.06,0,155.07,0Z"/><path class="cls-3" d="M163.7.6H47.47A46.73,46.73,0,0,0,.73,47.34v3C.73,23.27,21.65,2.3,47.47,2.3H163.7c25.81,0,46.74,20.33,46.74,48.05v-3A46.74,46.74,0,0,0,163.7.6Z"/><path class="cls-4" d="M89,15.69S95.25,77.48,40.81,115C30.6,103.89,10.18,71.14,10.18,71.14S25.49,25.2,89,15.69Z"/><path d="M158.83,76.69V60.28s4-10.13,26.54,3C172,76.86,158.83,76.69,158.83,76.69Z"/><path d="M55.36,76.69V60.28s-4-10.13-26.55,3C42.17,76.86,55.36,76.69,55.36,76.69Z"/><path class="cls-5" d="M105.51,210.88s22,.22,27.1-18h-27.1Z"/><path class="cls-6" d="M105.65,210.88s-22.11.11-27.1-18h27.1Z"/><polygon class="cls-7" points="132.63 192.92 105.66 199.01 78.55 192.92 75.61 177.16 105.63 183.32 135.57 177.16 132.63 192.92"/><path class="cls-8" d="M164.1,0H150.85l60.31,63.71V47.06A47.06,47.06,0,0,0,164.1,0Z"/><path class="cls-9" d="M47.06,0H60.31L0,63.71V47.06A47.06,47.06,0,0,1,47.06,0Z"/><path class="cls-10" d="M43.51,66.41a4.89,4.89,0,0,0,4.89-4.89,4.79,4.79,0,0,0-.44-2,27.17,27.17,0,0,0-9.3,2.35A4.87,4.87,0,0,0,43.51,66.41Z"/><path class="cls-11" d="M160.94,62.11a4.87,4.87,0,1,0,9.51-1.92C164.87,59.17,162.15,60.84,160.94,62.11Z"/><path class="cls-12" d="M164.1,211.16a47.06,47.06,0,0,0,47.06-47.06V138.6c-14.46,23.29-29.06,46.76-33.59,53.8-8.76,13.64-17.07,17.65-27.51,18.76Z"/><path class="cls-13" d="M47.06,211.16A47.06,47.06,0,0,1,0,164.1V138.6c14.45,23.29,29.06,46.76,33.58,53.8C42.34,206,50.65,210.05,61.1,211.16Z"/><path class="cls-14" d="M149.18,211.16h15c1.56,0,3.1-.08,4.62-.23,5.44-1.79,9.2-6.67,13.62-14.7,9.25-16.79,20.23-43.88,20.23-43.88s-14.63,22.79-26.9,42.09A35.85,35.85,0,0,1,149.18,211.16Z"/><path class="cls-15" d="M62,211.16H47c-1.56,0-3.1-.08-4.62-.23-5.44-1.79-9.19-6.67-13.62-14.7-9.25-16.79-20.23-43.88-20.23-43.88s14.64,22.79,26.9,42.09A35.87,35.87,0,0,0,62,211.16Z"/></g></g></svg>