<svg xmlns="http://www.w3.org/2000/svg" xmlns:xlink="http://www.w3.org/1999/xlink" viewBox="0 0 211.16 211.18"><defs><style>.cls-1{fill-rule:evenodd;fill:url(#linear-gradient);}.cls-2{fill:url(#linear-gradient-2);}.cls-3{fill:url(#linear-gradient-3);}.cls-4{fill:url(#linear-gradient-4);}.cls-5{fill:url(#linear-gradient-5);}.cls-6{fill:url(#linear-gradient-6);}.cls-7{fill:url(#linear-gradient-7);}.cls-8{fill:url(#linear-gradient-8);}.cls-9{fill:url(#linear-gradient-9);}.cls-10{fill:url(#linear-gradient-10);}.cls-11{fill:url(#linear-gradient-11);}.cls-12{fill:url(#linear-gradient-12);}.cls-13{fill:url(#linear-gradient-13);}.cls-14{fill:url(#linear-gradient-14);}.cls-15{fill:url(#linear-gradient-15);}.cls-16{fill:url(#linear-gradient-16);}.cls-17{fill:url(#linear-gradient-17);}.cls-18{fill:url(#linear-gradient-18);}.cls-19{fill:url(#linear-gradient-19);}.cls-20{fill:url(#linear-gradient-20);}</style><linearGradient id="linear-gradient" x1="12.74" y1="124.61" x2="140.77" y2="75.78" gradientUnits="userSpaceOnUse"><stop offset="0" stop-color="#a4a199"/><stop offset="1" stop-color="#e0dfe0"/></linearGradient><linearGradient id="linear-gradient-2" x1="78.2" y1="113.75" x2="215.13" y2="93.71" xlink:href="#linear-gradient"/><linearGradient id="linear-gradient-3" x1="97.83" y1="-44.4" x2="103.61" y2="24.33" gradientUnits="userSpaceOnUse"><stop offset="0" stop-color="#fff"/><stop offset="1" stop-color="#dddcd8"/></linearGradient><linearGradient id="linear-gradient-4" x1="102.33" y1="63.43" x2="-48.9" y2="123.65" gradientUnits="userSpaceOnUse"><stop offset="0" stop-color="#68645f"/><stop offset="1" stop-color="#1f1918"/></linearGradient><linearGradient id="linear-gradient-5" x1="105.45" y1="200.95" x2="105.45" y2="224.7" gradientUnits="userSpaceOnUse"><stop offset="0" stop-color="#302a25"/><stop offset="1" stop-color="#96938e"/></linearGradient><linearGradient id="linear-gradient-6" x1="114.96" y1="212.24" x2="234.93" y2="139.26" gradientUnits="userSpaceOnUse"><stop offset="0" stop-color="#a85824"/><stop offset="1" stop-color="#e6b866"/></linearGradient><linearGradient id="linear-gradient-7" x1="-0.66" y1="193.57" x2="95.83" y2="112.16" xlink:href="#linear-gradient-6"/><linearGradient id="linear-gradient-8" x1="96.91" y1="168.56" x2="190.91" y2="127.06" gradientUnits="userSpaceOnUse"><stop offset="0" stop-color="#6e6966"/><stop offset="1" stop-color="#c2c1bb"/></linearGradient><linearGradient id="linear-gradient-9" x1="33.13" y1="163.76" x2="116.26" y2="146.6" xlink:href="#linear-gradient-8"/><linearGradient id="linear-gradient-10" x1="169.62" y1="40.03" x2="205.44" y2="6.32" gradientUnits="userSpaceOnUse"><stop offset="0" stop-color="#4f4842"/><stop offset="1" stop-color="#120d0d"/></linearGradient><linearGradient id="linear-gradient-11" x1="1237.41" y1="56.32" x2="1303.86" y2="-6.22" gradientTransform="matrix(-1, 0, 0, 1, 1296.26, 0)" xlink:href="#linear-gradient-10"/><linearGradient id="linear-gradient-12" x1="86.55" y1="184.43" x2="141.52" y2="143.67" gradientUnits="userSpaceOnUse"><stop offset="0" stop-color="#010400"/><stop offset="0.33" stop-color="#111311"/><stop offset="0.99" stop-color="#3b3b3d"/><stop offset="1" stop-color="#3c3c3e"/></linearGradient><linearGradient id="linear-gradient-13" x1="55.9" y1="191.13" x2="109.42" y2="160.14" xlink:href="#linear-gradient-12"/><linearGradient id="linear-gradient-14" x1="119.22" y1="120.83" x2="195.81" y2="52.23" gradientUnits="userSpaceOnUse"><stop offset="0" stop-color="#8f806d"/><stop offset="1" stop-color="#ccc3bc"/></linearGradient><linearGradient id="linear-gradient-15" x1="52.85" y1="105.4" x2="52.85" y2="79.5" gradientUnits="userSpaceOnUse"><stop offset="0" stop-color="#ad4f03"/><stop offset="1" stop-color="#2b100c"/></linearGradient><linearGradient id="linear-gradient-16" x1="46.41" y1="83.1" x2="53.41" y2="90.25" gradientUnits="userSpaceOnUse"><stop offset="0" stop-color="#e6a03f"/><stop offset="1" stop-color="#2b100c"/></linearGradient><linearGradient id="linear-gradient-17" x1="1209.25" y1="105.4" x2="1209.25" y2="79.5" gradientTransform="matrix(-1, 0, 0, 1, 1367.48, 0)" xlink:href="#linear-gradient-15"/><linearGradient id="linear-gradient-18" x1="150.95" y1="83.06" x2="156.67" y2="88.78" xlink:href="#linear-gradient-16"/><linearGradient id="linear-gradient-19" x1="128.02" y1="78.26" x2="159.23" y2="48.8" xlink:href="#linear-gradient-6"/><linearGradient id="linear-gradient-20" x1="71.26" y1="77.69" x2="64.43" y2="54.69" xlink:href="#linear-gradient-6"/></defs><title>Asset 8</title><g id="Layer_2" data-name="Layer 2"><g id="Layer_1-2" data-name="Layer 1"><path class="cls-1" d="M75.48,0h41.34a47.06,47.06,0,0,1,47.06,47.06v97.48c0,26-85.25,66.62-111.24,66.62H49.76A47.06,47.06,0,0,1,2.69,164.1v-117C2.69,21.07,49.48,0,75.48,0Z"/><path class="cls-2" d="M144.79,0H105.6V187.45l56.15,23.71c17.32,0,49.41-52.09,49.41-78.08V62.23C211.16,36.23,161.55,0,144.79,0Z"/><path class="cls-3" d="M163.7.6H47.47A46.73,46.73,0,0,0,.73,47.34v3C.73,23.27,21.65,2.3,47.47,2.3H163.7c25.81,0,46.74,20.33,46.74,48.05v-3A46.74,46.74,0,0,0,163.7.6Z"/><path class="cls-4" d="M0,61.16v71.73c7.79,19.78,33.87,41.92,48.08,33.93,19.53-11,39-54.39,39-54.39V45.28S88.32,16,75.61,0H63.89C34.36,0,3.24,35.33,0,61.16Z"/><rect class="cls-5" x="50.15" y="193.34" width="110.6" height="17.85"/><path class="cls-6" d="M211.16,164.1V132.34L153.8,168.59H126.16l34.63,42.59,5.29-.07A47.06,47.06,0,0,0,211.16,164.1Z"/><path class="cls-7" d="M0,164.1V132.34l57.37,36.25H85L50.37,211.18l-5.29-.07A47.06,47.06,0,0,1,0,164.1Z"/><path class="cls-8" d="M160.81,211.06V170.51c0-23.2-4.69-34.77-19.09-51.07-19.89-22.51-36.27-25.36-36.27-25.36v105.3S117.74,211.06,160.81,211.06Z"/><path class="cls-9" d="M50.27,211.06V170.51c0-23.2,4.68-34.77,19.08-51.07,19.89-22.51,36.27-25.36,36.27-25.36v105.3S93.34,211.06,50.27,211.06Z"/><path class="cls-10" d="M164.1,0H144.79l66.37,64.33V47.06A47.06,47.06,0,0,0,164.1,0Z"/><path class="cls-11" d="M47.06,0H66.37L0,64.33V47.06A47.06,47.06,0,0,1,47.06,0Z"/><path class="cls-12" d="M105.43,192.22,137,175.61V161.92c0-9.84-10-20.07-19.23-20.07H105.43Z"/><path class="cls-13" d="M105.64,192.22,74.1,175.61V161.92c0-9.84,10-20.07,19.23-20.07h12.31Z"/><path d="M74.27,175.58H97.48S98.83,163,89.66,163C81.77,163,74.27,175.58,74.27,175.58Z"/><path d="M136.89,175.58H113.68S112.33,163,121.51,163C129.39,163,136.89,175.58,136.89,175.58Z"/><path class="cls-14" d="M183.86,62.4c13.9,15.16,14.37,37.36,1,49.59s-35.41,9.86-49.31-5.3-14.37-37.35-1-49.58S170,47.25,183.86,62.4Z"/><path d="M70.75,96.28S67.17,77.42,54.2,77.42,28.6,94.78,28.6,94.78h7.57S48.06,120,70.75,96.28Z"/><path class="cls-15" d="M38.26,90.67s7.37-9.93,16.19-9.93,13,14.58,13,14.58-6.89,8.33-15.38,8.33S38.26,90.67,38.26,90.67Z"/><path d="M61.11,89.67a7.58,7.58,0,1,1-7.58-7.58A7.58,7.58,0,0,1,61.11,89.67Z"/><path class="cls-16" d="M52.91,81.84c-3.89.68-7.37,3.06-9.9,5.32a5.63,5.63,0,0,0,10.65-2.55A5.52,5.52,0,0,0,52.91,81.84Z"/><path d="M140.32,96.28s3.59-18.86,16.55-18.86,25.61,17.36,25.61,17.36h-7.57S163,120,140.32,96.28Z"/><path class="cls-17" d="M172.82,90.67s-7.38-9.93-16.19-9.93-13,14.58-13,14.58,6.9,8.33,15.39,8.33S172.82,90.67,172.82,90.67Z"/><path d="M150,89.67a7.58,7.58,0,1,0,7.58-7.58A7.58,7.58,0,0,0,150,89.67Z"/><path class="cls-18" d="M147.93,87.76A5.59,5.59,0,0,0,152,89.5a5.63,5.63,0,0,0,5.11-8h0C153.09,81.49,150.06,84.48,147.93,87.76Z"/><path class="cls-19" d="M150.9,63a6.73,6.73,0,1,1-6.73-6.73A6.72,6.72,0,0,1,150.9,63Z"/><path class="cls-20" d="M73.64,63a6.73,6.73,0,1,1-6.74-6.73A6.73,6.73,0,0,1,73.64,63Z"/></g></g></svg>