<svg xmlns="http://www.w3.org/2000/svg" xmlns:xlink="http://www.w3.org/1999/xlink" viewBox="0 0 211.16 211.16"><defs><style>.cls-1,.cls-11,.cls-12,.cls-14,.cls-16{fill-rule:evenodd;}.cls-1{fill:url(#linear-gradient);}.cls-2{fill:url(#linear-gradient-2);}.cls-3{fill:url(#linear-gradient-3);}.cls-4{fill:url(#linear-gradient-4);}.cls-5{fill:url(#linear-gradient-5);}.cls-6{fill:url(#linear-gradient-6);}.cls-7{fill:url(#linear-gradient-7);}.cls-8{fill:url(#linear-gradient-8);}.cls-9{fill:url(#linear-gradient-9);}.cls-10{fill:url(#linear-gradient-10);}.cls-11{fill:url(#linear-gradient-11);}.cls-12{fill:url(#linear-gradient-12);}.cls-13{fill:url(#linear-gradient-13);}.cls-14{fill:url(#linear-gradient-14);}.cls-15{fill:url(#linear-gradient-15);}.cls-16{fill:url(#linear-gradient-16);}.cls-17{fill:url(#linear-gradient-17);}.cls-18{fill:url(#linear-gradient-18);}</style><linearGradient id="linear-gradient" x1="130.5" y1="75.04" x2="-33.22" y2="178.02" gradientUnits="userSpaceOnUse"><stop offset="0" stop-color="#68645f"/><stop offset="1" stop-color="#1f1918"/></linearGradient><linearGradient id="linear-gradient-2" x1="158.38" y1="-27.4" x2="158.38" y2="213.27" gradientUnits="userSpaceOnUse"><stop offset="0" stop-color="#5f5a54"/><stop offset="0.9" stop-color="#1d1717"/></linearGradient><linearGradient id="linear-gradient-3" x1="94.73" y1="-29.96" x2="109.34" y2="73.89" gradientUnits="userSpaceOnUse"><stop offset="0" stop-color="#83827a"/><stop offset="1" stop-color="#4a4541"/></linearGradient><linearGradient id="linear-gradient-4" x1="106.4" y1="116.9" x2="-9.42" y2="167.7" gradientUnits="userSpaceOnUse"><stop offset="0" stop-color="#726e69"/><stop offset="1" stop-color="#1d1717"/></linearGradient><linearGradient id="linear-gradient-5" x1="191.88" y1="84.03" x2="71.09" y2="145.28" xlink:href="#linear-gradient-2"/><linearGradient id="linear-gradient-6" x1="100.5" y1="141.83" x2="-6.88" y2="258.9" xlink:href="#linear-gradient-4"/><linearGradient id="linear-gradient-7" x1="187.53" y1="113.55" x2="116.72" y2="218.54" xlink:href="#linear-gradient"/><linearGradient id="linear-gradient-8" x1="105.66" y1="140.48" x2="105.66" y2="160.66" gradientUnits="userSpaceOnUse"><stop offset="0" stop-color="#3f3934"/><stop offset="1" stop-color="#605a55"/></linearGradient><linearGradient id="linear-gradient-9" x1="135.3" y1="155.53" x2="95.63" y2="193.71" gradientUnits="userSpaceOnUse"><stop offset="0" stop-color="#423e3b"/><stop offset="0.16" stop-color="#353230"/><stop offset="0.71" stop-color="#0f0e0d"/><stop offset="1"/></linearGradient><linearGradient id="linear-gradient-10" x1="109.75" y1="164.44" x2="76.07" y2="190.4" xlink:href="#linear-gradient-9"/><linearGradient id="linear-gradient-11" x1="71.94" y1="147.81" x2="24.81" y2="5.57" gradientUnits="userSpaceOnUse"><stop offset="0" stop-color="#5f5a54"/><stop offset="1" stop-color="#1d1717"/></linearGradient><linearGradient id="linear-gradient-12" x1="219.79" y1="247.42" x2="154.64" y2="2.26" xlink:href="#linear-gradient-11"/><linearGradient id="linear-gradient-13" x1="1962.76" y1="82.97" x2="1962.76" y2="44.89" gradientTransform="matrix(-1, 0, 0, 1, 2117.15, 0)" gradientUnits="userSpaceOnUse"><stop offset="0" stop-color="#a14221"/><stop offset="1" stop-color="#180804"/></linearGradient><linearGradient id="linear-gradient-14" x1="147.45" y1="49.43" x2="153.84" y2="56.64" gradientUnits="userSpaceOnUse"><stop offset="0" stop-color="#c98a73"/><stop offset="1" stop-color="#210d06"/></linearGradient><linearGradient id="linear-gradient-15" x1="56.9" y1="82.97" x2="56.9" y2="44.89" gradientTransform="matrix(1, 0, 0, 1, 0, 0)" xlink:href="#linear-gradient-13"/><linearGradient id="linear-gradient-16" x1="48.9" y1="48.22" x2="53.02" y2="56.28" xlink:href="#linear-gradient-14"/><linearGradient id="linear-gradient-17" x1="127.95" y1="148.19" x2="-27.67" y2="230.48" xlink:href="#linear-gradient"/><linearGradient id="linear-gradient-18" x1="242.09" y1="103.62" x2="142.6" y2="226.92" xlink:href="#linear-gradient"/></defs><title>Asset 1</title><g id="Layer_2" data-name="Layer 2"><g id="Layer_1-2" data-name="Layer 1"><path class="cls-1" d="M47.06,0h69.76a47.06,47.06,0,0,1,47.06,47.06v117a47.06,47.06,0,0,1-47.06,47.06H47.06A47.06,47.06,0,0,1,0,164.1v-117A47.06,47.06,0,0,1,47.06,0Z"/><path class="cls-2" d="M164.1,0H105.6V211.16h58.5a47.06,47.06,0,0,0,47.06-47.06v-117A47.06,47.06,0,0,0,164.1,0Z"/><path class="cls-3" d="M163.7.6H47.47A46.74,46.74,0,0,0,.73,47.34v3C.73,23.27,21.65,2.3,47.47,2.3H163.7c25.81,0,46.73,20.33,46.73,48.05v-3A46.74,46.74,0,0,0,163.7.6Z"/><rect x="67.77" y="177.73" width="75.36" height="33.43"/><path class="cls-4" d="M105.84,36.32S82.2,55.89,67.58,75.38C54.81,92.4,51.36,106,51.36,125.09V191.9L105.84,198Z"/><path class="cls-5" d="M105.32,36.32S129,55.89,143.58,75.38c12.77,17,16.22,30.62,16.22,49.71V191.9L105.32,198Z"/><path class="cls-6" d="M32,154.52l13.43-2.44s-23.52,13.59-26,50.1a46.78,46.78,0,0,0,27.63,9H74.83c3.67-5.58,12.09-13.08,30.93-13.08V140.59H72.92C45.14,140.59,32,154.52,32,154.52Z"/><path class="cls-7" d="M179.09,154.52l-13.43-2.44s23.52,13.59,26,50.1a46.78,46.78,0,0,1-27.63,9H136.28c-3.67-5.58-12.09-13.08-30.92-13.08V140.59h32.83C166,140.59,179.09,154.52,179.09,154.52Z"/><path class="cls-8" d="M137.16,162.41s-3.38-17.16-16.45-17.16H90.62c-13.08,0-16.45,17.16-16.45,17.16l31.49,9Z"/><path class="cls-9" d="M105.45,196.92s31.71-7.41,31.71-34.51H105.45Z"/><path class="cls-10" d="M105.84,196.92s-31.7-7.41-31.7-34.51h31.7Z"/><path d="M80.32,179.6,100,177.78s-1.19-10.4-9.22-10.92S80.32,179.6,80.32,179.6Z"/><path d="M131.1,179.6l-19.63-1.82s1.19-10.4,9.22-10.92S131.1,179.6,131.1,179.6Z"/><path class="cls-11" d="M39.63,54.57C46,52.26,74.68,66.22,74.68,66.22V24.5c0-17.79-17.39-20.26-38-10.68A32.58,32.58,0,0,1,47,17.76s-24.1,6-35.83,24.57a62.12,62.12,0,0,1,13.68-4.89C10.9,55,6.51,85.54,6.51,85.54S20.42,61.62,39.63,54.57Z"/><path class="cls-12" d="M171.75,54.57c-6.32-2.31-35.06,11.65-35.06,11.65V24.5c0-17.79,17.39-20.26,38.05-10.68a32.46,32.46,0,0,0-10.33,3.94s24.1,6,35.82,24.57a62.06,62.06,0,0,0-13.67-4.89c13.91,17.58,18.31,48.1,18.31,48.1S191,61.62,171.75,54.57Z"/><path d="M136.61,66.22s11-41.86,35-11.65C172.88,72.45,157.53,86.28,136.61,66.22Z"/><path class="cls-13" d="M139.62,65.5s10.53-34.63,29.53-9.35C169.69,68.3,158,81.7,139.62,65.5Z"/><path d="M147.88,59.53a7.41,7.41,0,1,0,7.4-7.41A7.4,7.4,0,0,0,147.88,59.53Z"/><path class="cls-14" d="M145.84,55.21a5,5,0,0,0,7.56-6.66C150.36,49.67,147.84,52.3,145.84,55.21Z"/><path d="M74.68,66.22s-11-41.86-35.05-11.65C38.42,72.45,53.76,86.28,74.68,66.22Z"/><path class="cls-15" d="M71.67,65.5S61.15,30.87,42.14,56.15C41.6,68.3,53.33,81.7,71.67,65.5Z"/><path d="M63.41,59.53A7.4,7.4,0,1,1,56,52.12,7.4,7.4,0,0,1,63.41,59.53Z"/><path class="cls-16" d="M54.64,48.53c-2.63.32-5.53,1.79-8.71,4.94a5.06,5.06,0,0,0,9.76-1.88A5,5,0,0,0,54.64,48.53Z"/><path class="cls-17" d="M43.93,211c1,.07,2.08.13,3.13.13h2.1A100.4,100.4,0,0,1,60.34,185,71,71,0,0,0,43.93,211ZM26.28,206.3a46.39,46.39,0,0,0,5.59,2.33c1.73-16.5,9.72-32.34,13.42-38A69.13,69.13,0,0,0,26.28,206.3Z"/><path class="cls-18" d="M150.8,185A100.4,100.4,0,0,1,162,211.16h2.1c1,0,2.09-.06,3.13-.13A71,71,0,0,0,150.8,185Zm15-14.41c3.71,5.7,11.71,21.54,13.43,38a45.72,45.72,0,0,0,5.59-2.33A69.09,69.09,0,0,0,165.84,170.59Z"/></g></g></svg>