<svg xmlns="http://www.w3.org/2000/svg" xmlns:xlink="http://www.w3.org/1999/xlink" viewBox="0 0 211.16 211.32"><defs><style>.cls-1{fill-rule:evenodd;fill:url(#linear-gradient);}.cls-2{fill:url(#linear-gradient-2);}.cls-3{fill:url(#linear-gradient-3);}.cls-4{fill:url(#linear-gradient-4);}.cls-5{fill:url(#linear-gradient-5);}.cls-6{fill:url(#linear-gradient-6);}.cls-7{fill:url(#linear-gradient-7);}.cls-8{fill:url(#linear-gradient-8);}.cls-9{fill:url(#linear-gradient-9);}.cls-10{fill:url(#linear-gradient-10);}.cls-11{fill:url(#linear-gradient-11);}.cls-12{fill:url(#linear-gradient-12);}.cls-13{fill:url(#linear-gradient-13);}.cls-14{fill:url(#linear-gradient-14);}.cls-15{fill:url(#linear-gradient-15);}.cls-16{fill:url(#linear-gradient-16);}.cls-17{fill:url(#linear-gradient-17);}.cls-18{fill:url(#linear-gradient-18);}.cls-19{fill:url(#linear-gradient-19);}.cls-20{fill:url(#linear-gradient-20);}.cls-21{fill:url(#linear-gradient-21);}.cls-22{fill:url(#linear-gradient-22);}.cls-23{fill:url(#linear-gradient-23);}</style><linearGradient id="linear-gradient" x1="112.72" y1="160.88" x2="55.39" y2="107.33" gradientUnits="userSpaceOnUse"><stop offset="0" stop-color="#c57d2c"/><stop offset="1" stop-color="#833803"/></linearGradient><linearGradient id="linear-gradient-2" x1="160.76" y1="246.95" x2="148.23" y2="92.14" xlink:href="#linear-gradient"/><linearGradient id="linear-gradient-3" x1="105.62" y1="126.84" x2="105.62" y2="48.99" gradientUnits="userSpaceOnUse"><stop offset="0" stop-color="#dc9e55"/><stop offset="1" stop-color="#974a0d"/></linearGradient><linearGradient id="linear-gradient-4" x1="2.19" y1="81.19" x2="132.41" y2="124.59" gradientUnits="userSpaceOnUse"><stop offset="0" stop-color="#f9ddb0"/><stop offset="1" stop-color="#bd7731"/></linearGradient><linearGradient id="linear-gradient-5" x1="116.05" y1="108.58" x2="237.63" y2="81.72" xlink:href="#linear-gradient-4"/><linearGradient id="linear-gradient-6" x1="161.52" y1="142.86" x2="96.9" y2="196.03" xlink:href="#linear-gradient-3"/><linearGradient id="linear-gradient-7" x1="209" y1="126.6" x2="131.96" y2="223.48" xlink:href="#linear-gradient-3"/><linearGradient id="linear-gradient-8" x1="89.62" y1="157.47" x2="10.35" y2="257.21" xlink:href="#linear-gradient-3"/><linearGradient id="linear-gradient-9" x1="102.72" y1="157.72" x2="21.38" y2="212.61" xlink:href="#linear-gradient-3"/><linearGradient id="linear-gradient-10" x1="86.67" y1="160.75" x2="109.52" y2="153.72" gradientUnits="userSpaceOnUse"><stop offset="0" stop-color="#24201d"/><stop offset="0.34" stop-color="#2d2825"/><stop offset="0.9" stop-color="#463f3a"/><stop offset="1" stop-color="#4b443e"/></linearGradient><linearGradient id="linear-gradient-11" x1="106.11" y1="155.07" x2="142.42" y2="147.3" xlink:href="#linear-gradient-10"/><linearGradient id="linear-gradient-12" x1="105.37" y1="124.72" x2="105.37" y2="146.35" gradientUnits="userSpaceOnUse"><stop offset="0" stop-color="#3f3934"/><stop offset="1" stop-color="#605a55"/></linearGradient><linearGradient id="linear-gradient-13" x1="105.37" y1="210" x2="105.37" y2="177.35" gradientUnits="userSpaceOnUse"><stop offset="0" stop-color="#8b4008"/><stop offset="1" stop-color="#451a03"/></linearGradient><linearGradient id="linear-gradient-14" x1="105.37" y1="239.77" x2="105.37" y2="191.59" xlink:href="#linear-gradient"/><linearGradient id="linear-gradient-15" x1="59.64" y1="79.69" x2="59.64" y2="107.77" gradientUnits="userSpaceOnUse"><stop offset="0" stop-color="#240d00"/><stop offset="0.65" stop-color="#593000"/><stop offset="1" stop-color="#704000"/></linearGradient><linearGradient id="linear-gradient-16" x1="-752.04" y1="79.69" x2="-752.04" y2="107.77" gradientTransform="matrix(-1, 0, 0, 1, -600.57, 0)" xlink:href="#linear-gradient-15"/><linearGradient id="linear-gradient-17" x1="103.66" y1="-0.44" x2="105.19" y2="38.32" xlink:href="#linear-gradient-4"/><linearGradient id="linear-gradient-18" x1="150.95" y1="86.99" x2="145.23" y2="80.34" gradientUnits="userSpaceOnUse"><stop offset="0" stop-color="#332112"/><stop offset="0.44" stop-color="#81682c"/><stop offset="0.82" stop-color="#bd9e3f"/><stop offset="1" stop-color="#d4b347"/></linearGradient><linearGradient id="linear-gradient-19" x1="56.37" y1="85.38" x2="53.58" y2="78.88" xlink:href="#linear-gradient-18"/><linearGradient id="linear-gradient-20" x1="-70.57" y1="115.32" x2="162" y2="102.5" xlink:href="#linear-gradient-4"/><linearGradient id="linear-gradient-21" x1="47.61" y1="127.38" x2="233.51" y2="99.98" xlink:href="#linear-gradient-4"/><linearGradient id="linear-gradient-22" x1="24.66" y1="4.56" x2="49.21" y2="55.79" gradientUnits="userSpaceOnUse"><stop offset="0" stop-color="#cf9440"/><stop offset="1" stop-color="#884612"/></linearGradient><linearGradient id="linear-gradient-23" x1="-772.14" y1="-15.07" x2="-745" y2="41.58" gradientTransform="matrix(-1, 0, 0, 1, -576.23, 0)" xlink:href="#linear-gradient-22"/></defs><title>Asset 4</title><g id="Layer_2" data-name="Layer 2"><g id="Layer_1-2" data-name="Layer 1"><path class="cls-1" d="M47.07,53.32h69.75a47.06,47.06,0,0,1,47.06,47.06V164.1a47.06,47.06,0,0,1-47.06,47.06H47.07a46.85,46.85,0,0,1-27.73-9c-11.72-8.56-9.76-22.4-9.76-38V100.38C9.58,74.39,21.07,53.32,47.07,53.32Z"/><path class="cls-2" d="M164.1,55.36H105.6v155.8h58.5a46.83,46.83,0,0,0,26.58-8.22c12.37-8.48,10.37-22.71,10.37-38.84V102.42C201.05,76.43,190.09,55.36,164.1,55.36Z"/><polygon class="cls-3" points="105.62 119.59 136.5 126.23 105.74 70.23 105.74 69.79 105.62 70.01 105.49 69.79 105.49 70.23 74.74 126.23 105.62 119.59"/><path class="cls-4" d="M68.59,0C42.59,0,0,25.56,0,51.55V164.1a47,47,0,0,0,20.7,39c.2-33,1.51-57.11,3.33-69.39C30.74,88.38,47.68,64.12,73.78,60c22.91-3.62,32,19.68,32,19.68V0Z"/><path class="cls-5" d="M142.9,0c26,0,68.26,25.4,68.26,51.39V164.1a47,47,0,0,1-20.7,39c-.19-33-1.51-57.11-3.32-69.39-6.72-45.32-23.66-69.58-49.75-73.7-22.91-3.62-32,19.68-32,19.68V0Z"/><path class="cls-6" d="M155.87,142.54s10.09,2.63,16.9,7.31c-21-39.25-67.26-39.95-67.26-39.95V211.16H164a47.11,47.11,0,0,0,12.71-1.75A118.23,118.23,0,0,0,168.23,166s9.58,12.29,12.11,17.85C173.78,154.24,155.87,142.54,155.87,142.54Z"/><path class="cls-7" d="M154.81,211.16h4.67c-2.06-9.63-6.3-21.24-13.71-29.08C150.38,189.14,153.61,199.67,154.81,211.16Zm-4.91-47.65c8.4,9,14.74,27,16.47,47.57a48.64,48.64,0,0,0,5.71-.64C170.94,196,164.24,174,149.9,163.51Z"/><path class="cls-8" d="M55.33,142.54s-10.09,2.63-16.9,7.31c21-39.25,67.26-39.95,67.26-39.95V211.16H47.19a47.11,47.11,0,0,1-12.71-1.75A118.47,118.47,0,0,1,43,166s-9.58,12.29-12.1,17.85C37.42,154.24,55.33,142.54,55.33,142.54Z"/><path class="cls-9" d="M65.44,182.08c-7.41,7.84-11.66,19.45-13.72,29.08h4.67C57.59,199.67,60.82,189.14,65.44,182.08ZM39.13,210.44a48.23,48.23,0,0,0,5.7.64c1.73-20.56,8.07-38.57,16.47-47.57C47,174,40.26,196,39.13,210.44Z"/><path class="cls-10" d="M105.41,137,81.8,144.3S82.92,173,105.41,173Z"/><path class="cls-11" d="M105.24,137l23.61,7.34S127.72,173,105.24,173Z"/><polygon class="cls-12" points="120.98 134.44 89.75 134.44 81.8 144.3 128.93 144.3 120.98 134.44"/><path d="M97.12,156.45c0,3.56-2.27,6.46-5.06,6.46S87,160,87,156.45,89.26,150,92.06,150,97.12,152.88,97.12,156.45Z"/><path d="M123.75,156.45c0,3.56-2.27,6.46-5.07,6.46s-5.06-2.9-5.06-6.46,2.27-6.46,5.06-6.46S123.75,152.88,123.75,156.45Z"/><path class="cls-13" d="M67.9,186.39a54,54,0,0,0-6.43,24.93h87.79a54,54,0,0,0-6.42-24.93,137.8,137.8,0,0,0-37.47-4.92A137.8,137.8,0,0,0,67.9,186.39Z"/><path class="cls-14" d="M146.65,211.32a50.79,50.79,0,0,0-5.77-18.77,130.87,130.87,0,0,0-35.51-4.66,130.89,130.89,0,0,0-35.52,4.66,50.79,50.79,0,0,0-5.77,18.77Z"/><path d="M76.89,89.62S63.94,55.75,43,81.48c1.11,10.37,6.48,22.21,15.55,22.21S76.89,89.62,76.89,89.62Z"/><path class="cls-15" d="M72.94,89.8S62.76,64.22,46.35,83.65c.87,7.83,5.08,16.78,12.2,16.78S72.94,89.8,72.94,89.8Z"/><path d="M66.24,86a7.8,7.8,0,1,1-7.8-7.79A7.8,7.8,0,0,1,66.24,86Z"/><path d="M134.22,89.62s13-33.87,33.87-8.14c-1.11,10.37-6.48,22.21-15.55,22.21S134.22,89.62,134.22,89.62Z"/><path class="cls-16" d="M138.18,89.8s10.17-25.58,26.59-6.15c-.87,7.83-5.09,16.78-12.21,16.78S138.18,89.8,138.18,89.8Z"/><path class="cls-17" d="M163.7.6H47.47A46.73,46.73,0,0,0,.73,47.34v3C.73,23.27,21.65,2.3,47.47,2.3H163.7c25.81,0,46.74,20.33,46.74,48.05v-3A46.74,46.74,0,0,0,163.7.6Z"/><path d="M144.87,86a7.8,7.8,0,1,0,7.8-7.79A7.8,7.8,0,0,0,144.87,86Z"/><path class="cls-18" d="M142.42,84.88a5.16,5.16,0,1,0,7.9-6.48C147,79.49,144.35,82.21,142.42,84.88Z"/><path class="cls-19" d="M58.81,78.05C56,78,52.9,79.13,49.44,82.26a5.17,5.17,0,0,0,9.68-2.52A5,5,0,0,0,58.81,78.05Z"/><path class="cls-20" d="M31.82,66.46C10.05,92,3.43,131.29,2.61,179.52A46.45,46.45,0,0,0,9,191.68v-.46C9,44.57,74.72,44,74.72,44,56.4,43,42.46,54,31.82,66.46ZM74.37,27.14C54,25,34.12,37.91,20.74,50.37A93.55,93.55,0,0,0,0,79.5v26.4C20.71,28.79,74.37,27.14,74.37,27.14Z"/><path class="cls-21" d="M136.44,44s65.78.6,65.78,147.25v.46a46.76,46.76,0,0,0,6.34-12.16c-.82-48.23-7.45-87.55-29.22-113.06C168.7,54,154.76,43,136.44,44Zm74.72,61.93V79.5a93.23,93.23,0,0,0-20.74-29.13C177.05,37.91,157.18,25,136.8,27.14,136.8,27.14,190.45,28.79,211.16,105.9Z"/><path class="cls-22" d="M71,11.47V0h-24A47.06,47.06,0,0,0,0,47.06v7.36C23.21,16.05,71,11.47,71,11.47Z"/><path class="cls-23" d="M140.14,11.47V0h24a47.05,47.05,0,0,1,47.06,47.06v7.36C185.48,15.13,140.14,11.47,140.14,11.47Z"/></g></g></svg>