<svg xmlns="http://www.w3.org/2000/svg" xmlns:xlink="http://www.w3.org/1999/xlink" viewBox="0 0 211.16 211.16"><defs><style>.cls-1{fill-rule:evenodd;fill:url(#linear-gradient);}.cls-2{fill:url(#linear-gradient-2);}.cls-3{fill:url(#linear-gradient-3);}.cls-4{fill:url(#linear-gradient-4);}.cls-5{fill:url(#linear-gradient-5);}.cls-6{fill:url(#linear-gradient-6);}.cls-7{fill:url(#linear-gradient-7);}.cls-8{fill:url(#linear-gradient-8);}.cls-9{fill:url(#linear-gradient-9);}.cls-10{fill:url(#linear-gradient-10);}.cls-11{fill:url(#linear-gradient-11);}.cls-12{fill:url(#linear-gradient-12);}.cls-13{fill:url(#linear-gradient-13);}.cls-14{fill:url(#linear-gradient-14);}.cls-15{fill:url(#linear-gradient-15);}.cls-16{fill:url(#linear-gradient-16);}.cls-17{fill:url(#linear-gradient-17);}.cls-18{fill:url(#linear-gradient-18);}.cls-19{fill:url(#linear-gradient-19);}</style><linearGradient id="linear-gradient" x1="58.9" y1="106.13" x2="-59.25" y2="146.82" gradientUnits="userSpaceOnUse"><stop offset="0" stop-color="#847a70"/><stop offset="1" stop-color="#463f38"/></linearGradient><linearGradient id="linear-gradient-2" x1="232.95" y1="51.62" x2="139.54" y2="105.82" xlink:href="#linear-gradient"/><linearGradient id="linear-gradient-3" x1="95.49" y1="-62.89" x2="107.85" y2="72.62" gradientUnits="userSpaceOnUse"><stop offset="0" stop-color="#b1aba4"/><stop offset="1" stop-color="#71675e"/></linearGradient><linearGradient id="linear-gradient-4" x1="209.8" y1="189.74" x2="127.39" y2="2.95" gradientUnits="userSpaceOnUse"><stop offset="0" stop-color="#665c59"/><stop offset="1" stop-color="#0b090a"/></linearGradient><linearGradient id="linear-gradient-5" x1="2176.87" y1="142.37" x2="2094.47" y2="-44.41" gradientTransform="matrix(-1, 0, 0, 1, 2199.22, 0)" xlink:href="#linear-gradient-4"/><linearGradient id="linear-gradient-6" x1="221.85" y1="125.35" x2="111.6" y2="164.48" gradientUnits="userSpaceOnUse"><stop offset="0" stop-color="#f3f2ef"/><stop offset="1" stop-color="#c2c1bb"/></linearGradient><linearGradient id="linear-gradient-7" x1="103.46" y1="137.07" x2="-32.5" y2="234.59" xlink:href="#linear-gradient-6"/><linearGradient id="linear-gradient-8" x1="230.36" y1="136.08" x2="146.53" y2="198.95" gradientUnits="userSpaceOnUse"><stop offset="0" stop-color="#f3f2ef"/><stop offset="1" stop-color="#a8a79e"/></linearGradient><linearGradient id="linear-gradient-9" x1="2206.07" y1="136.08" x2="2122.23" y2="198.96" gradientTransform="matrix(-1, 0, 0, 1, 2186.92, 0)" xlink:href="#linear-gradient-8"/><linearGradient id="linear-gradient-10" x1="105.71" y1="112.73" x2="105.71" y2="125.84" gradientUnits="userSpaceOnUse"><stop offset="0" stop-color="#3f3934"/><stop offset="1" stop-color="#605a55"/></linearGradient><linearGradient id="linear-gradient-11" x1="128.76" y1="120.44" x2="96.74" y2="151.27" gradientUnits="userSpaceOnUse"><stop offset="0" stop-color="#423e3b"/><stop offset="0.16" stop-color="#353230"/><stop offset="0.71" stop-color="#0f0e0d"/><stop offset="1"/></linearGradient><linearGradient id="linear-gradient-12" x1="109.75" y1="127.74" x2="83.03" y2="148.32" xlink:href="#linear-gradient-11"/><linearGradient id="linear-gradient-13" x1="156.33" y1="82.98" x2="156.33" y2="64.88" gradientUnits="userSpaceOnUse"><stop offset="0" stop-color="#783400"/><stop offset="1" stop-color="#1f150c"/></linearGradient><linearGradient id="linear-gradient-14" x1="147.99" y1="66.45" x2="154.53" y2="73.92" gradientUnits="userSpaceOnUse"><stop offset="0" stop-color="#e8cf91"/><stop offset="0.2" stop-color="#c4ad78"/><stop offset="0.64" stop-color="#695638"/><stop offset="1" stop-color="#1a0a00"/></linearGradient><linearGradient id="linear-gradient-15" x1="2150.88" y1="82.98" x2="2150.88" y2="64.88" gradientTransform="matrix(-1, 0, 0, 1, 2205.77, 0)" xlink:href="#linear-gradient-13"/><linearGradient id="linear-gradient-16" x1="42.73" y1="66.58" x2="49.16" y2="73.91" gradientTransform="translate(4.54)" xlink:href="#linear-gradient-14"/><linearGradient id="linear-gradient-17" x1="105.89" y1="162.88" x2="105.89" y2="207.96" gradientUnits="userSpaceOnUse"><stop offset="0" stop-color="#8c8482"/><stop offset="1" stop-color="#b4b3ab"/></linearGradient><linearGradient id="linear-gradient-18" x1="208.57" y1="13.03" x2="158.28" y2="70.08" gradientUnits="userSpaceOnUse"><stop offset="0" stop-color="#deddd8"/><stop offset="1" stop-color="#a5a39a"/></linearGradient><linearGradient id="linear-gradient-19" x1="64.4" y1="28.96" x2="20.5" y2="99.74" xlink:href="#linear-gradient-18"/></defs><title>Asset 6</title><g id="Layer_2" data-name="Layer 2"><g id="Layer_1-2" data-name="Layer 1"><path class="cls-1" d="M47.07,0h69.75a47.06,47.06,0,0,1,47.06,47.06v117c0,26-21.07,27.46-47.06,27.46H47.07c-12.77,0-24.34,14.52-32.82,6.27A46.91,46.91,0,0,1,0,164.1v-117A47.06,47.06,0,0,1,47.07,0Z"/><path class="cls-2" d="M164.1,0H105.6V191.29h58.5c13,0,24.76,14.6,33.28,6.09a46.9,46.9,0,0,0,13.78-33.28v-117A47.06,47.06,0,0,0,164.1,0Z"/><path class="cls-3" d="M163.7.6H47.47A46.73,46.73,0,0,0,.73,47.34v3C.73,23.27,21.65,2.3,47.47,2.3H163.7c25.81,0,46.74,20.33,46.74,48.05v-3A46.74,46.74,0,0,0,163.7.6Z"/><path class="cls-4" d="M190.77,68.06s-9,50.72-15.35,89.76l-24.36-22.69L120.65,61.35l19.28-18.26S169.07,37.69,190.77,68.06Z"/><path class="cls-5" d="M20.48,68.06s9,50.72,15.35,89.76l24.36-22.69L90.6,61.35,71.32,43.09S42.18,37.69,20.48,68.06Z"/><path class="cls-6" d="M176.47,134.71c7.4,3.7,14.8,8.75,20.23,15.57-5.3-11.76-20.18-31.38-47-41.13a77.18,77.18,0,0,1,26.63,1.18c-16.27-8.54-28.2-11.92-70.45-11.92l.05,0-.3,0V211.16h58.5A46.91,46.91,0,0,0,198,196.69C194.79,169,186.51,149.06,176.47,134.71Z"/><path class="cls-7" d="M34.78,134.71c-7.44,3.7-14.87,8.75-20.32,15.57,5.33-11.76,20.27-31.38,47.23-41.13A77.82,77.82,0,0,0,35,110.33c16.34-8.54,28.32-11.92,70.76-11.92l0,0,.3,0V211.16H47.2a47.24,47.24,0,0,1-34.08-14.47C16.38,169,24.69,149.06,34.78,134.71Z"/><path class="cls-8" d="M158.57,171.81c5.63,10.58,11.58,26.19,13,38.76a48,48,0,0,0,5.12-1.12C173.93,197,167.51,180,158.57,171.81Zm1.83-20.37c10.1,9.33,22,33.25,24.47,54.89a46.89,46.89,0,0,0,6.81-4.12C188.18,189.4,177.4,162.35,160.4,151.44Z"/><path class="cls-9" d="M34.55,209.45a47.67,47.67,0,0,0,5.13,1.12c1.38-12.57,7.34-28.18,13-38.76C43.71,180,37.29,197,34.55,209.45Zm-15-7.24a46.89,46.89,0,0,0,6.81,4.12c2.45-21.64,14.37-45.56,24.47-54.89C33.82,162.35,23,189.4,19.54,202.21Z"/><path class="cls-10" d="M129.39,125.09s-2.53-9.26-12.37-9.26H94.39c-9.83,0-12.36,9.26-12.36,9.26l23.68,7.74Z"/><path class="cls-11" d="M105.55,154.77s23.84-6.37,23.84-29.68H105.55Z"/><path class="cls-12" d="M105.84,154.77S82,148.4,82,125.09h23.84Z"/><path d="M86.65,139.87l14.76-1.56s-.9-8.95-6.93-9.4S86.65,139.87,86.65,139.87Z"/><path d="M124.84,139.87l-14.76-1.56s.89-8.95,6.93-9.4S124.84,139.87,124.84,139.87Z"/><path d="M139,77.18s2.48-15.93,16.48-15.93c13.62,0,22.12,15.7,22.12,15.7h-3.85c-1.39,3.31-7.48,12-17.67,12C143,89,139,77.18,139,77.18Z"/><path class="cls-13" d="M141.67,77.12s2.43-12.8,13.9-12.8c8.21,0,15.41,10.54,15.41,10.54s-5.41,11.42-15.49,11.42S141.67,77.12,141.67,77.12Z"/><path d="M163.91,74.52a8.24,8.24,0,1,1-8.24-8.24A8.24,8.24,0,0,1,163.91,74.52Z"/><path class="cls-14" d="M155.78,68.79a5.16,5.16,0,0,0-1.52-3h0c-4.22.3-6.78,3-8.38,5.59a5.17,5.17,0,0,0,9.93-2.6Z"/><path d="M72.22,77.18S69.73,61.25,55.73,61.25C42.11,61.25,33.61,77,33.61,77h3.85c1.4,3.31,7.48,12,17.67,12C68.21,89,72.22,77.18,72.22,77.18Z"/><path class="cls-15" d="M69.55,77.12s-2.43-12.8-13.9-12.8c-8.21,0-15.42,10.54-15.42,10.54s5.42,11.42,15.5,11.42S69.55,77.12,69.55,77.12Z"/><path d="M47.31,74.52a8.24,8.24,0,1,0,8.24-8.24A8.24,8.24,0,0,0,47.31,74.52Z"/><path class="cls-16" d="M55,68.79a5.1,5.1,0,0,0-1.52-3h0c-3.28.34-7,3.39-8.53,5.26a5.24,5.24,0,0,0,5.62,3.55A5.18,5.18,0,0,0,55,68.79Z"/><path class="cls-17" d="M133.42,156.43l7.22,14.07h-10l-8.56-10.16,1.24,10.16H109.4l-3.51-9.87-3.52,9.87h-14l1.24-10.16L81.1,170.5h-10l7.22-14.07c-13.64,11.23-25.7,40.27-27.12,54.73h4.32c1.73-9.83,6.61-22,12.74-32.51h75.18c6.12,10.55,11,22.68,12.74,32.51h4.32C159.11,196.7,147.06,167.66,133.42,156.43Z"/><path class="cls-18" d="M181.82,40.46c7,2.13,17.85,8,24.34,14.52-6.13-15.26-23.72-28.69-42-29,7.86-2.27,18.27-2,27.7,1-8.29-10.56-40.61-16.38-57.44,2.18a54.89,54.89,0,0,0-13.75,32.19S171,32.63,194.44,76c.21-5.56-3.56-14.45-9.83-22.13,7,3.91,18.65,17,23.75,27.41A58.52,58.52,0,0,0,181.82,40.46Z"/><path class="cls-19" d="M29.4,40.46c-7,2.13-17.85,8-24.35,14.52,6.14-15.26,23.72-28.69,42-29-7.86-2.27-18.27-2-27.71,1C27.67,16.42,60,10.6,76.83,29.16A54.86,54.86,0,0,1,90.56,61.35S40.19,32.63,16.78,76c-.21-5.56,3.56-14.45,9.83-22.13-7,3.91-18.66,17-23.75,27.41A58.52,58.52,0,0,1,29.4,40.46Z"/></g></g></svg>