<svg xmlns="http://www.w3.org/2000/svg" xmlns:xlink="http://www.w3.org/1999/xlink" viewBox="0 0 211.16 211.16"><defs><style>.cls-1{fill-rule:evenodd;fill:url(#linear-gradient);}.cls-2{fill:url(#linear-gradient-2);}.cls-3{fill:url(#linear-gradient-3);}.cls-4{fill:url(#linear-gradient-4);}.cls-5{fill:url(#linear-gradient-5);}.cls-6{fill:url(#linear-gradient-6);}.cls-7{fill:url(#linear-gradient-7);}.cls-8{fill:url(#linear-gradient-8);}.cls-9{fill:url(#linear-gradient-9);}.cls-10{fill:url(#linear-gradient-10);}.cls-11{fill:url(#linear-gradient-11);}.cls-12{fill:url(#linear-gradient-12);}.cls-13{fill:url(#linear-gradient-13);}.cls-14{fill:url(#linear-gradient-14);}.cls-15{fill:url(#linear-gradient-15);}.cls-16{fill:url(#linear-gradient-16);}.cls-17{fill:url(#linear-gradient-17);}.cls-18{fill:url(#linear-gradient-18);}.cls-19{fill:url(#linear-gradient-19);}</style><linearGradient id="linear-gradient" x1="81.94" y1="9.18" x2="81.94" y2="274.71" gradientUnits="userSpaceOnUse"><stop offset="0" stop-color="#e1ae6f"/><stop offset="1" stop-color="#9f6b40"/></linearGradient><linearGradient id="linear-gradient-2" x1="271.7" y1="-16.67" x2="88.56" y2="159.09" gradientUnits="userSpaceOnUse"><stop offset="0" stop-color="#e1ae6f"/><stop offset="1" stop-color="#9f6e40"/></linearGradient><linearGradient id="linear-gradient-3" x1="82.56" y1="-20.07" x2="99.85" y2="28.65" gradientUnits="userSpaceOnUse"><stop offset="0" stop-color="#ffe29a"/><stop offset="1" stop-color="#cc985f"/></linearGradient><linearGradient id="linear-gradient-4" x1="177.12" y1="112.6" x2="162.36" y2="60.42" gradientUnits="userSpaceOnUse"><stop offset="0" stop-color="#946840"/><stop offset="1" stop-color="#301308"/></linearGradient><linearGradient id="linear-gradient-5" x1="254.09" y1="19.1" x2="87.45" y2="131.7" gradientUnits="userSpaceOnUse"><stop offset="0" stop-color="#b4834f"/><stop offset="1" stop-color="#4d2417"/></linearGradient><linearGradient id="linear-gradient-6" x1="3330.04" y1="107.38" x2="3315.27" y2="55.2" gradientTransform="matrix(-1, 0, 0, 1, 3365.5, 0)" xlink:href="#linear-gradient-4"/><linearGradient id="linear-gradient-7" x1="110.08" y1="-35.64" x2="-64.03" y2="314" xlink:href="#linear-gradient-5"/><linearGradient id="linear-gradient-8" x1="202.45" y1="117.96" x2="91.66" y2="155.57" gradientUnits="userSpaceOnUse"><stop offset="0" stop-color="#a17d63"/><stop offset="1" stop-color="#4d3629"/></linearGradient><linearGradient id="linear-gradient-9" x1="127.96" y1="118.37" x2="6.48" y2="189.18" xlink:href="#linear-gradient-8"/><linearGradient id="linear-gradient-10" x1="161.73" y1="41.6" x2="208.57" y2="-2.54" gradientUnits="userSpaceOnUse"><stop offset="0" stop-color="#b4834f"/><stop offset="1" stop-color="#4d3026"/></linearGradient><linearGradient id="linear-gradient-11" x1="3347.43" y1="34.62" x2="3398.78" y2="-13.77" gradientTransform="matrix(-1, 0, 0, 1, 3389.44, 0)" xlink:href="#linear-gradient-10"/><linearGradient id="linear-gradient-12" x1="105.4" y1="125.48" x2="134.09" y2="109" gradientUnits="userSpaceOnUse"><stop offset="0" stop-color="#24201d"/><stop offset="0.34" stop-color="#2d2825"/><stop offset="0.9" stop-color="#463f3a"/><stop offset="1" stop-color="#4b443e"/></linearGradient><linearGradient id="linear-gradient-13" x1="81.94" y1="138.07" x2="107.44" y2="118.4" xlink:href="#linear-gradient-12"/><linearGradient id="linear-gradient-14" x1="105.73" y1="85.73" x2="105.73" y2="119.87" gradientUnits="userSpaceOnUse"><stop offset="0" stop-color="#291a11"/><stop offset="1" stop-color="#7c5e49"/></linearGradient><linearGradient id="linear-gradient-15" x1="105.56" y1="136.39" x2="105.56" y2="238.08" gradientUnits="userSpaceOnUse"><stop offset="0"/><stop offset="1" stop-color="#664b3a"/></linearGradient><linearGradient id="linear-gradient-16" x1="76.21" y1="197.82" x2="166.55" y2="155.09" xlink:href="#linear-gradient-15"/><linearGradient id="linear-gradient-17" x1="-36.57" y1="286.67" x2="68.27" y2="144.29" xlink:href="#linear-gradient-15"/><linearGradient id="linear-gradient-18" x1="46.29" y1="82.11" x2="43.56" y2="75.02" gradientUnits="userSpaceOnUse"><stop offset="0"/><stop offset="1" stop-color="#9c8b80"/></linearGradient><linearGradient id="linear-gradient-19" x1="165" y1="80.85" x2="159.75" y2="73.79" xlink:href="#linear-gradient-18"/></defs><title>Asset 6</title><g id="Layer_2" data-name="Layer 2"><g id="Layer_1-2" data-name="Layer 1"><path class="cls-1" d="M58.07,0h58.74a47.06,47.06,0,0,1,47.06,47.06v117c0,26-21.07,39.21-47.06,39.21H47.06c-10.27,0-19.77,4.56-27.5-1A47,47,0,0,1,0,164.1v-117C0,34,32.08,0,58.07,0Z"/><path class="cls-2" d="M152.22,0H105.6V205.45h58.5c10.14,0,19.53,2.5,27.22-3a47,47,0,0,0,19.84-38.39v-117C211.16,31,178.21,0,152.22,0Z"/><path class="cls-3" d="M163.69.6H47.46A46.74,46.74,0,0,0,.72,47.34v3C.72,23.27,21.65,2.3,47.46,2.3H163.69c25.82,0,46.74,20.33,46.74,48.05v-3A46.73,46.73,0,0,0,163.69.6Z"/><polygon class="cls-4" points="169.43 58.24 153.57 83.03 164.23 98.44 184.78 85.99 169.43 58.24"/><path d="M154.8,81.3l6.77-10.81s11.24,4.4,17.2,11.15c-6.15,4.23-16.34,10.76-16.34,10.76Z"/><path class="cls-5" d="M119.16,29.73C127,14.11,158.53,31,158.53,31s-17.09-13.73-31.17-12.77L115.2,6.84l5.64,13.09a17.06,17.06,0,0,0-7.17,7.36c-11.08,20.49,22.89,35.4,22.89,35.4S111.23,45.6,119.16,29.73Zm68.67,57.38c-10.45-35.86-43-47.31-43-47.31s24.41,16.85,35.36,45c9.62,24.72,10.42,57,13.78,81.09C193.94,118.24,194.24,109.09,187.83,87.11Z"/><polygon class="cls-6" points="41.69 58.24 57.54 83.03 46.88 98.44 26.34 85.99 41.69 58.24"/><path d="M56.32,81.3,49.54,70.49s-11.24,4.4-17.2,11.15C38.5,85.87,48.68,92.4,48.68,92.4Z"/><path class="cls-7" d="M74.55,62.69s34-14.91,22.89-35.4a17,17,0,0,0-7.17-7.36L95.92,6.84,83.75,18.18C69.67,17.22,52.58,31,52.58,31S84.14,14.11,92,29.73C99.88,45.6,74.55,62.69,74.55,62.69ZM17.17,165.86c3.36-24.12,4.17-56.37,13.79-81.09,10.95-28.12,35.35-45,35.35-45s-32.57,11.45-43,47.31C16.87,109.09,17.17,118.24,17.17,165.86Z"/><path class="cls-8" d="M191.77,202.16c-2.14-14-6.54-41.9-10.94-65.3C173.47,97.68,164,68.22,105.14,68.19v143H164A47.31,47.31,0,0,0,191.77,202.16Z"/><path class="cls-9" d="M19.38,202.16c2.13-14,6.5-41.9,10.87-65.3C37.58,97.68,47,68.22,105.55,68.19v143H47.05A46.85,46.85,0,0,1,19.38,202.16Z"/><path class="cls-10" d="M211.16,47.06A47.06,47.06,0,0,0,164.1,0H148.81c4.68,2.69,31,18.84,43.45,48.81h18.9Z"/><path class="cls-11" d="M0,47.06A47.06,47.06,0,0,1,47.06,0H62.35c-4.68,2.69-31,18.84-43.45,48.81H0Z"/><path class="cls-12" d="M105.39,146.27s24.76-10.12,28.75-30.37c-7.5-7.52-14.89-11.61-28.75-11.61Z"/><path class="cls-13" d="M105.76,146.27S81,136.15,77,115.9c7.5-7.52,14.88-11.61,28.76-11.61Z"/><path class="cls-14" d="M105.73,100.34a59.81,59.81,0,0,1,42.7,17.87,50,50,0,0,0-85.39,0A59.79,59.79,0,0,1,105.73,100.34Z"/><path class="cls-15" d="M105.56,152.76c-16.08,38.88-33.71,52.85-47.77,58.4h95.53C138.92,205.15,122,191.64,105.56,152.76Z"/><path d="M93,114.52a12.08,12.08,0,0,1,1.92,6.41A8.09,8.09,0,0,1,86.78,129a8,8,0,0,1-4.2-1.19A9.18,9.18,0,1,0,93,114.52Z"/><path d="M118.06,114.52a12,12,0,0,0-1.92,6.41,8.07,8.07,0,0,0,12.29,6.9,9.18,9.18,0,1,1-10.37-13.31Z"/><path class="cls-16" d="M137,135.62c-1.35,0-2.44,1.72-2.44,3.85s1.09,3.84,2.44,3.84,2.45-1.72,2.45-3.84S138.35,135.62,137,135.62Zm-3,18c-1.35,0-2.45,1.72-2.45,3.85s1.1,3.84,2.45,3.84,2.44-1.72,2.44-3.84S135.37,153.63,134,153.63Zm14.21,13.12c-1.35,0-2.45,1.72-2.45,3.85s1.1,3.84,2.45,3.84,2.44-1.72,2.44-3.84S149.57,166.75,148.23,166.75ZM162,175.26c-1.35,0-2.44,1.72-2.44,3.84S160.63,183,162,183s2.44-1.72,2.44-3.85S163.33,175.26,162,175.26Zm11.4,2.35c-1.34,0-2.44,1.73-2.44,3.85s1.1,3.85,2.44,3.85,2.45-1.73,2.45-3.85S174.73,177.61,173.38,177.61Zm-23.8-32.22c-1.35,0-2.44,1.73-2.44,3.85s1.09,3.84,2.44,3.84,2.44-1.72,2.44-3.84S150.93,145.39,149.58,145.39Zm11.95,14.21c1.35,0,2.44-1.72,2.44-3.84s-1.09-3.85-2.44-3.85-2.45,1.72-2.45,3.85S160.18,159.6,161.53,159.6Zm11.13,2.9c1.35,0,2.44-1.73,2.44-3.85s-1.09-3.84-2.44-3.84-2.44,1.72-2.44,3.84S171.31,162.5,172.66,162.5Z"/><path class="cls-17" d="M72,139.47c0,2.12,1.09,3.84,2.44,3.84s2.44-1.72,2.44-3.84-1.09-3.85-2.44-3.85S72,137.34,72,139.47Zm3,18c0,2.12,1.1,3.84,2.44,3.84s2.45-1.72,2.45-3.84-1.09-3.85-2.45-3.85S75,155.35,75,157.48ZM60.8,170.6c0,2.12,1.09,3.84,2.44,3.84s2.44-1.72,2.44-3.84-1.09-3.85-2.44-3.85S60.8,168.47,60.8,170.6ZM47,179.1c0,2.13,1.09,3.85,2.44,3.85s2.44-1.72,2.44-3.85-1.09-3.84-2.44-3.84S47,177,47,179.1Zm-11.4,2.36c0,2.12,1.09,3.85,2.44,3.85s2.44-1.73,2.44-3.85-1.09-3.85-2.44-3.85S35.64,179.34,35.64,181.46Zm23.8-32.22c0,2.12,1.09,3.84,2.44,3.84s2.45-1.72,2.45-3.84-1.1-3.85-2.45-3.85S59.44,147.12,59.44,149.24Zm-7.06,6.52c0-2.13-1.09-3.85-2.44-3.85s-2.45,1.72-2.45,3.85,1.1,3.84,2.45,3.84S52.38,157.88,52.38,155.76Zm-11.13,2.89c0-2.12-1.09-3.84-2.44-3.84s-2.45,1.72-2.45,3.84,1.1,3.85,2.45,3.85S41.25,160.77,41.25,158.65Z"/><path class="cls-18" d="M44.19,81.1a4.42,4.42,0,0,0,4.42-4.42,4.38,4.38,0,0,0-1-2.77A63.62,63.62,0,0,0,40,78.1,4.4,4.4,0,0,0,44.19,81.1Z"/><path class="cls-19" d="M158.64,79.36a4.38,4.38,0,0,0,6.77-5c-1.72-.82-2.84-1.26-2.84-1.26Z"/></g></g></svg>