<svg xmlns="http://www.w3.org/2000/svg" xmlns:xlink="http://www.w3.org/1999/xlink" viewBox="0 0 211.16 211.16"><defs><style>.cls-1{fill-rule:evenodd;fill:url(#linear-gradient);}.cls-2{fill:url(#linear-gradient-2);}.cls-3{fill:url(#linear-gradient-3);}.cls-4{fill:url(#linear-gradient-4);}.cls-5{fill:url(#linear-gradient-5);}.cls-6{fill:url(#linear-gradient-6);}.cls-7{fill:url(#linear-gradient-7);}.cls-8{fill:url(#linear-gradient-8);}.cls-9{fill:url(#linear-gradient-9);}.cls-10{fill:url(#linear-gradient-10);}.cls-11{fill:url(#linear-gradient-11);}.cls-12{fill:url(#linear-gradient-12);}.cls-13{fill:url(#linear-gradient-13);}.cls-14{fill:url(#linear-gradient-14);}.cls-15{fill:url(#linear-gradient-15);}.cls-16{fill:url(#linear-gradient-16);}.cls-17{fill:url(#linear-gradient-17);}.cls-18{fill:url(#linear-gradient-18);}.cls-19{fill:url(#linear-gradient-19);}.cls-20{fill:url(#linear-gradient-20);}.cls-21{fill:url(#linear-gradient-21);}.cls-22{fill:url(#linear-gradient-22);}.cls-23{fill:url(#linear-gradient-23);}.cls-24{fill:url(#linear-gradient-24);}.cls-25{fill:url(#linear-gradient-25);}.cls-26{fill:url(#linear-gradient-26);}</style><linearGradient id="linear-gradient" x1="128.09" y1="29.76" x2="-14.08" y2="263.31" gradientUnits="userSpaceOnUse"><stop offset="0" stop-color="#f3f2ef"/><stop offset="1" stop-color="#c2c1bb"/></linearGradient><linearGradient id="linear-gradient-2" x1="232.3" y1="37.52" x2="135.13" y2="111.4" gradientUnits="userSpaceOnUse"><stop offset="0" stop-color="#e9e8e5"/><stop offset="1" stop-color="#c0beb9"/></linearGradient><linearGradient id="linear-gradient-3" x1="100.33" y1="-14.74" x2="106.1" y2="53.99" gradientUnits="userSpaceOnUse"><stop offset="0" stop-color="#fff"/><stop offset="1" stop-color="#dddcd8"/></linearGradient><linearGradient id="linear-gradient-4" x1="234.03" y1="90.79" x2="6.7" y2="48.91" gradientUnits="userSpaceOnUse"><stop offset="0" stop-color="#423e3b"/><stop offset="0.16" stop-color="#353230"/><stop offset="0.71" stop-color="#0f0e0d"/><stop offset="1"/></linearGradient><linearGradient id="linear-gradient-5" x1="160.77" y1="53.6" x2="160.77" y2="80.43" gradientUnits="userSpaceOnUse"><stop offset="0" stop-color="#332508"/><stop offset="0.67" stop-color="#6e4c11"/><stop offset="1" stop-color="#855c14"/></linearGradient><linearGradient id="linear-gradient-6" x1="1169.66" y1="53.6" x2="1169.66" y2="80.43" gradientTransform="matrix(-1, 0, 0, 1, 1220.1, 0)" xlink:href="#linear-gradient-5"/><linearGradient id="linear-gradient-7" x1="270.26" y1="174.7" x2="183.88" y2="152.11" gradientUnits="userSpaceOnUse"><stop offset="0" stop-color="#cdccc7"/><stop offset="1" stop-color="#949289"/></linearGradient><linearGradient id="linear-gradient-8" x1="1275.82" y1="176.44" x2="1170.6" y2="148.93" gradientTransform="matrix(-1, 0, 0, 1, 1210.04, 0)" gradientUnits="userSpaceOnUse"><stop offset="0" stop-color="#cdccc7"/><stop offset="1" stop-color="#aaa8a1"/></linearGradient><linearGradient id="linear-gradient-9" x1="159.46" y1="137.73" x2="84.15" y2="146.49" xlink:href="#linear-gradient"/><linearGradient id="linear-gradient-10" x1="95.56" y1="146.6" x2="14.68" y2="121.96" gradientUnits="userSpaceOnUse"><stop offset="0" stop-color="#fff"/><stop offset="1" stop-color="#d2d1cd"/></linearGradient><linearGradient id="linear-gradient-11" x1="169.92" y1="197.18" x2="103.19" y2="189.61" gradientUnits="userSpaceOnUse"><stop offset="0" stop-color="#cdccc7"/><stop offset="1" stop-color="#6c695d"/></linearGradient><linearGradient id="linear-gradient-12" x1="124.72" y1="175.16" x2="32.75" y2="211.51" xlink:href="#linear-gradient-11"/><linearGradient id="linear-gradient-13" x1="105.6" y1="127" x2="105.6" y2="155.69" gradientUnits="userSpaceOnUse"><stop offset="0" stop-color="#3f3934"/><stop offset="1" stop-color="#605a55"/></linearGradient><linearGradient id="linear-gradient-14" x1="128.32" y1="149.59" x2="103.86" y2="188.73" xlink:href="#linear-gradient-4"/><linearGradient id="linear-gradient-15" x1="103.96" y1="158.34" x2="71.04" y2="196.15" xlink:href="#linear-gradient-4"/><linearGradient id="linear-gradient-16" x1="43.78" y1="71.67" x2="-22.15" y2="38.1" xlink:href="#linear-gradient-4"/><linearGradient id="linear-gradient-17" x1="189.82" y1="18.37" x2="185.73" y2="113.78" gradientUnits="userSpaceOnUse"><stop offset="0" stop-color="#aeada5"/><stop offset="1" stop-color="#595548"/></linearGradient><linearGradient id="linear-gradient-18" x1="-142.07" y1="-2.14" x2="-191.7" y2="-11.28" gradientTransform="matrix(1, 0, -0.14, 0.93, 352.89, 163)" xlink:href="#linear-gradient-4"/><linearGradient id="linear-gradient-19" x1="-16.24" y1="182.75" x2="68.61" y2="124.46" xlink:href="#linear-gradient-4"/><linearGradient id="linear-gradient-20" x1="143.24" y1="42.63" x2="68.64" y2="-7.1" xlink:href="#linear-gradient-4"/><linearGradient id="linear-gradient-21" x1="95.6" y1="134.7" x2="-8.17" y2="183.54" gradientUnits="userSpaceOnUse"><stop offset="0" stop-color="#64615c"/><stop offset="0.24" stop-color="#4f4d4a"/><stop offset="0.74" stop-color="#292827"/><stop offset="1" stop-color="#1a1a1a"/></linearGradient><linearGradient id="linear-gradient-22" x1="158.37" y1="116" x2="102.21" y2="137.98" xlink:href="#linear-gradient-21"/><linearGradient id="linear-gradient-23" x1="97.25" y1="31.7" x2="-76.72" y2="98.84" xlink:href="#linear-gradient-4"/><linearGradient id="linear-gradient-24" x1="156.7" y1="73.48" x2="153.59" y2="65.86" gradientUnits="userSpaceOnUse"><stop offset="0" stop-color="#332508"/><stop offset="0.11" stop-color="#4d3c12"/><stop offset="0.55" stop-color="#ac9137"/><stop offset="0.85" stop-color="#e8c64e"/><stop offset="1" stop-color="#ffdb57"/></linearGradient><linearGradient id="linear-gradient-25" x1="48.35" y1="72.98" x2="45.88" y2="66.31" xlink:href="#linear-gradient-24"/><linearGradient id="linear-gradient-26" x1="105.6" y1="194" x2="105.6" y2="216.5" gradientUnits="userSpaceOnUse"><stop offset="0" stop-color="#5d2e2e"/><stop offset="1" stop-color="#c7b8ab"/></linearGradient></defs><title>Asset 5</title><g id="Layer_2" data-name="Layer 2"><g id="Layer_1-2" data-name="Layer 1"><path class="cls-1" d="M47.07,0h69.75a47.06,47.06,0,0,1,47.06,47.06v117a47.06,47.06,0,0,1-47.06,47.06H47.07A47.06,47.06,0,0,1,0,164.1v-117A47.06,47.06,0,0,1,47.07,0Z"/><path class="cls-2" d="M164.1,0H105.6V211.16h58.5a47.06,47.06,0,0,0,47.06-47.06v-117A47.06,47.06,0,0,0,164.1,0Z"/><path class="cls-3" d="M163.7.6H47.47A46.73,46.73,0,0,0,.73,47.34v3C.73,23.27,21.65,2.3,47.47,2.3H163.7c25.81,0,46.74,20.33,46.74,48.05v-3A46.74,46.74,0,0,0,163.7.6Z"/><path class="cls-4" d="M160.85,57.67s-1.45-19-14.41-19S131,50.4,131,63c0,18.24,12.94,37.81,29.37,48.08,19.81,12.38,43.21-.82,32.64-26.87C182.91,59.43,160.85,57.67,160.85,57.67Z"/><path d="M142,73s7.49-25.09,37.8-2.29C175.57,83.71,153.09,102.28,142,73Z"/><path class="cls-5" d="M145,73.32s6.24-19.84,31.46-1.8C173,81.83,154.27,96.52,145,73.32Z"/><path d="M167.54,72A8,8,0,1,1,159.59,64,7.94,7.94,0,0,1,167.54,72Z"/><path d="M69.2,73s-7.5-25.09-37.8-2.29C35.63,83.71,58.12,102.28,69.2,73Z"/><path class="cls-6" d="M66.16,73.32s-6.23-19.84-31.45-1.8C38.23,81.83,56.94,96.52,66.16,73.32Z"/><path d="M43.67,72A8,8,0,1,0,51.62,64,7.94,7.94,0,0,0,43.67,72Z"/><path class="cls-7" d="M174.15,210.07a47.06,47.06,0,0,0,37-46V98.74l-26.28,50.81Z"/><path class="cls-8" d="M37,210.07a47.06,47.06,0,0,1-37-46V98.74l26.28,50.81Z"/><path class="cls-9" d="M162.42,167.4c-1.53-17.56-1.52-34.21-14.65-58C134.4,85.13,107.53,71,105.49,69.89V196.81C112.55,211,164,211.16,164,211.16c.59,0,1.17,0,1.76,0C165.09,201.76,163.58,180.72,162.42,167.4Z"/><path class="cls-10" d="M48.75,167.4c1.52-17.56,1.52-34.21,14.65-58C76.77,85.13,103.64,71,105.68,69.89V196.12c-11,15.57-58.5,15-58.5,15-.59,0-1.18,0-1.76,0C46.08,201.76,47.59,180.72,48.75,167.4Z"/><polygon class="cls-11" points="130.39 177.13 133.61 208.64 105.6 198.04 105.6 179.59 130.39 177.13"/><polygon class="cls-12" points="80.9 177.13 77.68 208.64 105.69 198.04 105.69 179.59 80.9 177.13"/><path class="cls-13" d="M105.64,138.39h-.07c-36.35,0-32.66,23.12-32.66,23.12l32.69,7.88,32.7-7.88S142,138.43,105.64,138.39Z"/><path class="cls-14" d="M105.53,188.8s29.36.14,32.77-27.29c-6.37-4.74-14.38-9.19-32.77-9.19Z"/><path class="cls-15" d="M105.7,188.8s-29.35.14-32.76-27.29c6.37-4.74,14.38-9.19,32.76-9.19Z"/><path d="M128.16,167.37a17.57,17.57,0,0,0,7.3-1.59c-3.4,5.7-10.77,7.83-14,7.83a6.25,6.25,0,1,1,6.72-6.24Z"/><path d="M83.1,167.37a17.57,17.57,0,0,1-7.3-1.59c3.39,5.7,10.77,7.83,14,7.83a6.25,6.25,0,1,0-6.72-6.24Z"/><path class="cls-16" d="M0,47.06v71.68L46.81,14.16,40.22.5A47.07,47.07,0,0,0,0,47.06Z"/><polygon class="cls-17" points="167.71 7.21 164.36 14.16 211.16 118.74 211.16 93.91 167.71 7.21"/><path class="cls-18" d="M200.68,157.94c-1.65,10.87-6.05,19.69-9.85,19.69s-5.53-8.82-3.89-19.69,6.05-19.69,9.85-19.69S202.32,147.07,200.68,157.94Z"/><path class="cls-19" d="M27.07,167.58c-1.65-10.87-6.05-19.69-9.84-19.69-1.19,0-2.18.87-2.92,2.39-.06-1.09-.17-2.24-.35-3.43-1-6.84-3.8-12.37-6.19-12.37S4.29,140,5.33,146.85s3.8,12.37,6.18,12.37a1.67,1.67,0,0,0,1.23-.58,51.12,51.12,0,0,0,.59,8.94c1.65,10.87,6,19.69,9.85,19.69S28.71,178.45,27.07,167.58Z"/><path class="cls-20" d="M133.09,27.11A13.13,13.13,0,1,1,120,14,13.12,13.12,0,0,1,133.09,27.11Z"/><path class="cls-21" d="M59.88,148.51c-3.72,0-7.05,6.22-7.43,13.86s2.33,13.81,6.06,13.8,7.05-6.22,7.43-13.86S63.61,148.5,59.88,148.51Zm31.54-35.43c-4.32,0-8,3.79-8.24,8.42s3.08,8.39,7.4,8.37,8-3.79,8.25-8.43S95.74,113.06,91.42,113.08Z"/><path class="cls-22" d="M154,138.15c-.57-6-3.29-10.84-6.06-10.82s-4.57,4.89-4,10.89S147.18,149.06,150,149,154.52,144.15,154,138.15Zm-33.22-36.94c-3.54,0-6.11,3.28-5.73,7.28s3.56,7.23,7.1,7.21,6.11-3.29,5.73-7.29S124.28,101.19,120.74,101.21Z"/><path class="cls-23" d="M95.67,9a6.41,6.41,0,1,0,6.41,6.41A6.41,6.41,0,0,0,95.67,9ZM80.92,37.66c-5.58-2.27-12.44,1.58-15.31,8.62S65,60.86,70.54,63.14,83,61.56,85.85,54.53,86.51,39.94,80.92,37.66Z"/><path class="cls-24" d="M149.52,69.65a5.21,5.21,0,0,0,10.1-1.8,5.12,5.12,0,0,0-.51-2.21A12.91,12.91,0,0,0,149.52,69.65Z"/><path class="cls-25" d="M46.2,72.37a5.16,5.16,0,0,0,4.95-6.81,30.24,30.24,0,0,0-9.79,3.54A5.24,5.24,0,0,0,46.2,72.37Z"/><path class="cls-26" d="M46.5,211.16h.68l-.67,0Zm59.09-20.06c-15.07,18.79-58.41,20.06-58.41,20.06H164S120.65,209.89,105.59,191.1Zm59.11,20-.71,0h.72Z"/></g></g></svg>