<svg xmlns="http://www.w3.org/2000/svg" xmlns:xlink="http://www.w3.org/1999/xlink" viewBox="0 0 211.16 211.16"><defs><style>.cls-1{fill-rule:evenodd;fill:url(#linear-gradient);}.cls-2{fill:url(#linear-gradient-2);}.cls-3{fill:url(#linear-gradient-3);}.cls-4{fill:url(#linear-gradient-4);}.cls-5{fill:url(#linear-gradient-5);}.cls-6{fill:url(#linear-gradient-6);}.cls-7{fill:url(#linear-gradient-7);}.cls-8{fill:#121110;}.cls-9{fill:url(#linear-gradient-8);}.cls-10{fill:url(#linear-gradient-9);}.cls-11{fill:url(#linear-gradient-10);}.cls-12{fill:url(#linear-gradient-11);}.cls-13{fill:url(#linear-gradient-12);}.cls-14{fill:url(#linear-gradient-13);}.cls-15{fill:url(#linear-gradient-14);}.cls-16{fill:url(#linear-gradient-15);}.cls-17{fill:url(#linear-gradient-16);}.cls-18{fill:url(#linear-gradient-17);}.cls-19{fill:url(#linear-gradient-18);}.cls-20{fill:url(#linear-gradient-19);}.cls-21{fill:url(#linear-gradient-20);}</style><linearGradient id="linear-gradient" x1="81.94" y1="9.13" x2="81.94" y2="273.38" gradientUnits="userSpaceOnUse"><stop offset="0" stop-color="#68645f"/><stop offset="0.7" stop-color="#1d1918"/></linearGradient><linearGradient id="linear-gradient-2" x1="158.38" y1="-35.56" x2="158.38" y2="195.94" gradientUnits="userSpaceOnUse"><stop offset="0" stop-color="#5f5a54"/><stop offset="0.91" stop-color="#161212"/></linearGradient><linearGradient id="linear-gradient-3" x1="80" y1="-24.59" x2="107.14" y2="48.87" gradientUnits="userSpaceOnUse"><stop offset="0" stop-color="#83827a"/><stop offset="1" stop-color="#4a4541"/></linearGradient><linearGradient id="linear-gradient-4" x1="104.68" y1="112.52" x2="-52.25" y2="232.34" gradientUnits="userSpaceOnUse"><stop offset="0" stop-color="#423e3b"/><stop offset="0.16" stop-color="#353230"/><stop offset="0.71" stop-color="#0f0e0d"/><stop offset="1"/></linearGradient><linearGradient id="linear-gradient-5" x1="1140.97" y1="83.8" x2="948.71" y2="230.59" gradientTransform="matrix(-1, 0, 0, 1, 1212.04, 0)" xlink:href="#linear-gradient-4"/><linearGradient id="linear-gradient-6" x1="199.4" y1="13.14" x2="22.99" y2="167.74" xlink:href="#linear-gradient-4"/><linearGradient id="linear-gradient-7" x1="93.54" y1="62.49" x2="-73.1" y2="219.36" xlink:href="#linear-gradient-4"/><linearGradient id="linear-gradient-8" x1="129.88" y1="130.87" x2="-52.24" y2="228.21" gradientUnits="userSpaceOnUse"><stop offset="0" stop-color="#5f5a54"/><stop offset="0.9" stop-color="#1d1717"/></linearGradient><linearGradient id="linear-gradient-9" x1="210.12" y1="126.06" x2="76.19" y2="177.35" gradientUnits="userSpaceOnUse"><stop offset="0" stop-color="#5f5a54"/><stop offset="0.99" stop-color="#1d1717"/></linearGradient><linearGradient id="linear-gradient-10" x1="109.64" y1="121.65" x2="37.27" y2="148.53" xlink:href="#linear-gradient-4"/><linearGradient id="linear-gradient-11" x1="166.24" y1="97.29" x2="59.62" y2="144.51" xlink:href="#linear-gradient-4"/><linearGradient id="linear-gradient-12" x1="105.59" y1="224.7" x2="105.59" y2="172.75" xlink:href="#linear-gradient-4"/><linearGradient id="linear-gradient-13" x1="171.71" y1="124.16" x2="-14.23" y2="199.02" gradientUnits="userSpaceOnUse"><stop offset="0" stop-color="#5f5a54"/><stop offset="1" stop-color="#1d1717"/></linearGradient><linearGradient id="linear-gradient-14" x1="233.86" y1="134.39" x2="113" y2="182" xlink:href="#linear-gradient-13"/><linearGradient id="linear-gradient-15" x1="54.68" y1="65.23" x2="15.95" y2="2.89" gradientUnits="userSpaceOnUse"><stop offset="0" stop-color="#917371"/><stop offset="1" stop-color="#1f1918"/></linearGradient><linearGradient id="linear-gradient-16" x1="1027.11" y1="79.93" x2="982.57" y2="8.22" gradientTransform="matrix(-1, 0, 0, 1, 1174.47, 0)" xlink:href="#linear-gradient-15"/><linearGradient id="linear-gradient-17" x1="177.81" y1="105.52" x2="177.81" y2="68.4" gradientUnits="userSpaceOnUse"><stop offset="0" stop-color="#684219"/><stop offset="1" stop-color="#120503"/></linearGradient><linearGradient id="linear-gradient-18" x1="167" y1="75.83" x2="173.75" y2="84.92" gradientUnits="userSpaceOnUse"><stop offset="0" stop-color="#e8a854"/><stop offset="1" stop-color="#1f1919"/></linearGradient><linearGradient id="linear-gradient-19" x1="295.87" y1="105.52" x2="295.87" y2="68.4" gradientTransform="matrix(-1, 0, 0, 1, 329.23, 0)" xlink:href="#linear-gradient-17"/><linearGradient id="linear-gradient-20" x1="25.68" y1="75.96" x2="32.67" y2="85.38" xlink:href="#linear-gradient-18"/></defs><title>Asset 10</title><g id="Layer_2" data-name="Layer 2"><g id="Layer_1-2" data-name="Layer 1"><path class="cls-1" d="M47.06,0h69.76a47.06,47.06,0,0,1,47.06,47.06v117c0,26-21.07,40-47.06,40H47.06C21.07,204.07,0,177.7,0,151.7V47.06A47.06,47.06,0,0,1,47.06,0Z"/><path class="cls-2" d="M164.1,0H105.6V203.11h58.5c26,0,47.06-25.41,47.06-51.41V47.06A47.06,47.06,0,0,0,164.1,0Z"/><path class="cls-3" d="M163.7.6H47.47A46.74,46.74,0,0,0,.73,47.34v3C.73,23.27,21.65,2.3,47.47,2.3H163.7c25.81,0,46.74,20.33,46.74,48.05v-3A46.74,46.74,0,0,0,163.7.6Z"/><path class="cls-4" d="M0,164.1A47.06,47.06,0,0,0,25.54,206C32,209.28,49,201.26,49,201.26l12.36-85.6L0,146.27Z"/><path class="cls-5" d="M211.16,164.1a47,47,0,0,1-25.35,41.76c-6.5,3.39-23.59-8-23.59-8l-12.37-82.21,61.31,30.61Z"/><path class="cls-6" d="M147.24,126.26V96.37c0-12.52,7.15-32.1,28-33C171.68,47.43,147.46,28,122.25,28H105.48v83.4Z"/><path class="cls-7" d="M64,126.26V96.37c0-12.52-7.15-32.1-28-33C39.56,47.43,63.79,28,89,28h16.78v83.4Z"/><path class="cls-8" d="M170.07,138.24s-2.81-12-18.84-27.71A95.49,95.49,0,0,0,129.48,94.9c.54-4.59,1.33-17.57,10.66-29.24-6,3.5-13.35,15.59-16.77,26.08-3.76-1.83-8-3.45-8-3.45s0-14.7,11.9-32a58.08,58.08,0,0,0-21.54,38.41A58.08,58.08,0,0,0,84.23,56.33c11.9,17.26,11.9,32,11.9,32s-4.2,1.62-8,3.45C84.76,81.25,77.4,69.16,71.4,65.66,80.73,77.33,81.52,90.31,82.05,94.9a95.66,95.66,0,0,0-21.74,15.63c-16,15.7-18.84,27.71-18.84,27.71s57.76-10.91,64.3-30.67C112.31,127.33,170.07,138.24,170.07,138.24Z"/><path class="cls-9" d="M36.92,147.25c-5.46,17.3-9.72,42.66-12,58.36a46.84,46.84,0,0,0,22.18,5.55l58.64-13.81V95.23s-15,2.35-36.31,14.48C43.16,124.66,40.32,136.49,36.92,147.25Z"/><path class="cls-10" d="M174.18,147.25c-3.39-10.76-6.23-22.59-32.46-37.54-19.91-11.34-34.34-14.13-36.12-14.44V199.75l58.5,11.41a46.81,46.81,0,0,0,22.12-5.52C183.91,189.94,179.65,164.56,174.18,147.25Z"/><path class="cls-11" d="M105.81,149.89,76.37,129.14s1.23-30.68,29.44-30.68Z"/><path class="cls-12" d="M105.53,149.89,135,129.14s-1.23-30.68-29.44-30.68Z"/><path d="M84.91,134.21c24.79-4.29,10.49-24.32,10.49-24.32Zm31-24.32s-14.3,20,10.49,24.32Z"/><path class="cls-13" d="M105.61,167.7v0h0v0c-13,29.35-53.22,40.63-63.89,43.15a47.43,47.43,0,0,0,5.35.31h117a50,50,0,0,0,5.37-.31C158.79,208.32,118.65,197,105.61,167.7Z"/><path class="cls-14" d="M82.54,138.63,39.81,159.39C60.63,163.27,82.54,138.63,82.54,138.63Zm4.27,11L36.07,178.79C59,180.88,86.81,149.6,86.81,149.6ZM39.05,196C61.56,198,91.44,163,91.44,163Z"/><path class="cls-15" d="M171.33,159.39l-42.72-20.76S150.51,163.27,171.33,159.39Zm3.74,19.4L124.33,149.6S152.14,180.88,175.07,178.79ZM119.7,163s29.89,35,52.39,32.91Z"/><path class="cls-16" d="M63.93,18.77V0H47.06A47.06,47.06,0,0,0,0,47.06V57.33C3.88,47.22,21.69,18.77,63.93,18.77Z"/><path class="cls-17" d="M147.24,18.77V0H164.1a47.06,47.06,0,0,1,47.06,47.06V57.33C207.28,47.22,189.48,18.77,147.24,18.77Z"/><path d="M155,97.91s4-29.9,22.32-26.15c16.07,3.29,23.34,13,23.34,13s-7.38,18.43-20.94,17.3A137.48,137.48,0,0,1,155,97.91Z"/><path class="cls-18" d="M163.31,96.78a20,20,0,0,1-2.82-6.51c2-6.51,6.73-16.22,16.71-14.3s15.79,6.75,17.9,8.85c0,.2,0,.4,0,.6A19.65,19.65,0,0,1,195,88c-2.17,3.89-7.58,11.64-15.81,11A133.7,133.7,0,0,1,163.31,96.78Z"/><path d="M189.41,85.58c0,5.89-4.42,10.66-9.88,10.66s-9.9-4.77-9.9-10.66,4.43-10.65,9.9-10.65S189.41,79.7,189.41,85.58Z"/><path class="cls-19" d="M176.2,79.22a6.51,6.51,0,0,0-.58-2.68c-5.1-.06-8.62,3.12-11,7a6.58,6.58,0,0,0,11.59-4.3Z"/><path d="M56.2,97.91s-4-29.9-22.32-26.15c-16.08,3.29-23.35,13-23.35,13s7.38,18.43,20.94,17.3A137.72,137.72,0,0,0,56.2,97.91Z"/><path class="cls-20" d="M47.86,96.78a20,20,0,0,0,2.81-6.51c-2-6.51-6.73-16.22-16.7-14.3s-15.8,6.75-17.91,8.85c0,.2,0,.4,0,.6A19.65,19.65,0,0,0,16.21,88C18.39,91.87,23.79,99.62,32,99A134.33,134.33,0,0,0,47.86,96.78Z"/><path d="M21.75,85.58c0,5.89,4.42,10.66,9.89,10.66s9.89-4.77,9.89-10.66S37.1,74.93,31.64,74.93,21.75,79.7,21.75,85.58Z"/><path class="cls-21" d="M34.56,79.28A6.13,6.13,0,0,0,34.12,77a39.5,39.5,0,0,0-11.8,4.25,6.28,6.28,0,0,0,12.24-2Z"/></g></g></svg>