<svg xmlns="http://www.w3.org/2000/svg" xmlns:xlink="http://www.w3.org/1999/xlink" viewBox="0 0 211.16 211.16"><defs><style>.cls-1{fill:url(#linear-gradient);}.cls-2{fill:url(#linear-gradient-2);}.cls-3{fill:url(#linear-gradient-3);}.cls-4{fill-rule:evenodd;fill:url(#linear-gradient-4);}.cls-5{fill:url(#linear-gradient-5);}.cls-6{fill:url(#linear-gradient-6);}.cls-7{fill:url(#linear-gradient-7);}.cls-8{fill:url(#linear-gradient-8);}.cls-9{fill:url(#linear-gradient-9);}.cls-10{fill:url(#linear-gradient-10);}.cls-11{fill:url(#linear-gradient-11);}.cls-12{fill:url(#linear-gradient-12);}.cls-13{fill:url(#linear-gradient-13);}.cls-14{fill:url(#linear-gradient-14);}.cls-15{fill:url(#linear-gradient-15);}.cls-16{fill:url(#linear-gradient-16);}.cls-17{fill:url(#linear-gradient-17);}.cls-18{fill:url(#linear-gradient-18);}.cls-19{fill:url(#linear-gradient-19);}.cls-20{fill:url(#linear-gradient-20);}.cls-21{fill:url(#linear-gradient-21);}.cls-22{fill:url(#linear-gradient-22);}.cls-23{fill:url(#linear-gradient-23);}</style><linearGradient id="linear-gradient" x1="-53.96" y1="120.24" x2="82.57" y2="182.12" gradientTransform="matrix(-1, 0, 0, 1, 110.15, 0)" gradientUnits="userSpaceOnUse"><stop offset="0" stop-color="#2e2926"/><stop offset="0.13" stop-color="#37322f"/><stop offset="0.36" stop-color="#4f4b48"/><stop offset="0.64" stop-color="#777470"/><stop offset="0.96" stop-color="#aeaca7"/><stop offset="1" stop-color="#b4b2ad"/></linearGradient><linearGradient id="linear-gradient-2" x1="61.01" y1="130.56" x2="199.68" y2="193.4" gradientTransform="matrix(1, 0, 0, 1, 0, 0)" xlink:href="#linear-gradient"/><linearGradient id="linear-gradient-3" x1="105.61" y1="204.59" x2="105.61" y2="219.87" gradientTransform="matrix(1, 0, 0, 1, 0, 0)" xlink:href="#linear-gradient"/><linearGradient id="linear-gradient-4" x1="99" y1="111.45" x2="9.22" y2="140.99" gradientUnits="userSpaceOnUse"><stop offset="0" stop-color="#e6e5e2"/><stop offset="1" stop-color="#b5b4ae"/></linearGradient><linearGradient id="linear-gradient-5" x1="150" y1="26.25" x2="150" y2="209.99" gradientUnits="userSpaceOnUse"><stop offset="0" stop-color="#dcdbd8"/><stop offset="1" stop-color="#b3b1ac"/></linearGradient><linearGradient id="linear-gradient-6" x1="142.86" y1="37.79" x2="160.1" y2="108.32" gradientUnits="userSpaceOnUse"><stop offset="0" stop-color="#504c49"/><stop offset="1" stop-color="#c1bfbb"/></linearGradient><linearGradient id="linear-gradient-7" x1="51.48" y1="35.66" x2="66.23" y2="108.6" xlink:href="#linear-gradient-6"/><linearGradient id="linear-gradient-8" x1="153.09" y1="123.85" x2="227.28" y2="123.85" gradientUnits="userSpaceOnUse"><stop offset="0" stop-color="#f3f2ef"/><stop offset="1" stop-color="#c2c1bb"/></linearGradient><linearGradient id="linear-gradient-9" x1="105.61" y1="206.24" x2="105.61" y2="148.72" gradientTransform="matrix(1, 0, 0, 1, 0, 0)" xlink:href="#linear-gradient"/><linearGradient id="linear-gradient-10" x1="-11.72" y1="123.85" x2="56.26" y2="123.85" xlink:href="#linear-gradient-8"/><linearGradient id="linear-gradient-11" x1="104.46" y1="180.54" x2="144.19" y2="199.01" gradientUnits="userSpaceOnUse"><stop offset="0" stop-color="#24201d"/><stop offset="0.34" stop-color="#2d2825"/><stop offset="0.9" stop-color="#463f3a"/><stop offset="1" stop-color="#4b443e"/></linearGradient><linearGradient id="linear-gradient-12" x1="74.97" y1="192.89" x2="125.47" y2="174.48" xlink:href="#linear-gradient-11"/><linearGradient id="linear-gradient-13" x1="134.19" y1="55.03" x2="155.84" y2="145.25" gradientTransform="matrix(1, 0, 0, 1, 0, 0)" xlink:href="#linear-gradient"/><linearGradient id="linear-gradient-14" x1="0.63" y1="55.03" x2="22.28" y2="145.25" gradientTransform="matrix(-1, 0, 0, 1, 77.61, 0)" xlink:href="#linear-gradient"/><linearGradient id="linear-gradient-15" x1="148.98" y1="102.09" x2="140.28" y2="92.34" gradientTransform="matrix(1, 0, 0, 1, 0, 0)" xlink:href="#linear-gradient"/><linearGradient id="linear-gradient-16" x1="66.37" y1="102.66" x2="58.07" y2="92.44" gradientTransform="matrix(1, 0, 0, 1, 0, 0)" xlink:href="#linear-gradient"/><linearGradient id="linear-gradient-17" x1="93.25" y1="-6.76" x2="7.19" y2="131.81" xlink:href="#linear-gradient-8"/><linearGradient id="linear-gradient-18" x1="188.09" y1="-2.03" x2="71.51" y2="126.76" xlink:href="#linear-gradient-8"/><linearGradient id="linear-gradient-19" x1="108.32" y1="-5.24" x2="103.47" y2="89.45" gradientUnits="userSpaceOnUse"><stop offset="0" stop-color="#fff"/><stop offset="1" stop-color="#dddcd8"/></linearGradient><linearGradient id="linear-gradient-20" x1="148.84" y1="69.27" x2="190.35" y2="-51.59" gradientUnits="userSpaceOnUse"><stop offset="0" stop-color="#dbdad6"/><stop offset="1" stop-color="#c2c1bb"/></linearGradient><linearGradient id="linear-gradient-21" x1="94.53" y1="24.57" x2="-8.63" y2="41.67" gradientUnits="userSpaceOnUse"><stop offset="0" stop-color="#dfdfdb"/><stop offset="1" stop-color="#c2c1bb"/></linearGradient><linearGradient id="linear-gradient-22" x1="63.3" y1="197.3" x2="213.4" y2="128.48" xlink:href="#linear-gradient-8"/><linearGradient id="linear-gradient-23" x1="-95.62" y1="107.97" x2="62.24" y2="150.95" xlink:href="#linear-gradient-8"/></defs><title>Asset 3</title><g id="Layer_2" data-name="Layer 2"><g id="Layer_1-2" data-name="Layer 1"><path class="cls-1" d="M62.22,174.94c4.8,12.61,12.18,17.28,27.14,17.28,13,0,15.78-4.54,16.27-7v26H47.13a47.09,47.09,0,0,1-9.33-.93c-.44-19.59,1.11-97.66,1.11-97.66S56.91,161,62.22,174.94Z"/><path class="cls-2" d="M149,172.22c-4.8,12.61-12.18,17.29-27.14,17.29-13,0-15.78-4.55-16.27-7v28.68h58.5a47.09,47.09,0,0,0,9.33-.93c.44-19.59-1.11-89.62-1.11-89.62S154.31,158.27,149,172.22Z"/><polygon class="cls-3" points="133.99 211.16 77.24 211.16 69.11 190.54 142.11 190.54 133.99 211.16"/><path class="cls-4" d="M82.48,35.29H47.06C21.07,35.29,19.65,50,19.65,76l19.26,52.78s18,48.42,23.31,62.37c4.8,12.6,12.18,17.28,27.14,17.28,13,0,15.78-4.54,16.27-7a96.61,96.61,0,0,0,11.54-45.3V74.32C117.17,48.33,108.47,35.29,82.48,35.29Z"/><path class="cls-5" d="M164.1,47.17H105.6V201.36c.49,2.48,3.3,7,16.27,7,15,0,22.34-4.68,27.14-17.28,5.3-13.95,23.31-62.37,23.31-62.37l22.07-56C194.39,46.77,190.09,47.17,164.1,47.17Z"/><polygon class="cls-6" points="105.5 77.75 105.5 98.75 128.45 105.1 165.27 101.81 179.97 119.26 200.48 59.68 105.5 77.75"/><polygon class="cls-7" points="105.65 77.75 105.65 98.75 82.7 105.1 45.89 101.81 31.18 119.26 10.68 59.68 105.65 77.75"/><path class="cls-8" d="M165.18,168.91a269.09,269.09,0,0,0,3.26,42,47,47,0,0,0,42.72-46.85v-117A46.76,46.76,0,0,0,210,36.74C183.57,59.55,165.18,110.13,165.18,168.91Z"/><path class="cls-9" d="M131.32,177s-6.85-18.27-25.63-26.08h-.15C86.76,158.71,79.9,177,79.9,177L94,181.75l11.58-4.22,11.59,4.22Z"/><path class="cls-10" d="M46,168.91a267.88,267.88,0,0,1-3.26,42A47.06,47.06,0,0,1,0,164.1v-117A47.37,47.37,0,0,1,1.15,36.74C27.59,59.55,46,110.13,46,168.91Z"/><path class="cls-11" d="M105.54,200.46s21.19-3.17,25.78-23.48c-3.17-5.48-15.71-12.19-25.78-12.19Z"/><path class="cls-12" d="M105.69,200.46S84.5,197.29,79.9,177c3.18-5.48,15.72-12.19,25.79-12.19Z"/><path class="cls-13" d="M138.69,125.33,126.2,104.49S131,87.78,146.37,87.78c11.73,0,17.59,11.49,18.9,14a40.17,40.17,0,0,1-26.58,12.79Z"/><path d="M161,101.67s-4.89-9.87-13.43-9.87c-11.33,0-15.16,12.12-15.16,12.12s4.92,7.31,12.46,6C155.83,108,161,101.67,161,101.67Z"/><path class="cls-14" d="M72.47,125.33,85,104.49S80.14,87.78,64.79,87.78c-11.72,0-17.59,11.49-18.9,14A40.17,40.17,0,0,0,72.47,114.6Z"/><path d="M50.13,101.67S55,91.8,63.56,91.8c11.33,0,15.16,12.12,15.16,12.12s-4.91,7.31-12.46,6C55.33,108,50.13,101.67,50.13,101.67Z"/><path class="cls-15" d="M149.22,97.47a4.34,4.34,0,0,0-1.06-2.83h-.09a12.2,12.2,0,0,0-7.52,2.52c0,.11,0,.21,0,.32a4.35,4.35,0,0,0,8.7,0Z"/><path class="cls-16" d="M66.51,97.47a4.34,4.34,0,0,0-1.06-2.83h-.09c-2.76-.33-5.9.47-7.52,2.52,0,.11,0,.21,0,.32a4.35,4.35,0,0,0,8.7,0Z"/><path class="cls-17" d="M105.86,0H47.06A47.06,47.06,0,0,0,0,47.06V61.91C26.34,74.69,63,82.67,104.65,82.67l1.21,0Z"/><path class="cls-18" d="M105.3,0h58.8a47.06,47.06,0,0,1,47.06,47.06V61.91c-26.33,12.78-62.95,20.76-104.65,20.76l-1.21,0Z"/><path class="cls-19" d="M163.7.6H47.46A46.73,46.73,0,0,0,.73,47.34v3C.73,23.27,21.65,2.3,47.46,2.3H163.7c25.81,0,46.74,20.33,46.74,48.05v-3A46.74,46.74,0,0,0,163.7.6Z"/><path class="cls-20" d="M126.35,0H124.2a26,26,0,0,1,1.15,7.2c0,6.58-5.78,10-5.78,17.41s5.78,11.92,5.78,18.2c0,6-6.45,13.22-6.45,13.22s9.31-5.66,9.31-14c0-6.74-5.11-9.92-5.11-17.6,0-7.25,5.11-9.26,5.11-17A17.31,17.31,0,0,0,126.35,0ZM186.7,16.54a19.23,19.23,0,0,0,.88-10.25q-.74-.43-1.5-.84a29,29,0,0,1-1.94,9.79c-2.56,6.06-9.2,7-12.08,13.81s.71,13.23-1.73,19c-2.33,5.54-11.07,9.68-11.07,9.68s10.78-1.6,14-9.32c2.61-6.21-.87-11.13,2.1-18.2C178.21,23.54,183.7,23.67,186.7,16.54Zm21.7,14.62c-3.93,2.58-8.91,2.94-12.59,7.6-4.59,5.81-2.86,12.94-6.76,17.87C185.33,61.34,175.8,63,175.8,63s10.81,1.34,16-5.23c4.18-5.28,2.14-10.95,6.9-17,3.3-4.17,7-4.44,10.63-6.67C209.06,33.12,208.75,32.13,208.4,31.16ZM154.37,0a28.68,28.68,0,0,1,.12,9.86c-1.23,6.47-7.54,8.72-8.93,16s3.44,12.79,2.27,19C146.7,50.76,139,56.62,139,56.62s10.21-3.81,11.77-12c1.26-6.61-3.16-10.7-1.73-18.24,1.36-7.12,6.76-8.14,8.2-15.74A19.62,19.62,0,0,0,155.85,0Z"/><path class="cls-21" d="M82.92,7.41c0,7.73,5.12,9.74,5.12,17,0,7.68-5.12,10.86-5.12,17.6,0,8.37,9.32,14,9.32,14s-6.45-7.2-6.45-13.22c0-6.28,5.78-10.8,5.78-18.2S85.79,13.78,85.79,7.2A26,26,0,0,1,86.94,0H84.78A17.31,17.31,0,0,0,82.92,7.41ZM35.74,30.23c3,7.07-.5,12,2.11,18.2,3.25,7.72,14,9.32,14,9.32s-8.73-4.14-11.06-9.68c-2.44-5.79,1.13-12.2-1.74-19S29.55,21.3,27,15.24a29.25,29.25,0,0,1-1.95-9.79q-.75.4-1.5.84a19.24,19.24,0,0,0,.89,10.25C27.44,23.67,32.93,23.54,35.74,30.23ZM1.79,34.12c3.64,2.23,7.34,2.5,10.64,6.67,4.76,6,2.72,11.69,6.9,17,5.19,6.57,16,5.23,16,5.23s-9.53-1.65-13.26-6.36c-3.89-4.93-2.17-12.06-6.75-17.87-3.69-4.66-8.66-5-12.59-7.6C2.39,32.13,2.08,33.12,1.79,34.12ZM55.29,0a19.52,19.52,0,0,0-1.42,10.6c1.45,7.6,6.85,8.62,8.2,15.74,1.44,7.54-3,11.63-1.73,18.24,1.57,8.23,11.78,12,11.78,12s-7.68-5.86-8.81-11.77c-1.17-6.17,3.65-11.69,2.27-19s-7.7-9.56-8.93-16A29,29,0,0,1,56.76,0Z"/><path class="cls-22" d="M185.53,128.8c1.55-11.36,6.89-13.94,8.05-24.53a29.6,29.6,0,0,0-3.94-17.49A47.26,47.26,0,0,1,191,103.87c-1.1,8.85-7.33,13.36-9.12,24.95-2,13,3.19,22.63,1.5,36.31-1.84,14.73-13.12,33.14-13.12,33.14s14.53-13.66,16.81-34.51C188.65,149.27,183.69,142.37,185.53,128.8Zm12.76-3.64c.83-11.12,6.07-13.67,6.56-24,.46-9.47-5.11-17.1-5.11-17.1a45.94,45.94,0,0,1,2.46,16.71c-.54,8.66-6.55,13.1-7.61,24.44-1.18,12.71,4.69,22.1,3.84,35.46C197.52,175,187.33,193,187.33,193s13.77-13.38,14.75-33.73C202.75,145.14,197.3,138.43,198.29,125.16Z"/><path class="cls-23" d="M24.17,163.76C26.46,184.61,41,198.27,41,198.27S29.7,179.86,27.87,165.13c-1.7-13.68,3.49-23.3,1.49-36.31-1.78-11.59-8-16.1-9.11-24.95a47,47,0,0,1,1.34-17.09,29.65,29.65,0,0,0-3.95,17.49c1.17,10.59,6.51,13.17,8.05,24.53C27.54,142.37,22.58,149.27,24.17,163.76Zm-15-4.47C10.12,179.64,23.9,193,23.9,193s-10.19-18-11.1-32.37c-.85-13.36,5-22.75,3.83-35.46-1-11.34-7.06-15.78-7.61-24.44A45.94,45.94,0,0,1,11.48,84s-5.56,7.63-5.1,17.1c.49,10.35,5.72,12.9,6.55,24C13.92,138.43,8.47,145.14,9.15,159.29Z"/><path d="M121.6,184.54s-1.52-7.3-7.31-7.3-5.79,12,3.17,12a11.79,11.79,0,0,0,9.37-4.69Zm-24.42-7.3c-5.78,0-7.3,7.3-7.3,7.3H84.64A11.82,11.82,0,0,0,94,189.23C103,189.23,103,177.24,97.18,177.24Z"/></g></g></svg>