<svg xmlns="http://www.w3.org/2000/svg" xmlns:xlink="http://www.w3.org/1999/xlink" viewBox="0 0 211.17 211.16"><defs><style>.cls-1{fill-rule:evenodd;fill:url(#linear-gradient);}.cls-2{fill:url(#linear-gradient-2);}.cls-3{fill:url(#linear-gradient-3);}.cls-4{fill:url(#linear-gradient-4);}.cls-5{fill:url(#linear-gradient-5);}.cls-6{fill:url(#linear-gradient-6);}.cls-7{fill:url(#linear-gradient-7);}.cls-8{fill:url(#linear-gradient-8);}.cls-9{fill:url(#linear-gradient-9);}.cls-10{fill:url(#linear-gradient-10);}.cls-11{fill:url(#linear-gradient-11);}.cls-12{fill:url(#linear-gradient-12);}.cls-13{fill:url(#linear-gradient-13);}.cls-14{fill:url(#linear-gradient-14);}.cls-15{fill:url(#linear-gradient-15);}.cls-16{fill:url(#linear-gradient-16);}.cls-17{fill:url(#linear-gradient-17);}.cls-18{fill:url(#linear-gradient-18);}.cls-19{fill:url(#linear-gradient-19);}.cls-20{fill:url(#linear-gradient-20);}.cls-21{fill:url(#linear-gradient-21);}.cls-22{fill:url(#linear-gradient-22);}.cls-23{fill:url(#linear-gradient-23);}</style><linearGradient id="linear-gradient" x1="86.14" y1="9.45" x2="86.14" y2="282.87" gradientUnits="userSpaceOnUse"><stop offset="0" stop-color="#c28437"/><stop offset="1" stop-color="#803f0c"/></linearGradient><linearGradient id="linear-gradient-2" x1="232.32" y1="-0.96" x2="103.4" y2="154.23" xlink:href="#linear-gradient"/><linearGradient id="linear-gradient-3" x1="265.03" y1="155.15" x2="150.87" y2="134.4" gradientUnits="userSpaceOnUse"><stop offset="0" stop-color="#ae6f2a"/><stop offset="1" stop-color="#75380f"/></linearGradient><linearGradient id="linear-gradient-4" x1="772.95" y1="152.3" x2="658.8" y2="131.54" gradientTransform="matrix(-1, 0, 0, 1, 734.65, 0)" xlink:href="#linear-gradient-3"/><linearGradient id="linear-gradient-5" x1="105.58" y1="-31.49" x2="105.58" y2="46.83" gradientUnits="userSpaceOnUse"><stop offset="0" stop-color="#e6ba64"/><stop offset="1" stop-color="#ad6e29"/></linearGradient><linearGradient id="linear-gradient-6" x1="153.32" y1="105.65" x2="60.2" y2="183.25" xlink:href="#linear-gradient-5"/><linearGradient id="linear-gradient-7" x1="195.32" y1="109.65" x2="124.69" y2="151.68" xlink:href="#linear-gradient-5"/><linearGradient id="linear-gradient-8" x1="105.59" y1="216.87" x2="105.59" y2="186.6" gradientUnits="userSpaceOnUse"><stop offset="0" stop-color="#914812"/><stop offset="1" stop-color="#2d1500"/></linearGradient><linearGradient id="linear-gradient-9" x1="105.57" y1="130.35" x2="105.57" y2="151.93" gradientUnits="userSpaceOnUse"><stop offset="0" stop-color="#3f3934"/><stop offset="1" stop-color="#605a55"/></linearGradient><linearGradient id="linear-gradient-10" x1="142.17" y1="145.55" x2="96.22" y2="171.11" gradientUnits="userSpaceOnUse"><stop offset="0" stop-color="#423e3b"/><stop offset="0.16" stop-color="#353230"/><stop offset="0.71" stop-color="#0f0e0d"/><stop offset="1"/></linearGradient><linearGradient id="linear-gradient-11" x1="113.89" y1="145.04" x2="74.41" y2="179.35" xlink:href="#linear-gradient-10"/><linearGradient id="linear-gradient-12" x1="127.73" y1="72.04" x2="236.99" y2="154.45" gradientUnits="userSpaceOnUse"><stop offset="0" stop-color="#935218"/><stop offset="1" stop-color="#2d0f00"/></linearGradient><linearGradient id="linear-gradient-13" x1="275.96" y1="82.97" x2="171.63" y2="106.15" xlink:href="#linear-gradient-5"/><linearGradient id="linear-gradient-14" x1="118.05" y1="110.87" x2="259.13" y2="152.36" xlink:href="#linear-gradient-5"/><linearGradient id="linear-gradient-15" x1="655.28" y1="72.04" x2="764.54" y2="154.45" gradientTransform="matrix(-1, 0, 0, 1, 738.71, 0)" xlink:href="#linear-gradient-12"/><linearGradient id="linear-gradient-16" x1="803.5" y1="82.97" x2="699.17" y2="106.15" gradientTransform="matrix(-1, 0, 0, 1, 738.71, 0)" xlink:href="#linear-gradient-5"/><linearGradient id="linear-gradient-17" x1="645.6" y1="110.87" x2="786.67" y2="152.37" gradientTransform="matrix(-1, 0, 0, 1, 738.71, 0)" xlink:href="#linear-gradient-5"/><linearGradient id="linear-gradient-18" x1="213.99" y1="43.78" x2="97.12" y2="51.16" xlink:href="#linear-gradient-3"/><linearGradient id="linear-gradient-19" x1="1072.67" y1="46.47" x2="1072.67" y2="71.82" gradientTransform="matrix(-1, 0, 0, 1, 1233.67, 0)" gradientUnits="userSpaceOnUse"><stop offset="0" stop-color="#331808"/><stop offset="0.67" stop-color="#6e3f11"/><stop offset="1" stop-color="#854f14"/></linearGradient><linearGradient id="linear-gradient-20" x1="159.26" y1="57.07" x2="154.69" y2="50.25" gradientUnits="userSpaceOnUse"><stop offset="0" stop-color="#332112"/><stop offset="0.08" stop-color="#452f1a"/><stop offset="0.53" stop-color="#a47b48"/><stop offset="0.85" stop-color="#e0ab65"/><stop offset="1" stop-color="#f7bd70"/></linearGradient><linearGradient id="linear-gradient-21" x1="118.08" y1="59.87" x2="-13.31" y2="20.96" xlink:href="#linear-gradient-3"/><linearGradient id="linear-gradient-22" x1="-373.47" y1="46.47" x2="-373.47" y2="71.82" gradientTransform="translate(423.5)" xlink:href="#linear-gradient-19"/><linearGradient id="linear-gradient-23" x1="-57.08" y1="57.07" x2="-61.66" y2="50.25" gradientTransform="translate(105.42)" xlink:href="#linear-gradient-20"/></defs><title>Asset 7</title><g id="Layer_2" data-name="Layer 2"><g id="Layer_1-2" data-name="Layer 1"><path class="cls-1" d="M47.06,0h69.76a47.06,47.06,0,0,1,47.06,47.06v117a47.06,47.06,0,0,1-47.06,47.06H47.06A47.26,47.26,0,0,1,36.7,210c-21-4.72-28.3-23.49-28.3-45.92v-117C8.4,21.07,21.07,0,47.06,0Z"/><path class="cls-2" d="M164.1,0H105.6V211.16h58.5a47.2,47.2,0,0,0,11.6-1.44c20.38-5.16,23.7-23.63,23.7-45.62v-117C199.4,21.07,190.09,0,164.1,0Z"/><path class="cls-3" d="M155.32,153.59v57.57h8.78A46.77,46.77,0,0,0,174.28,210L197.44,66.91,170.58,95.6Z"/><path class="cls-4" d="M55.7,153.59v57.57H46.92A46.77,46.77,0,0,1,36.74,210L13.58,66.91,40.44,95.6Z"/><path class="cls-5" d="M163.7.6H47.47A46.73,46.73,0,0,0,.73,47.34v3C.73,23.27,21.65,2.3,47.47,2.3H163.7c25.81,0,46.74,20.33,46.74,48.05v-3A46.74,46.74,0,0,0,163.7.6Z"/><path class="cls-6" d="M48.83,155v56.13h56.9V81.27S48.83,116.58,48.83,155Z"/><path class="cls-7" d="M162.33,155v56.13H105.44V81.27S162.33,116.58,162.33,155Z"/><polygon class="cls-8" points="142.7 211.16 105.59 192.21 68.48 211.16 142.7 211.16"/><path class="cls-9" d="M138.05,149.87,139.17,138s-33.58-6-33.59-6S72,137.84,72,137.84l1.13,12,32.47,10Z"/><path class="cls-10" d="M105.43,145.59s26.68,3.29,32.61,4.28c-4.73,32-32.61,32.86-32.61,32.86Z"/><path class="cls-11" d="M105.73,145.59s-26.68,3.29-32.61,4.28c5.67,32.69,32.61,32.86,32.61,32.86Z"/><path d="M134,161.08h-9.26s.23-8.79-6.95-8.79c-7.4,0-8.79,16.11,1.16,16.11C126.56,168.4,134,161.08,134,161.08Z"/><path d="M77.42,161.08h9.26s-.23-8.79,6.94-8.79c7.41,0,8.8,16.11-1.15,16.11C84.83,168.4,77.42,161.08,77.42,161.08Z"/><path class="cls-12" d="M199.4,164.1v-117c0-24.27-8.12-44.25-30.36-46.78,17.27,9.38,24.32,31,24.38,46.78l.05,11.43c0,23.73-7.94,31.92-9.76,42-2.31,12.68-.14,20.28-2.12,27.79-3.47,13.18-10.79,12.82-11.21,26.48-.27,8.7,4.15,14.75,4.25,21.4.13,8.53-4.25,10.15-5.87,19.82-.88,5.21-1.57,11.59-.87,15.05a46.78,46.78,0,0,0,7.81-1.27C196.08,204.56,199.4,186.09,199.4,164.1Z"/><path class="cls-13" d="M174.21,1.11c18.56,10.49,24,33.37,24,49.94V62.32c0,21.26-6.24,29.41-8.15,37.65-2.88,12.41-.22,21.49-2.24,28.9-3.52,13-10.84,12.64-11.32,26.11-.3,8.57,4.1,14.54,4.17,21.09.1,8.42-4.28,10-5.95,19.54a40.48,40.48,0,0,0,.41,14.25,47.07,47.07,0,0,0,36.08-45.76v-117A47.07,47.07,0,0,0,174.21,1.11Z"/><path class="cls-14" d="M190.32,144.47c9.89-14.75,2.36-30.32,2.36-30.32,1.39,8.87,0,18.89-6.45,26.86-7,8.59-5.72,19.7-2.57,26.91s3.32,12.94-1.57,20.6c-4.26,6.68-4.29,12.93-3,19.7.69-5.87,1-10.63,7.41-18.19,7.5-8.87,4.67-19.12,3.2-23.46S183.06,155.3,190.32,144.47Zm15.18,1.63c1.39,8.86-1,20.56-6.78,28.83-5.47,7.85-6.49,18.07-4.31,25.11a46.91,46.91,0,0,0,4.75-4.6,21.45,21.45,0,0,1,3.08-17.5C212.12,163.19,205.5,146.1,205.5,146.1Zm-8.66,18.59c.44-7.79.56-14,6.37-23.5,6.57-10.79,3.28-22.69,1.7-27.55s-6.84-10.32-2-22.08c6.86-16.84.44-35,.44-35,1.61,8-.22,21.93-4.65,32.78-4.34,10.63-3.13,17.55,0,25.48,3.23,8.19,4.5,15.25.25,24.53C195.08,147.7,195.29,155.73,196.84,164.69Z"/><path class="cls-15" d="M11.76,164.1v-117c0-24.27,8.13-44.25,30.37-46.78-17.27,9.38-24.32,31-24.38,46.78L17.7,58.49c0,23.73,7.94,31.92,9.76,42,2.31,12.68.14,20.28,2.12,27.79,3.47,13.18,10.79,12.82,11.21,26.48.27,8.7-4.15,14.75-4.25,21.4-.14,8.53,4.24,10.15,5.87,19.82.88,5.21,1.57,11.59.87,15.05a46.61,46.61,0,0,1-7.81-1.27C15.09,204.56,11.76,186.09,11.76,164.1Z"/><path class="cls-16" d="M37,1.11C18.4,11.6,13,34.48,13,51.05V62.32c0,21.26,6.24,29.41,8.16,37.65,2.88,12.41.22,21.49,2.23,28.9,3.53,13,10.84,12.64,11.32,26.11.3,8.57-4.09,14.54-4.17,21.09-.1,8.42,4.29,10,6,19.54a40.48,40.48,0,0,1-.41,14.25A47.07,47.07,0,0,1,0,164.1v-117A47.06,47.06,0,0,1,37,1.11Z"/><path class="cls-17" d="M21.45,166.57C20,170.91,17.16,181.16,24.66,190c6.39,7.56,6.71,12.32,7.41,18.19,1.29-6.77,1.27-13-3-19.7-4.89-7.66-4.73-13.38-1.58-20.6S31.92,149.6,24.94,141c-6.48-8-7.84-18-6.45-26.86,0,0-7.53,15.57,2.36,30.32C28.1,155.3,22.91,162.24,21.45,166.57ZM8.93,177.94A21.45,21.45,0,0,1,12,195.44a46.91,46.91,0,0,0,4.75,4.6c2.18-7,1.16-17.26-4.32-25.11A42.45,42.45,0,0,1,5.67,146.1S-1,163.19,8.93,177.94Zm3.33-38.59c-4.25-9.28-3-16.34.25-24.53,3.13-7.93,4.34-14.85,0-25.48C8.08,78.49,6.25,64.58,7.86,56.56c0,0-6.43,18.16.44,35,4.8,11.76-.49,17.31-2,22.08S1.39,130.4,8,141.19c5.81,9.53,5.92,15.71,6.37,23.5C15.88,155.73,16.08,147.7,12.26,139.35Z"/><path class="cls-18" d="M114.46,14.2s32.87-8.6,56,18.05c-14.29,2-19.52,11-19.52,21.33-1.87,4-5.47,14.73-5.47,14.73L141.15,84.9,124.13,67Z"/><path d="M145.43,68.31s6.71,9.92,16.18,9.92,14-11,14-11l7,3.36s-6.08-25.34-22.74-25.34C145.53,45.23,145.43,68.31,145.43,68.31Z"/><path class="cls-19" d="M162,49.36c6.1.55,11.66,8.7,11.66,11.44,0,6-5.92,13.43-13.5,13.43a13.68,13.68,0,0,1-11.9-7.63C148.3,58.36,152.56,48.51,162,49.36Z"/><path d="M153,58.79a7.19,7.19,0,1,0,7.18-7.18A7.18,7.18,0,0,0,153,58.79Z"/><path class="cls-20" d="M160.29,50.33a11,11,0,0,0-7.71,5.05,4.61,4.61,0,1,0,7.71-5.05Z"/><path class="cls-21" d="M96.58,14.2s-32.87-8.6-56,18.05c14.3,2,19.52,11,19.52,21.33,1.87,4,5.48,14.73,5.48,14.73L69.89,84.9,86.91,67Z"/><path d="M65.61,68.31s-6.71,9.92-16.18,9.92-14-11-14-11l-7,3.36s6.07-25.34,22.74-25.34C65.51,45.23,65.61,68.31,65.61,68.31Z"/><path class="cls-22" d="M49,49.36c-6.11.55-11.66,8.7-11.66,11.44,0,6,5.91,13.43,13.49,13.43a13.68,13.68,0,0,0,11.9-7.63C62.73,58.36,58.47,48.51,49,49.36Z"/><path d="M58.07,58.79a7.18,7.18,0,1,1-7.18-7.18A7.18,7.18,0,0,1,58.07,58.79Z"/><path class="cls-23" d="M49.37,50.33a11,11,0,0,0-7.71,5.05,4.58,4.58,0,0,0,4,2.25,4.61,4.61,0,0,0,3.76-7.3Z"/></g></g></svg>