<svg xmlns="http://www.w3.org/2000/svg" xmlns:xlink="http://www.w3.org/1999/xlink" viewBox="0 0 211.18 211.16"><defs><style>.cls-1,.cls-21,.cls-22,.cls-23,.cls-24{fill-rule:evenodd;}.cls-1{fill:url(#linear-gradient);}.cls-2{fill:url(#linear-gradient-2);}.cls-3{fill:url(#linear-gradient-3);}.cls-4{fill:url(#linear-gradient-4);}.cls-5{fill:url(#linear-gradient-5);}.cls-6{fill:url(#linear-gradient-6);}.cls-7{fill:url(#linear-gradient-7);}.cls-8{fill:url(#linear-gradient-8);}.cls-9{fill:url(#linear-gradient-9);}.cls-10{fill:url(#linear-gradient-10);}.cls-11{fill:url(#linear-gradient-11);}.cls-12{fill:url(#linear-gradient-12);}.cls-13{fill:url(#linear-gradient-13);}.cls-14{fill:#0c2940;}.cls-15{fill:url(#linear-gradient-14);}.cls-16{fill:url(#linear-gradient-15);}.cls-17{fill:url(#linear-gradient-16);}.cls-18{fill:url(#linear-gradient-17);}.cls-19{fill:url(#linear-gradient-18);}.cls-20{fill:url(#linear-gradient-19);}.cls-21{fill:url(#linear-gradient-20);}.cls-22{fill:url(#linear-gradient-21);}.cls-23{fill:url(#linear-gradient-22);}.cls-24{fill:url(#linear-gradient-23);}</style><linearGradient id="linear-gradient" x1="229.82" y1="40.75" x2="-3.09" y2="126.51" gradientUnits="userSpaceOnUse"><stop offset="0" stop-color="#545255"/><stop offset="1" stop-color="#0b070e"/></linearGradient><linearGradient id="linear-gradient-2" x1="270.14" y1="39.61" x2="106.35" y2="117.95" gradientUnits="userSpaceOnUse"><stop offset="0" stop-color="#4b484a"/><stop offset="1" stop-color="#09050d"/></linearGradient><linearGradient id="linear-gradient-3" x1="130.96" y1="-60.62" x2="103.85" y2="53.37" gradientUnits="userSpaceOnUse"><stop offset="0" stop-color="#6f7070"/><stop offset="1" stop-color="#363337"/></linearGradient><linearGradient id="linear-gradient-4" x1="340.64" y1="117.27" x2="-16.16" y2="42.19" gradientUnits="userSpaceOnUse"><stop offset="0" stop-color="#6b6a6e"/><stop offset="1" stop-color="#2e2f33"/></linearGradient><linearGradient id="linear-gradient-5" x1="99.63" y1="66.04" x2="-18.25" y2="98.36" xlink:href="#linear-gradient-4"/><linearGradient id="linear-gradient-6" x1="236.93" y1="57.41" x2="108.83" y2="164.94" gradientUnits="userSpaceOnUse"><stop offset="0" stop-color="#f5f8fc"/><stop offset="1" stop-color="#c2c4c3"/></linearGradient><linearGradient id="linear-gradient-7" x1="102.97" y1="85.71" x2="-26.77" y2="219.11" xlink:href="#linear-gradient-6"/><linearGradient id="linear-gradient-8" x1="106.26" y1="216.59" x2="106.26" y2="189.97" gradientUnits="userSpaceOnUse"><stop offset="0" stop-color="#848487"/><stop offset="1" stop-color="#09050d"/></linearGradient><linearGradient id="linear-gradient-9" x1="159.92" y1="126.28" x2="101.57" y2="155.45" gradientUnits="userSpaceOnUse"><stop offset="0" stop-color="#fff"/><stop offset="1" stop-color="#c2c4c3"/></linearGradient><linearGradient id="linear-gradient-10" x1="110.47" y1="135.2" x2="40.14" y2="158.03" gradientUnits="userSpaceOnUse"><stop offset="0" stop-color="#fff"/><stop offset="1" stop-color="#c2c4c3"/></linearGradient><linearGradient id="linear-gradient-11" x1="53.49" y1="184.03" x2="151.64" y2="185.57" gradientUnits="userSpaceOnUse"><stop offset="0" stop-color="#2e3138"/><stop offset="0.13" stop-color="#373a41"/><stop offset="0.36" stop-color="#4f535a"/><stop offset="0.64" stop-color="#777c82"/><stop offset="0.96" stop-color="#aeb4b9"/><stop offset="1" stop-color="#b4babf"/></linearGradient><linearGradient id="linear-gradient-12" x1="32.7" y1="197.31" x2="119.48" y2="178.41" xlink:href="#linear-gradient-11"/><linearGradient id="linear-gradient-13" x1="157.69" y1="114.77" x2="157.69" y2="78.54" gradientUnits="userSpaceOnUse"><stop offset="0" stop-color="#514c45"/><stop offset="1" stop-color="#120b0b"/></linearGradient><linearGradient id="linear-gradient-14" x1="155.2" y1="99.44" x2="155.2" y2="78.91" gradientUnits="userSpaceOnUse"><stop offset="0" stop-color="#c7e6f0"/><stop offset="0.11" stop-color="#bcdeea"/><stop offset="0.3" stop-color="#9ec7db"/><stop offset="0.56" stop-color="#6fa2c2"/><stop offset="0.86" stop-color="#2d70a0"/><stop offset="1" stop-color="#0d578f"/></linearGradient><linearGradient id="linear-gradient-15" x1="3108.69" y1="114.77" x2="3108.69" y2="78.54" gradientTransform="matrix(-1, 0, 0, 1, 3163.87, 0)" xlink:href="#linear-gradient-13"/><linearGradient id="linear-gradient-16" x1="3106.2" y1="99.44" x2="3106.2" y2="78.91" gradientTransform="matrix(-1, 0, 0, 1, 3163.87, 0)" xlink:href="#linear-gradient-14"/><linearGradient id="linear-gradient-17" x1="106.38" y1="117.28" x2="106.38" y2="142" gradientUnits="userSpaceOnUse"><stop offset="0" stop-color="#303134"/><stop offset="1" stop-color="#656668"/></linearGradient><linearGradient id="linear-gradient-18" x1="103.57" y1="167.65" x2="125.02" y2="149.58" gradientUnits="userSpaceOnUse"><stop offset="0" stop-color="#15181d"/><stop offset="0.49" stop-color="#26282b"/><stop offset="1" stop-color="#3c3c3e"/></linearGradient><linearGradient id="linear-gradient-19" x1="85.42" y1="170.61" x2="111.57" y2="153.48" xlink:href="#linear-gradient-18"/><linearGradient id="linear-gradient-20" x1="53.56" y1="85.11" x2="58.13" y2="91.59" gradientUnits="userSpaceOnUse"><stop offset="0" stop-color="#dbf8fc"/><stop offset="1" stop-color="#4d88b0"/></linearGradient><linearGradient id="linear-gradient-21" x1="150.05" y1="85.33" x2="155.09" y2="90.73" xlink:href="#linear-gradient-20"/><linearGradient id="linear-gradient-22" x1="191.1" y1="158.23" x2="128.58" y2="187.65" xlink:href="#linear-gradient-9"/><linearGradient id="linear-gradient-23" x1="130.64" y1="134.93" x2="56.28" y2="186.41" gradientUnits="userSpaceOnUse"><stop offset="0" stop-color="#fff"/><stop offset="1" stop-color="#b9bcba"/></linearGradient></defs><title>Asset 2</title><g id="Layer_2" data-name="Layer 2"><g id="Layer_1-2" data-name="Layer 1"><path class="cls-1" d="M46.76,0h69.31a46.92,46.92,0,0,1,46.77,47.06v117c0,26-69.83,30.69-95.66,30.69H46.76C20.94,194.79,0,141.43,0,115.44V47.06A46.91,46.91,0,0,1,46.76,0Z"/><path class="cls-2" d="M164.42,0H106.29V206.08l39.14.31h19c25.82,0,46.76-65.27,46.76-91.26V47.06A46.91,46.91,0,0,0,164.42,0Z"/><path class="cls-3" d="M163.34.6H47.84A46.59,46.59,0,0,0,1.4,47.34v3C1.4,23.27,22.19,2.3,47.84,2.3h115.5c25.65,0,46.44,20.33,46.44,48.05v-3A46.59,46.59,0,0,0,163.34.6Z"/><path class="cls-4" d="M167.4,137.79l16.37-35.07S197.35,89.41,196.63,66c-1-31.38-28.59-49.64-57.54-43.52-31.83,6.72-32.82,39.64-32.82,39.64v51.37Z"/><path class="cls-5" d="M45.12,137.79,28.76,102.72S15.18,89.41,15.9,66c1-31.38,28.59-49.64,57.54-43.52,31.83,6.72,32.82,39.64,32.82,39.64v51.37Z"/><path class="cls-6" d="M128,190.61l18,20.55h18.39a46.91,46.91,0,0,0,46.76-47.06V114l-25-14s-10.83-57.68-50.48-57.68c-14.32,0-19.25,9.16-19.25,19.15,0,22.51,14.69,48.14,24.24,61.88,9,13,12.19,17.4,12.19,35.53C152.85,171.39,128,190.61,128,190.61Z"/><path class="cls-7" d="M83.15,190.61l-16,20.55H46.76A46.91,46.91,0,0,1,0,164.1V114l25-14S35.18,42.34,75.51,42.34c14.33,0,19.25,9.16,19.25,19.15,0,22.51-12.86,48.14-22.42,61.88-9,13-14,17.4-14,35.53C58.33,171.39,83.15,190.61,83.15,190.61Z"/><polygon class="cls-8" points="146.83 211.16 65.68 211.16 57.65 170.87 154.87 170.87 146.83 211.16"/><path class="cls-9" d="M106.12,80.28s33.68,33.21,45.14,45.34c11,11.65,12.9,24.67,12.9,38.48,0,3,0,15.44,0,16,0,14.65-2.79,22.91-18.58,22.91s-39.47-11.91-39.47-11.91Z"/><path class="cls-10" d="M106.4,80.28s-33.68,33.21-45.14,45.34c-11,11.65-12.9,24.67-12.9,38.48,0,3,0,15.44,0,16,0,14.65,2.79,22.91,18.58,22.91s39.47-11.91,39.47-11.91Z"/><path class="cls-11" d="M129.47,200.33a140.19,140.19,0,0,1-23.23-9V169.76l13.45.49S126.41,191.89,129.47,200.33Z"/><path class="cls-12" d="M83,200.33a141.38,141.38,0,0,0,23.34-9V169.76l-13.51.49S86.05,191.89,83,200.33Z"/><path class="cls-13" d="M137.51,95.62s3.29-17.2,16.56-17.2,23.79,13.49,23.79,13.49h-6.47s-4.78,12.6-15.12,12.6S137.51,95.62,137.51,95.62Z"/><path class="cls-14" d="M141.81,94S145,82.37,154.52,82.37c7.84,0,13.75,8.27,13.75,8.27s-4.82,10.11-12.56,10.11S141.81,94,141.81,94Z"/><path class="cls-15" d="M162.87,97.81a10.23,10.23,0,0,0,1.34-11.26c-2.38-2.06-5.65-4.09-9.43-4.19a10.94,10.94,0,0,0-7.94,3.1,10.1,10.1,0,0,0-1.75,5.42,10.21,10.21,0,0,0,3.43,8,16,16,0,0,0,6.93,1.93A11.07,11.07,0,0,0,162.87,97.81Z"/><path d="M158.24,90.64a3.1,3.1,0,1,1-3.1-3.12A3.11,3.11,0,0,1,158.24,90.64Z"/><path class="cls-16" d="M75.35,95.62s-3.29-17.2-16.55-17.2S35,91.91,35,91.91h6.48s4.78,12.6,15.12,12.6S75.35,95.62,75.35,95.62Z"/><path class="cls-14" d="M71.05,94s-3.17-11.59-12.7-11.59c-7.84,0-13.75,8.27-13.75,8.27s4.81,10.11,12.55,10.11S71.05,94,71.05,94Z"/><path class="cls-17" d="M50,97.81a10.16,10.16,0,0,1-2.45-6.34,10.28,10.28,0,0,1,1.1-4.92c2.39-2.06,5.65-4.09,9.43-4.19a11,11,0,0,1,8,3.1,10.22,10.22,0,0,1-1.68,13.37,16.07,16.07,0,0,1-6.93,1.93A11,11,0,0,1,50,97.81Z"/><path d="M54.63,90.64a3.1,3.1,0,1,0,3.09-3.12A3.1,3.1,0,0,0,54.63,90.64Z"/><path class="cls-18" d="M133.4,153.56c0,11.63-12.24,3.23-27.11,3.23s-26.93,8.4-26.93-3.23c0-10.29,12.31-19.36,27.19-19.36S133.4,143.57,133.4,153.56Z"/><path class="cls-19" d="M106.33,179.38c2.65-.54,27.07-3.72,27.07-25.82-6.85-7.66-13.37-10.39-27.07-10.39Z"/><path class="cls-20" d="M106.42,179.38c-2.65-.54-27.06-3.72-27.06-25.82,6.84-7.66,13.36-10.39,27.06-10.39Z"/><path d="M130,163.64s-18.3,8.21-18.3-3.31S120.15,147.32,130,163.64Z"/><path d="M82.89,163.64s18.3,8.21,18.3-3.31S92.69,147.32,82.89,163.64Z"/><path class="cls-21" d="M56.56,83.26a15.43,15.43,0,0,0-5.69,2.41,3.84,3.84,0,1,0,5.69-2.41Z"/><path class="cls-22" d="M153.23,83.29a11,11,0,0,0-5.82,2.92,2.21,2.21,0,0,0,0,.37,3.85,3.85,0,1,0,5.86-3.29Z"/><path class="cls-23" d="M148,170.7c0-2.19-1.1-4-2.47-4s-2.47,1.78-2.47,4,1.11,4,2.47,4S148,172.89,148,170.7ZM147,184c-1.37,0-2.47,1.77-2.47,4s1.1,4,2.47,4,2.47-1.77,2.47-4S148.38,184,147,184Zm7.53-9.73c-1.17,0-2.12,1.78-2.12,4s.95,4,2.12,4,2.11-1.78,2.11-4S155.72,174.28,154.55,174.28Z"/><path class="cls-24" d="M67.26,174.67c1.37,0,2.47-1.78,2.47-4s-1.1-4-2.47-4-2.47,1.78-2.47,4S65.9,174.67,67.26,174.67Zm-4,13.31c0,2.19,1.11,4,2.47,4s2.48-1.77,2.48-4-1.11-4-2.48-4S63.26,185.78,63.26,188Zm-7.17-9.73c0,2.19.95,4,2.12,4s2.11-1.78,2.11-4-.94-4-2.11-4S56.09,176.06,56.09,178.25Z"/></g></g></svg>