<svg xmlns="http://www.w3.org/2000/svg" xmlns:xlink="http://www.w3.org/1999/xlink" viewBox="0 0 211.16 211.21"><defs><style>.cls-1{fill-rule:evenodd;fill:url(#linear-gradient);}.cls-2{fill:url(#linear-gradient-2);}.cls-3{fill:url(#linear-gradient-3);}.cls-4{fill:url(#linear-gradient-4);}.cls-5{fill:url(#linear-gradient-5);}.cls-6{fill:url(#linear-gradient-6);}.cls-7{fill:url(#linear-gradient-7);}.cls-8{fill:url(#linear-gradient-8);}.cls-9{fill:url(#linear-gradient-9);}.cls-10{fill:url(#linear-gradient-10);}.cls-11{fill:url(#linear-gradient-11);}.cls-12{fill:url(#linear-gradient-12);}.cls-13{fill:url(#linear-gradient-13);}.cls-14{fill:url(#linear-gradient-14);}.cls-15{fill:url(#linear-gradient-15);}.cls-16{fill:url(#linear-gradient-16);}.cls-17{fill:url(#linear-gradient-17);}.cls-18{fill:url(#linear-gradient-18);}.cls-19{fill:url(#linear-gradient-19);}.cls-20{fill:url(#linear-gradient-20);}.cls-21{fill:url(#linear-gradient-21);}.cls-22{fill:url(#linear-gradient-22);}.cls-23{fill:url(#linear-gradient-23);}.cls-24{fill:url(#linear-gradient-24);}</style><linearGradient id="linear-gradient" x1="57.6" y1="113.96" x2="-60.56" y2="154.65" gradientUnits="userSpaceOnUse"><stop offset="0" stop-color="#848a90"/><stop offset="1" stop-color="#4a4a4e"/></linearGradient><linearGradient id="linear-gradient-2" x1="223.63" y1="57.75" x2="124.74" y2="115.12" xlink:href="#linear-gradient"/><linearGradient id="linear-gradient-3" x1="105.58" y1="43.82" x2="105.58" y2="-24.29" gradientUnits="userSpaceOnUse"><stop offset="0" stop-color="#787d83"/><stop offset="1" stop-color="#bcbfc2"/></linearGradient><linearGradient id="linear-gradient-4" x1="36.16" y1="62.84" x2="129.44" y2="93.81" gradientUnits="userSpaceOnUse"><stop offset="0" stop-color="#6b6a6e"/><stop offset="1" stop-color="#2e2f33"/></linearGradient><linearGradient id="linear-gradient-5" x1="64.64" y1="143.37" x2="25.6" y2="53.76" gradientUnits="userSpaceOnUse"><stop offset="0" stop-color="#665c59"/><stop offset="1" stop-color="#0b090a"/></linearGradient><linearGradient id="linear-gradient-6" x1="-856.21" y1="55.72" x2="-762.94" y2="86.7" gradientTransform="matrix(-1, 0, 0, 1, -659.63, 0)" xlink:href="#linear-gradient-4"/><linearGradient id="linear-gradient-7" x1="-805.81" y1="144.53" x2="-844.85" y2="54.91" gradientTransform="matrix(-1, 0, 0, 1, -659.63, 0)" xlink:href="#linear-gradient-5"/><linearGradient id="linear-gradient-8" x1="157.16" y1="102.38" x2="157.16" y2="82.38" gradientUnits="userSpaceOnUse"><stop offset="0" stop-color="#783400"/><stop offset="1" stop-color="#1f150c"/></linearGradient><linearGradient id="linear-gradient-9" x1="150.94" y1="83.29" x2="156.36" y2="91.42" gradientUnits="userSpaceOnUse"><stop offset="0" stop-color="#e8cf91"/><stop offset="0.02" stop-color="#e4cb8e"/><stop offset="0.38" stop-color="#8e7952"/><stop offset="0.67" stop-color="#503d26"/><stop offset="0.89" stop-color="#29180a"/><stop offset="1" stop-color="#1a0a00"/></linearGradient><linearGradient id="linear-gradient-10" x1="-891.68" y1="102.38" x2="-891.68" y2="82.38" gradientTransform="matrix(-1, 0, 0, 1, -837.68, 0)" xlink:href="#linear-gradient-8"/><linearGradient id="linear-gradient-11" x1="48.2" y1="82.58" x2="53.66" y2="91.9" xlink:href="#linear-gradient-9"/><linearGradient id="linear-gradient-12" x1="105.58" y1="-2.03" x2="105.58" y2="77.92" gradientUnits="userSpaceOnUse"><stop offset="0" stop-color="#5c564f"/><stop offset="1" stop-color="#1a140f"/></linearGradient><linearGradient id="linear-gradient-13" x1="105.58" y1="18.13" x2="105.58" y2="96.27" xlink:href="#linear-gradient"/><linearGradient id="linear-gradient-14" x1="105.58" y1="17.92" x2="105.58" y2="103.66" gradientUnits="userSpaceOnUse"><stop offset="0" stop-color="#dbd9d6"/><stop offset="1" stop-color="#636054"/></linearGradient><linearGradient id="linear-gradient-15" x1="104.2" y1="145.08" x2="6.88" y2="214.11" gradientUnits="userSpaceOnUse"><stop offset="0" stop-color="#f3f2ef"/><stop offset="1" stop-color="#c2c1bb"/></linearGradient><linearGradient id="linear-gradient-16" x1="97.6" y1="123.35" x2="20.08" y2="218.58" gradientUnits="userSpaceOnUse"><stop offset="0" stop-color="#f3f2ef"/><stop offset="1" stop-color="#a8a79e"/></linearGradient><linearGradient id="linear-gradient-17" x1="89.33" y1="141.66" x2="115.98" y2="138.91" gradientUnits="userSpaceOnUse"><stop offset="0" stop-color="#8f8885"/><stop offset="1" stop-color="#2d2827"/></linearGradient><linearGradient id="linear-gradient-18" x1="229.47" y1="122.62" x2="115.94" y2="162.9" xlink:href="#linear-gradient-15"/><linearGradient id="linear-gradient-19" x1="119.75" y1="139.84" x2="61.36" y2="159.91" xlink:href="#linear-gradient-17"/><linearGradient id="linear-gradient-20" x1="-804.13" y1="100.01" x2="-961.79" y2="218.26" gradientTransform="matrix(-1, 0, 0, 1, -754.09, 0)" xlink:href="#linear-gradient-16"/><linearGradient id="linear-gradient-21" x1="125.83" y1="103.44" x2="103.61" y2="135.17" gradientUnits="userSpaceOnUse"><stop offset="0" stop-color="#423e3b"/><stop offset="0.16" stop-color="#353230"/><stop offset="0.71" stop-color="#0f0e0d"/><stop offset="1"/></linearGradient><linearGradient id="linear-gradient-22" x1="115.4" y1="110.5" x2="82.3" y2="133.76" xlink:href="#linear-gradient-21"/><linearGradient id="linear-gradient-23" x1="105.41" y1="169.81" x2="105.41" y2="152.53" gradientUnits="userSpaceOnUse"><stop offset="0" stop-color="#7f7774"/><stop offset="1" stop-color="#2d2827"/></linearGradient><linearGradient id="linear-gradient-24" x1="105.37" y1="223.16" x2="105.37" y2="154.84" gradientUnits="userSpaceOnUse"><stop offset="0" stop-color="#8c8482"/><stop offset="1" stop-color="#282425"/></linearGradient></defs><title>Asset 7</title><g id="Layer_2" data-name="Layer 2"><g id="Layer_1-2" data-name="Layer 1"><path class="cls-1" d="M47.07,0h69.75a47.06,47.06,0,0,1,47.06,47.06v117a47.06,47.06,0,0,1-47.06,47.06H47.07A47.06,47.06,0,0,1,0,164.1v-117A47.06,47.06,0,0,1,47.07,0Z"/><path class="cls-2" d="M164.1,0H105.6V211.16h58.5a47.06,47.06,0,0,0,47.06-47.06v-117A47.06,47.06,0,0,0,164.1,0Z"/><path class="cls-3" d="M163.7.6H47.47A46.73,46.73,0,0,0,.73,47.34v3C.73,23.27,21.65,2.3,47.47,2.3H163.7c25.81,0,46.74,20.33,46.74,48.05v-3A46.74,46.74,0,0,0,163.7.6Z"/><path class="cls-4" d="M64.5,54.18c-20.26,2.41-45.15,11.07-53,52.6C26.83,57,61.12,63.34,61.12,63.34S84.76,51.76,64.5,54.18Zm11.4-27.5C52.84,29.09,31.32,43.93,21.59,62.26,41.42,38.32,72.06,35.84,72.06,35.84S99,24.27,75.9,26.68Z"/><path class="cls-5" d="M41.44,80.71c-8.47,6-21,27.93-21,78.43,0,0,6.65,29,26.6,29H65.82l29.34-93.8-32-16.07S51.68,73.4,41.44,80.71Z"/><path class="cls-6" d="M150.2,63.34s34.29-6.32,49.63,43.44c-7.86-41.53-32.75-50.19-53-52.6S150.2,63.34,150.2,63.34Zm-10.94-27.5s30.64,2.48,50.47,26.42C180,43.93,158.48,29.09,135.42,26.68S139.26,35.84,139.26,35.84Z"/><path class="cls-7" d="M169.88,80.71c8.47,6,21,27.93,21,78.43,0,0-6.65,29-26.6,29H145.5l-29.34-93.8,32-16.07S159.64,73.4,169.88,80.71Z"/><path d="M141.14,96.5s1-16.31,15.08-17.19c12.69-.8,17,11.3,17,11.3s-2.83,17.91-14.61,17.91S141.14,96.5,141.14,96.5Z"/><path class="cls-8" d="M143.45,96.06s.83-13.54,12.9-14.27c10.87-.66,14.52,9.38,14.52,9.38S168.45,106,158.37,106,143.45,96.06,143.45,96.06Z"/><path d="M165.22,91.69A8.25,8.25,0,1,1,157,83.45,8.24,8.24,0,0,1,165.22,91.69Z"/><path class="cls-9" d="M148.09,87.78a5.17,5.17,0,1,0,9.07-4.44h0A12.21,12.21,0,0,0,148.09,87.78Z"/><path d="M70,96.5S69.05,80.19,55,79.31c-12.7-.8-17,11.3-17,11.3s2.83,17.91,14.61,17.91S70,96.5,70,96.5Z"/><path class="cls-10" d="M67.72,96.06s-.84-13.54-12.91-14.27c-10.87-.66-14.52,9.38-14.52,9.38S42.71,106,52.79,106,67.72,96.06,67.72,96.06Z"/><path d="M46,91.69a8.24,8.24,0,1,0,8.24-8.24A8.24,8.24,0,0,0,46,91.69Z"/><path class="cls-11" d="M54.47,83.08A13.62,13.62,0,0,0,45,87a5.17,5.17,0,0,0,10.15-1.37A5.11,5.11,0,0,0,54.47,83.08Z"/><path class="cls-12" d="M162.52,50.58C162.52,22.64,137,0,105.58,0S48.64,22.64,48.64,50.58s25.49,50.57,56.94,50.57S162.52,78.51,162.52,50.58Z"/><path class="cls-13" d="M137.6,50.58c0-27.94-14.33-50.58-32-50.58s-32,22.64-32,50.58,14.34,50.57,32,50.57S137.6,78.51,137.6,50.58Z"/><path class="cls-14" d="M118.37,50.58C118.37,22.64,112.65,0,105.58,0S92.79,22.64,92.79,50.58s5.73,50.57,12.79,50.57S118.37,78.51,118.37,50.58Z"/><path class="cls-15" d="M2.76,180a47.08,47.08,0,0,0,44.31,31.16h58.74V98.41H89.93C76.21,98.41,20.14,123.35,2.76,180Z"/><path class="cls-16" d="M24.45,205.33a46.17,46.17,0,0,0,7.33,3.32c1.82-22.22,13.54-44.11,24-53.78C37.94,166.15,26.81,194.45,24.45,205.33ZM40,210.68a46.52,46.52,0,0,0,5.32.53c1.26-12.68,7.08-27.24,12.95-35C49,184.66,42.37,200.48,40,210.68Z"/><polygon class="cls-17" points="105.5 155 89.2 160.29 92.87 122.67 105.5 123.71 105.5 155"/><path class="cls-18" d="M208.42,180a47.08,47.08,0,0,1-44.3,31.16H105.37V98.41h15.88C135,98.41,191,123.35,208.42,180Z"/><polygon class="cls-19" points="105.32 155 121.61 160.29 117.95 122.67 105.32 123.71 105.32 155"/><path class="cls-20" d="M155.39,154.87c10.47,9.67,22.2,31.56,24,53.78a46.17,46.17,0,0,0,7.33-3.32C184.37,194.45,173.24,166.15,155.39,154.87ZM153,176.24c5.87,7.73,11.69,22.29,13,35a46.52,46.52,0,0,0,5.32-.53C168.81,200.48,162.19,184.66,153,176.24Z"/><path class="cls-21" d="M105.47,136.1s10.57-.62,12.94-9.28h10s2.73-21.4-23-21.4Z"/><path class="cls-22" d="M105.67,136.1s-10.56-.62-12.93-9.28h-10s-2.74-21.4,23-21.4Z"/><path d="M118.41,126.82V115.53s-7.66,1.61-7.66,5.75C110.75,124.6,113.72,126.82,118.41,126.82Z"/><path d="M92.84,126.82V115.53s7.65,1.61,7.65,5.75C100.49,124.6,97.53,126.82,92.84,126.82Z"/><path class="cls-23" d="M125.43,163.73c0,3.83-9,6.94-20,6.94s-20-3.11-20-6.94,9-6.94,20-6.94S125.43,159.9,125.43,163.73Z"/><path class="cls-24" d="M105.37,158.86c25.41,0,38,29,47.2,52.3h3c-9.58-23.09-21.94-57.53-50.17-57.53-28,0-42.62,39.21-50.16,57.53h3C66.36,190.61,80.62,158.86,105.37,158.86Z"/></g></g></svg>