<svg xmlns="http://www.w3.org/2000/svg" xmlns:xlink="http://www.w3.org/1999/xlink" viewBox="0 0 211.16 211.16"><defs><style>.cls-1{fill-rule:evenodd;fill:url(#linear-gradient);}.cls-2{fill:url(#linear-gradient-2);}.cls-3{fill:url(#linear-gradient-3);}.cls-4{fill:url(#linear-gradient-4);}.cls-5{fill:url(#linear-gradient-5);}.cls-6{fill:url(#linear-gradient-6);}.cls-7{fill:url(#linear-gradient-7);}.cls-8{fill:url(#linear-gradient-8);}.cls-9{fill:url(#linear-gradient-9);}.cls-10{fill:url(#linear-gradient-10);}.cls-11{fill:url(#linear-gradient-11);}.cls-12{fill:url(#linear-gradient-12);}.cls-13{fill:url(#linear-gradient-13);}.cls-14{fill:url(#linear-gradient-14);}.cls-15{fill:url(#linear-gradient-15);}.cls-16{fill:url(#linear-gradient-16);}.cls-17{fill:url(#linear-gradient-17);}.cls-18{fill:url(#linear-gradient-18);}.cls-19{fill:url(#linear-gradient-19);}.cls-20{fill:url(#linear-gradient-20);}.cls-21{fill:url(#linear-gradient-21);}.cls-22{fill:url(#linear-gradient-22);}.cls-23{fill:url(#linear-gradient-23);}.cls-24{fill:url(#linear-gradient-24);}.cls-25{fill:url(#linear-gradient-25);}</style><linearGradient id="linear-gradient" x1="121.06" y1="53.72" x2="0.2" y2="213.95" gradientUnits="userSpaceOnUse"><stop offset="0" stop-color="#f3d6a8"/><stop offset="1" stop-color="#c49e70"/></linearGradient><linearGradient id="linear-gradient-2" x1="209.24" y1="38.32" x2="80.57" y2="172.84" xlink:href="#linear-gradient"/><linearGradient id="linear-gradient-3" x1="131.41" y1="73.52" x2="131.41" y2="-12.55" gradientUnits="userSpaceOnUse"><stop offset="0" stop-color="#916e4f"/><stop offset="1" stop-color="#e9cb9d"/></linearGradient><linearGradient id="linear-gradient-4" x1="67.05" y1="103.17" x2="115.27" y2="-13.42" xlink:href="#linear-gradient-3"/><linearGradient id="linear-gradient-5" x1="1647.86" y1="31.06" x2="1817.56" y2="219.07" gradientTransform="matrix(-1, 0, 0, 1, 1795.78, 0)" gradientUnits="userSpaceOnUse"><stop offset="0" stop-color="#453326"/><stop offset="1" stop-color="#997b59"/></linearGradient><linearGradient id="linear-gradient-6" x1="1745.7" y1="95.83" x2="1719.14" y2="7.01" gradientTransform="matrix(-1, 0, 0, 1, 1795.78, 0)" gradientUnits="userSpaceOnUse"><stop offset="0" stop-color="#2e2423"/><stop offset="1" stop-color="#0a0b05"/></linearGradient><linearGradient id="linear-gradient-7" x1="63.21" y1="31.06" x2="232.91" y2="219.07" gradientTransform="matrix(1, 0, 0, 1, 0, 0)" xlink:href="#linear-gradient-5"/><linearGradient id="linear-gradient-8" x1="105.58" y1="86.09" x2="105.58" y2="-1.33" gradientUnits="userSpaceOnUse"><stop offset="0" stop-color="#a48260"/><stop offset="1" stop-color="#ad8f6b"/></linearGradient><linearGradient id="linear-gradient-9" x1="109.04" y1="141.52" x2="8.99" y2="166.54" gradientUnits="userSpaceOnUse"><stop offset="0" stop-color="#4b4035"/><stop offset="1" stop-color="#0d0b05"/></linearGradient><linearGradient id="linear-gradient-10" x1="155.21" y1="137.43" x2="58.77" y2="160.63" xlink:href="#linear-gradient-9"/><linearGradient id="linear-gradient-11" x1="161.05" y1="95.83" x2="134.5" y2="7.01" gradientTransform="matrix(1, 0, 0, 1, 0, 0)" xlink:href="#linear-gradient-6"/><linearGradient id="linear-gradient-12" x1="52.35" y1="59.49" x2="52.35" y2="77.15" gradientUnits="userSpaceOnUse"><stop offset="0" stop-color="#1a1108"/><stop offset="1" stop-color="#613300"/></linearGradient><linearGradient id="linear-gradient-13" x1="158.82" y1="59.49" x2="158.82" y2="77.15" xlink:href="#linear-gradient-12"/><linearGradient id="linear-gradient-14" x1="150" y1="134.63" x2="95.86" y2="112.02" gradientUnits="userSpaceOnUse"><stop offset="0" stop-color="#423e3b"/><stop offset="0.16" stop-color="#353230"/><stop offset="0.71" stop-color="#0f0e0d"/><stop offset="1"/></linearGradient><linearGradient id="linear-gradient-15" x1="90.37" y1="159.56" x2="90.37" y2="82.81" xlink:href="#linear-gradient-14"/><linearGradient id="linear-gradient-16" x1="105.58" y1="91.95" x2="105.58" y2="107.81" gradientUnits="userSpaceOnUse"><stop offset="0" stop-color="#3f3934"/><stop offset="1" stop-color="#605a55"/></linearGradient><linearGradient id="linear-gradient-17" x1="132.52" y1="219.12" x2="100.74" y2="186.14" gradientUnits="userSpaceOnUse"><stop offset="0" stop-color="#d85259"/><stop offset="0.36" stop-color="#833236"/><stop offset="0.67" stop-color="#451a1b"/><stop offset="0.89" stop-color="#1e0b0b"/><stop offset="1" stop-color="#0f0505"/></linearGradient><linearGradient id="linear-gradient-18" x1="105.48" y1="224.8" x2="85.1" y2="184.81" xlink:href="#linear-gradient-17"/><linearGradient id="linear-gradient-19" x1="168.09" y1="162.87" x2="91.98" y2="173.95" xlink:href="#linear-gradient-9"/><linearGradient id="linear-gradient-20" x1="115.75" y1="154.03" x2="23.22" y2="178.47" xlink:href="#linear-gradient-9"/><linearGradient id="linear-gradient-21" x1="147.62" y1="90.75" x2="211.85" y2="27.93" gradientUnits="userSpaceOnUse"><stop offset="0" stop-color="#453326"/><stop offset="1" stop-color="#eccea0"/></linearGradient><linearGradient id="linear-gradient-22" x1="1720.58" y1="90.75" x2="1787.31" y2="25.49" gradientTransform="matrix(-1, 0, 0, 1, 1784.13, 0)" xlink:href="#linear-gradient-21"/><linearGradient id="linear-gradient-23" x1="153.99" y1="58.85" x2="155.82" y2="69.03" gradientUnits="userSpaceOnUse"><stop offset="0" stop-color="#edbb5c"/><stop offset="1" stop-color="#241200"/></linearGradient><linearGradient id="linear-gradient-24" x1="46.35" y1="65.68" x2="52.46" y2="71.28" xlink:href="#linear-gradient-23"/><linearGradient id="linear-gradient-25" x1="105.58" y1="1.02" x2="105.58" y2="54.3" gradientUnits="userSpaceOnUse"><stop offset="0" stop-color="#ffe3b8"/><stop offset="1" stop-color="#ddc091"/></linearGradient></defs><title>Asset 9</title><g id="Layer_2" data-name="Layer 2"><g id="Layer_1-2" data-name="Layer 1"><path class="cls-1" d="M47.06,0h69.76a47.06,47.06,0,0,1,47.06,47.06v117a47.06,47.06,0,0,1-47.06,47.06H47.06A47.06,47.06,0,0,1,0,164.1v-117A47.06,47.06,0,0,1,47.06,0Z"/><path class="cls-2" d="M164.1,0H105.6V211.16h58.5a47.06,47.06,0,0,0,47.06-47.06v-117A47.06,47.06,0,0,0,164.1,0Z"/><polygon class="cls-3" points="157.4 114.72 105.41 114.72 105.41 0 144.58 0 157.4 114.72"/><polygon class="cls-4" points="53.59 114.72 105.58 114.72 105.58 0 66.41 0 53.59 114.72"/><path class="cls-5" d="M76.91,97.24,62.25,211.16H47a46.85,46.85,0,0,1-24.29-6.75V84.55L58,63.68Z"/><path class="cls-6" d="M22.74,84.55l26.58,28.64S55.39,91.75,91,70C85,52.41,80,37.12,80,37.12l8.62-14.71s-24.86,9-43.22,22.31c-19.38,14-22.69,28.56-22.69,35.09Z"/><path class="cls-7" d="M134.22,97.24l14.66,113.92H164.1a46.85,46.85,0,0,0,24.29-6.75V84.55L153.15,63.68Z"/><polygon class="cls-8" points="91.76 0 66.94 15.82 98.41 6.13 105.58 56.77 112.76 6.13 144.22 15.82 119.41 0 91.76 0"/><path class="cls-9" d="M105.78,211.16V73.52S59.59,85.36,53.06,130.91a622.09,622.09,0,0,0-6.12,80.25Z"/><path class="cls-10" d="M164.22,211.16a604.84,604.84,0,0,0-6.12-80.25c-6.53-45.55-52.72-57.39-52.72-57.39V211.16Z"/><polygon points="135.47 211.16 105.41 155.01 75.35 211.16 135.47 211.16"/><path class="cls-11" d="M188.39,84.55l-26.58,28.64S155.74,91.75,120.11,70c6-17.63,11-32.92,11-32.92l-8.62-14.71s24.86,9,43.23,22.31c19.37,14,22.68,28.56,22.68,35.09Z"/><path d="M63.43,57.2,67,76.28,46.49,81.92l-5.65-6.41-9.46,3.67S39.93,62.56,63.43,57.2Z"/><path class="cls-12" d="M61.25,60.3l2.69,14.17-16.45,5-6.74-8A46.47,46.47,0,0,1,61.25,60.3Z"/><path d="M53.18,72.3A5.25,5.25,0,0,0,55.3,62.24a48.14,48.14,0,0,0-7.23,3.62A5.08,5.08,0,0,0,47.92,67,5.26,5.26,0,0,0,53.18,72.3Z"/><path d="M147.74,57.2l-3.52,19.08,20.45,5.64,5.65-6.41,9.46,3.67S171.23,62.56,147.74,57.2Z"/><path class="cls-13" d="M149.91,60.3l-2.69,14.17,16.45,5,6.74-8A46.39,46.39,0,0,0,149.91,60.3Z"/><path d="M158,72.3a5.25,5.25,0,0,1-2.12-10.06,48.62,48.62,0,0,1,7.23,3.62,5.08,5.08,0,0,1,.14,1.18A5.26,5.26,0,0,1,158,72.3Z"/><path class="cls-14" d="M105.41,142.73l30.77-14.9V112a17.6,17.6,0,0,0-3.82-10.84c-4.18-5.34-12.33,3.15-27,3.15Z"/><path class="cls-15" d="M105.75,142.73,75,127.83V112a17.69,17.69,0,0,1,3.9-11c4.21-5.28,12.35.4,26.86.4Z"/><path class="cls-16" d="M133.19,102.38c-3.85-5.8-12-10.86-27.44-10.93h-.34C90,91.52,81.83,96.58,78,102.38L105.58,107Z"/><path d="M136,127.79a38,38,0,0,1-12.94,2.27c-6.41,0-11.1-3.11-11.1-10.65,0-9.27,9.56-10.57,9.56-10.57v17.42Z"/><path d="M75,127.79a38,38,0,0,0,12.93,2.27C94.34,130.06,99,127,99,119.41c0-9.27-9.56-10.57-9.56-10.57v17.42Z"/><path class="cls-17" d="M105.33,211.16H131.8l-15.71-29.35a15.41,15.41,0,0,0-10.76,4.75Z"/><path class="cls-18" d="M105.5,211.16H79l15.71-29.35a15.43,15.43,0,0,1,10.76,4.75Z"/><path class="cls-19" d="M158.29,158c-16,3.12-25.91-22-25.91-22C136.08,161.07,155.86,162.37,158.29,158Zm.94,17.51c-18.39,3.79-29.39-26.32-29.39-26.32C133.75,179.25,156.46,180.83,159.23,175.52Zm-32.79-14.11c4.12,37.13,31.18,39.13,34.45,32.45C139,198.62,126.44,161.41,126.44,161.41Z"/><path class="cls-20" d="M78.44,136s-9.87,25.13-25.9,22C55,162.37,74.75,161.07,78.44,136ZM81,149.2s-11,30.11-29.39,26.32C54.36,180.83,77.08,179.25,81,149.2ZM49.93,193.86c3.27,6.68,30.34,4.68,34.45-32.45C84.38,161.41,71.82,198.62,49.93,193.86Z"/><path class="cls-21" d="M164.88,0l34.4,38.29V71.49c0,10.18,4.41,24,11.88,31V47.06A47.05,47.05,0,0,0,164.88,0Z"/><path class="cls-22" d="M46.28,0,11.88,38.31V71.49c0,10.18-4.4,24-11.88,31V47.06A47.05,47.05,0,0,1,46.28,0Z"/><path class="cls-23" d="M151.75,61.2A4,4,0,1,0,158.88,64,46.69,46.69,0,0,0,151.75,61.2Z"/><path class="cls-24" d="M47.92,71a4,4,0,0,0,4-4,3.92,3.92,0,0,0-.66-2.19,48.49,48.49,0,0,0-6.73,4.25A4,4,0,0,0,47.92,71Z"/><path class="cls-25" d="M163.7.6H47.46A46.73,46.73,0,0,0,.73,47.34v3C.73,23.27,21.65,2.3,47.46,2.3H163.7c25.81,0,46.74,20.33,46.74,48.05v-3A46.74,46.74,0,0,0,163.7.6Z"/></g></g></svg>