<svg xmlns="http://www.w3.org/2000/svg" xmlns:xlink="http://www.w3.org/1999/xlink" viewBox="0 0 211.16 211.16"><defs><style>.cls-1{fill-rule:evenodd;fill:url(#linear-gradient);}.cls-2{fill:url(#linear-gradient-2);}.cls-3{fill:url(#linear-gradient-3);}.cls-4{fill:url(#linear-gradient-4);}.cls-5{fill:url(#linear-gradient-5);}.cls-6{fill:url(#linear-gradient-6);}.cls-7{fill:url(#linear-gradient-7);}.cls-8{fill:url(#linear-gradient-8);}.cls-9{fill:url(#linear-gradient-9);}.cls-10{fill:url(#linear-gradient-10);}.cls-11{fill:url(#linear-gradient-11);}.cls-12{fill:url(#linear-gradient-12);}.cls-13{fill:url(#linear-gradient-13);}.cls-14{fill:url(#linear-gradient-14);}.cls-15{fill:url(#linear-gradient-15);}.cls-16{fill:url(#linear-gradient-16);}.cls-17{fill:url(#linear-gradient-17);}.cls-18{fill:#868686;}.cls-19{fill:url(#linear-gradient-18);}.cls-20{fill:url(#linear-gradient-19);}.cls-21{fill:url(#linear-gradient-20);}.cls-22{fill:url(#linear-gradient-21);}.cls-23{fill:url(#linear-gradient-22);}.cls-24{fill:url(#linear-gradient-23);}.cls-25{fill:url(#linear-gradient-24);}.cls-26{fill:url(#linear-gradient-25);}.cls-27{fill:url(#linear-gradient-26);}</style><linearGradient id="linear-gradient" x1="143.08" y1="22.73" x2="7.53" y2="206.41" gradientUnits="userSpaceOnUse"><stop offset="0" stop-color="#4f4842"/><stop offset="1" stop-color="#120d0d"/></linearGradient><linearGradient id="linear-gradient-2" x1="228.16" y1="-26.97" x2="99.83" y2="185.58" xlink:href="#linear-gradient"/><linearGradient id="linear-gradient-3" x1="105.58" y1="27.14" x2="105.58" y2="-44.33" gradientUnits="userSpaceOnUse"><stop offset="0" stop-color="#4f4842"/><stop offset="1" stop-color="#726d69"/></linearGradient><linearGradient id="linear-gradient-4" x1="154.23" y1="9.71" x2="93.8" y2="85.71" gradientUnits="userSpaceOnUse"><stop offset="0" stop-color="#f5f0ea"/><stop offset="1" stop-color="#c2bcb1"/></linearGradient><linearGradient id="linear-gradient-5" x1="132.63" y1="35.24" x2="49.31" y2="77.36" xlink:href="#linear-gradient-4"/><linearGradient id="linear-gradient-6" x1="186.35" y1="108.29" x2="121.49" y2="173.94" xlink:href="#linear-gradient-4"/><linearGradient id="linear-gradient-7" x1="140.75" y1="122.88" x2="37.22" y2="196.05" xlink:href="#linear-gradient-4"/><linearGradient id="linear-gradient-8" x1="226.74" y1="100.35" x2="133.94" y2="191.11" gradientUnits="userSpaceOnUse"><stop offset="0" stop-color="#f5f0ea"/><stop offset="1" stop-color="#b9b1a0"/></linearGradient><linearGradient id="linear-gradient-9" x1="155.13" y1="67.83" x2="39.3" y2="198.22" xlink:href="#linear-gradient-8"/><linearGradient id="linear-gradient-10" x1="84.18" y1="178.14" x2="158.22" y2="165.56" gradientUnits="userSpaceOnUse"><stop offset="0" stop-color="#2d2017"/><stop offset="0.13" stop-color="#382b22"/><stop offset="0.35" stop-color="#554a40"/><stop offset="0.65" stop-color="#847b71"/><stop offset="1" stop-color="#c2bcb1"/></linearGradient><linearGradient id="linear-gradient-11" x1="37.08" y1="108.07" x2="149.78" y2="246.2" xlink:href="#linear-gradient-10"/><linearGradient id="linear-gradient-12" x1="105.62" y1="121.24" x2="105.62" y2="134.87" gradientUnits="userSpaceOnUse"><stop offset="0" stop-color="#3f3934"/><stop offset="1" stop-color="#605a55"/></linearGradient><linearGradient id="linear-gradient-13" x1="136.82" y1="161.28" x2="74.39" y2="128.67" gradientUnits="userSpaceOnUse"><stop offset="0" stop-color="#423e3b"/><stop offset="0.16" stop-color="#353230"/><stop offset="0.71" stop-color="#0f0e0d"/><stop offset="1"/></linearGradient><linearGradient id="linear-gradient-14" x1="116.72" y1="160.49" x2="44.11" y2="116.61" xlink:href="#linear-gradient-13"/><linearGradient id="linear-gradient-15" x1="105.83" y1="214.7" x2="105.83" y2="185.82" gradientUnits="userSpaceOnUse"><stop offset="0" stop-color="#72695f"/><stop offset="1" stop-color="#120d0d"/></linearGradient><linearGradient id="linear-gradient-16" x1="105.6" y1="157.6" x2="105.6" y2="137.42" gradientUnits="userSpaceOnUse"><stop offset="0"/><stop offset="1" stop-color="#120d0d"/></linearGradient><linearGradient id="linear-gradient-17" x1="175.67" y1="80.71" x2="179.19" y2="108.35" xlink:href="#linear-gradient"/><linearGradient id="linear-gradient-18" x1="182.25" y1="121.84" x2="176.41" y2="79.88" gradientUnits="userSpaceOnUse"><stop offset="0" stop-color="#7a5714"/><stop offset="0.33" stop-color="#58400f"/><stop offset="0.77" stop-color="#322509"/><stop offset="1" stop-color="#231b07"/></linearGradient><linearGradient id="linear-gradient-19" x1="171.81" y1="91.26" x2="178.01" y2="100.13" gradientUnits="userSpaceOnUse"><stop offset="0" stop-color="#d9bc87"/><stop offset="1" stop-color="#291a0b"/></linearGradient><linearGradient id="linear-gradient-20" x1="2858.61" y1="80.71" x2="2862.13" y2="108.35" gradientTransform="matrix(-1, 0, 0, 1, 2894.18, 0)" xlink:href="#linear-gradient"/><linearGradient id="linear-gradient-21" x1="2865.19" y1="121.84" x2="2859.35" y2="79.88" gradientTransform="matrix(-1, 0, 0, 1, 2894.18, 0)" xlink:href="#linear-gradient-18"/><linearGradient id="linear-gradient-22" x1="23.41" y1="89.49" x2="28.98" y2="97.48" xlink:href="#linear-gradient-19"/><linearGradient id="linear-gradient-23" x1="40.55" y1="47.31" x2="11.25" y2="1.95" gradientUnits="userSpaceOnUse"><stop offset="0" stop-color="#503732"/><stop offset="1" stop-color="#120d0d"/></linearGradient><linearGradient id="linear-gradient-24" x1="2888.25" y1="49.01" x2="2858.95" y2="3.65" gradientTransform="matrix(-1, 0, 0, 1, 3057.76, 0)" xlink:href="#linear-gradient-23"/><linearGradient id="linear-gradient-25" x1="160.22" y1="32.57" x2="157.78" y2="99.72" xlink:href="#linear-gradient"/><linearGradient id="linear-gradient-26" x1="53.95" y1="35.18" x2="51.51" y2="102.32" xlink:href="#linear-gradient"/></defs><title>Asset 2</title><g id="Layer_2" data-name="Layer 2"><g id="Layer_1-2" data-name="Layer 1"><path class="cls-1" d="M47.06,0h69.76a47.06,47.06,0,0,1,47.06,47.06v117a47.06,47.06,0,0,1-47.06,47.06H47.06A47.06,47.06,0,0,1,0,164.1v-117A47.06,47.06,0,0,1,47.06,0Z"/><path class="cls-2" d="M164.1,0H105.6V211.16h58.5a47.06,47.06,0,0,0,47.06-47.06v-117A47.06,47.06,0,0,0,164.1,0Z"/><path class="cls-3" d="M163.7.6H47.47A46.73,46.73,0,0,0,.73,47.34v3C.73,23.26,21.65,2.3,47.47,2.3H163.7c25.81,0,46.73,20.33,46.73,48.05v-3A46.73,46.73,0,0,0,163.7.6Z"/><path class="cls-4" d="M105.6,105.56,128.48,113s11-22.5,11-58.83A86.92,86.92,0,0,0,121.21,0H105.6Z"/><path class="cls-5" d="M105.74,105.56,82.85,113s-11-22.5-11-58.83A86.86,86.86,0,0,1,90.13,0h15.61Z"/><path class="cls-6" d="M178.91,208.76c-1.76-11.49-9.37-58.68-12.12-68.37-3.13-11-5-18.92-18.75-25.64-13.16-6.42-40.32-16.32-42.64-17.32v-.07l-.08,0,0,0V211.16H164A47.18,47.18,0,0,0,178.91,208.76Z"/><path class="cls-7" d="M32.12,208.76c1.77-11.49,9.41-58.68,12.17-68.37,3.14-11,5-18.92,18.83-25.64,13.21-6.42,40.49-16.32,42.81-17.32v-.07l.09,0,0,0V211.16h-59A47.55,47.55,0,0,1,32.12,208.76Z"/><path class="cls-8" d="M161.89,163.18c-11.3,1.92-25.58-7.36-25.58-7.36C146.6,168.48,156.12,167,161.89,163.18ZM163.78,177c-12.08,2.08-27.35-8-27.35-8C147.43,182.7,157.63,181.13,163.78,177ZM138,183.65c11.54,14.56,22.21,12.89,28.64,8.45C154,194.32,138,183.65,138,183.65Z"/><path class="cls-9" d="M74.92,155.82s-14.27,9.28-25.57,7.36C55.11,167,64.64,168.48,74.92,155.82ZM74.81,169S59.54,179,47.46,177C53.61,181.13,63.8,182.7,74.81,169ZM44.59,192.1c6.43,4.44,17.1,6.11,28.63-8.45C73.22,183.65,57.23,194.32,44.59,192.1Z"/><rect class="cls-10" x="105.47" y="133.74" width="33.94" height="75.81"/><rect class="cls-11" x="71.97" y="133.74" width="33.94" height="75.81"/><path class="cls-12" d="M140.5,137.59c0,4-15.62,7.91-34.88,7.91S70.74,142,70.74,137.59c0-11.23,15.62-20.34,34.88-20.34S140.5,126.36,140.5,137.59Z"/><path class="cls-13" d="M140.5,137.59s-.9,28.44-35,32.93V132.2Z"/><path class="cls-14" d="M70.74,137.59s.9,28.44,35,32.93V132.2Z"/><polygon class="cls-15" points="105.83 184.08 61.11 211.16 150.55 211.16 105.83 184.08"/><path class="cls-16" d="M126.73,147.57c0-.26,0-.51,0-.77,0-5.22-2.92-9.46-6.53-9.46s-6.52,4.24-6.52,9.46,2.92,9.46,6.52,9.46a5,5,0,0,0,3-1.13v0l14.56-7.6ZM91,137.34c-3.6,0-6.53,4.24-6.53,9.46,0,.26,0,.51.06.77H73.36l14.55,7.6v0a5,5,0,0,0,3,1.13c3.61,0,6.53-4.23,6.53-9.46S94.56,137.34,91,137.34Z"/><path class="cls-17" d="M155.82,108.16S158.05,82.42,178.27,80c16.46-2,23,18.32,23,18.32s-3.16,20.42-20.48,21.8C166.44,121.25,155.82,108.16,155.82,108.16Z"/><path d="M182.05,101.37l16.36-2.47s-4.08-16.66-20.59-14.19C162,87.09,159,106.79,159,106.79Z"/><path class="cls-18" d="M159,106.86a43.31,43.31,0,0,1,4.66-8.52c6.7.4,18.4-2.86,27.38-7.74a24.74,24.74,0,0,1,7.36,8.3,35.84,35.84,0,0,1-4.54,7.92c-5.92,1-19.22,4.08-24.16,6A37.84,37.84,0,0,1,159,106.86Z"/><path class="cls-19" d="M169.34,112.75a15.09,15.09,0,0,1-6-12,14.55,14.55,0,0,1,.21-2.39c3.51-5,9-10.47,16.5-11a17.09,17.09,0,0,1,11.35,3.37,14.94,14.94,0,0,1,3.86,10,14.72,14.72,0,0,1-1.2,5.83c-3,4.07-7.63,8.24-13.78,8.24A31.12,31.12,0,0,1,169.34,112.75Z"/><path d="M171.16,100.11A10.12,10.12,0,1,0,181.28,90,10.12,10.12,0,0,0,171.16,100.11Z"/><path class="cls-20" d="M177.6,89.06a20.87,20.87,0,0,0-10.07,5.86,6.32,6.32,0,1,0,10.07-5.86Z"/><path class="cls-21" d="M55.42,108.16S53.19,82.42,33,80C16.51,78,10,98.31,10,98.31s3.17,20.42,20.49,21.8C44.8,121.25,55.42,108.16,55.42,108.16Z"/><path d="M29.19,101.37,12.83,98.9s4.08-16.66,20.59-14.19c15.82,2.38,18.81,22.08,18.81,22.08Z"/><path class="cls-18" d="M52.23,106.86a43.31,43.31,0,0,0-4.66-8.52c-6.71.4-18.41-2.86-27.39-7.74a24.78,24.78,0,0,0-7.35,8.3,36,36,0,0,0,4.53,7.92c5.92,1,19.23,4.08,24.17,6A37.84,37.84,0,0,0,52.23,106.86Z"/><path class="cls-22" d="M41.89,112.75a15.07,15.07,0,0,0,6-12,15.73,15.73,0,0,0-.21-2.39c-3.51-5-9-10.47-16.5-11A17.09,17.09,0,0,0,19.82,90.8a15,15,0,0,0-3.87,10,14.55,14.55,0,0,0,1.21,5.83c3,4.07,7.63,8.24,13.78,8.24A31.06,31.06,0,0,0,41.89,112.75Z"/><path d="M40.07,100.11A10.11,10.11,0,1,1,30,90,10.11,10.11,0,0,1,40.07,100.11Z"/><path class="cls-23" d="M20.19,91.91a14.41,14.41,0,0,0-1.3,1.7A6.32,6.32,0,0,0,31.17,91.5a6.26,6.26,0,0,0-.77-3A17.12,17.12,0,0,0,20.19,91.91Z"/><path class="cls-24" d="M54.62,15.52V0H47.06A47.06,47.06,0,0,0,0,47.06v6.57C22.24,25.39,54.62,15.52,54.62,15.52Z"/><path class="cls-25" d="M156.54,15.52V0h7.56a47.06,47.06,0,0,1,47.06,47.06v6.57C188.92,25.39,156.54,15.52,156.54,15.52Z"/><path class="cls-26" d="M165.87,74.21c0,5.19-3.21,9.4-7.17,9.4s-7.16-4.21-7.16-9.4,3.21-9.41,7.16-9.41S165.87,69,165.87,74.21Z"/><path class="cls-27" d="M59.7,74.21c0,5.19-3.21,9.4-7.17,9.4s-7.17-4.21-7.17-9.4,3.21-9.41,7.17-9.41S59.7,69,59.7,74.21Z"/></g></g></svg>