<svg xmlns="http://www.w3.org/2000/svg" xmlns:xlink="http://www.w3.org/1999/xlink" viewBox="0 0 211.16 211.17"><defs><style>.cls-1{fill-rule:evenodd;fill:url(#linear-gradient);}.cls-2{fill:url(#linear-gradient-2);}.cls-3{fill:url(#linear-gradient-4);}.cls-4{fill:url(#linear-gradient-5);}.cls-5{fill:url(#linear-gradient-6);}.cls-6{fill:url(#linear-gradient-7);}.cls-7{fill:url(#linear-gradient-8);}.cls-8{fill:url(#linear-gradient-9);}.cls-9{fill:url(#linear-gradient-10);}.cls-10{fill:url(#linear-gradient-11);}.cls-11{fill:url(#linear-gradient-12);}.cls-12{fill:url(#linear-gradient-13);}.cls-13{fill:url(#linear-gradient-14);}.cls-14{fill:url(#linear-gradient-15);}.cls-15{fill:url(#linear-gradient-16);}.cls-16{fill:url(#linear-gradient-17);}.cls-17{fill:url(#linear-gradient-18);}.cls-18{fill:url(#linear-gradient-19);}.cls-19{fill:url(#linear-gradient-20);}.cls-20{fill:url(#linear-gradient-21);}.cls-21{fill:url(#linear-gradient-22);}.cls-22{fill:url(#linear-gradient-23);}.cls-23{fill:url(#linear-gradient-24);}</style><linearGradient id="linear-gradient" x1="81.94" y1="9.45" x2="81.94" y2="282.87" gradientUnits="userSpaceOnUse"><stop offset="0" stop-color="#c27529"/><stop offset="1" stop-color="#803000"/></linearGradient><linearGradient id="linear-gradient-2" x1="158.38" y1="-27.4" x2="158.38" y2="213.27" xlink:href="#linear-gradient"/><linearGradient id="linear-gradient-4" x1="105.58" y1="-31.49" x2="105.58" y2="46.83" gradientUnits="userSpaceOnUse"><stop offset="0" stop-color="#e6ad57"/><stop offset="1" stop-color="#ad5f1c"/></linearGradient><linearGradient id="linear-gradient-5" x1="143.86" y1="119.41" x2="31.95" y2="20.03" gradientUnits="userSpaceOnUse"><stop offset="0" stop-color="#914012"/><stop offset="1" stop-color="#2d0d00"/></linearGradient><linearGradient id="linear-gradient-6" x1="55" y1="112.79" x2="-68.31" y2="6.58" xlink:href="#linear-gradient-5"/><linearGradient id="linear-gradient-7" x1="55.47" y1="8" x2="65.23" y2="70.26" xlink:href="#linear-gradient-4"/><linearGradient id="linear-gradient-8" x1="104.85" y1="200.92" x2="104.85" y2="211.26" gradientUnits="userSpaceOnUse"><stop offset="0" stop-color="#3f3934"/><stop offset="1" stop-color="#a8a59e"/></linearGradient><linearGradient id="linear-gradient-9" x1="94.95" y1="104.11" x2="11.63" y2="104.11" gradientUnits="userSpaceOnUse"><stop offset="0" stop-color="#f5f0ea"/><stop offset="1" stop-color="#c2bcb1"/></linearGradient><linearGradient id="linear-gradient-10" x1="162.68" y1="-7.58" x2="146.8" y2="57.73" xlink:href="#linear-gradient-4"/><linearGradient id="linear-gradient-11" x1="-13.24" y1="107.21" x2="66.09" y2="122.95" xlink:href="#linear-gradient-5"/><linearGradient id="linear-gradient-12" x1="159.53" y1="95.8" x2="104.22" y2="108.53" xlink:href="#linear-gradient-9"/><linearGradient id="linear-gradient-13" x1="232.43" y1="95.43" x2="147.95" y2="127.92" xlink:href="#linear-gradient-5"/><linearGradient id="linear-gradient-14" x1="126.74" y1="159.86" x2="106.07" y2="203.01" gradientUnits="userSpaceOnUse"><stop offset="0" stop-color="#423e3b"/><stop offset="0.16" stop-color="#353230"/><stop offset="0.71" stop-color="#0f0e0d"/><stop offset="1"/></linearGradient><linearGradient id="linear-gradient-15" x1="101.3" y1="163.62" x2="74.43" y2="197.13" xlink:href="#linear-gradient-14"/><linearGradient id="linear-gradient-16" x1="104.85" y1="158.16" x2="104.85" y2="173.48" gradientUnits="userSpaceOnUse"><stop offset="0" stop-color="#3f3934"/><stop offset="1" stop-color="#605a55"/></linearGradient><linearGradient id="linear-gradient-17" x1="154.65" y1="48.61" x2="154.65" y2="90.43" gradientUnits="userSpaceOnUse"><stop offset="0"/><stop offset="1" stop-color="#5b2408"/></linearGradient><linearGradient id="linear-gradient-18" x1="155.07" y1="82.8" x2="155.07" y2="63" gradientUnits="userSpaceOnUse"><stop offset="0" stop-color="#7a2912"/><stop offset="1" stop-color="#f5e0d9"/></linearGradient><linearGradient id="linear-gradient-19" x1="155.98" y1="70.74" x2="155.98" y2="53.94" gradientUnits="userSpaceOnUse"><stop offset="0" stop-color="#7a5714"/><stop offset="0.33" stop-color="#58400f"/><stop offset="0.77" stop-color="#322509"/><stop offset="1" stop-color="#231b07"/></linearGradient><linearGradient id="linear-gradient-20" x1="153.78" y1="59.93" x2="149.07" y2="55.32" gradientUnits="userSpaceOnUse"><stop offset="0" stop-color="#231b07"/><stop offset="1" stop-color="#d6c78a"/></linearGradient><linearGradient id="linear-gradient-21" x1="2120.74" y1="48.61" x2="2120.74" y2="90.43" gradientTransform="matrix(-1, 0, 0, 1, 2175.8, 0)" xlink:href="#linear-gradient-17"/><linearGradient id="linear-gradient-22" x1="2121.16" y1="82.8" x2="2121.16" y2="63" gradientTransform="matrix(-1, 0, 0, 1, 2175.8, 0)" xlink:href="#linear-gradient-18"/><linearGradient id="linear-gradient-23" x1="2122.07" y1="70.74" x2="2122.07" y2="53.94" gradientTransform="matrix(-1, 0, 0, 1, 2175.8, 0)" xlink:href="#linear-gradient-19"/><linearGradient id="linear-gradient-24" x1="51.85" y1="60.61" x2="48.18" y2="54.84" xlink:href="#linear-gradient-20"/></defs><title>Asset 3</title><g id="Layer_2" data-name="Layer 2"><g id="Layer_1-2" data-name="Layer 1"><path class="cls-1" d="M47.07,0h69.75a47.06,47.06,0,0,1,47.06,47.06v117a47.06,47.06,0,0,1-47.06,47.06H47.07A47.06,47.06,0,0,1,0,164.1v-117A47.06,47.06,0,0,1,47.07,0Z"/><path class="cls-2" d="M164.1,0H105.6V211.16h58.5a47.06,47.06,0,0,0,47.06-47.06v-117A47.06,47.06,0,0,0,164.1,0Z"/><path class="cls-2" d="M164.1,0H105.6V211.16h58.5a47.06,47.06,0,0,0,47.06-47.06v-117A47.06,47.06,0,0,0,164.1,0Z"/><path class="cls-3" d="M163.7.6H47.47A46.73,46.73,0,0,0,.73,47.34v3C.73,23.27,21.65,2.3,47.47,2.3H163.7c25.81,0,46.74,20.33,46.74,48.05v-3A46.74,46.74,0,0,0,163.7.6Z"/><path class="cls-4" d="M176.38,41.46c-5.41-2.81-39.85-10-50.9-8.66s-10,33.79-10,33.79l11,144.57H164.1c1.29,0,2.57-.06,3.83-.17V151.5c0-12.35,3.47-43.1,10.62-55.45s7.31-28.73,6.87-35S181.8,44.28,176.38,41.46Z"/><path class="cls-5" d="M35.14,41.46C40.56,38.65,75,31.5,86,32.8S96,66.59,96,66.59L85,211.16H47.42c-1.29,0-2.57-.06-3.83-.17V151.5c0-12.35-3.46-43.1-10.61-55.45s-7.59-29.89-7.16-36.17S29.73,44.28,35.14,41.46Z"/><path class="cls-6" d="M26.94,54.69c0-8.46,2.24-19.24,14.08-22.47,12.58-3.42,30.23-6.76,36.75-8,7.5-1.46,18.07,2.89,18.07,13.89,0,16.5,1.37,19.77-1.75,25.55C92,53.7,89.91,46,88.28,40.76s-5.1-7.26-13.6-5.48S49.09,40.34,44,41.59C30.47,44.93,26.94,54.69,26.94,54.69Z"/><polygon class="cls-7" points="141.92 211.17 67.78 211.17 63.25 189.31 146.46 189.31 141.92 211.17"/><path class="cls-8" d="M95.66,0V44c0,22.28-5.19,39.68-16.18,54-9.46,12.35-19.83,18.11-21.36,41.2-1.48,22.19-3,44.56-3.66,52.19s4,16.78,18.92,16.78S105.73,200,105.73,200V0Z"/><path class="cls-9" d="M184.24,54.69c0-8.46-2.24-19.24-14.08-22.47-12.58-3.42-30.22-6.76-36.75-8-7.5-1.46-18.07,2.89-18.07,13.89,0,16.5-1.3,19.72,1.81,25.51,2.08-9.94,4.12-17.64,5.75-22.84s5.1-7.26,13.6-5.48,25.6,5.06,30.68,6.31C180.71,44.93,184.24,54.69,184.24,54.69Z"/><path class="cls-10" d="M27,54.69V22.34A154.61,154.61,0,0,0,21.8,62.78c0,13.93,2.75,23.66,8.85,37.39s9.46,41.2,9.46,61.65v48.83a48.31,48.31,0,0,0,7,.51h.67V161.21c0-24.72-4.58-49.44-11.59-65.31S27,73.31,27,54.69Z"/><path class="cls-11" d="M105.5,0V200s17.39,8.24,32.35,8.24,19.53-9.15,18.92-16.78-1.69-28.52-3.66-52.19c-1.91-23.06-11.9-28.85-21.36-41.2-11-14.35-16.18-31.75-16.18-54V0Z"/><path class="cls-12" d="M184.24,54.69c0,18.62-2.14,25.34-9.16,41.21s-11.59,40.59-11.59,65.31v49.95h.61a47.74,47.74,0,0,0,7-.52V161.82c0-20.45,3.36-47.92,9.46-61.65s8.85-23.46,8.85-37.39a154.61,154.61,0,0,0-5.19-40.44Z"/><path class="cls-13" d="M104.72,196.62S137,198.84,137,161.55c-21.1,4.23-32.23,10.27-32.23,10.27Z"/><path class="cls-14" d="M105,196.62s-32.24,2.28-32.24-35.07c21.1,4.23,32.24,10.27,32.24,10.27Z"/><path class="cls-15" d="M136.94,161.67c0,6.38-14.36,10.85-32.09,10.85s-32.08-4.47-32.08-10.85c0-3.07,14.36-4.47,32.08-4.47S136.94,158.38,136.94,161.67Z"/><path class="cls-16" d="M174,58.92s-6.66-14-18.9-11.88-18.18,13.86-19.8,16.2c1.8,6.84,9.72,24.84,22,25.38S174,66.3,174,58.92Z"/><path class="cls-17" d="M141.93,62.11a22.19,22.19,0,0,0,8.7,13.48c6.92,5.22,9.91,3,13.49-2,3.25-4.61,4.09-13.31,4.09-13.31s-.48-.63-1.15-1.41c-4.61,4.56-15.42,4.84-22-1.3A32,32,0,0,0,141.93,62.11Z"/><path class="cls-18" d="M156,70.43A11.18,11.18,0,0,1,144.8,59.25a11.66,11.66,0,0,1,.14-1.68c9.43-11.56,19.08-2.31,22.2,1.32,0,.12,0,.24,0,.36A11.18,11.18,0,0,1,156,70.43Z"/><path d="M150.3,58.36a5.5,5.5,0,1,0,5.5-5.49A5.49,5.49,0,0,0,150.3,58.36Z"/><path class="cls-19" d="M146,58.24a4.64,4.64,0,1,0,7.72-4.89C151.2,53.79,148.58,55.24,146,58.24Z"/><path class="cls-20" d="M35.71,58.92s6.66-14,18.9-11.88,18.18,13.86,19.8,16.2c-1.8,6.84-9.72,24.84-22,25.38S35.71,66.3,35.71,58.92Z"/><path class="cls-21" d="M67.78,62.11a22.25,22.25,0,0,1-8.7,13.48c-6.92,5.22-9.92,3-13.49-2-3.25-4.61-4.09-13.31-4.09-13.31s.48-.63,1.15-1.41c4.6,4.56,15.42,4.84,22-1.3A32.87,32.87,0,0,1,67.78,62.11Z"/><path class="cls-22" d="M53.73,70.43A11.18,11.18,0,0,0,64.91,59.25a11.66,11.66,0,0,0-.14-1.68C55.34,46,45.68,55.26,42.57,58.89c0,.12,0,.24,0,.36A11.17,11.17,0,0,0,53.73,70.43Z"/><path d="M59.4,58.36a5.49,5.49,0,1,1-5.49-5.49A5.49,5.49,0,0,1,59.4,58.36Z"/><path class="cls-23" d="M48.82,60.51a4.64,4.64,0,0,0,4.64-4.64,4.71,4.71,0,0,0-.8-2.62A18.27,18.27,0,0,0,44.73,58,4.61,4.61,0,0,0,48.82,60.51Z"/><path d="M79.38,184l19.41,4.39S99.47,169.32,79.38,184Z"/><path d="M130.9,184l-19.42,4.39S110.81,169.32,130.9,184Z"/></g></g></svg>