<svg xmlns="http://www.w3.org/2000/svg" xmlns:xlink="http://www.w3.org/1999/xlink" viewBox="0 0 211.16 211.16"><defs><style>.cls-1,.cls-23,.cls-24,.cls-25,.cls-26,.cls-27,.cls-7,.cls-8{fill-rule:evenodd;}.cls-1{fill:url(#linear-gradient);}.cls-2{fill:url(#linear-gradient-2);}.cls-3{fill:url(#linear-gradient-3);}.cls-4{fill:url(#linear-gradient-4);}.cls-5{fill:url(#linear-gradient-5);}.cls-6{fill:url(#linear-gradient-6);}.cls-7{fill:url(#linear-gradient-7);}.cls-8{fill:url(#linear-gradient-8);}.cls-9{fill:url(#linear-gradient-9);}.cls-10{fill:url(#linear-gradient-10);}.cls-11{fill:url(#linear-gradient-11);}.cls-12{fill:url(#linear-gradient-12);}.cls-13{fill:url(#linear-gradient-13);}.cls-14{fill:url(#linear-gradient-14);}.cls-15{fill:url(#linear-gradient-15);}.cls-16{fill:url(#linear-gradient-16);}.cls-17{fill:url(#linear-gradient-17);}.cls-18{fill:url(#linear-gradient-18);}.cls-19{fill:url(#linear-gradient-19);}.cls-20{fill:url(#linear-gradient-20);}.cls-21{fill:url(#linear-gradient-21);}.cls-22{fill:url(#linear-gradient-22);}.cls-24{fill:url(#linear-gradient-23);}.cls-25{fill:url(#linear-gradient-24);}.cls-26{fill:url(#linear-gradient-25);}.cls-27{fill:url(#linear-gradient-26);}</style><linearGradient id="linear-gradient" x1="128.67" y1="87.47" x2="-71.83" y2="165.15" gradientUnits="userSpaceOnUse"><stop offset="0" stop-color="#474340"/><stop offset="1" stop-color="#0d090a"/></linearGradient><linearGradient id="linear-gradient-2" x1="274.46" y1="52.68" x2="51.17" y2="134.48" xlink:href="#linear-gradient"/><linearGradient id="linear-gradient-3" x1="135.11" y1="204.5" x2="229.92" y2="152.69" gradientUnits="userSpaceOnUse"><stop offset="0" stop-color="#512105"/><stop offset="1" stop-color="#94491e"/></linearGradient><linearGradient id="linear-gradient-4" x1="-9.67" y1="213.12" x2="48.13" y2="149.95" xlink:href="#linear-gradient-3"/><linearGradient id="linear-gradient-5" x1="105.58" y1="-12.62" x2="105.58" y2="31.52" gradientUnits="userSpaceOnUse"><stop offset="0" stop-color="#65615a"/><stop offset="1" stop-color="#373332"/></linearGradient><linearGradient id="linear-gradient-6" x1="105.58" y1="248.02" x2="105.58" y2="188.32" gradientUnits="userSpaceOnUse"><stop offset="0" stop-color="#252120"/><stop offset="1" stop-color="#0d090a"/></linearGradient><linearGradient id="linear-gradient-7" x1="461.43" y1="178.91" x2="86.55" y2="54.33" gradientUnits="userSpaceOnUse"><stop offset="0" stop-color="#57534f"/><stop offset="1" stop-color="#0d090a"/></linearGradient><linearGradient id="linear-gradient-8" x1="211.15" y1="163.75" x2="10.42" y2="30.14" xlink:href="#linear-gradient-7"/><linearGradient id="linear-gradient-9" x1="155.16" y1="153.7" x2="108.23" y2="160.84" gradientUnits="userSpaceOnUse"><stop offset="0" stop-color="#ae5e2a"/><stop offset="1" stop-color="#75300f"/></linearGradient><linearGradient id="linear-gradient-10" x1="75.26" y1="152.89" x2="-10.2" y2="193.17" xlink:href="#linear-gradient-9"/><linearGradient id="linear-gradient-11" x1="105.57" y1="223.35" x2="105.57" y2="174.18" gradientUnits="userSpaceOnUse"><stop offset="0" stop-color="#0d090a"/><stop offset="1" stop-color="#75300f"/></linearGradient><linearGradient id="linear-gradient-12" x1="49.54" y1="150.56" x2="146.54" y2="165.2" gradientUnits="userSpaceOnUse"><stop offset="0" stop-color="#0d090a"/><stop offset="1" stop-color="#6b3a1b"/></linearGradient><linearGradient id="linear-gradient-13" x1="-20.28" y1="220.64" x2="118.37" y2="144.79" gradientUnits="userSpaceOnUse"><stop offset="0" stop-color="#0d090a"/><stop offset="1" stop-color="#854a24"/></linearGradient><linearGradient id="linear-gradient-14" x1="-159.79" y1="294.03" x2="-166.43" y2="311.52" gradientTransform="matrix(0.97, 0.25, -0.25, 0.97, 376.36, -203.14)" xlink:href="#linear-gradient-9"/><linearGradient id="linear-gradient-15" x1="1479.71" y1="-120.37" x2="1471.06" y2="-97.56" gradientTransform="matrix(-0.97, 0.25, 0.25, 0.97, 1528.54, -203.14)" xlink:href="#linear-gradient-9"/><linearGradient id="linear-gradient-16" x1="48.78" y1="88.19" x2="48.78" y2="71.09" gradientUnits="userSpaceOnUse"><stop offset="0" stop-color="#7d3b00"/><stop offset="1" stop-color="#120503"/></linearGradient><linearGradient id="linear-gradient-17" x1="44.12" y1="75.71" x2="48.15" y2="81.76" gradientUnits="userSpaceOnUse"><stop offset="0" stop-color="#ffeb8a"/><stop offset="0.18" stop-color="#caba6d"/><stop offset="0.48" stop-color="#756b3f"/><stop offset="0.73" stop-color="#36311d"/><stop offset="0.91" stop-color="#0f0e08"/><stop offset="1"/></linearGradient><linearGradient id="linear-gradient-18" x1="1854.54" y1="88.19" x2="1854.54" y2="71.09" gradientTransform="matrix(-1, 0, 0, 1, 2016.88, 0)" xlink:href="#linear-gradient-16"/><linearGradient id="linear-gradient-19" x1="156.16" y1="76.18" x2="161.07" y2="81.53" xlink:href="#linear-gradient-17"/><linearGradient id="linear-gradient-20" x1="105.56" y1="121.69" x2="105.56" y2="93.75" gradientUnits="userSpaceOnUse"><stop offset="0" stop-color="#5c534d"/><stop offset="0.6" stop-color="#3e3731"/><stop offset="1" stop-color="#2f2923"/></linearGradient><linearGradient id="linear-gradient-21" x1="143.62" y1="105.76" x2="93.61" y2="148.15" gradientUnits="userSpaceOnUse"><stop offset="0" stop-color="#423e3b"/><stop offset="0.16" stop-color="#353230"/><stop offset="0.71" stop-color="#0f0e0d"/><stop offset="1"/></linearGradient><linearGradient id="linear-gradient-22" x1="121.12" y1="102.41" x2="69.17" y2="160.69" xlink:href="#linear-gradient-21"/><linearGradient id="linear-gradient-23" x1="167.37" y1="202.54" x2="118.61" y2="211.66" gradientTransform="matrix(1, 0.04, 0, 1, 0, -45.04)" xlink:href="#linear-gradient-9"/><linearGradient id="linear-gradient-24" x1="93.37" y1="159.38" x2="11.94" y2="184.94" xlink:href="#linear-gradient-9"/><linearGradient id="linear-gradient-25" x1="254.92" y1="18.49" x2="173.99" y2="66.53" xlink:href="#linear-gradient-7"/><linearGradient id="linear-gradient-26" x1="-39.08" y1="-20.55" x2="38.75" y2="82" xlink:href="#linear-gradient-7"/></defs><title>Asset 9</title><g id="Layer_2" data-name="Layer 2"><g id="Layer_1-2" data-name="Layer 1"><path class="cls-1" d="M47.06,0h69.76a47.06,47.06,0,0,1,47.06,47.06v117a47.06,47.06,0,0,1-47.06,47.06H59.65c-26,0-59.65-46.84-59.65-72.83V47.06A47.06,47.06,0,0,1,47.06,0Z"/><path class="cls-2" d="M164.1,0H105.6V211.16h44.66c26,0,60.9-48.85,60.9-74.84V47.06A47.06,47.06,0,0,0,164.1,0Z"/><path class="cls-3" d="M158.87,181.31l-2.68,29.85h7.91a47.06,47.06,0,0,0,47.06-47.06V133.86Z"/><path class="cls-4" d="M52.29,181.31,55,211.16H47.06A47.06,47.06,0,0,1,0,164.1V133.86Z"/><path class="cls-5" d="M163.7.59H47.46A46.74,46.74,0,0,0,.73,47.34v3C.73,23.26,21.65,2.3,47.46,2.3H163.7c25.81,0,46.73,20.32,46.73,48.05v-3A46.74,46.74,0,0,0,163.7.59Z"/><polygon class="cls-6" points="156.14 211.16 55.02 211.16 54.66 164.56 156.5 164.56 156.14 211.16"/><path class="cls-7" d="M122.94,21.83l-17.42,9.65V62.32s23.75,11.57,23.75,36.11a319.24,319.24,0,0,1,26.34,23.63L146.44,84s2.25-2.1,13.9-4.11c13.21-2.28,23.2,5.85,23.2,5.85S167.67,33.18,122.94,21.83Z"/><path class="cls-8" d="M89.93,21.83l15.58,9.65V62.32S81.77,73.89,81.77,98.43a319.24,319.24,0,0,0-26.34,23.63L64.59,84s-2.36-1-14-3a33.25,33.25,0,0,0-23.09,4.7C27.61,85.31,39.48,34.09,89.93,21.83Z"/><path class="cls-9" d="M166.65,157c0-45.87-37.38-58.61-37.38-58.61v28l-23.86,17v27l44.85,40.73h16.39Z"/><path class="cls-10" d="M44.48,157c0-45.87,37.39-58.61,37.39-58.61v28l23.85,17v27L60.88,211.16H44.48Z"/><polygon class="cls-11" points="105.57 180.4 71.7 211.16 139.43 211.16 105.57 180.4"/><polygon class="cls-12" points="105.39 170.38 121.58 185.04 125.85 138.47 105.39 143.16 105.39 170.38"/><polygon class="cls-13" points="105.61 170.56 89.73 184.85 85.32 138.47 105.61 143.35 105.61 170.56"/><path class="cls-14" d="M150.52,56.62c-1,4.05-6.36,6.2-11.89,4.79s-9.17-5.85-8.14-9.9,6.36-6.21,11.89-4.8S151.56,52.56,150.52,56.62Z"/><path class="cls-15" d="M60.61,56.62c1,4.05,6.36,6.2,11.89,4.79s9.17-5.85,8.14-9.9-6.36-6.21-11.89-4.8S59.57,52.56,60.61,56.62Z"/><path d="M64.69,84s-7.51-12.77-15-12.77c-5.94,0-13.52,4.51-22.08,14.51h6.59s5.34,6.52,13.93,6.52C58.5,92.24,64.69,84,64.69,84Z"/><path class="cls-16" d="M36.25,82.66S43.7,74.1,49.53,74.1s11.78,9.8,11.78,9.8S55.3,90,48.63,90,36.25,82.66,36.25,82.66Z"/><path d="M54.94,79.83a6.07,6.07,0,1,1-6.07-6.07A6.07,6.07,0,0,1,54.94,79.83Z"/><path class="cls-17" d="M48.84,75.46c-2.45.2-5.12,1.76-7.39,3.51a4.09,4.09,0,0,0,7.79-1.78A4,4,0,0,0,48.84,75.46Z"/><path d="M146.44,84s7.51-12.77,15-12.77c5.94,0,13.52,4.51,22.08,14.51H177s-5.34,6.52-13.93,6.52C152.62,92.24,146.44,84,146.44,84Z"/><path class="cls-18" d="M174.88,82.66s-7.46-8.56-13.28-8.56-11.78,9.8-11.78,9.8,6,6.12,12.68,6.12S174.88,82.66,174.88,82.66Z"/><path d="M156.19,79.83a6.07,6.07,0,1,0,6.07-6.07A6.07,6.07,0,0,0,156.19,79.83Z"/><path class="cls-19" d="M161.44,76.86a4,4,0,0,0-.65-1.65c-2.39.57-4.8,2.52-6.77,4.6a4.09,4.09,0,0,0,7.42-3Z"/><path class="cls-20" d="M138.9,123.44l-4.33-14.52a46.84,46.84,0,0,0-20.9-8.84,35.69,35.69,0,0,0-16.22,0,46.92,46.92,0,0,0-20.91,8.84l-4.32,14.52,24.42,8.27,8.92-6.56,8.92,6.56Z"/><path class="cls-21" d="M105.46,153.57s15.62-1,25.07-12.11c8.54-10.05,8.37-18,8.37-18S128.32,113,105.46,113Z"/><path class="cls-22" d="M105.67,153.57s-15.62-1-25.07-12.11c-8.55-10.05-8.37-18-8.37-18S82.81,113,105.67,113Z"/><path class="cls-23" d="M78.68,135.5l19.95,4.58s1.81-17-5.77-17c-5.94,0-6.11,9-6.11,9Z"/><path class="cls-23" d="M132.45,135.5l-19.95,4.58s-1.81-17,5.78-17c5.93,0,6.1,9,6.1,9Z"/><path class="cls-24" d="M159.26,157.41l-23.65-13.48C147.34,163.66,159.26,157.41,159.26,157.41Zm-1.45,15.78-30-19.32C139.75,176.79,157.81,173.19,157.81,173.19Zm0,18.75L123.86,166C136.5,192.34,157.81,191.94,157.81,191.94Z"/><path class="cls-25" d="M75.51,143.93,51.86,157.41S63.78,163.66,75.51,143.93Zm7.77,9.94-30,19.32S71.36,176.79,83.28,153.87Zm4,12.12L53.31,191.94S74.62,192.34,87.26,166Z"/><polygon class="cls-26" points="173.81 19.85 173.81 26.38 211.16 91.26 211.16 70.83 173.81 19.85"/><polygon class="cls-27" points="37.35 19.85 37.35 26.38 0 91.26 0 70.83 37.35 19.85"/></g></g></svg>