<svg xmlns="http://www.w3.org/2000/svg" viewBox="0 0 99.99 100"><defs><style>.cls-1{fill:#fff;}.cls-2{fill:#575653;}</style></defs><title>Asset 14</title><g id="Layer_2" data-name="Layer 2"><g id="Icons"><path class="cls-1" d="M88.52,51.07a11.31,11.31,0,0,1-13,17.52,11.1,11.1,0,0,1-19.12,7.3,9.61,9.61,0,0,1-17.79,0,8.74,8.74,0,0,1-14.26-5.79,8.59,8.59,0,0,1-2.34.32,8.74,8.74,0,0,1-8.74-8.73,8.65,8.65,0,0,1,1.19-4.4,13,13,0,0,1-3.77-25.05,10.36,10.36,0,0,1-.56-3.4A10.54,10.54,0,0,1,20.71,18.25a9.9,9.9,0,0,1,1.81.15v-.15A10.55,10.55,0,0,1,33.07,7.69a10.37,10.37,0,0,1,4.68,1.1A13.23,13.23,0,0,1,60.32,9,7.89,7.89,0,0,1,73.9,14.39a5,5,0,0,1,0,.67,10.21,10.21,0,0,1,3.72-.71,10,10,0,0,1,8.61,15.1h.36a10.9,10.9,0,0,1,2,21.63Z"/><path class="cls-2" d="M47.54,84.36a12.11,12.11,0,0,1-9.81-5A11.3,11.3,0,0,1,22.45,72.9H22A11.27,11.27,0,0,1,10.77,61.64,11.51,11.51,0,0,1,11,59.15,15.64,15.64,0,0,1,0,44.28,15.47,15.47,0,0,1,7.78,30.81a12.32,12.32,0,0,1-.16-2A13.1,13.1,0,0,1,20.23,15.72,13.11,13.11,0,0,1,33.07,5.16a12.83,12.83,0,0,1,3.77.55A15.65,15.65,0,0,1,49,0,15.86,15.86,0,0,1,60.83,5.36a10.44,10.44,0,0,1,15.3,6.54,11.64,11.64,0,0,1,1.45-.09A12.54,12.54,0,0,1,89.77,27.29,13.45,13.45,0,0,1,92.3,52.5,13.87,13.87,0,0,1,79.6,71.88a14.24,14.24,0,0,1-2-.14,13.66,13.66,0,0,1-20.53,8A12.1,12.1,0,0,1,47.54,84.36ZM39.68,71.68,41,74.88a7.08,7.08,0,0,0,13.1,0l1.49-3.58,2.68,2.8A8.58,8.58,0,0,0,73,68.5L73.14,65l3.31,1.26a8.79,8.79,0,0,0,10.07-13.6L84,49.31l4.12-.74A8.36,8.36,0,0,0,86.55,32a1.08,1.08,0,0,0-.18,0l-4.75.29L84,28.16a7.48,7.48,0,0,0-6.43-11.28,7.64,7.64,0,0,0-2.78.54L70.92,19l.42-4.14a3,3,0,0,0,0-.42,5.35,5.35,0,0,0-9.21-3.68l-2.3,2.37-1.7-2.83A10.75,10.75,0,0,0,49,5.07a10.62,10.62,0,0,0-9.09,5.06l-1.22,2-2.07-1a7.84,7.84,0,0,0-3.54-.83,8,8,0,0,0-8,8v3.19l-3-.55a7.76,7.76,0,0,0-1.35-.11,8,8,0,0,0-8,8,7.72,7.72,0,0,0,.43,2.58l.78,2.28-2.24.89a10.48,10.48,0,0,0,3,20.17l4,.33-2,3.48A6.21,6.21,0,0,0,22,67.83a6.08,6.08,0,0,0,1.65-.22l2.9-.82.32,3A6.21,6.21,0,0,0,37,73.89Z"/><path class="cls-2" d="M49,67.81a3.16,3.16,0,0,0,2.75-1.89l8.94-23.44a1.3,1.3,0,0,0-1.3-1.89H38a1.31,1.31,0,0,0-1.31,1.89l8.94,23.44a3.19,3.19,0,0,0,2.76,1.89Z"/><path class="cls-2" d="M79.84,40a14.72,14.72,0,0,1-3.08,9h-1.2a10.42,10.42,0,0,0,1.11-4.72,10.58,10.58,0,0,0-10.59-10.6c-6,0-9.13,5.86-8.24,8.73H50.2A15.31,15.31,0,0,1,50,40a14.92,14.92,0,1,1,29.84,0Z"/><path class="cls-2" d="M47.39,40a15.31,15.31,0,0,1-.2,2.46H39.54c.91-2.87-2.2-8.73-8.23-8.73a10.6,10.6,0,0,0-9.49,15.32h-1.2a14.77,14.77,0,0,1-3.07-9,14.92,14.92,0,0,1,29.84,0Z"/><path class="cls-2" d="M59.38,42a8.33,8.33,0,0,0-.16,1c0,2.45,2.32,4.43,5.17,4.43s6.25-5.22,6.22-5.43Z"/><path class="cls-2" d="M38,42a8.31,8.31,0,0,1,.15,1c0,2.45-2.31,4.43-5.16,4.43S26.74,42.21,26.77,42Z"/><path class="cls-2" d="M64.64,98a2.08,2.08,0,0,1-2.07,2h-.8a2.57,2.57,0,0,1-2.41-2L55.75,79.2a1.62,1.62,0,0,1,1.64-2H63a2,2,0,0,1,2,2Z"/><path class="cls-2" d="M32.74,98a2.09,2.09,0,0,0,2.07,2h.8A2.56,2.56,0,0,0,38,98L41.63,79.2a1.62,1.62,0,0,0-1.64-2H34.34a2,2,0,0,0-2,2Z"/><path class="cls-1" d="M45.66,49.6a1.45,1.45,0,1,1-1.44-1.44A1.45,1.45,0,0,1,45.66,49.6Z"/><path class="cls-1" d="M54.61,49.6a1.45,1.45,0,1,1-1.44-1.44A1.44,1.44,0,0,1,54.61,49.6Z"/></g></g></svg>