<svg xmlns="http://www.w3.org/2000/svg" viewBox="0 0 65.54 97"><defs><style>.cls-1{fill:#fff;}.cls-2{fill:#575653;}</style></defs><title>Asset 1</title><g id="Layer_2" data-name="Layer 2"><g id="Icons"><path class="cls-1" d="M58.06,69.07A17.79,17.79,0,0,1,40.19,87.71H25.37A17.8,17.8,0,0,1,7.48,69.07L8.67,40.32a18.88,18.88,0,0,1,.62-4.06,24,24,0,0,0,47,0,18.88,18.88,0,0,1,.63,4.06Z"/><path class="cls-2" d="M40.19,89.71H25.37A19.8,19.8,0,0,1,5.48,69L6.67,40.24a20.56,20.56,0,0,1,.68-4.5l2.21-8.26,1.69,8.39a22,22,0,0,0,43,0L56,27.48l2.21,8.26a20.57,20.57,0,0,1,.68,4.49L60.06,69A19.78,19.78,0,0,1,40.19,89.71ZM10.48,44.82l-1,24.33a15.81,15.81,0,0,0,15.9,16.56H40.19A15.8,15.8,0,0,0,56.07,69.15l-1-24.33a26,26,0,0,1-44.58,0Z"/><path class="cls-1" d="M56.73,7.54v24a22.68,22.68,0,0,1-.48,4.76,24,24,0,0,1-47,0,22.68,22.68,0,0,1-.48-4.76v-24Z"/><path class="cls-2" d="M32.77,57.47A26,26,0,0,1,7.32,36.65a25.63,25.63,0,0,1-.51-5.15v-26H58.73v26a25.26,25.26,0,0,1-.52,5.17A26,26,0,0,1,32.77,57.47Zm-22-47.93v22a21.47,21.47,0,0,0,.43,4.35,22,22,0,0,0,43.05,0,21.1,21.1,0,0,0,.44-4.37v-22Z"/><path class="cls-1" d="M30.52,29.06A8.52,8.52,0,1,1,22,20.54,8.52,8.52,0,0,1,30.52,29.06Z"/><path class="cls-2" d="M22,39.13A10.08,10.08,0,1,1,32.07,29.06,10.08,10.08,0,0,1,22,39.13Zm0-17a7,7,0,1,0,7,7A7,7,0,0,0,22,22.09Z"/><path class="cls-1" d="M52.06,29.06a8.52,8.52,0,1,1-8.51-8.52A8.52,8.52,0,0,1,52.06,29.06Z"/><path class="cls-2" d="M43.55,39.13A10.08,10.08,0,1,1,53.61,29.06,10.09,10.09,0,0,1,43.55,39.13Zm0-17a7,7,0,1,0,7,7A7,7,0,0,0,43.55,22.09Z"/><path class="cls-2" d="M33.51,49.06c-.41,1.07-1.07,1.07-1.48,0l-3-7.73a1.34,1.34,0,0,1,1.34-1.94h4.71a1.33,1.33,0,0,1,1.33,1.94Z"/><path class="cls-2" d="M26.78,30.19A4.79,4.79,0,1,1,22,25.4,4.78,4.78,0,0,1,26.78,30.19Z"/><path class="cls-2" d="M48.33,30.19a4.79,4.79,0,1,1-4.78-4.79A4.78,4.78,0,0,1,48.33,30.19Z"/><path class="cls-2" d="M25.4,54.78,12.9,85.51A13.81,13.81,0,0,1,7.31,73.76L8.85,36.57A13.46,13.46,0,0,1,9,35,24,24,0,0,0,25.4,54.78Z"/><path class="cls-2" d="M52.65,85.51,40.14,54.79A24,24,0,0,0,56.54,35a14.22,14.22,0,0,1,.17,1.6l1.53,37.19A13.81,13.81,0,0,1,52.65,85.51Z"/><path class="cls-2" d="M14.7,94.88a8.65,8.65,0,0,1-.22-1.15c0-2.81,3.49-5.09,7.79-5.09s9.07,2.41,9.48,5.4a2.4,2.4,0,0,1-.08.84Z"/><path class="cls-2" d="M18.58,94.88a2,2,0,1,1-2-2A2,2,0,0,1,18.58,94.88Z"/><path class="cls-2" d="M22.6,94.88a2,2,0,1,1-2-2A2,2,0,0,1,22.6,94.88Z"/><path class="cls-2" d="M26.61,94.88a2,2,0,1,1-2-2A2,2,0,0,1,26.61,94.88Z"/><path class="cls-2" d="M50.84,95a7.8,7.8,0,0,0,.23-1.15c0-2.82-3.49-5.1-7.8-5.1s-9.06,2.42-9.49,5.4a2.71,2.71,0,0,0,.09.85Z"/><path class="cls-2" d="M47,95a2,2,0,1,0,2-2A2,2,0,0,0,47,95Z"/><path class="cls-2" d="M43,95a2,2,0,1,0,2-2A2,2,0,0,0,43,95Z"/><path class="cls-2" d="M38.93,95a2,2,0,1,0,2-2A2,2,0,0,0,38.93,95Z"/><path class="cls-1" d="M12.5,74.38a1,1,0,0,1-1.36.53l-.42-.19a1,1,0,0,1-.53-1.36l8-17.87A1,1,0,0,1,19.51,55l.43.19a1,1,0,0,1,.52,1.37Z"/><path class="cls-1" d="M34.33,28.31a2.43,2.43,0,0,1-3.11,0L2.61,3c-.86-.76-.65-1.15.46-.89L30.76,8.86a10.13,10.13,0,0,0,4,0L62.48,2.14c1.1-.26,1.31.13.46.89Z"/><path class="cls-2" d="M32.77,31a4.4,4.4,0,0,1-2.92-1.09L1.23,4.58C-.16,3.35-.12,2.22.15,1.49.5.58,1.58-.35,3.56.13L31.25,6.85a9.18,9.18,0,0,0,3,0L62,.13c2-.48,3.06.45,3.4,1.36.28.73.31,1.86-1.08,3.09L35.7,29.86A4.41,4.41,0,0,1,32.77,31ZM8.7,5.64,32.59,26.76a.73.73,0,0,0,.36,0L56.85,5.64,35.28,10.87a12.43,12.43,0,0,1-5,0Z"/><rect class="cls-2" x="26.63" y="8.5" width="2.18" height="8.23" rx="1.04"/><rect class="cls-2" x="31.68" y="8.5" width="2.17" height="8.23" rx="1.04"/><rect class="cls-2" x="36.73" y="8.5" width="2.17" height="8.23" rx="1.04"/><path class="cls-1" d="M53,74.38a1,1,0,0,0,1.37.53l.42-.19a1,1,0,0,0,.53-1.36l-8-17.87A1,1,0,0,0,46,55l-.43.19a1,1,0,0,0-.52,1.37Z"/></g></g></svg>