<svg xmlns="http://www.w3.org/2000/svg" viewBox="0 0 113.11 87"><defs><style>.cls-1{fill:#575653;}.cls-2{fill:#fff;}</style></defs><title>Asset 2</title><g id="Layer_2" data-name="Layer 2"><g id="Icons"><path class="cls-1" d="M56.55,87c1.41,0,2.91-3.58,3.33-8l4.48-46.65a7.14,7.14,0,0,0-7.23-8H56a7.15,7.15,0,0,0-7.24,8L53.22,79C53.64,83.42,55.14,87,56.55,87Z"/><path class="cls-2" d="M66.18,14.8a9.63,9.63,0,1,1-9.63-9.63A9.63,9.63,0,0,1,66.18,14.8Z"/><path class="cls-1" d="M56.55,26.93A12.13,12.13,0,1,1,68.68,14.8,12.15,12.15,0,0,1,56.55,26.93Zm0-19.26a7.13,7.13,0,1,0,7.13,7.13A7.13,7.13,0,0,0,56.55,7.67Z"/><path class="cls-2" d="M38.6,26.39c4.39.23,8,2.8,8,5.7s-3.6,5.26-8,5.26H10c-4.4,0-8-2.9-8-6.46s3.59-6.27,8-6Z"/><path class="cls-1" d="M38.59,39.35H10c-5.51,0-10-3.79-10-8.46s4.49-8.34,10.1-8l28.61,1.53c5.54.3,9.88,3.68,9.88,7.7S44.2,39.35,38.59,39.35ZM9.46,26.84C6.4,26.84,4,28.62,4,30.89c0,2.42,2.75,4.46,6,4.46H38.59c3.43,0,6-1.72,6-3.26s-2.61-3.52-6.1-3.7L9.88,26.86Z"/><path class="cls-2" d="M40,44.34c4.4,0,8,2.18,8,4.84s-3.6,5-8,5.17l-23.89,1c-4.39.19-8-2.21-8-5.34s3.6-5.69,8-5.69Z"/><path class="cls-1" d="M15.61,57.38c-5.33,0-9.51-3.23-9.51-7.35s4.49-7.69,10-7.69H40c5.6,0,10,3,10,6.84s-4.35,6.94-9.91,7.17l-23.89,1Zm.49-11c-3.54,0-6,1.95-6,3.69,0,1.9,2.75,3.47,5.91,3.35l23.89-1c3.71-.16,6.08-2,6.08-3.18s-2.34-2.84-6-2.84Z"/><path class="cls-2" d="M76.49,10.67A8.67,8.67,0,1,1,67.83,2,8.67,8.67,0,0,1,76.49,10.67Z"/><path class="cls-1" d="M67.83,21.35A10.68,10.68,0,1,1,78.49,10.67,10.68,10.68,0,0,1,67.83,21.35ZM67.83,4a6.68,6.68,0,1,0,6.66,6.67A6.67,6.67,0,0,0,67.83,4Z"/><path class="cls-2" d="M54,10.67A8.67,8.67,0,1,1,45.28,2,8.68,8.68,0,0,1,54,10.67Z"/><path class="cls-1" d="M45.28,21.35A10.68,10.68,0,1,1,56,10.67,10.68,10.68,0,0,1,45.28,21.35ZM45.28,4A6.68,6.68,0,1,0,52,10.67,6.67,6.67,0,0,0,45.28,4Z"/><path class="cls-2" d="M74.51,26.39c-4.4.23-8,2.8-8,5.7s3.6,5.27,8,5.27h28.59c4.4,0,8-2.91,8-6.47s-3.6-6.27-8-6Z"/><path class="cls-1" d="M103.11,39.36H74.52c-5.61,0-10-3.2-10-7.27s4.34-7.4,9.88-7.7L103,22.86c5.61-.31,10.1,3.34,10.1,8S108.62,39.36,103.11,39.36Zm.54-12.52h-.43L74.61,28.38c-3.48.19-6.09,2.11-6.09,3.71s2.56,3.27,6,3.27h28.59c3.25,0,6-2,6-4.47C109.11,28.62,106.71,26.84,103.65,26.84Z"/><path class="cls-2" d="M73.13,44.33c-4.4,0-8,2.18-8,4.84s3.6,5,8,5.18l23.89,1c4.4.19,8-2.22,8-5.35s-3.6-5.69-8-5.69Z"/><path class="cls-1" d="M97.49,57.38h-.56L73,56.35c-5.56-.23-9.91-3.39-9.91-7.18s4.39-6.84,10-6.84H97c5.52,0,10,3.45,10,7.69a6.62,6.62,0,0,1-3,5.44A11.22,11.22,0,0,1,97.49,57.38ZM73.13,46.33c-3.66,0-6,1.68-6,2.84s2.37,3,6.08,3.19l23.89,1h.39a7.37,7.37,0,0,0,4.17-1.18A2.84,2.84,0,0,0,103,50c0-1.74-2.46-3.69-6-3.69Z"/><rect class="cls-1" x="66.52" y="30.54" width="29.15" height="2.59" rx="1"/><rect class="cls-1" x="17.44" y="30.54" width="29.15" height="2.59" rx="1"/><rect class="cls-1" x="65.31" y="48.01" width="15.78" height="2.6" rx="1"/><rect class="cls-1" x="32.02" y="48.01" width="15.78" height="2.6" rx="1"/><path class="cls-1" d="M71.9,13a1,1,0,0,1-.88-.53s-1.18-2.08-3.19-2.08a4.08,4.08,0,0,0-3.2,2.08,1,1,0,1,1-1.76-.94c.07-.13,1.73-3.14,5-3.14s4.88,3,5,3.14A1,1,0,0,1,71.9,13Z"/><path class="cls-1" d="M49.36,13a1,1,0,0,1-.89-.53s-1.17-2.08-3.19-2.08a4.13,4.13,0,0,0-3.19,2.09,1,1,0,0,1-1.76-1c.07-.13,1.73-3.14,5-3.14s4.89,3,4.95,3.14A1,1,0,0,1,49.36,13Z"/></g></g></svg>