<svg xmlns="http://www.w3.org/2000/svg" viewBox="0 0 70.56 89.5"><defs><style>.cls-1{fill:#575653;}.cls-2{fill:#fff;}</style></defs><title>Asset 17</title><g id="Layer_2" data-name="Layer 2"><g id="Icons"><path class="cls-1" d="M60.26,42.06c0-1.1.2-1.14.53-.1l9.69,31a1.39,1.39,0,0,1-1.41,1.91H63.45a2.09,2.09,0,0,1-2.07-2Z"/><path class="cls-1" d="M10.3,41.81c0-1.1-.19-1.14-.52-.1l-9.69,31a1.39,1.39,0,0,0,1.4,1.91H7.11a2.1,2.1,0,0,0,2.08-2Z"/><path class="cls-1" d="M58.53,85.45H12L6.89,74.83,9.74,25.54a25.54,25.54,0,0,1,51.08,0l2.85,49.29Z"/><path class="cls-2" d="M35.28,19.35a9,9,0,1,1-9-9A9,9,0,0,1,35.28,19.35Z"/><path class="cls-2" d="M53.19,19.35a9,9,0,1,1-9-9A9,9,0,0,1,53.19,19.35Z"/><path class="cls-2" d="M53.19,64a14,14,0,0,1-14,14H31.37a14,14,0,0,1-14-14V35.8c0-7.7,4-14.81,9-15.82a53.84,53.84,0,0,1,17.91,0c4.93,1,9,8.12,9,15.82Z"/><path class="cls-1" d="M28.78,21.8a2.46,2.46,0,1,1-2.46-2.45A2.47,2.47,0,0,1,28.78,21.8Z"/><path class="cls-1" d="M47.58,21.8a2.46,2.46,0,1,1-2.46-2.45A2.47,2.47,0,0,1,47.58,21.8Z"/><path class="cls-1" d="M39.45,30c0,1.05-1.88,5.12-4.17,5.12S31.11,31.07,31.11,30s1.87-1.93,4.17-1.93S39.45,29,39.45,30Z"/><path class="cls-2" d="M30.46,88A9.66,9.66,0,0,0,12,88Z"/><path class="cls-1" d="M32.5,89.5H10l.61-2a11.16,11.16,0,0,1,21.31,0Zm-18.16-3H28.13a8.17,8.17,0,0,0-13.79,0Z"/><path class="cls-2" d="M58.53,88a9.65,9.65,0,0,0-18.44,0Z"/><path class="cls-1" d="M60.57,89.5H38.06l.6-1.94a11.16,11.16,0,0,1,21.31,0Zm-18.15-3H56.21a8.17,8.17,0,0,0-13.79,0Z"/></g></g></svg>