<svg xmlns="http://www.w3.org/2000/svg" viewBox="0 0 119.42 94"><defs><style>.cls-1{fill:#fff;}.cls-2{fill:#575653;}</style></defs><title>Asset 20</title><g id="Layer_2" data-name="Layer 2"><g id="Icons"><path class="cls-1" d="M107.87,36.44V83a8.48,8.48,0,0,1-8.47,8.46H85.55V74.24H55.15V83a8.48,8.48,0,0,1-8.47,8.46H32.82V21.12a8.48,8.48,0,0,1,8.47-8.45H85.41C99.5,12.67,107.87,25.15,107.87,36.44Z"/><path class="cls-2" d="M99.4,94H83V76.79H57.7V83a11,11,0,0,1-11,11H30.27V21.12a11,11,0,0,1,11-11H85.41c15.45,0,25,13.66,25,26.32V83A11,11,0,0,1,99.4,94ZM88.1,88.89H99.4A5.92,5.92,0,0,0,105.31,83V36.44c0-10.2-7.61-21.21-19.9-21.21H41.29a5.91,5.91,0,0,0-5.92,5.89V88.89H46.68A5.92,5.92,0,0,0,52.59,83V71.68H88.1Z"/><path class="cls-1" d="M61,7.17l-8.93,36a9.46,9.46,0,0,1-8.7,6.8H37.09L23.26,53.81,20,68.41a12.65,12.65,0,0,0,.31,5.19c.76,2.74,4,5.43,4,5.43l-8.19,5.8a36.5,36.5,0,0,1-6.47-8.9c-1.9-4.12-2-9.78-2-9.78l-5-29.83,5-16.63a7,7,0,0,1,7-7H25.81A42.41,42.41,0,0,0,39.31,10L56.19,3C59.75,1.57,61.9,3.43,61,7.17Z"/><path class="cls-2" d="M15.84,88.15l-1.52-1.5a38.89,38.89,0,0,1-7-9.65A30.76,30.76,0,0,1,5.11,66.39L0,36.15,5.12,19.28a9.58,9.58,0,0,1,9.56-9.16H25.81A40,40,0,0,0,38.34,7.64l16.88-7c3-1.25,5.83-.75,7.37,1.22.81,1,1.61,2.88.88,5.88l-8.93,36a12,12,0,0,1-11.18,8.74H37.44l-12,3.37-2.91,13a10.58,10.58,0,0,0,.27,4c.42,1.49,2.31,3.44,3.17,4.15l2.54,2.13ZM5.24,36.48l5,29.63A25.9,25.9,0,0,0,12,74.86a29.92,29.92,0,0,0,4.5,6.59l3.91-2.77a12.23,12.23,0,0,1-2.52-4.39,15.11,15.11,0,0,1-.36-6.35l3.6-16.18,15.64-4.38h6.62a7,7,0,0,0,6.23-4.87L58.51,6.56a2.83,2.83,0,0,0,.08-1.45,2.47,2.47,0,0,0-1.42.29l-16.88,7a44.56,44.56,0,0,1-14.48,2.87H14.68a4.46,4.46,0,0,0-4.46,4.46v.38Z"/><path class="cls-2" d="M22.54,37.24a3.65,3.65,0,1,1-3.65-3.65A3.64,3.64,0,0,1,22.54,37.24Z"/><path class="cls-2" d="M118.19,52.72h-5.11V41.16a5.49,5.49,0,0,0-1.55-3,7.59,7.59,0,0,0-4-1.77l.56-5.08a12.61,12.61,0,0,1,7,3.24,10.46,10.46,0,0,1,3,6.38V52.72Z"/><path class="cls-2" d="M119.42,56.07c0,2.59-2.78,7.18-3.78,7.18s-3.78-4.59-3.78-7.18,1.69-4.66,3.78-4.66S119.42,53.51,119.42,56.07Z"/><rect class="cls-2" x="4.3" y="49.57" width="7.94" height="2.1" rx="1.02"/><rect class="cls-2" x="4.3" y="44.69" width="7.94" height="2.1" rx="1.02"/><rect class="cls-2" x="4.3" y="39.82" width="7.94" height="2.1" rx="1.02"/></g></g></svg>