<svg xmlns="http://www.w3.org/2000/svg" viewBox="0 0 87.04 98"><defs><style>.cls-1{fill:#fff;}.cls-2{fill:#575653;}</style></defs><title>Asset 11</title><g id="Layer_2" data-name="Layer 2"><g id="Icons"><path class="cls-1" d="M65.83,78.77c0,13.51-10,16.27-22.3,16.27S21.21,92.28,21.21,78.77s10-29.2,22.32-29.2S65.83,65.26,65.83,78.77Z"/><path class="cls-2" d="M43.53,97.07c-21.81,0-24.34-10.45-24.34-18.3,0-14.44,10.63-31.23,24.34-31.23S67.85,64.33,67.85,78.77C67.85,95.17,54,97.07,43.53,97.07Zm0-45.48c-9.19,0-20.29,12.12-20.29,27.18C23.24,88.9,29.11,93,43.53,93S63.81,88.9,63.81,78.77C63.81,63.71,52.71,51.59,43.53,51.59Z"/><path class="cls-1" d="M66.4,41.52a9,9,0,0,1-8.8,8H29.46a9.05,9.05,0,0,1-8.81-8l-2.8-30.94a7.27,7.27,0,0,1,7.36-8H61.84a7.27,7.27,0,0,1,7.36,8.05Z"/><path class="cls-2" d="M57.6,52.09H29.46A11.59,11.59,0,0,1,18.14,41.74L15.34,10.8A9.8,9.8,0,0,1,25.21,0H61.84a9.8,9.8,0,0,1,9.87,10.8L68.92,41.74A11.59,11.59,0,0,1,57.6,52.09Zm-32.39-47a4.74,4.74,0,0,0-4.84,5.3l2.8,30.94A6.52,6.52,0,0,0,29.46,47H57.6a6.52,6.52,0,0,0,6.29-5.75l2.79-30.94a4.74,4.74,0,0,0-4.84-5.3Z"/><path class="cls-2" d="M68.62,8.53c-.46-3.3,1.66-4.9,4.7-3.54L83.94,9.71a4.94,4.94,0,0,1,2.16,7.5L76,32.31c-1.85,2.77-3.74,2.33-4.2-1Z"/><path class="cls-2" d="M18.42,8.53c.46-3.3-1.66-4.9-4.7-3.54L3.11,9.71a4.94,4.94,0,0,0-2.17,7.5l10.12,15.1c1.85,2.77,3.74,2.33,4.2-1Z"/><path class="cls-1" d="M39.17,37.76c0,.23,0,.45,0,.69,0,3.23,2,5.86,4.39,5.86s4.37-2.63,4.37-5.86c0-.24,0-.46,0-.69l-4.35-1Z"/><path class="cls-2" d="M48.65,37.68l-.06-.7h-1.3c0,.54-.16,1.56-.16,1.56,0,2.77-1.64,5-3.6,5s-3.57-2.22-3.61-5c0,0-.13-1-.17-1.56H38.46l-.07.7c0,.26,0,.5,0,.77,0,3.66,2.31,6.64,5.17,6.64s5.16-3,5.16-6.64A6.51,6.51,0,0,0,48.65,37.68Z"/><path class="cls-2" d="M48.28,32.73c0,1.36-3.49,3.78-4.75,3.78s-4.76-2.42-4.76-3.78,2.13-2.46,4.76-2.46S48.28,31.37,48.28,32.73Z"/><path class="cls-2" d="M40.29,38.77a5.08,5.08,0,0,1-4.09-2.25,1,1,0,0,1,1.71-1.08,3,3,0,0,0,2.38,1.31,3,3,0,0,0,2.38-1.31,1,1,0,0,1,1.71,1.08A5.08,5.08,0,0,1,40.29,38.77Z"/><path class="cls-2" d="M46.75,38.77a5.08,5.08,0,0,1-4.08-2.25,1,1,0,0,1,1.71-1.08,3,3,0,0,0,2.37,1.31,3.08,3.08,0,0,0,2.38-1.3,1,1,0,0,1,1.71,1.07A5,5,0,0,1,46.75,38.77Z"/><path class="cls-2" d="M44.21,39.64c0,.56-.31,1-.69,1s-.68-.45-.68-1V37.73c0-.55.31-1,.68-1s.69.46.69,1Z"/><path class="cls-2" d="M67.59,10.7s-5,24.57-6.32,24.35c-.59-.09-1.17-.21-1.75-.35A25.15,25.15,0,0,1,40.26,10.27a26.14,26.14,0,0,1,.67-5.79h21A5.61,5.61,0,0,1,67.59,10.7Z"/><path class="cls-1" d="M57.61,21.32A4.58,4.58,0,1,1,53,16.74,4.58,4.58,0,0,1,57.61,21.32Z"/><path class="cls-2" d="M53,26.41a5.09,5.09,0,1,1,5.08-5.09A5.11,5.11,0,0,1,53,26.41Zm0-9.17a4.08,4.08,0,1,0,4.07,4.08A4.09,4.09,0,0,0,53,17.24Z"/><path class="cls-2" d="M55.47,22.28A2.44,2.44,0,1,1,53,19.84,2.43,2.43,0,0,1,55.47,22.28Z"/><path class="cls-1" d="M38.6,21.32A4.59,4.59,0,1,1,34,16.74,4.59,4.59,0,0,1,38.6,21.32Z"/><path class="cls-2" d="M34,27.42a6.1,6.1,0,1,1,6.1-6.1A6.11,6.11,0,0,1,34,27.42Zm0-9.17a3.07,3.07,0,1,0,3.07,3.07A3.08,3.08,0,0,0,34,18.25Z"/><path class="cls-2" d="M36.45,22.28A2.44,2.44,0,1,1,34,19.84,2.43,2.43,0,0,1,36.45,22.28Z"/><path class="cls-1" d="M61,57.57a6.86,6.86,0,0,0-7-8H33a6.85,6.85,0,0,0-7,8l2.51,18.05c.61,4.41-.05,10.68-1.46,13.93s-1,5.92.82,5.92H59.17c1.87,0,2.24-2.66.83-5.92S57.93,80,58.54,75.62Z"/><path class="cls-2" d="M59.17,98H27.88a4,4,0,0,1-3.39-1.82c-1.17-1.79-1.08-4.57.25-7.64C26,85.69,26.57,79.93,26,76l-2.52-18A9.39,9.39,0,0,1,33,47h21.1a9.39,9.39,0,0,1,9.47,10.88L61,76c-.55,4,0,9.72,1.27,12.58,1.33,3.06,1.42,5.85.25,7.63A4,4,0,0,1,59.17,98ZM28.73,93H58.32a7,7,0,0,0-.64-2.39c-1.6-3.69-2.32-10.4-1.64-15.28l2.5-18.06a4.35,4.35,0,0,0-4.47-5.13H33a4.34,4.34,0,0,0-4.46,5.13L31,75.28c.68,4.88,0,11.59-1.65,15.28A7.22,7.22,0,0,0,28.73,93Z"/><rect class="cls-2" x="41.87" y="66.29" width="3.31" height="29.18"/><path class="cls-2" d="M43.53,67.37A5.85,5.85,0,0,1,39.59,66a1.51,1.51,0,0,1,2-2.23,3.47,3.47,0,0,0,3.75,0A1.52,1.52,0,1,1,47.47,66,5.87,5.87,0,0,1,43.53,67.37Z"/><path class="cls-2" d="M66.5,82.08a2.53,2.53,0,0,1-.94-4.87c.08,0,3.15-1.31,4.35-3.79a7.74,7.74,0,0,0,.85-4.53,2.54,2.54,0,0,1,1.93-3,2.5,2.5,0,0,1,3,1.87,12.38,12.38,0,0,1-1.22,7.85,14.12,14.12,0,0,1-7,6.28A2.67,2.67,0,0,1,66.5,82.08Z"/></g></g></svg>