<svg xmlns="http://www.w3.org/2000/svg" viewBox="0 0 94.5 89"><defs><style>.cls-1{fill:#fff;}.cls-2{fill:#575653;}</style></defs><title>Asset 7</title><g id="Layer_2" data-name="Layer 2"><g id="Icons"><path class="cls-1" d="M91.8,69.37C90.45,77.08,79.65,86.08,61,86.48c-16.57.35-27.18-4.68-33.75-10.63-5.17-4.68-9.62-11.94-10-27.63L3.12,22.86a4.12,4.12,0,0,1-.46-3.3L8,4.28A1.34,1.34,0,0,1,8.4,3.6,1.47,1.47,0,0,1,9.89,2.5H47.21a1.47,1.47,0,0,1,1.5,1.13,1.43,1.43,0,0,1,.37.65l5.34,15.28a4.16,4.16,0,0,1-.46,3.3l-14,25.36c-.61,3.64,1,13,3.18,11.35a45.54,45.54,0,0,1,21.32-7.3C85.3,51,93.43,60.12,91.8,69.37Z"/><path class="cls-2" d="M59.36,89c-14,0-25.65-3.9-33.82-11.29-7-6.37-10.39-15.27-10.84-28.81L1,24.16A6.67,6.67,0,0,1,.3,18.74L5.63,3.45a4.74,4.74,0,0,1,.59-1.17A4,4,0,0,1,9.89,0H47.21a4,4,0,0,1,3.73,2.42,5.07,5.07,0,0,1,.49,1l5.35,15.32a6.67,6.67,0,0,1-.68,5.42L42.34,49a22.87,22.87,0,0,0,.86,7.48,49.32,49.32,0,0,1,21.07-6.74c1.33-.07,2.63-.11,3.88-.11C81.5,49.66,88,54,91,57.68A14.62,14.62,0,0,1,94.27,69.8C92.65,79,80.71,88.56,61,89ZM10.24,5.4,5,20.38a1.82,1.82,0,0,0,.15,1.05l.13.21,14.36,25.9,0,.61c.43,15.9,5.15,22.17,9.22,25.85,7.33,6.64,17.58,10,30.46,10l1.56,0c18.85-.4,27.44-9.44,28.42-15a9.58,9.58,0,0,0-2.13-8c-3.81-4.54-12-6.76-22.64-6.12a43.4,43.4,0,0,0-20,6.83,3.32,3.32,0,0,1-2,.65h0a3.49,3.49,0,0,1-2.69-1.34C37.62,58.21,37,50.79,37.46,47.8l.07-.42,14.38-26a1.79,1.79,0,0,0,.14-1.05L46.78,5.27,46.46,5H10.63l-.05.2Z"/><path class="cls-1" d="M22.77,70.91s-7.94,5.34-14.28,1.86c-3.56-2-5.39.14-1.47,4,3.17,3.13,7.67,4.79,13.49,5.38A22.3,22.3,0,0,0,33,80.08a30.8,30.8,0,0,1-4.9-3.57A39.37,39.37,0,0,1,22.77,70.91Z"/><path class="cls-2" d="M23.15,84.79h0a28.46,28.46,0,0,1-2.9-.15C13.64,84,8.73,82,5.26,78.56,2,75.38,2,73.09,2.59,71.73a3.65,3.65,0,0,1,3.54-2.2,7.48,7.48,0,0,1,3.56,1,7.4,7.4,0,0,0,3.62.87c4.06,0,8-2.59,8.06-2.61l2-1.33,1.42,1.9a37.82,37.82,0,0,0,4.91,5.21,28.9,28.9,0,0,0,4.46,3.26l4.14,2.25L34.1,82.3A24.06,24.06,0,0,1,23.15,84.79ZM10,76c2.58,2,6.13,3.17,10.81,3.64.8.08,1.61.12,2.39.12a20.88,20.88,0,0,0,4.39-.45c-.36-.29-.74-.6-1.13-.94a43.18,43.18,0,0,1-4.25-4.28,20.45,20.45,0,0,1-8.85,2.33A13.22,13.22,0,0,1,10,76Z"/><path class="cls-2" d="M59.79,69.38a31.37,31.37,0,0,1-7.29-.86C41.08,65.82,39,59.45,38.77,58.73a2.5,2.5,0,0,1,4.8-1.41c.09.27,1.66,4.34,10.08,6.34a23.71,23.71,0,0,0,12.69-.2,2.5,2.5,0,1,1,1.77,4.67A25.17,25.17,0,0,1,59.79,69.38Z"/><path class="cls-2" d="M33.08,19.14a1.43,1.43,0,0,1-1.33,1.5,1.36,1.36,0,0,1-1.26-1L32.57,18A1.56,1.56,0,0,1,33.08,19.14Z"/><path class="cls-2" d="M32.91,28.77H23.34L8.82,5.83a1.5,1.5,0,1,1,2.54-1.6L25,25.76h6.27L44.9,4.23a1.5,1.5,0,1,1,2.53,1.6Z"/><path class="cls-2" d="M23.18,19.14a1.43,1.43,0,0,0,1.33,1.5,1.36,1.36,0,0,0,1.26-1L23.69,18A1.56,1.56,0,0,0,23.18,19.14Z"/><rect class="cls-2" x="13.71" y="40.74" width="7.17" height="2.37" rx="1"/><rect class="cls-2" x="10.96" y="35.81" width="8.49" height="2.38" rx="1"/><rect class="cls-2" x="8.23" y="30.9" width="9.03" height="2.37" rx="1"/><rect class="cls-2" x="35.93" y="40.74" width="7.48" height="2.37" rx="1"/><rect class="cls-2" x="36.8" y="35.81" width="9.36" height="2.38" rx="1"/><rect class="cls-2" x="38.99" y="30.9" width="10" height="2.37" rx="1"/><path class="cls-2" d="M61.32,83.3c-1.19,0-2.48,0-3.86-.09-12.86-.57-24-5.45-29.74-13-5.55-7.33-5.17-17.82-5.15-18.27a1.5,1.5,0,1,1,3,.13c0,.1-.34,9.87,4.55,16.32,5.23,6.9,15.5,11.33,27.48,11.87,9.68.43,14.34-.87,18.45-2,6.21-1.72,10.08-4.74,11.64-7A8.45,8.45,0,0,0,89,64.15a1.5,1.5,0,1,1,2.84-1,11.46,11.46,0,0,1-1.7,9.74c-2.41,3.48-7.38,6.54-13.31,8.18A51.15,51.15,0,0,1,61.32,83.3Z"/><polygon class="cls-2" points="31.63 40.49 28.13 35.59 24.63 40.49 25.87 27.27 30.23 27.27 31.63 40.49"/></g></g></svg>