<svg xmlns="http://www.w3.org/2000/svg" viewBox="0 0 144.04 58.73"><defs><style>.cls-1{fill:#fff;}.cls-2{fill:#575653;}</style></defs><title>Asset 24</title><g id="Layer_2" data-name="Layer 2"><g id="Icons"><path class="cls-1" d="M3.6,27.72C8.35,21.87,21.52-1.48,41.16,3.09c17.27,4,37,25.11,51.78,30.66,8.49,3.17,12.35,3.41,13.11-.11.3-1.37,4.72,4.74-1.64,11.57-4.14,4.46-13.34,6.3-23.24,7.54-19.76,2.47-44.61,6-58.8.73C9.83,48.8-1.07,33.46,3.6,27.72Z"/><path class="cls-2" d="M42.31,58.73c-8.77,0-15.58-.95-20.81-2.91-9.34-3.48-18.77-13-21-21.29-1.17-4.29,0-6.93,1.17-8.39C2.26,25.41,3,24.32,4,23.05,9.72,15,20.47,0,36.12,0a25,25,0,0,1,5.61.65C51.91,3,62.47,10.73,72.69,18.19c7.68,5.6,14.94,10.9,21.13,13.21,4.14,1.55,7,2.31,8.64,2.31,1,0,1.05-.16,1.15-.6A2.69,2.69,0,0,1,106.24,31c1.36,0,2.54,1,3.32,2.76,1.38,3.17,1.23,8.31-3.32,13.21-4.81,5.18-14.74,7-24.76,8.31l-3.37.42C66.7,57.09,53.76,58.73,42.31,58.73ZM36.12,5C23,5,13.26,18.64,8,26c-1,1.33-1.78,2.48-2.47,3.33-.84,1-.51,2.9-.23,3.92,1.64,6,9.24,14.68,17.94,17.91,4.66,1.75,10.9,2.6,19.06,2.6,11.13,0,23.91-1.62,35.18-3l3.37-.43c8.14-1,18-2.7,21.72-6.75a9.3,9.3,0,0,0,2.72-5.31,7.44,7.44,0,0,1-2.84.51c-2.35,0-5.56-.81-10.39-2.62C85.24,33.53,77.71,28,69.74,22.22,59.93,15.07,49.79,7.66,40.6,5.52A20.27,20.27,0,0,0,36.12,5Z"/><path class="cls-2" d="M5.3,25.13c6.88-7.82,14-21,27.54-22.85S61.19,16.06,76.4,24.66s26.09,12.91,28.14,11.76,3,.41,1.46,4.6-13.41,4.39-22,3c-7.56-1.25-27.86-7.94-34.19-9.3-2-.43,3.59,16.52.81,15.93-3.2-.68-19-19.16-20.89-19.62C13.32,27.1,7.79,27.86,5.47,34c-.69,1.8.58,6.33.58,6.33S-1.4,32.73,5.3,25.13Z"/><path class="cls-2" d="M103.52,26.74c.25-3.11-.21-13.12,5.15-17.71,3.35-2.88,6.16-3.64,8.12-4.61s1.49.26.78,1.51a7.75,7.75,0,0,0-.84,4.6,33.81,33.81,0,0,0,2.52,8.81,6,6,0,0,1-.54,5.87c-.5.85-4,4-2.16,3.32,2.82-1,6.73-1.69,8.44-.4s4.19,5.6,7.28,9.74,8.52,4.51,10.58,4.39,1.25,1.5-.91,3.3c-2.33,2-9,9.77-21.66,3.26s-17-13.4-17-13.4Z"/><path class="cls-1" d="M28.44,17.35a2.17,2.17,0,1,1-2.17-2.17A2.17,2.17,0,0,1,28.44,17.35Z"/></g></g></svg>