<svg xmlns="http://www.w3.org/2000/svg" viewBox="0 0 60.71 90"><defs><style>.cls-1{fill:#fff;}.cls-2{fill:#575653;}</style></defs><title>Asset 4</title><g id="Layer_2" data-name="Layer 2"><g id="Icons"><path class="cls-1" d="M50.59,83.84a3.79,3.79,0,0,1-3.79,3.79H41a6.15,6.15,0,0,1-5.25-3.5L17.14,39.58a3.75,3.75,0,0,1,2.06-4.91L47.07,23.5a2.39,2.39,0,0,1,3.52,2.38Z"/><path class="cls-2" d="M46.8,90H41a8.46,8.46,0,0,1-7.43-5L15,40.49a6.09,6.09,0,0,1,3.36-8L46.19,21.3a5.66,5.66,0,0,1,2.1-.42,4.68,4.68,0,0,1,4.67,5v58A6.16,6.16,0,0,1,46.8,90Zm1.4-64.38a.83.83,0,0,0-.24.08L20.08,36.87a1.36,1.36,0,0,0-.75.74,1.39,1.39,0,0,0,0,1.06L37.89,83.22a3.79,3.79,0,0,0,3.06,2H46.8a1.44,1.44,0,0,0,1.42-1.42v-58A1.61,1.61,0,0,0,48.2,25.62Z"/><path class="cls-2" d="M10,51a15.09,15.09,0,0,0,.67,4.48,18.6,18.6,0,0,1,2.55-34.63,17.81,17.81,0,0,0-.56,3.29c-.05.52-.07,1-.07,1.57v.1a18.88,18.88,0,0,0,3.1,10.28.15.15,0,0,0,.05.08c.44.67,2.16,2.63,2.7,3.24C14.11,42.07,10,45.54,10,51Z"/><path class="cls-1" d="M50.59,25.71A18.85,18.85,0,0,1,49.52,32,19,19,0,0,1,17.2,38.11a18.43,18.43,0,0,1-1.47-2,.16.16,0,0,1-.05-.08A18.88,18.88,0,0,1,12.59,25.8v-.09c0-.52,0-1.05.06-1.58a19.43,19.43,0,0,1,.57-3.27,18.3,18.3,0,0,1,1.45-3.8A19,19,0,0,1,31.6,6.71c9.95,0,18.13-9.76,18.92,0C50.58,7.23,50.59,25.19,50.59,25.71Z"/><path class="cls-2" d="M31.6,47.07a21.39,21.39,0,0,1-16.2-7.41,19.94,19.94,0,0,1-1.6-2.12,2.72,2.72,0,0,1-.16-.25,21.2,21.2,0,0,1-3.42-11.48v-.1c0-.6,0-1.19.07-1.76a21.19,21.19,0,0,1,.65-3.71A20,20,0,0,1,12.57,16a21.26,21.26,0,0,1,19-11.63c3.4,0,6.68-1.34,9.57-2.53C43.54.84,45.59,0,47.47,0c2.23,0,5,1.13,5.41,6.52.08.67.08,19,.08,19.19A21.31,21.31,0,0,1,36.39,46.52,20.33,20.33,0,0,1,31.6,47.07ZM17.79,35A16,16,0,0,0,19,36.56,16.63,16.63,0,0,0,31.6,42.34a16.26,16.26,0,0,0,3.72-.43,16.74,16.74,0,0,0,12-10.67,16.35,16.35,0,0,0,.94-5.53c0-2.6,0-17.87-.06-18.84h0a4.19,4.19,0,0,0-.52-2.13h-.17A17.09,17.09,0,0,0,43,6.19c-3.14,1.29-7,2.89-11.37,2.89a16.56,16.56,0,0,0-14.82,9.06,16,16,0,0,0-1.27,3.31,16.84,16.84,0,0,0-.5,2.9c0,.43,0,.9,0,1.36a16.61,16.61,0,0,0,2.7,9.07Z"/><path class="cls-1" d="M36.15,23.75A7.2,7.2,0,1,1,29,16.56,7.21,7.21,0,0,1,36.15,23.75Z"/><path class="cls-2" d="M29,32.37a8.62,8.62,0,1,1,8.62-8.62A8.63,8.63,0,0,1,29,32.37ZM29,18a5.78,5.78,0,1,0,5.78,5.77A5.78,5.78,0,0,0,29,18Z"/><path class="cls-1" d="M7.61,32.26c-1,1-2.32,1.3-2.94.68S4.35,31,5.35,30s2.32-1.3,2.94-.68S8.61,31.26,7.61,32.26Z"/><path class="cls-2" d="M60.71,76.88C50.13,75.71,35.91,64.55,35.05,52.8A18.65,18.65,0,0,1,36,45.73,21.32,21.32,0,0,0,51.28,32.06a14.32,14.32,0,0,1,1.57-.27Z"/><path class="cls-2" d="M31.09,25.26a3.83,3.83,0,1,1-3.82-3.82A3.82,3.82,0,0,1,31.09,25.26Z"/><path class="cls-1" d="M44.87,47a1,1,0,0,1,1.1.77l1.8,10.27a.94.94,0,0,1-.76,1.1l-.6.1a1,1,0,0,1-1.1-.77L43.5,48.22a1,1,0,0,1,.77-1.1Z"/><path class="cls-1" d="M49.61,42.88a1,1,0,0,1,1.09.77l3.47,19.68a.94.94,0,0,1-.77,1.09l-.59.11a1,1,0,0,1-1.09-.77L48.25,44.09A1,1,0,0,1,49,43Z"/></g></g></svg>