<svg xmlns="http://www.w3.org/2000/svg" viewBox="0 0 114.75 88"><defs><style>.cls-1{fill:#fff;}.cls-2{fill:#575653;}</style></defs><title>Asset 16</title><g id="Layer_2" data-name="Layer 2"><g id="Icons"><path class="cls-1" d="M99.38,56.47a23.7,23.7,0,0,1-2.31,10.18c-.5,1.06,22,6.68,13.36,14.61-1.86,1.71-25.2-1.72-27.56-.48a44,44,0,0,1-20.53,4.89c-20.46,0-34.45-13.08-34.45-29.2a23.06,23.06,0,0,1,.23-3.23L26.06,25.51A8.74,8.74,0,0,1,20,28c-4.5-.11-5.56-1.65-6.63-2.86a10.3,10.3,0,0,1-3.38.69C3,25.59,1.91,20,1.83,19c-.7-8.84,8.05-9,8.05-9,6.61-8.72,25.95-13,40.09,3,4.49,5.1,12.4,14.23,12.4,14.23C82.83,27.3,99.38,40.37,99.38,56.47Z"/><path class="cls-2" d="M114.66,76.62c-.83-4.78-7.18-7.82-13.62-10.51l-1-.44a25.93,25.93,0,0,0,1.69-9.2c0-17.07-17.07-31-38.27-31.5-2-2.33-8-9.28-11.72-13.44C45.17,4.09,36.66,0,27.76,0,19.28,0,11.52,3.83,8,9.75a1.69,1.69,0,0,0,1.63,1.32c1.68,0,2.91.4,3.07.17A10.2,10.2,0,0,1,14,9.71c3.22-3.09,8.36-5.05,13.81-5.05,7.55,0,14.81,3.53,20.47,9.94,4.43,5,12.3,14.12,12.38,14.22l.7.8h1.06c19.12,0,34.69,12.05,34.69,26.85A21.36,21.36,0,0,1,95,65.66l-.42,1,.36.92c.46,1.21,1.44,1.62,4.34,2.84s10.37,4.35,10.83,7c.1.53-.23,1.16-1,1.89a13.7,13.7,0,0,1-2.21.12c-2.82,0-7.05-.32-11.14-.64s-7.8-.61-10.34-.61a7.83,7.83,0,0,0-3.63.55,41.75,41.75,0,0,1-19.45,4.62C44,83.34,30.22,71.79,30.22,56.47a22.75,22.75,0,0,1,.2-2.92l0-.24L28.13,22,23.83,27l2,26.14a26.56,26.56,0,0,0-.21,3.29c0,18,15.81,31.53,36.77,31.53a46.51,46.51,0,0,0,21.48-5.09,11.42,11.42,0,0,1,1.6-.08c2.36,0,6.07.29,10,.59,4.17.32,8.49.66,11.49.66s4.21-.29,5.1-1.1C114.68,80.53,114.93,78.16,114.66,76.62Z"/><path class="cls-2" d="M33.6,11.89a2.31,2.31,0,1,1-2.31-2.32A2.31,2.31,0,0,1,33.6,11.89Z"/><path class="cls-2" d="M15.74,25.26a9.16,9.16,0,0,1-2.49,1.51,9.42,9.42,0,0,1-3.64.72,9.61,9.61,0,1,1,0-19.21,9.23,9.23,0,0,1,1.05.05A4.83,4.83,0,0,0,9.74,11l-.09.12h0a6.82,6.82,0,1,0,0,13.63,6.59,6.59,0,0,0,1.89-.27A6.4,6.4,0,0,0,14,23.1,6.43,6.43,0,0,0,15.74,25.26Z"/><path class="cls-2" d="M17.39,45.21a31.31,31.31,0,0,1,3.95-15.87q-2.89-1.86-5.81-3.69a35.32,35.32,0,0,0-4,17c0,13.79,6.7,25,15,25,.76,0,.93-.72.31-1.05C21.34,63.73,17.39,55.24,17.39,45.21Z"/><path class="cls-2" d="M6,42.56A31.27,31.27,0,0,1,10,26.7C8.05,25.45,6.11,24.23,4.17,23a35.33,35.33,0,0,0-4,17c0,13.78,6.71,25,15,25,.77,0,.94-.72.31-1C10,61.09,6,52.59,6,42.56Z"/><path class="cls-2" d="M29.6,20A9.62,9.62,0,0,1,20,29.57a9.51,9.51,0,0,1-6.75-2.8,9.12,9.12,0,0,1-1.75-2.34A6.4,6.4,0,0,0,14,23.1a6.43,6.43,0,0,0,1.78,2.16A6.73,6.73,0,0,0,20,26.77,6.82,6.82,0,0,0,26.81,20a6.42,6.42,0,0,0-.32-2,1.46,1.46,0,0,1-.21-.75A1.43,1.43,0,0,1,29.13,17,9.18,9.18,0,0,1,29.6,20Z"/></g></g></svg>