<svg xmlns="http://www.w3.org/2000/svg" viewBox="0 0 83.57 102"><defs><style>.cls-1{fill:#fff;}.cls-2{fill:#575653;}</style></defs><title>Asset 8</title><g id="Layer_2" data-name="Layer 2"><g id="Icons"><path class="cls-1" d="M81,71c0,15.69-17.54,28.42-39.17,28.42S2.61,86.66,2.61,71s17.54-28.4,39.18-28.4S81,55.29,81,71Z"/><path class="cls-2" d="M41.79,102C18.75,102,0,88.08,0,71S18.75,40,41.79,40,83.57,53.87,83.57,71,64.83,102,41.79,102Zm0-56.82C21.63,45.18,5.23,56.75,5.23,71s16.4,25.8,36.56,25.8S78.34,85.2,78.34,71,62,45.18,41.79,45.18Z"/><polygon class="cls-2" points="56.62 57.36 57.71 60.75 47.48 60.75 41.56 62.94 35.64 60.75 25.4 60.75 26.34 57.29 19.76 54.86 27.79 51.9 28.56 49.05 35.44 49.07 41.56 46.81 47.75 49.09 53.96 49.11 54.79 51.7 63.34 54.86 56.62 57.36"/><path class="cls-1" d="M46.91,51.69c.15,3.45-2.26,6.28-5.36,6.28s-5.5-2.83-5.35-6.28L36.45,46c.15-3.45,2.45-6.27,5.11-6.27s4.95,2.82,5.1,6.27Z"/><path class="cls-2" d="M41.55,59.54a6.65,6.65,0,0,1-4.81-2.09,7.9,7.9,0,0,1-2.11-5.82l.25-5.74c.19-4.29,3.18-7.78,6.68-7.78S48,41.6,48.23,45.89l.25,5.74a7.9,7.9,0,0,1-2.11,5.82A6.66,6.66,0,0,1,41.55,59.54Zm0-18.29c-1.81,0-3.43,2.18-3.55,4.77l-.25,5.74A4.83,4.83,0,0,0,39,55.28a3.54,3.54,0,0,0,5.09,0,4.78,4.78,0,0,0,1.24-3.52L45.1,46C45,43.43,43.36,41.25,41.56,41.25Z"/><path class="cls-2" d="M57.57,31.69c.82-2,1.29-11.3,1.29-13.62,0-7.91-5.31-12.32-12.56-13.61C45.35,4.29,48.05.06,47,0c-.59,0-4.88,4.06-5.48,4.06-.81,0-3.21-2.34-4-2.27s.3,2.5-.33,2.6c-7.46,1.19-13,5.62-13,13.68,0,2.32.46,11.6,1.29,13.62Z"/><path class="cls-1" d="M31.61,29.76c-.49,0-1,0-1.47,0a7.2,7.2,0,0,0-2.14.41,4.91,4.91,0,0,0-1.65,1.07,2.84,2.84,0,0,0-.88,2.51c.38,2.56,2.92,4.17,6.78,6.6l.66.42c1.47.94,3,2,4.58,3.13.6.43,1.15.87,1.66,1.26a11,11,0,0,0,2.41,1.61A11.52,11.52,0,0,0,44,45.2c.51-.39,1-.82,1.67-1.26,1.65-1.21,3.15-2.23,4.57-3.13l.68-.43c3.84-2.42,6.39-4,6.76-6.59a2.7,2.7,0,0,0-.74-2.35,5,5,0,0,0-1.77-1.23A7.34,7.34,0,0,0,53,29.8a32.36,32.36,0,0,0-5.46.2l-1.07.14-.45-1a15.09,15.09,0,0,0-1.37-2.28,3.5,3.5,0,0,0-2-1.16,4.29,4.29,0,0,0-1.15-.18,4.54,4.54,0,0,0-1.07.17,3.54,3.54,0,0,0-2,1.16,15.61,15.61,0,0,0-1.38,2.29l-.46,1L35.58,30A37,37,0,0,0,31.61,29.76Z"/><path class="cls-2" d="M41.57,48.4l-.27,0c-.7-.12-1.43-.64-2.94-1.79l-.52-.4c-.39-.3-.81-.63-1.26-1-1.45-1.06-3-2.1-4.51-3.08l-.67-.43c-4.06-2.56-7-4.41-7.48-7.69a4.35,4.35,0,0,1,1.31-3.84,6.93,6.93,0,0,1,2.16-1.42A8.31,8.31,0,0,1,30,28.24c.54,0,1.07,0,1.59,0a38.93,38.93,0,0,1,4.11.25A15.93,15.93,0,0,1,37.21,26,5,5,0,0,1,40,24.2,7.1,7.1,0,0,1,41.49,24a6.43,6.43,0,0,1,1.59.23A5,5,0,0,1,45.92,26a17.79,17.79,0,0,1,1.48,2.44,32,32,0,0,1,5.69-.2,8.21,8.21,0,0,1,2.67.54,6.54,6.54,0,0,1,2.32,1.63,4.26,4.26,0,0,1,1.1,3.64c-.48,3.25-3.41,5.1-7.48,7.66l-.66.42c-1.4.88-2.86,1.89-4.49,3.08-.48.34-.9.66-1.29,1l-.53.41c-1.52,1.17-2.21,1.65-2.9,1.77Zm-10-17.07c-.46,0-.93,0-1.38,0a5.74,5.74,0,0,0-1.6.27,3.75,3.75,0,0,0-1.17.75A1.26,1.26,0,0,0,27,33.55c.27,1.86,2.58,3.32,6.07,5.52l.67.42c1.6,1,3.17,2.09,4.66,3.19.48.34.93.69,1.35,1l.49.38c.34.26.88.67,1.29,1,.4-.28.94-.69,1.28-.94l.51-.4c.43-.33.88-.68,1.37-1,1.67-1.22,3.2-2.27,4.64-3.18l.67-.43c3.81-2.39,5.8-3.72,6.06-5.49a1.16,1.16,0,0,0-.35-1.07,3.55,3.55,0,0,0-1.23-.84,5.68,5.68,0,0,0-1.64-.28,28.76,28.76,0,0,0-5.11.19l-2.23.29-.94-2a13.74,13.74,0,0,0-1.22-2,2.08,2.08,0,0,0-1.09-.57,3.23,3.23,0,0,0-.77-.12,3.68,3.68,0,0,0-.67.12,2.25,2.25,0,0,0-1.06.54,14.48,14.48,0,0,0-1.18,1.92l-1,2.15-2.21-.29A33.4,33.4,0,0,0,31.61,31.33Z"/><path class="cls-1" d="M42.3,24.65A6,6,0,0,1,45,27.14a26.92,26.92,0,0,1,1.33,2.74,27.05,27.05,0,0,1,4.77-.22,15.86,15.86,0,0,0,.71-4.82c0-4.88-2-8.42-4.77-8.42S42.34,19.86,42.3,24.65Z"/><path class="cls-2" d="M45.7,31l-.31-.73a28.22,28.22,0,0,0-1.28-2.64,5,5,0,0,0-2.25-2.06l-.61-.28v-.67c0-5.46,2.44-9.27,5.81-9.27s5.81,3.89,5.81,9.47A17.19,17.19,0,0,1,52.12,30l-.24.78-.81-.05a26.67,26.67,0,0,0-4.58.22Zm-2.34-7a6.9,6.9,0,0,1,2.57,2.6c.44.78.8,1.52,1.07,2.12a32.88,32.88,0,0,1,3.34-.17,15.46,15.46,0,0,0,.44-3.74c0-4.21-1.6-7.38-3.72-7.38S43.55,20.24,43.36,24Z"/><path class="cls-1" d="M32.89,29.63a31.82,31.82,0,0,1,3.77.25A30.48,30.48,0,0,1,38,27.13a6.15,6.15,0,0,1,2.73-2.48c0-4.79-2-8.23-4.77-8.23S31.19,20,31.19,24.84a15.82,15.82,0,0,0,.7,4.82C32.22,29.63,32.56,29.63,32.89,29.63Z"/><path class="cls-2" d="M37.31,31l-.78-.1A24.62,24.62,0,0,0,32,30.7l-.82.05L30.89,30a17,17,0,0,1-.75-5.14c0-5.49,2.45-9.47,5.81-9.47s5.76,3.81,5.82,9.27v.67l-.61.28a5.12,5.12,0,0,0-2.27,2.06c-.66,1.21-1.11,2.25-1.28,2.64Zm-4.42-2.44a30.61,30.61,0,0,1,3.12.18c.26-.57.61-1.31,1.07-2.13A7,7,0,0,1,39.66,24c-.2-3.79-1.74-6.57-3.71-6.57-2.12,0-3.71,3.17-3.71,7.38a15.8,15.8,0,0,0,.43,3.74Z"/><path class="cls-2" d="M48.53,23.52c0,2.07-.66,3.76-1.5,3.76s-1.48-1.69-1.48-3.76.67-3.77,1.48-3.77S48.53,21.42,48.53,23.52Z"/><path class="cls-2" d="M37.57,23.52c0,2.07-.67,3.76-1.5,3.76s-1.5-1.69-1.5-3.76.68-3.77,1.5-3.77S37.57,21.42,37.57,23.52Z"/></g></g></svg>