<svg xmlns="http://www.w3.org/2000/svg" viewBox="0 0 116.03 95"><defs><style>.cls-1{fill:#fff;}.cls-2{fill:#575653;}</style></defs><title>Asset 9</title><g id="Layer_2" data-name="Layer 2"><g id="Icons"><path class="cls-1" d="M110.75,33.5c0,15.14-13.5,26.56-26.75,26.56-1.07,0-3.1-.24-4.14-.37-.7,4.83-4,9.41-6.74,12.46a30.07,30.07,0,0,1-20.71,10l0-9.43a27.14,27.14,0,0,0,10-15.81c2-10.11-.62-25.5-.62-25.5C60.87,18,72.5,8,86,8,101.14,8,110.75,19.38,110.75,33.5Z"/><path class="cls-2" d="M85.13,0C76.26,0,66,6.57,64.83,13.64c-.26,1.63-.32-6.49-1.44-5.68-7.71,5.54-10,15.77-8.5,21.3,0,0,4.12,13.11,3.79,23.12C58.26,65,51.91,69.62,51.91,69.62l.69,4.69c3.51-1.37,6.62-4.55,9.39-8.62,4.3-6.31,5.81-17.88,4.75-28.13C65.59,26.49,75.22,20.8,81.18,19.41,94,16.41,102.8,25.62,103.8,28c.28.67-6.5,1.33-5.81,1.57C104.8,32,105.88,42,103.05,47c-.17.29-5.72-3-5.56-2.5.83,2.78-.46,6.37-1.88,8.12-3.43,4.26-8.22,5.79-12.79,4.6a3.4,3.4,0,0,0,1.67-4.1c-1-3.07-5.74-2.44-6.25.07-.81,4-2.9,13.09-9.56,19.93-4.5,4.63-10.77,6.69-16.29,7.26,0,0-1.26,4.92-1.27,5S61.55,84.44,70,77.86c9.35-7.29,11.57-15.3,11.57-15.3,19.37,1.13,32.38-10.18,34.24-26.94C117.87,17,105.68,5.91,93.61,3.27c-3.36-.74-8.39-.44-10.49.79C82.7,4.3,85.75,0,85.13,0Z"/><path class="cls-1" d="M37.5,92.5H3.94c-1.68,0-1.9-1.61-.61-2.69l5.21-4.32a10,10,0,0,1,4.16-1.82,21.5,21.5,0,0,1-3-10.56c0-6.91,3.77-14.63,12.76-16l2.41-4.63H15a.92.92,0,0,1-.86-.56,1,1,0,0,1,.06-.94l6.71-10.38c4.41,3.68,11.21,3.31,12.29,3A16.07,16.07,0,0,0,44.3,34.88,14.62,14.62,0,0,1,45,37.51l6.88,34.13C53.5,79.75,51.91,92.5,37.5,92.5Z"/><path class="cls-2" d="M54.36,71.15l-6.87-34.1a9.2,9.2,0,0,0-.8-2.35l-4,3.8,6.78,33.62c.85,4.38.68,10.38-2.39,14.11C45,88.73,41.79,90,37.5,90H7l3.12-2.59a7.67,7.67,0,0,1,3-1.28l3.48-.66-1.79-3.06a19.17,19.17,0,0,1-2.7-9.3c0-5.49,2.79-12.34,10.65-13.56l1.25-.19,4.12-7.93c0-.1,0-.2,0-.31a11.42,11.42,0,0,0,0-1.17H17.74l4.31-6.45-3.94-3.66-6,9.71a3.48,3.48,0,0,0-.27,3.36A3.44,3.44,0,0,0,15,55h5.38C11.25,57.21,7.16,65.51,7.16,73.11a23.05,23.05,0,0,0,2,9.1A9.87,9.87,0,0,0,7,83.57L1.73,87.89A4.27,4.27,0,0,0,.22,92.58,3.79,3.79,0,0,0,3.94,95H37.5c5.85,0,10.37-1.88,13.43-5.59C56.18,83,54.89,73.82,54.36,71.15Z"/><path class="cls-1" d="M46,27.36a16.09,16.09,0,0,1-12.5,15.71c-1.17.28-10,2.23-15.38-3.39-.48-.5-7.81-.57-8.86-5s1.81-11,5.34-15.9c3.78-5.28,9.68-9.73,20.94-8.61,3.16.32,10.46-4,10.4,1C45.88,11.66,46,26.91,46,27.36Z"/><path class="cls-2" d="M28.56,46.12c-4.81,0-8.88-1.46-11.82-4.24l-.46-.09c-2.49-.47-8.32-1.56-9.5-6.49-1.32-5.5,2.1-12.88,5.73-17.94,5.41-7.53,13-10.66,23.23-9.63a13.88,13.88,0,0,0,3.1-.61,19.53,19.53,0,0,1,4.65-.82,4.87,4.87,0,0,1,3.6,1.33,4.85,4.85,0,0,1,1.3,3.62c0,.37,0,7.57,0,11.87,0,2.32,0,4.09,0,4.24A18.61,18.61,0,0,1,34,45.51,24.59,24.59,0,0,1,28.56,46.12Zm3.53-33.58c-6.8,0-11.72,2.46-15.51,7.73-3.65,5.08-5.68,10.78-4.94,13.87.43,1.77,3.9,2.42,5.57,2.74a4.41,4.41,0,0,1,2.66,1.06c2,2.11,5,3.18,8.69,3.18a19.89,19.89,0,0,0,4.31-.48,13.78,13.78,0,0,0,9.81-8.75,13.6,13.6,0,0,0,.77-4.53c0-.15,0-1.91,0-4.22,0-6,0-11,0-11.84A17.35,17.35,0,0,0,40.1,12a14.94,14.94,0,0,1-4.86.74A31.35,31.35,0,0,0,32.09,12.54Z"/><path class="cls-2" d="M26.14,27a3.25,3.25,0,1,1-3.25-3.25A3.25,3.25,0,0,1,26.14,27Z"/></g></g></svg>