<svg xmlns="http://www.w3.org/2000/svg" viewBox="0 0 106.11 97.22"><defs><style>.cls-1{fill:#575653;}.cls-2{fill:#fff;}</style></defs><title>Asset 5</title><g id="Layer_2" data-name="Layer 2"><g id="Icons"><path class="cls-1" d="M106.11,80.14c0,5.16-5.52,9.56-16,12.7-9.38,2.82-21.8,4.38-35,4.38s-25.59-1.56-35-4.38c-10.44-3.14-16-7.54-16-12.7s5.53-9.56,16-12.71l.86-.25a32.93,32.93,0,0,0,3,4.36c-.84.21-1.65.44-2.44.68-9.16,2.76-12.41,6-12.41,7.92,0,4.92,17.9,12.08,45.94,12.08,12.7,0,24.61-1.48,33.53-4.17,9.16-2.75,12.41-6,12.41-7.91,0-2.7-5.38-6.07-14.87-8.57a33.67,33.67,0,0,0,3-4.39l.86.25C100.59,70.58,106.11,75,106.11,80.14Z"/><path class="cls-1" d="M91.76,80.14c0,7.19-21.88,9.81-36.59,9.81s-36.59-2.62-36.59-9.81c0-2.68,3-4.72,7.59-6.23.8.82,1.64,1.62,2.52,2.37C24,77.6,21.58,79.1,21.58,80.14c0,2.31,11.86,6.81,33.59,6.81s33.59-4.5,33.59-6.81c0-1-2.43-2.54-7.11-3.86.88-.75,1.72-1.55,2.52-2.37C88.73,75.42,91.76,77.46,91.76,80.14Z"/><path class="cls-2" d="M88.18,51.05c0,16.16-14.77,29.27-33,29.27s-33-13.11-33-29.27V6.52a4,4,0,0,1,4-4h7.69a4.69,4.69,0,0,1,4.51,4l6.93,40.24H87.82A24.78,24.78,0,0,1,88.18,51.05Z"/><path class="cls-1" d="M55.17,82.82c-19.58,0-35.51-14.25-35.51-31.77V6.52A6.53,6.53,0,0,1,26.18,0h7.69a7.17,7.17,0,0,1,7,6.11l6.55,38.12H89.92l.36,2.07a26.94,26.94,0,0,1,.4,4.75C90.68,68.57,74.75,82.82,55.17,82.82ZM26.18,5a1.53,1.53,0,0,0-1.52,1.52V51.05c0,14.76,13.69,26.77,30.51,26.77s30.51-12,30.51-26.77c0-.62,0-1.22-.06-1.82H43.2L35.91,6.8a2.22,2.22,0,0,0-2-1.8Z"/><polygon class="cls-1" points="22.16 18.6 0 18.6 0 15.08 22.16 10.01 22.16 18.6"/><path class="cls-1" d="M31.9,12.54a2.32,2.32,0,0,1-2,2.54,2.32,2.32,0,0,1-2-2.54,2.31,2.31,0,0,1,2-2.53A2.31,2.31,0,0,1,31.9,12.54Z"/><path class="cls-1" d="M34.3,47.85a32.51,32.51,0,0,0,.45,3.91C37.21,61,47.9,66.1,58.61,63.22S79,49.29,77.48,39.25a11.62,11.62,0,0,0-1-2.71Z"/><path class="cls-1" d="M30.07,35.56l-3.16-3.78-2.4,2.86A1,1,0,1,1,23,33.36l3.93-4.7,3.16,3.78,3.16-3.78,3.16,3.78,3.16-3.78,3.93,4.7a1,1,0,0,1-.13,1.41,1,1,0,0,1-1.4-.13l-2.4-2.86-3.16,3.78-3.16-3.78Z"/></g></g></svg>