<svg xmlns="http://www.w3.org/2000/svg" viewBox="0 0 69.99 99"><defs><style>.cls-1{fill:#fff;}.cls-2{fill:#575653;}</style></defs><title>Asset 18</title><g id="Layer_2" data-name="Layer 2"><g id="Icons"><path class="cls-1" d="M55.21,69A16,16,0,0,0,39.65,54.89H30.33A16,16,0,0,0,14.78,69l-1,10.41A12.73,12.73,0,0,0,26.67,93.61H43.31A12.73,12.73,0,0,0,56.19,79.45Z"/><path class="cls-2" d="M43.31,95.64H26.67a14.75,14.75,0,0,1-14.9-16.38l1-10.41a18,18,0,0,1,17.57-16h9.32a18,18,0,0,1,17.58,16l1,10.41a14.76,14.76,0,0,1-14.9,16.38Zm-13-38.72A13.87,13.87,0,0,0,16.8,69.23l-1,10.42A10.7,10.7,0,0,0,26.67,91.58H43.31A10.7,10.7,0,0,0,54.17,79.65l-1-10.42A13.87,13.87,0,0,0,39.65,56.92Z"/><path class="cls-1" d="M31.22,82.61c0,7.65-5.57,13.85-12.44,13.85S6.35,90.26,6.35,82.61s5.57-13.85,12.43-13.85S31.22,75,31.22,82.61Z"/><path class="cls-2" d="M18.78,99c-8.25,0-15-7.35-15-16.39s6.72-16.39,15-16.39,15,7.36,15,16.39S27,99,18.78,99Zm0-27.7c-5.45,0-9.89,5.08-9.89,11.31s4.44,11.31,9.89,11.31,9.9-5.07,9.9-11.31S24.24,71.3,18.78,71.3Z"/><path class="cls-1" d="M63.63,82.61c0,7.65-5.56,13.85-12.43,13.85s-12.43-6.2-12.43-13.85S44.33,68.76,51.2,68.76,63.63,75,63.63,82.61Z"/><path class="cls-2" d="M51.2,99c-8.26,0-15-7.35-15-16.39s6.71-16.39,15-16.39,15,7.36,15,16.39S59.45,99,51.2,99Zm0-27.7c-5.46,0-9.9,5.08-9.9,11.31s4.44,11.31,9.9,11.31,9.89-5.07,9.89-11.31S56.65,71.3,51.2,71.3Z"/><path class="cls-2" d="M53.33,50.38C58.6,52.09,65.87,58,67.93,63.54c3.18,8.49-7.79,14.41-10,8-3-8.61-4.83-12-8.66-15.77C47,53.62,47.91,48.63,53.33,50.38Z"/><path class="cls-2" d="M16.66,50.38C11.39,52.09,4.13,58,2.07,63.54c-3.19,8.49,7.79,14.41,10,8,3-8.61,4.84-12,8.65-15.77C23,53.62,22.08,48.63,16.66,50.38Z"/><path class="cls-2" d="M70,11.62C70,17.31,65.33,22.07,59.2,23a34.86,34.86,0,0,0-15-14.35C45.67,3.68,50.79,0,56.88,0,64.11,0,70,5.2,70,11.62Z"/><path class="cls-2" d="M25.77,8.68A34.85,34.85,0,0,0,10.78,23C4.65,22.07,0,17.32,0,11.62,0,5.2,5.87,0,13.1,0,19.19,0,24.32,3.68,25.77,8.68Z"/><path class="cls-1" d="M62.41,34.57c0,13.55-12.26,20.9-27.41,20.9S7.57,48.12,7.57,34.57A24.39,24.39,0,0,1,10.78,23a34.85,34.85,0,0,1,15-14.35A21.71,21.71,0,0,1,35,6.41a21.78,21.78,0,0,1,9.23,2.27A34.86,34.86,0,0,1,59.2,23,24.28,24.28,0,0,1,62.41,34.57Z"/><path class="cls-2" d="M35,58C17.07,58,5,48.59,5,34.57A26.89,26.89,0,0,1,8.56,21.82,37.41,37.41,0,0,1,24.68,6.39,24.07,24.07,0,0,1,35,3.87,24.19,24.19,0,0,1,45.31,6.38,37.5,37.5,0,0,1,61.43,21.82,26.87,26.87,0,0,1,65,34.57C65,48.59,52.91,58,35,58ZM35,9a19.09,19.09,0,0,0-8.14,2A32.23,32.23,0,0,0,13,24.25a21.83,21.83,0,0,0-2.9,10.32C10.11,43,16.63,52.93,35,52.93S59.87,43,59.87,34.57A21.87,21.87,0,0,0,57,24.25,32.35,32.35,0,0,0,43.13,11,19,19,0,0,0,35,9Z"/><path class="cls-2" d="M55.77,28.17c0,5.79,1.11,10.48-3.7,10.48S38.37,34,38.37,28.17s3.89-10.49,8.69-10.49S55.77,22.38,55.77,28.17Z"/><path class="cls-2" d="M14.21,28.17c0,5.79-1.1,10.48,3.71,10.48S31.63,34,31.63,28.17s-3.91-10.49-8.71-10.49S14.21,22.38,14.21,28.17Z"/><path class="cls-1" d="M27.8,29.24a1,1,0,0,1-.9-.54A3.85,3.85,0,0,0,24,26.78,3.82,3.82,0,0,0,21,28.7a1,1,0,1,1-1.79-1c.06-.12,1.65-3,4.73-3s4.66,2.87,4.73,3a1,1,0,0,1-.41,1.38A1.07,1.07,0,0,1,27.8,29.24Z"/><path class="cls-1" d="M42.19,29.24a1,1,0,0,1-.48-.12,1,1,0,0,1-.41-1.38c.06-.12,1.65-3,4.72-3a5.81,5.81,0,0,1,4.74,3,1,1,0,1,1-1.78,1,3.83,3.83,0,0,0-3-1.93,3.85,3.85,0,0,0-2.94,1.92A1,1,0,0,1,42.19,29.24Z"/><path class="cls-2" d="M40.33,41.33c0,1.53-3.92,4.25-5.34,4.25s-5.33-2.72-5.33-4.25,2.39-2.75,5.33-2.75S40.33,39.82,40.33,41.33Z"/><path class="cls-2" d="M31.36,49.4c-3,0-4.52-3.89-4.58-4.06a1,1,0,0,1,1.91-.7s1.08,2.72,2.67,2.72c1.37,0,2.42-2,2.68-2.72a1,1,0,0,1,1.9.7C35.88,45.51,34.41,49.4,31.36,49.4Z"/><path class="cls-2" d="M38.62,49.4c-3,0-4.52-3.89-4.58-4.06a1,1,0,1,1,1.9-.7h0s1.07,2.72,2.68,2.72,2.67-2.7,2.68-2.72a1,1,0,1,1,1.9.7C43.14,45.51,41.67,49.4,38.62,49.4Z"/></g></g></svg>