<svg xmlns="http://www.w3.org/2000/svg" viewBox="0 0 109.31 94"><defs><style>.cls-1{fill:#fff;}.cls-2{fill:#575653;}</style></defs><title>Asset 3</title><g id="Layer_2" data-name="Layer 2"><g id="Icons"><path class="cls-1" d="M62.33,24.6A7.68,7.68,0,1,1,47,24.6c0-4.24,6.31-9.52,7.68-9.52S62.33,20.36,62.33,24.6Z"/><path class="cls-2" d="M54.65,33.79a9.19,9.19,0,0,1-9.18-9.19c0-4.77,6.73-11,9.18-11s9.18,6.24,9.18,11A9.19,9.19,0,0,1,54.65,33.79Zm0-17.16c-1.39.62-6.18,4.88-6.18,8a6.18,6.18,0,1,0,12.36,0C60.83,21.51,56.05,17.25,54.65,16.63Z"/><path class="cls-2" d="M52.38,17.06a1.51,1.51,0,0,1-1.4-.95A33.92,33.92,0,0,1,49.25,7.5c-.4-3-2-4.64-4.43-4.49a3.45,3.45,0,0,0-3.36,3.47,2.34,2.34,0,0,0,2.33,2.34,1.57,1.57,0,0,0,1.58-1.57.77.77,0,0,0-.46-.73,1.5,1.5,0,0,1-.53-2.95A3.18,3.18,0,0,1,47,4.31a3.81,3.81,0,0,1,1.37,2.94,4.58,4.58,0,0,1-4.58,4.57,5.34,5.34,0,0,1-5.33-5.34A6.46,6.46,0,0,1,44.64,0c4-.25,7,2.53,7.59,7.09v.14A31.23,31.23,0,0,0,53.78,15a1.51,1.51,0,0,1-.85,2A1.52,1.52,0,0,1,52.38,17.06Z"/><path class="cls-2" d="M56.93,17.06a1.49,1.49,0,0,1-.55-.1,1.51,1.51,0,0,1-.85-2,32.39,32.39,0,0,0,1.54-7.74s0-.13,0-.15c.61-4.57,3.59-7.35,7.59-7.1a6.47,6.47,0,0,1,6.18,6.46,5.35,5.35,0,0,1-5.34,5.34,4.58,4.58,0,0,1-4.57-4.57,3.81,3.81,0,0,1,1.37-2.94,3.16,3.16,0,0,1,2.62-.74,1.5,1.5,0,0,1-.54,2.95.77.77,0,0,0-.45.73,1.57,1.57,0,0,0,1.57,1.57,2.34,2.34,0,0,0,2.34-2.34A3.45,3.45,0,0,0,64.49,3c-2.41-.15-4,1.49-4.43,4.49a34.5,34.5,0,0,1-1.74,8.61A1.5,1.5,0,0,1,56.93,17.06Z"/><path class="cls-1" d="M98.28,57.89a8.58,8.58,0,0,1-8,6.46h-7.5L88.28,91.5c-3.64,0-25.35-30.12-25.35-33.76V38.52A10.85,10.85,0,0,1,69,29.33l32.94-14c3.35-1.42,5.45.33,4.69,3.88Z"/><path class="cls-2" d="M91.33,94h-3c-1.26,0-3.88,0-16-16.53-3.55-4.82-11.8-16.38-11.8-19.73V38.52A13.35,13.35,0,0,1,68,27L101,13c2.88-1.22,5.61-.75,7.13,1.13a6.32,6.32,0,0,1,1,5.58l-8.36,38.67a11,11,0,0,1-10.46,8.43H85.82ZM65.43,57.6c.77,3.06,12.09,19.27,18.94,27.21l-4.66-23H90.27a6.13,6.13,0,0,0,5.57-4.49l8.37-38.67a2.61,2.61,0,0,0,0-1.34h-.14a3.05,3.05,0,0,0-1.16.3L70,31.63a8.36,8.36,0,0,0-4.57,6.89Z"/><path class="cls-1" d="M11,57.89a8.57,8.57,0,0,0,8,6.46h7.51L21,91.5c3.64,0,25.34-30.12,25.34-33.76V38.52a10.86,10.86,0,0,0-6.08-9.19l-32.94-14C4,13.92,1.9,15.67,2.66,19.22Z"/><path class="cls-2" d="M21,94H18l5.52-27.15H19A11,11,0,0,1,8.58,58.42L.22,19.75a6.32,6.32,0,0,1,1-5.58C2.72,12.29,5.45,11.82,8.33,13L41.26,27a13.33,13.33,0,0,1,7.61,11.49V57.74c0,3.35-8.24,14.91-11.79,19.73C24.91,94,22.29,94,21,94ZM5.21,17.35a.59.59,0,0,0-.19,0A4.21,4.21,0,0,0,5.1,18.7l8.37,38.66A6.13,6.13,0,0,0,19,61.85H29.6L24.94,84.8c6.85-7.93,18.16-24.14,18.93-27.2V38.52a8.35,8.35,0,0,0-4.56-6.89l-32.94-14A3.05,3.05,0,0,0,5.21,17.35Z"/><path class="cls-2" d="M54.65,83.47c1.17,0,2.47-3.58,2.89-8L61,39.7c.42-4.38-2.43-8-6.33-8s-6.74,3.58-6.32,8l3.44,35.81C52.19,79.89,53.49,83.47,54.65,83.47Z"/><path class="cls-2" d="M59.85,19.93c-1.45-2.55-4.39-4.85-5.2-4.85s-3.74,2.3-5.19,4.85L53.32,21l1.33,5.88L56.22,21Z"/><path class="cls-2" d="M93.24,38.59c-2.55.69-22.37,4.06-23,1.84s18.25-9.21,20.8-9.89,5.11.56,5.71,2.78S95.8,37.91,93.24,38.59Z"/><path class="cls-2" d="M86.54,55c-2-.54-16.73-6-16.26-7.73s15.94.9,17.94,1.43A3.29,3.29,0,1,1,86.54,55Z"/><path class="cls-2" d="M16.07,39.19c2.55.68,22.37,4.06,23,1.84s-18.25-9.21-20.8-9.89-5.11.56-5.71,2.78S13.51,38.5,16.07,39.19Z"/><path class="cls-2" d="M22.77,55.57c2-.53,16.73-6,16.26-7.72s-15.94.9-17.94,1.43a3.29,3.29,0,1,0,1.68,6.29Z"/></g></g></svg>