<svg xmlns="http://www.w3.org/2000/svg" viewBox="0 0 114.7 71.96"><defs><style>.cls-1{fill:#fff;}.cls-2{fill:#575653;}</style></defs><title>Asset 19</title><g id="Layer_2" data-name="Layer 2"><g id="Icons"><path class="cls-1" d="M76.87,70H66.65s-2.58,0-2-1.79c.39-1.13,3.69-3,1.28-5.57a8.57,8.57,0,0,0-1-.73H43.56s-12,5.84-12.5,6.05-.53-.44-.53-.44V61.87H2.67c-.51,0-.93-.34-.48-.93,2.92-3.87,14.06-18.57,16.43-20.49,28.18-22.79,57-7,62.49,7.29C84.85,57.52,76.87,70,76.87,70Z"/><path class="cls-2" d="M78,72H66.65a4.39,4.39,0,0,1-3.51-1.54,3.09,3.09,0,0,1-.33-2.91,4.7,4.7,0,0,1,1.34-1.79c.27-.27.65-.74.65-.74.2-.2,0-1.1-.49-1.11H44c-3.82,1.86-11.72,5.7-12.2,5.9a2.56,2.56,0,0,1-.93.18,2.41,2.41,0,0,1-2.36-2.35V63.87H2.67a2.66,2.66,0,0,1-2.42-1.4,2.59,2.59,0,0,1,.34-2.74c5.25-7,14.41-18.92,16.77-20.84C27,31.08,37.8,27,48.54,27,65.91,27,79.25,37.3,83,47,87,57.63,78.9,70.5,78.55,71ZM67.57,68h8.16C77.37,65,82,55.73,79.24,48.46,75.94,39.85,63.56,31,48.54,31,38.59,31,29,34.67,19.88,42,18.56,43.07,13,50,5.5,59.87h27V65l10.15-4.93.41-.2H65.81a5.24,5.24,0,0,1,1.75,1.23A5.32,5.32,0,0,1,69,64.75,4.87,4.87,0,0,1,67.57,68Z"/><path class="cls-2" d="M13.89,24a37.92,37.92,0,0,1,7.7-13.67c.62-.69.35,8.56,1,7.17A35.14,35.14,0,0,1,34.85,4.61C42.58-.17,47.82-.16,48.71.08c.6.16-3.89,6.08-4.68,8.06-.48,1.18,4.87-4.51,14.65-6.35A40.46,40.46,0,0,1,80.82,4.17c.76.3-5.76,5.08-7.18,7-.28.36,4.8-.75,13.21,1.42,6.68,1.73,11.32,5.86,10.6,6.26-2.16,1.2-5.23,6-5.76,6.47s3.28.61,8.59,4.81c5.69,4.5,8.92,10.57,8.36,10.59-3.8.13-9.68,2.68-8.81,3.15,5.52,2.94,8.09,14,14.77,16,1.25.39-9.54,6.67-26.36.46-4.76-1.75-16.16-9.78-25.79-13.42-8.3-3.15-14.57-.73-14-2,1.91-4.24,6-9.73,8.13-11.37,1.12-.86-9.82-.1-17.7,3.91-.6.3,2.67-7.31,4.83-9.13.81-.67-5-1-15.09,4.34-7.57,4-13.16,10.65-14,10.8C11.41,44.07,11.6,31,13.89,24Z"/><path class="cls-2" d="M33.7,47a2.55,2.55,0,1,1-2.54-2.56A2.55,2.55,0,0,1,33.7,47Z"/></g></g></svg>