<svg xmlns="http://www.w3.org/2000/svg" viewBox="0 0 112.23 86.63"><defs><style>.cls-1{fill:#fff;}.cls-2{fill:#575653;}</style></defs><title>Asset 23</title><g id="Layer_2" data-name="Layer 2"><g id="Icons"><path class="cls-1" d="M82.43,42.6c0,3.73-2.05,22.94-4,26.47A29.24,29.24,0,0,1,65,82a21.06,21.06,0,0,1-8.86,2.18A20.94,20.94,0,0,1,47.26,82c-5.82-2.76-9.62-7-12.83-12.88C32.51,65.54,29.8,46.33,29.8,42.6c0-8.92,5.54-15,13.71-18a8.6,8.6,0,0,1-.28-2.17V18a8.44,8.44,0,0,1,8.41-8.41h8.94A8.43,8.43,0,0,1,69,18v4.47a8.17,8.17,0,0,1-.28,2.17C76.88,27.56,82.43,33.68,82.43,42.6Z"/><path class="cls-2" d="M56.11,86.63a23.16,23.16,0,0,1-9.92-2.42C40.26,81.4,36,77.1,32.23,70.26,30,66.15,27.3,46.23,27.3,42.6c0-8.76,4.87-15.8,13.45-19.58,0-.2,0-.39,0-.59V18A10.92,10.92,0,0,1,51.64,7.05h8.94A10.92,10.92,0,0,1,71.49,18v4.47c0,.2,0,.39,0,.59C80.06,26.8,84.93,33.84,84.93,42.6c0,3.08-1.89,23.29-4.29,27.67A31.62,31.62,0,0,1,66,84.21,23.3,23.3,0,0,1,56.11,86.63ZM51.64,12.05A5.92,5.92,0,0,0,45.73,18v4.47a6.06,6.06,0,0,0,.2,1.53l.59,2.21L44.37,27C39.86,28.59,32.3,32.79,32.3,42.6c0,3.69,2.71,22.3,4.33,25.27,3.22,5.93,6.73,9.46,11.7,11.82a18.24,18.24,0,0,0,7.78,1.94,18.35,18.35,0,0,0,7.79-1.94A26.78,26.78,0,0,0,76.25,67.88C77.74,65.16,79.93,47,79.93,42.6c0-9.81-7.56-14-12.07-15.65l-2.15-.78L66.3,24a6,6,0,0,0,.19-1.53V18a5.92,5.92,0,0,0-5.91-5.91Z"/><path class="cls-1" d="M80.91,9.55a8,8,0,1,1-8-8A8,8,0,0,1,80.91,9.55Z"/><path class="cls-2" d="M72.86,19.09a9.55,9.55,0,1,1,9.55-9.54A9.56,9.56,0,0,1,72.86,19.09ZM72.86,3a6.55,6.55,0,1,0,6.55,6.55A6.56,6.56,0,0,0,72.86,3Z"/><path class="cls-2" d="M77.14,9.55a4.28,4.28,0,1,1-4.28-4.28A4.28,4.28,0,0,1,77.14,9.55Z"/><path class="cls-1" d="M47.41,9.55a8,8,0,1,1-8-8A8.06,8.06,0,0,1,47.41,9.55Z"/><path class="cls-2" d="M39.36,19.1a9.55,9.55,0,1,1,9.55-9.55A9.56,9.56,0,0,1,39.36,19.1Zm0-16.1a6.55,6.55,0,1,0,6.55,6.55A6.56,6.56,0,0,0,39.36,3Z"/><path class="cls-2" d="M43.64,9.55a4.28,4.28,0,1,1-4.28-4.28A4.28,4.28,0,0,1,43.64,9.55Z"/><path class="cls-2" d="M108.85,73.65c-2.29,3.76-5.24,8.15-10.87,10.48C92.11,86.55,83.42,86,78.36,80.47c-1.84-2-5-2.15-6.37-1s-2.52-.51-1.4-1.52c3.39-3,7.16-7.23,8.23-12.24,1.68-7.81,2.27-13.51,2.9-24.44a18.81,18.81,0,0,0-4.13-12.49c-.32-.43-.21-1,.42-.42a4.3,4.3,0,0,0,3.09,1.25,2.68,2.68,0,0,0,2.52-1.49,1.43,1.43,0,0,0-1.25-2c-1.47.11-1.45-.19-.89-.9C84.05,21.9,91.16,24.3,91,30c-.08,2.74-1.7,4.53-4.77,5-1.22.19-1.32.44-1.22.91a5.48,5.48,0,0,0,3.89,3.68,4.53,4.53,0,0,0,4-.35,2.28,2.28,0,0,0,.52-2.73c-.62-1-.57-2,1.23-1.31a6.87,6.87,0,0,1,3.71,5.12c.62,3.58-.77,6.89-5.09,7.53A7.75,7.75,0,0,1,88.73,47c-.65-.34-1.61.07-1.1,1.77s2.51,3.72,3.78,4.62c2.65,1.9,5,2.85,7.72,2.46s4.29-3.31,3.21-5.43-3.4-1.93-2-2.78,5.07.19,7.15,3.94c3.16,5.73-.32,15.18-10.74,15.25A14.21,14.21,0,0,1,88.88,64c-1.26-1-2.15-1.27-2.38,1.78a7.12,7.12,0,0,0,3.41,6.57C94.1,75.21,100,74.74,104.59,71c3-2.48,5.34-2.28,7-1.06C113.54,71.31,110.39,71.13,108.85,73.65Z"/><path class="cls-2" d="M65.05,71.43a1.47,1.47,0,0,1-.58-.12,1.51,1.51,0,0,1-.81-2c.07-.17,7.1-17.13,6.68-24.93a7.68,7.68,0,0,0-4.89-7c-2.22-1-2.22-4.08-1.54-6.41a1.5,1.5,0,0,1,2.88.83h0a4.56,4.56,0,0,0-.09,2.85,10.75,10.75,0,0,1,6.64,9.53c.45,8.48-6.61,25.52-6.91,26.24A1.49,1.49,0,0,1,65.05,71.43Z"/><path class="cls-2" d="M47.18,71.43a1.5,1.5,0,0,1-1.39-.93c-.3-.72-7.36-17.76-6.9-26.24a10.75,10.75,0,0,1,6.65-9.54,4.8,4.8,0,0,0-.1-2.84,1.5,1.5,0,0,1,2.88-.82c.67,2.32.67,5.4-1.55,6.4a7.68,7.68,0,0,0-4.88,7c-.42,7.8,6.6,24.76,6.67,24.93a1.5,1.5,0,0,1-1.38,2.08Z"/><path class="cls-2" d="M3.37,73.65c2.3,3.76,5.25,8.15,10.87,10.48,5.87,2.42,14.57,1.89,19.62-3.66,1.85-2,5-2.15,6.38-1,1.27,1,2.52-.51,1.39-1.52-3.38-3-7.15-7.23-8.23-12.24-1.68-7.81-2.27-13.51-2.9-24.44a18.8,18.8,0,0,1,4.14-12.49c.31-.43.2-1-.43-.42a4.29,4.29,0,0,1-3.08,1.25,2.7,2.7,0,0,1-2.53-1.49,1.44,1.44,0,0,1,1.25-2c1.48.11,1.46-.19.9-.9-2.57-3.27-9.68-.87-9.52,4.82.08,2.74,1.71,4.53,4.77,5,1.22.19,1.33.44,1.23.91a5.5,5.5,0,0,1-3.9,3.68,4.53,4.53,0,0,1-4-.35,2.27,2.27,0,0,1-.51-2.73c.61-1,.56-2-1.23-1.31a6.82,6.82,0,0,0-3.71,5.12c-.62,3.58.76,6.89,5.08,7.53A7.76,7.76,0,0,0,23.5,47c.65-.34,1.61.07,1.09,1.77a11.44,11.44,0,0,1-3.78,4.62c-2.65,1.9-5,2.85-7.72,2.46s-4.28-3.31-3.21-5.43,3.41-1.93,2-2.78-5.08.19-7.15,3.94c-3.16,5.73.32,15.18,10.73,15.25A14.21,14.21,0,0,0,23.35,64c1.25-1,2.15-1.27,2.38,1.78a7.12,7.12,0,0,1-3.41,6.57C18.12,75.21,12.19,74.74,7.64,71c-3-2.48-5.34-2.28-7-1.06C-1.32,71.31,1.84,71.13,3.37,73.65Z"/></g></g></svg>