<svg xmlns="http://www.w3.org/2000/svg" viewBox="0 0 64.9 105.01"><defs><style>.cls-1{fill:#fff;}.cls-2{fill:#575653;}</style></defs><title>Asset 12</title><g id="Layer_2" data-name="Layer 2"><g id="Icons"><path class="cls-1" d="M38,77.43s11.74-14.6,21.13-6.12c8.21,7.4-1.27,18.94-5.38,23.14s1.29,3.83,1.87,5.49c.9,2.57-2.83,2.57-2.83,2.57H38Z"/><path class="cls-2" d="M52.82,105H35.53V76.55l.55-.69c.32-.39,7.91-9.7,16.55-9.7a12,12,0,0,1,8.21,3.29A11.66,11.66,0,0,1,64.9,78c.24,7.59-6.44,15.27-9.33,18.23l-.32.34A4.76,4.76,0,0,1,58,99.11a4.09,4.09,0,0,1-.44,3.84C56.21,104.86,53.59,105,52.82,105Zm-12.29-5H51.28a3.81,3.81,0,0,1-1.47-2.36c-.37-2.05,1.07-3.81,2.19-5,1.9-1.94,8.08-8.75,7.9-14.57a6.74,6.74,0,0,0-2.41-5,7.07,7.07,0,0,0-4.86-2c-4.75,0-9.9,4.7-12.1,7.19Z"/><path class="cls-1" d="M26.87,77.43S15.13,62.83,5.74,71.31C-2.47,78.71,7,90.25,11.12,94.45s-1.29,3.83-1.86,5.49c-.91,2.57,2.83,2.57,2.83,2.57H26.87Z"/><path class="cls-2" d="M29.37,105H12.09c-.78,0-3.4-.15-4.76-2.06a4.1,4.1,0,0,1-.43-3.84,4.72,4.72,0,0,1,2.75-2.57l-.32-.34C6.45,93.24-.23,85.55,0,78a11.62,11.62,0,0,1,4.06-8.52,12,12,0,0,1,8.2-3.29c8.64,0,16.23,9.31,16.55,9.7l.55.69Zm-15.75-5H24.37V78.35c-2.21-2.48-7.37-7.19-12.1-7.19a7.06,7.06,0,0,0-4.85,2,6.75,6.75,0,0,0-2.42,5C4.82,84,11,90.76,12.91,92.7c1.11,1.14,2.55,2.9,2.18,5A3.84,3.84,0,0,1,13.62,100Z"/><path class="cls-1" d="M44.71,57.25a8.46,8.46,0,0,0-8.35-8H28.55a8.46,8.46,0,0,0-8.35,8L18.59,94.52a7.62,7.62,0,0,0,7.66,8H38.67a7.61,7.61,0,0,0,7.65-8Z"/><path class="cls-2" d="M38.67,105H26.25a10.12,10.12,0,0,1-10.16-10.6L17.7,57.15A11,11,0,0,1,28.55,46.76h7.81A11,11,0,0,1,47.2,57.15l1.62,37.26A10.12,10.12,0,0,1,38.67,105ZM28.55,51.76a6,6,0,0,0-5.85,5.6L21.09,94.62A5.11,5.11,0,0,0,26.25,100H38.67a5.11,5.11,0,0,0,5.15-5.39L42.21,57.36a6,6,0,0,0-5.85-5.6Z"/><rect class="cls-2" x="30.53" y="68.66" width="3.84" height="33.84"/><path class="cls-2" d="M32.45,69.66a6.53,6.53,0,0,1-4.4-1.52A1.5,1.5,0,0,1,30.1,66a3.73,3.73,0,0,0,2.35.71,3.77,3.77,0,0,0,2.34-.7,1.5,1.5,0,1,1,2.06,2.18A6.5,6.5,0,0,1,32.45,69.66Z"/><path class="cls-1" d="M57.22,32.59c0,9.93-11.09,19.7-24.77,19.7S7.68,42.52,7.68,32.59s11.09-18,24.77-18S57.22,22.67,57.22,32.59Z"/><path class="cls-2" d="M32.45,54.79c-14.52,0-27.27-10.37-27.27-22.2,0-11.28,12.24-20.46,27.27-20.46s27.27,9.18,27.27,20.46C59.72,44.42,47,54.79,32.45,54.79Zm0-37.66c-12.28,0-22.27,6.94-22.27,15.46,0,8.12,9.53,17.2,22.27,17.2s22.27-9.08,22.27-17.2C54.72,24.07,44.73,17.13,32.45,17.13Z"/><path class="cls-1" d="M57.53,30.34c-.15-6.83.84-25.66-5.64-27.83L46.25,17.29Z"/><path class="cls-2" d="M59.65,35.85,44,17.7,50.7,0l1.82.61c6.46,2.17,7,14.27,7,26.48,0,1.23,0,2.32,0,3.21Zm-11.11-19,7,8.05c0-5.73-.33-15.52-2.72-19.19Z"/><path class="cls-1" d="M7.68,30.34c.15-6.83-.84-25.66,5.63-27.83L19,17.29Z"/><path class="cls-2" d="M5.56,35.85l.12-5.55c0-.89,0-2,0-3.21,0-12.21.53-24.31,7-26.48L14.5,0l6.76,17.7Zm6.85-30.1C10,9.43,9.74,19.21,9.7,24.94l7-8Z"/><path class="cls-2" d="M28.74,29.44a2.09,2.09,0,0,1-1.8,2.29,2.09,2.09,0,0,1-1.8-2.29,2.09,2.09,0,0,1,1.8-2.29A2.09,2.09,0,0,1,28.74,29.44Z"/><path class="cls-2" d="M39.76,29.44A2.09,2.09,0,0,1,38,31.73a2.08,2.08,0,0,1-1.8-2.29A2.08,2.08,0,0,1,38,27.15,2.09,2.09,0,0,1,39.76,29.44Z"/><rect class="cls-2" x="41.01" y="37.15" width="10.28" height="2.15" rx="1"/><path class="cls-2" d="M48.71,33.45A1,1,0,0,1,48,34.67l-5.6,1.5a1,1,0,0,1-1.23-.71l0-.14a1,1,0,0,1,.7-1.22l5.62-1.51a1,1,0,0,1,1.22.71Z"/><path class="cls-2" d="M48.71,43A1,1,0,0,0,48,41.79l-5.6-1.5a1,1,0,0,0-1.23.71l0,.13a1,1,0,0,0,.7,1.23l5.62,1.51a1,1,0,0,0,1.22-.71Z"/><rect class="cls-2" x="13.61" y="37.15" width="10.28" height="2.15" rx="1"/><path class="cls-2" d="M16.19,33.45a1,1,0,0,0,.71,1.22l5.6,1.5a1,1,0,0,0,1.23-.71l0-.14a1,1,0,0,0-.7-1.22l-5.61-1.51a1,1,0,0,0-1.23.71Z"/><path class="cls-2" d="M16.19,43a1,1,0,0,1,.71-1.22l5.6-1.5a1,1,0,0,1,1.23.71l0,.13a1,1,0,0,1-.7,1.23l-5.61,1.51a1,1,0,0,1-1.23-.71Z"/><path class="cls-2" d="M36.17,43.6c0,1.07-2.74,3-3.72,3s-3.71-1.89-3.71-3,1.66-1.91,3.71-1.91S36.17,42.55,36.17,43.6Z"/></g></g></svg>