<svg xmlns="http://www.w3.org/2000/svg" viewBox="0 0 129 54"><defs><style>.cls-1{fill:#fff;}.cls-2{fill:#575653;}</style></defs><title>Asset 6</title><g id="Layer_2" data-name="Layer 2"><g id="Icons"><path class="cls-1" d="M92.88,31.83a1.83,1.83,0,0,1,2.32-1.48l31.46,8.56c1.09.3,1.06.54-.07.54H93.64a1.68,1.68,0,0,1-1.71-2Z"/><path class="cls-2" d="M126.59,41H93.64a3.21,3.21,0,0,1-3.22-3.82l1-5.6a3.37,3.37,0,0,1,3.32-2.83,3.69,3.69,0,0,1,.92.12l31.45,8.57c.53.14,2.12.58,1.92,2.07S127.13,41,126.59,41Zm-31.9-9.18c-.16,0-.26.1-.29.28l-1,5.6a.2.2,0,0,0,0,.18s.09,0,.17,0h23.5L94.8,31.83Z"/><rect class="cls-2" x="96.9" y="31.11" width="1.64" height="8.34"/><rect class="cls-2" x="101.25" y="32.07" width="1.64" height="7.38"/><rect class="cls-2" x="105.6" y="33.27" width="1.64" height="6.1"/><path class="cls-1" d="M77.53,51.81V43.69H51.59s-14.3,7-14.89,7.21-.64-.52-.64-.52V43.69H2.85c-.62,0-1.11-.4-.58-1.11C5.75,38,19,20.35,21.86,18.15c42.41-32.28,71-9.27,71.3,10.51C93.48,50.79,77.53,51.81,77.53,51.81Z"/><path class="cls-2" d="M86.09,9.12C79.82,3.24,71.17,0,61.7,0,49,0,34.81,5.72,20.62,16.52c-2.09,1.6-8.14,9.1-19.6,24.32l-.38.51a2.75,2.75,0,0,0-.38,2.91,2.82,2.82,0,0,0,2.59,1.48H34V50.5a2.53,2.53,0,0,0,3.46,2.3c.58-.23,10.82-5.21,14.6-7.06H75.48V54l2.18-.14c.18,0,17.89-1.43,17.56-25.23A27.85,27.85,0,0,0,86.09,9.12Zm-6.51,40.2V41.64H51.12l-.43.21c-4,1.95-9.55,4.65-12.58,6.11V41.64H5.55C18,25.18,22,20.65,23.1,19.79,36.57,9.52,49.92,4.1,61.7,4.1c18,0,29.24,12.77,29.42,24.59C91.33,43.84,83.52,48.12,79.58,49.32Z"/><path class="cls-1" d="M18,11.83c.33,1.24.34,11.26-2.74,12.09s-8.09-7.86-8.42-9.1,1.74-3.48,4.83-4.31S17.67,10.59,18,11.83Z"/><path class="cls-2" d="M14.83,25.48c-4.38,0-9.15-9.18-9.44-10.27-.61-2.27,2.14-5.14,5.89-6.15a10.94,10.94,0,0,1,2.78-.37c2.78,0,5,1.11,5.39,2.75a25.56,25.56,0,0,1-.05,6.77c-.53,4.28-1.76,6.62-3.75,7.16A3.24,3.24,0,0,1,14.83,25.48Zm-6.52-11c.6,1.69,4.72,8,6.52,8h0c1.38-.37,2.1-8,1.7-10.17a4.27,4.27,0,0,0-2.51-.61,7.72,7.72,0,0,0-2,.27A5.85,5.85,0,0,0,8.31,14.51Z"/><path class="cls-2" d="M28.26,29.23c0,1.75-1.11,3.16-2.46,3.16S23.32,31,23.32,29.23s1.11-3.15,2.48-3.15S28.26,27.49,28.26,29.23Z"/><path class="cls-2" d="M22.18,35.89v5.75H18.86V35.89a1,1,0,0,1,1-1h1.27A1,1,0,0,1,22.18,35.89Z"/><path class="cls-2" d="M22.18,41.64V52.26a1,1,0,0,1-1,1H19.88a1,1,0,0,1-1-1V41.64Z"/><path class="cls-2" d="M16,39l-.7,2.65H11.83l.95-3.52A1,1,0,0,1,14,37.4l1.23.33A1,1,0,0,1,16,39Z"/><path class="cls-2" d="M15.28,41.64l-1.1,4.1-.79,2.94a1,1,0,0,1-1.25.74l-1.24-.33a1,1,0,0,1-.72-1.25l.56-2.1,1.09-4.1Z"/><path class="cls-2" d="M29.19,41.64H25.75L25,39a1,1,0,0,1,.73-1.26L27,37.4a1,1,0,0,1,1.25.72Z"/><path class="cls-2" d="M30.14,49.09l-1.25.33a1,1,0,0,1-1.25-.74l-.79-2.94-1.1-4.1h3.44l1.11,4.1.56,2.1A1,1,0,0,1,30.14,49.09Z"/><path class="cls-1" d="M13.5,14.7c.54,1.16,2.29,11-.6,12.38S3.56,20.74,3,19.58s1.12-3.73,4-5.08S13,13.54,13.5,14.7Z"/><path class="cls-2" d="M12.74,28.69c-4.31.76-10.6-7.44-11.08-8.48-1-2.13,1.22-5.43,4.74-7.07a10.75,10.75,0,0,1,2.67-.84c2.74-.49,5.07.22,5.79,1.76A25.8,25.8,0,0,1,16,20.74c.23,4.31-.58,6.83-2.45,7.7A3,3,0,0,1,12.74,28.69ZM4.42,19c.89,1.57,6,7,7.8,6.71,0,0,0,0,0,0,1.3-.6.67-8.28-.09-10.31a4.3,4.3,0,0,0-2.58-.16,8,8,0,0,0-1.93.61A5.85,5.85,0,0,0,4.42,19Z"/></g></g></svg>