<svg xmlns="http://www.w3.org/2000/svg" viewBox="0 0 79.17 102"><defs><style>.cls-1{fill:#fff;}.cls-2{fill:#575653;}</style></defs><title>Asset 10</title><g id="Layer_2" data-name="Layer 2"><g id="Icons"><path class="cls-1" d="M76,68.78a1.67,1.67,0,0,1,.54,2.28S57.63,86.14,47.13,86.14c-14.92,0-31.06-16-31.06-30.85,0-4.92,7.09-14.74,7.39-17.32l2.28-19.6a2.28,2.28,0,0,0-1.46-2.44L13,13.19c-1.07-.54-.41-2.15.28-2.73,0,0,3.78-5.79,5.7-7.15C23.12.36,31.26,5.5,34.2,9.86c1.39,2.06,1.15,5.88,1.15,5.88L35,42.56a4.24,4.24,0,0,0,1.69,2.5Z"/><path class="cls-2" d="M47.13,88.58c-16.28,0-33.5-17.11-33.5-33.29,0-3.62,2.68-8.53,5-12.86A35.09,35.09,0,0,0,21,37.66l2.25-19.42v0L12.17,15.49l-.25-.12A3.43,3.43,0,0,1,10,12.66a4.91,4.91,0,0,1,1.37-3.77c.94-1.42,4.12-6.11,6.17-7.57A7.42,7.42,0,0,1,22,0c5.11,0,11.5,4.4,14.26,8.5,1.74,2.57,1.61,6.61,1.57,7.33l-.32,26.43A2.21,2.21,0,0,0,38,43L77.21,66.7a4.12,4.12,0,0,1,1.37,5.62l-.23.37L78,73C77.22,73.6,58.36,88.58,47.13,88.58ZM15.66,11.32l9.66,2.4a4.72,4.72,0,0,1,2.86,4.65l0,.28-2.28,19.6c-.16,1.42-1.11,3.21-2.92,6.52s-4.45,8.15-4.45,10.52c0,13.55,15,28.41,28.62,28.41,7.29,0,20.48-8.91,26.47-13.48L35.46,47.14A6.58,6.58,0,0,1,32.63,43l-.05-.22.34-27.18a8.9,8.9,0,0,0-.74-4.36C30.2,8.29,25.31,4.88,22,4.88a2.66,2.66,0,0,0-1.55.41C19.52,5.93,17.33,8.82,15.66,11.32Z"/><polygon class="cls-2" points="13.49 15.59 0.31 17.15 0 14.45 13.24 10.46 13.49 15.59"/><path class="cls-2" d="M47.17,100.05a1.83,1.83,0,0,1-1.66,2H31.62c-1.08,0-2-.26-2-.59s.86-.78,1.9-1l9.52-2.26a1.82,1.82,0,0,0,1.33-2.32l-2.73-9A1.37,1.37,0,0,1,41.07,85h4.14a2,2,0,0,1,2,2Z"/><path class="cls-2" d="M25.45,8.48a2,2,0,0,1-4,0C21.47,7.36,25.45,7.36,25.45,8.48Z"/><path class="cls-2" d="M64.59,81.24h-.15c-.34,0-8.25-.91-14.33-5A45.25,45.25,0,0,1,36.27,60.06c-1.39-2.82-1.16-13.62-1.1-15.76a1.49,1.49,0,0,1,1.51-1.42,1.47,1.47,0,0,1,1.42,1.51c-.14,5,0,12.78.79,14.37A42.65,42.65,0,0,0,51.75,73.81c5.46,3.67,12.92,4.5,13,4.51a1.46,1.46,0,0,1-.16,2.92Z"/><path class="cls-2" d="M70,76.49a1.44,1.44,0,0,1-.85-.28L51.6,63.74a1.46,1.46,0,0,1-.35-2,1.48,1.48,0,0,1,2-.35L70.8,73.83A1.47,1.47,0,0,1,70,76.49Z"/><path class="cls-2" d="M64.59,79.47a1.45,1.45,0,0,1-.86-.28L53.1,71.48a1.46,1.46,0,1,1,1.72-2.37l10.63,7.71a1.46,1.46,0,0,1-.86,2.65Z"/></g></g></svg>