<svg xmlns="http://www.w3.org/2000/svg" viewBox="0 0 88.06 105.5"><defs><style>.cls-1{fill:#fff;}.cls-2{fill:#575653;}</style></defs><title>Asset 13</title><g id="Layer_2" data-name="Layer 2"><g id="Icons"><path class="cls-1" d="M63.54,72.09a6.62,6.62,0,0,0-6.74-8.28H30.89a6.71,6.71,0,0,0-6.84,8.3l2.21,11.35c.89,4.57-1,10.85-4.1,14S19.4,103,23,102.85s10.37-.23,15-.23H48.77c4.66,0,11.33.1,14.84.23s4-2.31,1.12-5.43S60.25,88,61.19,83.48Z"/><path class="cls-2" d="M63.87,105.5h-.36c-3.48-.12-10.09-.23-14.74-.23H38c-4.65,0-11.35.11-14.93.23-3.81.15-5-1.92-5.4-2.79-.5-1.21-.83-3.76,2.6-7.16,2.51-2.48,4.08-7.89,3.36-11.57L21.45,72.62a9.37,9.37,0,0,1,9.44-11.46H56.8a9.26,9.26,0,0,1,9.33,11.47L63.78,84c-.77,3.71.58,9.13,2.89,11.61,3.15,3.4,2.74,5.91,2.22,7.11C68.53,103.56,67.31,105.5,63.87,105.5ZM38,100H48.77c4.65,0,11.25.1,14.81.22a7.34,7.34,0,0,0-.79-1c-3.46-3.73-5.3-10.88-4.19-16.28L61,71.56a4,4,0,0,0-4.15-5.11H30.89a4.09,4.09,0,0,0-4.25,5.16L28.85,83C29.91,88.39,27.79,95.57,24,99.3a9.31,9.31,0,0,0-.8.9C26.92,100.07,33.46,100,38,100Z"/><rect class="cls-2" x="41.53" y="77.43" width="3.74" height="25.19"/><path class="cls-2" d="M43.4,78.64a7.5,7.5,0,0,1-4.21-1.12A1.59,1.59,0,0,1,41,74.93a5.59,5.59,0,0,0,4.75,0,1.59,1.59,0,0,1,2.19.41,1.57,1.57,0,0,1-.36,2.18A7.5,7.5,0,0,1,43.4,78.64Z"/><path class="cls-2" d="M88,34.41c-.11.46-4.25-2.93-5.62-3.51-.82-.37,3.57,3.59,4.42,11a42.87,42.87,0,0,1-1.65,16.68c-.2.57-3.72-3.9-5-5-.41-.37.65,4.13-.72,9.87-1.19,5-4.21,8.2-4.49,7.67-.84-1.62-4.17-4-4.51-4.36S70,69.23,67,73.23c-3.13,4.28-7.37,6.71-7.38,6.3-.1-2.87-1.88-7.29-2.21-6.63-2,4.14-12,9-13.4,14-1.41-5-11.35-9.85-13.41-14-.32-.66-2.1,3.76-2.19,6.63,0,.41-4.26-2-7.4-6.3-2.93-4-3-6.88-3.35-6.48S14,69.49,13.16,71.11c-.28.53-3.29-2.63-4.49-7.67C7.29,57.7,8.36,53.2,8,53.57c-1.28,1.12-4.81,5.59-5,5A42.81,42.81,0,0,1,1.28,41.91c.86-7.42,5.25-11.38,4.44-11-1.4.58-5.52,4-5.64,3.51-.16-.67-.42-4.17,2.92-10a27.9,27.9,0,0,1,9.22-9.67c1-.49-5.45-.24-5-.74a30.79,30.79,0,0,1,7.27-7.27A13.55,13.55,0,0,1,21.84,4c1,0-.65-2.93-.65-2.93,10.4-3,19.72,1,22.84,2.88,3.12-1.83,12.45-5.85,22.83-2.88,0,0-1.66,2.95-.64,2.93a13.67,13.67,0,0,1,7.37,2.75A31.22,31.22,0,0,1,80.86,14c.44.5-6,.25-5,.74a28.08,28.08,0,0,1,9.23,9.67C88.4,30.24,88.14,33.74,88,34.41Z"/><path class="cls-1" d="M60.36,53.23H52.93v3.94a5.83,5.83,0,0,1-5.59,6H40.73a5.83,5.83,0,0,1-5.58-6V53.23H27.72c-3.84,0-6.26-3.3-5.38-7.33l4.51-20.54c.89-4,4.75-7.32,8.59-7.32L44,25.2,52.53,18c3.84,0,7.71,3.29,8.61,7.31l4.57,20.56C66.6,49.93,64.2,53.23,60.36,53.23Z"/><path class="cls-2" d="M47.85,44.86c0,1.19-2.84,3.31-3.87,3.31s-3.86-2.12-3.86-3.31S41.85,42.7,44,42.7,47.85,43.67,47.85,44.86Z"/><path class="cls-2" d="M50,51.41c-1.92,0-5.94-2.33-6.73-2.8a1.05,1.05,0,1,1,1.08-1.81c1.75,1,4.66,2.49,5.65,2.49.71,0,1.42-1.32,1.63-1.93A1.06,1.06,0,0,1,53,46.71a1.05,1.05,0,0,1,.65,1.34C53.54,48.39,52.44,51.41,50,51.41Z"/><path class="cls-2" d="M37.94,51.41c-2.41,0-3.51-3-3.63-3.36A1.07,1.07,0,0,1,35,46.7a1.06,1.06,0,0,1,1.34.66c.21.61.92,1.93,1.63,1.93,1,0,3.9-1.46,5.65-2.49a1.05,1.05,0,1,1,1.08,1.81C43.88,49.08,39.85,51.41,37.94,51.41Z"/><path class="cls-2" d="M57,33.38a3.58,3.58,0,0,1-3.83,3.24,3.85,3.85,0,0,1-3.62-2.2S57,32.36,57,33.38Z"/><path class="cls-2" d="M31,33.38c0,1.78,1.72,3.24,3.83,3.24a3.81,3.81,0,0,0,3.61-2.2S31,32.36,31,33.38Z"/></g></g></svg>