<svg xmlns="http://www.w3.org/2000/svg" viewBox="0 0 102.12 90.27"><defs><style>.cls-1{fill:#fff;}.cls-2{fill:#575653;}</style></defs><title>Asset 25</title><g id="Layer_2" data-name="Layer 2"><g id="Icons"><path class="cls-1" d="M72.87,80A10.74,10.74,0,0,1,63,87.77H39.15A10.73,10.73,0,0,1,29.25,80L24.1,58.91a6,6,0,0,1,6.11-7.77h41.7A6,6,0,0,1,78,58.92Z"/><path class="cls-2" d="M63,90.27H39.15a13.15,13.15,0,0,1-12.33-9.68L21.67,59.51a8.5,8.5,0,0,1,8.54-10.87h41.7a8.49,8.49,0,0,1,8.53,10.87L75.3,80.59A13.16,13.16,0,0,1,63,90.27ZM30.21,53.64a3.52,3.52,0,0,0-3.68,4.68L31.68,79.4a8.19,8.19,0,0,0,7.47,5.87H63a8.21,8.21,0,0,0,7.47-5.87l5.14-21.08a3.51,3.51,0,0,0-3.67-4.68Z"/><path class="cls-1" d="M65.06,41.93a4,4,0,1,1-4-4A4,4,0,0,1,65.06,41.93Z"/><path class="cls-2" d="M61.09,46.88a5,5,0,1,1,5-5A5,5,0,0,1,61.09,46.88Zm0-7.94a3,3,0,1,0,0,5.94,3,3,0,1,0,0-5.94Z"/><path class="cls-2" d="M63.2,41.93a2.11,2.11,0,1,1-4.22,0,2.11,2.11,0,1,1,4.22,0Z"/><path class="cls-1" d="M45,41.93a4,4,0,1,1-4-4A3.95,3.95,0,0,1,45,41.93Z"/><path class="cls-2" d="M41,46.88a5,5,0,1,1,5-5A5,5,0,0,1,41,46.88Zm0-7.94a3,3,0,1,0,0,5.94,3,3,0,0,0,0-5.94Z"/><path class="cls-2" d="M43.15,41.93a2.11,2.11,0,0,1-4.22,0,2.11,2.11,0,1,1,4.22,0Z"/><polygon class="cls-2" points="43.63 49.9 41.48 50.28 40.72 45.98 42.87 45.63 43.63 49.9"/><polygon class="cls-2" points="60.66 50.28 58.51 49.9 59.26 45.63 61.42 45.98 60.66 50.28"/><path class="cls-2" d="M101.57,59.33c1,1.32.6,1.79-.88,1.06L96,58.07a15.09,15.09,0,0,0-5.68-1.34h-4c-1.65,0-3-1.07-3-2.39s1.35-2.38,3-2.38H93a6.81,6.81,0,0,1,4.81,2.39Z"/><path class="cls-2" d="M99.29,67.72c1,1.32.59,1.8-.88,1.06l-4.67-2.31a15.14,15.14,0,0,0-5.69-1.34H84c-1.65,0-3-1.08-3-2.4s1.35-2.4,3-2.4h6.69a6.81,6.81,0,0,1,4.8,2.39Z"/><path class="cls-2" d="M97,77c1,1.32.6,1.8-.88,1.06l-4.67-2.32a15.09,15.09,0,0,0-5.68-1.34h-4c-1.65,0-3-1.07-3-2.38s1.35-2.38,3-2.38h6.69A6.79,6.79,0,0,1,93.24,72Z"/><path class="cls-2" d="M94.72,85.37c1,1.32.59,1.8-.88,1.06l-4.67-2.32a15.33,15.33,0,0,0-5.69-1.33h-4c-1.65,0-3-1.08-3-2.4s1.35-2.4,3-2.4h6.7a6.78,6.78,0,0,1,4.8,2.4Z"/><path class="cls-2" d="M.55,58.52c-1,1.32-.6,1.8.88,1.06L6.1,57.25a15,15,0,0,1,5.68-1.34h4c1.65,0,3-1.08,3-2.39s-1.35-2.38-3-2.38H9.1a6.78,6.78,0,0,0-4.8,2.4Z"/><path class="cls-2" d="M2.83,66.9c-1,1.31-.59,1.79.89,1.06l4.66-2.32a15.34,15.34,0,0,1,5.69-1.34h4c1.65,0,3-1.07,3-2.39s-1.35-2.4-3-2.4h-6.7a6.78,6.78,0,0,0-4.8,2.4Z"/><path class="cls-2" d="M5.12,76.18c-1,1.32-.6,1.8.88,1.06l4.67-2.32a15.1,15.1,0,0,1,5.69-1.34h4c1.65,0,3-1.08,3-2.4s-1.35-2.39-3-2.39h-6.7a6.78,6.78,0,0,0-4.81,2.4Z"/><path class="cls-2" d="M7.41,84.54c-1,1.32-.6,1.8.88,1.07L13,83.29A15.14,15.14,0,0,1,18.64,82h4c1.65,0,3-1.07,3-2.39s-1.35-2.39-3-2.39H16a6.78,6.78,0,0,0-4.8,2.4Z"/><path class="cls-2" d="M81.61,1.39c-.94-2-1.7-1.82-1.7.38V42.25c0,2.2,1.3,2.75,2.89,1.23L92.73,34a6,6,0,0,0,1.19-6.39Z"/><path class="cls-2" d="M75,8.37c1.12-1.89,2-1.64,2,.56v28c0,2.2-1.44,2.91-3.19,1.58l-8.32-6.33a4.6,4.6,0,0,1-1.14-5.86Z"/><path class="cls-2" d="M82.21,42.11a4.16,4.16,0,1,1-4.16-4.17A4.15,4.15,0,0,1,82.21,42.11Z"/><polygon class="cls-2" points="23.18 54.43 35.55 50.92 28.2 41.89 19.9 41.89 23.18 54.43"/><path class="cls-2" d="M20.5,1.39c.94-2,1.7-1.82,1.7.38V42.25c0,2.2-1.3,2.75-2.88,1.23L9.39,34A6,6,0,0,1,8.2,27.58Z"/><path class="cls-2" d="M27.17,8.37c-1.12-1.89-2-1.64-2,.56v28c0,2.2,1.43,2.91,3.18,1.58l8.32-6.33a4.61,4.61,0,0,0,1.14-5.86Z"/><path class="cls-2" d="M19.9,42.11a4.17,4.17,0,1,0,4.17-4.17A4.15,4.15,0,0,0,19.9,42.11Z"/><polygon class="cls-2" points="79.47 54.43 67.1 50.92 74.46 41.89 82.75 41.89 79.47 54.43"/></g></g></svg>