<svg xmlns="http://www.w3.org/2000/svg" viewBox="0 0 128.73 84"><defs><style>.cls-1{fill:#575653;}.cls-2{fill:#fff;}</style></defs><title>Asset 21</title><g id="Layer_2" data-name="Layer 2"><g id="Icons"><path class="cls-1" d="M93.76,25.92h35C123.28,12.66,110,2.63,93.76,0Z"/><path class="cls-1" d="M16.88,53.16c.21,13.88,7,25.62,16.39,30.05v-30Z"/><path class="cls-2" d="M2.85,39.46C10.12,55,29.7,66.17,52.73,66.17,81.94,66.17,96,48.23,96,26.09c0-.9,0-1.79-.12-2.66H13.33Z"/><path class="cls-1" d="M52.73,68.67C29.4,68.67,8.45,57.35.59,40.52L0,39.26,12,20.93h86.2l.21,2.27c.08,1,.13,1.95.13,2.89,0,12.14-4,22.55-11.41,30.1C79,64.35,67.14,68.67,52.73,68.67Zm-47-29c7.49,14.43,26.16,24,47,24,19.71,0,40.78-9.87,40.78-37.58v-.16H14.68Z"/><path class="cls-2" d="M30.06,51.13c.23,13.89,7,25.63,16.41,30.06V51.13Z"/><path class="cls-1" d="M48.25,84l-2.54-1.2c-10.36-4.87-17.2-17.28-17.43-31.64l0-1.81h20ZM31.91,52.91c.66,10.83,5.57,20.46,12.78,25.24V52.91Z"/><path class="cls-2" d="M53.51,23.43a16,16,0,1,1-16-16A16,16,0,0,1,53.51,23.43Z"/><path class="cls-1" d="M37.47,41.84A18.42,18.42,0,1,1,55.89,23.43,18.44,18.44,0,0,1,37.47,41.84Zm0-32.08A13.66,13.66,0,1,0,51.13,23.43,13.68,13.68,0,0,0,37.47,9.76Z"/><circle class="cls-1" cx="33.71" cy="26.79" r="8.53"/><path class="cls-2" d="M82.77,9.26c-11.51.17-21.26,5.8-24.95,13.61H82.77Z"/><path class="cls-1" d="M85.15,25.25H54.06l1.61-3.4c4.21-8.91,14.83-14.79,27.06-15l2.42,0Zm-23-4.76H80.39V11.75C72.8,12.44,66,15.7,62.13,20.49Z"/><path class="cls-2" d="M109.29,11.58a1.19,1.19,0,0,1-1.19,1.19h-7.78a1.19,1.19,0,0,1-1.19-1.19V9.64a1.19,1.19,0,0,1,1.19-1.19h7.78a1.19,1.19,0,0,1,1.19,1.19Z"/><path class="cls-2" d="M119.54,19.7a1.2,1.2,0,0,1-1.19,1.19h-18a1.19,1.19,0,0,1-1.19-1.19V17.75a1.18,1.18,0,0,1,1.19-1.18h18a1.19,1.19,0,0,1,1.19,1.18Z"/><path class="cls-1" d="M49.8,65.62h4.92A24.78,24.78,0,0,0,58.6,39.39a1.75,1.75,0,0,0-2.67-.31,1.85,1.85,0,0,0-.24,2.42A21.3,21.3,0,0,1,49.8,65.62Z"/></g></g></svg>