<svg xmlns="http://www.w3.org/2000/svg" viewBox="0 0 81.06 112"><defs><style>.cls-1{fill:#fff;}.cls-2{fill:#575653;}</style></defs><title>Asset 15</title><g id="Layer_2" data-name="Layer 2"><g id="Icons"><path class="cls-1" d="M72.79,50.58l-5.11,57.14A2.5,2.5,0,0,1,65.24,110H56.4a3.74,3.74,0,0,1-3.15-2.08l-5.11-12A3.71,3.71,0,0,0,45,93.84H36.06a3.71,3.71,0,0,0-3.14,2.08l-5.11,12A3.72,3.72,0,0,1,24.67,110H15.82a2.5,2.5,0,0,1-2.44-2.24L8.27,50.58C8.27,44.86,13.36,40,17.49,40H63.57C67.7,40,72.79,44.86,72.79,50.58Z"/><path class="cls-2" d="M65.24,112H56.4a5.76,5.76,0,0,1-5-3.31l-5.11-12A1.72,1.72,0,0,0,45,95.88H36.06a1.73,1.73,0,0,0-1.26.83l-5.11,12a5.76,5.76,0,0,1-5,3.31H15.82a4.51,4.51,0,0,1-4.47-4.11L6.23,50.58c0-7,6.16-12.66,11.26-12.66H63.57c5.1,0,11.26,5.65,11.26,12.66v.19L69.71,107.9A4.51,4.51,0,0,1,65.24,112ZM36.06,91.8H45a5.73,5.73,0,0,1,5,3.33l5.1,12a1.77,1.77,0,0,0,1.28.84h8.84a.46.46,0,0,0,.4-.37l5.11-57c0-4.7-4.36-8.5-7.18-8.5H17.49c-2.82,0-7.13,3.8-7.18,8.5l5.1,57a.48.48,0,0,0,.41.38h8.85a1.76,1.76,0,0,0,1.27-.84l5.11-12A5.71,5.71,0,0,1,36.06,91.8Z"/><path class="cls-1" d="M56.64,24.23a8.18,8.18,0,0,1,8.15,8.16V43.72c0,4.49-1.8,9-4,10s-4.23,5.55-4.5,10l-.47,7.59a8.8,8.8,0,0,1-8.65,8.15H33.9a8.8,8.8,0,0,1-8.65-8.15l-.47-7.59c-.27-4.48-2.29-9-4.5-10s-4-5.55-4-10V32.39a8.18,8.18,0,0,1,8.16-8.16Z"/><path class="cls-2" d="M47.16,81.57H33.9A10.86,10.86,0,0,1,23.21,71.51l-.46-7.6c-.26-4.23-2.15-7.74-3.34-8.3C16.05,54,14.24,48.3,14.24,43.72V32.39a10.21,10.21,0,0,1,10.2-10.2h32.2a10.21,10.21,0,0,1,10.19,10.2V43.72C66.83,48.3,65,54,61.65,55.61c-1.19.56-3.08,4.07-3.34,8.3l-.46,7.6A10.86,10.86,0,0,1,47.16,81.57ZM24.44,26.27a6.13,6.13,0,0,0-6.12,6.12V43.72c0,4.13,1.7,7.67,2.83,8.2,3.31,1.55,5.39,7.21,5.67,11.75l.46,7.59a6.81,6.81,0,0,0,6.62,6.23H47.16a6.81,6.81,0,0,0,6.62-6.23l.46-7.59c.28-4.54,2.36-10.2,5.68-11.75,1.13-.53,2.83-4.07,2.83-8.2V32.39a6.12,6.12,0,0,0-6.11-6.12Z"/><path class="cls-1" d="M62.42,24.23c-.16-9.86.85-18.2-5.83-21.35L50.76,24.23Z"/><path class="cls-2" d="M64.49,26.27H48.09L55.26,0l2.19,1c7,3.29,7,11.11,7,19.38,0,1.24,0,2.5,0,3.79ZM53.43,22.19h6.93V20.41c0-7-.15-11.6-2.57-14.2Z"/><path class="cls-2" d="M62.42,24.37A12.71,12.71,0,0,1,67,20.7c4.61-2,11.6-3.29,13.46-5.66.79-1,1.47,4-2.52,10.51-3,4.91-8.72,8.68-13.24,7.91Z"/><path class="cls-2" d="M18.64,24.37a12.6,12.6,0,0,0-4.58-3.67C9.45,18.74,2.47,17.41.61,15c-.8-1-1.47,4,2.51,10.51,3,4.91,8.72,8.68,13.25,7.91Z"/><path class="cls-1" d="M18.64,24.23c.16-9.86-.85-18.2,5.84-21.35L30.3,24.23Z"/><path class="cls-2" d="M33,26.27H16.57l0-2.07c0-1.29,0-2.55,0-3.78,0-8.28,0-16.1,7-19.39L25.8,0ZM20.7,22.19h6.93l-4.36-16c-2.42,2.6-2.56,7.2-2.57,14.21Z"/><path class="cls-2" d="M56.22,69.13a1.53,1.53,0,0,1-.73-.19s-5.27-2.77-15-2.77-14.91,2.75-15,2.78a1.53,1.53,0,0,1-1.46-2.69c.24-.13,5.88-3.14,16.43-3.14s16.18,3,16.42,3.14a1.53,1.53,0,0,1-.74,2.87Z"/><path class="cls-2" d="M49.5,71c0,1.71-1.83,3.1-4.1,3.1a4.85,4.85,0,0,1-2.65-.74c-.89-.56,4.22-5.29,4.85-5A3,3,0,0,1,49.5,71Z"/><path class="cls-2" d="M31.56,71c0,1.71,1.83,3.1,4.1,3.1a4.82,4.82,0,0,0,2.65-.74c.89-.56-4.21-5.29-4.85-5A3,3,0,0,0,31.56,71Z"/><path class="cls-2" d="M35.7,37.75c0,1.09-4,3-5.4,3s-5.4-1.95-5.4-3,2.42-2,5.4-2S35.7,36.65,35.7,37.75Z"/><path class="cls-2" d="M56.16,37.75c0,1.09-4,3-5.4,3s-5.4-1.95-5.4-3,2.42-2,5.4-2S56.16,36.65,56.16,37.75Z"/><rect class="cls-2" x="18.64" y="17.79" width="9.98" height="1.78"/><rect class="cls-2" x="18.64" y="13.74" width="8.87" height="1.78"/><rect class="cls-2" x="19.32" y="9.7" width="7.1" height="1.78"/><rect class="cls-2" x="52.45" y="17.79" width="9.97" height="1.78"/><rect class="cls-2" x="53.55" y="13.74" width="8.87" height="1.78"/><rect class="cls-2" x="54.65" y="9.7" width="7.1" height="1.78"/><path class="cls-2" d="M60.7,77.59c0,8.34,5.48,17.24,8.13,17.24a119.58,119.58,0,0,0,1.51-17.24c0-8.33-1.65-14.48-4.3-14.48S60.7,69.26,60.7,77.59Z"/><path class="cls-2" d="M10.45,74.92c1.49,0,6.72-7.09,6.72-11.76s-6.36-9.68-7.85-9.68S9,74.92,10.45,74.92Z"/><path class="cls-2" d="M23.6,87.66c0,4.72-2.08,6.36-4,6.36s-3.73-1.65-4-6.36c-.35-5.85.36-9.61,2.28-9.61S23.6,82.94,23.6,87.66Z"/><rect class="cls-2" x="12.89" y="100.53" width="17.8" height="2.25"/><rect class="cls-2" x="50.76" y="100.53" width="17.8" height="2.25"/><path class="cls-2" d="M62,92c0,2.16-.45,3.41-1.87,3.41s-3.9-1.88-3.9-3.32c0-1.09.44-5.48,3.4-5C61.55,87.36,62,90.87,62,92Z"/></g></g></svg>