<svg xmlns="http://www.w3.org/2000/svg" viewBox="0 0 82.9 90.01"><defs><style>.cls-1{fill:#575653;}.cls-2{fill:#fff;}</style></defs><title>Asset 22</title><g id="Layer_2" data-name="Layer 2"><g id="Icons"><path class="cls-1" d="M26.33,74.85a6.69,6.69,0,1,1-6.69-6.69A6.67,6.67,0,0,1,26.33,74.85Z"/><path class="cls-1" d="M47.74,18.45c-1.29.31-5.41,1.84-6,4s1.73,4.1,5.64,5.54c1.07.39.72,1.36.14,1.52-2,.56-7.52,1.15-8.41,4-.68,2.2,4.47,4,6.39,4.52,2.14.62,1.88,2,.29,2.19-2.53.29-9.74.6-10.25,3.41s7.11,4.21,9,4.65c1.24.28,1.33,1.52-.14,1.73-1.66.23-8,.68-7.92,3.4s4.51,2.6,5.83,3,1.2,1.12,0,1.53-3.67,1.67-3.6,2.92c.09,1.69,2.35,2.09,3.82,2.34s.91,1.34,0,1.67c-1.45.53-1.36,3.56-.21,3.83,1.76.4,1,1.38-.26,2.13s-1.91,3.09-.71,3.76c1.53.84,1.58,2.07,0,2.11s-1.94,2.25-1.56,2.77c.67.91.76,1.27-.49,1.68-.32.11-1.79.46-1.94.75C34.51,87,25.7,91.61,16.55,89.48c-13.18-3.07-14-17.45-7-23,4.89-3.89,11.72-3.32,15,.56,5.35,6.26.88,12.19-.95,13-2.8,1.22-7.37-2-5.5-2S21,76.81,21.4,74.88c.86-4.34-5.53-9-10.59-4-3.17,3.16-2.49,9.26,1.42,12.34a12.2,12.2,0,0,0,12.66.94A11.42,11.42,0,0,0,31,75,14.4,14.4,0,0,0,27.5,63.82a14.9,14.9,0,0,0-10.27-5.23H7.11a26,26,0,0,1-.36-4.19c0-8.12,3.89-15.12,9.46-18.22,0,0,5.83-3.11,8.36-4.51a11.85,11.85,0,0,0,2.24-1.59A5.69,5.69,0,0,0,23.4,19.84a4.84,4.84,0,0,0-1,.1h-.06a7.42,7.42,0,0,1-2.16-.1c-.69-.15-13.06,4.23-14.06,5s-2.51,3.32-3.42,3S-.08,24.21,0,22.87c.06-.75,4.23-.74,4.59-.95,1-.55,10.94-6.55,11.85-7.17A4.43,4.43,0,0,0,17.82,12h0a7.08,7.08,0,0,1-.08-1.13c0-4.16,3.14-7.71,7.53-9a1,1,0,0,0,.05-.18c.42-2,1.06-1,2.42-.3.44,0,.87-.07,1.32-.07a13,13,0,0,1,4.55.81C34.71,1.11,35.33,0,35.7,0s.28,1.71,0,3.1a10.27,10.27,0,0,1,3.85,4.09,16.8,16.8,0,0,0,3.47-1c1.73-.6,2.24.55.85,1.59-1.23.92-3.27,2.65-2.44,5.32.74,2.38,2.25,3.25,6.25,3.75C48.72,17,48.82,18.18,47.74,18.45Z"/><path class="cls-2" d="M30.32,10.49a3,3,0,1,1-3-3A3,3,0,0,1,30.32,10.49Z"/><path class="cls-1" d="M69.18,78.82A4.14,4.14,0,1,1,65,74.68,4.14,4.14,0,0,1,69.18,78.82Z"/><path class="cls-1" d="M82.43,43.9c-.8.2-3.35,1.14-3.72,2.51s1.07,2.53,3.49,3.42c.66.25.45.85.09,1-1.25.34-4.66.71-5.21,2.46-.43,1.35,2.77,2.44,4,2.79s1.17,1.24.18,1.36c-1.56.18-6,.37-6.35,2.11s4.41,2.61,5.58,2.88c.77.17.82.94-.09,1.07s-4.94.42-4.9,2.1,2.79,1.62,3.61,1.85.74.69,0,.95-2.28,1-2.23,1.8c.06,1,1.45,1.3,2.37,1.45s.56.83,0,1c-.9.33-.85,2.2-.13,2.37,1.08.25.63.85-.17,1.32s-1.18,1.91-.44,2.33c1,.51,1,1.28,0,1.31s-1.19,1.38-1,1.71c.42.56.47.79-.3,1-.2.07-1.11.28-1.21.46-1.73,3.13-7.18,6-12.85,4.7C55,86,54.44,77.08,58.77,73.63c3-2.41,7.26-2.06,9.32.34,3.31,3.88.54,7.55-.59,8-1.73.76-4.56-1.22-3.41-1.22s1.8-.75,2-2c.52-2.69-3.43-5.59-6.56-2.47-2,2-1.55,5.74.87,7.64a7.57,7.57,0,0,0,7.85.58A7.07,7.07,0,0,0,72,78.91,8.92,8.92,0,0,0,69.9,72a9.22,9.22,0,0,0-6.36-3.25H57.28a15.6,15.6,0,0,1-.22-2.59c0-5,2.4-9.36,5.85-11.28,0,0,3.61-1.93,5.18-2.79a7.21,7.21,0,0,0,1.39-1,3.48,3.48,0,0,0,1.4-2.81,3.53,3.53,0,0,0-3.52-3.52,3.28,3.28,0,0,0-.63.06h0a4.91,4.91,0,0,1-1.33-.06,61.17,61.17,0,0,0-8.71,3.07c-.69.51-1.55,2-2.12,1.84a5,5,0,0,1-1.65-3c0-.47,2.61-.46,2.83-.59.61-.34,6.78-4,7.35-4.44a2.79,2.79,0,0,0,.85-1.68h0a4,4,0,0,1,0-.7,6.09,6.09,0,0,1,4.66-5.59.35.35,0,0,0,0-.11c.26-1.24.66-.64,1.5-.18a7.37,7.37,0,0,1,.82-.05,8.06,8.06,0,0,1,2.81.5c.69-.62,1.07-1.31,1.3-1.31s.17,1.06,0,1.92a6.37,6.37,0,0,1,2.39,2.53,10.72,10.72,0,0,0,2.14-.59c1.08-.37,1.39.34.53,1S78,39,78.5,40.62c.46,1.47,1.4,2,3.87,2.32C83,43,83.1,43.73,82.43,43.9Z"/><path class="cls-2" d="M71.65,39a1.88,1.88,0,1,1-1.88-1.88A1.88,1.88,0,0,1,71.65,39Z"/></g></g></svg>