<svg xmlns="http://www.w3.org/2000/svg" viewBox="0 0 202.43 202.43"><defs><style>.cls-1{isolation:isolate;}.cls-2{fill:#37475d;}.cls-3{fill:#fff;}.cls-4{fill:#231f20;opacity:0.3;mix-blend-mode:multiply;}</style></defs><title>Asset 11</title><g class="cls-1"><g id="Layer_2" data-name="Layer 2"><g id="Social_Media_Icons" data-name="Social Media Icons"><g id="Tumblr"><path id="Base" class="cls-2" d="M202.43,101.21a101.12,101.12,0,0,1-3.18,25.26q-.69,2.67-1.51,5.28a101.42,101.42,0,0,1-67.66,66.5c-1.63.48-3.28.93-4.94,1.33a101.23,101.23,0,1,1,77.29-98.37Z"/><path id="Logo" class="cls-3" d="M76.16,91.05v.58q0,8.19,0,16.38v19.64a40.62,40.62,0,0,0,.16,4.13c.12,1.24.21,2.48.4,3.7a37.9,37.9,0,0,0,1.3,5.65,32.52,32.52,0,0,0,2.63,6.2,28.77,28.77,0,0,0,3.75,5.22,27.2,27.2,0,0,0,3.18,3,28.79,28.79,0,0,0,5.7,3.52,33.36,33.36,0,0,0,6.27,2.21,33.86,33.86,0,0,0,5.48.9c1.09.08,2.19.18,3.28.2,1.28,0,2.55,0,3.83,0h.14l2.23-.24c1-.12,2-.2,3-.38,1.6-.3,3.2-.65,4.78-1a44.7,44.7,0,0,0,5.43-1.65c1.6-.6,3.18-1.25,4.76-1.92a64.1,64.1,0,0,0,5.8-2.91.45.45,0,0,0,.26-.42c0-1.33.05-2.65.06-4,0-2.44.06-4.88.09-7.31l.06-8.85c0-.13,0-.26,0-.47l-.27.35a11.27,11.27,0,0,1-2.07,2.29,18.41,18.41,0,0,1-4,2.61,26.92,26.92,0,0,1-4.5,1.72,30,30,0,0,1-3.85.83c-.58.08-1.17.13-1.75.18s-1.34.15-2,.14c-.9,0-1.8-.09-2.69-.15A15.79,15.79,0,0,1,112.7,140a9.94,9.94,0,0,1-4.12-3,8,8,0,0,1-1.82-5.08q0-19.92,0-39.85c0-.14,0-.27,0-.44h28.47c.11-.48.1-20.94,0-21.32H106.74V40.39c0-.11,0-.23,0-.34H87.82a4.08,4.08,0,0,0-.1.45c-.07.47-.11,1-.19,1.42-.29,1.62-.56,3.25-.89,4.86a42.37,42.37,0,0,1-3.33,10.11,26.6,26.6,0,0,1-3.91,5.93,26.12,26.12,0,0,1-5.57,4.7,44.17,44.17,0,0,1-8.45,4l-1.73.63V91.05Z"/><path id="Shadow" class="cls-4" d="M197.74,131.75a101.42,101.42,0,0,1-67.66,66.5L86,154.12c.53.5,1.07,1,1.64,1.42a28.79,28.79,0,0,0,5.7,3.52,33.36,33.36,0,0,0,6.27,2.21,33.86,33.86,0,0,0,5.48.9c1.09.08,2.19.18,3.28.2,1.28,0,2.55,0,3.83,0h.14l2.23-.24c1-.12,2-.2,3-.38,1.6-.3,3.2-.65,4.78-1a44.7,44.7,0,0,0,5.43-1.65c1.6-.6,3.18-1.25,4.76-1.92a64.1,64.1,0,0,0,5.8-2.91.45.45,0,0,0,.26-.42c0-1.33.05-2.65.06-4,0-2.44.06-4.88.09-7.31l.06-8.85c0-.13,0-.26,0-.47l-.27.35a11.59,11.59,0,0,1-2.07,2.3,18.74,18.74,0,0,1-4,2.6,26.92,26.92,0,0,1-4.5,1.72,30,30,0,0,1-3.85.83c-.58.08-1.17.13-1.75.18s-1.34.15-2,.14c-.9,0-1.8-.09-2.69-.15A15.79,15.79,0,0,1,112.7,140a9.94,9.94,0,0,1-4.12-3,8,8,0,0,1-1.82-5.08q0-19.92,0-39.85c0-.14,0-.27,0-.44h28.47c.11-.48.1-20.94,0-21.32H106.74V40.75Z"/></g></g></g></g></svg>