<svg xmlns="http://www.w3.org/2000/svg" viewBox="0 0 202.49 202.49"><defs><style>.cls-1{isolation:isolate;}.cls-2{fill:#464646;}.cls-3{fill:#fff;}.cls-4{fill:#231f20;opacity:0.3;mix-blend-mode:multiply;}</style></defs><title>Asset 17</title><g class="cls-1"><g id="Layer_2" data-name="Layer 2"><g id="Social_Media_Icons" data-name="Social Media Icons"><g id="Wordpress"><path id="Base" class="cls-2" d="M202.49,101.24c0,1.68,0,3.34-.12,5a101.26,101.26,0,0,1-95.59,96.1c-1.83.1-3.67.15-5.53.15A101.25,101.25,0,1,1,202.49,101.24Z"/><path id="Logo" class="cls-3" d="M101.45,33.12a68.13,68.13,0,1,0,67.79,72.07A68.18,68.18,0,0,0,101.45,33.12ZM44.78,124.57c-6.55-15.94-6.15-31.9.54-48.13,9.75,26.69,19.36,53,29,79.39C60.52,149.06,50.57,138.69,44.78,124.57Zm39.31,35.2q9-26.24,18.07-52.5h.33l9.41,25.8,9.4,25.72C115,162.91,92.71,163.54,84.09,159.77Zm25.7-87.08c2.24-.21,4.33-.41,6.42-.59a2.64,2.64,0,0,0,2.69-1.87,2.5,2.5,0,0,0-2.76-3.31c-3.66.19-7.33.59-11,.56-7,0-13.94-.33-20.9-.54-1.88-.06-3,.77-3.12,2.4s.9,2.59,2.81,2.76c1.72.15,3.44.29,5.14.53a1.48,1.48,0,0,1,1,.8q4.58,12.33,9,24.71a1.81,1.81,0,0,1,0,1.15c-4.3,13-8.62,25.9-13.23,38.92l-22-65.53,6.51-.59c2.09-.18,3.21-1.74,2.56-3.54a2.26,2.26,0,0,0-2.38-1.65c-5,.23-10,.51-14.93.73-1.7.07-3.4,0-5.24,0C70.51,36.13,115.47,31,142.09,56a19.75,19.75,0,0,0-2.3.25,11,11,0,0,0-8.2,12.85,26.37,26.37,0,0,0,4,9.16c2.44,3.92,4.78,7.9,6,12.43a32.82,32.82,0,0,1-.67,18.09c-2.91,9.65-6,19.24-9.14,29.15Zm52.11,36.49c-3,19.42-12.86,34.19-29.34,44.64l-.3-.22q2.52-7.29,5.05-14.59c5-14.43,10.09-28.85,15.06-43.3a50.85,50.85,0,0,0,2.78-22.32,2,2,0,0,1,0-.42C159.91,77.82,163.58,98.25,161.9,109.18Z"/><g id="Shadow"><path id="_07" data-name="07" class="cls-4" d="M102.16,107.27q-9,26.27-18.07,52.5c8.62,3.77,31,3.14,37.21-1l-9.4-25.72-9.41-25.8Z"/><path id="_06" data-name="06" class="cls-4" d="M135.56,78.23a26.37,26.37,0,0,1-4-9.16,11,11,0,0,1,8.2-12.85,19.75,19.75,0,0,1,2.3-.25C115.47,31,70.51,36.13,50.39,67.64c1.84,0,3.54.06,5.24,0,5-.22,9.95-.5,14.93-.73a2.26,2.26,0,0,1,2.38,1.65c.65,1.8-.47,3.36-2.56,3.54l-6.51.59,22,65.53c4.61-13,8.93-26,13.23-38.92a1.81,1.81,0,0,0,0-1.15q-4.47-12.36-9-24.71a1.48,1.48,0,0,0-1-.8c-1.7-.24-3.42-.38-5.14-.53C82,71.93,81,71,81.13,69.34s1.24-2.46,3.12-2.4c7,.21,13.93.49,20.9.54,3.66,0,7.33-.37,11-.56a2.5,2.5,0,0,1,2.76,3.31,2.64,2.64,0,0,1-2.69,1.87c-2.09.18-4.18.38-6.42.59l21.93,65.21c3.12-9.91,6.23-19.5,9.14-29.15a32.82,32.82,0,0,0,.67-18.09C140.34,86.13,138,82.15,135.56,78.23Z"/><path id="_05" data-name="05" class="cls-4" d="M137.31,139q-2.53,7.29-5.05,14.59l.3.22c16.48-10.45,26.38-25.22,29.34-44.64,1.68-10.93-2-31.36-6.72-36.21a2,2,0,0,0,0,.42,50.85,50.85,0,0,1-2.78,22.32C147.4,110.16,142.33,124.58,137.31,139Z"/><path id="_04" data-name="04" class="cls-4" d="M77.44,37.45h0l0,0Z"/><path id="_03" data-name="03" class="cls-4" d="M46.38,141.59l.14.49.87.87C47,142.5,46.71,142.05,46.38,141.59Z"/><path id="_02" data-name="02" class="cls-4" d="M74.3,155.83c-9.62-26.35-19.23-52.7-29-79.39-6.69,16.23-7.09,32.19-.54,48.13C50.57,138.69,60.52,149.06,74.3,155.83Z"/><path id="_01" data-name="01" class="cls-4" d="M152.38,56.25h0a68.11,68.11,0,0,1-92.83,98.85l47.25,47.25a101.26,101.26,0,0,0,95.59-96.1Z"/></g></g></g></g></g></svg>