<svg xmlns="http://www.w3.org/2000/svg" viewBox="0 0 202.49 202.49"><defs><style>.cls-1{isolation:isolate;}.cls-2{fill:#c22026;}.cls-3{fill:#fff;}.cls-4{fill:#231f20;opacity:0.3;mix-blend-mode:multiply;}</style></defs><title>Asset 26</title><g class="cls-1"><g id="Layer_2" data-name="Layer 2"><g id="Social_Media_Icons" data-name="Social Media Icons"><g id="Ask"><path id="Base" class="cls-2" d="M202.49,101.25c0,1.55,0,3.1-.11,4.63a101.16,101.16,0,1,1,.11-4.63Z"/><path id="Logo" class="cls-3" d="M110.52,97.73a9.65,9.65,0,0,1,5.85,0,27.38,27.38,0,0,1,2.86,1.19c1,.48,1,.5,1.36-.55.79-2.37,1.56-4.76,2.37-7.13a.69.69,0,0,0-.24-.88,18,18,0,0,0-7.06-3.74,13,13,0,0,0-8.13.32,42.29,42.29,0,0,0-4.86,2.42,12.13,12.13,0,0,0-2.26,1.46,12.69,12.69,0,0,0-4.74,10.55c0,1,0,2.08.11,3.1a10,10,0,0,0,.61,2.6,21,21,0,0,0,4.53,6.2c2,2.07,4.07,4,5.29,6.65a10.57,10.57,0,0,1,1.3,4.95,4.07,4.07,0,0,1-1.79,3.55,6,6,0,0,1-2.74.79,37.46,37.46,0,0,1-5.29-.31c-1.32-.15-2.62-.51-3.92-.78-.33-.07-.61-.13-.72.35-.39,1.66-.82,3.3-1.22,5-.37,1.51-.69,3.05-1.11,4.55-.17.6,0,.81.54.86l9.19.83,0-.19c.44,0,.87-.05,1.31-.06a27.14,27.14,0,0,0,11.61-2.89A15.44,15.44,0,0,0,120,130.2a11.14,11.14,0,0,0,1.77-5.86,17.82,17.82,0,0,0-1-4.83,20,20,0,0,0-4.08-6.9c-1.63-1.8-3.41-3.47-5.15-5.17a15.49,15.49,0,0,1-1.83-1.56,10,10,0,0,1-1.78-3.84C107.46,99.76,108.41,98.38,110.52,97.73Zm44,3.54c1.57-2.3,3.12-4.61,4.69-6.9l6.27-9.07c.17-.25.33-.51.55-.85a5.12,5.12,0,0,0-.51-.09c-3.87,0-7.74,0-11.61,0a1.24,1.24,0,0,0-.8.47c-1.3,1.81-2.55,3.66-3.83,5.49s-2.63,3.71-3.92,5.59-2.42,3.57-3.63,5.36a4,4,0,0,1-.54.47c.05-.49.06-.78.11-1.07.65-3.59,1.32-7.19,2-10.79.72-4,1.4-8.07,2.11-12.1.82-4.62,1.67-9.24,2.5-13.86.64-3.51,1.26-7,1.93-10.53.12-.63,0-.81-.65-.8-3.54,0-7.09,0-10.63,0-1.31,0-1.32,0-1.53,1.27-.56,3.38-1.1,6.76-1.67,10.14-.89,5.31-1.82,10.61-2.71,15.92-.83,5-1.62,9.9-2.44,14.85q-1.14,6.84-2.3,13.68c-.39,2.34-.76,4.68-1.16,7-.72,4.27-1.47,8.53-2.2,12.79-.35,2-.7,4.08-1,6.13-.27,1.9-.6,1.79,1.5,1.64,3.07-.22,6.13-.62,9.2-.88a1.07,1.07,0,0,0,1.13-1q1-5.07,2.11-10.13c.6-2.83,1.22-5.67,1.84-8.5a7.24,7.24,0,0,1,.34-1l.25,0c.2.65.39,1.31.62,2,.81,2.32,1.65,4.64,2.46,7q1.61,4.59,3.17,9.18a.65.65,0,0,0,.83.5q6.17-.92,12.36-1.8c.56-.08.63-.3.42-.78-.37-.82-.72-1.65-1-2.49-1.29-3.39-2.55-6.8-3.85-10.19s-2.74-7-4.1-10.54a.91.91,0,0,1,.07-.74C152,104.82,153.25,103.05,154.47,101.27ZM86.33,141.43c-.26-3.53-.53-7.06-.78-10.59q-.7-9.89-1.37-19.77c-.25-3.86-.45-7.72-.71-11.58C83,93,82.57,86.55,82.13,80.07c-.4-5.81-.77-11.62-1.17-17.43-.09-1.41-.23-2.83-.35-4.24l-.18,0q-22,45.68-43.92,91.35l.14.18c.7-.09,1.39-.19,2.09-.26,3.77-.4,7.55-.81,11.33-1.18a1,1,0,0,0,.9-.68c1.21-3,2.44-5.91,3.66-8.86.82-2,1.63-4,2.47-5.92.12-.27.43-.62.68-.64,2.56-.23,5.13-.41,7.7-.58s5.15-.3,7.72-.46c1.1-.07,1.13-.07,1.14,1,0,3.78.1,7.55.14,11.33,0,.93,0,1,.9.82,3.29-.55,6.57-1.14,9.86-1.71C86.41,142.58,86.42,142.59,86.33,141.43Zm-13-22.21c-3,.24-6,.52-9,.78-.28,0-.57,0-1,0,3.56-8.7,7.05-17.26,10.55-25.82l.15,0a5.7,5.7,0,0,1,.06.58q0,11.75,0,23.49C74.1,118.85,73.94,119.16,73.3,119.22Z"/><g id="Shadow"><path id="_02" data-name="02" class="cls-4" d="M149.76,53.26a.66.66,0,0,1,0,.14c-.39,2-.76,4.05-1.12,6.08l-.81,4.45c-.83,4.62-1.68,9.24-2.5,13.86-.71,4-1.39,8.07-2.11,12.1-.53,3-1.08,6-1.62,8.92-.11.62-.23,1.25-.34,1.87a.2.2,0,0,0,0,.07c0,.27-.06.55-.1,1,.25-.22.4-.32.49-.42l.05,0,3-4.47.61-.89.46-.66c1.15-1.65,2.31-3.28,3.46-4.93,1.28-1.83,2.53-3.67,3.83-5.49a1.3,1.3,0,0,1,.56-.41l.24-.06h11.61a5.12,5.12,0,0,1,.51.09h0c-.14.21-.25.39-.36.57s-.13.19-.19.28l-4.35,6.3-1.92,2.77c-1.57,2.29-3.12,4.6-4.69,6.9l-.54.77c-1.05,1.52-2.11,3-3.14,4.57a.91.91,0,0,0-.07.74q.94,2.46,1.91,4.92,1.11,2.81,2.19,5.62c.74,1.93,1.46,3.85,2.19,5.78.55,1.47,1.1,3,1.66,4.41.12.33.27.65.4,1,.21.5.41,1,.63,1.51a1.22,1.22,0,0,1,.1.31.31.31,0,0,1-.19.38,1.09,1.09,0,0,1-.25.07l-.08,0-.52.08q-5.92.84-11.85,1.72a.82.82,0,0,1-.51-.06.74.74,0,0,1-.31-.44c-.37-1.09-.75-2.18-1.13-3.28-.68-2-1.35-3.94-2-5.9q-.91-2.59-1.84-5.19c-.21-.59-.42-1.18-.62-1.77l0,0c-.22-.64-.4-1.28-.6-1.92l-.25,0a7.24,7.24,0,0,0-.34,1c-.21.93-.4,1.87-.61,2.8l-1.23,5.7q-1.07,5.05-2.11,10.13a1.07,1.07,0,0,1-1.13,1l-1.76.17c-1.51.14-3,.3-4.53.45-1,.1-1.94.19-2.91.26-.57,0-1,.07-1.22.07-.7,0-.47-.32-.28-1.71s.43-2.77.66-4.16l.33-2c.56-3.31,1.14-6.61,1.71-9.91.16-1,.33-1.92.49-2.88.4-2.33.77-4.67,1.16-7,.42-2.52.85-5,1.27-7.55l.6-3.58-7-7h0a.69.69,0,0,1,.24.88c-.81,2.37-1.58,4.76-2.36,7.14-.22.65-.3.88-.58.85a2.81,2.81,0,0,1-.79-.31L118,98.4a14.85,14.85,0,0,0-1.67-.66,9.65,9.65,0,0,0-5.85,0,4.28,4.28,0,0,0-2,1.18,3.41,3.41,0,0,0-.6,3.13,7.4,7.4,0,0,0,.29,1,10.59,10.59,0,0,0,1.5,2.79,2.66,2.66,0,0,0,.39.43c.45.4,1,.71,1.43,1.13l1.32,1.28c.86.84,1.71,1.7,2.55,2.56.43.44.87.87,1.28,1.33a17.24,17.24,0,0,1,1.22,1.49,20,20,0,0,1,2.54,4.6c.1.27.23.54.32.81a19.5,19.5,0,0,1,.67,2.41,18.16,18.16,0,0,1,.32,2.43,9.33,9.33,0,0,1-1.07,4.47c-.22.46-.46.92-.7,1.38-.11.2-.23.38-.35.58a15.27,15.27,0,0,1-1.67,2.27,15.85,15.85,0,0,1-4.3,3.32l-.29.17a24.94,24.94,0,0,1-6.47,2.27,33.57,33.57,0,0,1-5.14.62c-.44,0-.87,0-1.31.06v0l0,.16-3.22-.29-6-.54a.8.8,0,0,1-.41-.12.39.39,0,0,1-.19-.42,1.58,1.58,0,0,1,.06-.32c.42-1.5.74-3,1.11-4.56.26-1.08.54-2.17.81-3.26.14-.56.28-1.12.41-1.69s.33-.43.62-.37l.1,0c.89.18,1.78.41,2.67.58.42.08.83.16,1.25.2.82.1,1.65.18,2.48.23s1.87.1,2.81.08a6,6,0,0,0,2.74-.79l.16-.12a3.19,3.19,0,0,0,1.11-1.26,5.41,5.41,0,0,0,.52-2.17,6.33,6.33,0,0,0-.06-1.24,13,13,0,0,0-1.24-3.71c-1.22-2.67-3.32-4.58-5.29-6.65A24.06,24.06,0,0,1,96.84,108l0-.07,0,0q-.21-.4-.39-.84a9.15,9.15,0,0,1-.58-2.44l0-.16c0-.1,0-.21,0-.32q-.06-.78-.06-1.56c0-.4,0-.81,0-1.22a12.69,12.69,0,0,1,4.74-10.55,10,10,0,0,1,1.36-1c.3-.18.59-.35.89-.51A43.26,43.26,0,0,1,107.53,87c.37-.14.75-.26,1.12-.37l-28-28c.11,1.36.24,2.72.33,4.08.4,5.81.77,11.62,1.17,17.43.44,6.48.91,13,1.34,19.42.26,3.86.46,7.72.71,11.58q.66,9.89,1.37,19.77c.25,3.53.52,7.06.78,10.59.09,1.16.08,1.15-1.09,1.36-3.29.57-6.57,1.16-9.86,1.71-.88.15-.88.11-.9-.82,0-3.78-.09-7.55-.14-11.33,0-1.11,0-1.11-1.14-1-2.57.16-5.14.29-7.72.46s-5.14.35-7.7.58c-.25,0-.56.37-.68.64-.84,2-1.65,3.94-2.47,5.92-1.22,3-2.45,5.9-3.66,8.86a1,1,0,0,1-.9.68c-3.78.37-7.56.78-11.33,1.18-.7.07-1.39.17-2.09.26h0l52,51.82a101.31,101.31,0,0,0,113.75-95.83Z"/><path id="_01" data-name="01" class="cls-4" d="M73.87,94.18c-3.5,8.56-7,17.12-10.55,25.82.4,0,.69,0,1,0,3-.26,6-.54,9-.78.64-.06.8-.37.79-1q0-11.74,0-23.49A5.7,5.7,0,0,0,74,94.2Z"/></g></g></g></g></g></svg>