<svg xmlns="http://www.w3.org/2000/svg" viewBox="0 0 202.49 202.49"><defs><style>.cls-1{isolation:isolate;}.cls-2{fill:#83bd41;}.cls-3{fill:#fff;}.cls-4{fill:#231f20;opacity:0.3;mix-blend-mode:multiply;}</style></defs><title>Asset 22</title><g class="cls-1"><g id="Layer_2" data-name="Layer 2"><g id="Social_Media_Icons" data-name="Social Media Icons"><g id="Kik"><path id="Base" class="cls-2" d="M202.49,101.25A101.15,101.15,0,0,1,101.24,202.49c-.47,0-.94,0-1.4,0A101.24,101.24,0,1,1,202.49,101.25Z"/><g id="Logo"><path id="_04" data-name="04" class="cls-3" d="M45,100.5c1.52-1.46,2.93-2.77,4.29-4.12,3-3,6.07-5.91,9-8.95C62.68,82.92,68.93,84.7,71,89.35a8,8,0,0,1-2,8.79q-4.11,4.13-8.29,8.17c-.6.59-.7.93-.14,1.68,4.22,5.58,8.45,11.15,12.5,16.86a7.65,7.65,0,0,1-3.79,11.85,7.33,7.33,0,0,1-8.1-2.69c-3-4-5.94-8-8.9-12-1.09-1.46-2.2-2.91-3.26-4.38-.42-.57-.66-.53-1.26-.12a6.66,6.66,0,0,0-3.09,6.79,32.43,32.43,0,0,1-.19,6.6A7.18,7.18,0,0,1,38.11,137a7.09,7.09,0,0,1-7.35-4.26,12.56,12.56,0,0,1-.91-4.43q-.09-27.09,0-54.18c0-3.42,1.16-6.44,4.62-8a7.27,7.27,0,0,1,10.21,6.4c.18,6.15.13,12.3.17,18.44,0,2.94,0,5.88,0,8.82A6.21,6.21,0,0,0,45,100.5Z"/><path id="_03" data-name="03" class="cls-3" d="M124,100.38l12.21-12c1.38-1.35,2.69-2.79,4.66-3.32a7.6,7.6,0,0,1,8,2.72c2,2.79,2.15,6.37,0,8.91s-4.78,5-7.2,7.49c-.75.76-1.49,1.53-2.29,2.24-.56.48-.55.87-.13,1.44q6.2,8.28,12.35,16.57a7.83,7.83,0,0,1-.12,10,7.31,7.31,0,0,1-11.25-.18c-3.26-4.25-6.4-8.58-9.59-12.87-1-1.27-1.94-2.53-2.87-3.82-.39-.55-.74-.59-1.19-.13a1.84,1.84,0,0,1-.23.25c-2.49,1.61-3.1,3.91-2.84,6.75a29.91,29.91,0,0,1-.2,6.27,7.14,7.14,0,0,1-8.9,6.06,6.75,6.75,0,0,1-5.31-5.72,26.52,26.52,0,0,1-.43-4.53q0-26.12,0-52.24c0-2.94.77-5.67,3.33-7.5a7.28,7.28,0,0,1,11.3,4.38,10.82,10.82,0,0,1,.26,2.27q.08,12.26.12,24.51c0,.78,0,1.57,0,2.35Z"/><path id="_02" data-name="02" class="cls-3" d="M83.42,110.92c0-6.19,0-12.37,0-18.55a7.43,7.43,0,1,1,14.85.08c.1,3.51,0,7,0,10.54q0,13,0,26.1a7.73,7.73,0,0,1-3.26,6.55,7.25,7.25,0,0,1-11.17-3.72,11.47,11.47,0,0,1-.46-3.14c0-6,0-11.91,0-17.86Z"/><path id="_01" data-name="01" class="cls-3" d="M156.29,107.93a8.07,8.07,0,0,1,8.15-8.18,8.19,8.19,0,1,1-8.15,8.18Z"/></g><g id="Shadow"><path id="_03-2" data-name="03" class="cls-4" d="M123.28,71.18a10.82,10.82,0,0,1,.26,2.27q.08,12.26.12,24.51c0,.78,0,1.57,0,2.35l.3.07,12.21-12a17.81,17.81,0,0,1,3-2.58L122.52,69.18v0A7.16,7.16,0,0,1,123.28,71.18Z"/><path id="_02-2" data-name="02" class="cls-4" d="M44.67,72.49c.18,6.15.13,12.3.17,18.44,0,2.94,0,5.88,0,8.82a6.21,6.21,0,0,0,.1.75c1.52-1.46,2.93-2.77,4.29-4.12,3-3,6.07-5.91,9-8.95a9,9,0,0,1,2.09-1.6L43.74,69.18h0A7,7,0,0,1,44.67,72.49Z"/><path id="_01-2" data-name="01" class="cls-4" d="M171,102.9a7.89,7.89,0,0,1,1.73,5,8.2,8.2,0,1,1-16.4,0,8,8,0,0,1,5.08-7.6L148.85,87.82c2,2.79,2.14,6.36,0,8.9s-4.78,5-7.2,7.49c-.75.76-1.49,1.53-2.29,2.24-.56.48-.55.87-.13,1.44q6.2,8.28,12.35,16.57a7.83,7.83,0,0,1-.12,10,7.31,7.31,0,0,1-11.25-.18c-3.26-4.25-6.4-8.58-9.59-12.87-1-1.27-1.94-2.53-2.87-3.82-.39-.55-.74-.59-1.19-.13a1.84,1.84,0,0,1-.23.25c-2.49,1.61-3.1,3.91-2.84,6.75a29.91,29.91,0,0,1-.2,6.27,7.14,7.14,0,0,1-8.9,6.06,6.75,6.75,0,0,1-5.31-5.72,26.52,26.52,0,0,1-.43-4.53q0-13.49,0-27L96.34,87.27h0a7.69,7.69,0,0,1,2,5.17c.1,3.51,0,7,0,10.54q0,13,0,26.1a7.73,7.73,0,0,1-3.26,6.55,7.25,7.25,0,0,1-11.17-3.72,11.47,11.47,0,0,1-.46-3.14c0-6,0-11.91,0-17.86h0c0-3.28,0-6.56,0-9.84L69.58,87.25h0A7.5,7.5,0,0,1,71,89.35a8,8,0,0,1-2,8.79q-4.11,4.13-8.29,8.17c-.6.59-.7.93-.14,1.68,4.22,5.58,8.45,11.15,12.5,16.86a7.65,7.65,0,0,1-3.79,11.85,7.33,7.33,0,0,1-8.1-2.69c-3-4-5.94-8-8.9-12-1.09-1.46-2.2-2.91-3.26-4.38-.42-.57-.66-.53-1.26-.12a6.66,6.66,0,0,0-3.09,6.79,32.43,32.43,0,0,1-.19,6.6A7.18,7.18,0,0,1,38.11,137a7.41,7.41,0,0,1-5.25-1.49h0l67,67c.46,0,.93,0,1.4,0a101.28,101.28,0,0,0,97-72.27Z"/></g></g></g></g></g></svg>