<svg xmlns="http://www.w3.org/2000/svg" viewBox="0 0 203.51 203.51"><defs><style>.cls-1{isolation:isolate;}.cls-2{fill:#d44131;}.cls-3{fill:#fff;}.cls-4{fill:#231f20;opacity:0.3;mix-blend-mode:multiply;}</style></defs><title>Asset 5</title><g class="cls-1"><g id="Layer_2" data-name="Layer 2"><g id="Social_Media_Icons" data-name="Social Media Icons"><g id="Google_" data-name="Google +"><path id="Base" class="cls-2" d="M203.51,101.76A101.69,101.69,0,0,1,101.75,203.51h-.66A101.75,101.75,0,1,1,203.51,101.76Z"/><g id="Logo"><path class="cls-3" d="M110.44,48.74a3.31,3.31,0,0,0,1.56-.45c2.38-1.44,4.73-2.93,7.08-4.42.66-.41,1.28-.87,2.14-1.45h-1.46c-9,0-18,0-27,0-2.7,0-5.39.25-8.09.4A42.39,42.39,0,0,0,74.31,45a35.56,35.56,0,0,0-12.69,6.81A27.81,27.81,0,0,0,53.3,64a24.64,24.64,0,0,0-.69,14.1,23.58,23.58,0,0,0,8.24,13,24,24,0,0,0,13.23,5.38c2.69.24,5.43,0,8.28,0-2.93,6.12-1.23,11.45,3.19,16.37l-3.62.35c-2.34.22-4.69.32-7,.67a57.84,57.84,0,0,0-14.74,4C54,120.67,48.87,124.57,46,130.87c-2.55,5.59-2.61,11.22.42,16.68,3.7,6.66,9.87,9.92,16.9,11.84a58.09,58.09,0,0,0,10.43,1.55,58.88,58.88,0,0,0,14.77-.8,44.47,44.47,0,0,0,10.84-3.28,32.92,32.92,0,0,0,13-9.69c3.85-5,6-10.55,5.5-17a20.54,20.54,0,0,0-2.87-9.49c-2.55-4.18-6.19-7.31-9.88-10.4-2.62-2.19-5.32-4.31-7.9-6.55a5.92,5.92,0,0,1-1.8-4.32c-.15-2.67,1.22-4.7,3-6.42,2.22-2.16,4.65-4.12,6.93-6.22A22.77,22.77,0,0,0,110.42,80a21.17,21.17,0,0,0,2.08-11.47,37.91,37.91,0,0,0-1.09-6.56c-1.39-4.78-4.44-8.5-8-11.81-.44-.41-.92-.77-1.6-1.35C104.88,48.76,107.66,48.78,110.44,48.74Zm-8.17,77.77a14.3,14.3,0,0,1,5.07,8.7c.72,4.78-.22,9.15-3.61,12.79a19.56,19.56,0,0,1-11.83,5.9c-2.41.37-4.85.58-7.28.87-6.1-.2-12-1.15-17.35-4.16-4.35-2.43-7.65-5.79-9-10.78-2-7.69,1.32-14.36,8.21-18.06a34.23,34.23,0,0,1,13.34-3.83c2.93-.26,5.87-.42,8.8-.64a4.47,4.47,0,0,1,3.3,1C95.38,121.09,99,123.63,102.27,126.51Zm-6-39.71a13.65,13.65,0,0,1-7.34,4.89c-5.15,1.58-9.77.43-13.86-3-3.69-3.14-5.78-7.27-7.4-11.71a34.69,34.69,0,0,1-2.09-14.51c.42-6,3.2-11.09,9.41-13.28a13.39,13.39,0,0,1,13.69,2.51c4.52,3.71,6.9,8.74,8.61,14.15A31,31,0,0,1,99,76.58,15.63,15.63,0,0,1,96.26,86.8Zm47.57,5.27V76.76h-7.64v15.4H120.84v7.68h15.43v15.51h7.54c0-.31.06-.59.06-.86,0-4.47,0-8.95,0-13.42,0-.93.22-1.31,1.23-1.3,4.26,0,8.53,0,12.79,0h1.54V92.07Z"/><path class="cls-3" d="M110.44,48.74a3.31,3.31,0,0,0,1.56-.45c2.38-1.44,4.73-2.93,7.08-4.42.66-.41,1.28-.87,2.14-1.45h-1.46c-9,0-18,0-27,0-2.7,0-5.39.25-8.09.4A42.39,42.39,0,0,0,74.31,45a35.56,35.56,0,0,0-12.69,6.81A27.81,27.81,0,0,0,53.3,64a24.64,24.64,0,0,0-.69,14.1,23.58,23.58,0,0,0,8.24,13,24,24,0,0,0,13.23,5.38c2.69.24,5.43,0,8.28,0-2.93,6.12-1.23,11.45,3.19,16.37l-3.62.35c-2.34.22-4.69.32-7,.67a57.84,57.84,0,0,0-14.74,4C54,120.67,48.87,124.57,46,130.87c-2.55,5.59-2.61,11.22.42,16.68,3.7,6.66,9.87,9.92,16.9,11.84a58.09,58.09,0,0,0,10.43,1.55,58.88,58.88,0,0,0,14.77-.8,44.47,44.47,0,0,0,10.84-3.28,32.92,32.92,0,0,0,13-9.69c3.85-5,6-10.55,5.5-17a20.54,20.54,0,0,0-2.87-9.49c-2.55-4.18-6.19-7.31-9.88-10.4-2.62-2.19-5.32-4.31-7.9-6.55a5.92,5.92,0,0,1-1.8-4.32c-.15-2.67,1.22-4.7,3-6.42,2.22-2.16,4.65-4.12,6.93-6.22A22.77,22.77,0,0,0,110.42,80a21.17,21.17,0,0,0,2.08-11.47,37.91,37.91,0,0,0-1.09-6.56c-1.39-4.78-4.44-8.5-8-11.81-.44-.41-.92-.77-1.6-1.35C104.88,48.76,107.66,48.78,110.44,48.74Zm-8.17,77.77a14.3,14.3,0,0,1,5.07,8.7c.72,4.78-.22,9.15-3.61,12.79a19.56,19.56,0,0,1-11.83,5.9c-2.41.37-4.85.58-7.28.87-6.1-.2-12-1.15-17.35-4.16-4.35-2.43-7.65-5.79-9-10.78-2-7.69,1.32-14.36,8.21-18.06a34.23,34.23,0,0,1,13.34-3.83c2.93-.26,5.87-.42,8.8-.64a4.47,4.47,0,0,1,3.3,1C95.38,121.09,99,123.63,102.27,126.51Zm-6-39.71a13.65,13.65,0,0,1-7.34,4.89c-5.15,1.58-9.77.43-13.86-3-3.69-3.14-5.78-7.27-7.4-11.71a34.69,34.69,0,0,1-2.09-14.51c.42-6,3.2-11.09,9.41-13.28a13.39,13.39,0,0,1,13.69,2.51c4.52,3.71,6.9,8.74,8.61,14.15A31,31,0,0,1,99,76.58,15.63,15.63,0,0,1,96.26,86.8Z"/><path class="cls-3" d="M143.81,115.35h-7.54V99.84H120.84V92.16h15.34V76.76h7.65V92.07h15.56v7.72h-1.54c-4.26,0-8.53,0-12.79,0-1,0-1.24.37-1.23,1.3,0,4.47,0,9,0,13.42C143.87,114.76,143.83,115,143.81,115.35Z"/></g><g id="Shadow"><path class="cls-4" d="M67.27,150.61c5.37,3,11.25,4,17.35,4.16,2.43-.29,4.87-.5,7.28-.87a19.56,19.56,0,0,0,11.83-5.9c3.39-3.64,4.33-8,3.61-12.79a14.3,14.3,0,0,0-5.07-8.7c-3.3-2.88-6.89-5.42-10.31-8.18a4.47,4.47,0,0,0-3.3-1c-2.93.22-5.87.38-8.8.64a34.23,34.23,0,0,0-13.34,3.83c-6.89,3.7-10.23,10.37-8.21,18.06C59.62,144.82,62.92,148.18,67.27,150.61Z"/><path class="cls-4" d="M121.22,42.42c-.86.58-1.48,1-2.14,1.45-2.35,1.49-4.7,3-7.08,4.42a3.31,3.31,0,0,1-1.56.45c-2.78,0-5.56,0-8.67,0,.68.57,1.16.94,1.6,1.35,3.6,3.31,6.65,7,8,11.81a37.91,37.91,0,0,1,1.09,6.56A21.17,21.17,0,0,1,110.42,80a22.77,22.77,0,0,1-5.12,6.83c-2.28,2.1-4.71,4.06-6.93,6.22-1.77,1.72-3.14,3.75-3,6.42a5.92,5.92,0,0,0,1.8,4.32c2.58,2.24,5.28,4.36,7.9,6.55,3.69,3.09,7.33,6.22,9.88,10.4a20.54,20.54,0,0,1,2.87,9.49c.46,6.44-1.65,12-5.5,17a32.92,32.92,0,0,1-13,9.69,44.47,44.47,0,0,1-10.84,3.28,58.88,58.88,0,0,1-14.77.8,58.09,58.09,0,0,1-10.43-1.55c-5.21-1.42-9.93-3.58-13.54-7.3v.08l51.33,51.33h.66a101.76,101.76,0,0,0,99.62-80.94Zm38.17,57.37h-1.54c-4.26,0-8.53,0-12.79,0h0a1.17,1.17,0,0,0-1,.32,1.49,1.49,0,0,0-.22,1c0,4.47,0,9,0,13.42,0,.15,0,.31,0,.47s0,.25,0,.39h-7.54V99.84H120.84V92.16h15.34V76.76h7.65V92.07h15.56Z"/><path class="cls-4" d="M97.28,65.82c-1.71-5.41-4.09-10.44-8.61-14.15A13.39,13.39,0,0,0,75,49.16c-6.21,2.19-9,7.32-9.41,13.28A34.69,34.69,0,0,0,67.66,77c1.62,4.44,3.71,8.57,7.4,11.71,4.09,3.46,8.71,4.61,13.86,3a13.65,13.65,0,0,0,7.34-4.89A15.63,15.63,0,0,0,99,76.58,31,31,0,0,0,97.28,65.82Z"/></g></g></g></g></g></svg>