<svg xmlns="http://www.w3.org/2000/svg" viewBox="0 0 202.47 202.46"><defs><style>.cls-1{isolation:isolate;}.cls-2{fill:#3b7cc0;}.cls-3{fill:#fff;}.cls-4{fill:#231f20;opacity:0.3;mix-blend-mode:multiply;}</style></defs><title>Asset 39</title><g class="cls-1"><g id="Layer_2" data-name="Layer 2"><g id="Social_Media_Icons" data-name="Social Media Icons"><g id="Dropbox"><path id="Base" class="cls-2" d="M202.47,101.23c0,3.19-.15,6.35-.44,9.46a101.26,101.26,0,1,1,.44-9.46Z"/><path id="Logo" class="cls-3" d="M137.91,130.73c-3.3,2.15-6.13,3.88-8.83,5.78-1.46,1-2.5.85-3.82-.27-7.14-6-14.37-12-21.53-18-1-.88-1.82-1-2.94-.09-7,5.92-14.17,11.7-21.12,17.71-1.82,1.57-3.13,1.6-5,.26-2.47-1.82-5.1-3.44-8.13-5.46,0,2.46.09,4.33,0,6.19a3.18,3.18,0,0,0,1.87,3.27c9.15,5.37,18.47,10.51,27.27,16.44,4.74,3.19,8.59,4,12.88,0a1.06,1.06,0,0,1,.2-.12c9.17-5.5,18.35-11,27.49-16.51a3.42,3.42,0,0,0,1.57-2.17C138.05,135.66,137.91,133.5,137.91,130.73Zm.73-39.57a10.59,10.59,0,0,1,1.16-1.3Q150.32,81.42,160.89,73c2.21-1.76,2.17-2.19-.3-3.75q-6.34-4-12.62-8.08-9.6-6.22-19.16-12.52a2.58,2.58,0,0,0-3.65.26c-2.18,2-4.57,3.7-6.82,5.59C113,59,107.58,63.59,102.14,68.19c-1.56-1.36-3.1-2.72-4.67-4-6-5-12-9.94-17.94-15-1.41-1.2-2.53-1.52-4.2-.4-5.62,3.8-11.33,7.47-17,11.16-5.06,3.29-10.13,6.53-15.19,9.82-1,.67-2,1.44-.52,2.62,3.66,2.94,7.34,5.87,11,8.8,3.9,3.11,7.79,6.23,11.91,9.53-1.89,1.54-3.46,2.85-5.06,4.13C54.52,99.55,48.6,104.3,42.62,109c-1.48,1.16-1.41,2,.18,2.85.39.23.73.56,1.11.81,10.48,6.81,21,13.59,31.44,20.44a2.76,2.76,0,0,0,3.84-.16c6.74-5.69,13.54-11.29,20.31-17,2.91-2.43,2.89-2.46,5.79-.18.72.56,1.41,1.15,2.12,1.73,6,5,12.09,10,18.06,15,1.26,1.07,2.06.94,3.35.09,8.81-5.82,17.69-11.55,26.53-17.32,2.42-1.58,4.81-3.2,7.38-4.92ZM122.71,100c-6.28,3.86-12.54,7.73-18.85,11.52a2.68,2.68,0,0,1-2.3.17q-16.55-10-33-20.26a4.42,4.42,0,0,1-.73-.85c3.41-2.19,6.67-4.34,10-6.4,7.65-4.72,15.34-9.37,23-14.11a2.13,2.13,0,0,1,2.7,0C114.69,77,125.94,84,137.31,91Z"/><g id="Shadow"><path id="_03" data-name="03" class="cls-4" d="M68.56,91.42q16.48,10.18,33,20.26a2.68,2.68,0,0,0,2.3-.17c6.31-3.79,12.57-7.66,18.85-11.52l14.6-9C125.94,84,114.69,77,103.49,70a2.13,2.13,0,0,0-2.7,0c-7.63,4.74-15.32,9.39-23,14.11-3.32,2.06-6.58,4.21-10,6.4A4.42,4.42,0,0,0,68.56,91.42Z"/><path id="_02" data-name="02" class="cls-4" d="M102.17,68.16h-.06l0,0Z"/><path id="_01" data-name="01" class="cls-4" d="M162.73,71.4h-.29A4.54,4.54,0,0,1,160.89,73q-10.57,8.37-21.09,16.84a10.59,10.59,0,0,0-1.16,1.3l24.09,19.25c-2.57,1.72-5,3.34-7.38,4.92-8.84,5.77-17.72,11.5-26.53,17.32-1.29.85-2.09,1-3.35-.09-6-5.07-12-10-18.06-15-.71-.58-1.4-1.17-2.12-1.73-2.9-2.28-2.88-2.25-5.79.18-6.77,5.66-13.57,11.26-20.31,17a2.76,2.76,0,0,1-3.84.16c-10.45-6.85-21-13.63-31.44-20.44-.38-.25-.72-.58-1.11-.81a3.74,3.74,0,0,1-.69-.46l24.48,24.46c0-1.54,0-3.15,0-5.14h0l1.87,1.23c2.26,1.48,4.31,2.8,6.26,4.23a6,6,0,0,0,1.36.77c1.2.44,2.26.12,3.6-1L83.1,133c5.86-5,11.81-9.84,17.69-14.79,1.12-.94,1.89-.79,2.94.09,7.16,6,14.39,11.94,21.53,18,1.32,1.12,2.36,1.31,3.82.27.78-.54,1.56-1.07,2.37-1.6,1.37-.91,2.79-1.82,4.31-2.79l2.15-1.39c0,1.17,0,2.23,0,3.23a33.56,33.56,0,0,1-.12,3.81,1.5,1.5,0,0,1-.13.48,3.83,3.83,0,0,1-1.44,1.69q-4.75,2.88-9.53,5.74l-18,10.77a.62.62,0,0,0-.19.12,12.13,12.13,0,0,1-2.38,1.75c-3.4,1.86-6.66.87-10.51-1.72l-1.33-.88c-5.5-3.63-11.18-7-16.88-10.3-3-1.75-6-3.5-9.06-5.26a5.46,5.46,0,0,1-.77-.55l-.28,0L127,199.16A101.27,101.27,0,0,0,202,110.69Z"/></g></g></g></g></g></svg>