<svg xmlns="http://www.w3.org/2000/svg" viewBox="0 0 202.49 202.49"><defs><style>.cls-1{isolation:isolate;}.cls-2{fill:#754f99;}.cls-3{fill:#fff;}.cls-4{fill:#231f20;opacity:0.3;mix-blend-mode:multiply;}</style></defs><title>Asset 33</title><g class="cls-1"><g id="Layer_2" data-name="Layer 2"><g id="Social_Media_Icons" data-name="Social Media Icons"><g id="MeetMe"><path id="Base" class="cls-2" d="M202.49,101.25A101.17,101.17,0,0,1,101.25,202.49q-3.77,0-7.47-.28a101.24,101.24,0,1,1,108.71-101Z"/><path id="Logo" class="cls-3" d="M154.74,90a52.52,52.52,0,0,0-20-32C121.94,48.19,107.41,44.7,91.51,47.4A52.48,52.48,0,0,0,65.93,59.5,54.3,54.3,0,0,0,50.83,80a55.09,55.09,0,0,0-3.34,31.37,53.94,53.94,0,0,0,5.9,16.5,2.46,2.46,0,0,1,.21,1.64c-1.34,5.16-2.74,10.3-4.12,15.45-.95,3.52-1.87,7-2.87,10.78a6.21,6.21,0,0,0,1-.06c8.34-2.23,16.68-4.48,25-6.66a3.5,3.5,0,0,1,2.28.23,54.28,54.28,0,0,0,37.55,5.54,52.93,52.93,0,0,0,31.84-19.89C154.59,121.55,158.05,106.47,154.74,90ZM111.12,77.2a7.06,7.06,0,0,1,7,7.17C118,88,114.79,91.43,111,91.15a6.85,6.85,0,0,1-6.88-6.9A6.77,6.77,0,0,1,111.12,77.2ZM83.21,82.4c3.55-.31,7.12,3.08,7,6.93a6.8,6.8,0,0,1-7.1,7,7.07,7.07,0,0,1-6.92-7.07C76.26,85.47,79.59,82.15,83.21,82.4Zm54.29,22.47a53,53,0,0,1-18.86,17,39.83,39.83,0,0,1-15.06,4.61c-1.87.17-3.76.28-5.64.42A53.43,53.43,0,0,1,69.14,118a4.41,4.41,0,0,1-2.2-4.84,4.07,4.07,0,0,1,3.51-3.39,5.48,5.48,0,0,1,3.24.68,54.09,54.09,0,0,0,16.58,6.82,35,35,0,0,0,24.36-3.42,42.65,42.65,0,0,0,15.75-14c1.29-1.89,3.73-2.64,6.26-.95C138.36,100,138.75,103,137.5,104.87Z"/><g id="Shadow"><path id="_04" data-name="04" class="cls-4" d="M104.07,84.25a6.85,6.85,0,0,0,6.88,6.9c3.84.28,7-3.17,7.13-6.78a7.06,7.06,0,0,0-7-7.17A6.77,6.77,0,0,0,104.07,84.25Z"/><path id="_03" data-name="03" class="cls-4" d="M83.21,82.4c-3.62-.25-6.95,3.07-7,6.88a7.07,7.07,0,0,0,6.92,7.07,6.8,6.8,0,0,0,7.1-7C90.33,85.48,86.76,82.09,83.21,82.4Z"/><path id="_02" data-name="02" class="cls-4" d="M142.32,65.08a52.08,52.08,0,0,1,12.42,25c3.31,16.43-.15,31.51-10.47,44.84a52.93,52.93,0,0,1-31.84,19.89,54.28,54.28,0,0,1-37.55-5.54A3.5,3.5,0,0,0,72.6,149c-8.35,2.18-16.69,4.43-25,6.66l-.15,0,0,.13,46.4,46.39q3.7.28,7.47.28a101.26,101.26,0,0,0,98.91-79.58Z"/><path id="_01" data-name="01" class="cls-4" d="M69.14,118a53.43,53.43,0,0,0,28.8,8.94c1.88-.14,3.77-.25,5.64-.42a39.83,39.83,0,0,0,15.06-4.61,53,53,0,0,0,18.86-17c1.25-1.83.86-4.85-.86-6-2.53-1.69-5-.94-6.26.95a42.65,42.65,0,0,1-15.75,14,35,35,0,0,1-24.36,3.42,54.09,54.09,0,0,1-16.58-6.82,5.48,5.48,0,0,0-3.24-.68,4.07,4.07,0,0,0-3.51,3.39A4.41,4.41,0,0,0,69.14,118Z"/></g></g></g></g></g></svg>