<svg xmlns="http://www.w3.org/2000/svg" viewBox="0 0 203.51 203.51"><defs><style>.cls-1{isolation:isolate;}.cls-2{fill:#b72025;}.cls-3{fill:#fff;}.cls-4{fill:#231f20;opacity:0.3;mix-blend-mode:multiply;}</style></defs><title>Asset 4</title><g class="cls-1"><g id="Layer_2" data-name="Layer 2"><g id="Social_Media_Icons" data-name="Social Media Icons"><g id="Pinterest"><path id="Base" class="cls-2" d="M203.51,101.75a101.72,101.72,0,0,1-97.67,101.67c-1.36.06-2.72.09-4.09.09A101.76,101.76,0,1,1,203.51,101.75Z"/><path id="Logo" class="cls-3" d="M93.14,122.46l.12.05.09.12a14.69,14.69,0,0,0,3.47,4,22.8,22.8,0,0,0,6.35,3.68,25,25,0,0,0,8.19,1.71,37.87,37.87,0,0,0,15.25-2.76A38,38,0,0,0,139.89,120a46.76,46.76,0,0,0,7.27-10.22,59.59,59.59,0,0,0,5.55-15.47,62,62,0,0,0,1-6.36c.14-1.24.27-2.49.37-3.74s.1-2.2.16-3.29a42.76,42.76,0,0,0-.11-5.88,40.07,40.07,0,0,0-.68-4.74,42.45,42.45,0,0,0-4.76-12.63,45.39,45.39,0,0,0-15.31-15.94,49.93,49.93,0,0,0-15.29-6.39,57.23,57.23,0,0,0-6.64-1.15c-1.78-.2-3.56-.32-5.35-.36a71.46,71.46,0,0,0-10.34.57,63.21,63.21,0,0,0-7.34,1.37,55.57,55.57,0,0,0-14.86,6A50.37,50.37,0,0,0,60.33,53,48,48,0,0,0,50.15,73.66a41.47,41.47,0,0,0-1,8.53c0,1.59,0,3.16.18,4.74a44.09,44.09,0,0,0,1,6.16,32.78,32.78,0,0,0,3.75,9.55,23,23,0,0,0,9,8.75c.7.37,1.42.69,2.15,1a3.72,3.72,0,0,0,.94.25,2.44,2.44,0,0,0,2.51-1.16,4.36,4.36,0,0,0,.53-1.33c.39-1.54.78-3.07,1.16-4.6.19-.77.39-1.53.56-2.3a2.86,2.86,0,0,0-.42-2.22c-.14-.22-.28-.43-.44-.64s-.54-.67-.81-1A20.31,20.31,0,0,1,66.49,95a23.6,23.6,0,0,1-2-8.83,38.63,38.63,0,0,1,1.84-13.61,36.28,36.28,0,0,1,8.45-14.12A35.85,35.85,0,0,1,86.94,50.2,39.32,39.32,0,0,1,95,47.86a40.31,40.31,0,0,1,5.48-.62,51.57,51.57,0,0,1,5.56.06c1.48.11,2.94.27,4.4.52a34.69,34.69,0,0,1,8.69,2.66,28.31,28.31,0,0,1,5.58,3.4A26,26,0,0,1,132,62.74a30.52,30.52,0,0,1,3.18,12.7,59.61,59.61,0,0,1-.09,6c-.11,1.92-.29,3.84-.56,5.75a63.55,63.55,0,0,1-1.43,7.22,49.63,49.63,0,0,1-3.82,10.21,32.33,32.33,0,0,1-5.4,7.76,20.9,20.9,0,0,1-6.1,4.5,16.37,16.37,0,0,1-9,1.55,12.38,12.38,0,0,1-5.36-1.87,11.45,11.45,0,0,1-5.55-9.89,13.17,13.17,0,0,1,.45-3.47c.69-2.85,1.53-5.66,2.39-8.47s1.73-5.69,2.56-8.54a50.89,50.89,0,0,0,1.64-7.44,19.2,19.2,0,0,0,.06-5.19,12.75,12.75,0,0,0-1.23-4.08,9.22,9.22,0,0,0-5.47-4.79,11.66,11.66,0,0,0-4.94-.49,12.15,12.15,0,0,0-5.56,2,15.47,15.47,0,0,0-3.45,3.16,20.32,20.32,0,0,0-3.37,6.16A26.71,26.71,0,0,0,79.51,84a31.1,31.1,0,0,0,.37,5.19,28.48,28.48,0,0,0,2,7.18,1.09,1.09,0,0,1,0,.69c-.69,2.88-1.36,5.76-2,8.63q-1.87,8-3.77,15.94t-3.79,16c-.45,1.92-.88,3.85-1.15,5.81s-.46,4.06-.55,6.11c-.11,2.39-.13,4.77,0,7.16.07,1.5.16,3,.25,4.48.06.81.14,1.61.22,2.41.12,1.06.25,2.12.38,3.18.09.64.19,1.29.28,1.94a1,1,0,0,0,.21.52,1.07,1.07,0,0,0,1.55.1,3.37,3.37,0,0,0,.3-.36q3-3.87,5.7-8a83.12,83.12,0,0,0,5.2-9.31,49.79,49.79,0,0,0,3.15-8.49l4.74-18.52C92.77,124,93,123.22,93.14,122.46Z"/><g id="Shadow"><path id="_02" data-name="02" class="cls-4" d="M148.74,57.69h0a42.45,42.45,0,0,1,4.76,12.63,40.07,40.07,0,0,1,.68,4.74,42.76,42.76,0,0,1,.11,5.88c-.06,1.09-.08,2.19-.16,3.29s-.23,2.5-.37,3.74a62,62,0,0,1-1,6.36,59.59,59.59,0,0,1-5.55,15.47A46.76,46.76,0,0,1,139.89,120a38,38,0,0,1-13.28,9.22A37.87,37.87,0,0,1,111.36,132a25,25,0,0,1-8.19-1.71,22.8,22.8,0,0,1-6.35-3.68,14.69,14.69,0,0,1-3.47-4l-.09-.12-.12-.05c-.19.76-.37,1.49-.56,2.22L87.84,143.2a49.79,49.79,0,0,1-3.15,8.49,83.12,83.12,0,0,1-5.2,9.31q-2.65,4.14-5.7,8c-.1.12-.19.25-.3.36a1.07,1.07,0,0,1-1.55-.1l0,0,0,.22,34,33.95A101.75,101.75,0,0,0,203,112Z"/><path id="_01" data-name="01" class="cls-4" d="M76.1,121.62q1.89-8,3.77-15.94c.68-2.87,1.35-5.75,2-8.63a1.09,1.09,0,0,0,0-.69,28.48,28.48,0,0,1-2-7.18A31.1,31.1,0,0,1,79.51,84a26.71,26.71,0,0,1,1.42-8.45,20.32,20.32,0,0,1,3.37-6.16,15.47,15.47,0,0,1,3.45-3.16,12.15,12.15,0,0,1,5.56-2,11.66,11.66,0,0,1,4.94.49,9.22,9.22,0,0,1,5.47,4.79A12.75,12.75,0,0,1,105,73.54a19.2,19.2,0,0,1-.06,5.19,50.89,50.89,0,0,1-1.64,7.44c-.83,2.85-1.7,5.69-2.57,8.54s-1.69,5.62-2.38,8.47a13.17,13.17,0,0,0-.45,3.47,11.45,11.45,0,0,0,5.55,9.89,12.38,12.38,0,0,0,5.36,1.87,16.37,16.37,0,0,0,9-1.55,20.9,20.9,0,0,0,6.1-4.5,32.33,32.33,0,0,0,5.4-7.76,49.63,49.63,0,0,0,3.82-10.21,63.55,63.55,0,0,0,1.43-7.22c.27-1.91.45-3.83.56-5.75a59.61,59.61,0,0,0,.09-6A30.52,30.52,0,0,0,132,62.74a26,26,0,0,0-7.26-8.86,28.31,28.31,0,0,0-5.58-3.4,34.69,34.69,0,0,0-8.69-2.66c-1.46-.25-2.92-.41-4.4-.52a51.57,51.57,0,0,0-5.56-.06,40.31,40.31,0,0,0-5.48.62,39.32,39.32,0,0,0-8.1,2.34,35.85,35.85,0,0,0-12.21,8.27,36.28,36.28,0,0,0-8.45,14.12A38.63,38.63,0,0,0,64.44,86.2a23.6,23.6,0,0,0,2,8.83A20.31,20.31,0,0,0,69.2,99.4c.27.33.55.66.81,1s.3.42.44.64a2.86,2.86,0,0,1,.42,2.22c-.17.77-.37,1.53-.56,2.3-.38,1.53-.77,3.06-1.16,4.6a4.36,4.36,0,0,1-.53,1.33,2.44,2.44,0,0,1-2.51,1.16,3.72,3.72,0,0,1-.94-.25c-.73-.32-1.45-.64-2.15-1a22.27,22.27,0,0,1-5.51-4.2l0,.22,17.8,17.79Z"/></g></g></g></g></g></svg>