<svg xmlns="http://www.w3.org/2000/svg" viewBox="0 0 202.49 202.49"><defs><style>.cls-1{isolation:isolate;}.cls-2{fill:#2b2b2b;}.cls-3{fill:#fff;}.cls-4{fill:#f89920;}.cls-5{fill:#231f20;opacity:0.3;mix-blend-mode:multiply;}</style></defs><title>Asset 32</title><g class="cls-1"><g id="Layer_2" data-name="Layer 2"><g id="Social_Media_Icons" data-name="Social Media Icons"><g id="Amazon"><path id="Base" class="cls-2" d="M202.49,101.25a101.12,101.12,0,0,1-94.74,101q-3.23.22-6.51.22A101.25,101.25,0,1,1,202.49,101.25Z"/><g id="Logo"><path id="_03" data-name="03" class="cls-3" d="M141.68,116.9c-1.06-1.7-2.29-3.3-3.4-5a16.9,16.9,0,0,1-3.12-9.29c-.06-6.06,0-12.12,0-18.18h0c0-5.78,0-11.57,0-17.35a43,43,0,0,0-1.27-10.77,21.39,21.39,0,0,0-9.56-13.06,37.51,37.51,0,0,0-17-5.34,54.19,54.19,0,0,0-17,1A37.4,37.4,0,0,0,75.68,45.5a26.28,26.28,0,0,0-8.05,10.09c-1.08,2.38-1.57,5-2.43,7.51a2.46,2.46,0,0,0,.63,2.69c1,1.08,2.35,1.17,3.7,1.31,2.56.25,5.11.55,7.66.83,2,.22,4.08.52,6.13.66a3.19,3.19,0,0,0,3.35-2.7,12.27,12.27,0,0,1,6.2-8.66,15.06,15.06,0,0,1,9.44-1.51c5.73.75,8.55,4.5,9,9.4.25,2.64.1,5.3.19,7.95,0,.72-.22,1-.91,1.07-2.43.27-4.86.55-7.28.89-4.56.63-9.14,1.2-13.67,2a42.27,42.27,0,0,0-7.5,2.06C71.51,83.15,64.58,90.41,62.78,102a34.36,34.36,0,0,0,.56,13.51,23,23,0,0,0,5.06,10.06,22.21,22.21,0,0,0,14,7.26,40.29,40.29,0,0,0,8.36.24,41.63,41.63,0,0,0,8.61-1.35c5.87-1.65,10.44-5.47,14.69-9.66.75-.75,1.07-.64,1.58.15a40.12,40.12,0,0,0,7.81,9.18c1.84,1.56,3.58,1.79,5.4.24,4.11-3.53,8.17-7.12,12.23-10.71A3,3,0,0,0,141.68,116.9ZM111.49,92.18h-.12a68.63,68.63,0,0,1,0,6.88c-.64,6.56-3,12.31-8.93,15.87-4.49,2.67-10.86,1.81-13.55-2.76A14.71,14.71,0,0,1,87,101.46a17.14,17.14,0,0,1,2.06-5.87,14.68,14.68,0,0,1,7.11-5.67,35.6,35.6,0,0,1,12-2.34c.78,0,1.57-.08,2.36-.16s1,.24,1,1C111.47,89.64,111.49,90.91,111.49,92.18Z"/><path id="_02" data-name="02" class="cls-4" d="M101.58,164.7a51.22,51.22,0,0,1-13.89-1.07,112.84,112.84,0,0,1-12.38-3.55,68.06,68.06,0,0,1-14.61-7.47,79.24,79.24,0,0,1-11.62-9.18c-2.22-2.13-4.25-4.46-6.44-6.62a2.15,2.15,0,0,1-.52-2.39c.32-1,1.26-.59,1.91-.35a7.41,7.41,0,0,1,1.55,1.07,94.24,94.24,0,0,0,19.24,10.61,137.67,137.67,0,0,0,13.92,4.78,114.31,114.31,0,0,0,12,2.27,61.14,61.14,0,0,0,14.29.89A143.41,143.41,0,0,0,119.32,152a81.75,81.75,0,0,0,11.21-2.83c3.69-1.19,7.28-2.74,10.87-4.24,2-.82,3.81-1.93,5.79-2.72a2.53,2.53,0,0,1,2.25.21,2.71,2.71,0,0,1,.71,2.37,8.37,8.37,0,0,1-2.28,2.92,67.37,67.37,0,0,1-14.1,9.33,79,79,0,0,1-15.86,5.78A60.62,60.62,0,0,1,101.58,164.7Z"/><path id="_01" data-name="01" class="cls-4" d="M152.21,132.63c1.95.36,4.3.75,6.64,1.25a2.07,2.07,0,0,1,1.67,2.28,25.2,25.2,0,0,1-7.17,18.12c-.22.23-.42.54-.69.64a14.26,14.26,0,0,1-1.82.46,5,5,0,0,1-.11-1.78c.94-2.87,2.07-5.69,3-8.57a19.18,19.18,0,0,0,.73-4.4c.09-1.28-.58-1.91-1.81-2.23-3.09-.8-6.19-.49-9.3-.12-1.41.16-2.82.39-4.23.43-.5,0-1-.4-1.51-.62.26-.53.39-1.25.82-1.55a18.38,18.38,0,0,1,8.07-3.13C148.21,133.15,150,132.93,152.21,132.63Z"/></g><g id="Shadow"><path id="_03-2" data-name="03" class="cls-5" d="M110.52,87.42c-.79.08-1.58.11-2.36.16a35.6,35.6,0,0,0-12,2.34,14.68,14.68,0,0,0-7.11,5.67A17.14,17.14,0,0,0,87,101.46a14.71,14.71,0,0,0,1.86,10.71c2.69,4.57,9.06,5.43,13.55,2.76,6-3.56,8.29-9.31,8.93-15.87a68.63,68.63,0,0,0,0-6.88h.12c0-1.27,0-2.54,0-3.81C111.51,87.66,111.25,87.35,110.52,87.42Z"/><path id="_02-2" data-name="02" class="cls-5" d="M111.33,65.12c-.47-4.9-3.29-8.65-9-9.4a15.06,15.06,0,0,0-9.44,1.51,12.27,12.27,0,0,0-6.2,8.66,3.19,3.19,0,0,1-3.35,2.7c-2-.14-4.08-.44-6.13-.66-2.55-.28-5.1-.58-7.66-.83A5.67,5.67,0,0,1,66,66l13.79,13.8-.2.38c.82-.37,1.66-.74,2.53-1.07A41.44,41.44,0,0,1,89.66,77c4.53-.8,9.11-1.37,13.67-2,2.42-.34,4.85-.62,7.28-.89.69-.08.93-.35.91-1.07C111.43,70.42,111.58,67.76,111.33,65.12Z"/><path id="_01-2" data-name="01" class="cls-5" d="M129.68,48.06h0a22,22,0,0,1,4.16,8.28,43,43,0,0,1,1.27,10.77c.06,5.78,0,11.57,0,17.35h0c0,6.06,0,12.12,0,18.18a16.9,16.9,0,0,0,3.12,9.29c1.11,1.67,2.34,3.27,3.4,5a3,3,0,0,1-.62,4c-4.06,3.59-8.12,7.18-12.23,10.71-1.82,1.55-3.56,1.32-5.4-.24a40.12,40.12,0,0,1-7.81-9.18c-.51-.79-.83-.9-1.58-.15-4.25,4.19-8.82,8-14.69,9.66a41.63,41.63,0,0,1-8.61,1.35,41,41,0,0,1-8.36-.23A22.48,22.48,0,0,1,69.8,127l0,.11,26.39,26.4a52.44,52.44,0,0,0,8.86.17A143.41,143.41,0,0,0,119.32,152a81.75,81.75,0,0,0,11.21-2.83c3.69-1.19,7.28-2.74,10.87-4.24,2-.82,3.81-1.93,5.79-2.72a2.53,2.53,0,0,1,2.25.21,2.71,2.71,0,0,1,.71,2.37,8.37,8.37,0,0,1-2.28,2.92A67.18,67.18,0,0,1,133.76,157a78.71,78.71,0,0,1-15.85,5.78,60.62,60.62,0,0,1-16.33,1.9,51.22,51.22,0,0,1-13.89-1.07,112.84,112.84,0,0,1-12.38-3.55,68.06,68.06,0,0,1-14.61-7.47,81,81,0,0,1-10-7.72l57.08,57.38a101.28,101.28,0,0,0,93.14-83Zm23.67,106.22c-.22.23-.42.54-.69.64a14.26,14.26,0,0,1-1.82.46,5,5,0,0,1-.11-1.78c.94-2.87,2.07-5.69,3-8.57a19.18,19.18,0,0,0,.73-4.4c.09-1.28-.58-1.91-1.81-2.23-3.09-.8-6.19-.49-9.3-.12-1.41.16-2.82.39-4.23.43-.5,0-1-.4-1.51-.62.26-.53.39-1.25.82-1.55a18.38,18.38,0,0,1,8.07-3.13c1.75-.26,3.51-.48,5.75-.78,1.95.36,4.3.75,6.64,1.25a2.07,2.07,0,0,1,1.67,2.28A25.2,25.2,0,0,1,153.35,154.28Z"/></g></g></g></g></g></svg>