<svg xmlns="http://www.w3.org/2000/svg" viewBox="0 0 202.47 202.47"><defs><style>.cls-1{isolation:isolate;}.cls-2{fill:#2b2b2b;}.cls-3{fill:#fff;}.cls-4{fill:#231f20;opacity:0.3;mix-blend-mode:multiply;}</style></defs><title>Asset 40</title><g class="cls-1"><g id="Layer_2" data-name="Layer 2"><g id="Social_Media_Icons" data-name="Social Media Icons"><g id="GitHub"><path id="Base" class="cls-2" d="M202.47,101.23q0,4.47-.39,8.84a101.24,101.24,0,0,1-94.89,92.22q-3,.18-6,.18A101.24,101.24,0,1,1,202.47,101.23Z"/><path id="Logo" class="cls-3" d="M113.59,132.37c3,3,4,6.95,4.09,11.19.06,6.33,0,12.65,0,19a3,3,0,0,0,3.32,3.28,5.69,5.69,0,0,0,1.83-.33,66.4,66.4,0,0,0,44.52-58.31,63.61,63.61,0,0,0-2.07-21.26,65.66,65.66,0,0,0-23.09-35.1,64.92,64.92,0,0,0-37.35-14.13,63,63,0,0,0-17,1.27A66.31,66.31,0,0,0,36.07,115a65.08,65.08,0,0,0,15.37,31.55,65.84,65.84,0,0,0,28.32,19c3,1.05,5.08-.47,5-3.64,0-3.58-.09-7.17-.15-10.76,0-.28-.06-.55-.1-.89a28.85,28.85,0,0,1-10.74.46c-5.39-.92-9.5-3.56-11.66-8.82a19.55,19.55,0,0,0-6.19-8.6,34.41,34.41,0,0,1-2.78-2.16c-.37-.33-.79-1.11-.64-1.37a2.08,2.08,0,0,1,1.46-.95,13.55,13.55,0,0,1,3.92.35c3.27.93,5.55,3.19,7.46,5.92a25.65,25.65,0,0,0,3.82,4.7c4.58,4,10.28,3.46,15.27,1.37a1,1,0,0,0,.51-.64,14.26,14.26,0,0,1,3.83-8.14c-3.57-.84-7.23-1.46-10.74-2.57-7.2-2.27-12.75-6.62-16-13.63a37,37,0,0,1-3-12.14,33.54,33.54,0,0,1,.52-10.9,26,26,0,0,1,6.1-11.54,24.47,24.47,0,0,1,.38-16.79c.24-.69.6-1,1.29-.88a39.24,39.24,0,0,1,4.37.58,39,39,0,0,1,11.95,5.76,2.37,2.37,0,0,0,1.94.34c3.42-.65,6.84-1.39,10.3-1.74a62.38,62.38,0,0,1,21.16,1.74,2.15,2.15,0,0,0,1.39-.26c2.45-1.34,4.82-2.85,7.33-4.08A19.9,19.9,0,0,1,135,63.93c.63,0,1,.15,1.26.8a24.93,24.93,0,0,1,.68,16,1.52,1.52,0,0,0,.36,1.67,24.09,24.09,0,0,1,5.44,10.7,39.09,39.09,0,0,1-.2,15.94c-2,10.28-7.81,17.3-17.8,20.58C121.14,130.81,117.32,131.47,113.59,132.37ZM83.06,142.79l-1.54,1.46c.42.31.92.94,1.25.87A5.43,5.43,0,0,0,84.34,144C84,143.69,83.64,143.34,83.06,142.79Zm-5.1.64-1.54,1.39c.48.33,1,.92,1.42.92s1-.58,1.44-.9Zm-8.89-1.5c0-1.08-.81-1.93-1.58-1.8a1.17,1.17,0,0,0-.8.77c-.12.62,1,1.68,1.59,1.57C68.62,142.41,68.9,142.05,69.07,141.93Zm2.85,1-.82.87a5.6,5.6,0,0,0,1.56,1.11c.32.09,1.2-.49,1.18-.71C73.77,143.38,73.1,143,71.92,142.93Zm-6.33-4.81c0-1.06-.65-1.9-1.29-1.77a1.16,1.16,0,0,0-.72.76,1.47,1.47,0,0,0,1.32,1.49C65.2,138.56,65.45,138.22,65.59,138.12Zm-2.28-4A14.24,14.24,0,0,0,61.66,133c-.08,0-.61.57-.58.6a6.87,6.87,0,0,0,1.19,1.22C62.33,134.88,62.73,134.51,63.31,134.1Zm-5.08-3.23c0,.17-.07.34-.1.51a11.56,11.56,0,0,0,1.44.65c.1,0,.49-.4.46-.48-.15-.3-.37-.68-.64-.76A3.09,3.09,0,0,0,58.23,130.87Z"/><path id="Shadow" class="cls-4" d="M149.24,57.23a65.61,65.61,0,0,1,16,28.69,63.61,63.61,0,0,1,2.07,21.26,66.4,66.4,0,0,1-44.52,58.31,5.69,5.69,0,0,1-1.83.33,3,3,0,0,1-3.32-3.28c0-6.33,0-12.65,0-19,0-4.24-1.14-8.15-4.09-11.19,3.73-.9,7.55-1.56,11.19-2.75,10-3.28,15.82-10.3,17.8-20.58a39.09,39.09,0,0,0,.2-15.94,24.09,24.09,0,0,0-5.44-10.7,1.52,1.52,0,0,1-.36-1.67,24.93,24.93,0,0,0-.68-16c-.23-.65-.63-.79-1.26-.8a19.9,19.9,0,0,0-9.21,2.35c-2.51,1.23-4.88,2.74-7.33,4.08a2.15,2.15,0,0,1-1.39.26A62.38,62.38,0,0,0,96,68.88c-3.46.35-6.88,1.09-10.3,1.74a2.37,2.37,0,0,1-1.94-.34,39,39,0,0,0-11.95-5.76,39.24,39.24,0,0,0-4.37-.58c-.69-.09-1,.2-1.29.88a24.47,24.47,0,0,0-.38,16.79,26,26,0,0,0-6.1,11.54,33.54,33.54,0,0,0-.52,10.9,37,37,0,0,0,3,12.14c3.24,7,8.79,11.36,16,13.63,3.51,1.11,7.17,1.73,10.74,2.57A14.26,14.26,0,0,0,85,140.53a1,1,0,0,1-.51.64c-5,2.09-10.69,2.59-15.27-1.37a25.65,25.65,0,0,1-3.82-4.7c-1.91-2.73-4.19-5-7.46-5.92a13.55,13.55,0,0,0-3.92-.35,2.08,2.08,0,0,0-1.46.95c-.15.26.27,1,.64,1.37A34.41,34.41,0,0,0,56,133.31a19.55,19.55,0,0,1,6.19,8.6c2.16,5.26,6.27,7.9,11.66,8.82a28.85,28.85,0,0,0,10.74-.46c0,.34.09.61.1.89.06,3.59.12,7.18.15,10.76,0,3.17-2,4.69-5,3.64A66.11,66.11,0,0,1,57.88,153l49.31,49.32a101.24,101.24,0,0,0,94.89-92.22ZM59.57,132a11.56,11.56,0,0,1-1.44-.65c0-.17.06-.34.1-.51a3.09,3.09,0,0,1,1.16-.08c.27.08.49.46.64.76C60.06,131.63,59.67,132.07,59.57,132Zm2.7,2.8a6.87,6.87,0,0,1-1.19-1.22s.5-.64.58-.6a14.24,14.24,0,0,1,1.65,1.09C62.73,134.51,62.33,134.88,62.27,134.83Zm2.63,3.77a1.48,1.48,0,0,1-1.32-1.49,1.16,1.16,0,0,1,.72-.76c.64-.13,1.31.71,1.29,1.77C65.45,138.22,65.2,138.56,64.9,138.6Zm3.38,3.87c-.62.11-1.71-.95-1.59-1.57a1.17,1.17,0,0,1,.8-.77c.77-.13,1.59.72,1.58,1.8C68.9,142.05,68.62,142.41,68.28,142.47Zm4.38,2.44a5.6,5.6,0,0,1-1.56-1.11l.82-.87c1.18.09,1.85.45,1.92,1.27C73.86,144.42,73,145,72.66,144.91Zm5.18.83c-.47,0-.94-.59-1.42-.92L78,143.43l1.32,1.41C78.8,145.16,78.32,145.74,77.84,145.74Zm4.93-.62c-.33.07-.83-.56-1.25-.87l1.54-1.46c.58.55.93.9,1.28,1.24A5.43,5.43,0,0,1,82.77,145.12Z"/></g></g></g></g></svg>