<svg xmlns="http://www.w3.org/2000/svg" viewBox="0 0 202.49 202.49"><defs><style>.cls-1{isolation:isolate;}.cls-2{fill:#3377bc;}.cls-3{fill:#fff;}.cls-4{fill:#231f20;opacity:0.3;mix-blend-mode:multiply;}</style></defs><title>Asset 47</title><g class="cls-1"><g id="Layer_2" data-name="Layer 2"><g id="Social_Media_Icons" data-name="Social Media Icons"><g id="Microsoft"><path id="Base" class="cls-2" d="M202.49,101.25c0,.41,0,.82,0,1.23,0,1.43-.06,2.86-.14,4.28a101.24,101.24,0,0,1-87,94.75c-1.24.18-2.48.33-3.73.46-3.39.34-6.84.52-10.32.52A101.25,101.25,0,1,1,202.49,101.25Z"/><path id="Logo" class="cls-3" d="M46.83,97.91h40V59.58l-40,5.67ZM93.49,58.58V97.91h53.34V51.25Zm0,85.33,53.34,7.34V104.58H93.49Zm-46.66-6.66,40,5.66V104.58h-40Z"/><path id="Shadow" class="cls-4" d="M146.83,51.25h0V97.91H93.49V66.25l-6.66-6.67h0V97.91H46.91l6.67,6.67H86.83v38.33l-40-5.66v0l64.7,64.7c1.25-.13,2.49-.28,3.73-.46a101.24,101.24,0,0,0,87-94.75Zm0,100-53.34-7.34V104.58h53.34Z"/></g></g></g></g></svg>