<svg xmlns="http://www.w3.org/2000/svg" viewBox="0 0 202.49 202.49"><defs><style>.cls-1{isolation:isolate;}.cls-2{fill:#c72026;}.cls-3{fill:#fff;}.cls-4{fill:#231f20;opacity:0.3;mix-blend-mode:multiply;}</style></defs><title>Asset 30</title><g class="cls-1"><g id="Layer_2" data-name="Layer 2"><g id="Social_Media_Icons" data-name="Social Media Icons"><g id="Adobe"><path id="Base" class="cls-2" d="M202.49,101.24A101.35,101.35,0,0,1,200,123.63c-.16.73-.34,1.45-.52,2.17a101.29,101.29,0,0,1-94.18,76.61c-1.35.05-2.7.08-4.06.08h-.42A101.25,101.25,0,1,1,202.49,101.24Z"/><polygon id="Logo" class="cls-3" points="87.8 41.37 48.36 145.52 110.2 145.52 103.49 124.55 84.03 124.55 101.24 78.66 126.16 145.52 154.13 145.52 115.05 41.37 87.8 41.37"/><path id="Shadow" class="cls-4" d="M199.48,125.8a101.29,101.29,0,0,1-94.18,76.61L48.41,145.52H110.2l-6.71-21H84l17.21-45.89,24.92,66.86h28L115.05,41.37Z"/></g></g></g></g></svg>