<svg xmlns="http://www.w3.org/2000/svg" viewBox="0 0 202.49 202.49"><defs><style>.cls-1{isolation:isolate;}.cls-2{fill:#e97924;}.cls-3{fill:#fff;}.cls-4{fill:#231f20;opacity:0.3;mix-blend-mode:multiply;}</style></defs><title>Asset 15</title><g class="cls-1"><g id="Layer_2" data-name="Layer 2"><g id="Social_Media_Icons" data-name="Social Media Icons"><g id="RSS"><path id="Base" class="cls-2" d="M202.49,101.25A101.25,101.25,0,1,1,101.25,0,100.77,100.77,0,0,1,202.49,101.25Z"/><path id="Logo" class="cls-3" d="M152.13,138.7c.22-53.79-46.33-92.42-90.56-90.7V65c20.17.38,37.55,7.46,51.74,21.73s21.17,31.76,21.59,51.93ZM61.44,96.06c11.8.23,21.83,4.31,30.07,12.59S103.7,127,104,138.65h17.36c-.59-19-7.84-34.61-22.48-46.6C88.07,83.18,75.52,78.89,61.44,78.73V96.06Zm24.12,30.67a12.07,12.07,0,1,0-12.18,12A12.15,12.15,0,0,0,85.56,126.73Z"/><path id="Shadow" class="cls-4" d="M193.51,143a101.47,101.47,0,0,1-64.79,55.72L66.17,136.16a11.81,11.81,0,0,0,7.21,2.54A12,12,0,0,0,83,119.22l.06,0L61.42,96.08l0,0c11.79.23,21.83,4.31,30.06,12.59S103.7,127,104,138.65h17.36c-.59-19-7.84-34.61-22.48-46.6A57.38,57.38,0,0,0,77.51,80.92L61.63,65c20.15.39,37.51,7.48,51.68,21.73s21.17,31.76,21.59,51.93h17.23a89.35,89.35,0,0,0-21-58.09Z"/></g></g></g></g></svg>