<svg xmlns="http://www.w3.org/2000/svg" viewBox="0 0 202.43 202.43"><defs><style>.cls-1{isolation:isolate;}.cls-2{fill:#4063ae;}.cls-3{fill:#fff;}.cls-4{fill:#231f20;opacity:0.3;mix-blend-mode:multiply;}</style></defs><title>Asset 13</title><g class="cls-1"><g id="Layer_2" data-name="Layer 2"><g id="Social_Media_Icons" data-name="Social Media Icons"><g id="Behance"><path id="Base" class="cls-2" d="M202.43,101.21A101.15,101.15,0,0,1,101.22,202.43h-.55A101.21,101.21,0,1,1,202.43,101.21Z"/><path id="Logo" class="cls-3" d="M151.8,65.93c0-.4-.11-.51-.5-.51q-15.23,0-30.47,0c-.39,0-.47.13-.47.49q0,3.41,0,6.8c0,.41.12.53.53.53h30.38c.44,0,.52-.16.52-.55Q151.78,69.32,151.8,65.93ZM164,113.2c-.07-2.41-.14-4.83-.24-7.24a29.71,29.71,0,0,0-1.26-7.36A26.45,26.45,0,0,0,157,88.72a21.94,21.94,0,0,0-8.44-6,30.45,30.45,0,0,0-8.38-2.07,34.65,34.65,0,0,0-10.94.49,26.36,26.36,0,0,0-6.84,2.45,24.12,24.12,0,0,0-6.07,4.5,23,23,0,0,0-3.73,4.83A28,28,0,0,0,110,99.2a37.58,37.58,0,0,0-1.34,8.35,44.12,44.12,0,0,0,.93,12.55,25.75,25.75,0,0,0,3,7.56,20.6,20.6,0,0,0,4.58,5.26,30.63,30.63,0,0,0,8.89,5,27.93,27.93,0,0,0,7.92,1.68,36,36,0,0,0,13.36-1.43,24.33,24.33,0,0,0,6.36-3.09,25.93,25.93,0,0,0,7.16-7.52,15.24,15.24,0,0,0,2.27-5.62c.07-.38,0-.49-.41-.49q-7,0-13.91,0a.85.85,0,0,0-.8.43,19.71,19.71,0,0,1-2.21,2.89c-2.53,2.44-5.73,3.13-9.13,3.06a15.4,15.4,0,0,1-5-.9,12,12,0,0,1-5.21-3.5,10.88,10.88,0,0,1-2.42-4.8c-.3-1.41-.48-2.84-.72-4.26-.05-.33,0-.47.42-.47h39.53C164,113.94,164,113.93,164,113.2Zm-15.66-8.86c-2.1,0-4.21,0-6.31,0H124.32c-.71,0-.7,0-.59-.68A15.81,15.81,0,0,1,126,97.51a10.06,10.06,0,0,1,5.36-4.3,15,15,0,0,1,7.34-.53,11.5,11.5,0,0,1,8.15,5.17,12.55,12.55,0,0,1,1.72,5.2c0,.27.08.55.13.83S148.66,104.34,148.3,104.34Zm-47.18,4.37a16.35,16.35,0,0,0-9-9.64l-1.57-.69a2.53,2.53,0,0,1,.32-.27c.91-.56,1.86-1.06,2.74-1.67a14,14,0,0,0,4-4.18,18.36,18.36,0,0,0,2.41-10,21.92,21.92,0,0,0-1.17-7.21,17,17,0,0,0-4.16-6.62,20,20,0,0,0-8.75-4.93,31,31,0,0,0-8.12-1.25Q72.9,62.21,68,62.2H39.13c-.65,0-.64,0-.64.63q0,38.42,0,76.83c0,.45.11.58.57.58H71.27a69.29,69.29,0,0,0,12-.77,26.45,26.45,0,0,0,5.68-1.58,20.91,20.91,0,0,0,8.16-6,22.61,22.61,0,0,0,5.12-11.41A23.63,23.63,0,0,0,101.12,108.71Zm-44.2-33c4.91,0,9.83,0,14.75,0a31.07,31.07,0,0,1,6.66.7,8,8,0,0,1,3.9,1.75A6.77,6.77,0,0,1,84.3,82.5a10.53,10.53,0,0,1-.9,6.28,6.07,6.07,0,0,1-2.86,2.62,13.91,13.91,0,0,1-6,1.46c-2.79,0-5.59,0-8.38,0v.07h-9c-.65,0-.64,0-.64-.66q0-8.07,0-16.13C56.49,75.81,56.61,75.71,56.92,75.71Zm28.35,44.66a8.41,8.41,0,0,1-5.36,5.34,20.09,20.09,0,0,1-6.84,1c-5.35,0-10.69,0-16,0-.6,0-.54-.29-.54-.71q0-4.83,0-9.67t0-10c0-.39.13-.46.48-.46,4.74,0,9.47,0,14.21,0,2.08,0,4.16.13,6.24.31a10.91,10.91,0,0,1,4.47,1.42,7.56,7.56,0,0,1,3.6,4.4A13.19,13.19,0,0,1,85.27,120.37Z"/><g id="Shadow"><path id="_04" data-name="04" class="cls-4" d="M151.92,65.3l-.51.13a.48.48,0,0,1,.27.08.53.53,0,0,1,.12.42c0,1.18,0,2.36,0,3.53s0,2.15,0,3.23c0,.32-.06.48-.33.53l-.18,0H120.9l8,8,.36-.08a34.65,34.65,0,0,1,10.94-.49,30.45,30.45,0,0,1,8.38,2.07,22,22,0,0,1,8.44,6,26.57,26.57,0,0,1,5.47,9.89,29.71,29.71,0,0,1,1.26,7.36c.1,2.41.17,4.83.24,7.24,0,.73,0,.74-.75.74H123.68c-.37,0-.47.14-.42.47.24,1.42.42,2.85.72,4.26a10.88,10.88,0,0,0,2.42,4.8,12,12,0,0,0,5.21,3.5,15.4,15.4,0,0,0,5,.9c3.4.07,6.6-.62,9.13-3.06A19,19,0,0,0,148,121.9a.85.85,0,0,1,.8-.43q7,0,13.91,0c.39,0,.48.11.41.49a15.24,15.24,0,0,1-2.27,5.62,25.93,25.93,0,0,1-7.16,7.52,24.33,24.33,0,0,1-6.36,3.09,36,36,0,0,1-13.36,1.43,27.93,27.93,0,0,1-7.92-1.68,30.63,30.63,0,0,1-8.89-5,20.6,20.6,0,0,1-4.58-5.26,25.75,25.75,0,0,1-3-7.56,44.12,44.12,0,0,1-.93-12.55A37.58,37.58,0,0,1,110,99.2a28,28,0,0,1,2.63-6.29A22.42,22.42,0,0,1,115.45,89L95.69,69.24h-.34a17.14,17.14,0,0,1,3.44,5.83A21.92,21.92,0,0,1,100,82.28a18.36,18.36,0,0,1-2.41,10,14,14,0,0,1-4,4.18c-.88.61-1.83,1.11-2.74,1.67a2.53,2.53,0,0,0-.32.27l1.57.69a16.35,16.35,0,0,1,9,9.64,23.63,23.63,0,0,1,1.06,11.72,22.61,22.61,0,0,1-5.12,11.41,20.91,20.91,0,0,1-8.16,6,26.45,26.45,0,0,1-5.68,1.58,69.29,69.29,0,0,1-12,.77H39.05c-.33,0-.47-.07-.53-.27l0,.27,62.19,62.19h.55a101.23,101.23,0,0,0,100.29-87.54Z"/><path id="_03" data-name="03" class="cls-4" d="M57,126.68c5.34,0,10.68,0,16,0a20.09,20.09,0,0,0,6.84-1,8.41,8.41,0,0,0,5.36-5.34A13.19,13.19,0,0,0,85.5,112a7.56,7.56,0,0,0-3.6-4.4,10.91,10.91,0,0,0-4.47-1.42c-2.08-.18-4.16-.29-6.24-.31-4.74,0-9.47,0-14.21,0-.35,0-.48.07-.48.46q0,5,0,10t0,9.67C56.5,126.39,56.44,126.68,57,126.68Z"/><path id="_02" data-name="02" class="cls-4" d="M142,104.33c2.1,0,4.21,0,6.31,0,.36,0,.48-.12.42-.46s-.09-.56-.13-.83a12.55,12.55,0,0,0-1.72-5.2,11.5,11.5,0,0,0-8.15-5.17,15,15,0,0,0-7.34.53,10.06,10.06,0,0,0-5.36,4.3,15.81,15.81,0,0,0-2.29,6.14c-.11.67-.12.68.59.68H142Z"/><path id="_01" data-name="01" class="cls-4" d="M57.15,92.94h9v-.07c2.79,0,5.59,0,8.38,0a13.91,13.91,0,0,0,6-1.46,6.07,6.07,0,0,0,2.86-2.62,10.53,10.53,0,0,0,.9-6.28,6.77,6.77,0,0,0-2.07-4.31,8,8,0,0,0-3.9-1.75,31.13,31.13,0,0,0-6.66-.7c-4.92,0-9.84,0-14.75,0-.31,0-.43.1-.43.44q0,8.05,0,16.13C56.51,92.94,56.5,92.94,57.15,92.94Z"/></g></g></g></g></g></svg>