<svg xmlns="http://www.w3.org/2000/svg" viewBox="0 0 202.49 202.49"><defs><style>.cls-1{isolation:isolate;}.cls-2{fill:#592c71;}.cls-3{fill:#fff;}.cls-4{fill:#231f20;opacity:0.3;mix-blend-mode:multiply;}</style></defs><title>Asset 27</title><g class="cls-1"><g id="Layer_2" data-name="Layer 2"><g id="Social_Media_Icons" data-name="Social Media Icons"><g id="Yahoo"><path id="Base" class="cls-2" d="M202.49,101.25q0,1.2,0,2.4a101.19,101.19,0,1,1,0-2.4Z"/><path id="Logo" class="cls-3" d="M35.62,59.13c0,.86,0,1.59.05,2.32,0,.52,0,1,0,1.57s.11.83.11,1.24.25.52.6.57.77.14,1.16.2l2.22.32,2.48.28c.86.11,1.72.25,2.58.36s1.66.17,2.48.28c1.11.15,2.21.34,3.32.51.9.13,1.81.24,2.71.42a4.05,4.05,0,0,1,1.26.5,5.62,5.62,0,0,1,1,.9c1.27,1.3,2.54,2.6,3.8,3.93,1,1,1.89,2.06,2.83,3.09l2.48,2.74c.34.37.67.75,1,1.13.65.76,1.28,1.54,1.92,2.3s1.18,1.35,1.76,2,1.19,1.44,1.79,2.16l1.58,1.94c.48.58,1,1.16,1.43,1.73s1,1.21,1.53,1.82c.82,1,1.63,2.06,2.45,3.08.58.73,1.18,1.45,1.76,2.19s1.34,1.75,2,2.63c1,1.3,2,2.59,3,3.9.69.91,1.39,1.82,2,2.75,1.12,1.59,2.21,3.18,3.29,4.79a2.47,2.47,0,0,1,.42,1.42c0,.56.08,1.12.13,1.68.08,1.08.23,2.16.24,3.23,0,5,0,10,0,15a8.6,8.6,0,0,1-.14,1.68,2.82,2.82,0,0,1-1.51,2,9.48,9.48,0,0,1-3.37,1.06c-1.22.15-2.42.38-3.64.5-1.06.1-2.12.12-3.19.14-2,0-4,0-6,0a12.38,12.38,0,0,0-1.35.15c-.35,2.05-.69,4-1,6.09h.7c3.39-.09,6.79.14,10.18-.14,1.93-.16,3.88,0,5.83-.12s4.19-.13,6.28-.14c12.36-.06,24.72,0,37.08,0,.46,0,.91.08,1.37.11.22,0,.45,0,.74,0,0-.38.12-.71.14-1,.05-1.25.09-2.51.13-3.76a2.33,2.33,0,0,1,.08-.36,2.59,2.59,0,0,0,0-1.27,6,6,0,0,0-1-.17c-1.19,0-2.39-.08-3.57-.11-4.8-.13-9.6.11-14.4-.16-.35,0-.69-.09-1.06-.14-.14-.95-.28-1.83-.41-2.71-.1-.68-.19-1.36-.29-2-.12-.86-.25-1.72-.36-2.59-.07-.51-.1-1-.15-1.55-.08-.82-.2-1.65-.23-2.48,0-.6.09-1.2.11-1.8,0-1.44.09-2.88.14-4.32,0-.86,0-1.71.09-2.57.06-1.18.18-2.37.32-3.54a5.8,5.8,0,0,1,.58-2.22,16,16,0,0,1,2.6-3.35c1.72-1.77,3.52-3.47,5.3-5.19.54-.52,1.1-1,1.66-1.52s.84-.76,1.27-1.12l2.34-2,2.16-1.81,1.69-1.39,2.42-2c.91-.73,1.84-1.44,2.75-2.15,1.1-.86,2.19-1.73,3.31-2.58s2.15-1.57,3.21-2.37c2.25-1.7,4.55-3.32,6.95-4.79a8,8,0,0,1,1.89-.83c.71-.21,1.46-.29,2.19-.45,1.64-.37,3.27-.78,4.91-1.11,2.43-.48,4.86-.9,7.29-1.36a1,1,0,0,0,.71-.44c1.18-1.72,2.37-3.42,3.55-5.14a2.17,2.17,0,0,0,.19-.41c-1.08-.07-2.1-.16-3.12-.19-2.22-.06-4.44-.12-6.65-.13-3.72,0-7.43,0-11.15,0s-7.46.1-11.19-.1c-3.28-.17-6.57,0-9.86-.12-3.1-.14-6.21,0-9.32,0-1,0-2,.07-3.07.13a3.12,3.12,0,0,0-.65.17c.34,2,.67,3.87,1,5.78a.5.5,0,0,0,.29.34,8.48,8.48,0,0,0,1.11.16c.94.1,1.87.18,2.8.29s1.77.25,2.65.37,1.49.18,2.23.3c1,.15,2,.33,3,.49,1.21.18,2.43.34,3.63.54a12.82,12.82,0,0,1,1.25.32,6.36,6.36,0,0,1-.71,1.53A21.65,21.65,0,0,1,129,84.07c-.92,1-1.93,1.86-2.89,2.79l-.14.12c-1,.85-2,1.71-2.93,2.55l-2.11,1.76-1.74,1.43-1.93,1.59-2.42,2L113,97.81c-1,.81-2,1.62-2.93,2.44-.49.42-1,.86-1.44,1.3s-.94.94-1.41,1.4a2.81,2.81,0,0,1-.36.27l-.14-.19q-1.65-2.23-3.31-4.46-1.41-1.87-2.83-3.73c-.59-.78-1.19-1.55-1.79-2.33l-2.64-3.4-2.2-2.88C92.82,84.8,91.68,83.4,90.59,82q-3.3-4.42-6.56-8.9c-1.44-2-2.86-4-4.28-6-.25-.35-.46-.72-.75-1.18,1-.14,1.94-.28,2.86-.38.62-.08,1.25-.1,1.87-.15L87,65.09h.31c.91-.08,1.82-.19,2.73-.25s2-.09,3.07-.14c.6,0,1.21-.08,1.81-.14.78-.08,1.58-.13,2.35-.28.47-.09,1,0,1.39-.34.22-1.6.44-3.15.66-4.72-.66-.07-1.28-.16-1.9-.2-1.16-.06-2.33,0-3.5-.11-2.34-.14-4.68-.09-7-.15-4.51-.12-9-.06-13.53,0-2.07,0-4.14-.1-6.21.12a42,42,0,0,1-4.89.15c-4.88-.05-9.77.07-14.65-.08a89.61,89.61,0,0,0-10.87.1C36.34,59,36,59.09,35.62,59.13Z"/><g id="Shadow"><path id="_03" data-name="03" class="cls-4" d="M106.7,103l.14.19a2.81,2.81,0,0,0,.36-.27c.47-.46.93-.94,1.41-1.4s1-.88,1.44-1.3c1-.82,2-1.63,2.93-2.44l1.82-1.53,2.42-2,1.93-1.59,1.74-1.43L123,89.53c1-.84,2-1.7,2.93-2.55l.14-.12c1-.93,2-1.82,2.89-2.79a21.65,21.65,0,0,0,2.85-3.48,6.36,6.36,0,0,0,.71-1.53,12.82,12.82,0,0,0-1.25-.32c-1.2-.2-2.42-.36-3.63-.54-1-.16-2-.34-3-.49-.74-.12-1.49-.19-2.23-.3s-1.77-.26-2.65-.37-1.86-.19-2.8-.29a8.48,8.48,0,0,1-1.11-.16.5.5,0,0,1-.29-.34c-.06-.31-.11-.62-.17-.94l-16.1-16.1c-.22,1.57-.44,3.12-.66,4.72-.38.36-.92.25-1.39.34-.77.15-1.57.2-2.35.28-.6.06-1.21.11-1.81.14-1,0-2,.07-3.07.14s-1.82.17-2.73.25H87l-3.24.25c-.62,0-1.25.07-1.87.15-.92.1-1.84.24-2.86.38.29.46.5.83.75,1.18,1.42,2,2.84,4,4.28,6q3.25,4.47,6.56,8.9c1.09,1.45,2.23,2.85,3.34,4.28l2.2,2.88,2.64,3.4c.6.78,1.2,1.55,1.79,2.33q1.43,1.86,2.83,3.73Q105.06,100.79,106.7,103Z"/><path id="_02" data-name="02" class="cls-4" d="M70.9,143.5l-.25.07.2.2Z"/><path id="_01" data-name="01" class="cls-4" d="M169.55,70.74a2.17,2.17,0,0,1-.19.41c-1.18,1.72-2.37,3.42-3.55,5.14a1,1,0,0,1-.71.44c-2.43.46-4.86.88-7.29,1.36-1.64.33-3.27.74-4.91,1.11-.73.16-1.48.24-2.2.45a8.09,8.09,0,0,0-1.88.83c-2.4,1.47-4.7,3.09-6.95,4.79-1.06.8-2.15,1.57-3.21,2.37s-2.21,1.72-3.31,2.58c-.91.71-1.84,1.42-2.75,2.15l-2.42,2-1.69,1.39-2.16,1.81-2.34,2c-.43.36-.85.74-1.27,1.12s-1.12,1-1.66,1.52c-1.78,1.72-3.58,3.42-5.3,5.19a16,16,0,0,0-2.6,3.35,5.8,5.8,0,0,0-.58,2.22c-.14,1.17-.26,2.36-.32,3.54-.05.86-.06,1.71-.09,2.57,0,1.44-.09,2.88-.14,4.32,0,.6-.14,1.2-.11,1.8,0,.83.15,1.66.23,2.48,0,.52.08,1,.15,1.55.11.87.24,1.73.36,2.59.1.68.19,1.36.29,2,.13.88.27,1.76.41,2.71.37.05.71.12,1.06.14,4.8.27,9.6,0,14.4.16,1.18,0,2.38.06,3.57.11a6,6,0,0,1,1,.17,2.59,2.59,0,0,1,0,1.27,2.33,2.33,0,0,0-.08.36c0,1.25-.08,2.51-.13,3.76,0,.32-.09.65-.14,1-.29,0-.52,0-.74,0-.46,0-.91-.11-1.37-.11-12.36,0-24.72,0-37.08,0-2.09,0-4.19,0-6.28.14s-3.9,0-5.83.12c-3.39.28-6.79.05-10.18.14h-.65l55.52,55.52a101.26,101.26,0,0,0,76.05-95.68Z"/></g></g></g></g></g></svg>