<svg xmlns="http://www.w3.org/2000/svg" viewBox="0 0 203.51 203.51"><defs><style>.cls-1{isolation:isolate;}.cls-2{fill:#f15a29;}.cls-3{fill:#231f20;opacity:0.3;mix-blend-mode:multiply;}.cls-4{fill:#fff;}</style></defs><title>Asset 12</title><g class="cls-1"><g id="Layer_2" data-name="Layer 2"><g id="Social_Media_Icons" data-name="Social Media Icons"><g id="Reddit"><path id="Base" class="cls-2" d="M203.51,101.76c0,.31,0,.63,0,.94a101.76,101.76,0,0,1-89,100c-1.73.22-3.48.39-5.24.52-2.47.18-5,.27-7.5.27A101.76,101.76,0,1,1,203.41,97.34C203.48,98.81,203.51,100.28,203.51,101.76Z"/><g id="Shadow"><path id="_04" data-name="04" class="cls-3" d="M131.38,110.66a9.2,9.2,0,0,0-9.27-9.34,9.33,9.33,0,1,0,0,18.65C127.47,119.72,131.35,116,131.38,110.66Z"/><path id="_03" data-name="03" class="cls-3" d="M102.92,139.36a42.22,42.22,0,0,1-10.34-.84A19.78,19.78,0,0,1,86,136c-1-.64-1.93-1.48-2.91-2.2a1.91,1.91,0,0,0-2.63.29,1.85,1.85,0,0,0,.22,2.59,19.16,19.16,0,0,0,5.78,3.85,30.11,30.11,0,0,0,8.84,2.25c2.13.24,4.27.31,6.25.44,1.42-.08,2.68-.14,3.93-.24,1.41-.11,2.83-.22,4.24-.41a28.58,28.58,0,0,0,6.55-1.7,18.72,18.72,0,0,0,6.81-4.33,1.79,1.79,0,0,0,.08-2.46,2,2,0,0,0-3,0,20.64,20.64,0,0,1-2.54,1.95,19.49,19.49,0,0,1-7.72,2.67C107.58,139,105.25,139.27,102.92,139.36Z"/><path id="_02" data-name="02" class="cls-3" d="M203.51,101.76c0,.31,0,.63,0,.94a101.76,101.76,0,0,1-89,100L52.65,140.88l.08-.23a48.05,48.05,0,0,0,4.43,3.71,61.33,61.33,0,0,0,14.63,7.88A71,71,0,0,0,85.6,156c2.18.37,4.36.79,6.56,1,2.74.25,5.5.38,8.25.42,2.53,0,5.06-.09,7.59-.23,1.93-.11,3.87-.28,5.78-.56,2.12-.31,4.21-.75,6.3-1.17,1.55-.32,3.09-.65,4.61-1.08a73.47,73.47,0,0,0,12.23-4.65,56,56,0,0,0,9.28-5.7,43.58,43.58,0,0,0,8.81-8.77,30.93,30.93,0,0,0,4.4-8.28,28,28,0,0,0,1.33-5.8,28.64,28.64,0,0,0-.12-7.4.46.46,0,0,1,.25-.57,14.07,14.07,0,0,0,7.16-9.7,13.6,13.6,0,0,0-.14-6.53,14.27,14.27,0,0,0-10.34-10.54,14,14,0,0,0-8.18.15A14.21,14.21,0,0,0,144,89.68a.71.71,0,0,1-1.05,0c-.57-.41-1.17-.77-1.77-1.12a62.62,62.62,0,0,0-13.15-5.92c-2.77-.87-5.59-1.6-8.42-2.24-2.3-.52-4.63-.89-7-1.19-2.15-.27-4.33-.36-6.5-.53-.53,0-1.06-.11-1.65-.17,1-3.29,2-6.49,3-9.68q1.32-4.18,2.65-8.37l3-8.29c1.48.37,3,.7,4.46,1.06L124,54.8l5.49,1.29c1.77.42,3.54.87,5.32,1.24.5.1.63.27.64.74A11.89,11.89,0,1,0,159,55.5a12,12,0,0,0-2.1-4.67l46.51,46.51C203.48,98.81,203.51,100.28,203.51,101.76Z"/><path id="_01" data-name="01" class="cls-3" d="M81.53,120c5.3-.27,9-3.85,9.26-9.21a8.69,8.69,0,0,0-2.61-6.57,8.86,8.86,0,0,0-6.61-2.89,9.34,9.34,0,1,0,0,18.67Z"/></g><path id="Logo" class="cls-4" d="M167.89,97a14.27,14.27,0,0,0-10.34-10.54,14,14,0,0,0-8.18.15A14.21,14.21,0,0,0,144,89.68a.71.71,0,0,1-1.05,0c-.57-.41-1.17-.77-1.77-1.12a62.62,62.62,0,0,0-13.15-5.92c-2.77-.87-5.59-1.6-8.42-2.24-2.3-.52-4.63-.89-7-1.19-2.15-.27-4.33-.36-6.5-.53-.53,0-1.06-.11-1.65-.17,1-3.29,2-6.49,3-9.68s2.06-6.53,3.1-9.79c.68-2.17,1.36-4.32,2-6.48.07-.22.09-.48.47-.39,1.48.37,3,.7,4.46,1.06L124,54.8l5.49,1.29c1.77.42,3.54.87,5.32,1.24.5.1.63.27.64.74A11.89,11.89,0,1,0,159,55.5a11.7,11.7,0,0,0-4.47-7,11.49,11.49,0,0,0-10-2,11.34,11.34,0,0,0-6.61,4.35,22.62,22.62,0,0,0-1.48,2.53c-.13.22-.17.52-.58.41-1.75-.43-3.51-.84-5.26-1.26l-9.3-2.2c-3-.71-6-1.4-9-2.12a2,2,0,0,0-2.59,1.4q-1.31,4.15-2.62,8.31-1.45,4.62-2.93,9.21-1.74,5.53-3.49,11.06a.64.64,0,0,1-.43.39c-1.26.09-2.51.13-3.77.22-2.17.15-4.35.25-6.51.53s-4.39.75-6.58,1.16A64.15,64.15,0,0,0,74.08,83a63.17,63.17,0,0,0-13.85,6.62.61.61,0,0,1-.93-.09,8.17,8.17,0,0,0-1.09-.85,14.35,14.35,0,0,0-12.87-2,13.76,13.76,0,0,0-6.75,4.54A14.56,14.56,0,0,0,42.15,113a.49.49,0,0,1,.25.63,12.2,12.2,0,0,0-.24,1.59,27.9,27.9,0,0,0,4,17.35,40.88,40.88,0,0,0,11,11.84,61.33,61.33,0,0,0,14.63,7.88A71,71,0,0,0,85.6,156c2.18.37,4.36.79,6.56,1,2.74.25,5.5.38,8.25.42,2.53,0,5.06-.09,7.59-.23,1.93-.11,3.87-.28,5.78-.56,2.12-.31,4.21-.75,6.3-1.17,1.55-.32,3.09-.65,4.61-1.08a73.47,73.47,0,0,0,12.23-4.65,56,56,0,0,0,9.28-5.7,43.58,43.58,0,0,0,8.81-8.77,30.93,30.93,0,0,0,4.4-8.28,28,28,0,0,0,1.33-5.8,28.64,28.64,0,0,0-.12-7.4.46.46,0,0,1,.25-.57,14.07,14.07,0,0,0,7.16-9.7A13.6,13.6,0,0,0,167.89,97ZM72.17,110.89a9.35,9.35,0,0,1,9.4-9.59,8.86,8.86,0,0,1,6.61,2.89,8.69,8.69,0,0,1,2.61,6.57c-.21,5.36-4,8.94-9.26,9.21A9.4,9.4,0,0,1,72.17,110.89ZM123,136.57a18.72,18.72,0,0,1-6.81,4.33,28.58,28.58,0,0,1-6.55,1.7c-1.41.19-2.83.3-4.24.41-1.25.1-2.51.16-3.93.24-2-.13-4.12-.2-6.25-.44a30.11,30.11,0,0,1-8.84-2.25,19.16,19.16,0,0,1-5.78-3.85,1.85,1.85,0,0,1-.22-2.59,1.91,1.91,0,0,1,2.63-.29c1,.72,1.88,1.56,2.91,2.2a19.78,19.78,0,0,0,6.63,2.49,42.22,42.22,0,0,0,10.34.84c2.33-.09,4.66-.36,7-.66a19.49,19.49,0,0,0,7.72-2.67,20.64,20.64,0,0,0,2.54-1.95,2,2,0,0,1,3,0A1.79,1.79,0,0,1,123,136.57Zm-.92-16.6a9.33,9.33,0,1,1,0-18.65,9.2,9.2,0,0,1,9.27,9.34C131.35,116,127.47,119.72,122.11,120Z"/></g></g></g></g></svg>