<svg xmlns="http://www.w3.org/2000/svg" viewBox="0 0 202.47 202.47"><defs><style>.cls-1{isolation:isolate;}.cls-2{fill:#f27326;}.cls-3{fill:#fff;}.cls-4{fill:#231f20;opacity:0.3;mix-blend-mode:multiply;}</style></defs><title>Asset 37</title><g class="cls-1"><g id="Layer_2" data-name="Layer 2"><g id="Social_Media_Icons" data-name="Social Media Icons"><g id="Etsy"><path id="Base" class="cls-2" d="M202.47,101.24q0,4.13-.33,8.16c0,.6-.1,1.2-.16,1.8a101.24,101.24,0,0,1-95.08,91.11c-1.87.11-3.76.16-5.66.16-.87,0-1.74,0-2.6,0h0a101.24,101.24,0,1,1,103.84-101.2Z"/><path id="Logo" class="cls-3" d="M86.72,98V60.53c0-1.39.13-2.22,2.5-2.22H121c5.56,0,8.61,4.72,10.84,13.61l1.8,7.09h5.42c1-20.14,1.8-28.9,1.8-28.9s-13.61,1.53-21.67,1.53H78.52L56.71,51v5.83l7.36,1.39c5.14,1,6.39,2.08,6.81,6.81,0,0,.42,13.89.42,36.81s-.42,36.68-.42,36.68c0,4.16-1.67,5.69-6.81,6.67l-7.36,1.39v5.83l21.81-.7h36.4c8.19,0,27.23.7,27.23.7.41-5,3.19-27.65,3.61-30.15h-5.14l-5.42,12.37C130.89,144.3,124.64,145,117.69,145H97c-6.94,0-10.28-2.78-10.28-8.75V104.57s15.15,0,20.42.42c3.89.28,6.25,1.39,7.51,6.81L116.3,119h6l-.41-18.2.83-18.34h-6l-1.94,8.06c-1.26,5.28-2.09,6.25-7.51,6.81-6.11.69-20.56.55-20.56.55V98Z"/><g id="Shadow"><path id="_02" data-name="02" class="cls-4" d="M70.88,65c-.42-4.73-1.67-5.84-6.81-6.81L56.8,56.8l-.14,0L71,71.2C70.94,67.16,70.88,65,70.88,65Z"/><path id="_01" data-name="01" class="cls-4" d="M202,111.2a101.24,101.24,0,0,1-95.08,91.11l-50-50,21.58-.68h36.4c8.19,0,27.23.69,27.23.69.41-5,3.19-27.65,3.61-30.15h-5.14l-5.42,12.37C130.89,144.3,124.64,145,117.69,145H97c-6.94,0-10.28-2.78-10.28-8.76V104.57s15.15,0,20.42.42c3.89.28,6.25,1.39,7.51,6.81L116.3,119h6l-.41-18.2.83-18.34h-6l-1.94,8.06c-1.26,5.28-2.09,6.25-7.51,6.81-6.1.69-20.5.55-20.55.55V60.53c0-1.39.13-2.22,2.5-2.22H121c5.56,0,8.61,4.72,10.84,13.61l1.8,7.09h5.42c1-20.14,1.8-28.9,1.8-28.9Z"/></g></g></g></g></g></svg>