<svg xmlns="http://www.w3.org/2000/svg" viewBox="0 0 202.49 202.49"><defs><style>.cls-1{isolation:isolate;}.cls-2{fill:#f58020;}.cls-3{fill:#fff;}.cls-4{fill:#231f20;opacity:0.3;mix-blend-mode:multiply;}</style></defs><title>Asset 43</title><g class="cls-1"><g id="Layer_2" data-name="Layer 2"><g id="Social_Media_Icons" data-name="Social Media Icons"><g id="StakOverflow"><path id="Base" class="cls-2" d="M202.49,101.24A101.22,101.22,0,0,1,101.24,202.49q-2.76,0-5.49-.15a101.24,101.24,0,1,1,106.74-101.1Z"/><path id="Logo" class="cls-3" d="M50.56,113.92V157h96.52V114a6.9,6.9,0,0,0-.87-.11c-3.2,0-6.4,0-9.61,0-.57,0-.76.17-.76.77q0,15.38,0,30.76v.67H61.54V115.49c0-1.74.17-1.57-1.56-1.57Zm82.74-15.1a2.16,2.16,0,0,1-.51,0q-1.38-.63-2.76-1.29c-.77-.38-1.53-.78-2.31-1.14-1-.47-2-.9-3-1.37s-2.19-1-3.29-1.56-2.21-1-3.3-1.52c-.64-.3-1.26-.65-1.9-1-1.33-.61-2.68-1.18-4-1.79s-2.7-1.25-4-1.86c-1.06-.48-2.13-.94-3.19-1.43s-2-1-3.06-1.49c-.88-.43-1.78-.83-2.66-1.26-.63-.3-1.24-.67-1.88-1-1.51-.68-3-1.29-4.54-2-1.32-.6-2.62-1.28-3.93-1.91s-2.67-1.29-4-1.9c-.18-.08-.61,0-.67.13-.8,1.69-1.53,3.42-2.31,5.13-.67,1.45-1.38,2.89-2.08,4.33-.17.33-.1.52.27.63A6.09,6.09,0,0,1,81,87c1.94.92,3.86,1.88,5.81,2.78s3.78,1.64,5.64,2.51c1.51.69,3,1.48,4.47,2.18s2.93,1.26,4.37,1.93c2.36,1.1,4.7,2.24,7,3.36l4.11,1.92,2.72,1.31c1.19.56,2.38,1.13,3.59,1.67,1.71.77,3.45,1.5,5.16,2.3,1.45.67,2.86,1.43,4.3,2.11a.67.67,0,0,0,.61-.19,5.88,5.88,0,0,0,.39-.93q1-2.39,2.14-4.76c.6-1.26,1.24-2.5,1.85-3.76A2.73,2.73,0,0,0,133.3,98.82Zm-7.73,23.77c.21-1,.39-1.74.55-2.52.21-1,.4-2,.61-3s.45-2.13.69-3.2c.12-.54.27-1.08.44-1.62a.56.56,0,0,0-.52-.77c-.57-.06-1.14-.14-1.7-.24-.41-.08-.81-.22-1.21-.31-.57-.14-1.14-.27-1.72-.38s-1.12-.14-1.68-.27c-.92-.2-1.83-.46-2.75-.66s-2.1-.4-3.15-.6l-1.27-.26c-.58-.14-1.16-.31-1.75-.43s-1.07-.17-1.6-.26-.81-.15-1.21-.25c-.57-.14-1.12-.31-1.69-.43s-1.13-.14-1.68-.26c-1-.24-2-.57-3-.78-1.3-.28-2.62-.49-3.93-.73-.43-.08-.86-.17-1.28-.27-.92-.21-1.83-.46-2.76-.65s-1.88-.31-2.81-.5-1.89-.47-2.84-.68-2.06-.39-3.08-.6c-.47-.09-.92-.22-1.39-.32L83,102.2c-.52-.1-1-.19-1.56-.3-1-.2-1.91-.44-2.88-.63-.53-.11-1.08-.16-1.62-.25a8.66,8.66,0,0,1-1.27-.26c-.54-.18-.72-.07-.8.48s-.26,1.35-.4,2-.29,1.18-.4,1.78-.15,1.09-.26,1.62c-.13.69-.29,1.37-.45,2s-.26,1.09-.44,1.62a1.07,1.07,0,0,0,.66,1.46c.41.1.82.17,1.23.25l1.28.23c.56.1,1.13.16,1.68.28,1,.2,1.91.45,2.87.66l2.12.43c.4.09.79.19,1.19.27,1.06.21,2.13.4,3.19.63S89,115,90,115.2s1.87.31,2.8.48c.48.09.95.23,1.43.34s1,.26,1.49.35c.93.18,1.88.3,2.8.51s2,.53,3,.78c.46.11.93.16,1.4.24s1.1.14,1.64.26c.93.21,1.84.46,2.76.67.4.1.81.17,1.22.24.56.1,1.12.16,1.68.27,1,.21,2,.46,3,.67s2,.41,3.06.63,1.92.46,2.88.65,1.84.32,2.76.49c.43.08.85.17,1.27.27Zm0,13.34V124.75H71.77v11.18Zm16-47.39a2.2,2.2,0,0,0-.34-.49c-1.14-.93-2.3-1.82-3.42-2.76-2-1.62-3.9-3.26-5.85-4.89-1.3-1.11-2.59-2.23-3.91-3.32-1.95-1.62-3.93-3.22-5.88-4.84-1.79-1.5-3.56-3-5.35-4.52-1.63-1.35-3.29-2.65-4.91-4q-2.88-2.37-5.74-4.79c-1.86-1.58-3.71-3.18-5.59-4.74a.68.68,0,0,0-.66,0c-1,1.1-1.93,2.23-2.87,3.36-1.24,1.49-2.43,3-3.69,4.47-.35.42-.25.64.08.92,1.91,1.57,3.82,3.13,5.71,4.71,1.32,1.09,2.6,2.22,3.92,3.31,1.62,1.35,3.28,2.66,4.9,4,1.23,1,2.4,2.1,3.63,3.12,1.76,1.46,3.55,2.87,5.31,4.32,1.59,1.32,3.15,2.67,4.73,4,1.22,1,2.46,2,3.68,3.07s2.52,2.14,3.79,3.2c1.6,1.34,3.22,2.66,4.81,4,.38.32.62.31.92,0l2.53-3q2-2.34,3.89-4.7ZM120,37a3.11,3.11,0,0,0-.74.28c-.61.46-1.19,1-1.81,1.43-2,1.46-4,2.91-6,4.38-.3.22-.49.49-.12.86a6.09,6.09,0,0,1,.62.8c1,1.34,2,2.69,3,4,1.31,1.76,2.64,3.49,4,5.25.9,1.21,1.79,2.44,2.7,3.66,1.37,1.84,2.75,3.67,4.11,5.51s2.57,3.51,3.87,5.26,2.54,3.34,3.8,5c1,1.3,1.93,2.63,2.91,3.94q2.1,2.82,4.21,5.62c.83,1.11,1.65,2.23,2.51,3.31a.74.74,0,0,0,.7.12c1-.67,1.88-1.41,2.82-2.12l5.17-3.86a.87.87,0,0,0,.12-1.06c-.55-.7-1.1-1.4-1.63-2.11-.95-1.26-1.87-2.54-2.81-3.8-1.33-1.77-2.68-3.53-4-5.31-.71-.94-1.36-1.93-2.07-2.87-1.59-2.12-3.21-4.22-4.79-6.34-1.12-1.5-2.18-3-3.29-4.53s-2.47-3.26-3.7-4.91-2.56-3.47-3.84-5.2c-1.7-2.3-3.39-4.6-5.1-6.88A3,3,0,0,0,120,37Z"/><path id="Shadow" class="cls-4" d="M201.09,118.05a101.26,101.26,0,0,1-99.85,84.44q-2.76,0-5.49-.15L50.49,157.08,51,157h96.13V114c-.3,0-.59-.11-.87-.12-3.2,0-6.4,0-9.61,0-.57,0-.76.17-.76.77q0,15.38,0,30.76v.67H81.94L71.76,135.94h53.85V124.75H86.47L73.56,111.84l.13,0,1.14.23,1.28.23c.56.1,1.13.16,1.68.28,1,.2,1.91.45,2.87.66l2.12.43c.4.09.79.19,1.19.27,1.06.21,2.13.4,3.19.63S89,115,90,115.2s1.87.31,2.8.48c.48.09.95.23,1.43.34s1,.26,1.49.35c.93.18,1.88.3,2.8.51s2,.53,3,.78c.46.11.93.16,1.4.24s1.1.14,1.64.26c.93.21,1.84.46,2.76.67.4.1.81.17,1.22.24.56.1,1.12.16,1.68.27,1,.21,2,.46,3,.67s2,.41,3.06.63,1.92.46,2.88.65,1.84.32,2.76.49c.43.08.85.17,1.27.27l2.4.54c.21-1,.39-1.74.55-2.52.21-1,.4-2,.61-3s.45-2.13.69-3.2c.12-.54.27-1.08.44-1.62a.56.56,0,0,0-.52-.77c-.57-.06-1.14-.14-1.7-.24-.41-.08-.81-.22-1.21-.31-.57-.14-1.14-.27-1.72-.38s-1.12-.14-1.68-.27c-.92-.2-1.83-.46-2.75-.66s-2.1-.4-3.15-.6l-1.27-.26c-.58-.14-1.16-.31-1.75-.43s-1.07-.17-1.6-.26-.81-.15-1.21-.25c-.57-.14-1.12-.31-1.69-.43s-1.13-.14-1.68-.26c-1-.24-2-.57-3-.78-1.3-.28-2.62-.49-3.93-.73l-.1,0L79.94,86.65l.69.18L81,87c1.94.92,3.86,1.88,5.81,2.78s3.78,1.64,5.64,2.51c1.51.69,3,1.48,4.47,2.18s2.93,1.26,4.37,1.93c2.36,1.1,4.7,2.24,7,3.36l4.11,1.92,2.72,1.31c1.19.56,2.38,1.13,3.59,1.67,1.71.77,3.45,1.5,5.16,2.3,1.45.67,2.86,1.43,4.31,2.11a.66.66,0,0,0,.6-.19,5.88,5.88,0,0,0,.39-.93q1-2.39,2.14-4.76c.6-1.26,1.24-2.5,1.85-3.76a2.73,2.73,0,0,0,.13-.59,2.16,2.16,0,0,1-.51,0q-1.38-.63-2.76-1.29c-.77-.38-1.53-.78-2.31-1.14l-1.1-.5L94.49,63.72c1.58,1.3,3.17,2.6,4.74,3.91,1.32,1.09,2.6,2.22,3.92,3.31,1.62,1.35,3.28,2.66,4.9,4,1.23,1,2.4,2.1,3.63,3.12,1.76,1.46,3.55,2.87,5.31,4.32,1.59,1.32,3.15,2.67,4.73,4,1.22,1,2.46,2,3.68,3.07s2.52,2.14,3.79,3.2c1.6,1.34,3.22,2.66,4.81,4,.38.32.62.31.92,0l2.53-3q2-2.34,3.89-4.7l.31-.37s0,0,0,0l2.17-2.12c.91-.65,1.79-1.34,2.69-2l5.17-3.86a.87.87,0,0,0,.12-1.06c-.55-.7-1.1-1.4-1.63-2.11-.95-1.26-1.87-2.54-2.81-3.8-1.33-1.77-2.68-3.53-4-5.31-.71-.94-1.36-1.93-2.07-2.87-1.59-2.12-3.21-4.22-4.79-6.34-1.12-1.5-2.18-3-3.29-4.53s-2.47-3.26-3.7-4.91-2.56-3.47-3.84-5.2c-1.7-2.3-3.39-4.6-5.1-6.88Z"/></g></g></g></g></svg>