<svg xmlns="http://www.w3.org/2000/svg" viewBox="0 0 202.5 202.49"><defs><style>.cls-1{isolation:isolate;}.cls-2{fill:#243e90;}.cls-3{fill:#fff;}.cls-4{fill:#231f20;opacity:0.3;mix-blend-mode:multiply;}</style></defs><title>Asset 18</title><g class="cls-1"><g id="Layer_2" data-name="Layer 2"><g id="Social_Media_Icons" data-name="Social Media Icons"><g id="MySpace"><path id="Base" class="cls-2" d="M202.5,101.24A101.25,101.25,0,1,1,101.25,0,100.56,100.56,0,0,1,202.5,101.24Z"/><g id="Logo"><path id="_04" data-name="04" class="cls-3" d="M114.32,77.86a18.15,18.15,0,0,0,14.75,4.6,17.94,17.94,0,0,0,11.6-6.17,18.55,18.55,0,0,0,4.67-12.75,18.61,18.61,0,1,0-37.13,2.31A17.9,17.9,0,0,0,114.32,77.86Z"/><path id="_03" data-name="03" class="cls-3" d="M92,79.44A13,13,0,0,0,102.09,75a12.81,12.81,0,0,0,3.44-9.29,12.55,12.55,0,0,0-2.75-8.06,12.83,12.83,0,0,0-4.1-3.54,13.09,13.09,0,0,0-5.9-1.72A13.55,13.55,0,1,0,92,79.44Z"/><path id="_02" data-name="02" class="cls-3" d="M54.71,69.6c.29.82.61,1.63,1,2.42a8.94,8.94,0,0,0,1.83,2.53,10.22,10.22,0,0,0,2.35,1.84,13.83,13.83,0,0,0,2.07,1,9.65,9.65,0,0,0,2.12.45,16,16,0,0,0,2.59.07,6.7,6.7,0,0,0,2.15-.48,17.9,17.9,0,0,0,1.76-.7,15.12,15.12,0,0,0,1.86-1.25,9.17,9.17,0,0,0,2.51-2.79,16.79,16.79,0,0,0,1-2.15,6.73,6.73,0,0,0,.41-1.32c.09-.44.08-.9.18-1.33a5,5,0,0,0,0-2.14c-.08-.36-.12-.73-.18-1.09a4.53,4.53,0,0,0-.16-.92c-.25-.7-.54-1.38-.84-2.05-.2-.43-.46-.83-.68-1.25s-.64-.65-.94-1a6.42,6.42,0,0,0-.69-.69,15.64,15.64,0,0,0-2-1.53,16.41,16.41,0,0,0-2.53-1,7.18,7.18,0,0,0-2.2-.4A9.8,9.8,0,0,0,63,56c-.54.17-1.09.28-1.61.48a11.72,11.72,0,0,0-1.5.76,9.56,9.56,0,0,0-4.5,5c-.23.52-.38,1.09-.58,1.62a8.1,8.1,0,0,0-.39,2.23c0,.24,0,.48,0,.72h-.06c.07.54.13,1.07.2,1.6A5.79,5.79,0,0,0,54.71,69.6Z"/><path id="_01" data-name="01" class="cls-3" d="M152.38,113.11c0-1.4-.1-2.8-.15-4.2a2.08,2.08,0,0,0,0-.23c-.08-.48-.16-1-.23-1.45s-.11-.75-.2-1.12-.24-.81-.37-1.22c-.25-.8-.46-1.63-.78-2.4-.4-1-.87-1.94-1.35-2.9a22.66,22.66,0,0,0-1.17-2.09,13.9,13.9,0,0,0-.91-1.15c-.24-.32-.44-.69-.7-1s-.42-.27-.52-.46a1.88,1.88,0,0,0-.52-.6c-.76-.64-1.45-1.35-2.18-2a11.66,11.66,0,0,0-1-.84q-.63-.47-1.29-.9c-.48-.32-1-.67-1.47-1-.88-.48-1.79-.92-2.7-1.35a12.35,12.35,0,0,0-1.56-.62c-.56-.18-1.14-.31-1.71-.46s-1.32-.39-2-.52a16.55,16.55,0,0,0-2.21-.31c-1.27-.08-2.55-.1-3.83-.14-.16,0-.32.1-.48.11s-.36,0-.53,0c-.54,0-1.09.13-1.63.2a4,4,0,0,0-.5.1l-.85.19c-.52.11-1,.18-1.57.32s-1,.39-1.48.51a14.34,14.34,0,0,0-2.54,1,16.77,16.77,0,0,0-1.88,1c-.86.52-1.72,1.06-2.55,1.64-.61.43-1.16,1-1.75,1.43a2.71,2.71,0,0,1-.56.29c-.19-.26-.36-.46-.5-.69-.41-.67-.74-1.39-1.21-2a26.41,26.41,0,0,0-2.24-2.71,29.19,29.19,0,0,0-2.56-2.13,6.31,6.31,0,0,0-1.35-.89c-1.13-.54-2.28-1-3.45-1.49a15.38,15.38,0,0,0-2-.52c-.26-.06-.52-.09-.79-.13a12.42,12.42,0,0,0-1.8-.27,23.54,23.54,0,0,0-3.14.1,19.88,19.88,0,0,0-2.67.47c-.63.16-1.24.34-1.85.56a14,14,0,0,0-1.75.72c-.55.27-1,.63-1.58.94a14.77,14.77,0,0,0-3,2.35,4.29,4.29,0,0,1-.45.38c-.35-.49-.65-.95-1-1.38A14.13,14.13,0,0,0,76.68,85a25.08,25.08,0,0,0-1.87-1.71,10.18,10.18,0,0,0-1.45-1A18.7,18.7,0,0,0,71.1,81.1a13.62,13.62,0,0,0-2.49-.72,16.7,16.7,0,0,0-2.81-.33,12.29,12.29,0,0,0-3.91.45,21.38,21.38,0,0,0-2.11.63,18.37,18.37,0,0,0-2.51,1.35,16.85,16.85,0,0,0-2.09,1.58,13.93,13.93,0,0,0-1.6,1.74c-.45.55-.83,1.16-1.23,1.76a13.74,13.74,0,0,0-1.74,4.12,12.69,12.69,0,0,0-.41,3.41c0,1.69,0,3.38,0,5.07-.07,5.26.13,10.52-.08,15.78-.08,2,0,4,0,6,0,.37.08.45.46.45h8.94l13.46,0c.26,0,.36.11.36.33,0,.38,0,.77,0,1.15v9.31c0,.45.1.55.56.55h27.12a5.24,5.24,0,0,1,.07.76c0,1.36-.07,2.71-.07,4.06q0,9.09,0,18.16c0,.28.1.41.4.4h50.41c.46,0,.53-.07.53-.53Q152.39,134.85,152.38,113.11Z"/></g><path id="Shadow" class="cls-4" d="M139.7,50.67a17.94,17.94,0,0,1,5.64,12.87,18.55,18.55,0,0,1-4.67,12.75,17.94,17.94,0,0,1-11.6,6.17,18.15,18.15,0,0,1-14.75-4.6,17.9,17.9,0,0,1-6.11-12c0-.45,0-.89-.06-1.33l-3.42-3.42a11,11,0,0,1,.8,4.58A12.81,12.81,0,0,1,102.09,75,13,13,0,0,1,92,79.44,13.53,13.53,0,0,1,78.47,65.69q0-.42.06-.84l-3.2-3.2h0c.3.67.59,1.35.84,2.05a4.53,4.53,0,0,1,.16.92c.06.36.1.73.18,1.09a5,5,0,0,1,0,2.14c-.1.43-.09.89-.18,1.33a6.73,6.73,0,0,1-.41,1.32,16.79,16.79,0,0,1-1,2.15,9.17,9.17,0,0,1-2.51,2.79,15.12,15.12,0,0,1-1.86,1.25,17.9,17.9,0,0,1-1.76.7,6.7,6.7,0,0,1-2.15.48,16,16,0,0,1-2.59-.07,9.65,9.65,0,0,1-2.12-.45,13.83,13.83,0,0,1-2.07-1,8.86,8.86,0,0,1-1.73-1.25l5.07,5.07a15.07,15.07,0,0,1,2.6-.16,16.7,16.7,0,0,1,2.81.33,13.62,13.62,0,0,1,2.49.72,18.7,18.7,0,0,1,2.26,1.18,10.18,10.18,0,0,1,1.45,1A25.08,25.08,0,0,1,76.68,85a14.13,14.13,0,0,1,1.06,1.26c.33.43.63.89,1,1.38a4.29,4.29,0,0,0,.45-.38,14.77,14.77,0,0,1,3-2.35c.53-.31,1-.67,1.58-.94a14,14,0,0,1,1.75-.72c.61-.22,1.22-.4,1.85-.56a19.88,19.88,0,0,1,2.67-.47,23.54,23.54,0,0,1,3.14-.1,12.42,12.42,0,0,1,1.8.27c.27,0,.53.07.79.13a15.38,15.38,0,0,1,2,.52c1.17.45,2.32,1,3.45,1.49a6.31,6.31,0,0,1,1.35.89,29.19,29.19,0,0,1,2.56,2.13,26.41,26.41,0,0,1,2.24,2.71c.47.63.8,1.35,1.21,2,.14.23.31.43.5.69a2.71,2.71,0,0,0,.56-.29c.59-.47,1.14-1,1.75-1.43.83-.58,1.69-1.12,2.55-1.64a16.77,16.77,0,0,1,1.88-1,14.34,14.34,0,0,1,2.54-1c.51-.12,1-.37,1.48-.51s1-.21,1.57-.32l.85-.19a4,4,0,0,1,.5-.1c.54-.07,1.09-.15,1.63-.2.17,0,.35,0,.53,0s.32-.11.48-.11c1.28,0,2.56.06,3.83.14a16.55,16.55,0,0,1,2.21.31c.68.13,1.34.35,2,.52s1.15.28,1.71.46a12.35,12.35,0,0,1,1.56.62c.91.43,1.82.87,2.7,1.35.51.28,1,.63,1.47,1s.87.59,1.29.9a11.66,11.66,0,0,1,1,.84c.73.67,1.42,1.38,2.18,2a1.88,1.88,0,0,1,.52.6c.1.19.37.28.52.46s.46.69.7,1a13.9,13.9,0,0,1,.91,1.15,22.66,22.66,0,0,1,1.17,2.09c.48,1,.95,1.91,1.35,2.9.32.77.53,1.6.78,2.4.13.41.27.81.37,1.22s.13.75.2,1.12.15,1,.23,1.45a2.08,2.08,0,0,1,0,.23c.05,1.4.15,2.8.15,4.2q0,21.75,0,43.48c0,.46-.07.53-.53.53H101.45c-.3,0-.4-.12-.4-.4q0-9.08,0-18.16c0-1.35,0-2.7.07-4.06a5.24,5.24,0,0,0-.07-.76H73.93c-.46,0-.56-.1-.56-.55v-9.31c0-.38,0-.77,0-1.15,0-.22-.1-.33-.36-.33l-13.46,0H50.48l76.72,76.72a101.3,101.3,0,0,0,74.64-86.31Z"/></g></g></g></g></svg>