<svg xmlns="http://www.w3.org/2000/svg" viewBox="0 0 203.51 203.51"><defs><style>.cls-1{isolation:isolate;}.cls-2{fill:#4c76a4;}.cls-3,.cls-4{opacity:0.3;mix-blend-mode:multiply;}.cls-4{fill:#231f20;}.cls-5{fill:#fff;}</style></defs><title>Asset 6</title><g class="cls-1"><g id="Layer_2" data-name="Layer 2"><g id="Social_Media_Icons" data-name="Social Media Icons"><g id="VK"><path id="Base" class="cls-2" d="M203.51,101.76A101.76,101.76,0,1,1,101.76,0,101.64,101.64,0,0,1,203.51,101.76Z"/><g id="Shadow"><path class="cls-3" d="M203,112.28,163.25,72.56a8.88,8.88,0,0,1-.83,3.74,44.86,44.86,0,0,1-5,8.8c-2.47,3.48-5.06,6.88-7.59,10.31-1.78,2.41-3.57,4.81-5.31,7.25a7.84,7.84,0,0,0-1.3,3,4.41,4.41,0,0,0,.92,3.54,30.44,30.44,0,0,0,4.28,4.51c2.81,2.64,5.62,5.26,8.2,8.14a45.15,45.15,0,0,1,4.91,6.28,11.91,11.91,0,0,1,1.67,3.46,3.28,3.28,0,0,1-1.44,3.78,7.56,7.56,0,0,1-4.09,1.25c-5.31.11-10.62,0-15.92.27a14.12,14.12,0,0,1-10.92-4.41c-2.19-2.12-4.15-4.48-6.22-6.72a23.69,23.69,0,0,0-4.9-4.53c-2.12-1.28-4-.85-5.35,1.22a11.2,11.2,0,0,0-1.71,4.76c-.24,1.7-.36,3.42-.48,5.13-.19,2.74-1.41,3.62-3.72,4.19a4.43,4.43,0,0,1-1.09.1c-2.65,0-5.31,0-8,0a35.29,35.29,0,0,1-9.29-1.5,44,44,0,0,1-14.66-7.46c-.27-.2-.53-.43-.8-.64-.77-.61-1.51-1.26-2.24-1.92l69.87,70.07A101.8,101.8,0,0,0,203,112.28Z"/><path class="cls-3" d="M82.89,72a12.3,12.3,0,0,0-1.34-.29l6.66,6.66a8.51,8.51,0,0,0-1.61-4.15A7.08,7.08,0,0,0,82.89,72Z"/><path class="cls-4" d="M66.28,73.19A110.52,110.52,0,0,0,77.57,94.35,26.19,26.19,0,0,0,82,99.64,7.61,7.61,0,0,0,84.13,101,2.28,2.28,0,0,0,87,99.83a11.1,11.1,0,0,0,1.25-4c0-.34.1-.68.14-1L65.81,72.28A5.2,5.2,0,0,1,66.28,73.19Z"/><path class="cls-3" d="M112.22,72.43a54.88,54.88,0,0,1,0,7.8c-.1,3.11-.16,6.23-.21,9.34h0c0,1.79-.07,3.58,0,5.37a10.31,10.31,0,0,0,.7,3.62,5.91,5.91,0,0,0,.8,1.36,2.13,2.13,0,0,0,2.94.69,9.81,9.81,0,0,0,2.7-2.18,42.4,42.4,0,0,0,4.14-5.32c.73-1.08,1.45-2.17,2.15-3.27.81-1.27,1.57-2.56,2.3-3.86L110.85,69.06h0A5.54,5.54,0,0,1,112.22,72.43Z"/></g><path id="Logo" class="cls-5" d="M163.16,131.54a11.91,11.91,0,0,0-1.67-3.46,45.15,45.15,0,0,0-4.91-6.28c-2.58-2.88-5.39-5.5-8.2-8.14a30.44,30.44,0,0,1-4.28-4.51,4.41,4.41,0,0,1-.92-3.54,7.84,7.84,0,0,1,1.3-3c1.74-2.44,3.53-4.84,5.31-7.25,2.53-3.43,5.12-6.83,7.59-10.31a44.86,44.86,0,0,0,5-8.8,8.88,8.88,0,0,0,.83-3.74,2.21,2.21,0,0,0-1.22-2,6.35,6.35,0,0,0-3-.71c-1,0-2,0-2.92.06l-9.93,0-8.53,0a3.17,3.17,0,0,0-2.74,1.18,6.61,6.61,0,0,0-.92,1.55,101,101,0,0,1-8.55,17.13c-.7,1.1-1.42,2.19-2.15,3.27a42.4,42.4,0,0,1-4.14,5.32,9.81,9.81,0,0,1-2.7,2.18,2.13,2.13,0,0,1-2.94-.69,5.91,5.91,0,0,1-.8-1.36,10.31,10.31,0,0,1-.7-3.62c-.08-1.79,0-3.58,0-5.37h0c0-3.11.11-6.23.21-9.34a54.88,54.88,0,0,0,0-7.8,5.06,5.06,0,0,0-4.23-4.9,30.41,30.41,0,0,0-6.72-.8,76,76,0,0,0-13.9.52,8.93,8.93,0,0,0-4.71,1.92A9.79,9.79,0,0,0,81.14,71c-.31.46-.13.68.41.77a12.3,12.3,0,0,1,1.34.29,7.08,7.08,0,0,1,3.71,2.22,9.13,9.13,0,0,1,1.7,4.84c.22,1.82.34,3.65.38,5.48a60.76,60.76,0,0,1-.45,11.28,11.1,11.1,0,0,1-1.25,4A2.28,2.28,0,0,1,84.13,101,7.61,7.61,0,0,1,82,99.64a26.19,26.19,0,0,1-4.38-5.29A110.52,110.52,0,0,1,66.28,73.19,5.49,5.49,0,0,0,61,69.75c-2.8,0-5.59,0-8.39,0v.14c-2.72,0-5.44,0-8.15,0a7.15,7.15,0,0,0-3,.6,1.88,1.88,0,0,0-1.25,1.71,5.19,5.19,0,0,0,.46,2.36A255.76,255.76,0,0,0,53.35,99.49a130,130,0,0,0,15.24,21.78l3.78,3.79c.73.66,1.47,1.31,2.24,1.92.27.21.53.44.8.64a44,44,0,0,0,14.66,7.46,35.29,35.29,0,0,0,9.29,1.5c2.65,0,5.31,0,8,0a4.43,4.43,0,0,0,1.09-.1c2.31-.57,3.53-1.45,3.72-4.19.12-1.71.24-3.43.48-5.13a11.2,11.2,0,0,1,1.71-4.76c1.39-2.07,3.23-2.5,5.35-1.22a23.69,23.69,0,0,1,4.9,4.53c2.07,2.24,4,4.6,6.22,6.72a14.12,14.12,0,0,0,10.92,4.41c5.3-.27,10.61-.16,15.92-.27a7.56,7.56,0,0,0,4.09-1.25A3.28,3.28,0,0,0,163.16,131.54Z"/></g></g></g></g></svg>