<svg xmlns="http://www.w3.org/2000/svg" viewBox="0 0 202.47 202.47"><defs><style>.cls-1{isolation:isolate;}.cls-2{fill:#348aca;}.cls-3{fill:#f9a923;}.cls-4{fill:#231f20;opacity:0.3;mix-blend-mode:multiply;}</style></defs><title>Asset 41</title><g class="cls-1"><g id="Layer_2" data-name="Layer 2"><g id="Social_Media_Icons" data-name="Social Media Icons"><g id="Mail"><path id="Base" class="cls-2" d="M202.47,101.24A101.24,101.24,0,1,1,101.24,0,100.41,100.41,0,0,1,202.47,101.24Z"/><path id="Logo" class="cls-3" d="M158.68,85.5c-4-15-13-26-26.38-33.6a61.84,61.84,0,0,0-23.84-7.55,63.12,63.12,0,0,0-24.79,2.22,60.68,60.68,0,0,0-17.5,8.32C55.86,62,48.33,71.25,44.53,83.25c-5.32,16.78-3.72,32.89,5.33,48.09a52.71,52.71,0,0,0,21.7,20,64.74,64.74,0,0,0,22.93,6.71,56.82,56.82,0,0,0,21.3-1.38c2.64-.72,5.21-1.64,7-4a6.46,6.46,0,0,0,.92-6.5,5,5,0,0,0-4.82-3.43,9.44,9.44,0,0,0-3.5.55,40.71,40.71,0,0,1-11.58,2.45A48.49,48.49,0,0,1,81,141.74c-8.87-3.88-16-9.81-20.71-18.39a43,43,0,0,1-3.24-35.3c4.29-13,12.35-22.71,25.4-27.72a51.08,51.08,0,0,1,31.37-1.72,49.82,49.82,0,0,1,19.9,10.3c7.73,6.42,12,14.67,13.52,24.46a50.61,50.61,0,0,1-2,23.18,29.53,29.53,0,0,1-5.62,11c-.95,1.1-2,1.76-3.51,1.22a3.33,3.33,0,0,1-2.07-3.42V98.71c0-6.78,0-13.57,0-20.35a5.49,5.49,0,0,0-8-5.07,5.07,5.07,0,0,0-2.84,4.64c-7.28-6.65-15.46-10.57-25.35-10.08S80,72.74,73.65,80.12c-10.34,12.06-11.59,29.15-.71,42.71a33.47,33.47,0,0,0,19.77,12.33c11.43,2.32,21.36-1,30.28-9.08,0,1.22,0,2,0,2.73-.13,10.3,12,17.05,20.79,11.62a30,30,0,0,0,7.13-6.52c6.2-7.62,8.86-16.67,9.82-26.3A61.6,61.6,0,0,0,158.68,85.5ZM121.6,105.66c-2.07,14.13-15.21,21.35-27.92,18.44-9.52-2.17-15.2-10.39-15.7-19.78a25.3,25.3,0,0,1,3.46-15.1c4.07-6.51,10.06-9.68,17.08-9.59,7.4-.07,13.26,2,17.83,7.08C121.21,92.14,122.62,98.67,121.6,105.66Z"/><g id="Shadow"><path id="_02" data-name="02" class="cls-4" d="M98.52,79.63c-7-.09-13,3.08-17.08,9.59A25.3,25.3,0,0,0,78,104.32c.5,9.39,6.18,17.61,15.7,19.78,12.71,2.91,25.85-4.31,27.92-18.44,1-7-.39-13.52-5.25-19C111.78,81.61,105.92,79.56,98.52,79.63Z"/><path id="_01" data-name="01" class="cls-4" d="M201,118.34a101.27,101.27,0,0,1-83.21,82.77L61.5,144.81a58.08,58.08,0,0,0,10.06,6.57,64.74,64.74,0,0,0,22.93,6.71,56.82,56.82,0,0,0,21.3-1.38c2.64-.72,5.21-1.64,7-4a6.46,6.46,0,0,0,.92-6.5,5,5,0,0,0-4.82-3.43,9.44,9.44,0,0,0-3.5.55,40.71,40.71,0,0,1-11.58,2.45A48.49,48.49,0,0,1,81,141.74c-8.87-3.88-16-9.81-20.71-18.39a43,43,0,0,1-3.24-35.3c4.29-13,12.35-22.71,25.4-27.72a51.08,51.08,0,0,1,31.37-1.72,49.82,49.82,0,0,1,19.9,10.3c7.73,6.42,12,14.67,13.52,24.46a50.61,50.61,0,0,1-2,23.18,29.53,29.53,0,0,1-5.62,11c-.95,1.1-2,1.76-3.51,1.22a3.33,3.33,0,0,1-2.07-3.42V98.71c0-6.78,0-13.57,0-20.35a5.49,5.49,0,0,0-8-5.07,5.07,5.07,0,0,0-2.84,4.64c-7.28-6.65-15.46-10.57-25.35-10.08S80,72.74,73.65,80.12c-10.34,12.06-11.59,29.15-.71,42.71a33.47,33.47,0,0,0,19.77,12.33c11.43,2.32,21.36-1,30.28-9.08,0,1.22,0,2,0,2.73-.13,10.3,12,17.05,20.79,11.62a29.83,29.83,0,0,0,7.13-6.52c6.2-7.62,8.86-16.67,9.82-26.3a61.6,61.6,0,0,0-2-22.11,53.63,53.63,0,0,0-8.39-17.87h0Z"/></g></g></g></g></g></svg>