<svg xmlns="http://www.w3.org/2000/svg" viewBox="0 0 202.49 202.49"><defs><style>.cls-1{isolation:isolate;}.cls-2{fill:#d82985;}.cls-3{fill:#fff;}.cls-4{fill:#231f20;opacity:0.3;mix-blend-mode:multiply;}</style></defs><title>Asset 25</title><g class="cls-1"><g id="Layer_2" data-name="Layer 2"><g id="Social_Media_Icons" data-name="Social Media Icons"><g id="Flickr"><path id="Base" class="cls-2" d="M202.49,101.25a101.14,101.14,0,0,1-96.7,101.14c-1.51.07-3,.1-4.55.1A101.25,101.25,0,1,1,202.49,101.25Z"/><g id="Logo"><path id="_02" data-name="02" class="cls-3" d="M158.94,82c-.21,3.94-.58,7.88-.86,11.81-.14,2-.25,4.07-.35,6.1-.06,1.5-.58,2-2.24,1.81a41,41,0,0,0-9.51-.26c-7.95,1.08-12.75,6-14.08,14.19a64.32,64.32,0,0,0-.8,9.5c-.11,9.3,0,18.61,0,27.91,0,2.54,0,2.55-2.54,2.55h-22.6v-72c0-2.52,0-2.52,2.44-2.52,6.12,0,12.24,0,18.36,0,1.71,0,2.19.55,2.15,2.2-.11,3.37,0,6.76,0,10.53.9-1.5,1.59-2.71,2.35-3.88,3.52-5.4,8.1-9.56,14.69-10.29,4-.43,8.08.21,12.12.53C158.37,80.13,159,81.35,158.94,82Z"/><path id="_01" data-name="01" class="cls-3" d="M84.13,71.79a62.29,62.29,0,0,0-.51,8c-.06,1.33.89,1.32,1.83,1.32,4.52,0,9,0,13.57,0,1.65,0,2.27.54,2.24,2.21q-.12,7.17,0,14.34c0,1.7-.63,2.2-2.26,2.16-4.4-.08-8.79.06-13.19-.06-1.84-.06-2.25.62-2.25,2.31q.07,25.33,0,50.67c0,2.91,0,2.91-2.93,2.91-6.82,0-13.64-.06-20.46.05-1.92,0-2.38-.67-2.37-2.42.06-8.6,0-17.21,0-25.81s0-17,0-25.43c0-1.75-.51-2.35-2.28-2.28-3.38.12-6.76,0-10.14.05-1.34,0-1.94-.32-1.92-1.81.08-5,.07-10.07,0-15.1,0-1.38.54-1.78,1.81-1.77,3.5,0,7-.08,10.51,0,1.81.06,2.34-.51,2.45-2.35a97.6,97.6,0,0,1,1.37-13.46C61.61,55.65,67.93,50,77.36,48c7.42-1.63,14.93-1.28,22.42-.12a1.94,1.94,0,0,1,1.89,2.46c-.45,4.89-.84,9.77-1.23,14.66-.1,1.24-.61,1.53-1.89,1.32a43.36,43.36,0,0,0-7-.6C87.59,65.7,84.82,67.92,84.13,71.79Z"/></g><path id="Shadow" class="cls-4" d="M158.94,82h0c-.21,3.94-.58,7.88-.86,11.81-.14,2-.25,4.07-.35,6.1-.06,1.5-.58,2-2.24,1.81a41,41,0,0,0-9.51-.26c-7.95,1.08-12.75,6-14.08,14.19a64.32,64.32,0,0,0-.8,9.5c-.11,9.3,0,18.61,0,27.91,0,2.54,0,2.55-2.54,2.55h-22.6v-72c0-2.52,0-2.52,2.44-2.52,6.12,0,12.24,0,18.36,0,1.71,0,2.19.55,2.15,2.2-.11,3.37,0,6.76,0,10.53.9-1.5,1.59-2.71,2.35-3.88a28.93,28.93,0,0,1,4.54-5.51L101.67,50.29h0c-.45,4.89-.84,9.77-1.23,14.66-.1,1.24-.61,1.53-1.89,1.32a43.36,43.36,0,0,0-7-.6c-4,0-6.72,2.25-7.41,6.12a62.29,62.29,0,0,0-.51,8c-.06,1.33.89,1.32,1.83,1.32,4.52,0,9,0,13.57,0,1.65,0,2.27.54,2.24,2.21q-.12,7.17,0,14.34c0,1.7-.63,2.2-2.26,2.16-4.4-.08-8.79.06-13.19-.06-1.84-.06-2.25.62-2.25,2.31q.07,25.33,0,50.67c0,2.91,0,2.91-2.93,2.91-6.82,0-13.64-.06-20.46.05a3.74,3.74,0,0,1-1.33-.18l46.92,46.92a101.3,101.3,0,0,0,94.32-79.23Z"/></g></g></g></g></svg>