<svg xmlns="http://www.w3.org/2000/svg" viewBox="0 0 202.49 202.49"><defs><style>.cls-1{isolation:isolate;}.cls-2{fill:#97c13d;}.cls-3{fill:#fff;}.cls-4{fill:#231f20;opacity:0.3;mix-blend-mode:multiply;}</style></defs><title>Asset 45</title><g class="cls-1"><g id="Layer_2" data-name="Layer 2"><g id="Social_Media_Icons" data-name="Social Media Icons"><g id="Android"><path class="cls-2" d="M202.49,101.24c0,1.09,0,2.18-.05,3.26a101.25,101.25,0,0,1-92,97.56q-4.56.44-9.24.43A101.25,101.25,0,1,1,202.49,101.24Z"/><path id="Logo" class="cls-3" d="M140.82,77.11q-39.3,0-78.6,0c-1.41,0-1.41,0-1.41,1.45,0,18.88.07,37.77,0,56.65A10.1,10.1,0,0,0,71,145.5c2-.05,3.93,0,6,0,.07.81.17,1.51.17,2.2,0,5.59,0,11.18,0,16.78a12.43,12.43,0,0,0,.54,3.8,9,9,0,0,0,17.41-2.67c0-6.4.09-12.8.09-19.2,0-.78.23-.94.94-.93,3.31,0,6.61,0,9.91,0,.86,0,1.14.21,1.13,1.12,0,6.08,0,12.17,0,18.25a9.77,9.77,0,0,0,.67,3.55,8.92,8.92,0,0,0,12.58,4.69,8.51,8.51,0,0,0,4.82-7.89c.07-6.12,0-12.24,0-18.36v-1.34c2.36,0,4.6,0,6.85,0a9.71,9.71,0,0,0,9.4-8.4,52.43,52.43,0,0,0,.18-5.47q0-26.63,0-53.27C141.85,77.59,141.85,77.11,140.82,77.11Zm.15-10.5A33.93,33.93,0,0,0,136.11,55,37.25,37.25,0,0,0,125.6,44.38c-1.4-.94-2.83-1.85-4.34-2.83,1.81-3.27,3.64-6.52,5.41-9.8a6.39,6.39,0,0,0,.8-2.21,1.09,1.09,0,0,0-1.66-1,2.89,2.89,0,0,0-1,1.07c-1.83,3.3-3.67,6.6-5.42,9.94-.47.9-.92.85-1.72.55a52.14,52.14,0,0,0-5.94-1.94A41.39,41.39,0,0,0,97.84,37a43.53,43.53,0,0,0-5.59.82c-2.68.68-5.3,1.58-7.93,2.44-.54.18-.72.06-1-.4-.78-1.49-1.6-3-2.41-4.42q-1.73-3.14-3.46-6.24c-.41-.72-1-1.12-1.83-.71s-.86,1.11-.39,2c.65,1.2,1.31,2.39,2,3.59,1.35,2.5,2.71,5,4.1,7.56-15.1,7.92-21.1,22.48-20.42,32.52h79.74c.18,0,.4.07.52,0s.65-.48.63-.68A65.22,65.22,0,0,0,141,66.61ZM82.78,59.38a3.29,3.29,0,0,1-3.27-3.3,3.45,3.45,0,0,1,3.62-3.43,3.62,3.62,0,0,1,3.13,3.48A3.46,3.46,0,0,1,82.78,59.38Zm36.85,0A3.41,3.41,0,0,1,116.32,56a3.6,3.6,0,0,1,3.27-3.36,3.44,3.44,0,0,1,3.48,3.42A3.38,3.38,0,0,1,119.63,59.38Zm-61.95,44h0c0-6.33,0-12.66,0-19A8.46,8.46,0,0,0,55.93,79a9.12,9.12,0,0,0-16.37,5.38q-.08,18.72,0,37.44a9.08,9.08,0,1,0,18.16.41C57.6,116,57.68,109.66,57.68,103.37ZM163,85a10.14,10.14,0,0,0-1.7-5.78,9.38,9.38,0,0,0-9.84-3.51,9.19,9.19,0,0,0-6.59,9.08q0,18.57,0,37.14a9.75,9.75,0,0,0,.26,2.29A9,9,0,0,0,163,122.17V103.39C163,97.27,162.93,91.15,163,85Z"/><g id="Shadow"><path id="_05" data-name="05" class="cls-4" d="M83.36,39.88c.24.46.42.58,1,.4l3.19-1-10-10q1.74,3.11,3.46,6.24C81.76,36.93,82.58,38.39,83.36,39.88Z"/><path id="_04" data-name="04" class="cls-4" d="M79.51,56.08a3.29,3.29,0,0,0,3.27,3.3,3.46,3.46,0,0,0,3.48-3.25,3.62,3.62,0,0,0-3.13-3.48A3.45,3.45,0,0,0,79.51,56.08Z"/><path id="_03" data-name="03" class="cls-4" d="M119.63,59.38a3.38,3.38,0,0,0,3.44-3.32,3.44,3.44,0,0,0-3.48-3.42A3.6,3.6,0,0,0,116.32,56,3.41,3.41,0,0,0,119.63,59.38Z"/><path id="_02" data-name="02" class="cls-4" d="M77.25,161.37c0-4.2,0-8.39,0-12.59V147.7c0-.57-.07-1.15-.13-1.79,0-.14,0-.27,0-.41-1.64,0-3.19,0-4.73,0H71a10,10,0,0,1-3.23-.43,10.29,10.29,0,0,1-7-9.83q.06-12.75,0-25.49v-5.67q0-10.1,0-20.18L55.93,79c.13.17.25.35.37.53a8.42,8.42,0,0,1,1.39,4.85c0,6.32,0,12.65,0,19h0c0,6.29-.08,12.58,0,18.87a9,9,0,0,1-5.82,8.36,8.83,8.83,0,0,1-3,.62,9.17,9.17,0,0,1-6.53-2.58l35,35C77.25,162.85,77.25,162.11,77.25,161.37Z"/><path id="_01" data-name="01" class="cls-4" d="M127.47,29.54a6.39,6.39,0,0,1-.8,2.21c-1.62,3-3.28,6-4.93,8.94l-.45.87c1.5,1,2.92,1.88,4.31,2.82A37.25,37.25,0,0,1,136.11,55,33.93,33.93,0,0,1,141,66.61a65.22,65.22,0,0,1,.84,6.86c0,.2-.38.49-.63.68s-.34,0-.52,0H60.92l3,3h2q35.81,0,71.62,0h3.28c.82,0,1,.31,1,.81,0,.13,0,.27,0,.42q0,26.64,0,53.27a52.43,52.43,0,0,1-.18,5.47,9.67,9.67,0,0,1-7,8,9.08,9.08,0,0,1-2.39.35c-2.25,0-4.49,0-6.85,0v1.34c0,3,0,5.93,0,8.89,0,3.16,0,6.31,0,9.47a8.46,8.46,0,0,1-4.08,7.45,7.78,7.78,0,0,1-.75.44A8.93,8.93,0,0,1,108,168.39a9.28,9.28,0,0,1-.48-1.68,12.12,12.12,0,0,1-.18-1.69v-.18c-.07-6.08-.06-12.17,0-18.25,0-.91-.27-1.12-1.12-1.11-3,0-5.91,0-8.87,0H96.24c-.45,0-.7.06-.83.29a1.36,1.36,0,0,0-.11.64c0,6.4,0,12.8-.09,19.2a8.87,8.87,0,0,1-7.75,8.4,9.17,9.17,0,0,1-6.92-1.89l29.94,29.94a101.25,101.25,0,0,0,92-97.56ZM163,98.41v23.76A9.08,9.08,0,0,1,156,131a7.62,7.62,0,0,1-.81.14,9.77,9.77,0,0,1-2.16,0,9,9,0,0,1-7.93-6.9,9.14,9.14,0,0,1-.21-1.39c0-.3,0-.6,0-.9V103.39q0-9.28,0-18.57a10.42,10.42,0,0,1,.26-2.34,9.14,9.14,0,0,1,6.33-6.74c2.68-.89,6.27.07,8.54,2a6.93,6.93,0,0,1,1.3,1.47s0,0,0,0A10.79,10.79,0,0,1,162,80.6a10.26,10.26,0,0,1,.84,2.88A12.38,12.38,0,0,1,163,85s0,0,0,0Q162.93,91.72,163,98.41Z"/></g></g></g></g></g></svg>