<svg xmlns="http://www.w3.org/2000/svg" viewBox="0 0 202.43 202.43"><defs><style>.cls-1{isolation:isolate;}.cls-2{fill:#23a9e1;}.cls-3{fill:#fff;}.cls-4{fill:#231f20;opacity:0.3;mix-blend-mode:multiply;}</style></defs><title>Asset 9</title><g class="cls-1"><g id="Layer_2" data-name="Layer 2"><g id="Social_Media_Icons" data-name="Social Media Icons"><g id="Skype"><path id="Base" class="cls-2" d="M202.43,101.21a102.51,102.51,0,0,1-1.53,17.64,101.31,101.31,0,1,1,1.53-17.64Z"/><path id="Logo" class="cls-3" d="M162.55,123.64c-.26-1.34-.44-2.7-.78-4a33.14,33.14,0,0,0-3.27-8.11.87.87,0,0,1-.12-.47c0-.37.11-.74.16-1.12.16-1.1.37-2.2.45-3.3.14-1.79.2-3.58.28-5.36h-.09c0-1.11.06-2.21,0-3.3-.11-1.51-.28-3-.47-4.5-.15-1.19-.3-2.38-.54-3.55-.32-1.51-.71-3-1.12-4.51a55.1,55.1,0,0,0-4.32-10.94,56.05,56.05,0,0,0-4.34-7,54.23,54.23,0,0,0-5-6,56.69,56.69,0,0,0-10.7-8.91,54.69,54.69,0,0,0-5.77-3.29,62.57,62.57,0,0,0-6.15-2.6,61.35,61.35,0,0,0-6-1.81c-.89-.2-1.8-.37-2.71-.54-.67-.13-1.36-.25-2-.34-1.11-.17-2.2-.36-3.3-.45-1.5-.12-3-.2-4.49-.21a36.59,36.59,0,0,0-5.44.16c-.66.09-1.33.11-2,.19-1,.11-2.09.21-3.12.4a1.25,1.25,0,0,1-.88-.14c-1.3-.64-2.6-1.29-3.94-1.85a33.39,33.39,0,0,0-8.57-2.22,29,29,0,0,0-3.09-.18c-1,0-2,0-3,0a22.21,22.21,0,0,0-2.32.19c-.88.11-1.74.29-2.59.47-1.09.23-2.18.46-3.24.77a31.67,31.67,0,0,0-5.15,2A34,34,0,0,0,49,50.37a33.47,33.47,0,0,0-4.44,5.81,35.27,35.27,0,0,0-2.61,5.26,34.47,34.47,0,0,0-1.71,5.91,32.26,32.26,0,0,0-.6,4.35A34.61,34.61,0,0,0,40,79.38,45.08,45.08,0,0,0,41,84a31.61,31.61,0,0,0,3,7,1.05,1.05,0,0,1,.07.53c-.07.65-.2,1.28-.28,1.93s-.14,1.17-.19,1.76c-.11,1.12-.25,2.25-.3,3.38-.05,1.31,0,2.62,0,3.93,0,1.09.09,2.18.17,3.28s.17,2.48.35,3.7c.21,1.4.52,2.8.79,4.19a37.9,37.9,0,0,0,1.53,5.64c.54,1.59,1.17,3.15,1.78,4.71a47.19,47.19,0,0,0,2.64,5.45,59.34,59.34,0,0,0,3.6,5.65,56.78,56.78,0,0,0,4.73,5.76,60.42,60.42,0,0,0,5.92,5.5,57.73,57.73,0,0,0,4.86,3.52,56.51,56.51,0,0,0,7.06,3.93,55.45,55.45,0,0,0,6.15,2.45q2.48.78,5,1.41c1.34.34,2.7.6,4.06.82,1.1.2,2.21.29,3.32.39,1.38.13,2.76.26,4.14.31s2.91,0,4.37,0c1,0,2-.1,3-.21s2.21-.29,3.31-.45c.31,0,.62-.12.92-.14a.89.89,0,0,1,.48.1c.75.37,1.49.78,2.25,1.14a32.6,32.6,0,0,0,6.9,2.39c1,.23,2.07.37,3.1.52a23.38,23.38,0,0,0,2.62.31,37.52,37.52,0,0,0,8-.48,36.85,36.85,0,0,0,4-1,35.06,35.06,0,0,0,5.66-2.28,32.46,32.46,0,0,0,6.95-4.68,36.86,36.86,0,0,0,4.81-5.1,34.89,34.89,0,0,0,5.32-10,24.21,24.21,0,0,0,1.09-4.26c.11-.75.26-1.49.36-2.24a17.07,17.07,0,0,0,.28-2.36A35,35,0,0,0,162.55,123.64Zm-33-5.18a15.36,15.36,0,0,1-1,4,19.18,19.18,0,0,1-2.69,4.9,20.56,20.56,0,0,1-3.06,3.19,21.59,21.59,0,0,1-5.46,3.36,32.29,32.29,0,0,1-6.29,2c-1.39.29-2.79.51-4.22.67a50.64,50.64,0,0,1-5.23.34c-1.58-.07-3.16-.11-4.73-.2-.71,0-1.42-.2-2.12-.3-.47-.07-1-.11-1.43-.21-1.32-.26-2.62-.53-3.92-.82a28.16,28.16,0,0,1-5.12-1.76,26.37,26.37,0,0,1-4.9-2.86,20,20,0,0,1-2.89-2.55A15,15,0,0,1,73,122.14a7.76,7.76,0,0,1,.15-5.25,6,6,0,0,1,3.64-3.37,7.53,7.53,0,0,1,3.28-.47,6.46,6.46,0,0,1,3.83,1.61,20.5,20.5,0,0,1,2.73,3.21,30.13,30.13,0,0,0,3,3.6,13.7,13.7,0,0,0,4.35,2.86,16.67,16.67,0,0,0,3.87,1,22.21,22.21,0,0,0,3.9.3,16.86,16.86,0,0,0,6.48-1.38,12,12,0,0,0,3.36-2.2,8.06,8.06,0,0,0,2.63-4.91,6.13,6.13,0,0,0-2.26-5.73,11.46,11.46,0,0,0-4.88-2.24c-1.18-.28-2.36-.6-3.54-.89l-6.89-1.75c-2.15-.56-4.3-1.12-6.47-1.64a39.17,39.17,0,0,1-4.33-1.31,25.87,25.87,0,0,1-6.14-3.21,15.29,15.29,0,0,1-5.13-6.37A13.51,13.51,0,0,1,73.41,90c-.12-1.26-.32-2.52-.32-3.77a21.7,21.7,0,0,1,.45-4.32,18.07,18.07,0,0,1,1.55-4.58,16.73,16.73,0,0,1,4-5.21,23.77,23.77,0,0,1,7.28-4.21,33.13,33.13,0,0,1,5.52-1.5,30.49,30.49,0,0,1,5.29-.66c1.18,0,2.36-.15,3.54-.13s2.51.17,3.77.3c.92.09,1.84.18,2.74.36,1.18.25,2.36.55,3.54.88a37.23,37.23,0,0,1,6,2.26A21.74,21.74,0,0,1,125,75.79a8.85,8.85,0,0,1,1.73,4.09,8.29,8.29,0,0,1,0,2.63,5.43,5.43,0,0,1-3.41,4.15,8.68,8.68,0,0,1-3.68.73,6.17,6.17,0,0,1-4.38-1.82c-1.25-1.26-2.41-2.6-3.66-3.84a14.43,14.43,0,0,0-6.92-3.86,22.32,22.32,0,0,0-6.56-.61,14.23,14.23,0,0,0-6,1.5,7.07,7.07,0,0,0-3.77,4.67A5.51,5.51,0,0,0,89.78,89a8.58,8.58,0,0,0,2.61,1.76,25.49,25.49,0,0,0,4.89,1.62c2,.47,4,.91,6,1.36,1.72.38,3.44.76,5.15,1.16A57.1,57.1,0,0,1,117,97.23a25.46,25.46,0,0,1,5.75,3.13,16.79,16.79,0,0,1,6.15,8.57,17.85,17.85,0,0,1,.63,2.81,22.47,22.47,0,0,1,.3,3.65C129.85,116.42,129.65,117.44,129.55,118.46Z"/><g id="Skype-2" data-name="Skype"><path class="cls-4" d="M111.54,122.1a12,12,0,0,1-3.36,2.2,16.86,16.86,0,0,1-6.48,1.38,22.21,22.21,0,0,1-3.9-.3,16.67,16.67,0,0,1-3.87-1,13.7,13.7,0,0,1-4.35-2.86,30.13,30.13,0,0,1-3-3.6,20.5,20.5,0,0,0-2.73-3.21A6.46,6.46,0,0,0,80,113.05a7.53,7.53,0,0,0-3.28.47,6,6,0,0,0-3.64,3.37,7.76,7.76,0,0,0-.15,5.25,15,15,0,0,0,3.53,6.06,20,20,0,0,0,2.89,2.55,26.37,26.37,0,0,0,4.9,2.86,28.16,28.16,0,0,0,5.12,1.76c1.3.29,2.6.56,3.92.82.48.1,1,.14,1.43.21.7.1,1.41.25,2.12.3,1.57.09,3.15.13,4.73.2a50.64,50.64,0,0,0,5.23-.34c1.43-.16,2.83-.38,4.22-.67a32.29,32.29,0,0,0,6.29-2,21.59,21.59,0,0,0,5.46-3.36,20.56,20.56,0,0,0,3.06-3.19,19.18,19.18,0,0,0,2.69-4.9,15.36,15.36,0,0,0,1-4c.1-1,.3-2,.32-3.07a22.47,22.47,0,0,0-.3-3.65,17.85,17.85,0,0,0-.63-2.81,16.79,16.79,0,0,0-6.15-8.57A25.46,25.46,0,0,0,117,97.23a57.1,57.1,0,0,0-8.61-2.35c-1.71-.4-3.43-.78-5.15-1.16-2-.45-4-.89-6-1.36a25.49,25.49,0,0,1-4.89-1.62A8.58,8.58,0,0,1,89.78,89a5.51,5.51,0,0,1-1.34-5.55,7.07,7.07,0,0,1,3.77-4.67,14.23,14.23,0,0,1,6-1.5,22.32,22.32,0,0,1,6.56.61,14.43,14.43,0,0,1,6.92,3.86c1.25,1.24,2.41,2.58,3.66,3.84a6.17,6.17,0,0,0,4.38,1.82,8.68,8.68,0,0,0,3.68-.73,5.43,5.43,0,0,0,3.41-4.15,8.29,8.29,0,0,0,0-2.63A8.85,8.85,0,0,0,125,75.79a21.74,21.74,0,0,0-8.18-6.41,37.23,37.23,0,0,0-6-2.26c-1.18-.33-2.36-.63-3.54-.88-.9-.18-1.82-.27-2.74-.36-1.26-.13-2.52-.27-3.77-.3s-2.36.12-3.54.13a30.49,30.49,0,0,0-5.29.66,33.13,33.13,0,0,0-5.52,1.5,23.77,23.77,0,0,0-7.28,4.21,16.73,16.73,0,0,0-4,5.21,18.07,18.07,0,0,0-1.55,4.58,21.7,21.7,0,0,0-.45,4.32c0,1.25.2,2.51.32,3.77a13.51,13.51,0,0,0,1.12,4.09,15.29,15.29,0,0,0,5.13,6.37,25.87,25.87,0,0,0,6.14,3.21,39.17,39.17,0,0,0,4.33,1.31c2.17.52,4.32,1.08,6.47,1.64l6.89,1.75c1.18.29,2.36.61,3.54.89a11.46,11.46,0,0,1,4.88,2.24,6.13,6.13,0,0,1,2.26,5.73A8.06,8.06,0,0,1,111.54,122.1Z"/><path class="cls-4" d="M200.9,118.85a101.3,101.3,0,0,1-82,82l-57-57v0c.93.87,1.9,1.72,2.9,2.52a57.73,57.73,0,0,0,4.86,3.52,56.51,56.51,0,0,0,7.06,3.93,55.45,55.45,0,0,0,6.15,2.45c1.65.52,3.32,1,5,1.41,1.34.34,2.7.6,4.06.82,1.1.2,2.21.29,3.32.39,1.38.13,2.76.26,4.14.31s2.91,0,4.37,0c1,0,2-.1,3-.21s2.21-.29,3.31-.45c.31,0,.62-.12.92-.14a.89.89,0,0,1,.48.1c.75.37,1.49.78,2.25,1.14a32.6,32.6,0,0,0,6.9,2.39c1,.23,2.07.37,3.1.52a23.38,23.38,0,0,0,2.62.31,37.52,37.52,0,0,0,8-.48,36.85,36.85,0,0,0,4-1,35.06,35.06,0,0,0,5.66-2.28,32.46,32.46,0,0,0,6.95-4.68,36.86,36.86,0,0,0,4.81-5.1,34.89,34.89,0,0,0,5.32-10,24.21,24.21,0,0,0,1.09-4.26c.11-.75.26-1.49.36-2.24a17.07,17.07,0,0,0,.28-2.36,35,35,0,0,0-.29-6.87c-.26-1.34-.44-2.7-.78-4a33.14,33.14,0,0,0-3.27-8.11.87.87,0,0,1-.12-.47c0-.37.11-.74.16-1.12.16-1.1.37-2.2.45-3.3.14-1.79.2-3.58.28-5.36h-.09c0-1.11.06-2.21,0-3.3-.11-1.51-.28-3-.47-4.5-.15-1.19-.3-2.38-.54-3.55-.32-1.51-.71-3-1.12-4.51a55.1,55.1,0,0,0-4.32-10.94,56.05,56.05,0,0,0-4.34-7A54.71,54.71,0,0,0,144,62h.09Z"/></g></g></g></g></g></svg>