<svg xmlns="http://www.w3.org/2000/svg" viewBox="0 0 202.5 202.5"><defs><style>.cls-1{isolation:isolate;}.cls-2{fill:#f58220;}.cls-3{fill:#fff;}.cls-4{fill:#231f20;opacity:0.3;mix-blend-mode:multiply;}</style></defs><title>Asset 49</title><g class="cls-1"><g id="Layer_2" data-name="Layer 2"><g id="Social_Media_Icons" data-name="Social Media Icons"><g id="OK"><path id="Base" class="cls-2" d="M202.5,101.25a101.17,101.17,0,0,1-95.56,101.09c-1.88.11-3.78.16-5.69.16A101.25,101.25,0,1,1,202.5,101.25Z"/><path id="Logo" class="cls-3" d="M139.66,111.52a9.54,9.54,0,0,0-2.89-4.52,9,9,0,0,0-4.74-2.15,9.56,9.56,0,0,0-3.37.12,8.78,8.78,0,0,0-3.1,1.3c-.83.56-1.63,1.16-2.49,1.66a37.29,37.29,0,0,1-6.78,3.15c-1,.34-2,.71-3.05,1q-1.87.48-3.78.81a35.69,35.69,0,0,1-4.81.68,40.73,40.73,0,0,1-8-.17c-.51-.08-1-.09-1.55-.16-.93-.14-1.86-.25-2.78-.44s-1.76-.43-2.62-.69c-1.34-.38-2.7-.71-4-1.21-1.65-.64-3.26-1.38-4.84-2.17a21.28,21.28,0,0,1-3.21-1.92,9.54,9.54,0,0,0-5.2-2,9.24,9.24,0,0,0-8.61,4.35,9.23,9.23,0,0,0-1.2,7.08,8.85,8.85,0,0,0,2.14,4.11,15.26,15.26,0,0,0,2.36,2,39.63,39.63,0,0,0,4,2.5c2,1,4,2,6,2.88,1.4.61,2.85,1.11,4.3,1.6,1.2.41,2.44.74,3.66,1.08.62.17,1.24.29,1.87.43l2.08.48a4,4,0,0,1-.27.34L78.3,142.66c-2.74,2.88-5.47,5.77-8.24,8.61a10.37,10.37,0,0,0-3.16,6,9.37,9.37,0,0,0,11.5,10.35A9.28,9.28,0,0,0,83,164.87c2.72-2.88,5.4-5.78,8.11-8.66,3.27-3.49,6.56-7,9.82-10.44.3-.32.44-.31.73,0,2.37,2.33,4.77,4.65,7.16,7q6,5.85,12,11.67a19,19,0,0,0,2.39,2,8.7,8.7,0,0,0,3.82,1.37,9.33,9.33,0,0,0,9.48-5,8.72,8.72,0,0,0,1-3.41,9.6,9.6,0,0,0-.35-3.53,9,9,0,0,0-2-3.56c-1.37-1.45-2.81-2.84-4.23-4.25l-14.85-14.67c-.7-.71-1.41-1.4-2.2-2.16l1.66-.41c1.11-.28,2.23-.51,3.32-.83,1.25-.37,2.49-.78,3.71-1.24,1.58-.58,3.15-1.17,4.67-1.88s3.15-1.56,4.68-2.41a26.37,26.37,0,0,0,5-3.45,9,9,0,0,0,2.93-5.67A8.76,8.76,0,0,0,139.66,111.52ZM102.07,34.65A34.52,34.52,0,1,0,136.31,69.2,34.49,34.49,0,0,0,102.07,34.65Zm14,35.13a14.27,14.27,0,1,1-14.22-14.85A14.22,14.22,0,0,1,116.06,69.78Z"/><g id="Shadow"><path id="_02" data-name="02" class="cls-4" d="M101.68,83.43a14.25,14.25,0,1,0,.16-28.5,14.06,14.06,0,0,0-6.64,1.58L90,61.17a14.28,14.28,0,0,0,11.7,22.26Z"/><path id="_01" data-name="01" class="cls-4" d="M126.91,45.51h0a34.49,34.49,0,0,1-48.18,49.3l18.64,18.64a46.57,46.57,0,0,0,7.28.1,35.92,35.92,0,0,0,4.81-.68l1.06-.2c.54-.11,1.08-.22,1.62-.35.36-.08.74-.16,1.1-.26,1-.27,2-.64,3.05-1a34.33,34.33,0,0,0,3.44-1.39h0c1.12-.53,2.23-1.12,3.3-1.75.53-.31,1-.65,1.53-1,.32-.22.63-.45,1-.66a8.78,8.78,0,0,1,3.1-1.3,9.15,9.15,0,0,1,2-.21,10.35,10.35,0,0,1,1.36.09,8.78,8.78,0,0,1,3.76,1.42,10.81,10.81,0,0,1,1,.73,9.54,9.54,0,0,1,2.89,4.52,8.79,8.79,0,0,1,.35,3.29c0,.16,0,.31,0,.47a9.82,9.82,0,0,1-.31,1.47,9.47,9.47,0,0,1-.63,1.63,9,9,0,0,1-2,2.57,26.69,26.69,0,0,1-5,3.45l-.91.49c-1.24.68-2.49,1.34-3.77,1.92-1.12.52-2.27,1-3.43,1.41l-1.24.47c-.62.24-1.24.45-1.87.66s-1.23.4-1.84.58c-.45.13-.9.24-1.35.35l-2,.48-1.12.27-.54.14.89.87.58.56.73.72,5.8,5.73q4.51,4.48,9,8.95l2.09,2.07c.4.4.79.81,1.18,1.21l1,1h0a8.88,8.88,0,0,1,2,3.55,8.07,8.07,0,0,1,.34,1.93,12.2,12.2,0,0,1,0,1.6c0,.23-.05.45-.09.68a9.13,9.13,0,0,1-.9,2.73,9.34,9.34,0,0,1-8.46,5.09c-.34,0-.68,0-1-.07a8.7,8.7,0,0,1-3.82-1.37c-.36-.25-.7-.52-1-.8l-.33-.28q-.52-.45-1-.93c-4-3.87-8-7.77-12-11.67-2.39-2.32-4.78-4.63-7.16-7-.23-.22-.37-.27-.56-.13l-.17.15c-3.26,3.49-6.55,6.95-9.82,10.44q-2.62,2.79-5.23,5.59c-1,1-1.91,2-2.88,3.07a9.38,9.38,0,0,1-12.24,1.27l0,0-.09-.07-.11-.08,36.37,36.37a101.28,101.28,0,0,0,93.92-82.87Z"/></g></g></g></g></g></svg>