<svg xmlns="http://www.w3.org/2000/svg" viewBox="0 0 202.49 202.49"><defs><style>.cls-1{isolation:isolate;}.cls-2{fill:#32a9dc;}.cls-3{fill:#c8daea;}.cls-4{fill:#f5fbfe;}.cls-5{fill:#a9c9dc;}.cls-6{fill:#231f20;opacity:0.3;mix-blend-mode:multiply;}</style></defs><title>Asset 35</title><g class="cls-1"><g id="Layer_2" data-name="Layer 2"><g id="Social_Media_Icons" data-name="Social Media Icons"><g id="Telegram"><path id="Base" class="cls-2" d="M202.49,101.24c0,1,0,2,0,3a101.34,101.34,0,1,1,0-3Z"/><g id="Logo"><path id="_03" data-name="03" class="cls-3" d="M131.56,71.94l-52.71,47.8-1.78,28.78a4,4,0,0,1-3.33-2.78L63.25,112l66.89-42A1.18,1.18,0,0,1,131.56,71.94Z"/><path id="_02" data-name="02" class="cls-4" d="M153.13,57.94l-18.88,92.11A5.87,5.87,0,0,1,125,153.6L78.85,119.74l52.71-47.8a1.18,1.18,0,0,0-1.42-1.88L63.25,112l-29.62-9.31a3.6,3.6,0,0,1-.21-6.8L146.68,52.44A4.83,4.83,0,0,1,153.13,57.94Z"/><path id="_01" data-name="01" class="cls-5" d="M96.18,132.45l-15.86,15a3.94,3.94,0,0,1-3.25,1.07l1.78-28.78Z"/></g><path id="Shadow" class="cls-6" d="M202.45,104.19a101.28,101.28,0,0,1-75.58,95L75.79,148.12a4.06,4.06,0,0,0,1.28.4,3.94,3.94,0,0,0,3.25-1.07l15.86-15L125,153.6a5.87,5.87,0,0,0,9.22-3.55l18.88-92.11a4.77,4.77,0,0,0-1-4.1Z"/></g></g></g></g></svg>