<svg xmlns="http://www.w3.org/2000/svg" viewBox="0 0 203.51 203.51"><defs><style>.cls-1{isolation:isolate;}.cls-2{fill:#3b5a9a;}.cls-3{fill:#fff;}.cls-4{fill:#231f20;opacity:0.3;mix-blend-mode:multiply;}</style></defs><title>Asset 1</title><g class="cls-1"><g id="Layer_2" data-name="Layer 2"><g id="Social_Media_Icons" data-name="Social Media Icons"><g id="Facebook"><path id="Base" class="cls-2" d="M203.51,101.75c0,.41,0,.83,0,1.24,0,2.29-.13,4.57-.31,6.82A101.8,101.8,0,0,1,121,201.69c-1.56.3-3.14.56-4.73.79a101.76,101.76,0,1,1,87.25-100.73Z"/><path id="Logo" class="cls-3" d="M85.22,101.76v64.31h26.32V101.75h17.59c.78-7.39,1.55-14.74,2.33-22.15H111.55c0-.15,0-.25,0-.35,0-2.89,0-5.79,0-8.68,0-2,.07-4,.26-5.92a4.8,4.8,0,0,1,3.52-4.39,11.69,11.69,0,0,1,3.55-.59c4,0,8,0,11.92,0,.42,0,.55-.1.55-.53q0-10.57,0-21.14c0-.43-.12-.54-.55-.54-5.31,0-10.63,0-16,0a60.77,60.77,0,0,0-7.63.42,34.08,34.08,0,0,0-6.48,1.43A20.43,20.43,0,0,0,87.81,51a35.5,35.5,0,0,0-2.58,13.5c-.08,4.86,0,9.72,0,14.58v.55H72v22.15Z"/><g id="Shadow"><path id="_02" data-name="02" class="cls-4" d="M85.22,114.91V101.76H72.07Z"/><path id="_01" data-name="01" class="cls-4" d="M131.36,38h0q0,10.58,0,21.14c0,.43-.13.53-.55.53-4,0-7.94,0-11.92,0a11.69,11.69,0,0,0-3.55.59,4.8,4.8,0,0,0-3.52,4.39c-.19,2-.23,3.95-.26,5.92,0,2.89,0,5.79,0,8.68,0,.1,0,.2,0,.35h19.91c-.78,7.41-1.55,14.76-2.33,22.15H111.54v64.32H85.37L121,201.69a101.8,101.8,0,0,0,82.2-91.88Z"/></g></g></g></g></g></svg>