<svg xmlns="http://www.w3.org/2000/svg" viewBox="0 0 202.48 202.48"><defs><style>.cls-1{isolation:isolate;}.cls-2{fill:#ed6e24;}.cls-3{fill:#fff;}.cls-4{fill:#231f20;opacity:0.3;mix-blend-mode:multiply;}</style></defs><title>Asset 46</title><g class="cls-1"><g id="Layer_2" data-name="Layer 2"><g id="Social_Media_Icons" data-name="Social Media Icons"><g id="SoundCloud"><path id="Base" class="cls-2" d="M202.48,101.24a101.18,101.18,0,0,1-98.81,101.21q-1.22,0-2.43,0A101.24,101.24,0,1,1,202.48,101.24Z"/><path id="Logo" class="cls-3" d="M104,112.9l-1-44.12a2.16,2.16,0,0,0-4.32,0l-.88,44.12.88,16a2.16,2.16,0,0,0,4.32,0v0ZM161.27,92a19.72,19.72,0,0,0-7.58,1.52A34.55,34.55,0,0,0,119.28,62a35,35,0,0,0-12.53,2.34c-1.48.57-1.87,1.16-1.88,2.3v62.16a2.37,2.37,0,0,0,2.11,2.32l54.29,0a19.59,19.59,0,0,0,0-39.18ZM75.79,76.68a1.61,1.61,0,1,0-3.22,0l-1,36.2,1,16.62a1.61,1.61,0,0,0,3.22,0h0l1.13-16.61ZM62.45,80.55a1.35,1.35,0,0,0-2.69,0L58.6,112.88l1.17,16.89a1.35,1.35,0,0,0,1.34,1.33,1.38,1.38,0,0,0,1.34-1.33l1.31-16.89Zm27.84,32.34-1-34a1.89,1.89,0,0,0-3.77,0l-.84,34,.84,16.36a1.89,1.89,0,0,0,3.77,0v0Zm-53.92-17a.8.8,0,0,0-1.6,0l-1.48,17,1.48,16.35a.8.8,0,0,0,1.6,0l1.69-16.35Zm12.94.79a1.09,1.09,0,0,0-1.07-1,1.08,1.08,0,0,0-1.07,1.06l-1.33,16.17,1.33,17a1.07,1.07,0,0,0,1.07,1,1.1,1.1,0,0,0,1.07-1l1.5-17Zm34.27,16.2-1-35.28a1.75,1.75,0,0,0-3.5,0l-.92,35.28.93,16.46a1.75,1.75,0,0,0,3.49,0h0ZM96.2,72.44a2,2,0,0,0-4,0l-.76,40.44s.76,16.26.76,16.26a2,2,0,0,0,4,0l.85-16.24ZM69.09,77.86a1.48,1.48,0,0,0-3,0l-1.08,35,1.08,16.72a1.48,1.48,0,0,0,3,0l1.23-16.72ZM42.81,95.43a1,1,0,0,0-.93-.91,1,1,0,0,0-.94.92l-1.4,17.43,1.4,16.86a.94.94,0,0,0,1.87,0l1.6-16.86Zm14.45,17.44-1.41-26.3a1.25,1.25,0,0,0-1.21-1.2,1.23,1.23,0,0,0-1.2,1.2l-1.25,26.3,1.25,17a1.22,1.22,0,0,0,1.2,1.18,1.24,1.24,0,0,0,1.21-1.19h0ZM30,98.56a.67.67,0,0,0-1.33,0l-1.56,14.3,1.56,14a.67.67,0,0,0,1.33,0l1.78-14ZM24.07,104a.68.68,0,0,0-.64-.63.67.67,0,0,0-.64.63l-1.16,8.84,1.16,8.69a.64.64,0,0,0,1.28,0l1.38-8.7Z"/><g id="Shadow"><path id="_02" data-name="02" class="cls-4" d="M161.27,92a20.33,20.33,0,0,1,2.36.16L145,73.52a34.43,34.43,0,0,1,8.7,20A19.68,19.68,0,0,1,161.27,92Z"/><path id="_01" data-name="01" class="cls-4" d="M176.15,98.89a19.58,19.58,0,0,1-14.88,32.3l-54.29,0a2.37,2.37,0,0,1-2.11-2.32v-60l-2-2-.12.93a2.13,2.13,0,0,1,.26,1l1,44.12-1,16v0a2.16,2.16,0,0,1-4.32,0l-.88-16,.76-38.08L96.2,72.44v0l.85,40.43-.85,16.24a2,2,0,0,1-4,0s-.76-16.24-.76-16.26L92,81.53l-2.64-2.64h0l1,34-1,16.36v0a1.89,1.89,0,0,1-3.77,0l-.84-16.36.8-32.29-3-3,1,35.28-1,16.46h0a1.75,1.75,0,0,1-3.49,0l-.93-16.46.86-33-3.19-3.19,1.13,36.2-1.13,16.61h0a1.61,1.61,0,0,1-3.22,0l-1-16.62.88-31.67L69.1,77.86v0l1.22,35L69.09,129.6a1.48,1.48,0,0,1-3,0l-1.08-16.72L66,84.06l-3.5-3.51v0l1.31,32.31-1.31,16.89a1.38,1.38,0,0,1-1.34,1.33,1.35,1.35,0,0,1-1.34-1.33L58.6,112.88l.82-22.73-3.57-3.57,1.41,26.29-1.41,17h0a1.24,1.24,0,0,1-1.21,1.19,1.22,1.22,0,0,1-1.2-1.18l-1.25-17,.6-12.69-3.48-3.49h0l1.5,16.17-1.5,17a1.1,1.1,0,0,1-1.07,1,1.07,1.07,0,0,1-1.07-1l-1.33-17,1.09-13.32-4.12-4.12,1.6,17.44-1.6,16.86a.94.94,0,0,1-1.87,0l-1.4-16.86,1-12.77-4.2-4.2,1.69,17-1.69,16.35a.8.8,0,0,1-1.6,0l-1.48-16.35.88-10.11L30,98.56h0l1.78,14.3-1.78,14a.67.67,0,0,1-1.33,0l-1.56-14,.62-5.67-3.34-3.34-.08,1.58,1.16,7.43-1.38,8.7a.68.68,0,0,1-.64.62h0v0l80.26,80.25a101.25,101.25,0,0,0,96.48-79.56Z"/></g></g></g></g></g></svg>