<svg xmlns="http://www.w3.org/2000/svg" viewBox="0 0 202.49 202.49"><defs><style>.cls-1{isolation:isolate;}.cls-2{fill:#42b7e9;}.cls-3{fill:#fff;}.cls-4{fill:#231f20;opacity:0.3;mix-blend-mode:multiply;}</style></defs><title>Asset 24</title><g class="cls-1"><g id="Layer_2" data-name="Layer 2"><g id="Social_Media_Icons" data-name="Social Media Icons"><g id="Vimeo"><path id="Base" class="cls-2" d="M202.49,101.25a102.06,102.06,0,1,1,0-1.37C202.49,100.33,202.49,100.79,202.49,101.25Z"/><path id="Logo" class="cls-3" d="M93.59,152.32a1.92,1.92,0,0,1,.57-.15,9.84,9.84,0,0,0,1.88,0c.65-.11,1.32-.11,2-.21.26,0,.49-.25.75-.31.46-.11.94-.11,1.38-.24s.71-.41,1.08-.54c.64-.21,1.32-.32,2-.56a15.51,15.51,0,0,0,2.23-1c1.11-.65,2.17-1.37,3.25-2.06s1.94-1.17,2.84-1.85c1.75-1.32,3.45-2.71,5.17-4.07.23-.18.46-.34.68-.53.78-.66,1.56-1.31,2.31-2,.34-.31.6-.71.92-1s.48-.32.67-.52c1-1,1.9-2.11,2.93-3.08.79-.74,1.49-1.56,2.21-2.36.85-1,1.68-2,2.5-3,1.08-1.32,2.17-2.64,3.2-4a39.66,39.66,0,0,0,3.39-4.64,23.29,23.29,0,0,1,1.43-2c.75-1.08,1.5-2.15,2.2-3.25s1.18-2,1.78-3c1-1.57,1.93-3.13,2.86-4.72.74-1.27,1.43-2.58,2.14-3.88s1.3-2.34,1.92-3.53c.38-.73.68-1.49,1-2.22.21-.41.52-.77.72-1.19s.4-1.06.63-1.57c.83-1.87,1.69-3.72,2.52-5.58s1.62-3.72,2.43-5.58c.23-.55.44-1.11.66-1.66l.64-1.69c.37-1,.76-2,1.12-3,.26-.73.47-1.49.71-2.23s.6-1.73.85-2.61c.15-.54.16-1.12.31-1.66.22-.77.59-1.51.74-2.3a16.35,16.35,0,0,0,.23-2.62c0-1,.05-2,0-2.94a17.3,17.3,0,0,0-.18-2.6,10.23,10.23,0,0,0-.63-1.81c-.06-.15-.2-.28-.23-.43A7.64,7.64,0,0,0,157.57,55a10.45,10.45,0,0,0-1.94-1.75A5.92,5.92,0,0,0,153.5,52c-.84-.18-1.38-1-2.32-.87a5.06,5.06,0,0,1-1.45-.39c-.3-.07-.63-.06-.93-.13a8.25,8.25,0,0,0-1.5-.38c-2.27,0-4.54,0-6.81,0-.44,0-1,0-1.3.22s-.59.35-.9,0a1.72,1.72,0,0,1-.45.25,11.32,11.32,0,0,0-2.45.74c-1,.51-2.1.89-3.15,1.33a8.39,8.39,0,0,0-.88.33c-.8.46-1.59.95-2.38,1.43s-1.68,1-2.48,1.54-1.6,1.21-2.4,1.81a12.7,12.7,0,0,0-1.65,1.24A13.18,13.18,0,0,0,121,60.47a9.71,9.71,0,0,1-1.36,1.36,3.45,3.45,0,0,1-.41.25,3.23,3.23,0,0,0-.57.45c-.31.37-.56.77-.85,1.14-.41.53-.87,1-1.26,1.58-.69,1-1.36,2-2,3s-1.27,2-1.9,3a6.13,6.13,0,0,0-.52,1c-.22.57-.33,1.18-.58,1.74-.35.8-.78,1.56-1.19,2.37a2.49,2.49,0,0,0,1.73.44,26.15,26.15,0,0,1,6.25.13c.21,0,.45-.08.64,0,.85.31,1.69.65,2.52,1a4.93,4.93,0,0,1,2.32,2.19,12.63,12.63,0,0,1,.72,1.79,6.19,6.19,0,0,1,.51,1.52A18.7,18.7,0,0,1,125,86c-.05,1.75-.11,3.51-.17,5.27a3.2,3.2,0,0,1-.07.7c-.14.47-.32.92-.48,1.39s-.23.83-.38,1.23-.31.64-.41,1-.13.83-.27,1.22c-.23.62-.52,1.21-.79,1.82s-.4,1-.64,1.41c-.46.88-1,1.74-1.41,2.63-.32.63-.54,1.32-.88,2-.43.81-.92,1.59-1.39,2.37-.73,1.2-1.46,2.41-2.22,3.6a14.82,14.82,0,0,1-1.18,1.67,13.68,13.68,0,0,1-3.63,3.15,3.78,3.78,0,0,1-1.21.56,16.58,16.58,0,0,0-2,0,3.51,3.51,0,0,1-2.5-.57,12.07,12.07,0,0,1-3.56-3.09,41.3,41.3,0,0,1-2.21-3.6c-.37-.65-.5-1.44-.82-2.12a4.28,4.28,0,0,1-.66-2.19.44.44,0,0,0-.06-.16l-.48-1.32a2,2,0,0,1-.17-.52c0-.32.11-.79-.06-.95-.44-.42-.3-.86-.22-1.36-.38-.11-.35-.31-.24-.68s-.11-.74-.2-1.11a2.44,2.44,0,0,1-.13-.44,4.57,4.57,0,0,0,0-1,4.38,4.38,0,0,1-.2-1.27c0-.32-.13-.72-.13-1.15a4.21,4.21,0,0,0-.13-1.08,2.84,2.84,0,0,1-.15-1.6,3.26,3.26,0,0,0-.12-1.1c0-.13-.07-.25-.1-.38a6.45,6.45,0,0,1-.15-.86c0-.62,0-1.24-.07-1.86,0,0,0,0,0,0-.44-.22-.18-.56-.18-.87,0-.48.16-1.12-.08-1.41-.39-.46-.19-.81-.08-1.21l-.44-.33.2,0c0-.52.15-1.3-.13-1.51-.54-.43,0-.92-.31-1.31-.14-.17-.08-.51-.1-.77l-.2,0,.3-.35c-.18-.44-.37-.88-.54-1.32,0-.06,0-.15.06-.23a1.85,1.85,0,0,0,.06-.56c-.09-.37-.26-.73-.35-1.11a8.26,8.26,0,0,1-.12-1,2.34,2.34,0,0,0,0-.37c0-.2-.11-.4-.17-.6a4.19,4.19,0,0,1-.14-.47c-.06-.35-.1-.71-.16-1.06,0-.17-.08-.34-.1-.52s0-.29,0-.44c0-.38-.43-.66-.21-1.12.08-.16-.08-.46-.17-.68a7.55,7.55,0,0,1-.39-.81c-.21-.72-.39-1.46-.56-2.2-.13-.58-.22-1.17-.35-1.91,0,0-.23-.18-.2-.25.18-.4-.14-.54-.3-.78a3,3,0,0,1-.23-.48c-.15-.39-.29-.78-.45-1.17a7.75,7.75,0,0,0-.8-1.5c-.44-.64-.74-1.38-1.16-2s-.81-1.21-1.25-1.79a8.27,8.27,0,0,0-1.1-1.33,10.14,10.14,0,0,0-1.58-1.06c-1.47-.89-2.94-1.76-4.78-1.54-1,.13-2,.11-3.07.23a6.92,6.92,0,0,0-1.54.43c-1.21.42-2.42.84-3.6,1.33A17.26,17.26,0,0,0,69,56.4c-1.4.85-2.79,1.7-4.13,2.63a49.82,49.82,0,0,0-4.12,3.1c-2.05,1.74-4.2,3.36-6.15,5.23-.9.86-1.9,1.61-2.84,2.42-.68.58-1.34,1.19-2,1.77-1.55,1.37-3.1,2.74-4.67,4.09-.85.73-1.73,1.45-2.63,2.13-.47.36-.55.64-.22,1.09.81,1.07,1.54,2.21,2.41,3.23s1.64,1.68,3,1.37a.89.89,0,0,1,.6.07c.72.38,1.25-.26,1.89-.23.24,0,.62.06.7-.06.28-.39.58-.33.95-.22a.66.66,0,0,0,.35-.08q.65-.25,1.29-.54a2.3,2.3,0,0,1,.48-.22c.56-.11,1.13-.17,1.68-.28a3,3,0,0,0,.65-.26l.06.12.3-.41a2.53,2.53,0,0,0,2.36,0,4,4,0,0,0,1,.53,3.43,3.43,0,0,1,2.25,1.54c.74,1.16,1.39,2.38,2,3.61.42.83.72,1.73,1.12,2.58s.28,1.5.65,2.24.5,2,.89,2.9a17.1,17.1,0,0,1,.55,1.89c.18.64.33,1.28.56,1.9.29.82.63,1.62,1,2.43a.13.13,0,0,1,0,.06c.24.89.48,1.77.74,2.65.07.25.25.46.3.7.18.81.3,1.63.48,2.43a8,8,0,0,0,.33,1.05,6.92,6.92,0,0,1,.67,2.08,13.42,13.42,0,0,0,.34,1.72,17.71,17.71,0,0,0,.73,2.6c.19.64.38,1.28.53,1.94s.17,1.27.31,1.9c.22.89.51,1.77.74,2.66.11.44.13.9.25,1.34.21.79.46,1.57.68,2.36.39,1.36.76,2.72,1.14,4.08.2.76.39,1.53.6,2.29s.45,1.54.68,2.3c.18.58.35,1.18.58,1.74.37.91.8,1.79,1.18,2.69.27.65.45,1.34.76,2,.76,1.5,1.54,3,2.38,4.45a18.26,18.26,0,0,0,1.9,2.84,14.53,14.53,0,0,0,3.18,3,10.36,10.36,0,0,0,3.5,1.82c.1,0,.18.15.27.22s.28.25.34.22c.51-.27,1,.17,1.44.09C93.2,152.12,93.41,152.26,93.59,152.32Z"/><g id="Shadow"><path id="_04" data-name="04" class="cls-4" d="M70.81,107.87a8,8,0,0,1-.33-1.05c-.18-.8-.3-1.62-.48-2.43,0-.24-.23-.45-.3-.7-.26-.88-.5-1.76-.74-2.65a.13.13,0,0,0,0-.06c-.32-.81-.66-1.61-1-2.43-.23-.62-.38-1.26-.56-1.9a17.1,17.1,0,0,0-.55-1.89c-.39-1-.45-2-.89-2.9s-.32-1.53-.65-2.24-.7-1.75-1.12-2.58c-.63-1.23-1.28-2.45-2-3.61A3.43,3.43,0,0,0,60,81.89a1.39,1.39,0,0,1-.5-.22c-.16-.1-.32-.22-.49-.31a2.29,2.29,0,0,1-1.2.29,2.1,2.1,0,0,1-1.16-.3l-.3.41-.06-.12a3,3,0,0,1-.65.26c-.55.11-1.12.17-1.68.28a2.3,2.3,0,0,0-.48.22q-.64.28-1.29.54a.66.66,0,0,1-.35.08c-.37-.11-.67-.17-.95.22-.08.11-.46,0-.7.06-.64,0-1.17.61-1.89.23a.89.89,0,0,0-.6-.07,2.35,2.35,0,0,1-1.87-.33h0L71,108.33C70.93,108.18,70.86,108,70.81,107.87Z"/><path id="_03" data-name="03" class="cls-4" d="M97.6,102.87l.48,1.32a.44.44,0,0,1,.06.16,4.28,4.28,0,0,0,.66,2.19c.32.68.45,1.47.82,2.12a41.3,41.3,0,0,0,2.21,3.6,12.07,12.07,0,0,0,3.56,3.09,3.51,3.51,0,0,0,2.5.57,16.58,16.58,0,0,1,2,0,3.78,3.78,0,0,0,1.21-.56,13.68,13.68,0,0,0,3.63-3.15,14.82,14.82,0,0,0,1.18-1.67c.76-1.19,1.49-2.4,2.22-3.6.47-.78,1-1.56,1.39-2.37.34-.63.56-1.32.88-2,.45-.89,1-1.75,1.41-2.63.24-.46.43-.94.64-1.41s.56-1.2.79-1.82c.14-.39.15-.82.27-1.22s.3-.64.41-1c0,0-.24.58-.23.54l-36-36.9c.17.24.34.49.49.74.42.67.72,1.41,1.16,2a7.75,7.75,0,0,1,.8,1.5c.16.39.3.78.45,1.17a3,3,0,0,0,.23.48c.16.24.48.38.3.78,0,.07.21.26.2.25.13.74.22,1.33.35,1.91.17.74.35,1.48.56,2.2a7.55,7.55,0,0,0,.39.81c.09.22.25.52.17.68-.22.46.21.74.21,1.12,0,.15,0,.3,0,.44s.08.35.1.52c.06.35.1.71.16,1.06a4.19,4.19,0,0,0,.14.47c.06.2.13.4.17.6a2.34,2.34,0,0,1,0,.37,8.26,8.26,0,0,0,.12,1c.09.38.26.74.35,1.11a1.85,1.85,0,0,1-.06.56c0,.08-.08.17,0,.23.16.44.35.88.53,1.32l-.3.35.2,0c0,.26,0,.6.1.77.32.39-.23.88.31,1.31.28.21.1,1,.13,1.51l-.2,0,.44.33c-.11.4-.31.75.08,1.21.24.29.09.93.08,1.41,0,.31-.26.65.18.87,0,0,0,0,0,0,0,.62,0,1.24.07,1.86a6.45,6.45,0,0,0,.15.86c0,.13.08.25.1.38a3.26,3.26,0,0,1,.12,1.1,2.84,2.84,0,0,0,.15,1.6,4.21,4.21,0,0,1,.13,1.08c0,.43.15.83.13,1.15a4.38,4.38,0,0,0,.2,1.27,4.57,4.57,0,0,1,0,1,2.44,2.44,0,0,0,.13.44c.09.37.3.78.2,1.11s-.14.57.24.68c-.08.5-.22.94.22,1.36.17.16,0,.63.06.95A2,2,0,0,0,97.6,102.87Z"/><path id="_02" data-name="02" class="cls-4" d="M124.77,92a3.2,3.2,0,0,0,.07-.7c.06-1.76.12-3.52.17-5.27a18.7,18.7,0,0,0,0-2.48,6.19,6.19,0,0,0-.51-1.52,12.63,12.63,0,0,0-.72-1.79A4.93,4.93,0,0,0,121.49,78c-.83-.37-1.67-.7-2.52-1-.19-.07-.43,0-.64,0a26.15,26.15,0,0,0-6.25-.13,2.61,2.61,0,0,1-.84,0L124.77,92Z"/><path id="_01" data-name="01" class="cls-4" d="M202.47,99.88,157.58,55a7.69,7.69,0,0,1,1.81,3.16c0,.15.17.28.23.43a10.23,10.23,0,0,1,.63,1.81,17.3,17.3,0,0,1,.18,2.6c0,1,0,2,0,2.94a16.35,16.35,0,0,1-.23,2.62c-.15.79-.52,1.53-.74,2.3-.15.54-.16,1.12-.31,1.66-.25.88-.57,1.74-.85,2.61s-.45,1.5-.71,2.23c-.36,1-.75,2-1.12,3L155.81,82c-.22.55-.43,1.11-.66,1.66-.81,1.86-1.61,3.73-2.43,5.58s-1.69,3.71-2.52,5.58c-.23.51-.38,1.06-.63,1.57s-.51.78-.72,1.19c-.37.73-.67,1.49-1,2.22-.62,1.19-1.28,2.36-1.92,3.53s-1.4,2.61-2.14,3.88c-.93,1.59-1.91,3.15-2.86,4.72-.6,1-1.15,2-1.78,3s-1.45,2.17-2.2,3.25c-.46.67-1,1.28-1.43,2a39.66,39.66,0,0,1-3.39,4.64c-1,1.36-2.12,2.68-3.2,4-.82,1-1.65,2-2.5,3-.72.8-1.42,1.62-2.21,2.36-1,1-2,2-2.93,3.08-.19.2-.47.32-.67.52s-.58.73-.92,1c-.75.68-1.53,1.33-2.31,2-.22.19-.45.35-.68.53-1.72,1.36-3.42,2.75-5.17,4.07-.9.68-1.89,1.24-2.84,1.85s-2.14,1.41-3.25,2.06a15.51,15.51,0,0,1-2.23,1c-.63.24-1.31.35-2,.56-.37.13-.7.42-1.08.54s-.92.13-1.38.24c-.26.06-.49.27-.75.31-.65.1-1.32.1-2,.21a9.84,9.84,0,0,1-1.88,0,1.92,1.92,0,0,0-.57.15c-.18-.06-.4-.2-.58-.17-.49.08-.93-.36-1.44-.09-.06,0-.23-.14-.34-.22s-.17-.2-.27-.22a10.36,10.36,0,0,1-3.5-1.82c-.12-.07-.23-.17-.35-.25l47.35,47.36a101.27,101.27,0,0,0,68-95.66C202.49,100.79,202.49,100.33,202.47,99.88Z"/></g></g></g></g></g></svg>