<svg xmlns="http://www.w3.org/2000/svg" viewBox="0 0 202.43 202.43"><defs><style>.cls-1{isolation:isolate;}.cls-2{fill:#2ab34b;}.cls-3{fill:#fff;}.cls-4{fill:#231f20;opacity:0.3;mix-blend-mode:multiply;}</style></defs><title>Asset 34</title><g class="cls-1"><g id="Layer_2" data-name="Layer 2"><g id="Social_Media_Icons" data-name="Social Media Icons"><g id="Whatsapp"><path id="Base" class="cls-2" d="M202.43,101.21A101.22,101.22,0,1,1,101.21,0,100.4,100.4,0,0,1,202.43,101.21Z"/><path id="Logo" class="cls-3" d="M162.46,89.09a60.34,60.34,0,0,0-3.27-11,59,59,0,0,0-6.95-12.66,74.86,74.86,0,0,0-5.68-7,65.64,65.64,0,0,0-6.81-6.21,72.09,72.09,0,0,0-6.95-4.74,54.46,54.46,0,0,0-10.25-4.89,51,51,0,0,0-8.89-2.46A79.76,79.76,0,0,0,105.27,39a55.32,55.32,0,0,0-11.43.34c-2.53.4-5.06.78-7.56,1.34a54.49,54.49,0,0,0-9.85,3.36,61.57,61.57,0,0,0-16.82,10.8,63.16,63.16,0,0,0-10,11.41,60.09,60.09,0,0,0-5.57,10.13,58,58,0,0,0-4.33,14.88A65.44,65.44,0,0,0,39,98.38a52,52,0,0,0,.58,11.69c.53,2.76,1,5.55,1.72,8.27a56.79,56.79,0,0,0,8.57,18.09,2.84,2.84,0,0,1,.46,2.92c-1.57,4.39-3,8.82-4.5,13.24-.92,2.73-1.82,5.46-2.76,8.26a2.7,2.7,0,0,0,.47,0l4.24-1.36,11.62-3.71c2.37-.76,4.74-1.53,7.13-2.25a1.33,1.33,0,0,1,1,.16,63.71,63.71,0,0,0,9.7,5.12,50.16,50.16,0,0,0,9.4,3.07,82.2,82.2,0,0,0,8.53,1.48c2.65.28,5.35.21,8,.24a51.37,51.37,0,0,0,10.12-1.07,60.59,60.59,0,0,0,10.38-3,62.27,62.27,0,0,0,9.16-4.42,63.5,63.5,0,0,0,9.89-7.18,64.41,64.41,0,0,0,8.75-9.55,62.89,62.89,0,0,0,7.26-12.63,56,56,0,0,0,3.48-10.92,59.37,59.37,0,0,0,1.16-6.85c.25-3.13.24-6.27.25-9.41A47,47,0,0,0,162.46,89.09Zm-23.52,31.13c-.2,1.74-.49,3.46-.85,5.17-.76,3.66-3.26,6-6.3,7.78-3.56,2.11-7.39,3.41-11.57,2.94a41.19,41.19,0,0,1-7.1-1.52,69.18,69.18,0,0,1-16-6.71,80.61,80.61,0,0,1-7-4.89,66.08,66.08,0,0,1-9.25-8.6,83,83,0,0,1-7.92-10c-1.5-2.26-3-4.52-4.37-6.88a28.1,28.1,0,0,1-3.23-9c-.24-1.28-.27-2.61-.4-3.92a20.1,20.1,0,0,1,6.44-15,8.58,8.58,0,0,1,5.5-2.2c1-.09,2,0,3,0A3.65,3.65,0,0,1,83.58,70c.91,2.16,1.78,4.33,2.68,6.49,1.12,2.69,2.22,5.38,3.4,8.05a3.79,3.79,0,0,1-.72,4.21c-1.28,1.56-2.63,3-4,4.57A3.08,3.08,0,0,0,83.86,96a3.63,3.63,0,0,0,.47,1.34c1.76,2.54,3.5,5.1,5.37,7.55a44.26,44.26,0,0,0,10.34,9.3,39.36,39.36,0,0,0,9,4.62,3.82,3.82,0,0,0,4.74-1.19c1.47-1.94,3-3.87,4.36-5.85s3-2.18,4.87-1.34c4.4,2,8.74,4.16,13.11,6.25a7.58,7.58,0,0,0,1,.46A2.67,2.67,0,0,1,138.94,120.22Z"/><g id="Shadow"><path class="cls-4" d="M68.57,97.51c1.34,2.36,2.87,4.62,4.37,6.88a83,83,0,0,0,7.92,10,66.08,66.08,0,0,0,9.25,8.6,80.61,80.61,0,0,0,7,4.89,69.18,69.18,0,0,0,16,6.71,41.19,41.19,0,0,0,7.1,1.52c4.18.47,8-.83,11.57-2.94,3-1.8,5.54-4.12,6.3-7.78.36-1.71.65-3.43.85-5.17a2.67,2.67,0,0,0-1.83-3.11,7.58,7.58,0,0,1-1-.46c-4.37-2.09-8.71-4.24-13.11-6.25-1.85-.84-3.4-.7-4.87,1.34s-2.89,3.91-4.36,5.85a3.82,3.82,0,0,1-4.74,1.19,39.36,39.36,0,0,1-9-4.62,44.26,44.26,0,0,1-10.34-9.3c-1.87-2.45-3.61-5-5.37-7.55A3.63,3.63,0,0,1,83.86,96,3.08,3.08,0,0,1,85,93.29c1.33-1.53,2.68-3,4-4.57a3.79,3.79,0,0,0,.72-4.21c-1.18-2.67-2.28-5.36-3.4-8.05-.9-2.16-1.77-4.33-2.68-6.49a3.65,3.65,0,0,0-3.74-2.54c-1,0-2-.1-3,0a8.58,8.58,0,0,0-5.5,2.2,20.1,20.1,0,0,0-6.44,15c.13,1.31.16,2.64.4,3.92A28.1,28.1,0,0,0,68.57,97.51Z"/><path class="cls-4" d="M152.25,65.45a58.93,58.93,0,0,1,6.94,12.65,60.34,60.34,0,0,1,3.27,11,47,47,0,0,1,1.08,9.45c0,3.14,0,6.28-.25,9.41a59.37,59.37,0,0,1-1.16,6.85,56,56,0,0,1-3.48,10.92,62.89,62.89,0,0,1-7.26,12.63,64.41,64.41,0,0,1-8.75,9.55,63.5,63.5,0,0,1-9.89,7.18,62.27,62.27,0,0,1-9.16,4.42,60.59,60.59,0,0,1-10.38,3,51.37,51.37,0,0,1-10.12,1.07c-2.67,0-5.37,0-8-.24a82.2,82.2,0,0,1-8.53-1.48,50.16,50.16,0,0,1-9.4-3.07,63.71,63.71,0,0,1-9.7-5.12,1.33,1.33,0,0,0-1-.16c-2.39.72-4.76,1.49-7.13,2.25l-11.62,3.71L43.5,160.8a.25.25,0,0,1-.12,0l-.09.19,39.8,39.8a101.31,101.31,0,0,0,118.44-86.09Z"/></g></g></g></g></g></svg>