<svg xmlns="http://www.w3.org/2000/svg" viewBox="0 0 202.49 202.49"><defs><style>.cls-1{isolation:isolate;}.cls-2{fill:#2b2b2b;}.cls-3{fill:#fff;}.cls-4{fill:#231f20;opacity:0.3;mix-blend-mode:multiply;}</style></defs><title>Asset 44</title><g class="cls-1"><g id="Layer_2" data-name="Layer 2"><g id="Social_Media_Icons" data-name="Social Media Icons"><g id="Apple"><path id="Base" class="cls-2" d="M202.49,101.25A101.25,101.25,0,1,1,101.24,0,101,101,0,0,1,202.49,101.25Z"/><path id="Logo" class="cls-3" d="M144.81,78.13c-.89-1-1.83-2.28-2.91-3.37a26.19,26.19,0,0,0-14.78-7.36,24.34,24.34,0,0,0-12,.73c-2.59.89-5.18,1.78-7.73,2.78-3,1.17-5.89,2-9,.63C97,71,95.63,70.51,94.27,70c-3.19-1.23-6.39-2.48-9.84-2.6a26.47,26.47,0,0,0-19.51,7.46c-5.13,4.74-8,10.76-9.33,17.51a52.2,52.2,0,0,0,.17,19.89,70,70,0,0,0,8,22.14c3.36,5.92,7.14,11.56,12.37,16.05,3.54,3,7.57,4.27,12.13,2.88,2.47-.75,4.86-1.75,7.28-2.64a21.91,21.91,0,0,1,15.8,0c1.33.51,2.63,1.11,4,1.63,4.56,1.78,9.09,2.21,13.55-.35a21.35,21.35,0,0,0,5.7-4.93A69,69,0,0,0,143.35,134c1.64-3.21,2.89-6.62,4.33-9.94.24-.56,0-.77-.46-1a57.6,57.6,0,0,1-5.22-3.32,23.11,23.11,0,0,1-8.14-11.53,25.32,25.32,0,0,1-.41-14.68,23.15,23.15,0,0,1,5.69-10.16C140.89,81.55,142.83,79.94,144.81,78.13ZM124,39.41c-14.09,1-24.36,15-22.73,26.22C114.25,66.59,125.64,52,124,39.41Z"/><path id="Shadow" class="cls-4" d="M124,39.41h0c1.62,12.56-9.76,27.18-22.73,26.22,0,0,0-.09,0-.14l-.16.18,5.52,5.52.75-.28c2.55-1,5.14-1.89,7.73-2.78a24.34,24.34,0,0,1,12-.73,26.19,26.19,0,0,1,14.78,7.36c1.08,1.09,2,2.33,2.91,3.37-2,1.81-3.92,3.42-5.67,5.22a23.15,23.15,0,0,0-5.69,10.16,25.32,25.32,0,0,0,.41,14.68A23.11,23.11,0,0,0,142,119.72a57.6,57.6,0,0,0,5.22,3.32c.47.28.7.49.46,1-1.44,3.32-2.69,6.73-4.33,9.94A69,69,0,0,1,134.51,147a21.35,21.35,0,0,1-5.7,4.93c-4.46,2.56-9,2.13-13.55.35-1.34-.52-2.64-1.12-4-1.63a21.91,21.91,0,0,0-15.8,0c-2.42.89-4.81,1.89-7.28,2.64-4.5,1.38-8.48.18-12-2.77l49.07,49.07a101.32,101.32,0,0,0,76-82.9Z"/></g></g></g></g></svg>