<svg xmlns="http://www.w3.org/2000/svg" viewBox="0 0 202.49 202.49"><defs><style>.cls-1{isolation:isolate;}.cls-2{fill:#faa535;}.cls-3{fill:#fff;}.cls-4{fill:#231f20;opacity:0.3;mix-blend-mode:multiply;}</style></defs><title>Asset 23</title><g class="cls-1"><g id="Layer_2" data-name="Layer 2"><g id="Social_Media_Icons" data-name="Social Media Icons"><g id="Swarm"><path id="Base" class="cls-2" d="M202.49,101.25A101.11,101.11,0,0,1,127.8,199a101.25,101.25,0,1,1,74.69-97.71Z"/><path id="Logo" class="cls-3" d="M102.07,85.78a.71.71,0,0,0,0-.19c-.26-.66-.5-1.32-.79-2a57.17,57.17,0,0,0-8.21-13.34,42.65,42.65,0,0,0-12-10.06A33.61,33.61,0,0,0,67.76,56a26,26,0,0,0-9.93.87A17,17,0,0,0,50,61.58,11.77,11.77,0,0,0,46.61,70a18.39,18.39,0,0,0,1.67,7.15A25.22,25.22,0,0,0,57.68,88a30.54,30.54,0,0,0,15.14,4.86,46.79,46.79,0,0,0,14.8-1.57,75.78,75.78,0,0,0,14-5.25C101.75,86,101.92,85.87,102.07,85.78Zm38.59,61.46c-.37-.15-.61-.27-.87-.35a15.09,15.09,0,0,1-4.88-2.63,47.4,47.4,0,0,1-8.28-8.76,62.46,62.46,0,0,1-8.51-16.41,66.64,66.64,0,0,1-2.26-8.07c-.27-1.26-.48-2.55-.65-3.83-.15-1.11-.24-2.24-.32-3.36-.11-1.53-.25-3.06-.24-4.59s.15-3.16.24-4.74a16.86,16.86,0,0,1,1.39-5.66c.17-.4.33-.81.51-1.26a1,1,0,0,0-.29,0c-1.35.45-2.73.85-4,1.39a33,33,0,0,0-6.76,4,20,20,0,0,0-3.77,3.35,30.58,30.58,0,0,0-3.41,5.24,23.46,23.46,0,0,0-2.8,10.81,47.14,47.14,0,0,0,.31,6.17c.17,1.31.26,2.64.51,3.93a48.58,48.58,0,0,0,2,7.59,44.4,44.4,0,0,0,4.86,9.84,53.25,53.25,0,0,0,3.68,4.88,42.93,42.93,0,0,0,4.23,4.3,18.11,18.11,0,0,0,8.12,3.77c1.07.24,2.18.29,3.25.5a11.56,11.56,0,0,0,4.27-.08,35.68,35.68,0,0,0,13-5.44A7.2,7.2,0,0,0,140.66,147.24ZM124.79,99.6c.12,1.7.16,3.77.44,5.81a57.46,57.46,0,0,0,1.23,6.22,54,54,0,0,0,5.9,14.21,43.65,43.65,0,0,0,8.11,10,8,8,0,0,0,12-.82,8.78,8.78,0,0,0,1.33-2.69,35.59,35.59,0,0,0,2-9.88,37.06,37.06,0,0,0-.47-8.86,38.19,38.19,0,0,0-2.09-7.34A33.52,33.52,0,0,0,142.55,92a27.86,27.86,0,0,0-7.21-4.06,6.34,6.34,0,0,0-4-.17A8.69,8.69,0,0,0,127,90.62a8.48,8.48,0,0,0-2,4.4C124.86,96.41,124.88,97.83,124.79,99.6Zm-15.3-18.72a5.3,5.3,0,0,0,.63-.26c1.15-.61,2.32-1.2,3.45-1.87A34.17,34.17,0,0,0,122.78,71,22.06,22.06,0,0,0,128,58.73a14.29,14.29,0,0,0-1.28-7.57c-1.35-2.75-3.14-3.92-6.34-3.8a10.22,10.22,0,0,0-4.84,1.56,17.66,17.66,0,0,0-7.33,8.94,25.71,25.71,0,0,0-1.57,11.71,35.67,35.67,0,0,0,2,9.11C108.9,79.41,109.2,80.12,109.49,80.88ZM102,155.14l.07-.16c-.31-.36-.6-.73-.92-1.08a48.93,48.93,0,0,1-4.09-5.22,57,57,0,0,1-5.18-9.28,55.75,55.75,0,0,1-3.53-10.66c-.35-1.56-.63-3.13-.9-4.7-.15-.86-.25-1.73-.34-2.6-.12-1-.21-2.1-.29-3.14,0-.48,0-1,0-1.44a3.12,3.12,0,0,0-.13-.59A9.82,9.82,0,0,0,85.54,118a159.22,159.22,0,0,0-11,24.6,4.13,4.13,0,0,0-.18,2.43,3.74,3.74,0,0,0,2.43,2.59,139.07,139.07,0,0,0,14.45,5.09c3.14.91,6.32,1.63,9.52,2.3C101.18,155.05,101.6,155.08,102,155.14Z"/><path id="Shadow" class="cls-4" d="M125.67,49.44a8.57,8.57,0,0,1,1.07,1.72A14.29,14.29,0,0,1,128,58.73,22.06,22.06,0,0,1,122.78,71a34.17,34.17,0,0,1-9.21,7.72c-1.13.67-2.3,1.26-3.45,1.87a5.3,5.3,0,0,1-.63.26c0-.12-.09-.23-.14-.35l-.45.94,6.47,6.47,1.13-.37a1,1,0,0,1,.29,0c-.18.45-.34.86-.51,1.26h0l.73.73-1.52,1.52a14.86,14.86,0,0,0-.6,3.4c-.09,1.58-.24,3.16-.24,4.74s.13,3.06.24,4.59c.08,1.12.17,2.25.32,3.36.17,1.28.38,2.57.65,3.83a66.64,66.64,0,0,0,2.26,8.07,62.46,62.46,0,0,0,8.51,16.41,47.4,47.4,0,0,0,8.28,8.76,15.09,15.09,0,0,0,4.88,2.63c.26.08.5.2.87.35a7.2,7.2,0,0,1-.63.54,35.68,35.68,0,0,1-13,5.44,11.77,11.77,0,0,1-4.27.09c-1.07-.22-2.18-.27-3.25-.51a18.11,18.11,0,0,1-8.12-3.77,42.93,42.93,0,0,1-4.23-4.3,53.25,53.25,0,0,1-3.68-4.88A44.4,44.4,0,0,1,98.58,130a48.58,48.58,0,0,1-2-7.59c-.25-1.29-.34-2.62-.51-3.93a47.14,47.14,0,0,1-.31-6.17,23.46,23.46,0,0,1,2.8-10.81,30.58,30.58,0,0,1,3.41-5.24,20,20,0,0,1,3.77-3.35c.53-.39,1.06-.77,1.6-1.13l-5.72-5.72h0a75.78,75.78,0,0,1-14,5.25,46.79,46.79,0,0,1-14.8,1.57A30.54,30.54,0,0,1,57.68,88,28.13,28.13,0,0,1,55,86l31.05,31.05a8.43,8.43,0,0,1,.6-.81,3.12,3.12,0,0,1,.13.59c0,.48,0,1,0,1.44.08,1,.17,2.09.29,3.14.09.87.19,1.74.34,2.6.27,1.57.55,3.14.9,4.7A55.75,55.75,0,0,0,91.9,139.4a57,57,0,0,0,5.18,9.28,48.93,48.93,0,0,0,4.09,5.22c.32.35.61.72.92,1.08l-.07.16c-.42-.06-.84-.09-1.24-.18-3.2-.67-6.38-1.39-9.52-2.3a139.07,139.07,0,0,1-14.45-5.09,4.85,4.85,0,0,1-.82-.42L127.8,199A101.38,101.38,0,0,0,200,123.75Zm30.13,73a35.59,35.59,0,0,1-2,9.88,8.78,8.78,0,0,1-1.33,2.69,8,8,0,0,1-12,.82,43.65,43.65,0,0,1-8.11-10,54,54,0,0,1-5.9-14.21,57.46,57.46,0,0,1-1.23-6.22c-.28-2-.32-4.11-.44-5.81.09-1.77.07-3.19.26-4.58a8.48,8.48,0,0,1,2-4.4,8.69,8.69,0,0,1,4.33-2.88,6.34,6.34,0,0,1,4,.17A27.86,27.86,0,0,1,142.55,92a33.52,33.52,0,0,1,10.69,14.28,38.19,38.19,0,0,1,2.09,7.34A37.06,37.06,0,0,1,155.8,122.45Z"/></g></g></g></g></svg>