<svg xmlns="http://www.w3.org/2000/svg" viewBox="0 0 202.47 202.47"><defs><style>.cls-1{isolation:isolate;}.cls-2{fill:#233d7b;}.cls-3{fill:#fff;}.cls-4{fill:#169ed9;}.cls-5{fill:#231f20;opacity:0.3;mix-blend-mode:multiply;}</style></defs><title>Asset 42</title><g class="cls-1"><g id="Layer_2" data-name="Layer 2"><g id="Social_Media_Icons" data-name="Social Media Icons"><g id="Booking"><path id="Base" class="cls-2" d="M202.47,101.24a101.13,101.13,0,0,1-97.06,101.14q-2.07.09-4.17.09A101.24,101.24,0,1,1,202.47,101.24Z"/><g id="Logo"><path id="_02" data-name="02" class="cls-3" d="M120.15,114.87a22.32,22.32,0,0,0-9.59-14.5c-1.34-.9-2.76-1.65-4.24-2.51.48-.42.91-.77,1.31-1.16A50.88,50.88,0,0,0,112,92.33c4.44-5.65,5.7-12.17,4.76-19.17-1.08-8.1-5.45-13.95-12.6-17.76A36.47,36.47,0,0,0,87,51.45c-7.93-.08-15.86,0-23.8,0a11.33,11.33,0,0,0-2.46.29,10.41,10.41,0,0,0-8.08,10.51v87.54h1.24c10.86,0,21.71,0,32.56,0a46.32,46.32,0,0,0,14.47-2.06c6.27-2,11.64-5.39,15.36-11C120.73,130.07,121.81,122.67,120.15,114.87ZM71.59,81.71h.09c0-2.62-.06-5.25,0-7.86.13-4.64,2.64-6.14,6.56-6.23,3.25-.07,6.51-.1,9.74.15,5.1.4,8.74,3.48,9.6,8.93A13.53,13.53,0,0,1,95.43,87a8.93,8.93,0,0,1-7.09,4c-5.34.19-10.68.15-16,.23-.67,0-.74-.3-.73-.85C71.61,87.48,71.59,84.59,71.59,81.71Zm28.66,44.08c-1.62,4-4.73,6.23-8.91,7a14.54,14.54,0,0,1-2.47.22c-5.69,0-11.4,0-17.17,0a3,3,0,0,1-.08-.39c0-6.93,0-13.86.12-20.8a5.25,5.25,0,0,1,5.56-5.35c4,0,8,0,12,0,6.55.14,11.27,4.62,12,11.15A16.6,16.6,0,0,1,100.25,125.79Z"/><path id="_01" data-name="01" class="cls-4" d="M142.3,127.21c6.59-.15,12.13,5.63,11.89,12.45a12.06,12.06,0,0,1-12.06,11.4A11.89,11.89,0,0,1,130.39,139C130.43,132.47,136,127,142.3,127.21Z"/></g><g id="Shadow"><path id="_03" data-name="03" class="cls-5" d="M71.59,90.37c0,.55.06.86.73.85,5.34-.08,10.68,0,16-.23a8.93,8.93,0,0,0,7.09-4A13.53,13.53,0,0,0,97.59,76.7c-.86-5.45-4.5-8.53-9.6-8.93-3.23-.25-6.49-.22-9.74-.15-3.92.09-6.43,1.59-6.56,6.23-.07,2.61,0,5.24,0,7.86h-.09C71.59,84.59,71.61,87.48,71.59,90.37Z"/><path id="_02-2" data-name="02" class="cls-5" d="M88.87,133.05a14.54,14.54,0,0,0,2.47-.22c4.18-.81,7.29-3,8.91-7a16.6,16.6,0,0,0,1-8.07c-.7-6.53-5.42-11-12-11.15-4-.09-8-.07-12,0a5.25,5.25,0,0,0-5.56,5.35c-.12,6.94-.09,13.87-.12,20.8a3,3,0,0,0,.08.39C77.47,133.06,83.18,133.07,88.87,133.05Z"/><path id="_01-2" data-name="01" class="cls-5" d="M111.12,60.75a22.34,22.34,0,0,1,5.59,12.41c.94,7-.32,13.52-4.76,19.17a50.88,50.88,0,0,1-4.32,4.37c-.4.39-.83.74-1.31,1.16,1.48.86,2.9,1.61,4.24,2.51a22.32,22.32,0,0,1,9.59,14.5c1.66,7.8.58,15.2-3.89,21.91-3.72,5.57-9.09,8.94-15.36,11a46.32,46.32,0,0,1-14.47,2.06c-10.85,0-21.7,0-32.56,0H52.81l52.6,52.6a101.25,101.25,0,0,0,88-59.3Zm33,90.17a10.87,10.87,0,0,1-2,.14,11.28,11.28,0,0,1-2.12-.24,11.82,11.82,0,0,1-9.12-8.28,12.3,12.3,0,0,1-.5-3.56,12,12,0,0,1,8.47-11.32,10.71,10.71,0,0,1,3.44-.45,11.09,11.09,0,0,1,2.95.35,12.1,12.1,0,0,1,8.94,12.1,11.55,11.55,0,0,1-2.25,6.39A12.1,12.1,0,0,1,144.11,150.92Z"/></g></g></g></g></g></svg>