<svg xmlns="http://www.w3.org/2000/svg" viewBox="0 0 202.49 202.49"><defs><style>.cls-1{isolation:isolate;}.cls-2{fill:#f57e20;}.cls-3{fill:#fff;}.cls-4{fill:#231f20;opacity:0.3;mix-blend-mode:multiply;}</style></defs><title>Asset 29</title><g class="cls-1"><g id="Layer_2" data-name="Layer 2"><g id="Social_Media_Icons" data-name="Social Media Icons"><g id="Blogger"><path id="Base" class="cls-2" d="M202.49,101.25A101.25,101.25,0,1,1,101.25,0,101,101,0,0,1,202.49,101.25Z"/><path id="Logo" class="cls-3" d="M151.69,89.63a6.14,6.14,0,0,0-3.46-.84l-8.86-.64a4.31,4.31,0,0,1-4.15-3.58c-.6-2.56-.95-5.17-1.42-7.76a44.91,44.91,0,0,0-1.06-5.55,27.71,27.71,0,0,0-7.43-12,40.82,40.82,0,0,0-14-8.77,25.72,25.72,0,0,0-9.61-1.81c-5.83.14-11.67,0-17.51,0a35.33,35.33,0,0,0-9.89.85,50.89,50.89,0,0,0-6.74,2A33.64,33.64,0,0,0,54.26,61.76a31.49,31.49,0,0,0-7,19.5c-.09,13.32,0,26.64,0,40a28.53,28.53,0,0,0,2.58,12.17c5.84,12.45,15.69,19.36,29.4,20.22,7.06.44,14.17.08,21.26.08v.06c5.92,0,11.83,0,17.73,0A36.67,36.67,0,0,0,132,151.63a33.89,33.89,0,0,0,14.6-10.54A33.3,33.3,0,0,0,153.94,120c0-3.22,0-6.45,0-9.67,0-5.29.09-10.6.14-15.89A5.59,5.59,0,0,0,151.69,89.63ZM76.32,78.38a6.3,6.3,0,0,1,5.11-2.51c6.37,0,12.74,0,19.12,0a6.56,6.56,0,0,1,6.26,5.47,6.31,6.31,0,0,1-4.35,6.81,7.69,7.69,0,0,1-2.29.39c-3.14,0-6.3,0-9.45,0H81.38a6.11,6.11,0,0,1-5.65-3.43A5.84,5.84,0,0,1,76.32,78.38ZM122,126.09a8.56,8.56,0,0,1-2.71.45c-6.23,0-12.46,0-18.69,0s-12.6,0-18.9,0a7.06,7.06,0,0,1-6.6-5,6.28,6.28,0,0,1,3.77-7.17,8.75,8.75,0,0,1,3.34-.6q18.42-.06,36.84,0c3.48,0,5.74,1.37,6.8,4.48A6.25,6.25,0,0,1,122,126.09Z"/><g id="Shadow"><path id="_03" data-name="03" class="cls-4" d="M81.38,88.56h9.34c3.15,0,6.3,0,9.45,0a7.69,7.69,0,0,0,2.29-.39,6.31,6.31,0,0,0,4.35-6.81,6.56,6.56,0,0,0-6.26-5.47c-6.38,0-12.75,0-19.12,0a6.3,6.3,0,0,0-5.11,2.51,5.84,5.84,0,0,0-.59,6.75A6.11,6.11,0,0,0,81.38,88.56Z"/><path id="_02" data-name="02" class="cls-4" d="M197.72,132a101.32,101.32,0,0,1-83.23,69.6L55.28,142.42l.17-.17c5.83,6.87,13.77,10.74,23.77,11.36,7.06.44,14.17.08,21.26.08v.06c5.92,0,11.83,0,17.73,0A36.67,36.67,0,0,0,132,151.63a33.89,33.89,0,0,0,14.6-10.54A33.3,33.3,0,0,0,153.94,120c0-3.22,0-6.45,0-9.67,0-5.29.09-10.6.14-15.89a5.59,5.59,0,0,0-2.42-4.77,6.14,6.14,0,0,0-3.46-.84l-8.86-.64a4.31,4.31,0,0,1-4.15-3.58c-.6-2.56-.95-5.17-1.42-7.76a44.91,44.91,0,0,0-1.06-5.55,27.9,27.9,0,0,0-4.45-8.66Z"/><path id="_01" data-name="01" class="cls-4" d="M81.71,126.59c6.3-.08,12.6,0,18.9,0s12.46,0,18.69,0a8.56,8.56,0,0,0,2.71-.45,6.25,6.25,0,0,0,3.85-7.8c-1.06-3.11-3.32-4.46-6.8-4.48q-18.42-.09-36.84,0a8.75,8.75,0,0,0-3.34.6,6.28,6.28,0,0,0-3.77,7.17A7.06,7.06,0,0,0,81.71,126.59Z"/></g></g></g></g></g></svg>