<svg xmlns="http://www.w3.org/2000/svg" viewBox="0 0 202.49 202.5"><defs><style>.cls-1{isolation:isolate;}.cls-2{fill:#41adcb;}.cls-3{fill:#fff;}.cls-4{fill:#e8503c;}.cls-5{fill:#231f20;opacity:0.3;mix-blend-mode:multiply;}</style></defs><title>Asset 20</title><g class="cls-1"><g id="Layer_2" data-name="Layer 2"><g id="Social_Media_Icons" data-name="Social Media Icons"><g id="Periscope"><path id="Base" class="cls-2" d="M202.49,101.25A101.25,101.25,0,1,1,101.25,0,101.15,101.15,0,0,1,202.49,101.25Z"/><g id="Logo"><path id="_02" data-name="02" class="cls-3" d="M144.17,85.5a55.53,55.53,0,0,0-1.37-6.67,45.44,45.44,0,0,0-2.19-6.08A45,45,0,0,0,132.8,60.6a43.32,43.32,0,0,0-14-10.49,35.23,35.23,0,0,0-8.18-2.77,37.69,37.69,0,0,0-4.33-.75c-2-.16-4-.18-6-.2a32.28,32.28,0,0,0-7.33.86c-1.76.4-3.5.93-5.23,1.49A40.16,40.16,0,0,0,77.4,53.91a44.42,44.42,0,0,0-7.63,6.67,45.31,45.31,0,0,0-6.84,9.81,43.58,43.58,0,0,0-3.23,8.07c-.43,1.5-.78,3-1.07,4.56s-.44,2.87-.58,4.32-.24,2.9-.25,4.34a21.44,21.44,0,0,0,.25,3.4c.29,2,.6,3.9,1,5.82a35.61,35.61,0,0,0,1.33,4.38c.91,2.44,1.81,4.89,2.89,7.25a98.32,98.32,0,0,0,7.3,13.12,130.28,130.28,0,0,0,10.24,13.71,87.24,87.24,0,0,0,13.22,12.91,21,21,0,0,0,6.13,3.51,3.78,3.78,0,0,0,2.32.23,13.37,13.37,0,0,0,1.86-.69,27.4,27.4,0,0,0,5.47-3.73,88.14,88.14,0,0,0,10.37-10.35,136.12,136.12,0,0,0,9.9-12.9,110.64,110.64,0,0,0,6-9.87c1.31-2.47,2.52-5,3.69-7.52a52.25,52.25,0,0,0,3.25-9.08c.49-2,.85-4,1.16-5.94.24-1.52.32-3.08.46-4.5C144.52,89.36,144.46,87.41,144.17,85.5Zm-16.86,6.25a24.48,24.48,0,0,1-3.54,11.63,26.67,26.67,0,0,1-5.84,6.81,25.2,25.2,0,0,1-8.21,4.61,21,21,0,0,1-5.31,1.12,42.3,42.3,0,0,1-4.5.09A27.06,27.06,0,0,1,80.7,106.2a24.43,24.43,0,0,1-5.55-13.7,27.68,27.68,0,0,1,1-9.71,24.46,24.46,0,0,1,3-6.73,3.62,3.62,0,0,1,.36-.39,10.45,10.45,0,0,0,7.05,8,9.72,9.72,0,0,0,8.2-.82,10,10,0,0,0,5.33-9.07,10.24,10.24,0,0,0-5.32-9.11l.08-.11c.68-.15,1.34-.31,2-.43a27.31,27.31,0,0,1,6.57-.41,24.12,24.12,0,0,1,7.85,1.84,24.78,24.78,0,0,1,8.43,5.78,27.12,27.12,0,0,1,5.88,9.37A28.14,28.14,0,0,1,127.31,91.75Z"/><path id="_01" data-name="01" class="cls-4" d="M94.74,82.81a9.72,9.72,0,0,1-8.2.82,10.45,10.45,0,0,1-7.05-8,3.62,3.62,0,0,0-.36.39,24.46,24.46,0,0,0-3,6.73,27.68,27.68,0,0,0-1,9.71,24.43,24.43,0,0,0,5.55,13.7A27.39,27.39,0,0,0,99.91,116a42.3,42.3,0,0,0,4.5-.09,21,21,0,0,0,5.31-1.12,25.2,25.2,0,0,0,8.21-4.61,26.67,26.67,0,0,0,5.84-6.81,24.48,24.48,0,0,0,3.54-11.63,28.14,28.14,0,0,0-1.73-11.08,27.12,27.12,0,0,0-5.88-9.37,24.78,24.78,0,0,0-8.43-5.78,24.12,24.12,0,0,0-7.85-1.84,27.31,27.31,0,0,0-6.57.41c-.68.12-1.34.28-2,.43l-.08.11a10.24,10.24,0,0,1,5.32,9.11A10,10,0,0,1,94.74,82.81Z"/></g><path id="Shadow" class="cls-5" d="M135.29,63.63h0a44.85,44.85,0,0,1,5.32,9.12,45.44,45.44,0,0,1,2.19,6.08,55.53,55.53,0,0,1,1.37,6.67c.29,1.91.35,3.86.52,5.93-.14,1.42-.22,3-.46,4.5-.31,2-.67,4-1.16,5.94a52.25,52.25,0,0,1-3.25,9.08c-1.17,2.54-2.38,5-3.69,7.52a110.64,110.64,0,0,1-6,9.87,136.12,136.12,0,0,1-9.9,12.9,88.14,88.14,0,0,1-10.37,10.35,27.4,27.4,0,0,1-5.47,3.73,13.37,13.37,0,0,1-1.86.69,3.78,3.78,0,0,1-2.32-.23,20.56,20.56,0,0,1-6-3.43l43.43,43.43a101.47,101.47,0,0,0,61.47-68.37Z"/></g></g></g></g></svg>