<svg xmlns="http://www.w3.org/2000/svg" viewBox="0 0 203.51 203.51"><defs><style>.cls-1{isolation:isolate;}.cls-2{fill:#e5528a;}.cls-3{fill:#fff;}.cls-4{fill:#231f20;opacity:0.3;mix-blend-mode:multiply;}</style></defs><title>Asset 7</title><g class="cls-1"><g id="Layer_2" data-name="Layer 2"><g id="Social_Media_Icons" data-name="Social Media Icons"><g id="Dribble"><path id="Base" class="cls-2" d="M203.51,101.76a100.73,100.73,0,0,1-1,14.09,101.76,101.76,0,1,1,1-14.09Z"/><path id="Logo" class="cls-3" d="M101.86,40.44A60.13,60.13,0,0,0,58,58.75c-13,13.3-18.71,29.42-17.39,47.9a58.84,58.84,0,0,0,18.14,38.87,59.66,59.66,0,0,0,42.55,17.56,61.32,61.32,0,1,0,.52-122.64ZM142,68.69a1.38,1.38,0,0,0,.14-.26,51.52,51.52,0,0,1,11.92,32.73l-1-.18-4.12-.65c-1.32-.21-2.63-.45-4-.62s-2.46-.24-3.69-.35L138,99.09l-.15,0c-1.31-.07-2.61-.19-3.91-.2-2.64,0-5.28,0-7.92,0-1.52,0-3,.18-4.56.3q-1.64.14-3.27.33a.62.62,0,0,1-.75-.41c-.74-1.75-1.48-3.49-2.25-5.22-.6-1.34-1.24-2.67-1.87-4-.29-.61-.3-.61.33-.91,2.21-1,4.45-2,6.61-3.09a81.52,81.52,0,0,0,10.19-6.21,55,55,0,0,0,4.37-3.55c1.68-1.48,3.32-3,4.9-4.6A34.84,34.84,0,0,0,142,68.69ZM107.1,49.61a50.25,50.25,0,0,1,29.19,12.87,13.37,13.37,0,0,1-1.22,1.7c-1.73,1.79-3.45,3.62-5.3,5.29a42.29,42.29,0,0,1-7.58,5.44q-4,2.27-8.15,4.36c-1.51.77-3.13,1.35-4.69,2-.34.15-.46-.06-.59-.3-.58-1.06-1.15-2.11-1.75-3.16-1.25-2.17-2.5-4.34-3.79-6.48-1.19-2-2.39-4-3.66-5.92Q97,61.56,94.38,57.77c-1.41-2-2.92-4-4.38-6-.2-.27-.38-.55-.58-.86A53.75,53.75,0,0,1,107.1,49.61ZM51.77,86.26a42.73,42.73,0,0,1,4-9.53,63.62,63.62,0,0,1,3.54-5.56A43.4,43.4,0,0,1,62.69,67c1.34-1.48,2.77-2.89,4.23-4.25a40.23,40.23,0,0,1,3.91-3.24c1.62-1.16,3.33-2.2,5-3.23,1-.61,2.1-1.1,3.14-1.66.27-.15.4-.14.61.15,1.44,2,2.95,4,4.38,6s2.61,3.83,3.88,5.77c1.11,1.67,2.22,3.36,3.28,5.07,1.33,2.14,2.63,4.3,3.92,6.47s2.39,4.09,3.58,6.15c0,.1.1.21.18.36-1.54.38-3,.75-4.5,1.1-1,.25-2.12.47-3.17.71s-2.38.55-3.57.79c-.94.2-1.89.33-2.82.5s-2.08.42-3.12.6c-.81.13-1.63.21-2.43.35s-1.65.32-2.47.47c-.42.07-.84.1-1.26.15-1,.11-2.11.22-3.17.35-1.69.2-3.38.43-5.07.61-1,.11-2.09.14-3.14.21l-6.2.41-.86,0c-2.1,0-4.19.06-6.28.07-.08,0-.25-.19-.23-.25C50.94,89.22,51.36,87.74,51.77,86.26ZM63,136.37a3.73,3.73,0,0,1-.26.33c-.77-.91-1.52-1.74-2.19-2.63-.93-1.24-1.84-2.51-2.7-3.81a43.75,43.75,0,0,1-4.51-8.63c-.77-2-1.48-4-2.13-6.1a36.18,36.18,0,0,1-.86-3.77c-.24-1.25-.44-2.51-.64-3.77a13.21,13.21,0,0,1-.15-1.41c-.07-2-.12-4-.19-6,0-.43.19-.52.55-.53l2.66,0c2.6-.06,5.2-.09,7.81-.18,1.71-.06,3.42-.2,5.13-.33s3.47-.28,5.2-.46c1.19-.12,2.38-.32,3.56-.47,1-.12,2-.19,3.07-.34,1.21-.17,2.42-.41,3.63-.6.83-.13,1.66-.2,2.49-.33s1.38-.29,2.06-.42,1.43-.25,2.14-.38l1.77-.34,2.69-.61c1.22-.28,2.45-.56,3.67-.86s2.61-.7,3.92-1.06c1-.29,2.09-.6,3.15-.88a.51.51,0,0,1,.43.15c.88,1.77,1.75,3.56,2.61,5.34.43.9.84,1.81,1.26,2.72.26.57.25.57-.37.78-1.57.53-3.16,1-4.67,1.61-2,.83-4,1.77-5.91,2.76s-3.73,2-5.53,3.13q-3.45,2.11-6.79,4.39a43.73,43.73,0,0,0-4.49,3.4c-2.26,2-4.44,4.11-6.58,6.25a39.62,39.62,0,0,0-3.31,3.78c-1.61,2.06-3.15,4.16-4.67,6.28C64.17,134.29,63.61,135.36,63,136.37Zm58.88,13.73c-1.38.51-2.75,1-4.14,1.48s-2.79.84-4.19,1.22c-.66.18-1.35.26-2,.39s-1.61.32-2.42.46c-.38.07-.77.11-1.15.15-.78.07-1.55.17-2.32.19-1.86.07-3.71.13-5.57.14a25.55,25.55,0,0,1-3.15-.15,47.18,47.18,0,0,1-4.75-.66,63.07,63.07,0,0,1-6.37-1.59,43.58,43.58,0,0,1-9.26-4c-2.39-1.42-4.72-3-7.09-4.47a54.86,54.86,0,0,1,3.9-6.62A57.2,57.2,0,0,1,81,128a58.71,58.71,0,0,1,5.38-4.59,74.18,74.18,0,0,1,7.12-4.7c3.72-2.14,7.51-4.13,11.33-6.06,1.79-.91,3.71-1.54,5.56-2.3l.55-.2c.22.53.46,1,.65,1.6.68,1.88,1.36,3.76,2,5.66q1.11,3.24,2.16,6.5.9,2.83,1.72,5.68c.42,1.46.77,2.94,1.16,4.41.25.93.55,1.86.77,2.8.3,1.22.56,2.44.83,3.67s.55,2.27.79,3.42c.18.88.31,1.78.48,2.67.14.72.3,1.44.44,2.16a7.45,7.45,0,0,1,.19,1C122.16,149.89,122,150.05,121.88,150.1Zm31.54-39.66c-.28,1.25-.46,2.51-.79,3.74-.4,1.53-.84,3.06-1.38,4.54a58.66,58.66,0,0,1-2.47,6,53.77,53.77,0,0,1-3.47,6,63.65,63.65,0,0,1-4.52,5.94,61.79,61.79,0,0,1-4.55,4.46c-.93.86-1.92,1.66-2.91,2.45-.73.57-1.51,1.07-2.32,1.64-.24-1.38-.44-2.67-.7-3.94s-.61-2.75-.91-4.12c-.24-1.06-.44-2.13-.68-3.19s-.57-2.27-.86-3.4c-.35-1.39-.7-2.77-1.07-4.14s-.85-3-1.29-4.48c-.51-1.67-1-3.34-1.57-5-.8-2.43-1.62-4.86-2.44-7.28-.19-.55-.39-1.08-.57-1.61-.09-.27,0-.35.3-.38,1.78-.2,3.55-.52,5.34-.59a46.46,46.46,0,0,1,8-.08c.26,0,.54,0,.81,0,1.69.15,3.37.29,5,.46,1,.09,2,.19,3,.34s2,.35,3,.55,2.21.45,3.3.7,2.28.58,3.42.88A.35.35,0,0,1,153.42,110.44Z"/><g id="Shadow"><path class="cls-4" d="M62.74,136.7a3.73,3.73,0,0,0,.26-.33c.61-1,1.17-2.08,1.85-3,1.52-2.12,3.06-4.22,4.67-6.28a39.62,39.62,0,0,1,3.31-3.78C75,121.13,77.15,119,79.41,117a43.73,43.73,0,0,1,4.49-3.4q3.34-2.28,6.79-4.39c1.8-1.11,3.65-2.16,5.53-3.13s3.91-1.93,5.91-2.76c1.51-.64,3.1-1.08,4.67-1.61.62-.21.63-.21.37-.78-.42-.91-.83-1.82-1.26-2.72-.86-1.78-1.73-3.57-2.61-5.34a.51.51,0,0,0-.43-.15c-1.06.28-2.1.59-3.15.88-1.31.36-2.61.72-3.92,1.06s-2.45.58-3.67.86l-2.69.61-1.77.34c-.71.13-1.42.24-2.14.38s-1.37.3-2.06.42-1.66.2-2.49.33c-1.21.19-2.42.43-3.63.6-1,.15-2,.22-3.07.34-1.18.15-2.37.35-3.56.47-1.73.18-3.47.33-5.2.46s-3.42.27-5.13.33c-2.61.09-5.21.12-7.81.18l-2.66,0c-.36,0-.57.1-.55.53.07,2,.12,4,.19,6a13.21,13.21,0,0,0,.15,1.41c.2,1.26.4,2.52.64,3.77a36.18,36.18,0,0,0,.86,3.77c.65,2,1.36,4.09,2.13,6.1a43.75,43.75,0,0,0,4.51,8.63c.86,1.3,1.77,2.57,2.7,3.81C61.22,135,62,135.79,62.74,136.7Z"/><path class="cls-4" d="M91.16,71.62c-1.06-1.71-2.17-3.4-3.28-5.07-1.27-1.94-2.55-3.87-3.88-5.77s-2.94-4-4.38-6c-.21-.29-.34-.3-.61-.15-1,.56-2.13,1-3.14,1.66-1.71,1-3.42,2.07-5,3.23a40.23,40.23,0,0,0-3.91,3.24C65.46,64.09,64,65.5,62.69,67a43.4,43.4,0,0,0-3.36,4.19,63.62,63.62,0,0,0-3.54,5.56,42.73,42.73,0,0,0-4,9.53c-.41,1.48-.83,3-1.22,4.44,0,.06.15.25.23.25,2.09,0,4.18,0,6.28-.07l.86,0,6.2-.41c1-.07,2.1-.1,3.14-.21,1.69-.18,3.38-.41,5.07-.61,1.06-.13,2.12-.24,3.17-.35.42,0,.84-.08,1.26-.15.82-.15,1.64-.33,2.47-.47s1.62-.22,2.43-.35c1-.18,2.08-.4,3.12-.6s1.88-.3,2.82-.5c1.19-.24,2.38-.53,3.57-.79s2.12-.46,3.17-.71c1.48-.35,3-.72,4.5-1.1-.08-.15-.13-.26-.18-.36-1.19-2.06-2.37-4.11-3.58-6.15S92.49,73.76,91.16,71.62Z"/><path class="cls-4" d="M103.22,71.35c1.29,2.14,2.54,4.31,3.79,6.48.6,1,1.17,2.1,1.75,3.16.13.24.25.45.59.3,1.56-.67,3.18-1.25,4.69-2q4.13-2.08,8.15-4.36a42.29,42.29,0,0,0,7.58-5.44c1.85-1.67,3.57-3.5,5.3-5.29a13.37,13.37,0,0,0,1.22-1.7A50.25,50.25,0,0,0,107.1,49.61,53.75,53.75,0,0,0,89.42,50.9c.2.31.38.59.58.86,1.46,2,3,4,4.38,6q2.66,3.79,5.18,7.66C100.83,67.37,102,69.36,103.22,71.35Z"/><path class="cls-4" d="M202.53,115.85a101.77,101.77,0,0,1-86.91,86.72l-56-56-.13-.39a59.56,59.56,0,0,0,41.84,16.89,61.32,61.32,0,0,0,44.1-104.32Z"/><path class="cls-4" d="M85.8,151.73a63.07,63.07,0,0,0,6.37,1.59,47.18,47.18,0,0,0,4.75.66,25.55,25.55,0,0,0,3.15.15c1.86,0,3.71-.07,5.57-.14.77,0,1.54-.12,2.32-.19.38,0,.77-.08,1.15-.15.81-.14,1.61-.31,2.42-.46s1.36-.21,2-.39c1.4-.38,2.81-.77,4.19-1.22s2.76-1,4.14-1.48c.12,0,.28-.21.27-.31a7.45,7.45,0,0,0-.19-1c-.14-.72-.3-1.44-.44-2.16-.17-.89-.3-1.79-.48-2.67-.24-1.15-.52-2.28-.79-3.42s-.53-2.45-.83-3.67c-.22-.94-.52-1.87-.77-2.8-.39-1.47-.74-2.95-1.16-4.41q-.83-2.85-1.72-5.68-1-3.26-2.16-6.5c-.64-1.9-1.32-3.78-2-5.66-.19-.55-.43-1.07-.65-1.6l-.55.2c-1.85.76-3.77,1.39-5.56,2.3-3.82,1.93-7.61,3.92-11.33,6.06a74.18,74.18,0,0,0-7.12,4.7A58.71,58.71,0,0,0,81,128a57.2,57.2,0,0,0-7.67,8.55,54.86,54.86,0,0,0-3.9,6.62c2.37,1.51,4.7,3,7.09,4.47A43.58,43.58,0,0,0,85.8,151.73Z"/><path class="cls-4" d="M142.16,68.43a1.38,1.38,0,0,1-.14.26,34.84,34.84,0,0,1-2.34,2.81c-1.58,1.58-3.22,3.12-4.9,4.6a55,55,0,0,1-4.37,3.55,81.52,81.52,0,0,1-10.19,6.21c-2.16,1.11-4.4,2.07-6.61,3.09-.63.3-.62.3-.33.91.63,1.34,1.27,2.67,1.87,4,.77,1.73,1.51,3.47,2.25,5.22a.62.62,0,0,0,.75.41q1.63-.19,3.27-.33c1.52-.12,3-.27,4.56-.3,2.64,0,5.28,0,7.92,0,1.3,0,2.6.13,3.91.2l.15,0,3.33.27c1.23.11,2.47.19,3.69.35s2.63.41,4,.62l4.12.65,1,.18A51.52,51.52,0,0,0,142.16,68.43Z"/><path class="cls-4" d="M125.5,121.93c.44,1.49.88,3,1.29,4.48s.72,2.75,1.07,4.14c.29,1.13.59,2.26.86,3.4s.44,2.13.68,3.19c.3,1.37.64,2.74.91,4.12s.46,2.56.7,3.94c.81-.57,1.59-1.07,2.32-1.64,1-.79,2-1.59,2.91-2.45a61.79,61.79,0,0,0,4.55-4.46,63.65,63.65,0,0,0,4.52-5.94,53.77,53.77,0,0,0,3.47-6,58.66,58.66,0,0,0,2.47-6c.54-1.48,1-3,1.38-4.54.33-1.23.51-2.49.79-3.74a.35.35,0,0,0-.29-.48c-1.14-.3-2.28-.6-3.42-.88s-2.2-.48-3.3-.7-2-.4-3-.55-2-.25-3-.34c-1.68-.17-3.36-.31-5-.46-.27,0-.55,0-.81,0a46.46,46.46,0,0,0-8,.08c-1.79.07-3.56.39-5.34.59-.27,0-.39.11-.3.38.18.53.38,1.06.57,1.61.82,2.42,1.64,4.85,2.44,7.28C124.48,118.59,125,120.26,125.5,121.93Z"/></g></g></g></g></g></svg>