<svg xmlns="http://www.w3.org/2000/svg" viewBox="0 0 202.47 202.47"><defs><style>.cls-1{isolation:isolate;}.cls-2{fill:#e33e2b;}.cls-3{fill:#fff;}.cls-4{fill:#231f20;opacity:0.3;mix-blend-mode:multiply;}</style></defs><title>Asset 36</title><g class="cls-1"><g id="Layer_2" data-name="Layer 2"><g id="Social_Media_Icons" data-name="Social Media Icons"><g id="Google"><path id="Base" class="cls-2" d="M202.47,101.23A101.24,101.24,0,1,1,101.23,0,101.44,101.44,0,0,1,202.47,101.23Z"/><path id="Logo" class="cls-3" d="M124.38,75.06c4.86-4.83,9.82-9.79,14.84-14.69.77-.75.56-1.1-.09-1.66A54.47,54.47,0,0,0,97,45.19a55,55,0,0,0-13.64,3A56.55,56.55,0,0,0,46,99.05a52.41,52.41,0,0,0,1.12,13.46,56.32,56.32,0,0,0,58.75,44.91,61.72,61.72,0,0,0,13.59-2.23,48.83,48.83,0,0,0,27.08-19.07c6.34-9,9.28-19.19,9.81-30.09a63.2,63.2,0,0,0-.77-14.27c-.18-1-.53-1.18-1.41-1.17H102.43v22.09h30.43a4.78,4.78,0,0,1,0,.85,26.42,26.42,0,0,1-12.08,17.11,32,32,0,0,1-13,4.5,34.13,34.13,0,0,1-14-.81,34.51,34.51,0,0,1-25-33.29,39,39,0,0,1,.84-7.21A33,33,0,0,1,82.9,73.29,32.11,32.11,0,0,1,105.43,67a28.24,28.24,0,0,1,11.06,3.06C119.21,71.52,121.73,73.36,124.38,75.06Z"/><path id="Shadow" class="cls-4" d="M140.08,59.51l-.37,0a1.25,1.25,0,0,1-.49.84c-5,4.9-10,9.86-14.84,14.69-2.65-1.7-5.17-3.54-7.89-5A28.24,28.24,0,0,0,105.43,67,32.11,32.11,0,0,0,82.9,73.29,33,33,0,0,0,69.58,93.84a39,39,0,0,0-.84,7.21,34.51,34.51,0,0,0,25,33.29,34.13,34.13,0,0,0,14,.81,32,32,0,0,0,13-4.5,26.42,26.42,0,0,0,12.08-17.11,4.78,4.78,0,0,0,0-.85H102.43V90.6h51.78c.88,0,1.23.13,1.41,1.17a63.2,63.2,0,0,1,.77,14.27c-.53,10.9-3.47,21.09-9.81,30.09a48.83,48.83,0,0,1-27.08,19.07,61.72,61.72,0,0,1-13.59,2.23,56.19,56.19,0,0,1-21.66-2.87,54.9,54.9,0,0,1-18.88-10.86L122,200.33a101.32,101.32,0,0,0,78.69-80.2Z"/></g></g></g></g></svg>