<svg xmlns="http://www.w3.org/2000/svg" viewBox="0 0 202.49 202.48"><defs><style>.cls-1{isolation:isolate;}.cls-2{fill:#c72026;}.cls-3{fill:#231f20;opacity:0.3;mix-blend-mode:multiply;}.cls-4{fill:#fff;}</style></defs><title>Asset 16</title><g class="cls-1"><g id="Layer_2" data-name="Layer 2"><g id="Social_Media_Icons" data-name="Social Media Icons"><g id="Gmail"><path id="Base" class="cls-2" d="M202.49,101.24A101.24,101.24,0,0,1,101.25,202.48h-.49A101.24,101.24,0,1,1,202.48,100.66C202.49,100.85,202.49,101.05,202.49,101.24Z"/><path id="Shadow" class="cls-3" d="M202.49,101.24A101.24,101.24,0,0,1,101.25,202.48h-.49L42.63,144.34,56.19,59.55l4.06-1.39,99.67-.07,42.56,42.57C202.49,100.85,202.49,101.05,202.49,101.24Z"/><path id="Logo" class="cls-4" d="M141.44,58.09l-81.19.07-.09-.07H42.58v86.3H159.92V58.09Zm.18,22.79v51.06l-29.26-27Zm-2.53-20.82L101.25,91.82,62.56,60.06ZM90.66,105.29l-29.42,26V80.88Zm-29.42,37V134l31-27.41,9,7.49,9.56-7.86,30.82,28.44v7.67Z"/></g></g></g></g></svg>