<svg xmlns="http://www.w3.org/2000/svg" viewBox="0 0 202.5 202.49"><defs><style>.cls-1{isolation:isolate;}.cls-2{fill:#d44131;}.cls-3{fill:#fff;}.cls-4{fill:#231f20;opacity:0.3;mix-blend-mode:multiply;}</style></defs><title>Asset 21</title><g class="cls-1"><g id="Layer_2" data-name="Layer 2"><g id="Social_Media_Icons" data-name="Social Media Icons"><g id="Share"><path id="Base" class="cls-2" d="M202.5,101.24q0,2.06-.09,4.08-.12,3.14-.44,6.23a101.32,101.32,0,0,1-64.24,84.17c-1.13.44-2.27.85-3.42,1.25a101.26,101.26,0,1,1,68.19-95.73Z"/><path id="Logo" class="cls-3" d="M117.58,70.82a3.58,3.58,0,0,1-.38.27q-18,8.76-36.09,17.52c-.72.35-1.09.12-1.59-.34A17.13,17.13,0,0,0,68,83.5a17.58,17.58,0,1,0,11.48,30.43c.5-.46.87-.7,1.58-.34q17.88,8.79,35.8,17.52c.62.31.71.66.69,1.33a23.51,23.51,0,0,0,.19,5,17.56,17.56,0,0,0,34.68-5.52,16.64,16.64,0,0,0-11.36-14.24c-6.57-2.43-12.62-1.1-17.88,3.52a1.55,1.55,0,0,1-2,.3q-17.28-8.52-34.61-17c-1.16-.56-1.9-1-1.46-2.5a4.29,4.29,0,0,0,0-2.22c-.26-1.05.17-1.44,1-1.86,6-2.85,11.93-5.75,17.89-8.64l18.19-8.84a17.67,17.67,0,1,0-4.59-9.63Z"/><path id="Shadow" class="cls-4" d="M150.61,60.2a17.62,17.62,0,0,1-28.44,20.25L104,89.29c-6,2.89-11.91,5.79-17.89,8.64-.88.42-1.31.81-1,1.86a4.29,4.29,0,0,1,0,2.22c-.44,1.46.3,1.94,1.46,2.5q17.34,8.43,34.61,17a1.55,1.55,0,0,0,2-.3c5.26-4.62,11.31-6,17.88-3.52a16.64,16.64,0,0,1,11.36,14.24,17.56,17.56,0,0,1-34.68,5.52,23.51,23.51,0,0,1-.19-5c0-.67-.07-1-.69-1.33Q99,122.38,81.06,113.59c-.71-.36-1.08-.12-1.58.34a17.55,17.55,0,0,1-21.81,1.73l80.06,80.06A101.32,101.32,0,0,0,202,111.55Z"/></g></g></g></g></svg>