<svg xmlns="http://www.w3.org/2000/svg" viewBox="0 0 202.5 202.5"><defs><style>.cls-1{isolation:isolate;}.cls-2{fill:#cd2127;}.cls-3{fill:#fff;}.cls-4{fill:#231f20;opacity:0.3;mix-blend-mode:multiply;}</style></defs><title>Asset 19</title><g class="cls-1"><g id="Layer_2" data-name="Layer 2"><g id="Social_Media_Icons" data-name="Social Media Icons"><g id="YouTube"><path id="Base" class="cls-2" d="M202.5,101.25c0,3.51-.18,7-.52,10.39A101.3,101.3,0,0,1,111.51,202a102.3,102.3,0,0,1-10.26.51A101.25,101.25,0,1,1,202.5,101.25Z"/><path id="Logo" class="cls-3" d="M161.85,95c0-.76,0-1.52-.06-2.28-.06-1.41-.15-2.81-.23-4.22-.1-1.59-.17-3.18-.32-4.76-.19-2-.46-4-.7-6a34.07,34.07,0,0,0-1.21-6.16,14.79,14.79,0,0,0-9.92-10.18,36.22,36.22,0,0,0-7.95-1.34l-2.2-.2c-.94-.08-1.89-.17-2.83-.23L133,59.48c-1.45-.08-2.9-.19-4.35-.25-1.82-.07-3.65-.1-5.47-.16-2.84-.09-5.68-.2-8.52-.27-2-.06-4-.06-6-.1-7.6-.14-15.2,0-22.81.14-.87,0-1.75.08-2.63.11l-6.65.16c-1.27,0-2.53.1-3.8.17s-2.63.16-3.94.24l-2.49.14c-.92.06-1.84.1-2.76.18-1.26.11-2.52.26-3.79.39a36.84,36.84,0,0,0-5.52.86A14.77,14.77,0,0,0,43.12,71.81,50.7,50.7,0,0,0,42,77.42c-.24,1.37-.33,2.75-.47,4.13-.12,1.12-.21,2.24-.31,3.37s-.19,2-.25,3c-.08,1.31-.12,2.63-.17,3.94-.09,2.42-.24,4.85-.25,7.27,0,2.75.07,5.5.13,8.25,0,1.68.08,3.37.17,5s.24,3.55.4,5.32.36,3.76.56,5.64a44.06,44.06,0,0,0,1.2,6.74,14.9,14.9,0,0,0,10.63,10.94,30.25,30.25,0,0,0,4.14.79c1.5.22,3,.38,4.53.52s3,.22,4.56.32c2.26.14,4.51.29,6.78.4,1.77.08,3.55.12,5.33.17l10.46.27,11.42.27c5.33-.1,10.23-.19,15.13-.3,2.51-.05,5-.16,7.55-.24,1.8-.05,3.6-.1,5.4-.17,1.43-.07,2.86-.16,4.29-.25q1.49-.07,3-.18c1.47-.1,3-.17,4.42-.32,1.81-.19,3.61-.43,5.42-.68a17.08,17.08,0,0,0,4.53-1.17,14.78,14.78,0,0,0,8.43-8.69,36.57,36.57,0,0,0,1.71-8.08c.26-2.06.44-4.13.61-6.19s.3-4.24.41-6.36c.12-2.44.26-4.89.28-7.34C162,100.93,161.9,98,161.85,95ZM89.09,119.38V83l31.46,18.17Z"/><g id="Shadow"><path id="_02" data-name="02" class="cls-4" d="M89.09,83v36.34l31.46-18.17Z"/><path id="_01" data-name="01" class="cls-4" d="M156.42,66.08h0a15.75,15.75,0,0,1,2.94,5.53,34.07,34.07,0,0,1,1.21,6.16c.24,2,.51,4,.7,6,.15,1.58.22,3.17.32,4.76.08,1.41.17,2.81.23,4.22,0,.76,0,1.52.06,2.28.05,3,.15,5.92.13,8.87,0,2.45-.16,4.9-.28,7.34-.11,2.12-.24,4.24-.41,6.36s-.35,4.13-.61,6.19a36.57,36.57,0,0,1-1.71,8.08,14.78,14.78,0,0,1-8.43,8.69,17.08,17.08,0,0,1-4.53,1.17c-1.81.25-3.61.49-5.42.68-1.47.15-3,.22-4.42.32q-1.48.1-3,.18c-1.43.09-2.86.18-4.29.25-1.8.07-3.6.12-5.4.17-2.52.08-5,.19-7.55.24-4.9.11-9.8.2-15.13.3l-11.42-.27L79,143.31c-1.78-.05-3.56-.09-5.33-.17-2.27-.11-4.52-.26-6.78-.4-1.52-.1-3-.18-4.56-.32s-3-.3-4.53-.52a30.25,30.25,0,0,1-4.14-.79,15.3,15.3,0,0,1-7.32-4.6l-.1.15L111.51,202A101.3,101.3,0,0,0,202,111.64Z"/></g></g></g></g></g></svg>