<svg xmlns="http://www.w3.org/2000/svg" viewBox="0 0 202.43 202.43"><defs><style>.cls-1{isolation:isolate;}.cls-2{fill:#117bc0;}.cls-3{fill:#fff;}.cls-4{fill:#231f20;opacity:0.3;mix-blend-mode:multiply;}</style></defs><title>Asset 3</title><g class="cls-1"><g id="Layer_2" data-name="Layer 2"><g id="Social_Media_Icons" data-name="Social Media Icons"><g id="Linkedin"><path id="Base" class="cls-2" d="M202.43,101.21A101.14,101.14,0,0,1,101.21,202.43l-2.58,0a101.22,101.22,0,1,1,103.8-101.19Z"/><path id="Logo" class="cls-3" d="M107.68,92.9c0-.32,0-.43,0-.54,0-2.87,0-5.75,0-8.62,0-.44-.12-.6-.6-.6-7.21,0-14.41,0-21.62,0-1,0-1,0-.94,1,.06,4.28.17,8.56.18,12.85q.06,12.36,0,24.71c0,9.75-.14,19.5-.22,29.24,0,1.85,0,1.87,1.81,1.88q10.13,0,20.27,0c1.07,0,1.08,0,1.09-1.06,0-.35,0-.71,0-1.06q0-19,0-37.93a11.9,11.9,0,0,1,.81-4.61,13.48,13.48,0,0,1,5-6.37,9.59,9.59,0,0,1,4.2-1.7,25.84,25.84,0,0,1,4.21-.17,9.46,9.46,0,0,1,5.63,2.3,12.12,12.12,0,0,1,3.86,7.19,39.24,39.24,0,0,1,.61,6.93c.05,11.7,0,23.41,0,35.11,0,1.36,0,1.37,1.38,1.37h20.48c1.23,0,1.23,0,1.26-1.19,0-.24,0-.47,0-.71q0-18,0-36.09a58.89,58.89,0,0,0-.79-11.1,33.54,33.54,0,0,0-2.94-8.91A23.44,23.44,0,0,0,143,85.41a24,24,0,0,0-11.19-3.67c-4.52-.35-9-.13-13.28,1.69a22,22,0,0,0-8.69,6.65C109.13,91,108.47,91.86,107.68,92.9ZM48.53,118v33.48c0,1.39,0,1.4,1.39,1.4H70.47c.23,0,.47,0,.7,0,.42,0,.6-.15.58-.59s0-1,0-1.55V85.1c0-.4,0-.8,0-1.2,0-.59-.19-.76-.78-.76-7.17,0-14.35,0-21.53,0-.92,0-.92,0-.92.94Zm-1.27-56a9.47,9.47,0,0,0,.8,4.27,11.65,11.65,0,0,0,8.72,7.15,15,15,0,0,0,5.94.11,13.17,13.17,0,0,0,6.63-3,10.93,10.93,0,0,0,3.59-6.09,12.44,12.44,0,0,0-.26-6.26,11.49,11.49,0,0,0-4.15-6,13.7,13.7,0,0,0-7.29-2.49,14.75,14.75,0,0,0-6.47,1A11.41,11.41,0,0,0,47.26,61.94Z"/><g id="Shadow"><path id="_02" data-name="02" class="cls-4" d="M195.26,138.69a101.25,101.25,0,0,1-94,63.74l-2.58,0L49.05,152.82a6.28,6.28,0,0,0,.87,0H70.47c.23,0,.47,0,.7,0,.42,0,.6-.15.58-.59s0-1,0-1.55V85.1c0-.4,0-.8,0-1.2,0-.59-.19-.76-.78-.76-2.41,0-4.83,0-7.24,0L51.52,70.93a12.88,12.88,0,0,0,5.26,2.43,15,15,0,0,0,5.94.11,13.17,13.17,0,0,0,6.63-3,10.93,10.93,0,0,0,3.59-6.09,12.44,12.44,0,0,0-.26-6.26,11.53,11.53,0,0,0-2.44-4.44L99.68,83.14H85.44c-1,0-1,0-.94,1,.06,4.28.17,8.56.18,12.85q.06,12.36,0,24.71c0,9.75-.14,19.5-.22,29.24,0,1.85,0,1.87,1.81,1.88q10.13,0,20.27,0c1.07,0,1.08,0,1.09-1.06,0-.35,0-.71,0-1.06q0-19,0-37.93a11.9,11.9,0,0,1,.81-4.61,13.48,13.48,0,0,1,5-6.37,9.59,9.59,0,0,1,4.2-1.7,25.84,25.84,0,0,1,4.21-.17,9.46,9.46,0,0,1,5.63,2.3,12.12,12.12,0,0,1,3.86,7.19,39.24,39.24,0,0,1,.61,6.93c.05,11.7,0,23.41,0,35.11,0,1.36,0,1.37,1.38,1.37h20.48c1.23,0,1.23,0,1.26-1.19,0-.24,0-.47,0-.71q0-18,0-36.09a58.89,58.89,0,0,0-.79-11.1,33.54,33.54,0,0,0-2.94-8.91Z"/><path id="_01" data-name="01" class="cls-4" d="M107.64,92.36c0,.11,0,.22,0,.54.79-1,1.45-2,2.15-2.82a23,23,0,0,1,2-2.19l-4.15-4.15h0C107.64,86.61,107.65,89.49,107.64,92.36Z"/></g></g></g></g></g></svg>