<svg xmlns="http://www.w3.org/2000/svg" viewBox="0 0 202.43 202.43"><defs><style>.cls-1{isolation:isolate;}.cls-2{fill:#7262ab;}.cls-3{fill:#fff;}.cls-4{fill:#231f20;opacity:0.3;mix-blend-mode:multiply;}</style></defs><title>Asset 14</title><g class="cls-1"><g id="Layer_2" data-name="Layer 2"><g id="Social_Media_Icons" data-name="Social Media Icons"><g id="Viber"><path id="Base" class="cls-2" d="M202.43,101.22a101.2,101.2,0,0,1-98.9,101.18l-2.31,0A101.22,101.22,0,1,1,202.31,96.31C202.39,97.94,202.43,99.57,202.43,101.22Z"/><path id="Logo" class="cls-3" d="M166.38,85.4c-.2-3.37-.63-6.73-1.12-10.08a80.14,80.14,0,0,0-1.58-8.17,51.43,51.43,0,0,0-4.63-12,32.53,32.53,0,0,0-8-9.9,46.19,46.19,0,0,0-13.66-7.4,86.8,86.8,0,0,0-20.58-4.56,127.12,127.12,0,0,0-13.37-.71h-3A94.93,94.93,0,0,0,85,33.35c-3,.45-6.09.73-9.08,1.37a66.87,66.87,0,0,0-18.29,6.35,33.79,33.79,0,0,0-10.39,8.27,45.17,45.17,0,0,0-8.77,18.73c-.67,3-1.11,6-1.53,9a67,67,0,0,0-.9,8.79c0,6.88-.45,13.77.51,20.63.4,2.84.61,5.74,1.19,8.55a51.43,51.43,0,0,0,5.48,15.32,37.87,37.87,0,0,0,9,10.79,41,41,0,0,0,13.14,7.09c2.34.79,2.34.78,2.34,3.23,0,3.45,0,6.91,0,10.36a11.42,11.42,0,0,0,.74,5.14c.78,1.7,2.92,3.07,4.48,2.82a7.93,7.93,0,0,0,4.73-2.54c1.35-1.44,2.67-2.9,4-4.36,2.82-3.13,5.62-6.27,8.46-9.39a1.56,1.56,0,0,1,1.08-.48c1.39.05,2.78.33,4.18.32,6.25,0,12.51.31,18.74-.53,3.4-.46,6.83-.82,10.22-1.34A81.73,81.73,0,0,0,139,147.75a36.86,36.86,0,0,0,16.5-11.34,43,43,0,0,0,8.33-17.09,88.9,88.9,0,0,0,2-13.57c.34-3.47.48-7,.58-10.46C166.49,92,166.56,88.69,166.38,85.4Zm-9.75,11c0,1.21-.1,2.43-.2,3.64-.23,2.72-.45,5.44-.74,8.16-.2,1.83-.41,3.67-.78,5.48a40.52,40.52,0,0,1-2.74,8.7,32.38,32.38,0,0,1-4.53,7.3,28.18,28.18,0,0,1-10.51,7.85,53.86,53.86,0,0,1-11,3.2c-3.26.68-6.52,1.34-9.81,1.85a59.08,59.08,0,0,1-6.77.59c-4.75.17-9.49.24-14.24.35-2.35-.86-3.53.84-4.83,2.24s-2.56,2.82-3.86,4.22c-3.38,3.65-6.78,7.28-10.15,10.93-1.09,1.17-2.12,2.38-3.2,3.55a9.8,9.8,0,0,1-1,.81v-25c-2.78-1.21-5.53-2.22-8.12-3.56A29.46,29.46,0,0,1,55.62,130a33.07,33.07,0,0,1-6.36-10.93,58.39,58.39,0,0,1-2.13-8.3c-1.67-8-1.12-16.11-1.1-24.18a68.5,68.5,0,0,1,.81-8.43,53.37,53.37,0,0,1,1.06-6.42,44.06,44.06,0,0,1,4-10.53A31.93,31.93,0,0,1,57.22,54a28.57,28.57,0,0,1,7-4.91,45.59,45.59,0,0,1,11-4.1c2.41-.54,4.8-1.17,7.22-1.63,1.76-.32,3.57-.38,5.35-.63,6-.82,11.94-.61,17.9-.51,3.56.06,7.13.53,10.68.9,2.22.23,4.43.54,6.62,1s4.4.93,6.56,1.54a61.7,61.7,0,0,1,6.11,2.05c4.76,1.91,9.15,4.39,12.3,8.59a30.67,30.67,0,0,1,4.69,8.82c.76,2.34,1.59,4.66,2.18,7a46.07,46.07,0,0,1,1,6.31c.38,3.52.74,7,.91,10.57C156.89,91.5,156.7,94,156.63,96.45ZM100.21,63.88c1.22.06,2.43.09,3.64.19a26.55,26.55,0,0,1,8.41,2.07,28.35,28.35,0,0,1,11.23,8.58,26,26,0,0,1,5.2,11.41c.52,2.76.68,5.59,1,8.39a1.75,1.75,0,0,0,1.52,1.73,1.78,1.78,0,0,0,1.74-1c.56-.94.2-1.86.17-2.81a40.22,40.22,0,0,0-1.34-8.87,29.3,29.3,0,0,0-6.07-11.87,32.29,32.29,0,0,0-10.44-8.12,35.16,35.16,0,0,0-13.34-3.29h-1.6A1.77,1.77,0,0,0,98.48,62,2.07,2.07,0,0,0,100.21,63.88Zm31.65,49.61c-.82-.72-1.74-1.32-2.56-2a55.32,55.32,0,0,0-10.74-7.28,5.56,5.56,0,0,0-6.69,1.35c-.85,1-1.62,2.12-2.46,3.15a4,4,0,0,1-3.31,1.56,12.57,12.57,0,0,1-5.32-1.7,35.05,35.05,0,0,1-9.48-7.26,24.59,24.59,0,0,1-6.42-11,4.58,4.58,0,0,1,1.61-5.2c1.32-1.08,2.65-2.17,3.89-3.34a3.44,3.44,0,0,0,1.16-3,14.7,14.7,0,0,0-2.94-6.4c-1.92-2.63-3.89-5.23-5.94-7.76-1.47-1.8-3.15-3.41-5.83-3.51a9.89,9.89,0,0,0-2.57.89c-2.17,1.47-4.34,3-6.36,4.67C65,69,64.23,72,65.54,75.7a86.19,86.19,0,0,0,6.29,13.87,89,89,0,0,0,11.86,16.21c2.14,2.32,4.49,4.46,6.79,6.63a63.23,63.23,0,0,0,9.87,7.6c2.85,1.78,5.73,3.54,8.7,5.11,2.71,1.43,5.57,2.59,8.36,3.87,3.36,1.54,6.39.87,9.27-1.31a24,24,0,0,0,6.09-6.94C134.4,118,134.21,115.56,131.86,113.49ZM121.37,91.23a1.45,1.45,0,0,0,1.12,1.59c.84.22,1.65.15,2-.7a10.28,10.28,0,0,0,.39-2.25,22,22,0,0,0-2.78-10.4,19.91,19.91,0,0,0-7.51-7.7,26.71,26.71,0,0,0-8.11-3,24.16,24.16,0,0,0-3.5-.37A1.63,1.63,0,0,0,101.4,70c0,1.12.47,1.88,1.32,2,1.56.24,3.12.43,4.66.76A17,17,0,0,1,119,81.15,20.49,20.49,0,0,1,121.37,91.23ZM105.56,76.91a1.8,1.8,0,0,0-1.88,1.69,1.73,1.73,0,0,0,1.4,1.81c.88.22,1.8.23,2.67.44a6,6,0,0,1,4.78,4.4c.33,1.21.48,2.47.75,3.69a1.61,1.61,0,0,0,2.6,1,5.7,5.7,0,0,0,1-1.7c-.29-1.32-.49-2.38-.74-3.42C114.71,79,110,77.2,105.56,76.91Z"/><g id="Shadow"><path id="_03" data-name="03" class="cls-4" d="M73.23,164.51c1.08-1.17,2.11-2.38,3.2-3.55,3.37-3.65,6.77-7.28,10.15-10.93,1.3-1.4,2.57-2.82,3.86-4.22s2.48-3.1,4.83-2.24c4.75-.11,9.49-.18,14.24-.35a59.08,59.08,0,0,0,6.77-.59c3.29-.51,6.55-1.17,9.81-1.85a53.86,53.86,0,0,0,11-3.2,28.18,28.18,0,0,0,10.51-7.85,32.38,32.38,0,0,0,4.53-7.3,40.52,40.52,0,0,0,2.74-8.7c.37-1.81.58-3.65.78-5.48.29-2.72.51-5.44.74-8.16.1-1.21.16-2.43.2-3.64.07-2.47.26-5,.14-7.42-.17-3.53-.53-7-.91-10.57a46.07,46.07,0,0,0-1-6.31c-.59-2.38-1.42-4.7-2.18-7A30.67,30.67,0,0,0,148,56.29c-3.15-4.2-7.54-6.68-12.3-8.59a61.7,61.7,0,0,0-6.11-2.05q-3.24-.91-6.56-1.54c-2.19-.42-4.4-.73-6.62-1-3.55-.37-7.12-.84-10.68-.9-6-.1-11.95-.31-17.9.51-1.78.25-3.59.31-5.35.63-2.42.46-4.81,1.09-7.22,1.63a45.59,45.59,0,0,0-11,4.1,28.57,28.57,0,0,0-7,4.91,31.93,31.93,0,0,0-5.37,7.21,44.06,44.06,0,0,0-4,10.53,53.37,53.37,0,0,0-1.06,6.42A68.5,68.5,0,0,0,46,86.62c0,8.07-.57,16.19,1.1,24.18a58.39,58.39,0,0,0,2.13,8.3A33.07,33.07,0,0,0,55.62,130a29.46,29.46,0,0,0,8.46,6.75c2.59,1.34,5.34,2.35,8.12,3.56v25A9.8,9.8,0,0,0,73.23,164.51ZM100.29,60.3h1.6a35.34,35.34,0,0,1,13.34,3.28,32.46,32.46,0,0,1,10.44,8.13,29.3,29.3,0,0,1,6.07,11.87,40.22,40.22,0,0,1,1.34,8.87c0,1,.39,1.87-.17,2.81a1.78,1.78,0,0,1-1.74,1,1.75,1.75,0,0,1-1.52-1.73c-.28-2.8-.44-5.63-1-8.39a26,26,0,0,0-5.2-11.41,28.35,28.35,0,0,0-11.23-8.58,26.55,26.55,0,0,0-8.41-2.07c-1.21-.1-2.42-.13-3.64-.19A2.07,2.07,0,0,1,98.48,62,1.77,1.77,0,0,1,100.29,60.3Zm7.09,12.44c-1.54-.33-3.1-.52-4.66-.76-.85-.13-1.35-.89-1.32-2A1.63,1.63,0,0,1,103,68.45a24.16,24.16,0,0,1,3.5.37,26.71,26.71,0,0,1,8.11,3,19.91,19.91,0,0,1,7.51,7.7,22,22,0,0,1,2.78,10.4,10.28,10.28,0,0,1-.39,2.25c-.35.85-1.16.92-2,.7a1.45,1.45,0,0,1-1.12-1.59A20.49,20.49,0,0,0,119,81.15,17,17,0,0,0,107.38,72.74Zm9.47,15.47a5.7,5.7,0,0,1-1,1.7,1.61,1.61,0,0,1-2.6-1c-.27-1.22-.42-2.48-.75-3.69a6,6,0,0,0-4.78-4.4c-.87-.21-1.79-.22-2.67-.44a1.73,1.73,0,0,1-1.4-1.81,1.8,1.8,0,0,1,1.88-1.69c4.48.29,9.15,2.13,10.55,7.88C116.36,85.83,116.56,86.89,116.85,88.21Zm-45,1.36A86.19,86.19,0,0,1,65.54,75.7C64.23,72,65,69,67.9,66.61c2-1.68,4.19-3.2,6.36-4.67a9.89,9.89,0,0,1,2.57-.89c2.68.1,4.36,1.71,5.83,3.51,2,2.53,4,5.13,5.94,7.76a14.7,14.7,0,0,1,2.94,6.4,3.44,3.44,0,0,1-1.16,3c-1.24,1.17-2.57,2.26-3.89,3.34a4.58,4.58,0,0,0-1.61,5.2,24.59,24.59,0,0,0,6.42,11,35.05,35.05,0,0,0,9.48,7.26,12.57,12.57,0,0,0,5.32,1.7,4,4,0,0,0,3.31-1.56c.84-1,1.61-2.12,2.46-3.15a5.56,5.56,0,0,1,6.69-1.35,55.32,55.32,0,0,1,10.74,7.28c.82.7,1.74,1.3,2.56,2,2.35,2.07,2.54,4.52.91,7.25a24,24,0,0,1-6.09,6.94c-2.88,2.18-5.91,2.85-9.27,1.31-2.79-1.28-5.65-2.44-8.36-3.87-3-1.57-5.85-3.33-8.7-5.11a63.23,63.23,0,0,1-9.87-7.6c-2.3-2.17-4.65-4.31-6.79-6.63A89,89,0,0,1,71.83,89.57Z"/><path id="_02" data-name="02" class="cls-4" d="M36,92.92h0Z"/><path id="_01" data-name="01" class="cls-4" d="M202.31,96.31,153.74,47.74a35.11,35.11,0,0,1,5.31,7.43,51.43,51.43,0,0,1,4.63,12,80.14,80.14,0,0,1,1.58,8.17c.49,3.35.92,6.71,1.12,10.08s.11,6.6,0,9.89c-.1,3.49-.24,7-.58,10.46a88.9,88.9,0,0,1-2,13.57,43,43,0,0,1-8.33,17.09A36.86,36.86,0,0,1,139,147.75a81.73,81.73,0,0,1-14.68,3.76c-3.39.52-6.82.88-10.22,1.34-6.23.84-12.49.49-18.74.53-1.4,0-2.79-.27-4.18-.32a1.56,1.56,0,0,0-1.08.48c-2.84,3.12-5.64,6.26-8.46,9.39-1.32,1.46-2.64,2.92-4,4.36a7.93,7.93,0,0,1-4.73,2.54,4,4,0,0,1-2.72-.82v0l33.38,33.37a101.2,101.2,0,0,0,98.9-101.18C202.43,99.57,202.39,97.94,202.31,96.31Z"/></g></g></g></g></g></svg>