<svg xmlns="http://www.w3.org/2000/svg" viewBox="0 0 202.47 202.46"><defs><style>.cls-1{isolation:isolate;}.cls-2{fill:#55ba63;}.cls-3{fill:#fff;}.cls-4{fill:#231f20;opacity:0.3;mix-blend-mode:multiply;}</style></defs><title>Asset 38</title><g class="cls-1"><g id="Layer_2" data-name="Layer 2"><g id="Social_Media_Icons" data-name="Social Media Icons"><g id="Evernote"><path class="cls-2" d="M202.47,101.23q0,3.21-.21,6.36a101.08,101.08,0,1,1,.21-6.36Z"/><path id="Logo" class="cls-3" d="M72,47.73c.13-1.87.52-3.72.87-6l-21.39,22a18.66,18.66,0,0,1,6.89-1.08H70c1.68,0,2.21-.48,2.21-2.16,0-2.63,0-5.27-.09-7.9C72.09,51,71.9,49.35,72,47.73Zm82.26,55.79c-.22-6-.37-12-.58-17.94-.08-2.22-.14-4.45-.35-6.66-.57-6.12-1.12-12.25-1.86-18.35-.51-4.21-2.58-7.54-6.69-9.12A27.37,27.37,0,0,0,138.94,50c-5.08-.77-10.17-1.55-15.28-2-3.74-.33-7.52-.24-11.28-.2-1.11,0-1.46-.39-1.73-1.35a9.39,9.39,0,0,0-6.12-6.71c-5.21-1.84-10.62-2.08-16-1.8a22.77,22.77,0,0,0-6.42,1.3c-4,1.43-6.2,3.93-6.12,8.67.07,4.22.08,8.45.07,12.67a5,5,0,0,1-5.35,5.36c-4.22,0-8.45,0-12.67,0s-7.86,2.35-9.08,5.68a16.77,16.77,0,0,0-.62,7.79q1,8.06,2.4,16c1.2,6.87,2.48,13.73,4.9,20.3,1.17,3.19,3.07,5.68,6.57,6.64,2.54.7,5,1.66,7.57,2.36s4.88,1.2,7.34,1.67,5.23.92,7.85,1.27c2.86.39,5.73.67,8.6,1,2.46.25,3.9-1.15,4.8-3.21a41.72,41.72,0,0,0,3.32-15.77c0-.84,0-1.67,0-2.51h.42a7,7,0,0,1,.12.76,53.21,53.21,0,0,0,.33,5.94c.77,4.49,3.09,7.89,7.78,8.89A115.6,115.6,0,0,0,123.74,125c6.16.58,8,3.67,8.88,8.46a66.37,66.37,0,0,1,.61,11.47c0,3.43-1.57,5.6-5,6a74.19,74.19,0,0,1-12,.25c-3.54-.16-4.08-1.77-4.45-4.26s.6-5,3.79-5.27c1.78-.15,3.55-.4,5.34-.61a1,1,0,0,0,.07-.4,13.11,13.11,0,0,1,.51-7.51c.33-.83-.47-1-1.17-1-3.34.1-6.7.05-10,.37a9.38,9.38,0,0,0-6.48,3.26,13.09,13.09,0,0,0-2.92,8.26,77.73,77.73,0,0,0,.51,10.67,9.62,9.62,0,0,0,5.35,7.69,22.1,22.1,0,0,0,9.68,2.17c5.66.13,11.34,0,17-.26a12.15,12.15,0,0,0,9.38-5.24c2.34-3.17,3.67-6.77,5-10.42,2.33-6.32,3.24-12.94,4.47-19.5.61-3.27.75-6.63,1.22-9.93A87.61,87.61,0,0,0,154.29,103.52Zm-18.95-4c-4-1.92-8.36-1.72-12.65-1.62-.21-2.63,1.49-5.78,3.53-6.71a7.06,7.06,0,0,1,7.2,1.06C134.89,93.58,136.05,97.84,135.34,99.47Z"/><path id="_03" data-name="03" class="cls-4" d="M126.22,91.14c-2,.93-3.74,4.08-3.53,6.71,4.29-.1,8.62-.3,12.65,1.62.71-1.63-.45-5.89-1.92-7.27A7.06,7.06,0,0,0,126.22,91.14Z"/><path id="_02" data-name="02" class="cls-4" d="M148.65,54a11.39,11.39,0,0,1,2.85,6.59c.74,6.1,1.29,12.23,1.86,18.35.21,2.21.27,4.44.35,6.66.21,6,.36,12,.58,17.94a87.61,87.61,0,0,1-.77,15.69c-.47,3.3-.61,6.66-1.22,9.93-1.23,6.56-2.14,13.18-4.47,19.5-1.34,3.65-2.67,7.25-5,10.42a12.15,12.15,0,0,1-9.38,5.24c-5.65.3-11.33.39-17,.26a22.1,22.1,0,0,1-9.68-2.17,9.6,9.6,0,0,1-5.35-7.69,77.73,77.73,0,0,1-.51-10.67,13.09,13.09,0,0,1,2.92-8.26,9.38,9.38,0,0,1,6.48-3.26c3.32-.32,6.68-.27,10-.37.7,0,1.5.18,1.17,1a13.11,13.11,0,0,0-.51,7.51,1,1,0,0,1-.07.4c-1.79.21-3.56.46-5.34.61-3.19.29-4.18,2.64-3.79,5.27s.91,4.1,4.45,4.26a74.19,74.19,0,0,0,12-.25c3.4-.41,5-2.58,5-6a66.37,66.37,0,0,0-.61-11.47c-.84-4.79-2.72-7.88-8.88-8.46a115.6,115.6,0,0,1-13.44-2.25c-4.69-1-7-4.4-7.78-8.89a53.21,53.21,0,0,1-.33-5.94,6.5,6.5,0,0,0-.12-.75h-.42c0,.83,0,1.66,0,2.5a41.72,41.72,0,0,1-3.32,15.77c-.9,2.06-2.34,3.46-4.8,3.21-2.87-.3-5.74-.58-8.6-1-2.62-.35-5.25-.77-7.85-1.27s-4.92-1-7.34-1.67-5-1.66-7.57-2.36a8.59,8.59,0,0,1-3-1.43L135,196.7a101.24,101.24,0,0,0,67.31-89.11Z"/><path id="_01" data-name="01" class="cls-4" d="M72.9,41.73c0,.27-.08.51-.12.77-.15.92-.3,1.8-.43,2.62s-.26,1.75-.32,2.61a23,23,0,0,0,0,3c0,.63.06,1.26.07,1.88,0,2,.06,4,.07,6,0,.63,0,1.27,0,1.9,0,1.68-.53,2.16-2.21,2.16H58.4c-.58,0-1.16,0-1.72.05a19.47,19.47,0,0,0-4,.63,11.63,11.63,0,0,0-1.14.39h0l2.85,2.85A11,11,0,0,1,58,65.94c4.22,0,8.45,0,12.67,0A5,5,0,0,0,76,60.58c0-4.22,0-8.45-.07-12.67a10.74,10.74,0,0,1,.3-2.83Z"/></g></g></g></g></svg>