<svg xmlns="http://www.w3.org/2000/svg" viewBox="0 0 203.51 203.51"><defs><style>.cls-1{isolation:isolate;}.cls-2{fill:#429dd7;}.cls-3{fill:#fff;}.cls-4{opacity:0.3;mix-blend-mode:multiply;}</style></defs><title>Asset 2</title><g class="cls-1"><g id="Layer_2" data-name="Layer 2"><g id="Social_Media_Icons" data-name="Social Media Icons"><g id="Twitter"><path id="Base" class="cls-2" d="M101.75,0a101.76,101.76,0,0,0,0,203.51c2.53,0,5-.1,7.51-.28A101.75,101.75,0,0,0,203.5,102.7c0-.32,0-.63,0-.94A101.76,101.76,0,0,0,101.75,0Z"/><path id="Logo" class="cls-3" d="M44.1,138.07l.25.19c1.66,1,3.3,2,5,2.86a63.64,63.64,0,0,0,17,6.1c2.61.52,5.25.93,7.9,1.19,2.33.22,4.69.17,7,.22a60.79,60.79,0,0,0,12.41-1.13A64.45,64.45,0,0,0,110,142.23a63.67,63.67,0,0,0,21.54-16.81,70.07,70.07,0,0,0,14.21-28,61.71,61.71,0,0,0,1.85-11.53c.15-2.36.1-4.73.12-7.09a1,1,0,0,1,.42-.87,46.68,46.68,0,0,0,9.09-8.78c.76-1,1.48-2,2.21-3a49,49,0,0,1-13.2,3.47,24.22,24.22,0,0,0,10.1-13l-.34.19a47.59,47.59,0,0,1-14.3,5.47.65.65,0,0,1-.68-.19,26.46,26.46,0,0,0-2-1.83,23.22,23.22,0,0,0-19.91-4.85,22.84,22.84,0,0,0-14.65,9.77,23.21,23.21,0,0,0-3.9,16.91c.08.61.2,1.21.32,1.92C81,82.63,64.84,74.33,52,59.23a23.49,23.49,0,0,0-2.57,17.16A23.73,23.73,0,0,0,59.2,90.76a23.18,23.18,0,0,1-10.53-2.91A23.49,23.49,0,0,0,53.91,103a23.86,23.86,0,0,0,13.52,8.4,22.94,22.94,0,0,1-10.46.37,23.93,23.93,0,0,0,22,16.53A47.62,47.62,0,0,1,44.1,138.07Z"/><path id="Shadow" class="cls-4" d="M203.5,102.7,156.86,56.06l-1.37,1,.48-.26.34-.19a24.22,24.22,0,0,1-10.1,13,48.92,48.92,0,0,0,13.2-3.47c-.73,1-1.45,2-2.21,3a46.68,46.68,0,0,1-9.09,8.78,1,1,0,0,0-.42.87c0,2.36,0,4.73-.12,7.09a61.71,61.71,0,0,1-1.85,11.53,70.07,70.07,0,0,1-14.21,28A63.67,63.67,0,0,1,110,142.23a64.45,64.45,0,0,1-16.28,5.27,60.79,60.79,0,0,1-12.41,1.13c-2.35,0-4.71,0-7-.22-2.65-.26-5.29-.67-7.9-1.19a63.64,63.64,0,0,1-17-6.1c-1.69-.9-3.33-1.91-5-2.86l-.25-.19,65.16,65.16A101.75,101.75,0,0,0,203.5,102.7Z"/></g></g></g></g></svg>