<svg xmlns="http://www.w3.org/2000/svg" viewBox="0 0 202.49 202.49"><defs><style>.cls-1{isolation:isolate;}.cls-2{fill:#faa51c;}.cls-3{fill:#fff;}.cls-4{fill:#231f20;opacity:0.3;mix-blend-mode:multiply;}</style></defs><title>Asset 28</title><g class="cls-1"><g id="Layer_2" data-name="Layer 2"><g id="Social_Media_Icons" data-name="Social Media Icons"><g id="Bing"><path id="Base" class="cls-2" d="M202.49,101.24a100.94,100.94,0,0,1-10.27,44.49l-.68,1.35a101.28,101.28,0,0,1-80.1,54.9c-1.33.13-2.66.24-4,.31-2,.14-4.11.2-6.19.2A101.25,101.25,0,1,1,202.49,101.24Z"/><path id="Logo" class="cls-3" d="M82.15,136.16c-.07-.11-.12-.15-.12-.19,0-4,0-8,0-12q0-31.22,0-62.43,0-7.41,0-14.82c0-.48-.08-.88-.57-1.06-1-.37-2.11-.7-3.17-1.06-1.38-.48-2.75-1-4.13-1.47C72.61,42.53,71,42,69.37,41.39c-2-.68-4-1.32-6-2s-4-1.49-6.06-2.18c-1.27-.43-1.28-.38-1.28,1V148.93a7.75,7.75,0,0,1,0,1.08,1.57,1.57,0,0,0,1,1.74c4,2.22,8,4.48,12,6.72s8.24,4.64,12.37,6.92a1.25,1.25,0,0,0,1,0c3.53-2,7-4,10.56-6,4-2.3,7.93-4.62,11.91-6.91s7.75-4.41,11.62-6.63q7.22-4.14,14.41-8.3,7.36-4.26,14.74-8.49a1.28,1.28,0,0,0,.76-1.27c0-4.35,0-8.69,0-13,0-4.94,0-9.88,0-14.81a1.07,1.07,0,0,0-.51-.8,16.82,16.82,0,0,0-1.84-.67c-1.67-.6-3.32-1.22-5-1.8-2.6-.9-5.21-1.75-7.8-2.65-2.39-.82-4.76-1.68-7.14-2.53l-5.91-2.11c-1.63-.59-3.27-1.16-4.92-1.73l-6.08-2.11c-1.62-.57-3.23-1.18-4.86-1.74-2-.68-4-1.31-6-2s-3.89-1.42-5.84-2.12c-.43-.15-.88-.24-1.45-.39.41,1.07.75,2,1.12,2.91.8,1.94,1.62,3.88,2.4,5.83C93.83,91,95,93.87,96.13,96.8s2.19,5.63,3.35,8.42c.38.9.52,2,1.64,2.45,4,1.8,7.91,3.67,11.87,5.51l5,2.32Z"/><g id="Shadow"><path class="cls-4" d="M82.09,46.69q0,7.41,0,14.82,0,31.21,0,62.43c0,4,0,8,0,12,0,0,0,.08.12.19L118,115.5l-5-2.32c-4-1.84-7.89-3.71-11.87-5.51-1.12-.5-1.26-1.55-1.64-2.45-1.16-2.79-2.24-5.61-3.35-8.42S93.83,91,92.65,88c-.78-2-1.6-3.89-2.4-5.83-.37-.91-.71-1.84-1.12-2.91.57.15,1,.24,1.45.39,2,.7,3.88,1.44,5.84,2.12s4,1.32,6,2c1.63.56,3.24,1.17,4.86,1.74l6.08,2.11c1.65.57,3.29,1.14,4.92,1.73l5.91,2.11L128.4,93,82.09,46.69Z"/><path class="cls-4" d="M146.42,99.94c0,4.94,0,9.87,0,14.81,0,4.35,0,8.69,0,13a1.28,1.28,0,0,1-.76,1.27q-7.38,4.22-14.74,8.49-7.2,4.15-14.41,8.3c-3.87,2.22-7.75,4.41-11.62,6.63S97,157.09,93,159.39c-3.52,2-7,4.05-10.56,6a1.25,1.25,0,0,1-1,0c-4.13-2.28-8.24-4.61-12.37-6.92s-8-4.5-12-6.72a4.39,4.39,0,0,1-.39-.27l50.82,50.81c1.34-.07,2.67-.18,4-.31a101.28,101.28,0,0,0,80.1-54.9l.68-1.35Z"/></g></g></g></g></g></svg>