<svg xmlns="http://www.w3.org/2000/svg" viewBox="0 0 202.49 202.49"><defs><style>.cls-1{isolation:isolate;}.cls-2{fill:#6b6b6b;}.cls-3{fill:#fff;}.cls-4{fill:#231f20;opacity:0.3;mix-blend-mode:multiply;}</style></defs><title>Asset 31</title><g class="cls-1"><g id="Layer_2" data-name="Layer 2"><g id="Social_Media_Icons" data-name="Social Media Icons"><g id="Wikipedia"><path id="Base" class="cls-2" d="M202.49,101.24a101.56,101.56,0,1,1,0-1.14C202.49,100.48,202.49,100.86,202.49,101.24Z"/><path id="Logo" class="cls-3" d="M56.37,75.83h.72c2,0,4,0,6,0a1.57,1.57,0,0,0,1.68-1.69c0-1.31,0-2.62,0-3.93a1.6,1.6,0,0,0-1.71-1.72H31.64A1.57,1.57,0,0,0,30,70.2c0,1.23.05,2.45,0,3.67a1.75,1.75,0,0,0,2,2c2.66,0,5.33,0,8,0a.69.69,0,0,1,.73.46q18.88,39.79,37.79,79.6c.37.78.75,1.56,1.11,2.34a1.64,1.64,0,0,0,3.07.06l.09-.17,19.35-35.61.29-.52c.13.25.23.42.32.6L120.51,158a6.23,6.23,0,0,0,.41.71,1.56,1.56,0,0,0,2.53,0,4.65,4.65,0,0,0,.34-.62Q143,117.23,162.16,76.39a.84.84,0,0,1,.92-.56c2.56,0,5.12,0,7.69,0a1.6,1.6,0,0,0,1.8-1.82c0-1.27,0-2.55,0-3.82a1.58,1.58,0,0,0-1.71-1.71h-27.4a1.6,1.6,0,0,0-1.74,1.74c0,1.23,0,2.45,0,3.67,0,1.37.57,2,1.94,2h8.54l-28.06,62.31c-.09-.17-.16-.27-.21-.38q-7.1-14.58-14.17-29.16a.81.81,0,0,1,0-.68q8.7-15.87,17.43-31.73a.63.63,0,0,1,.64-.37c1.49,0,3,0,4.48,0A1.5,1.5,0,0,0,134,74.27q.06-2.11,0-4.23a1.53,1.53,0,0,0-1.65-1.56H109.77a1.56,1.56,0,0,0-1.68,1.69c0,1.24,0,2.48,0,3.72a1.73,1.73,0,0,0,2,2c2.17,0,4.34,0,6.52,0h.62L104.93,98.3c-3.43-7.52-6.83-15-10.25-22.44l.58,0c1.12,0,2.24,0,3.36,0a1.56,1.56,0,0,0,1.74-1.73q0-1.93,0-3.87a1.58,1.58,0,0,0-1.77-1.75h-23a1.62,1.62,0,0,0-1.79,1.8c0,1.22,0,2.45,0,3.67a1.66,1.66,0,0,0,1.9,1.9c1.14,0,2.28,0,3.42,0a.78.78,0,0,1,.84.52q8.67,17.58,17.36,35.13a.87.87,0,0,1,0,.93q-6.8,12.66-13.56,25.32c-.08.15-.17.28-.3.51C74.41,117.42,65.41,96.67,56.37,75.83Z"/><g id="Shadow"><path id="_04" data-name="04" class="cls-4" d="M202.48,100.1,172.57,70.19h0c0,1.27,0,2.55,0,3.82a1.6,1.6,0,0,1-1.8,1.82c-2.57,0-5.13,0-7.69,0a.84.84,0,0,0-.92.56Q143,117.24,123.79,158.08a4.65,4.65,0,0,1-.34.62,1.56,1.56,0,0,1-2.53,0,6.23,6.23,0,0,1-.41-.71l-17.85-35.4c-.09-.18-.19-.35-.32-.6l-.29.52L82.7,158.12l-.09.17a1.63,1.63,0,0,1-1.56,1,1.75,1.75,0,0,1-.33-.05l.11.28,40.86,40.86a101.27,101.27,0,0,0,80.8-99.18C202.49,100.86,202.49,100.48,202.48,100.1Z"/><path id="_03" data-name="03" class="cls-4" d="M117.16,75.84h-.62c-2.18,0-4.35,0-6.52,0a1.73,1.73,0,0,1-2-2h0l-7.71-3.66q0,1.93,0,3.87a1.56,1.56,0,0,1-1.74,1.73c-1.12,0-2.24,0-3.36,0l-.58,0c3.42,7.49,6.82,14.92,10.25,22.44Z"/><path id="_02" data-name="02" class="cls-4" d="M143.64,75.84c-1,0-1.61-.34-1.83-1.1L134,70q.06,2.11,0,4.23a1.5,1.5,0,0,1-1.64,1.56c-1.49,0-3,0-4.48,0a.63.63,0,0,0-.64.37q-8.72,15.87-17.43,31.73a.81.81,0,0,0,0,.68q7.06,14.6,14.17,29.16c0,.11.12.21.21.38l28.06-62.31h-8.55Z"/><path id="_01" data-name="01" class="cls-4" d="M64.78,70.2c0,1.31,0,2.62,0,3.93a1.57,1.57,0,0,1-1.68,1.69c-2,0-4,0-6,0h-.72c9,20.84,18,41.59,27.06,62.42.13-.23.22-.36.3-.51q6.78-12.66,13.56-25.32a.87.87,0,0,0,0-.93Q88.6,93.94,79.93,76.36a.78.78,0,0,0-.84-.52c-1.14,0-2.27,0-3.41,0h0A1.68,1.68,0,0,1,74,75L64.78,70.2Z"/></g></g></g></g></g></svg>