<svg xmlns="http://www.w3.org/2000/svg" viewBox="0 0 202.49 202.49"><defs><style>.cls-1{isolation:isolate;}.cls-2{fill:#2d2d2d;}.cls-3{fill:#fff;}.cls-4{fill:#231f20;opacity:0.3;mix-blend-mode:multiply;}</style></defs><title>Asset 48</title><g class="cls-1"><g id="Layer_2" data-name="Layer 2"><g id="Social_Media_Icons" data-name="Social Media Icons"><g id="DeviantArt"><path id="Base" class="cls-2" d="M202.49,101.24a101.18,101.18,0,0,1-94.31,101q-3.44.24-6.93.24A101.25,101.25,0,1,1,202.49,101.24Z"/><path id="Logo" class="cls-3" d="M171.7,98.72a35.4,35.4,0,0,0-11-9.14,85.37,85.37,0,0,0-23.91-9,125,125,0,0,0-20.27-3,151.88,151.88,0,0,0-30.87,1.79,1.42,1.42,0,0,1-1.74-.91c-1.43-2.75-3-5.45-4.41-8.18a1.42,1.42,0,0,0-1.89-.87c-1.55.41-3.18.49-4.74.85-3,.7-6,1.49-9.23,2.28,1.84,3.9,3.54,7.5,5.25,11.14-.42.23-.62.39-.86.49a57.29,57.29,0,0,0-13,7.2C46.68,97.64,40.8,105.51,38.93,116a30.7,30.7,0,0,0,3.84,20.86c.47.82.9,1.21,2,.9,9.57-2.69,19.16-5.27,28.75-7.9l27-7.44c2-.54,4-1.13,6.1-1.75L89.19,88.27a11,11,0,0,1,1.25-.33c4.62-.54,9.23-1.31,13.87-1.55,9.78-.5,19.33.67,28.26,5.06a38.29,38.29,0,0,1,10.54,7.37,8.35,8.35,0,0,1-.88.37c-6.49,1.58-13,3.14-19.46,4.73-.94.23-1.34-.24-1.77-.94-2.43-4-4.93-7.88-7.35-11.85a2.45,2.45,0,0,0-2.4-1.44c-2.84.13-5.68,0-8.5.22-2.59.17-5.16.61-8.08,1,.73,1.27,1.28,2.23,1.8,3.18,4.43,8,8.88,16,13.25,24a1.91,1.91,0,0,0,2.66,1.09c6.21-1.78,12.44-3.46,18.68-5.17l39.72-10.88c1-.26,1.9-.58,3.07-.94C173.05,100.87,172.47,99.73,171.7,98.72ZM61.82,118.64c-2.42-8.31-.37-18.9,11.71-25.27l9.6,20.11Z"/><g id="Shadow"><path id="_03" data-name="03" class="cls-4" d="M83.13,113.48l-9.6-20.11c-12.08,6.37-14.13,17-11.71,25.27Z"/><path id="_02" data-name="02" class="cls-4" d="M83.88,78.47a1.42,1.42,0,0,0,1.74.91L88.2,79l-8.73-8.73h0C80.92,73,82.45,75.72,83.88,78.47Z"/><path id="_01" data-name="01" class="cls-4" d="M199.07,127.39a101.27,101.27,0,0,1-90.89,74.86L43.71,137.77a1.8,1.8,0,0,0,1.07,0c9.57-2.69,19.16-5.27,28.75-7.9l27-7.44c2-.54,4-1.13,6.1-1.75L89.19,88.27a11,11,0,0,1,1.25-.33c4.62-.54,9.23-1.31,13.87-1.55,9.78-.5,19.33.67,28.26,5.06a38.29,38.29,0,0,1,10.54,7.37,8.35,8.35,0,0,1-.88.37q-9.73,2.36-19.46,4.73c-.94.23-1.34-.24-1.77-.94-2.43-4-4.93-7.88-7.35-11.85a2.45,2.45,0,0,0-2.4-1.44c-2.84.13-5.68,0-8.5.22-2.59.17-5.16.61-8.08,1,.73,1.28,1.28,2.24,1.8,3.19,4.43,8,8.88,16,13.25,24a1.91,1.91,0,0,0,2.66,1.09c6.21-1.78,12.44-3.46,18.68-5.17l39.72-10.88c1-.26,1.9-.58,3.07-.94Z"/></g></g></g></g></g></svg>