<svg xmlns="http://www.w3.org/2000/svg" viewBox="0 0 202.49 202.49"><defs><style>.cls-1{isolation:isolate;}.cls-2{fill:#ffca19;}.cls-3{fill:#fff;}.cls-4{fill:#231f20;opacity:0.3;mix-blend-mode:multiply;}</style></defs><title>Asset 10</title><g class="cls-1"><g id="Layer_2" data-name="Layer 2"><g id="Social_Media_Icons" data-name="Social Media Icons"><g id="Snapchat"><path id="Base" class="cls-2" d="M202.49,101.25a101.17,101.17,0,0,1-100.2,101.23h-1A101.25,101.25,0,1,1,202.49,101.25Z"/><path id="Logo" class="cls-3" d="M36.09,136.06a3.32,3.32,0,0,0,1.37,1.58,19.59,19.59,0,0,0,5.1,2.22,34.47,34.47,0,0,0,3.62,1c1.32.28,2.66.47,4,.7.61.11,1.24.18,1.85.35,1.63.46,2.25,1.81,2.65,3.27.45,1.65.8,3.33,1.24,5a.73.73,0,0,0,.57.45c.64,0,1.28-.19,1.92-.29,1.62-.23,3.25-.43,4.88-.67a27.33,27.33,0,0,1,10.2.47,17,17,0,0,1,4.86,2c3.09,1.88,6,4,9.07,6a25.09,25.09,0,0,0,11.67,4.08,25.46,25.46,0,0,0,8.25-.66,22.9,22.9,0,0,0,7.08-3.07c2.82-1.81,5.59-3.71,8.36-5.59a20.08,20.08,0,0,1,11.09-3.44c2.08,0,4.18.12,6.26.25,1,.06,1.92.25,2.87.4s1.86.35,2.79.5c.37.06.61,0,.71-.49.38-1.7.77-3.39,1.25-5.05.4-1.37.93-2.72,2.51-3.14.72-.2,1.47-.28,2.21-.41,1.28-.23,2.57-.41,3.84-.71a31.9,31.9,0,0,0,4.3-1.21,36.65,36.65,0,0,0,4.45-2.07,6.18,6.18,0,0,0,1.35-1.39c-.73-.18-1.24-.35-1.76-.43a25.12,25.12,0,0,1-6-1.85,35.3,35.3,0,0,1-9.41-5.91,47.31,47.31,0,0,1-9.14-10.66,30.75,30.75,0,0,1-4.06-8.42,6.77,6.77,0,0,1,2.12-7.19,17.43,17.43,0,0,1,6.76-3.44A24.89,24.89,0,0,0,150.21,96,7.72,7.72,0,0,0,152,94.55c.31-.35.76-.79.41-1.41a4.56,4.56,0,0,0-5.35-1.86,27.51,27.51,0,0,1-6.14,1.85,7.31,7.31,0,0,1-5.7-1.6,1.31,1.31,0,0,1-.49-1.42,9.19,9.19,0,0,0,.16-1.75c.11-2.57.24-5.15.32-7.73.11-3.43.26-6.87.23-10.3a34.5,34.5,0,0,0-.61-5.72,21.8,21.8,0,0,0-2.09-6.13,35.44,35.44,0,0,0-6.25-8.75,31.87,31.87,0,0,0-14.65-8.23c-1-.25-2-.49-3-.67a23.5,23.5,0,0,0-3.8-.54c-3.3,0-6.63-.33-9.91.3-1.71.32-3.44.58-5.12,1a39.22,39.22,0,0,0-4,1.45,28.09,28.09,0,0,0-7.39,4.32,29.74,29.74,0,0,0-7.68,8.91,40.33,40.33,0,0,0-2.46,5.24,19.2,19.2,0,0,0-.91,3.93A34.25,34.25,0,0,0,67,70.6c0,4,.15,8.08.29,12.13.09,2.55.28,5.1.38,7.65a1.58,1.58,0,0,1-.39,1,7.23,7.23,0,0,1-5.86,1.82,15.44,15.44,0,0,1-6-1.66,4.28,4.28,0,0,0-4.89.88c-.72.7-.8,1.17-.19,2a6.23,6.23,0,0,0,1.38,1.28c2.19,1.58,4.82,2.17,7.31,3.07a13.52,13.52,0,0,1,6.19,3.92,6.54,6.54,0,0,1,1.49,4,9.58,9.58,0,0,1-.95,4.22A46.84,46.84,0,0,1,58,123.07a39.83,39.83,0,0,1-11.45,9.39A34.14,34.14,0,0,1,36.09,136.06Z"/><path id="Shadow" class="cls-4" d="M200.07,123.31a101.26,101.26,0,0,1-97.78,79.17L37.46,137.64a19.59,19.59,0,0,0,5.1,2.22,34.47,34.47,0,0,0,3.62,1c1.32.28,2.66.47,4,.7.61.11,1.24.18,1.85.35,1.63.46,2.25,1.81,2.65,3.27.45,1.65.8,3.33,1.24,5a.73.73,0,0,0,.57.45c.64,0,1.28-.19,1.92-.29,1.62-.23,3.25-.43,4.88-.67a27.33,27.33,0,0,1,10.2.47,17,17,0,0,1,4.86,2c3.09,1.88,6,4,9.07,6a25.09,25.09,0,0,0,11.67,4.08,25.46,25.46,0,0,0,8.25-.66,22.9,22.9,0,0,0,7.08-3.07c2.82-1.81,5.59-3.71,8.36-5.59a20.08,20.08,0,0,1,11.09-3.44c2.08,0,4.18.12,6.26.25,1,.06,1.92.25,2.87.4s1.86.35,2.79.5c.37.06.61,0,.71-.49.38-1.7.77-3.39,1.25-5.05.4-1.37.93-2.72,2.51-3.14.72-.2,1.47-.28,2.21-.41,1.28-.23,2.57-.41,3.84-.71a31.9,31.9,0,0,0,4.3-1.21,36.65,36.65,0,0,0,4.45-2.07,6.18,6.18,0,0,0,1.35-1.39c-.73-.18-1.24-.35-1.76-.43a25.12,25.12,0,0,1-6-1.85,35.3,35.3,0,0,1-9.41-5.91,47.31,47.31,0,0,1-9.14-10.66,30.75,30.75,0,0,1-4.06-8.42,6.77,6.77,0,0,1,2.12-7.19,17.43,17.43,0,0,1,6.76-3.44A24.89,24.89,0,0,0,150.21,96,7.72,7.72,0,0,0,152,94.55c.31-.35.76-.79.41-1.41a4.56,4.56,0,0,0-5.35-1.86,27.51,27.51,0,0,1-6.14,1.85,7.31,7.31,0,0,1-5.7-1.6,1.31,1.31,0,0,1-.49-1.42,9.19,9.19,0,0,0,.16-1.75c.11-2.57.24-5.15.32-7.73.11-3.43.26-6.87.23-10.3a34.5,34.5,0,0,0-.61-5.72,21.8,21.8,0,0,0-2.09-6.13,35.44,35.44,0,0,0-6.25-8.75Z"/></g></g></g></g></svg>