<svg xmlns="http://www.w3.org/2000/svg" viewBox="0 0 50.72 82.59"><defs><style>.cls-1{fill:#231f20;}</style></defs><title>Asset 10</title><g id="Layer_2" data-name="Layer 2"><g id="_ÎÓÈ_1" data-name="—ÎÓÈ_1"><path class="cls-1" d="M15.38,30.86a4.33,4.33,0,1,0-4.33-4.32A4.32,4.32,0,0,0,15.38,30.86Z"/><path class="cls-1" d="M34.61,30.26a3,3,0,1,0-3-3A3,3,0,0,0,34.61,30.26Z"/><path class="cls-1" d="M36.09,77.22c-.68-1.81-1.74-12.57-2.05-15.91a25.37,25.37,0,0,0,9.28-41.74c2.76-4.2,5.9-12.59-6.9-19-3.85-1.93-7.22,1.2-.48,6,1.67,1,5.89,4.65,2.83,9.37a25.34,25.34,0,0,0-28.11.86c-4.21-5.14.42-9.12,2.2-10.23,6.73-4.8,3.36-7.93-.48-6C-1.76,7.64,3.54,17.14,6.31,20.74A25.36,25.36,0,0,0,16.68,61.31c-.32,3.34-1.38,14.1-2.06,15.91-11-4-12.07,5.37-12.07,5.37l16.64-.54-.53-20.12a25.35,25.35,0,0,0,13.39,0l-.52,20.12,16.64.54S47.1,73.2,36.09,77.22ZM35.7,20.53a5.65,5.65,0,1,1-5.65,5.65A5.65,5.65,0,0,1,35.7,20.53ZM15.5,18.84a7.34,7.34,0,1,1-7.33,7.34A7.34,7.34,0,0,1,15.5,18.84ZM22.23,50v5.91c-6.11-.93-15-5-14.79-16.6,0,0,1.16.22,3.13.49v5.75h7v-5a86.72,86.72,0,0,0,16-.27v4.46h7V39c.76-.2,1.52-.4,2.27-.64,1.56,5.13.22,14.58-13.57,17.28V50Z"/></g></g></svg>