<svg xmlns="http://www.w3.org/2000/svg" viewBox="0 0 72.58 87.78"><defs><style>.cls-1{fill:#231f20;}</style></defs><title>Asset 3</title><g id="Layer_2" data-name="Layer 2"><g id="_ÎÓÈ_1" data-name="—ÎÓÈ_1"><path class="cls-1" d="M23.08,34.75a3.46,3.46,0,1,0-3.46,3.46A3.46,3.46,0,0,0,23.08,34.75Z"/><path class="cls-1" d="M47.83,29a3.47,3.47,0,1,0,3.46,3.46A3.46,3.46,0,0,0,47.83,29Z"/><path class="cls-1" d="M72.58,38a5.64,5.64,0,0,0-10.21-3.3,34.07,34.07,0,0,0-7.48-9.34L58.43,2.39,46.71,20.1c-.6-.26-1.2-.5-1.81-.71L43,.23,37.33,17.86c-.45,0-.89,0-1.34,0a24.21,24.21,0,0,0-2.84.16L26.42,0,25.37,20.06c-.52.22-1,.46-1.54.72L11.8,6.16l5.44,19A33.61,33.61,0,0,0,8.41,37.13a4.61,4.61,0,1,0-2,6.87,22.49,22.49,0,0,0-.26,3.26,17.76,17.76,0,0,0,4.28,11.88L8.27,70.76,4.88,73.64l2.45-1L6.21,74.73l1.72-1.68-1.54,3.4,2.49-3-.63,2.67L10,73.93l1.48,1.47-1-4.11,3.26-9.09a32,32,0,0,0,14.42,5.49c-.09,1.08-1.71,5.26-2.09,8.93-.31,3.06.63,5.65.32,6.87-10.2-1.88-9,4.29-9,4.29l12.82-.54s-2-8.21-1.56-10.62S33,68.16,33,68.16c1.08.07,1.46.06,2.59.06,1.69,0,3.35-.08,5-.23,1.11,2,4.31,7.65,4.37,8.76.06,1.35-2.63,10.49-2.63,10.49l12.82.54s1.22-6.17-9-4.29c-.34-1.3,1.94-3.8,1.61-7.06-.39-3.84-3-8.32-3.35-9a33.57,33.57,0,0,0,12.79-4.82l4.63,8.46-.33,4.21,1.23-1.68,2.09,1.94L63.8,73l2.92,2.53-2.06-3.12,2,1.39L65.19,72l2.58.59L64,70.24l-3.6-10.12a17.36,17.36,0,0,0,5.44-12.86,23,23,0,0,0-.34-3.86,5.49,5.49,0,0,0,1.47.2A5.63,5.63,0,0,0,72.58,38ZM38.47,44a2.22,2.22,0,1,1-2.21,2.22A2.21,2.21,0,0,1,38.47,44Zm-5.64,0a2.22,2.22,0,1,1-2.21,2.22A2.21,2.21,0,0,1,32.83,44ZM13.4,36.8a6.54,6.54,0,1,1,6.54,6.54A6.54,6.54,0,0,1,13.4,36.8ZM36,58.19c-9.88.2-16.38,5.81-16.38,2.68,0-1.57,1.88-3.58,4.89-5.2l2.43,1.78,1-3.25a25.79,25.79,0,0,1,8.25-1.37,24.91,24.91,0,0,1,9.13,1.73l-.14,2.89,3.22-1.35c2.49,1.53,4,3.33,4,4.77C52.37,64,43.86,58,36,58.19ZM47.13,36.93a6.54,6.54,0,1,1,6.54-6.54A6.54,6.54,0,0,1,47.13,36.93Zm17,1a2.82,2.82,0,1,1,2.82,2.82A2.82,2.82,0,0,1,64.12,38Z"/></g></g></svg>