<svg xmlns="http://www.w3.org/2000/svg" viewBox="0 0 70.34 88.17"><defs><style>.cls-1{fill:#231f20;}</style></defs><title>Asset 18</title><g id="Layer_2" data-name="Layer 2"><g id="_ÎÓÈ_1" data-name="—ÎÓÈ_1"><path class="cls-1" d="M31.26,41.23a2.94,2.94,0,1,0-2.93-2.93A2.93,2.93,0,0,0,31.26,41.23Z"/><path class="cls-1" d="M39.39,41.23a2.94,2.94,0,1,0-2.94-2.93A2.93,2.93,0,0,0,39.39,41.23Z"/><path class="cls-1" d="M9.56,33.35c1.63-3.07,4.5-7.36.2-13.29C9.76,20.06,4.45,25.17,9.56,33.35Z"/><path class="cls-1" d="M61.45,20.79s-5.31,5.11-.2,13.29C62.89,31,65.75,26.72,61.45,20.79Z"/><path class="cls-1" d="M60.42,46l-.18-.09a21.81,21.81,0,0,0,3.14-9.61,9.71,9.71,0,0,0-2.76-19,9.53,9.53,0,0,0-4.33,1,25,25,0,0,0-2.33-2L56.52,0,41.23,10.56a34.18,34.18,0,0,0-12.73-.14L13.42,0l2.46,15.69a29.41,29.41,0,0,0-2.52,2,9.71,9.71,0,0,0-7.8,17.74,21.94,21.94,0,0,0,3,10.22c-.47.2-.78.35-.78.35S-9.43,58.2,7.3,68.77l0,0a7.94,7.94,0,0,0,.89,1.87c.28.37,1.79,1.38,1.19-.32-.14-.18.87.42,1.24.28.55-.46.18-.92,0-1.15s.5.55.87.14c.14-.23.5-.46,0-1.1-.09-.23-.32-1-.32-1s1.7,0,1.65-.46c0-.25-.92-.63-2.09-.49-1.8-.92-10.88-6.29-.36-16.28l1-.94a29.82,29.82,0,0,0,17,9.39,7,7,0,0,0,1.25,3.58c-4,7.13-5.9,21.14-5.9,21.14s-6.83,1.56-7,3.26,17.24,2,17.32.09c0-1.1-3.48-2.15-7.24-3.16,1-11.07,3.77-16.94,5.14-19.21a7,7,0,0,0,6.95,0c1.37,2.28,4.18,8.14,5.14,19.21-3.76,1-7.29,2.06-7.24,3.16.08,1.88,17.5,1.6,17.32-.09s-7-3.26-7-3.26-1.86-14-5.9-21.13a7,7,0,0,0,1.27-3.93h-.07a29.57,29.57,0,0,0,15-8.66l.56.55c9.3,8.83,3.29,14.05.52,15.78a16.11,16.11,0,0,0-3.66.93c-.49.17-.52,1.19.38,1,.38-.11.61-.18,1.26-.34,0,0-.61.5-.94.84s-1.16,2,1.42.91c-.15.18-1,1.16-.65,1.46s.29.85,1.56-.3a3.4,3.4,0,0,0-.55,1c-.23.65.08.87.95.47a7.23,7.23,0,0,0,2.36-3h0C78,58.4,60.42,46,60.42,46ZM34.67,15.29c4.29,4.42,1.43,7.62-.2,9.9C29.35,19.1,34.67,15.29,34.67,15.29Zm.65,15.12c5.27,0,9.54,3,9.54,6.79S40.59,44,35.32,44s-9.53-3-9.53-6.78S30.06,30.41,35.32,30.41ZM10,34.17a7.33,7.33,0,1,1,7.33-7.33A7.33,7.33,0,0,1,10,34.17ZM40.8,55.46,40,52.54l-1.18,3.64a14,14,0,0,1-2.07.36l-.94-3.25L34.7,56.54a13.25,13.25,0,0,1-3.06-.66l-1-3.34-.84,2.57a25,25,0,0,1-7.68-6.37h3L25.89,51l.63-2.22h1.71l1.33,4,1.12-4h1.21L33.63,54l1.47-5.19H36L37.75,54l1.47-5.18h1.09l1.34,4,1.14-4h2.08l.74,2.23.63-2.22H48.5A20.1,20.1,0,0,1,40.8,55.46ZM60.62,19.69A7.33,7.33,0,1,1,53.29,27,7.33,7.33,0,0,1,60.62,19.69Z"/></g></g></svg>