<svg xmlns="http://www.w3.org/2000/svg" viewBox="0 0 78.25 87"><defs><style>.cls-1{fill:#231f20;}</style></defs><title>Asset 11</title><g id="Layer_2" data-name="Layer 2"><g id="_ÎÓÈ_1" data-name="—ÎÓÈ_1"><path class="cls-1" d="M36.33,38.67c-1.45-1.26-3.22-1.6-3.94-.77s-.12,2.52,1.33,3.78,3.22,1.61,3.94.78S37.79,39.93,36.33,38.67Z"/><path class="cls-1" d="M43.25,38.67c-1.43,1.29-2,3-1.24,3.82s2.5.42,3.92-.88,2-3,1.23-3.81S44.67,37.37,43.25,38.67Z"/><path class="cls-1" d="M78.25,22.44a5.25,5.25,0,0,0-7-5A5.25,5.25,0,0,0,68,9.17a6.64,6.64,0,1,0-12.76-3A38,38,0,0,0,39.79,2.92,37.45,37.45,0,0,0,21.38,7.64c0-.12,0-.23,0-.35A6.64,6.64,0,1,0,8.6,9.78a5.26,5.26,0,0,0-3.18,7.4H5.26a5.27,5.27,0,0,0,0,10.53,5.36,5.36,0,0,0,1-.09,26.12,26.12,0,0,0-.48,5c0,10.51,6.27,19.73,15.73,25,0,7.13,2.15,25.23,2.15,25.23L15.55,87l12-.32s-.32-9.24-1-11.83c-.92-9.63,2-13,3.14-14a38.68,38.68,0,0,0,10.08,1.32A39.27,39.27,0,0,0,49,61.12c1.25,1.19,3.76,4.74,2.89,13.73-.65,2.59-1,11.83-1,11.83H63.18l-8.42-3.89s2.07-17.11,2.15-24.61C67,53,73.81,43.5,73.81,32.56a26.11,26.11,0,0,0-.46-4.87A5.27,5.27,0,0,0,78.25,22.44Zm-61.4,4.2A12.07,12.07,0,1,1,38.64,16.26a11.92,11.92,0,0,1,1,7.29,12,12,0,0,0-9,.38,6.35,6.35,0,0,0-1-3.34C28.33,18.4,26.23,17.26,25,18s-1.24,3.16.08,5.34a6.32,6.32,0,0,0,2.62,2.5,12.06,12.06,0,0,0-3.92,7A12.06,12.06,0,0,1,16.85,26.64Zm32.54,9.57a9.37,9.37,0,0,1-9.6,9.11,9.37,9.37,0,0,1-9.6-9.11,9.37,9.37,0,0,1,9.6-9.11A9.37,9.37,0,0,1,49.39,36.21ZM44,56.87l0-3.13-2.9.74L41.8,58a8.24,8.24,0,0,1-7.41-.69L35.16,54l-3.69-.24.33,1.65a36.83,36.83,0,0,1-7-9.83,31.1,31.1,0,0,0,4.4,1.67l-.69,1.57,1.79,1,.78-2a36.42,36.42,0,0,0,5.5,1l-.13,3.49,2.92-.65-.45-2.7a29,29,0,0,0,6.7-.64l-.42,3.34,3.4-.61-.89-3.27A24.79,24.79,0,0,0,54,44.71C51.19,49.41,47.84,54.34,44,56.87Zm16.15-27.5A10.06,10.06,0,0,1,55,32.83a10.15,10.15,0,0,0-2.74-5.76A7.92,7.92,0,0,0,57,23.32c1.91-3,2-6.39.25-7.51s-4.76.43-6.67,3.46a8.22,8.22,0,0,0-1.41,5.58,10.08,10.08,0,0,0-7-.47,10.11,10.11,0,1,1,18,5Z"/></g></g></svg>