<svg xmlns="http://www.w3.org/2000/svg" viewBox="0 0 81.02 86.17"><defs><style>.cls-1{fill:#231f20;}</style></defs><title>Asset 12</title><g id="Layer_2" data-name="Layer 2"><g id="_ÎÓÈ_1" data-name="—ÎÓÈ_1"><path class="cls-1" d="M59.08,27.59a1.63,1.63,0,1,0,1.63,1.63A1.62,1.62,0,0,0,59.08,27.59Z"/><path class="cls-1" d="M14.6,25.47a1.63,1.63,0,1,0,1.63,1.63A1.63,1.63,0,0,0,14.6,25.47Z"/><path class="cls-1" d="M37.84,35.46a5.6,5.6,0,1,0-5.6-5.6A5.6,5.6,0,0,0,37.84,35.46Z"/><path class="cls-1" d="M80.86,31.23c-.34-.27-1.1.13-1.7.89l-.92,1.15.25-.45c.38-.69.39-1.41,0-1.62s-1,.17-1.33.82c.21-.7.08-1.35-.3-1.49s-.58.09-.84.42l.4-1.16c.26-.74.13-1.45-.27-1.59s-.94.34-1.2,1.08L73.9,32.36a2.74,2.74,0,0,0-.13.71h0l-.76-2a1,1,0,1,0-1.79.67L72,33.8a.85.85,0,0,0,.31.41A3.33,3.33,0,0,0,72,35c-.68,2.16-3.46,10-8.26,9.72h-.47q0-.66,0-1.32A34.83,34.83,0,0,0,62,34a5.73,5.73,0,1,0-5-10.27,27.09,27.09,0,0,0-7.42-6.93,18.21,18.21,0,0,0,1.07-2c1.84-4.06,2-8,.24-8.75S46.29,7.89,44.44,12a19.44,19.44,0,0,0-.82,2.17,22.18,22.18,0,0,0-9.89-.6,24.38,24.38,0,0,0-.83-5c-1.4-5.18-4-9-5.82-8.5s-2.15,5.09-.75,10.28a24.69,24.69,0,0,0,1.85,4.85,26.4,26.4,0,0,0-10.47,8.54,5.73,5.73,0,1,0-5,10.27,33.56,33.56,0,0,0-1.12,5.91c-2,.29-8.57,2.42-9.89,18a2.09,2.09,0,0,0,0,.25L.31,59.21a.86.86,0,0,0-.12,1.2.85.85,0,0,0,1.2.12l1.14-.92.16.12a.75.75,0,0,0-.13.27l-.64,2.32a.84.84,0,0,0,.59,1,.85.85,0,0,0,1.05-.59l.64-2.32a1.22,1.22,0,0,0,0-.17l.38,0,.33,2.25a.85.85,0,1,0,1.68-.24l-.35-2.39h0a3.47,3.47,0,0,0,.37-.26l1.05,1.42a.85.85,0,0,0,1.37-1L7.63,58.14a.83.83,0,0,0-.24-.22c0-.12,0-.24,0-.36,0-2.13.25-9.63,4.15-11.47.76,10,5.71,18.58,12.79,23.39-7.51,12.67-.56,16.41-.56,16.41a13,13,0,0,0,2.83.28c5.46-.44,5.11-9.38,4.66-13.45a22.53,22.53,0,0,0,12.19,0c-.45,4.07-.8,13,4.66,13.45a13.1,13.1,0,0,0,2.84-.28s6.94-3.74-.57-16.41A30.21,30.21,0,0,0,62.53,50.56c1.86.35,8.78.54,14.77-13.75a3.07,3.07,0,0,0,.57-.57l2.51-3.15C81,32.33,81.2,31.5,80.86,31.23ZM37.35,18.46A9.85,9.85,0,1,1,27.5,28.3,9.85,9.85,0,0,1,37.35,18.46Zm-27.09,10a4,4,0,1,1,4,4A4,4,0,0,1,10.26,28.45Zm45.51,29-1.24-1.3a1.65,1.65,0,1,0-2.39,2.27l.87.93a29.38,29.38,0,0,1-7.95,3.13v-2c0-1.25-.75-2.26-1.66-2.26s-1.64,1-1.64,2.28l0,2.61a33.6,33.6,0,0,1-4.42.29A32.85,32.85,0,0,1,32.42,63L33,60.85c.3-1.21-.79-2.53-2.44-2.94s-3.22.25-3.52,1.47l-.53,2.13a27.74,27.74,0,0,1-4.93-2.28l1.12-1.63c.71-1,.68-2.28-.07-2.8s-1.93-.11-2.65.92l-1.11,1.62c-2.43-2-3.85-4.25-3.85-6.27,0-2.58,2.36-3.34,6.18-3.44L20.57,50a1.7,1.7,0,1,0,3.3.79l.63-2.61a1.66,1.66,0,0,0,0-.54c3,.12,6.58.39,10.43.49a2,2,0,0,0,0,.42l.65,2.61a1.7,1.7,0,0,0,3.3-.82l-.54-2.18c3.23,0,6.27-.22,9-.37L47,50.25A2.51,2.51,0,0,0,52,51l.53-3.4c4.46,0,7.23.6,7.23,3.45C59.72,53.11,58.26,55.39,55.77,57.42Zm.1-29.12a4,4,0,1,1,4,4A4,4,0,0,1,55.87,28.3Z"/></g></g></svg>