<svg xmlns="http://www.w3.org/2000/svg" viewBox="0 0 55.07 88.88"><defs><style>.cls-1{fill:#231f20;}</style></defs><title>Asset 5</title><g id="Layer_2" data-name="Layer 2"><g id="_ÎÓÈ_1" data-name="—ÎÓÈ_1"><path class="cls-1" d="M46.14,30.8A2.78,2.78,0,1,0,43.37,28,2.77,2.77,0,0,0,46.14,30.8Z"/><path class="cls-1" d="M8.55,25.25A2.78,2.78,0,1,0,11.33,28,2.77,2.77,0,0,0,8.55,25.25Z"/><path class="cls-1" d="M52.67,87.22a14.53,14.53,0,0,0-5.86-1.47c.88-3.2,3-12.25-3.52-20.24A24.75,24.75,0,0,0,49.63,48.8a25.2,25.2,0,0,0-2.77-11.54,9,9,0,1,0-6.74-15.68C43.62,6.8,33.49,0,33.49,0,39.42,12.43,36,20.85,32.33,25.53a20.57,20.57,0,0,0-9.78,0c-3.64-4.68-7.14-13.1-1.2-25.57,0,0-10,6.73-6.69,21.35a8.87,8.87,0,0,0-5.67-2A9,9,0,0,0,8.2,37.26,25.19,25.19,0,0,0,5.44,48.8a24.75,24.75,0,0,0,6.34,16.71c-6.49,8-4.4,17-3.53,20.24a14.57,14.57,0,0,0-5.86,1.47,1.54,1.54,0,0,0-.79,1.63s2.87.1,10.91-.1C9,77.77,15.27,72.36,18.3,70.46a20.57,20.57,0,0,0,18.47,0c3,1.9,9.3,7.31,5.79,18.29,8,.2,10.9.1,10.9.1A1.52,1.52,0,0,0,52.67,87.22Zm-6.48-65.8a6.46,6.46,0,1,1-6.46,6.46A6.46,6.46,0,0,1,46.19,21.42ZM27.53,47.06c3.91,0,7.08,2.31,7.08,5.16s-3.17,5.17-7.08,5.17-7.07-2.32-7.07-5.17S23.62,47.06,27.53,47.06ZM2.24,28.17A6.46,6.46,0,1,1,8.7,34.62,6.46,6.46,0,0,1,2.24,28.17ZM28.81,67.6V64.65H25.17v2.57C16,65.41,8.94,57.77,8.94,57.77a42.53,42.53,0,0,0,8.58,2.81v2.74h3.64V61.21a49.48,49.48,0,0,0,14.34-.32V63.7h3.64V60.15a32.38,32.38,0,0,0,7-2.38C40.45,65.23,34.37,67.66,28.81,67.6Z"/></g></g></svg>