<svg xmlns="http://www.w3.org/2000/svg" viewBox="0 0 87.22 61.74"><defs><style>.cls-1{fill:#231f20;}</style></defs><title>Asset 4</title><g id="Layer_2" data-name="Layer 2"><g id="_ÎÓÈ_1" data-name="—ÎÓÈ_1"><path class="cls-1" d="M41.14,14.57A6.14,6.14,0,1,0,35,20.71,6.14,6.14,0,0,0,41.14,14.57Z"/><path class="cls-1" d="M55.22,13.23a4.25,4.25,0,1,0,4.25,4.24A4.24,4.24,0,0,0,55.22,13.23Z"/><path class="cls-1" d="M47.46,29.11h-4.8a1.66,1.66,0,1,0,0,3.32h4.8a1.66,1.66,0,1,0,0-3.32Z"/><path class="cls-1" d="M85.74,7.18C86.05,6,86.8,2.59,86.13.57c-.07-.48-.76-1.25-.9.64,0,.38-.33,4.06-.35,4.26s-.8.86-.84-1.14c-.14-.91.28-3.13-.44-4-.31-.36-1.37-.49-1,5.25a.45.45,0,0,1-.88-.12A29.19,29.19,0,0,1,81.22,1c-.13-1-1.69-.88-1.57.74,0,.33.34,2.48.47,3.5,0,.33.1.58-.34.24L78.38,4.4c-.55-.35-1.69,0,.48,2.23a9.09,9.09,0,0,1,.92,1.54s1.29,18.76-9.52,19.93a18.43,18.43,0,0,0,.95-5.85C71.21,10.13,59.54.3,45.15.3s-26,9.83-26,22A18.61,18.61,0,0,0,20,27.88C9.13,28.35,7.51,9.66,7.51,9.66A9.1,9.1,0,0,1,8.19,8c1.78-2.58.61-2.71.12-2.27L7.1,7c-.38.4-.37.14-.37-.19,0-1-.08-3.2-.08-3.53C6.52,1.7,5,1.82,5,2.82A28.59,28.59,0,0,1,5.2,7.29a.44.44,0,0,1-.84.26c-.55-5.73-1.58-5.44-1.84-5-.57,1,.19,3.07.19,4C3,8.51,2.1,8,2.05,7.78S1.11,4,1.05,3.62c-.44-1.84-1-1-1-.49C-.29,5.22,1,8.44,1.47,9.6-1.37,35.42,17,33.38,22,32.36c3.51,5.68,9.88,9.91,17.5,11.32,0,2.64,0,12.47-.43,14.86-10.59.12-9.54,3.2-9.54,3.2l12.59-.37.47-17.29c.83.07,1.68.12,2.53.12A31.51,31.51,0,0,0,48.54,44L49,61.37l12.58.37s1-3.08-9.54-3.2c-.46-2.45-.44-12.7-.43-15A25.91,25.91,0,0,0,68,32.78C71,33.06,93.07,34.21,85.74,7.18ZM26.5,15.07a8.5,8.5,0,1,1,8.5,8.5A8.49,8.49,0,0,1,26.5,15.07ZM59.71,37.93c-1.2-5-7.71-5.68-14.65-5.75s-12,.54-13.29,5.48a7.9,7.9,0,0,1-.23-2C31.6,29.75,38,25,45.86,25.1S60,30,60,35.93A8.38,8.38,0,0,1,59.71,37.93Zm-4.4-14.36a8.5,8.5,0,1,1,8.5-8.5A8.49,8.49,0,0,1,55.31,23.57Z"/></g></g></svg>