<svg xmlns="http://www.w3.org/2000/svg" viewBox="0 0 95.24 79.42"><defs><style>.cls-1{fill:#231f20;}</style></defs><title>Asset 16</title><g id="Layer_2" data-name="Layer 2"><g id="_ÎÓÈ_1" data-name="—ÎÓÈ_1"><path class="cls-1" d="M38.5,9a2.41,2.41,0,1,0-2.4,2.41A2.4,2.4,0,0,0,38.5,9Z"/><path class="cls-1" d="M72,11.68a5.08,5.08,0,1,0-5.08,5.08A5.09,5.09,0,0,0,72,11.68Z"/><path class="cls-1" d="M91.79,34.22s-6.44,12.05-23.05,1.52A23.86,23.86,0,0,0,65.6,25.66l1-1.34A11.84,11.84,0,1,0,55,15.65l-.45.62a19.61,19.61,0,0,0-6.69-1.18,19.38,19.38,0,0,0-3.75.37l-.64-1.38a8.82,8.82,0,0,0,1.67-5.17,8.91,8.91,0,1,0-9.66,8.86L36.07,19a23,23,0,0,0-9,16.37C10,46.54,3.45,34.22,3.45,34.22c-3.14-2.09-4,2.31-3.14,4,8.53,12.31,21.05,6.1,26.78,2.33a22.7,22.7,0,0,0,11.1,17.25l-.45,9.68L40,76.55l-6.35,2.87L43.32,79l-.12-2.6h0l-1.4-9.34h0l.88-7.41a19.57,19.57,0,0,0,5.15.7,19.37,19.37,0,0,0,4.66-.57l.87,7.28h0L52,76.39l-.57,3,10,0-5.59-2.63,2.09-9.08-.85-9.63a22.59,22.59,0,0,0,11.55-17.2c5.92,3.78,18,9.34,26.31-2.64C95.77,36.53,94.93,32.13,91.79,34.22ZM66.63,3.77a8.07,8.07,0,1,1-8.07,8.07A8.06,8.06,0,0,1,66.63,3.77ZM47.71,32.27a2,2,0,1,1-2,2A2,2,0,0,1,47.71,32.27Zm-11.89-18a5.77,5.77,0,1,1,5.77-5.76A5.76,5.76,0,0,1,35.82,14.25ZM57.27,50.44c-1.93-2.1-5.43-2.89-9.2-2.92s-7.47.73-9.43,2.8c-1.69,1.79-6.88-1.6-5.15-3.66A12.12,12.12,0,0,1,36,44.43l-1.58-3.34,4.29-2,1.6,3.37a26.75,26.75,0,0,1,7.58-.94l1.78,0a20.19,20.19,0,0,1,6.61,1.09l1.69-3.55,4.29,2-1.77,3.73a17.66,17.66,0,0,1,2.66,2.43C64.89,49.26,58.94,52.25,57.27,50.44Z"/></g></g></svg>