<svg xmlns="http://www.w3.org/2000/svg" viewBox="0 0 97.58 87.34"><defs><style>.cls-1{fill:#231f20;}</style></defs><title>Asset 9</title><g id="Layer_2" data-name="Layer 2"><g id="_ÎÓÈ_1" data-name="—ÎÓÈ_1"><path class="cls-1" d="M97.58,53.34,95.33,56.5l-1.61.9a1.71,1.71,0,0,0-.19-.7l1-2.61.25-3.17L93.17,53.5l-.87,2.55a1.51,1.51,0,0,0-.3,0l.17-1.9L92,49.84l-.75,3.66-.14,2.84a4.8,4.8,0,0,0-1,.61l-1.37-1.2-.92-3.66v4.08l1.59,1.59a1.29,1.29,0,0,0-.09.16C81.75,68,72,59.42,71,58.48a24.57,24.57,0,0,0,4.28-13.89v-2.5a24.69,24.69,0,0,0-8-18.2L71,18.15c2.88.11,6-1.69,7.95-4.85,2.59-4.27,2-9.39-1.43-11.44s-8.21-.26-10.8,4a9.73,9.73,0,0,0-1.07,8.38L61.92,20.1a24.76,24.76,0,0,0-19.16-1.5l-2.33-3.69a9.66,9.66,0,0,0,.62-8.56C39.32,1.67,34.91-1,31.2.36s-5.3,6.28-3.57,11c1.34,3.6,4.24,6,7.2,6.31l2.31,3.66a24.74,24.74,0,0,0-11.33,20.8v2.5a24.66,24.66,0,0,0,3.09,12l-.07.12c-8,10.67-18.39.48-18.39.48l-.31-.21L11,54.67l-1.5-4,.25,3.83-.56,1.94a3.3,3.3,0,0,0-.37-.13l-.82-4L6.92,48.59v4.25l1.17,3.38L3.33,52.67,1.92,50.09l.41,3.16L7.2,56.57a1.33,1.33,0,0,0-.39.72L2.5,56.09,0,52.59l1.33,4.83L7,58.58a5.33,5.33,0,0,0,1,1.59c10.48,14.07,20.33,4.53,23.61.33a24.65,24.65,0,0,0,4,3.82c-2.1,4.11,1.68,14.64,2.12,17.52-7.5-.25-5.5,5.5-5.5,5.5h11s0-3.25-.5-4.25c-2.88-8.12-.49-12.58,1.36-14.61a25,25,0,0,0,6.45.86,24.7,24.7,0,0,0,6.76-1c1.86,2,4.35,6.46,1.44,14.7-.5,1-.5,4.25-.5,4.25h11s2-5.75-5.5-5.5c.45-2.93,4.35-13.79,2-17.73a24.67,24.67,0,0,0,2.83-2.58c12.13,16.14,23.41.72,24.58-1.28.14-.38.25-.73.34-1l2.9-2.39ZM69.13,8c1.07-2.86,3.77-4.48,6-3.63S78.37,8.19,77.3,11s-3.77,4.47-6,3.62S68.06,10.82,69.13,8Zm-34,4.81a4.47,4.47,0,0,1-5.38-3.34,4.37,4.37,0,1,1,8.44-2.21A4.49,4.49,0,0,1,35.16,12.78ZM63,51l-1.61-5.64-2.58,9.57-1.67-5.82-2.54,9.41-.28.08L51.41,48.31,48.58,58.77l-2.42-8.46-1.91,7.06-2.59-9.06-1.63,6a16.65,16.65,0,0,1-.39-21.25l1.36,8,2.67-11.37,2.71,8.87,4.19-10,2.81,9.2,3-7.15,2.49,8.15,2.35-5.59A16.42,16.42,0,0,1,64.75,43.5,16.74,16.74,0,0,1,63,51Z"/><circle class="cls-1" cx="72.83" cy="10" r="3"/><circle class="cls-1" cx="33.5" cy="8.34" r="3"/></g></g></svg>