<svg xmlns="http://www.w3.org/2000/svg" viewBox="0 0 74.86 85.21"><defs><style>.cls-1{fill:#231f20;}</style></defs><title>Asset 7</title><g id="Layer_2" data-name="Layer 2"><g id="_ÎÓÈ_1" data-name="—ÎÓÈ_1"><path class="cls-1" d="M74.69,21.56c0-.58-.78-1.57-1.13.68,0,.45-.8,4.83-.84,5.06s-1,.95-.9-1.45c-.08-1.1.64-3.71-.13-4.8-.34-.46-1.6-.72-1.75,6.18a.53.53,0,0,1-1-.23,34.23,34.23,0,0,1-.14-5.36c-.06-1.2-1.93-1.22-1.94.73,0,.39.16,3,.22,4.23,0,.39.06.7-.43.26-.29-.27-.78-.72-1.57-1.47-.62-.47-2-.22.35,2.72a10.47,10.47,0,0,1,1,1.92s7.28,16.52-6.28,20.81a30.6,30.6,0,0,0,2.43-12c0-10.15-4.86-19-12.09-23.82,2-1.75,4.18-4.46,3.42-7.34-.32-2.16-2.33-7-4.23-7.51-1-.46-5.37.53-2.22,6.34.53,1.11-1.3,3.75-2.87,5.7a21.64,21.64,0,0,0-6.46-1,21.93,21.93,0,0,0-6.93,1.13C29.8,10.27,28.35,7.6,29,6.58c3.7-5.47-.53-6.88-1.59-6.53C25.43.4,23,5,22.43,7.11c-1.11,3,1.19,6.12,3.05,8C18.38,20,13.62,28.77,13.62,38.82a30.57,30.57,0,0,0,2.61,12.42C.71,47.69,8.49,30,8.49,30a10.47,10.47,0,0,1,1-1.92c2.37-2.94,1-3.19.35-2.72-.79.75-1.27,1.2-1.57,1.47-.48.44-.44.13-.42-.26.06-1.23.19-3.84.22-4.23,0-1.95-1.89-1.93-1.95-.73A34.83,34.83,0,0,1,6,27a.53.53,0,0,1-1,.23c-.16-6.9-1.41-6.64-1.75-6.18-.78,1.09-.06,3.7-.14,4.8.14,2.4-.86,1.68-.9,1.45s-.79-4.61-.83-5.06C1,20,.21,21,.16,21.56-.44,24,.78,28,1.27,29.42-3.78,56.56,9,58.28,21.09,58.68a24.21,24.21,0,0,0,7.64,5.67c-1.16,3.18-2.81,8.11-3.08,11.09-.18,1.94,2.56,6.36,2.56,6.36s-9.35.17-9.53,2,14.56,1.67,15.09.44-4.24-7.5-4-10.5c.17-2,2-5.72,3.23-7.92a21.5,21.5,0,0,0,5,.59,21.8,21.8,0,0,0,5.79-.78c1.18,2.17,3.14,6,3.33,8.11.26,3-4.5,9.26-4,10.5s15.26,1.41,15.09-.44-9.53-2-9.53-2,2.73-4.42,2.55-6.36c-.28-3.09-2-8.29-3.21-11.44a24.61,24.61,0,0,0,7-5.37c11.65-.51,23.36-3.06,18.49-29.21C74.07,28,75.3,24,74.69,21.56ZM46.54,57.71v-.88H43.18v.88H42v-.88H38.68v.88H37.53v-1H34.18v1H33v-.88H29.59v.88H27.22a6.26,6.26,0,0,1,2.46-3.27h3.18V52.85c.34-.11.69-.22,1.06-.31v1.9h3.35V52.05l.79,0h0v2.19h4.23V52.57l.93.28v1.5h3a6.32,6.32,0,0,1,2.59,3.36ZM39.73,47.34a3,3,0,0,1-3.33,0A2.53,2.53,0,0,0,36.77,46a2.59,2.59,0,0,0-2.59-2.59,1.92,1.92,0,0,0-1.35.39c-.84.79-1.94-.14-2.28-.83a7.24,7.24,0,0,1-.78-3.28,8.05,8.05,0,0,1,8.29-7.78,8.06,8.06,0,0,1,8.3,7.78,7.31,7.31,0,0,1-.59,2.88c-.36.85-1.57,2-2.41,1.26A2.26,2.26,0,0,0,42,43.44,2.59,2.59,0,0,0,39.36,46,2.53,2.53,0,0,0,39.73,47.34ZM52.94,34.67c-.1.21-1,1.6-1,1.6a19.81,19.81,0,0,0-1.8-2.08,3.56,3.56,0,0,0,1.17-2.63,3.58,3.58,0,0,0-7-1.19,16.54,16.54,0,0,0-4.71-1.09,14.8,14.8,0,0,1-1.6,0,14.62,14.62,0,0,1-1.59,0,16.44,16.44,0,0,0-5.34,1.35,3.58,3.58,0,1,0-5.48,3.89,20.35,20.35,0,0,0-1.49,1.75s-.87-1.39-1-1.6c-1.94-4.26-1.87-12.17,2.39-14.11,3.49-1.59,8.2,6.76,11.27,7.7.22-.5.35-1.58.55-1.3s.47,1.08.66,1.19c.19-.11.47-1,.64-1.19s.36.8.58,1.3c3.07-.94,7.78-9.29,11.27-7.7C54.81,22.5,54.88,30.41,52.94,34.67Z"/></g></g></svg>