<svg xmlns="http://www.w3.org/2000/svg" viewBox="0 0 91.69 68.73"><defs><style>.cls-1{fill:#231f20;}</style></defs><title>Asset 13</title><g id="Layer_2" data-name="Layer 2"><g id="_ÎÓÈ_1" data-name="—ÎÓÈ_1"><path class="cls-1" d="M90.78,21.12c-.19.2-2.23,2-2.34,2.07s-.85,0,.14-1c.38-.55,1.72-1.5,1.78-2.32,0-.34-.48-.95-3.2,2.25a.33.33,0,0,1-.4-.51,21,21,0,0,1,2-2.58c.43-.59-.45-1.31-1.2-.4L86,20.68c-.14.19-.24.35-.3,0s-.09-.64-.18-1.3c-.11-.46-.86-.87-.87,1.42A6.74,6.74,0,0,1,84.4,22s-10,12-16.28,4.51a7.47,7.47,0,0,0-.66-.69,17.34,17.34,0,0,0-1.52-6l3.75-1.72a1.88,1.88,0,1,0-1.57-3.42L64,16.55a19.93,19.93,0,0,0-2.52-2.85l4-3.83a1.89,1.89,0,0,0-2.6-2.73l-4.42,4.21a22.62,22.62,0,0,0-3.3-1.76L58.31,4.1A1.89,1.89,0,0,0,55,2.25L51.58,8.37a24.65,24.65,0,0,0-4-.63l-.11-5.89a1.89,1.89,0,1,0-3.77.07l.11,5.84a24.14,24.14,0,0,0-4.3.74L37.45,3.33A1.89,1.89,0,1,0,34,4.74l2,5a22.11,22.11,0,0,0-3.37,1.89L29,7.16A1.88,1.88,0,1,0,26,9.53l3.66,4.54a19.38,19.38,0,0,0-2.31,2.74L22.86,14a1.88,1.88,0,1,0-2,3.19l4.69,2.93a17.72,17.72,0,0,0-1.4,5.83c-.18.17-.37.37-.58.61C17.28,34,7.29,22,7.29,22A6.74,6.74,0,0,1,7,20.76c0-2.29-.76-1.88-.88-1.42C6,20,6,20.4,6,20.64s-.16.23-.3,0c-.45-.61-1.39-1.88-1.52-2.08-.75-.91-1.63-.19-1.2.4a21,21,0,0,1,2,2.58.33.33,0,0,1-.4.51c-2.72-3.2-3.22-2.59-3.2-2.25.06.82,1.39,1.77,1.78,2.32,1,1.08.24,1.12.13,1S1.1,21.32.91,21.12c-1-.92-1-.17-.8.12.67,1.4,2.77,2.79,3.54,3.28,9.1,12.11,17.69,9.81,21.33,8A20.19,20.19,0,0,0,36.6,44.61c-1.41,2.76-3.51,7.06-3.69,8.57-.27,2.29,1.41,4.78,4.38,8-1.08,0-5.46,5.38-4.65,7.54.81,0,7.81-6.67,7.81-6.67s-4.11-5.92-3.77-8.21c.26-1.76,3-6,4.23-7.91a23.88,23.88,0,0,0,4.9.51A24.52,24.52,0,0,0,50,46.09c1.28,1.94,3.88,6,4.13,7.76.34,2.29-3.77,8.21-3.77,8.21s7,6.67,7.81,6.67c.81-2.16-3.57-7.54-4.64-7.54,3-3.23,4.64-5.72,4.37-8-.18-1.56-2.35-5.72-3.71-8.21a20.42,20.42,0,0,0,12.51-12.5c3.6,1.84,12.23,4.23,21.38-7.95.78-.49,2.88-1.88,3.54-3.28C91.78,21,91.81,20.2,90.78,21.12Zm-45-10a7,7,0,1,1-7,7A7,7,0,0,1,45.81,11.17Zm6.56,31.24H39.51c-1.8,0-3.26-1.93-3.26-4.31s1.46-4.31,3.26-4.31H52.37c1.8,0,3.27,1.93,3.27,4.31S54.17,42.41,52.37,42.41Z"/><circle class="cls-1" cx="45.81" cy="18.58" r="3.9"/></g></g></svg>