<svg xmlns="http://www.w3.org/2000/svg" viewBox="0 0 75.82 87.04"><defs><style>.cls-1{fill:#231f20;}</style></defs><title>Asset 14</title><g id="Layer_2" data-name="Layer 2"><g id="_ÎÓÈ_1" data-name="—ÎÓÈ_1"><path class="cls-1" d="M37.62,15.78a3.33,3.33,0,1,0-3.32-3.33A3.33,3.33,0,0,0,37.62,15.78Z"/><path class="cls-1" d="M74.53,51.75h0c-.2-2.9-1.91-21.46-12.6-24.71A25.25,25.25,0,0,0,51,11.92a13.2,13.2,0,0,0-26.28,0A25.29,25.29,0,0,0,13.87,27C2.63,30.46,1.32,50.8,1.25,52.08L0,57.93l1.89-4.57,0,4.92,1.22-5.53L5.08,58.2l-.37-5.32L8.48,57,4.84,50.37a17.06,17.06,0,0,1,8.41-14.19,25.38,25.38,0,0,0,9.48,17.11s-4.3,8.25-4.52,10.06c-.41,3.49,2.16,7.28,6.67,12.2-1.64,0-8.31,8.21-7.08,11.49C19,87,29.7,76.89,29.7,76.89s-6.25-9-5.74-12.52c.25-1.74,2.08-5.07,3.86-8a24.31,24.31,0,0,0,19.07.45c1.69,2.8,3.35,5.88,3.59,7.53.51,3.49-5.75,12.52-5.75,12.52S55.4,87,56.63,87c1.24-3.28-5.43-11.49-7.08-11.49,4.52-4.92,7.08-8.71,6.67-12.2-.21-1.81-2.17-5.9-4-9.43A25.32,25.32,0,0,0,62.53,36.18a17.07,17.07,0,0,1,8.41,14.24l-3.52,6.42,3.77-4.12L70.82,58l1.94-5.45L74,58.11l0-4.71,1.81,4.36ZM37.89,3.16a10,10,0,1,1-10,10A10,10,0,0,1,37.89,3.16ZM20.24,46.77s17.77-23,35.47.11C49.94,45.36,40.55,40.27,20.24,46.77Z"/></g></g></svg>