<svg xmlns="http://www.w3.org/2000/svg" viewBox="0 0 75.19 83.41"><defs><style>.cls-1{fill:#231f20;}</style></defs><title>Asset 17</title><g id="Layer_2" data-name="Layer 2"><g id="_ÎÓÈ_1" data-name="—ÎÓÈ_1"><path class="cls-1" d="M30.62,18.92a3.54,3.54,0,1,0-3.54,3.54A3.54,3.54,0,0,0,30.62,18.92Z"/><path class="cls-1" d="M50.37,17.67a3,3,0,1,0-3,3A3,3,0,0,0,50.37,17.67Z"/><path class="cls-1" d="M74,12.48l-.45,7.46-1,.58.81-8.42-2.13,8.6L71,17.43l.15-6-1.29,5.93-.28,4-1.8-2.26L67,15l-.55,4.93,2.9,3.69c-2,5.63-5.4,7.86-7.84,8.73.08-1,.12-1.93.12-2.9C61.66,13.17,50.14,0,35.93,0S10.19,13.17,10.19,29.42a35.31,35.31,0,0,0,.28,4.39C0,40.76,1.74,56,1.82,56.59L0,61.11l.38,4.27.69-3.66,1.29-3.53L3,65.3l.6-7.91,1.41,2.45.7,5.41.59-5.54L4.81,57.28l2.6,1.39.65,2.65.54-3.49L4.31,55.88c.79-13.68,7.13-14.57,8.05-14.63,3.05,7.92,9.06,14,16.43,16.42l-2,19.81L21.1,80l5.37-.35L23,82l5.14-1.71-2.63,3.08L32,80.22l-.73-21.9a23,23,0,0,0,4.71.51,22.52,22.52,0,0,0,5.53-.69l-.72,22.08,6.39,3.19L44.5,80.33,49.64,82l-3.42-2.4,5.36.35-5.71-2.51-2-20.1a27.11,27.11,0,0,0,15-14.62c8.2-5,12-16.26,12.83-19l3.5-3.19Zm-56,4a8.45,8.45,0,1,1,8.45,8.45A8.45,8.45,0,0,1,18,16.44ZM44.9,49a11.38,11.38,0,0,0-6.7-5.25v-4H32.27v4.19a11.08,11.08,0,0,0-6.05,5.2c-1.67,3-7.67-.3-7.42-4.15.36-5.47,2.25-9.1,4.64-11.51V35h4V30.6a18.6,18.6,0,0,1,8.09-1.93,15.66,15.66,0,0,1,7.59,1.17V34.4h4V32.34c2.64,2.33,5,6.1,6,12.15C53.69,48.56,46.6,52,44.9,49Zm2.21-26.85c-4.16,0-7.53-2.36-7.53-5.26s3.37-5.25,7.53-5.25,7.53,2.35,7.53,5.25S51.27,22.15,47.11,22.15Z"/></g></g></svg>