<svg xmlns="http://www.w3.org/2000/svg" viewBox="0 0 66.67 88.81"><defs><style>.cls-1{fill:#231f20;}</style></defs><title>Asset 20</title><g id="Layer_2" data-name="Layer 2"><g id="_ÎÓÈ_1" data-name="—ÎÓÈ_1"><path class="cls-1" d="M20.22,26.12a3,3,0,1,0-3,3A3,3,0,0,0,20.22,26.12Z"/><circle class="cls-1" cx="48.74" cy="25.63" r="3.01"/><path class="cls-1" d="M66.67,24.91a4.92,4.92,0,0,0-3.58-4.72,4.92,4.92,0,0,0-3.17-8.36c0-.05,0-.1,0-.16a4.9,4.9,0,0,0-7.16-4.38,4.89,4.89,0,0,0-8.55-1.86A4.91,4.91,0,0,0,35.33,3.3a4.91,4.91,0,0,0-9.5.89,4.88,4.88,0,0,0-3.45-1.42,4.94,4.94,0,0,0-4.84,4A4.91,4.91,0,0,0,10,12.61,4.7,4.7,0,0,0,9,12.52a4.94,4.94,0,0,0-4.94,4.93,5.62,5.62,0,0,0,.09.92,4.9,4.9,0,0,0-2.59,8.46,4.9,4.9,0,0,0,1.32,7.74c0,.63-.06,1.26-.06,1.9A29.45,29.45,0,0,0,19.15,62.7h0c.58,6.83,1.94,19.89,2.33,22.81-9.26-1-8.12,3.3-8.12,3.3H27.53a10.25,10.25,0,0,0-.42-4C22.92,75.61,23.75,69,25.31,65A30.92,30.92,0,0,0,40.6,65c1.56,4,2.39,10.58-1.8,19.76a10.25,10.25,0,0,0-.42,4H52.56s1.14-4.26-8.12-3.3c.39-2.92,1.75-16,2.33-22.81h0a29.45,29.45,0,0,0,16.3-26.23c0-.32,0-.63,0-.94a4.9,4.9,0,0,0,2.67-4.36A5,5,0,0,0,65,28.61,4.9,4.9,0,0,0,66.67,24.91Zm-57,.72c0-2.74,3.64-5,8.14-5s8.15,2.23,8.15,5-3.65,5-8.15,5S9.63,28.38,9.63,25.63ZM40,57.69l-1-3.24L37,58.71a18.81,18.81,0,0,1-4.34.67l-1.17-4-1.89,3.85a16.92,16.92,0,0,1-3-.69l-1.18-4.07-1.46,3a29,29,0,0,1-9.85-8.53h5.27v4.16l2.43-4.16h.31l1.59,5.55,1.58-5.56h0l1.55,5.38,1.5-5.3,1.51,5.24,1.51-5.33h.36l1,6,2.41-6h.63l1,6.23,2.47-6.2,1.5,6.32,2.39-6.36h.18l1.34,4.44,2.12-4.45h5A34.43,34.43,0,0,1,40,57.69Zm8.16-27.08c-4.5,0-8.14-2.23-8.14-5s3.64-5,8.14-5,8.14,2.23,8.14,5S52.64,30.61,48.14,30.61Z"/></g></g></svg>