<svg xmlns="http://www.w3.org/2000/svg" viewBox="0 0 66.03 84.54"><defs><style>.cls-1{fill:#231f20;}</style></defs><title>Asset 1</title><g id="Layer_2" data-name="Layer 2"><g id="_ÎÓÈ_1" data-name="—ÎÓÈ_1"><path class="cls-1" d="M18.38,17.21A4.78,4.78,0,1,0,13.61,22,4.76,4.76,0,0,0,18.38,17.21Z"/><path class="cls-1" d="M32.71,17.54a6.11,6.11,0,1,0-6.11-6.1A6.11,6.11,0,0,0,32.71,17.54Z"/><path class="cls-1" d="M52.86,20.88a2.75,2.75,0,1,0-2.74-2.75A2.75,2.75,0,0,0,52.86,20.88Z"/><path class="cls-1" d="M52,78.62c-.51-3.84-1.91-14.1-2.28-16.8C59.46,56.84,66,47.63,66,37.09a25.61,25.61,0,0,0-4-13.73,11,11,0,0,0,1-4.59,11.15,11.15,0,0,0-18.25-8.61,11.86,11.86,0,0,0-23.5.16l-.17.06A11.14,11.14,0,0,0,3.79,23.77,25.5,25.5,0,0,0,0,37.09C0,47.64,6.57,56.84,16.35,61.82c-.37,2.71-1.76,13-2.28,16.8C2.53,73.88,3.41,84.54,3.41,84.54S14.67,84,17.92,83.06c0-7.45,4.38-15.94,5.79-18.48A37.75,37.75,0,0,0,33,65.74a37.4,37.4,0,0,0,9.31-1.17c1.41,2.55,5.78,11,5.78,18.49,3.26.89,14.51,1.48,14.51,1.48S63.51,73.88,52,78.62Zm.81-68.29A6.77,6.77,0,1,1,46,17.1,6.78,6.78,0,0,1,52.77,10.33ZM32.79,2a9.22,9.22,0,1,1-9.22,9.22A9.21,9.21,0,0,1,32.79,2Zm6.56,34.53c0,1.78-2.84,3.22-6.33,3.22s-6.33-1.44-6.33-3.22,2.83-3.22,6.33-3.22S39.35,34.75,39.35,36.53ZM6.58,16.77a6.55,6.55,0,1,1,6.55,6.55A6.55,6.55,0,0,1,6.58,16.77Zm29.57,45a25.69,25.69,0,0,1-2.8.16l-1,0-3.7-9.53-2.93,8.38a28.52,28.52,0,0,1-2.69-1l-3.22-8.27-1.92,5.5c-4.26-2.88-6.94-6.37-6.94-8.64,0-1.78,1.71-2.16,4.56-2l.15,4.64,3.28-4.27,4,.55,2.24,6.16,2.12-5.65c1.55.15,3.16.26,4.8.3l2.19,6,2.28-6.08c1.73-.09,3.38-.25,4.94-.43l2.77,7.62,3.17-8.45c.88-.13,1.68-.23,2.43-.31l1.73,4.76,1.8-4.79a1.79,1.79,0,0,1,1.7,1.9c0,1.94-1.84,4.79-4.94,7.38l-1.74-4.47L45.85,58.7a27,27,0,0,1-3.65,1.65l-2.92-7.49Z"/></g></g></svg>