<svg xmlns="http://www.w3.org/2000/svg" viewBox="0 0 59.74 87.41"><defs><style>.cls-1{fill:#231f20;}</style></defs><title>Asset 6</title><g id="Layer_2" data-name="Layer 2"><g id="_ÎÓÈ_1" data-name="—ÎÓÈ_1"><path class="cls-1" d="M34.39,22a4.8,4.8,0,1,0-4.8,4.8A4.8,4.8,0,0,0,34.39,22Z"/><path class="cls-1" d="M57,1.87C55-1.76,49.3.23,52.21,5c.55.9,1.24,1.78,2,3.1,0,.89-3,5.27-6.36,5.79-.55-.54-1.12-1-1.71-1.54a2.53,2.53,0,0,0,1-2,2.54,2.54,0,0,0-5-.73,25.42,25.42,0,0,0-5.63-2.3,2.55,2.55,0,1,0-4.91-.95s0,.07,0,.1c-.62,0-1.24-.07-1.86-.07A25.18,25.18,0,0,0,24.05,7a1.84,1.84,0,0,0,0-.41A1.93,1.93,0,1,0,20.81,8,26.29,26.29,0,0,0,16,10.39a1.93,1.93,0,1,0-2.9,2.13c-.49.42-1,.85-1.44,1.3C8.44,13.11,5.57,9,5.57,8.08,6.29,6.76,7,5.88,7.53,5,10.44.23,4.78-1.76,2.73,1.87-1,7.27-.1,10.51.84,12.26,2,14.32,5.41,16.92,7.78,18.54A28.44,28.44,0,0,0,3.24,34a28.1,28.1,0,0,0,9.19,20.92c-2,3.94.74,16.76,1.28,19.25,1,4.33,2.22,7.84,2.46,9.25C5.63,82.74,7,86.13,7.5,86.72c.71,1.06,8.41.65,12.15.39,1.22-.09,1.79-.87,1.43-2-1.16-3.51-3.59-11-3.86-12.12-1.37-8,.54-12,1.86-13.69a25.4,25.4,0,0,0,21.49-.11c1.31,1.64,3.35,5.62,1.94,13.8-.26,1.16-2.7,8.61-3.85,12.12-.36,1.1.2,1.88,1.42,2,3.74.26,11.45.67,12.15-.39.47-.59,1.88-4-8.66-3.28C43.8,82,45,78.52,46,74.19c.55-2.54,3.38-15.75,1.17-19.44a28.52,28.52,0,0,0,4.53-36c2.37-1.62,6-4.32,7.16-6.44C59.84,10.51,60.78,7.27,57,1.87Zm-27.29,11A9.19,9.19,0,1,1,20.52,22,9.18,9.18,0,0,1,29.71,12.83Zm12,38,0-3c0-.52-.71-1-1.62-1s-1.65.39-1.65.91L38.37,54a5.05,5.05,0,0,1,0,.68,12.55,12.55,0,0,1-3.18,2.23l.07-4.12c0-.52-.71-1-1.62-1s-1.64.39-1.65.92l-.1,5.3a15.81,15.81,0,0,1-3.52.34,7.38,7.38,0,0,1-1.65-.31l.11-6.15c0-.52-.71-1-1.62-1s-1.65.39-1.65.91l-.09,4.84a16,16,0,0,1-3.15-2.3l.11-6.06c0-.52-.72-1-1.62-1s-1.65.4-1.66.92l0,2.1c-2.26-3.79-3.88-9.33-3.64-17.44a26.06,26.06,0,0,0,3.63,3.27L17,39.71c0,.52.71,1,1.62,1s1.65-.4,1.66-.92l0-1.44a21.52,21.52,0,0,0,8.36,2.72L28.63,45c0,.52.72,1,1.62,1s1.65-.4,1.66-.92l.07-4a19,19,0,0,0,7.24-2.19l0,3c0,.52.72,1,1.62,1s1.65-.39,1.66-.91l.09-5.12a33,33,0,0,0,3.87-3.44A33.61,33.61,0,0,1,41.71,50.86Z"/></g></g></svg>