<svg xmlns="http://www.w3.org/2000/svg" viewBox="0 0 80.4 85.62"><defs><style>.cls-1{fill:#231f20;}</style></defs><title>Asset 2</title><g id="Layer_2" data-name="Layer 2"><g id="_ÎÓÈ_1" data-name="—ÎÓÈ_1"><path class="cls-1" d="M31.77,32.59a4.67,4.67,0,1,0-4.67,4.66A4.67,4.67,0,0,0,31.77,32.59Z"/><path class="cls-1" d="M76.75,74.15c-.59-4.8-3-23.15-6.21-31.47a39.13,39.13,0,0,0-7-20.5,3.71,3.71,0,0,0,.55-.63l3.61-5.41a3.63,3.63,0,0,0-6-4l-3,4.56a31.06,31.06,0,0,0-3.81-2.92l2.52-5.6a3.63,3.63,0,0,0-6.63-3l-2.45,5.45a27,27,0,0,0-5.38-1.15l-.15-5.92a3.64,3.64,0,1,0-7.27.19l.16,6a26.35,26.35,0,0,0-4.32,1.12c0-.05,0-.1-.07-.14L27.8,5.14A3.63,3.63,0,0,0,21.62,9l3.18,5.13a30.73,30.73,0,0,0-3.9,3.13l-4.56-4.5a3.63,3.63,0,1,0-5.11,5.17l4.62,4.57c.11.1.23.19.35.28A39.18,39.18,0,0,0,9.59,42.63C6.16,51.42,3.68,71.51,3.28,74.85c-.77.89-3.4,4-3.28,4.43.1.29-.09,2.3,3.59-1.24-.14.48-2.1,2.49-1,3.49.33.14,1.86-.19,2.29-3,.1.71-.86,3.15.67,3.44.38,0,1.48-.38,1.24-3.2,0-.39,0-1.1.72-1.39s1.48.43,1.43,2.1a12.13,12.13,0,0,1-.28,1.63c-.19.91.9,1.29,1.57.09.33-.75,1.81-3-2.51-7.15l2.38-22c2.78,16.4,15.14,28.76,30,28.76s27.16-12.33,30-28.7L72.47,74.8c-.55.19-1.86.92-1.86,3.72,0,.33-.29,2.48.14,3.15.14.34,1.77,1.49,1.53-1.29a11.67,11.67,0,0,1,.52-2.91,5.67,5.67,0,0,1,1.06,4.44,27.47,27.47,0,0,1-1.2,2.77c-.19.34-.1,1.49,1.24.48.43-.57,1.63-1.57,1.39-5-.05-.33.38-.28.38-.28a5.22,5.22,0,0,1,0,4.92c-.29.43.43,1.1.91.62.24-.29,1.86-1.48.81-5.54-.14-.24,1.86-1.39,1.34,3.39-.1.48,1,1.24,1.24,0C80.12,82.68,81.93,79.4,76.75,74.15ZM26.55,24.6c4.65,0,8.16,1.85,8.16,6.5a8.42,8.42,0,0,1-16.83,0C17.88,26.45,21.9,24.6,26.55,24.6ZM57.83,62.74a2.8,2.8,0,0,0-5.53.61v1.76a25.75,25.75,0,0,1-4.85.45V63.73a2.8,2.8,0,0,0-5.6,0V65c-12.14-2.2-22.06-10.61-22.06-10.61h15.3v1.65a2.81,2.81,0,1,0,5.61,0V54.43h20S61.52,59.51,57.83,62.74Zm-5-24.37a10.13,10.13,0,0,1-10.12-9.95h5.67a4.71,4.71,0,0,0,9.42,0H63A10.14,10.14,0,0,1,52.87,38.37Z"/></g></g></svg>