<svg xmlns="http://www.w3.org/2000/svg" viewBox="0 0 70.18 88.75"><defs><style>.cls-1{fill:#231f20;}</style></defs><title>Asset 8</title><g id="Layer_2" data-name="Layer 2"><g id="_ÎÓÈ_1" data-name="—ÎÓÈ_1"><path class="cls-1" d="M35.84,18.72a6.93,6.93,0,1,0-6.93,6.93A6.93,6.93,0,0,0,35.84,18.72Z"/><path class="cls-1" d="M49.27,19.89a3.2,3.2,0,1,0-3.19,3.2A3.19,3.19,0,0,0,49.27,19.89Z"/><path class="cls-1" d="M70.18,48h0c0-1.05-.46-19.61-8.89-23.45C58.57,10.49,47.82,0,35,0S11.26,10.58,8.6,24.72C.26,29,0,48,0,48l5.09,12.3-.27,5.42L8.4,71.13,5.93,65.67l-.08-5,1.54,5.08,3.88,3.42-3-4L6.48,60.38h0l2.34,4.46,4.07.73L9.54,63.91,7.24,60.3l2-.21,2,2.06-1.12-3.32-3.69.26L2.84,48.32c-.37-8.51,2.89-14,5.12-16.71,0,11.62,5.45,21.75,13.49,27.18-3.73,5.77.79,20.81,1.7,26.12-5.33-1.06-8.1,3.84-8.1,3.84s8.32-.43,12.37-.43a38.25,38.25,0,0,1-.64-26.76,23.44,23.44,0,0,0,16.58-.09,38.14,38.14,0,0,1-.6,26.85c4.05,0,12.37.43,12.37.43s-2.77-4.9-8.1-3.84c.92-5.34,5.5-20.56,1.63-26.24,8-5.48,13.3-15.59,13.3-27.16,0-.09,0-.19,0-.29,2.22,2.57,5.84,8.17,5.44,17.09L62.32,65.12,56.46,67l-.89,3.28,2.11-2.57,3.65-.49-2,3.21-3.09,2.94,4-2.32,1.93-3.39L61.51,71s-2.94,4.8-2.06,4a34.33,34.33,0,0,0,2.78-3.45l1.25-4.21.31,3L63,74.81l1.89-4.3-.61-4.91,5.85-17.55h0v0ZM47.75,12.51A6.54,6.54,0,1,1,41.21,19,6.53,6.53,0,0,1,47.75,12.51ZM27.43,6.4A11.23,11.23,0,1,1,16.2,17.62,11.22,11.22,0,0,1,27.43,6.4ZM54.68,44.78A22,22,0,0,1,47,52.19l-1.22-3.41-4.58,1.63,1.31,3.68a22.8,22.8,0,0,1-6.34,1h0A23.35,23.35,0,0,1,30,54.34l1.12-3.69-4.66-1.42-1,3.38a21.94,21.94,0,0,1-8.19-7.34c-1.86-2.77,2.46-4.87,5.24-3.86L21.08,46l4.66,1.44.8-2.6a14.46,14.46,0,0,0,6.88,1.84v3h4.87V46.53c3.14-.32,6.16-1.17,8.25-2.93L47.35,47l4.74-1.13-1.22-5.1C53.42,40.69,56.15,42.45,54.68,44.78Z"/></g></g></svg>