<svg xmlns="http://www.w3.org/2000/svg" viewBox="0 0 86.19 87.42"><defs><style>.cls-1{fill:#231f20;}</style></defs><title>Asset 15</title><g id="Layer_2" data-name="Layer 2"><g id="_ÎÓÈ_1" data-name="—ÎÓÈ_1"><path class="cls-1" d="M26.91,22.54a3.5,3.5,0,1,0-3.5,3.5A3.5,3.5,0,0,0,26.91,22.54Z"/><path class="cls-1" d="M64.83,43.1a3.51,3.51,0,1,0-3.5-3.5A3.51,3.51,0,0,0,64.83,43.1Z"/><path class="cls-1" d="M85.8,73.91a3,3,0,0,0-4.38.92c-1.49,1.12-.17,8.39-.17,8.39L50.68,78.07C59.31,73.4,65.51,63,66.27,50.67a11.54,11.54,0,0,0,7.1-18.45l6.56-12.14-10.08,9.1a11.51,11.51,0,0,0-5.63-1.46,11.82,11.82,0,0,0-3.28.47,29.61,29.61,0,0,0-1.78-2.59c3.07-2.65,6.9-7.94,4.15-16.77C62.2,11.72,60.26,18,55,21.2a24.42,24.42,0,0,0-4.53-3.1l.1-14.31-7.34,12c-.68-.09-1.37-.15-2.06-.18C40.29,12.08,38.48,4.39,38.94,0c-4.27,5.13-3.45,12.19-2.58,16-.67.14-1.34.29-2,.49a11.56,11.56,0,0,0-15.86-5l-11.59-9,7.84,12.3a11.52,11.52,0,0,0,3.41,16.87,39.06,39.06,0,0,0-3.58,16.53c0,13.34,6.36,24.79,15.47,29.84L4.69,81.43s1.53-8.74-2.71-8-.34,12.2-.34,12.2l39.13-4,42.15,5.79S87.53,75.23,85.8,73.91ZM64.68,32a7.47,7.47,0,1,1-7.46,7.46A7.46,7.46,0,0,1,64.68,32ZM41.08,43.25c2.94,0,5.33,1.6,5.33,3.58S44,50.41,41.08,50.41s-5.34-1.6-5.34-3.58S38.13,43.25,41.08,43.25Zm-25-21.78a7.16,7.16,0,1,1,7.16,7.16A7.15,7.15,0,0,1,16.1,21.47ZM48.47,70.12a4.32,4.32,0,0,0-1.3-.22,4.4,4.4,0,0,0-4.36,3.85,4.38,4.38,0,0,0-7.07-.94h0A4.4,4.4,0,0,0,29,69.06a3.07,3.07,0,0,0,.05-.53,3.78,3.78,0,0,0-6.17-3,16.86,16.86,0,0,1-2.55-7.89A2.91,2.91,0,0,1,21.44,55,4.4,4.4,0,0,0,30,56.29c0,.12,0,.24,0,.36a4.41,4.41,0,0,0,8.44,1.81h0a4.39,4.39,0,0,0,7.66.08,4.39,4.39,0,0,0,7,.86,4.39,4.39,0,0,0,3.83,2.27h0a21.49,21.49,0,0,1-2.13,4.57,3.81,3.81,0,0,0-6.59,2.6A3.88,3.88,0,0,0,48.47,70.12Z"/></g></g></svg>