<svg xmlns="http://www.w3.org/2000/svg" viewBox="0 0 145.33 145.33"><defs><style>.cls-1{fill:#c5dfdc;}.cls-2{fill:#f04c45;}.cls-3{fill:#cd2f30;}.cls-4{fill:#3c9b46;}.cls-5{fill:#208140;}.cls-6{fill:#fff;}</style></defs><title>Asset 11</title><g id="Layer_2" data-name="Layer 2"><g id="Layer_1-2" data-name="Layer 1"><circle class="cls-1" cx="72.66" cy="72.66" r="72.66" transform="translate(-30.1 72.66) rotate(-45)"/><path class="cls-2" d="M101.47,37.48a22,22,0,0,0-14.74,2.78,23.12,23.12,0,0,1-22.35,0,22,22,0,0,0-14.73-2.78C33.47,40.4,24,62.77,28.41,87.45c4.72,26.13,23.16,44.26,40,38.72a22.79,22.79,0,0,1,14.28,0c16.82,5.53,35.28-12.56,40-38.72C127.15,62.77,117.65,40.4,101.47,37.48Z"/><path class="cls-3" d="M85.6,44.06c.87,1.06-3.33,5.25-10,5.25s-10.92-4.19-10-5.25,5.07.32,10,.24C80.53,44.38,84.81,42.9,85.6,44.06Z"/><path class="cls-4" d="M85.18,18.17a3.49,3.49,0,0,0-1.9.45,19.94,19.94,0,0,0-7.9,8.84,65.52,65.52,0,0,0-14.52-5.08c0,.65,0,1.3,0,1.95l-12-1a6.36,6.36,0,0,0,.61,3,40.44,40.44,0,0,1-11.45.9,3.28,3.28,0,0,0,1,2.19,95.7,95.7,0,0,1-9.95,4.26c-.33.49.13,1.14.62,1.46s1.11.61,1.25,1.18-.36,1.22-.84,1.67l-5.73,5.41c.7-.19,1.3.68,1.17,1.39A3.54,3.54,0,0,1,24.4,46.5a20.65,20.65,0,0,0-4.35,6.56c.46-.27,1.08.17,1.2.69a2.62,2.62,0,0,1-.31,1.56Q18.51,61,16.09,66.68a3.68,3.68,0,0,0,2.58-.38L16,73.66a1.19,1.19,0,0,0,1.29,1.57,6.57,6.57,0,0,0,1.31-.31,79.25,79.25,0,0,1-.67,10,1.42,1.42,0,0,0,2.43,1.18,96.45,96.45,0,0,1,10.33-9.26l1.69,2.27a2,2,0,0,0,3.4-.18L38.62,74a1.84,1.84,0,0,1,.63-.75c1.15-.68,2.19,1.24,3.51,1.44s2.15-1.25,2.63-2.45q1.74-4.33,3.47-8.66c1.31,0,2.4,1.78,3.58,1.22a2.18,2.18,0,0,0,.93-1.4l3-9.1a11.75,11.75,0,0,1,4.18.15,39.08,39.08,0,0,1,1.94-9.86,2.07,2.07,0,0,0,2.7-.18,6.07,6.07,0,0,0,1.42-2.57c.48-1.39,1-2.77,1.45-4.15a13.64,13.64,0,0,1,2.27-4.54,6.82,6.82,0,0,1,2.85-1.94L74,31a40.19,40.19,0,0,0-1.52,14,2.71,2.71,0,0,0,5.42-.13c0-8.41,5.34-15.9,9.78-20.72A3.55,3.55,0,0,0,85.18,18.17Z"/><path class="cls-5" d="M76.12,27.82s-8.73-.05-19.35,5.29v0s-4-1.12-11.47.42c0,0,6-.16,8.95,1A55.83,55.83,0,0,0,40,46.18l0,0s-6.4,0-10.95,3.63c0,0,7.64-2.85,9.62-2a72.48,72.48,0,0,0-11.3,19.56,71.9,71.9,0,0,1,22.2-27.1c.05.12,2.2,5-1.29,11.9,0,0,3.75-4.8,3.5-13.49A71.58,71.58,0,0,1,76.12,27.82Z"/><path class="cls-5" d="M27.38,67.29c0,.09-.06.15-.06.15Z"/><path class="cls-6" d="M107.64,50.87s12.88,17.34,5.12,42.62C112.76,93.49,117.22,71.85,107.64,50.87Z"/></g></g></svg>