<svg xmlns="http://www.w3.org/2000/svg" viewBox="0 0 145.33 145.33"><defs><style>.cls-1{fill:#fcd65e;}.cls-2{fill:#52ba5a;}.cls-3{fill:#99c23e;}.cls-4{fill:#3c9c46;}</style></defs><title>Asset 5</title><g id="Layer_2" data-name="Layer 2"><g id="Layer_1-2" data-name="Layer 1"><circle class="cls-1" cx="72.66" cy="72.66" r="72.66"/><path class="cls-2" d="M72.63,21.56a.59.59,0,0,0-.86.13c-13.14,19-2.6,27.73,1.51,30.23a4.05,4.05,0,0,0,2.89.49,4.24,4.24,0,0,0,2.18-1.2C91.17,38,75.66,24.07,72.63,21.56Z"/><path class="cls-3" d="M76.81,51.31a3.17,3.17,0,0,1-.8.28,3.22,3.22,0,0,1-2.3-.39,15.24,15.24,0,0,1-7.17-9.68c-1.16-5.44.78-11.87,5.77-19.14,2,1.73,9.75,8.78,10.19,16.94.22,4-1.38,7.85-4.75,11.3a3.17,3.17,0,0,1-.94.69Z"/><path class="cls-2" d="M69.85,29.42l3.4,1.42L73,28.07l-2.57-1.52L73,27.69l-.31-3.87.53,3.89,2.21-2.27-2.16,2.63.36,2.62,2.68-2.76-2.62,3.2L74.07,34l3.8-3.9-3.71,4.52.41,3,4.68-4.8L74.68,38.4l.44,3.27,5.24-5.37-5.12,6.23.38,2.83,5.08-5.21-5,6,1.49,10.93h0a1.31,1.31,0,0,1-2-1l-.77-9.65L68.5,43l5.93,2.61-.24-3-6.37-3.91,6.3,3-.27-3.29-5.46-3.06,5.4,2.27-.22-2.81-4.46-2.55,4.4,1.87-.22-2.79Z"/><path class="cls-4" d="M77.83,50H70.9l-.78,78.73a4.25,4.25,0,1,0,8.5,0Z"/><path class="cls-2" d="M98.75,102.58a.5.5,0,0,0-.53-.51c-19.39.87-19.9,12.39-19.47,16.41a3.34,3.34,0,0,0,1.14,2.19,3.46,3.46,0,0,0,1.92.85C97.16,123.4,98.61,105.89,98.75,102.58Z"/><path class="cls-3" d="M84,120.54a16.86,16.86,0,0,1-2.09-.13,2.44,2.44,0,0,1-1.31-.57,2.29,2.29,0,0,1-.77-1.47,12.41,12.41,0,0,1,2.73-9.43c2.91-3.38,8-5.3,15-5.72-.28,4.11-2.07,17.32-13.56,17.32Z"/><path class="cls-2" d="M96.36,108.29l-3.22-.39,1.57-1.58,2.86.11-2.64-.32,2.33-2.34L94.83,106l-.53-2.28.29,2.5-1.74,1.55-.78-3,.47,3.28-1.76,1.57-1-3.9.57,4.28-1.77,1.59-1.23-4.78.73,5.22L86,113.84l-1.18-5.76.62,6.26L83.59,116l-1.27-5.29.71,5.79-6.89,6.17a1.44,1.44,0,1,0,2.11,1.93l5.59-7.4,6.57.25-6.08-.75L86,115l6.79.26-6.27-.77,2-2,6.06.23-5.6-.69,1.83-1.83,4.92.19-4.55-.56,1.71-1.71Z"/><path class="cls-2" d="M41.21,84.57a.73.73,0,0,1,.77-.74c28.19,1.26,28.92,18,28.31,23.86a5,5,0,0,1-1.67,3.18,5.07,5.07,0,0,1-2.78,1.23C43.52,114.83,41.41,89.39,41.21,84.57Z"/><path class="cls-3" d="M62.6,111.19c-17.71,0-20-20.93-20.25-26.23,10.68.54,18.33,3.41,22.74,8.53a18.58,18.58,0,0,1,4.09,14.08,3.79,3.79,0,0,1-1.3,2.46,4,4,0,0,1-2.18,1A25.57,25.57,0,0,1,62.6,111.19Z"/><path class="cls-2" d="M74.37,114.05l-10.32-9.23,1-8.43-1.85,7.71-2.72-2.44.9-9.1-1.72,8.37-3-2.7,1.07-7.59-1.79,7-2.57-2.3.82-6.23-1.44,5.67-2.56-2.28.69-4.76L49.78,92l-2.52-2.26.41-3.63-.76,3.32L43.37,86.3l3.39,3.4-3.84.47L47.07,90l2.29,2.29-4.68.57,5.06-.19,2.48,2.49-6.6.81,7.15-.27,2.66,2.66-8.14,1,8.8-.33L59,101.89,49.83,103l9.86-.37,2.47,2.47-8.83,1.09,9.56-.36,9.82,10a1.2,1.2,0,1,0,1.66-1.74Z"/><path class="cls-2" d="M102.08,74.89a.61.61,0,0,1,.64.65c-1.08,24.24-15.48,24.87-20.51,24.34a4.24,4.24,0,0,1-2.74-1.43,4.45,4.45,0,0,1-1.06-2.39C76.07,76.87,97.94,75.06,102.08,74.89Z"/><path class="cls-3" d="M84.18,98.87a16.13,16.13,0,0,1-1.85-.1,3.14,3.14,0,0,1-2-1.06,3.29,3.29,0,0,1-.79-1.79c-.61-5,.46-9.11,3.17-12.3C88,77.33,98.42,76.22,101.58,76,100.51,95.88,90.25,98.87,84.18,98.87Z"/><path class="cls-2" d="M99.41,83.23l-3.75-1,1.94-2.18,3.13.36-2.86-.65,2.73-3.05-2.92,2.91-.41-3.3.14,3.58-2,2-.5-4,.17,4.35L93,84.35l-.69-5.68.23,6.15-2.29,2.29-.86-7,.29,7.57-2.46,2.45-1-7.83.32,8.47L84.42,92.9l-.93-7.59.31,8.21-7.89,7.75a1.26,1.26,0,0,0-.39.91,1.29,1.29,0,0,0,2.28.81l6.87-8.47,7.25.9L85.3,93.83l2.09-2.34,7.82.78L88,90.79l2.32-2.59,6.52.92-6-1.54,2-2.21,5.35.71-4.87-1.24,2-2.2Z"/><path class="cls-2" d="M106.23,43.25A.7.7,0,0,1,107,44C105.74,71.15,89.6,71.85,84,71.26a4.78,4.78,0,0,1-3.07-1.61A5,5,0,0,1,79.72,67C77.09,45.47,101.6,43.44,106.23,43.25Z"/><path class="cls-3" d="M86.18,70.26a20.59,20.59,0,0,1-2.09-.11,3.68,3.68,0,0,1-2.35-1.24,3.88,3.88,0,0,1-.92-2.08c-.68-5.6.53-10.27,3.59-13.88,6.1-7.19,18-8.37,21.41-8.56C104.66,66.88,93,70.26,86.18,70.26Z"/><path class="cls-2" d="M103.24,52.6,99,51.51l2.18-2.43,3.5.4-3.21-.74,3.06-3.41L101.3,48.6l-.46-3.71.16,4-2.21,2.2-.55-4.5.18,4.87L96,53.86l-.78-6.37.26,6.89-2.57,2.56L92,49.1l.32,8.48-2.75,2.75-1.08-8.78.36,9.5-2.38,2.38-1-8.5.35,9.2-9.13,9a1.08,1.08,0,0,0-.3.78,1,1,0,0,0,1.78.65l8.63-9.29,8.12,1-7.42-1.78,2.34-2.62,8.77.86-8.06-1.65,2.6-2.9,7.31,1-6.7-1.72L95.91,55l6,.79L96.45,54.4l2.2-2.46Z"/><path class="cls-2" d="M39.2,47.84a.79.79,0,0,0-.81.84c1.38,30.81,19.68,31.61,26.07,30.94a5.42,5.42,0,0,0,3.48-1.83,5.62,5.62,0,0,0,1.35-3C72.27,50.36,44.46,48.06,39.2,47.84Z"/><path class="cls-3" d="M62,78.63c-7.85,0-21.16-3.86-22.43-29.66,3.55.19,17.48,1.44,24.56,9.78,3.5,4.12,4.88,9.46,4.1,15.87a4.46,4.46,0,0,1-1.08,2.43,4.22,4.22,0,0,1-2.75,1.45,21.19,21.19,0,0,1-2.4.13Z"/><path class="cls-2" d="M72.49,81.56l-10-10,.39-10.45-1.18,9.66L59,68l.4-10.78-1.22,10L55,64.1l.36-9.62-1.09,8.89-2.91-2.9.3-7.82-.89,7.23-2.71-2.71.2-5.53-.62,5.11-2.51-2.5.18-4.55-.52,4.2-3.71-3.7,3.47,3.87-3.64.83,4-.45,2.47,2.76L42.6,58.45l5.21-.75,2.5,2.79-6.2,1.58,6.8-.9L53.43,64l-7.59,2,8.29-1.17,2.95,3.3-9.15,1.87,10-1,2.66,3-8.42,2,9.21-1.14,9.35,10.47a1.24,1.24,0,0,0,2.17-.78A1.3,1.3,0,0,0,72.49,81.56Z"/><path class="cls-2" d="M92.7,20a.8.8,0,0,0-1.11-.36C64.58,34.51,72,51.27,75.41,56.71A5.41,5.41,0,0,0,78.59,59a5.7,5.7,0,0,0,3.32-.14C105.09,50.74,94.84,24.79,92.7,20Z"/><path class="cls-3" d="M80,58.09a4.22,4.22,0,0,1-1.13-.15,4.29,4.29,0,0,1-2.52-1.83,20.35,20.35,0,0,1-2.83-15.86c1.85-7.2,8-13.75,18.29-19.48,1.42,3.29,6.46,16.32,2.13,26.34-2.15,5-6.32,8.58-12.41,10.71a4.53,4.53,0,0,1-1.53.27Z"/><path class="cls-2" d="M93.19,42.22l-9.47,3.32,1.41-4.18,8.79-3.94-8.46,3,1.31-3.9,7.14-3.19L87,35.69l1.23-3.63,5-2.26-4.86,1.7,1.13-3.35,4.15-1.86-4,1.4,1.68-5-1.94,4.82-2.36-2.89L89.3,28l-1.38,3.44L84.7,27.73l3,4.33-1.4,3.48-4.16-4.86,3.82,5.7-1.4,3.51L79.42,34l4.73,6.91L82.5,45,76.77,37.6l5.29,8.48-1.49,3.7L75,43.13l5.1,7.75-4.82,12a1.71,1.71,0,0,0-.09.3c-.3,1.43,1.89,1.92,2.35.54l4.2-12.41L91.3,47l-9.18,3.22,1.23-3.62Z"/><path class="cls-2" d="M54.7,20.92a.79.79,0,0,1,1.1-.38C83.08,34.94,76,51.84,72.65,57.33a5.46,5.46,0,0,1-3.14,2.37,5.69,5.69,0,0,1-3.32-.08C42.86,51.9,52.65,25.77,54.7,20.92Z"/><path class="cls-3" d="M68,58.79a4.89,4.89,0,0,1-1.46-.23c-6.13-2-10.36-5.56-12.6-10.49-4.51-9.94.29-23.06,1.65-26.38,10.39,5.55,16.66,12,18.64,19.15a20.38,20.38,0,0,1-2.54,15.91,4.26,4.26,0,0,1-2.49,1.87A4,4,0,0,1,68,58.79Z"/><path class="cls-2" d="M73,63.8c0-.1-.06-.2-.1-.3l-5-11.91,5-7.84L67.37,50.5l-1.56-3.68L71,38.25l-5.6,7.47-1.72-4.07,4.6-7-5,6L61.75,37.2l3.72-5.77L61.4,36.36l-1.46-3.45,2.9-4.39L59.68,32.3l-1.44-3.41,2.11-3.4L58,28.42l-2-4.78,1.77,4.93-4-1.32L58,29l1.2,3.33-4.89-1.61,5.09,2.17,1.29,3.61-6.91-2.28,7.19,3.07,1.39,3.87L53.8,38.38l8.85,3.78,1.49,4.15-9.53-3.15,9.92,4.24L65.82,51l-9.23-3,9.61,4.1,4.41,12.33C71.1,65.75,73.28,65.22,73,63.8Z"/></g></g></svg>