<svg xmlns="http://www.w3.org/2000/svg" viewBox="0 0 145.33 145.33"><defs><style>.cls-1{fill:#f04c45;}.cls-2{fill:#abb2b9;}.cls-3{fill:#fcd65e;}.cls-4{fill:#ced4df;}.cls-5{fill:#e5e8ec;}</style></defs><title>Asset 17</title><g id="Layer_2" data-name="Layer 2"><g id="Layer_1-2" data-name="Layer 1"><circle class="cls-1" cx="72.66" cy="72.66" r="72.66"/><path class="cls-2" d="M65.81,94.89a12.37,12.37,0,0,0-.71-3.69c-.46-1-.85-.85-1.71-.71-.23.06-.71-.29-.79-1-.18-1.58.89-2.21-1.45-5.47-1.85-2.54-1.13-2.92-2-4.27a2.23,2.23,0,0,0-1.74-1.11v4.5c1.54,0,1.63,1.78,2,2.92.62,1.83,2.34,2.58,2.08,5.37a5.5,5.5,0,0,0,0,.9c.05.45.29.88.77.79,1.13-.33,1.51.73,1.76,3.76.24,2.79.61,3.24,1.35,4.13C67,102.79,68.17,108,67,108h2.53a.55.55,0,0,0,.55-.61C69.2,97.56,66.42,102.1,65.81,94.89Z"/><ellipse class="cls-3" cx="81.29" cy="34.17" rx="16.55" ry="16.69"/><path class="cls-2" d="M111.49,94c-3.51-5.08-.68-18.15-6.39-16.6-.43.08-.56.21-1-.13-1.1-.86-.92-2.46-.8-3.76.6-6.49-3.57-8.08-5.16-12.38-.71-2-1-6-4.55-6.69A3,3,0,0,0,91.1,55c-.12.09-.22.19-.32.28a5.5,5.5,0,0,0-1,1.68L84.07,69.48v42.11H116.8a1.1,1.1,0,0,0,.79-.34,1.08,1.08,0,0,0,.28-.84C116.68,97.65,113.83,97.37,111.49,94Z"/><path class="cls-4" d="M106.91,94c-3.49-5-.68-18.16-6.41-16.6-.43.08-.55.21-1-.13-1.1-.87-.92-2.42-.81-3.76.67-6.33-3.58-8.15-5.15-12.38-.65-1.71-.79-4.43-2.75-5.86a5.5,5.5,0,0,0-1,1.68C83.31,71.16,83,72.48,81.4,73.53a3.64,3.64,0,0,0-.68-1.08l0,0a2,2,0,0,0-2.93.24,4.6,4.6,0,0,1-.93.89,3.54,3.54,0,0,0-3.23-2.23,1.07,1.07,0,0,0-1.06,1L72,84.79c-1.82-1.31-3.58-.52-3.58.53a52,52,0,0,1-3.43,19l-.57,1.38a2.22,2.22,0,0,0,0,.59v4.27a1.06,1.06,0,0,0,.32.77,1.09,1.09,0,0,0,.77.31h46.7a1.13,1.13,0,0,0,.8-.34,1,1,0,0,0,.27-.84C112.06,97.39,109.1,97.26,106.91,94Z"/><path class="cls-2" d="M90.35,69.05c3.6-6.52,2.48-6.56,6.86,3.85a16.71,16.71,0,0,1,1,3c.29,1.32.31,2.82,1.24,3.8.24.25.53.45.77.71,1,1.1.84,2.82,1.21,4.29.59,2.37,2.73,4.26,2.84,6.7a35.21,35.21,0,0,1-4.64-7.3,18.28,18.28,0,0,0-1.79-3.38c-1-2.13,0-4.87-1.23-6.92-.69-1.18-2.05-2-2.29-3.35a3.25,3.25,0,0,0-.26-1.25,1.32,1.32,0,0,0-1.79-.24,3.79,3.79,0,0,0-1.2,1.58A1.76,1.76,0,0,1,90.35,69.05Z"/><path class="cls-2" d="M100,93.38a5.45,5.45,0,0,0,4.32,5.09,12.09,12.09,0,0,1,3.26.54c1.5.73,3.49,4.24,3.88,5.81a34.84,34.84,0,0,1,.37,4.46c-3.42-6.8-1.63-6.68-3.86-7.17-1.91-.43-3-2.55-4.73-3.39-1.59-.76-4.15-.5-3.43-5"/><path class="cls-2" d="M86.93,74.25l-2.64,4.47c-1.7,2.89,1.48,2.88.41,7.24-.46,1.89-.91,2.38,1.44,4.6a25,25,0,0,1,4.42,5.56c.09-3,.25-4.23-.16-5.16-.65-1.5-2.71-2.11-3.14-3.69-.22-.83.08-1.73-.18-2.54a8.49,8.49,0,0,0-.88-1.51c-1.11-2-.18-4.38,1-8.79"/><path class="cls-2" d="M94.13,94.77a29.73,29.73,0,0,0,0,3.89c0,3.39-1.15,3.84-1.84,5-.94,1.57-.12,1.72,5.51,6.57-1-2.93-2.93-3.59-3.09-5.42-.23-2.7,3-2.34-.37-10.07"/><path class="cls-2" d="M77.65,79c-1.37-15.51-5.06-9.74-7.17-11.26s-.72-4.79-1-7.76c-.51-5.85-5.7-8.14-7.57-14.87-.49-1.84-1.42-5.82-5.45-6.55a4.13,4.13,0,0,0-3.28.7,6,6,0,0,0-1.82,2.51L46.32,52.48v59.11H87.41a1.39,1.39,0,0,0,1.42-1.5C86.5,85.92,79.28,96.85,77.65,79Z"/><path class="cls-5" d="M77.21,92.8c-1.06-1.29-2.51-2.68-3.23-3.67C69.29,82.6,73.12,66,65.46,67.9c-1.58.34-2.35-1.17-2.5-2.31A13.46,13.46,0,0,1,63,62.92c.84-8.15-4.78-10.42-6.85-15.82-.91-2.37-1.06-5.52-3.52-7.37a6.65,6.65,0,0,0-1.29,2L43.54,58.37c-.87,1.88-1.88,3.67-3.26,4.55a4.31,4.31,0,0,0-.91-1.37l0,0a2.83,2.83,0,0,0-4.16.23l0,0a3,3,0,0,0-.69,1.74l-.61,13.8A4.06,4.06,0,0,0,30,76.7,1.37,1.37,0,0,0,29.09,78a63.59,63.59,0,0,1-4.56,24.23L23.79,104a2.06,2.06,0,0,0,0,.76v5.46a1.33,1.33,0,0,0,.42,1,1.45,1.45,0,0,0,1,.4H81a1.52,1.52,0,0,0,1.06-.44,1.32,1.32,0,0,0,.36-1.06C81.91,104.3,81.26,97.73,77.21,92.8Z"/><path class="cls-4" d="M68.77,108H66.13a.46.46,0,0,0,.45-.52c-.72-8.18-3-4.46-3.53-10.54-.34-3.83-.86-3.94-2-3.72-.36,0-.61-.46-.64-.83a5.5,5.5,0,0,1,0-.9c.28-3-1.7-3.41-2.36-6-.28-1-.63-2-1.73-2.22a1.29,1.29,0,0,0-1,.24,2.05,2.05,0,0,0-.57.86l-2.48,5.62a3.63,3.63,0,0,1-1,1.55c-.35-.93-1.78-1.33-1.81-.52l-.22,5.4c-.76-.56-1.51-.22-1.51.23a23,23,0,0,1-1.44,8.22c-.35.89-.24.27-.24,2.71a.45.45,0,0,0,.46.47H43.84a.6.6,0,0,1-.41-.16.55.55,0,0,1-.16-.4c0-3-.14-2.17.29-3.2a25.49,25.49,0,0,0,1.83-9.71.55.55,0,0,1,.37-.52,1.62,1.62,0,0,1,1.55.25l.27-6.39c0-.81,1.31-.59,1.93.06a1.78,1.78,0,0,1,.36.56,4.39,4.39,0,0,0,1.31-1.83L54.32,80c1-2.09,2.93-1.33,3.64-.19.91,1.42.08,1.67,2,4.27,1.3,1.74,1.74,2.54,1.54,4.41-.32,3.83,1.52.6,2.57,2.74a12.11,12.11,0,0,1,.74,3.69c.35,4,1.06,3.94,2.37,5.54C68.76,102.29,70.12,108,68.77,108Z"/><path class="cls-4" d="M32.06,101.8c5.25-4.42,5.43-12.14,6.89-17.88.29-1.11.5-1.09,1.38-1.62,3-1.84,2.25-6.31,2.49-8.79.91-9,8.34-9.85,9.73-24.38.53,9.73-.68,10.82-5.22,18.17-5.29,8.57-2,10.39-3.08,13.81-.91,3-2.9,2.09-4.56,10.22-.41,2-1.64,10.26-7.88,10.49"/><path class="cls-2" d="M52.55,49.13a22.75,22.75,0,0,1,9.52,17,15.55,15.55,0,0,0,.65,5c.64,1.56,2.28,2.92,4,2.59.82-.15,1.2-.27,1.47.53A63.74,63.74,0,0,1,71,85.88c1.28,9.21,5.57,9.81,7,21.24-1.7-6.15-7.73-10.21-10.54-23.46a11,11,0,0,0-1.76-4.83c-1.42-1.74-4-2.59-4.83-4.67a16.52,16.52,0,0,1-.45-2.9c-.36-2-1.79-3.67-2.13-5.66-.22-1.26,0-2.57-.12-3.85-.2-1.75-.66-2.49-5.15-12.35"/></g></g></svg>