<svg xmlns="http://www.w3.org/2000/svg" viewBox="0 0 145.33 145.33"><defs><style>.cls-1{fill:#d8baa7;}.cls-2{fill:#ced4df;}.cls-3{fill:#3c9c46;}.cls-4{fill:#52ba5a;}.cls-5{fill:#1f8e44;}.cls-6{fill:#40a348;}.cls-7{fill:#f59c1d;}.cls-8{fill:#ec7a23;}.cls-9{fill:#cd2e30;}.cls-10{fill:#f45d5d;}.cls-11{fill:#ef4c45;}</style></defs><title>Asset 16</title><g id="Layer_2" data-name="Layer 2"><g id="Layer_1-2" data-name="Layer 1"><circle class="cls-1" cx="72.66" cy="72.67" r="72.66" transform="translate(-30.1 72.67) rotate(-45)"/><path class="cls-2" d="M145.33,72.66a72.67,72.67,0,0,1-72.66,72.67c-1.58,0-3.13-.05-4.68-.16a72.66,72.66,0,1,1,77.17-77.5C145.28,69.32,145.33,71,145.33,72.66Z"/><path class="cls-3" d="M78.09,84.41l-2.48-.1c.07-1.76,1.92-43.18,18.21-57.88l1.66,1.85C80,42.27,78.11,84,78.09,84.41Z"/><path class="cls-3" d="M71.43,83.16,69,82.89c1.85-16.64-9.41-38-9.53-38.2l2.2-1.17C62.11,44.42,73.37,65.76,71.43,83.16Z"/><path class="cls-4" d="M109.05,44.76c-.64,34.1-12.14,22.07-18.74,48.7a3.35,3.35,0,0,1-6.6-.78,36.61,36.61,0,0,1,8.07-19.26c1.33-1.63,2.8-3.14,4.15-4.76a83.28,83.28,0,0,0,6.23-8.92,35.36,35.36,0,0,0,3.48-6.39A36.18,36.18,0,0,0,107.05,48l.4-1.87.32-1.53A.65.65,0,0,1,109.05,44.76Z"/><path class="cls-3" d="M109.05,44.76c-.64,34.1-12.14,22.07-18.74,48.7a3.32,3.32,0,0,1-1.87,2.22,27,27,0,0,1,.9-5.94,31.4,31.4,0,0,1,3.9-7.68c4.81-7.71,5.59-7.33,7.5-9.77,4.69-6.08,8.16-22.84,6.71-26.15l.32-1.53A.65.65,0,0,1,109.05,44.76Z"/><path class="cls-4" d="M34,44.76c.64,34.38,12.14,22,18.74,48.7a3.3,3.3,0,0,0,1.87,2.22,3.35,3.35,0,0,0,4.72-3,36.56,36.56,0,0,0-8.06-19.26c-1.33-1.63-2.8-3.14-4.16-4.76a84.65,84.65,0,0,1-6.22-8.92C37,53.62,37,52.73,35.3,44.61A.65.65,0,0,0,34,44.76Z"/><path class="cls-3" d="M34,44.76c.64,34.38,12.14,22,18.74,48.7a3.3,3.3,0,0,0,1.87,2.22,27,27,0,0,0-.9-5.94,31.4,31.4,0,0,0-3.9-7.68c-7.75-12.42-5.79-4.77-11-16.8-2.65-6.14-3-9.83-3.48-15.43a7.61,7.61,0,0,1,.28-3.69l-.32-1.53A.65.65,0,0,0,34,44.76Z"/><path class="cls-5" d="M81.25,37.52C86.69,41.73,97.24,61,99.08,83H86.86s7.73-24.29-6.55-44.59A.67.67,0,0,1,81.25,37.52Z"/><path class="cls-6" d="M63.35,83C60.88,53.4,45.69,33.56,39.7,29.4a.52.52,0,0,0-.71.73A59.42,59.42,0,0,1,48.23,83Z"/><path class="cls-5" d="M82.69,23.77C75.9,28.61,59.91,51.33,57.27,83H73.79S63,52.73,83.59,24.66A.64.64,0,0,0,82.69,23.77Z"/><path class="cls-6" d="M88.05,83c-3-35.77-21.68-57.92-28.39-62.43a.51.51,0,0,0-.69.74C82.08,52.07,70.2,83,70.2,83Z"/><path class="cls-6" d="M100.59,35.4C95.13,39.3,82.28,57.55,80.16,83H93.43s-8.67-24.35,7.88-46.91A.52.52,0,0,0,100.59,35.4Z"/><path class="cls-5" d="M83.35,47.72C79.13,51,71,65.93,69.52,83H79s-6-18.85,5.08-34.6A.51.51,0,0,0,83.35,47.72Z"/><path class="cls-7" d="M47.32,87.15l5.9,40.69A3.71,3.71,0,0,0,56.89,131h34a3.7,3.7,0,0,0,3.67-3.17l5.91-40.69Z"/><polygon class="cls-8" points="98.67 99.32 100.44 87.15 47.31 87.15 49.08 99.32 98.67 99.32"/><rect class="cls-7" x="42.66" y="82.41" width="62.43" height="14.85" rx="2.87"/><path class="cls-9" d="M103,18.29c-1.08-.92-4.26,1-7.1,4.38s-4.27,6.8-3.19,7.72C95.24,32.58,105.53,20.49,103,18.29Z"/><path class="cls-10" d="M105.52,23.93c-.82-1.22-4.79-.49-8.18.89l-7.29,8.31c1.07,1.61,4.73,2.51,8.21.34S106.59,25.55,105.52,23.93Z"/><path class="cls-11" d="M96.44,28C98,24.23,98.75,17.47,97,16.67s-6.68,4.91-8.26,8.69-.11,7.24,1.65,8S94.86,31.8,96.44,28Z"/><path class="cls-11" d="M104.36,23.85a3.85,3.85,0,0,0-2,.17l.38-.08c-.34.08-1.2.2-1.27.52,1.27-.12,3-.48,2.7.89A19.88,19.88,0,0,1,102,29.18a1.07,1.07,0,0,0-.34.77C103.19,28.38,106.52,24.27,104.36,23.85Z"/><path class="cls-9" d="M92.69,31.61c0-.05.08-.12,0-.17s-.12,0-.18,0c-.65.37-.9.72-1.63.42-1.85-.75-1.69-3.19-1.65-5.13a2.88,2.88,0,0,1,0-.59,3.87,3.87,0,0,0,.3-.95s0-.07,0-.08,0,0,0,0l0,0C87.32,30,89.93,35.11,92.69,31.61Z"/><path class="cls-9" d="M54.07,31.2c-1.11.58-.56,3.81,1.23,7.22s4.12,5.71,5.23,5.13C63.16,42.18,56.7,29.82,54.07,31.2Z"/><path class="cls-10" d="M59.5,31c-1.27.26-2,3.73-2,7l4.37,8.66c1.67-.34,3.6-3,3-6.57S61.17,30.62,59.5,31Z"/><path class="cls-11" d="M59.84,39.7c-2.56-2.53-7.83-5.35-9.06-4.17s1.8,7,4.36,9.58C59.53,49.46,67,46.74,59.84,39.7Z"/><path class="cls-11" d="M58.54,33.56l.05-.34c0,.3-.22,1,0,1.21.34-1.14.69-3.13,2.1-1.43l.45.55a15.12,15.12,0,0,1,1.47,2c.12.22.26.47.51.53C60.4,29.85,58.6,31.14,58.54,33.56Z"/><path class="cls-9" d="M61.54,43.94s-.08-.11-.14-.09,0,.09,0,.14c.09.66.3,1-.18,1.47-1.23,1.26-3.16.32-4.73-.34a2.51,2.51,0,0,1-.46-.24c-.12-.09-.66-.66-.75-.55s0,0,0,0h0C58.59,47.89,63.44,47.28,61.54,43.94Z"/></g></g></svg>