<svg xmlns="http://www.w3.org/2000/svg" viewBox="0 0 145.33 145.33"><defs><style>.cls-1{fill:#3d9d46;}.cls-2{fill:#f7af19;}.cls-3{fill:#d38e16;}.cls-4{fill:#f3f3f3;}.cls-5{fill:#e8eae9;}</style></defs><title>Asset 10</title><g id="Layer_2" data-name="Layer 2"><g id="Layer_1-2" data-name="Layer 1"><circle class="cls-1" cx="72.66" cy="72.66" r="72.66"/><path class="cls-2" d="M110.32,94.9C97.55,84.48,86.54,68.85,83.15,58.34,80.67,50.66,61.56,24.6,57.5,20.78a4,4,0,0,0-5.09-.3l-5.2,3.85a4,4,0,0,0-1,5.31c5.77,9.14,34.05,53.51,42,60A55.23,55.23,0,0,1,100,103.71a28.83,28.83,0,0,1,3.49,9.11c2,9.45,13.86,4.93,15.66,2.27C121.14,112.17,123.09,105.32,110.32,94.9Z"/><path class="cls-3" d="M80.18,66.45c-.74-.69-1.49,1-1.35,2.07A6,6,0,0,0,79.94,71l-.28-.26c3.75,13.07,5.74,7.63,15.49,21.57a.52.52,0,0,0,.92-.48,61.21,61.21,0,0,1-2-6.48C92.15,77.16,92.27,77.74,80.18,66.45Z"/><path class="cls-2" d="M94.65,90.45a.18.18,0,0,1-.25,0c-7.73-11-9.25-6.76-12.14-16.75l.11-.1a4.63,4.63,0,0,1-.84-1.86A1.67,1.67,0,0,1,82,70.22a.18.18,0,0,1,.22,0c9.57,8.94,9.43,8.44,10.94,14.83a49.33,49.33,0,0,0,1.57,5.15.18.18,0,0,1-.08.22Z"/><path class="cls-3" d="M100.37,90.37c7.69,11,8.95,9.24,12.21,12.83a10.27,10.27,0,0,1,2.22,9.46c-.36-4-.37-4.91-.66-5.69-.5-1.28-3.4-4.17-4.54-5-5.37-4.11-4-6.35-9.5-11.39"/><path class="cls-3" d="M102.84,101.32c-1.53-1.87-2.54-4.15-4.21-5.89,0,.17,0,.34,0,.52l.24,0a48.31,48.31,0,0,0,4.64,7.09,20.61,20.61,0,0,1,2.16,2.77c1.12,1.94,1.26,4.29,2.15,6.35.33-.05.38-.51.33-.83C107.29,105.58,103.88,102.6,102.84,101.32Z"/><path class="cls-4" d="M49,81.07A58,58,0,0,1,24.77,42.36a3.67,3.67,0,0,1,2.89-4.21c1.61-.33,3.21-.69,4.79-1.08C44.76,34,55.93,28.91,63.36,23.88a3.05,3.05,0,0,1,4.3.91L83.54,50.14a3.05,3.05,0,0,1-1.05,4.26c-7.77,4.49-17.22,12.33-25.35,22.07q-1.57,1.88-3.06,3.84A3.67,3.67,0,0,1,49,81.07Z"/><path class="cls-5" d="M57.14,76.47a2.55,2.55,0,0,1-.39-.24A57.87,57.87,0,0,1,32.49,37.52a3.42,3.42,0,0,1,0-.45C44.76,34,55.93,28.91,63.36,23.88a3.05,3.05,0,0,1,4.3.91L83.54,50.14a3.05,3.05,0,0,1-1.05,4.26C74.72,58.89,65.27,66.73,57.14,76.47Z"/><path class="cls-3" d="M90.25,82.74l0,0a.29.29,0,0,1,0,.1Z"/><path class="cls-3" d="M84.93,75.27c-.21,0-.39.23-.14.72a14.26,14.26,0,0,0,3.26,4.71,9.14,9.14,0,0,1,2.16,2C91,80.41,88.48,79.22,84.93,75.27Z"/></g></g></svg>