<svg xmlns="http://www.w3.org/2000/svg" viewBox="0 0 145.33 145.33"><defs><style>.cls-1{fill:#545f6f;}.cls-2{fill:#f59c1d;}.cls-3{fill:#ec7a23;}.cls-4{fill:#f9aa53;}.cls-5{fill:#535e6f;}</style></defs><title>Asset 2</title><g id="Layer_2" data-name="Layer 2"><g id="Layer_1-2" data-name="Layer 1"><circle class="cls-1" cx="72.66" cy="72.66" r="72.66"/><rect class="cls-2" x="88.27" y="18.17" width="11.41" height="109" rx="1.7"/><rect class="cls-2" x="45.64" y="18.17" width="11.39" height="109" rx="1.7"/><rect class="cls-3" x="45.65" y="45.16" width="11.38" height="2.84"/><rect class="cls-3" x="88.28" y="45.16" width="11.38" height="2.84"/><rect class="cls-3" x="45.65" y="77.57" width="11.38" height="2.84"/><rect class="cls-3" x="88.28" y="77.57" width="11.38" height="2.84"/><rect class="cls-3" x="45.65" y="110.23" width="11.38" height="2.84"/><rect class="cls-3" x="88.28" y="110.23" width="11.38" height="2.84"/><path class="cls-4" d="M99.69,35.71v8.84a1.74,1.74,0,0,1-1.75,1.74H47.37a1.73,1.73,0,0,1-1.73-1.74V35.71A1.74,1.74,0,0,1,47.37,34H97.94A1.74,1.74,0,0,1,99.69,35.71Z"/><path class="cls-2" d="M83.85,40.9c-8.51-1.83-9.1-.37-13.65-1.18-2-.35-3.82-1.15-5.79-1.4a10.67,10.67,0,0,0-3.19.07,2.46,2.46,0,0,0-1,.35A1.76,1.76,0,0,0,60,40.93a4.9,4.9,0,0,0,1.66,1.57,1.57,1.57,0,0,0,.55.37,4,4,0,0,0,1.62.14l18.11-1A13.35,13.35,0,0,0,86,41.35Z"/><path class="cls-2" d="M85.47,46.29H63.37a27.64,27.64,0,0,1,3.49-.49c2.72-.19,5.49.21,8.18-.27,2-.35,3.82-1.16,5.78-1.41a11,11,0,0,1,3.19.07,2.41,2.41,0,0,1,1,.36A1.65,1.65,0,0,1,85.47,46.29Z"/><path class="cls-4" d="M63.86,41.56a3.88,3.88,0,0,1-1.3-1.18.74.74,0,0,1,0-.73,9.34,9.34,0,0,1,3.34-.21,20,20,0,0,1,3,.71c5,1.45,6.25.78,10.52,1C62.74,42,64.69,42.13,63.86,41.56Z"/><path class="cls-2" d="M68.38,40.77c-2.68-.45-1.95-.8-3.74-.73a.88.88,0,0,0-.7.25c-1,1.32,2.94,1.12,4.57,1.12,1.15,0,2.1-.25-.41-.72"/><polygon class="cls-2" points="99.68 44.04 89 44.04 99.69 42.02 99.68 44.04"/><polygon class="cls-2" points="45.65 35.56 53.79 35.56 45.65 36.9 45.65 35.56"/><polygon class="cls-2" points="45.65 43.68 57.08 43.68 45.65 44.72 45.65 43.68"/><path class="cls-2" d="M55.36,38.71a3.13,3.13,0,0,0-1.24-.33c-2.2-.23-4.43.27-6.63.11-.63,0-1.24-.13-1.85-.19v1.05l.46,0a23.38,23.38,0,0,0,3.25-.07,18.94,18.94,0,0,1,3.36,0,2.6,2.6,0,0,1,.94.23A.63.63,0,0,1,54,40c0,.19-.24.47-.59.67a7.42,7.42,0,0,1-3.78.59,8.21,8.21,0,0,1-1.26-.11,7.76,7.76,0,0,1-1.19-.38,8.15,8.15,0,0,0-1.52-.47v.57a2.14,2.14,0,0,1,.35.06l0-.05c1.21-.18,2.35.63,3.56.88a7.17,7.17,0,0,0,1.39.1,7.94,7.94,0,0,0,4.19-.68,1.69,1.69,0,0,0,1-1.4A1.35,1.35,0,0,0,55.36,38.71Z"/><path class="cls-2" d="M99.69,37.52c-1.26-.64-1.86-1.34-2.61-1.21l.44,0c-3,0-6.07-.06-9.09-.26-.36,0-.79,0-1,.29s.07.83.4,1.11a5.88,5.88,0,0,0,3.78,1.18c1.34,0,2.68-.27,4-.4a19.58,19.58,0,0,1,4,0Z"/><path class="cls-4" d="M96.07,37c-1.62-.1-3.25.35-4.84.1a9.06,9.06,0,0,0-1.7-.25c-.67,0-.68.54-.32.79a1.23,1.23,0,0,0,.68.17,6.21,6.21,0,0,0,1.83-.11c1.45-.36,0-.29,5.61-.3A13.3,13.3,0,0,0,95.8,37"/><path class="cls-2" d="M71.88,36.59s4.21-1.15,11.17,0C83.05,36.59,74.82,37.44,71.88,36.59Z"/><path class="cls-5" d="M95.24,40.13A1.26,1.26,0,1,1,94,38.87,1.26,1.26,0,0,1,95.24,40.13Z"/><path class="cls-5" d="M52.6,40.13a1.26,1.26,0,1,1-1.26-1.26A1.25,1.25,0,0,1,52.6,40.13Z"/><path class="cls-4" d="M99.69,68.24v8.85a1.73,1.73,0,0,1-1.75,1.73H47.37a1.73,1.73,0,0,1-1.73-1.73V68.24a1.73,1.73,0,0,1,1.73-1.73H97.94A1.73,1.73,0,0,1,99.69,68.24Z"/><path class="cls-2" d="M83.85,73.43c-8.51-1.83-9.1-.37-13.65-1.18-2-.35-3.82-1.15-5.79-1.4-1-.13-3.37-.16-4.17.43A1.74,1.74,0,0,0,60,73.46a6.21,6.21,0,0,0,2.21,1.94c.8.31.52.2,19.73-.86A13.06,13.06,0,0,0,86,73.88Z"/><path class="cls-2" d="M85.47,78.82H63.37c5.59-1.09,7.91-.09,11.67-.76,2-.35,3.82-1.15,5.78-1.4C83.17,76.35,86.09,76.55,85.47,78.82Z"/><path class="cls-4" d="M63.86,74.09a4,4,0,0,1-1.3-1.17c-.15-.29-.12-.66,0-.73A1.59,1.59,0,0,1,63,72,9.33,9.33,0,0,1,65.88,72c3.11.39,4.22,1.66,9.41,1.66,1.44,0,2.72-.07,4.11,0l-14.07.77C64.1,74.47,64.22,74.34,63.86,74.09Z"/><path class="cls-2" d="M68.38,73.3a8.62,8.62,0,0,1-2.5-.65c-.43-.11-1.66-.19-1.94.17a.56.56,0,0,0,.05.66c.52.67,2.23.46,4.52.46.23,0,1.22,0,1.2-.26,0-.05,0-.07-.1-.08a11.09,11.09,0,0,0-1.51-.37"/><polygon class="cls-2" points="99.68 76.57 89 76.57 99.69 74.55 99.68 76.57"/><polygon class="cls-2" points="45.65 68.1 53.79 68.1 45.65 69.43 45.65 68.1"/><polygon class="cls-2" points="45.65 76.21 57.08 76.21 45.65 77.25 45.65 76.21"/><path class="cls-2" d="M54.12,70.91c-2.2-.23-4.43.27-6.63.11-.63,0-1.24-.13-1.85-.19v1.06l.46,0c2.24.16,4.54-.33,6.61-.11,3.28.35-.26,2.67-4.36,1.82-1-.19-1.64-.67-2.71-.85v.57l.35.06,0,0c1.21-.18,2.35.63,3.56.88a7.17,7.17,0,0,0,1.39.1,7.94,7.94,0,0,0,4.19-.68C56.58,72.8,56.45,71.16,54.12,70.91Z"/><path class="cls-2" d="M99.69,70.06c-1.26-.65-1.86-1.35-2.61-1.21l.44,0c-3,0-6.07-.06-9.09-.25-2.26-.15-.81,2.56,3.19,2.57,2.38,0,4.22-.78,8.07-.37Z"/><path class="cls-4" d="M96.07,69.52c-1.62-.1-3.25.35-4.84.1-.5-.08-1.87-.47-2.17-.08s0,.75.83.79c2.38.12,1.62-.4,3.64-.4h3.8a13.3,13.3,0,0,0-1.53-.42"/><path class="cls-2" d="M71.88,69.12s4.21-1.15,11.17,0C83.05,69.12,74.82,70,71.88,69.12Z"/><path class="cls-5" d="M95.24,72.66a1.26,1.26,0,1,1-2.52,0A1.26,1.26,0,0,1,95.24,72.66Z"/><path class="cls-5" d="M51.34,73.92a1.26,1.26,0,0,1,0-2.52A1.26,1.26,0,0,1,51.34,73.92Z"/><path class="cls-4" d="M99.69,100.77v8.85a1.74,1.74,0,0,1-1.75,1.74H47.37a1.74,1.74,0,0,1-1.73-1.74v-8.85A1.73,1.73,0,0,1,47.37,99H97.94A1.73,1.73,0,0,1,99.69,100.77Z"/><path class="cls-2" d="M83.85,106c-8.51-1.82-9.1-.36-13.65-1.18-2-.34-3.82-1.14-5.79-1.4a10.67,10.67,0,0,0-3.19.08,2.31,2.31,0,0,0-1,.35A1.74,1.74,0,0,0,60,106a6.21,6.21,0,0,0,2.21,1.94c.8.31.52.2,19.73-.86a12.77,12.77,0,0,0,4.08-.66Z"/><path class="cls-2" d="M85.47,111.36H63.37a27.64,27.64,0,0,1,3.49-.49c2.72-.2,5.49.2,8.18-.27,2-.36,3.82-1.16,5.78-1.41a10.33,10.33,0,0,1,3.19.07,2.15,2.15,0,0,1,1,.36A1.64,1.64,0,0,1,85.47,111.36Z"/><path class="cls-4" d="M63.86,106.62a3.86,3.86,0,0,1-1.3-1.17c-.15-.29-.12-.66,0-.73.42-.32,2.71-.29,3.34-.21,3.11.4,4.22,1.66,9.41,1.66,1.45,0,2.72-.06,4.11,0l-14.07.78C64.1,107,64.21,106.86,63.86,106.62Z"/><path class="cls-2" d="M68.38,105.83l-.72-.12a5.14,5.14,0,0,1-.76-.16,4,4,0,0,0-2.26-.44c-.83,0-1,.52-.65.9.51.66,2.13.46,4.52.46a2.49,2.49,0,0,0,1.12-.17s.08,0,.08-.09,0-.07-.1-.08a12.79,12.79,0,0,0-1.51-.37"/><polygon class="cls-2" points="99.68 109.1 89 109.1 99.69 107.08 99.68 109.1"/><polygon class="cls-2" points="45.65 100.63 53.79 100.63 45.65 101.96 45.65 100.63"/><polygon class="cls-2" points="45.65 108.74 57.08 108.74 45.65 109.78 45.65 108.74"/><path class="cls-2" d="M47.49,103.56c-.63,0-1.24-.14-1.85-.2v1.06a20.26,20.26,0,0,0,3.71,0c9.21-.62,2.8,3.29-2.19,1.4a8.14,8.14,0,0,0-1.52-.46v.56l.35.06,0,0c1.21-.19,2.35.62,3.56.87,2,.4,6.66.07,6.54-2C55.89,102.47,50.55,103.78,47.49,103.56Z"/><path class="cls-2" d="M99.69,102.59c-1.26-.65-1.86-1.35-2.61-1.21l.44,0c-3,0-6.07-.06-9.09-.25-.36,0-.79,0-1,.29s.07.83.4,1.1c2.85,2.42,6.43.23,11.85.81Z"/><path class="cls-4" d="M96.07,102.06c-1.62-.11-3.25.34-4.84.09-.5-.07-1.87-.47-2.17-.07s0,.74.83.78c2.38.12,1.62-.4,3.64-.4h3.8A11.58,11.58,0,0,0,95.8,102"/><path class="cls-2" d="M71.88,101.65s4.21-1.15,11.17,0C83.05,101.65,74.82,102.5,71.88,101.65Z"/><path class="cls-5" d="M95.24,105.2a1.26,1.26,0,1,1-2.52,0,1.26,1.26,0,1,1,2.52,0Z"/><path class="cls-5" d="M52.6,105.2a1.26,1.26,0,1,1-1.26-1.26A1.26,1.26,0,0,1,52.6,105.2Z"/></g></g></svg>