<svg xmlns="http://www.w3.org/2000/svg" viewBox="0 0 145.33 145.33"><defs><style>.cls-1{fill:#c5dfdc;}.cls-2{fill:#444d5b;}.cls-3{fill:#f7af19;}.cls-4{fill:#d38e16;}.cls-5{fill:#415a6b;}</style></defs><title>Asset 21</title><g id="Layer_2" data-name="Layer 2"><g id="Layer_1-2" data-name="Layer 1"><circle class="cls-1" cx="72.66" cy="72.66" r="72.66"/><path class="cls-2" d="M94.52,67.54l-.37,3-.28,2.2-1,7.52-.3,2.35-1.8,14.22-.4.41-4.78,4.94-.19-.21v.24l-2.61-.08.06-2.17-2,0L81,97.72l-2,0L79,95.5l-2-.07,0-2.17-2-.06L75.15,91l-2,0,0-2.19-2-.05.05-2.17-2-.06,0-2.17-2-.06.06-2.18-2,0,0-2.17H65.2l-1.69-.05.05-2.17-1.81-.05h-.18l.06-2.18-2,0,.07-2.18-1.55,0H57.7l0-2.17-1.33,0-.65,0,0-2.18-2-.06,0-2.17-2,0L52,64.26l-2-.06L50,62,48,62l.05-2.17-2-.06,0-2.17-2-.06,0-2.17-2-.06.07-2.17-2-.06.06-2.17-2-.06.06-2.18-2,0,.05-2.17-2-.06.06-2.17-2-.07,0-2.17-2-.05.05-2.18-2,0,.05-2.17-2-.07.06-2.17-2,0,.08-2.79a.16.16,0,0,1,0-.11L33,25.21a1.14,1.14,0,0,1,1.4-.07L56.13,40.45l2,1.42,3,2.09,4.1,2.89L92.62,66.2Z"/><path class="cls-3" d="M124.8,93.78c-3.69-7.3-9.77-7.93-9.77-7.93-.74-1.23-1.12-2.14-2.5-2.51C109,82.45,109,81,109,81a6.52,6.52,0,0,0-3.36-6.8L94.43,66.45a2,2,0,0,0-1.81-.25,2,2,0,0,0-1.16,1l-2.22,4a2.17,2.17,0,0,0,.21,2.33,3.36,3.36,0,0,1,.32,4.15l-3,4.08C81,88.28,83.35,92.74,88.2,95a4.63,4.63,0,0,1,2.22,2.19c1.78,3.47.4,9.39.81,13,.5,4.62,8.63,7.77,8.63,7.77,4.42,6.69,6.45,6.93,6.45,6.93,3.89.23,3-3.15,3-3.15-2.72-3.46-1.34-7.1,1.89-10.74s6-15.72,6-15.72a4,4,0,0,1,4.49.92,2,2,0,0,0,3.1-2.46Zm-15.49,1.56c-2,6.8-1.93,6.61-3.49,10.09-1.33,2.9-3.55,7.22-7.51,4.59-1.4-1-1.5-3-.88-4.64a74.6,74.6,0,0,0,4.19-15c-.1-3.8,5.39-5.44,7.52-2.27C110.16,89.65,110.6,91.08,109.31,95.34Z"/><path class="cls-4" d="M95.83,72.69a1.39,1.39,0,1,1,0-2A1.39,1.39,0,0,1,95.83,72.69Z"/><path class="cls-4" d="M94.47,82.47a1.39,1.39,0,1,1,0-2A1.38,1.38,0,0,1,94.47,82.47Z"/><path class="cls-4" d="M90.24,89.61a1.39,1.39,0,0,1-2-1.93,1.39,1.39,0,1,1,2,1.93Z"/><polygon class="cls-5" points="58.15 41.87 58.15 73.14 57.7 73.13 57.76 70.96 56.42 70.92 56.13 40.45 58.15 41.87"/><polygon class="cls-5" points="65.2 46.85 65.2 79.87 63.51 79.82 63.56 77.65 61.75 77.6 61.1 43.96 65.2 46.85"/></g></g></svg>