<svg xmlns="http://www.w3.org/2000/svg" viewBox="0 0 145.33 145.33"><defs><style>.cls-1{fill:#c4deda;}.cls-2{fill:#52ba5a;}.cls-3{fill:#3c9c46;}.cls-4{fill:#1c8040;}.cls-5{fill:#f59c1d;}.cls-6{fill:#ec7a23;}</style></defs><title>Asset 8</title><g id="Layer_2" data-name="Layer 2"><g id="Layer_1-2" data-name="Layer 1"><circle class="cls-1" cx="72.66" cy="72.66" r="72.66"/><path class="cls-2" d="M97.78,47.69a32.5,32.5,0,0,1-6.06,19.17,39.81,39.81,0,0,0-5.85,11.55,41.92,41.92,0,0,0-2,12.81H61.14a41.19,41.19,0,0,0-7.83-24.36,32.5,32.5,0,0,1-6.06-19.17c0-14.12,8.47-25.91,19.8-28.83h0c.08,0,.17-.05.27-.07a20.33,20.33,0,0,1,3.32-.53h.12l.47,0,.77,0h.6a21.34,21.34,0,0,1,4.54.51l.11,0h0C89,21.31,97.78,33.31,97.78,47.69Z"/><path class="cls-3" d="M91.74,53.94c-.15,1.6-1,3.06-1.37,4.64-.39,1.81-.07,3.67-.36,5.51s-1.33,3.76-1.83,5.67c-.35,1.3-.44,2.66-.84,3.94a17.54,17.54,0,0,1-1.68,3.56c-1,1.75-2,3.46-3.1,5.16a27.9,27.9,0,0,1,1.19-5.37c.91-3,2-5.87,2.79-8.87a48,48,0,0,0,1.64-13.27c0-1.64-.13-3.29-.28-4.93-.08-.91-.18-1.81-.28-2.71q-.32-3-.81-6c-.32-2.06-.69-4.11-1.13-6.14-.26-1.24-.55-2.48-.87-3.7a22,22,0,0,0-1.48-4.07A26.39,26.39,0,0,0,81.21,24c-1.29-1.83-2.62-3.61-4-5.35l.11,0h0a10.06,10.06,0,0,1,3.22,2.81,3.55,3.55,0,0,0,.87.94c.34.18.74.26,1.09.41A3.9,3.9,0,0,1,84,24.39a40.71,40.71,0,0,1,5.87,14,13.37,13.37,0,0,0,.66,2.52,21.87,21.87,0,0,1,1,2.44c.44,1.73-.34,3.53-.38,5.29S91.9,52.17,91.74,53.94Z"/><path class="cls-3" d="M82.1,53.24c-.12,1.66-.75,3.15-1,4.76-.3,1.85,0,3.77-.27,5.65s-1,3.84-1.33,5.8c-.25,1.34-.33,2.72-.63,4a21.14,21.14,0,0,1-1.22,3.65c-.73,1.78-1.49,3.53-2.26,5.28a35.88,35.88,0,0,1,.87-5.49c.66-3,1.46-6,2-9.09a68.74,68.74,0,0,0,1.2-13.6c0-1.68-.1-3.36-.22-5-.06-.94-.12-1.86-.2-2.78-.14-2.07-.34-4.12-.58-6.16S78,36.06,77.67,34c-.19-1.27-.4-2.54-.64-3.8A28.65,28.65,0,0,0,76,26,30.24,30.24,0,0,0,74.4,22.6Q73.28,20.34,72,18.18h.6A9.24,9.24,0,0,1,73.91,20a2.94,2.94,0,0,0,.64.95,5.05,5.05,0,0,0,.79.43A3.66,3.66,0,0,1,76.45,23a52.09,52.09,0,0,1,4.28,14.38,21.22,21.22,0,0,0,.48,2.57A26.26,26.26,0,0,1,82,42.44c.33,1.76-.24,3.59-.27,5.41S82.22,51.44,82.1,53.24Z"/><path class="cls-3" d="M70.87,18.85c0-.11-.06-.21-.1-.3v-.31h0C70.82,18.44,70.85,18.65,70.87,18.85Z"/><path class="cls-3" d="M73.41,55c0,1.65-.19,3.14-.25,4.74-.06,1.86,0,3.78-.06,5.66s-.23,3.85-.31,5.81c-.07,1.33-.08,2.71-.15,4s-.18,2.47-.29,3.64c-.17,1.78-.36,3.55-.55,5.28,0-1.87.12-3.69.22-5.49.16-3,.34-6,.48-9.09.2-4.44.3-9,.29-13.59,0-1.69,0-3.37-.05-5.05,0-.94,0-1.85,0-2.78,0-2.07-.09-4.11-.14-6.15s-.12-4.21-.2-6.28L72.2,32c-.07-1.42-.15-2.83-.26-4.17s-.24-2.32-.36-3.41c-.22-1.86-.45-3.66-.7-5.43a.38.38,0,0,0,0-.1s0,.05,0,.08a18.21,18.21,0,0,1,.56,2.87,8.74,8.74,0,0,0,.14,1c.07.2.14.28.19.42a7.71,7.71,0,0,1,.27,1.56c.49,4.38.84,9.29,1,14.38,0,.87.07,1.75.13,2.59s.13,1.61.17,2.5c.09,1.76-.05,3.61-.06,5.41S73.43,53.22,73.41,55Z"/><path class="cls-3" d="M71.27,18.2a7.29,7.29,0,0,0-.37.74s0,0,0,0c-.61,1.2-1.19,2.4-1.76,3.64A27.93,27.93,0,0,0,67.7,26a28.49,28.49,0,0,0-1,4.17c-.22,1.26-.42,2.53-.6,3.8-.28,2.07-.53,4.17-.76,6.27s-.39,4.09-.54,6.16c-.07.92-.13,1.84-.18,2.78-.1,1.68-.17,3.36-.2,5a74.38,74.38,0,0,0,1.11,13.6c.54,3.06,1.27,6,1.88,9.09a41.49,41.49,0,0,1,.8,5.49c-.73-1.75-1.42-3.5-2.08-5.28A20.92,20.92,0,0,1,65,73.49c-.28-1.32-.34-2.7-.58-4-.33-2-1-3.8-1.23-5.8s0-3.8-.24-5.65c-.23-1.61-.82-3.1-.92-4.76s.38-3.58.35-5.39-.55-3.65-.25-5.41c.15-.89.49-1.67.71-2.52a19.42,19.42,0,0,0,.45-2.57A55,55,0,0,1,67.24,23a3.6,3.6,0,0,1,1-1.56A5.47,5.47,0,0,0,69,21a3.18,3.18,0,0,0,.58-.95,8.66,8.66,0,0,1,1.12-1.78h.12Z"/><path class="cls-3" d="M57,50c-.14,1.64-.25,3.29-.28,4.93a50.34,50.34,0,0,0,1.6,13.27c.78,3,1.83,5.92,2.71,8.87a27.85,27.85,0,0,1,1.17,5.37c-1-1.7-2-3.41-3-5.16a17.94,17.94,0,0,1-1.64-3.56c-.38-1.28-.48-2.64-.82-3.94-.48-1.91-1.47-3.71-1.78-5.67s0-3.7-.35-5.51c-.33-1.58-1.18-3-1.33-4.64-.16-1.77.55-3.51.51-5.27s-.79-3.56-.36-5.29a20,20,0,0,1,1-2.44,14.15,14.15,0,0,0,.65-2.52,41.35,41.35,0,0,1,5.7-14,3.89,3.89,0,0,1,1.48-1.53c.34-.15.72-.23,1-.41a3.44,3.44,0,0,0,.84-.94,10.14,10.14,0,0,1,2.88-2.65h0c.08,0,.17-.05.27-.07-1.32,1.7-2.6,3.46-3.85,5.25a28.33,28.33,0,0,0-2,3.33A21.85,21.85,0,0,0,60,31.43c-.32,1.22-.6,2.46-.86,3.7q-.62,3-1.1,6.14t-.79,6C57.18,48.17,57.1,49.07,57,50Z"/><path class="cls-4" d="M91.56,41.17l-3.17.36A1.47,1.47,0,1,0,89.62,44l2.2-2.32A.31.31,0,0,0,91.56,41.17Z"/><path class="cls-4" d="M91.56,50.6,88.39,51a1.47,1.47,0,1,0,1.23,2.47l2.2-2.32A.3.3,0,0,0,91.56,50.6Z"/><path class="cls-4" d="M80.5,61.46l-3.17.35a1.47,1.47,0,1,0,1.23,2.48L80.76,62A.31.31,0,0,0,80.5,61.46Z"/><path class="cls-4" d="M79.83,54.69l-3.17.36a1.47,1.47,0,1,0,1.23,2.48l2.2-2.32A.31.31,0,0,0,79.83,54.69Z"/><path class="cls-4" d="M78.77,46.43l-3.17.36a1.47,1.47,0,1,0,1.24,2.47L79,46.94A.3.3,0,0,0,78.77,46.43Z"/><path class="cls-4" d="M78.3,31.67l-2.43,2.07a1.47,1.47,0,1,0,2.4,1.36L78.8,32A.3.3,0,0,0,78.3,31.67Z"/><path class="cls-4" d="M75.51,38.29l-2.42,2.07a1.47,1.47,0,1,0,2.4,1.36L76,38.57A.31.31,0,0,0,75.51,38.29Z"/><path class="cls-4" d="M70.76,50.75l-2.43,2.07a1.47,1.47,0,1,0,2.41,1.36L71.26,51A.3.3,0,0,0,70.76,50.75Z"/><path class="cls-4" d="M70.76,64,68.33,66.1a1.47,1.47,0,1,0,2.41,1.36l.52-3.14A.31.31,0,0,0,70.76,64Z"/><path class="cls-4" d="M69.84,33.31l-2.43,2.08a1.47,1.47,0,1,0,2.41,1.36l.52-3.15A.31.31,0,0,0,69.84,33.31Z"/><path class="cls-4" d="M75.51,26.68l-2.42,2.07a1.47,1.47,0,1,0,2.4,1.36L76,27A.31.31,0,0,0,75.51,26.68Z"/><path class="cls-4" d="M71.64,18.86l-1.18,3a1.47,1.47,0,1,0,2.76.09l-1-3A.31.31,0,0,0,71.64,18.86Z"/><path class="cls-3" d="M94.82,28.05l-3.17.36a1.47,1.47,0,1,0,1.24,2.47l2.19-2.31A.31.31,0,0,0,94.82,28.05Z"/><path class="cls-3" d="M97,34l-3.17.36a1.47,1.47,0,1,0,1.23,2.48l2.2-2.32A.31.31,0,0,0,97,34Z"/><path class="cls-3" d="M98.59,39.52l-3.17.36a1.47,1.47,0,1,0,1.23,2.48L98.85,40A.31.31,0,0,0,98.59,39.52Z"/><path class="cls-4" d="M87.43,57.58l-3.18.36a1.47,1.47,0,1,0,1.24,2.48l2.19-2.32A.31.31,0,0,0,87.43,57.58Z"/><path class="cls-4" d="M83.29,74.41l-3.17.36a1.47,1.47,0,1,0,1.23,2.47l2.2-2.32A.31.31,0,0,0,83.29,74.41Z"/><path class="cls-4" d="M85.7,48.07l-3.17.36a1.47,1.47,0,1,0,1.23,2.48L86,48.59A.31.31,0,0,0,85.7,48.07Z"/><path class="cls-4" d="M83.29,40.58l-3.17.36a1.47,1.47,0,1,0,1.23,2.48l2.2-2.32A.31.31,0,0,0,83.29,40.58Z"/><path class="cls-4" d="M88.11,34l-3.17.36a1.47,1.47,0,1,0,1.23,2.48l2.2-2.32A.31.31,0,0,0,88.11,34Z"/><path class="cls-3" d="M99.41,46.43l-3.17.36a1.47,1.47,0,1,0,1.23,2.47l2.2-2.32A.3.3,0,0,0,99.41,46.43Z"/><path class="cls-3" d="M98.59,53.05l-3.17.35a1.47,1.47,0,1,0,1.23,2.48l2.2-2.32A.3.3,0,0,0,98.59,53.05Z"/><path class="cls-3" d="M96.18,59.23,93,59.59a1.47,1.47,0,1,0,1.23,2.47l2.2-2.31A.31.31,0,0,0,96.18,59.23Z"/><path class="cls-3" d="M85.7,67.05l-3.17.36a1.47,1.47,0,1,0,1.23,2.47L86,67.56A.31.31,0,0,0,85.7,67.05Z"/><path class="cls-3" d="M89,22.56l-2.43,2.07A1.47,1.47,0,1,0,89,26l.53-3.15A.3.3,0,0,0,89,22.56Z"/><path class="cls-4" d="M83.34,25.75l-2.43,2.08a1.47,1.47,0,1,0,2.4,1.36L83.84,26A.31.31,0,0,0,83.34,25.75Z"/><path class="cls-4" d="M77.93,20.19,75.5,22.26a1.47,1.47,0,1,0,2.4,1.36l.53-3.14A.31.31,0,0,0,77.93,20.19Z"/><path class="cls-3" d="M84.85,18.94,82.42,21a1.47,1.47,0,1,0,2.41,1.36l.52-3.15A.3.3,0,0,0,84.85,18.94Z"/><path class="cls-3" d="M50.5,28.05l3.18.36a1.47,1.47,0,1,1-1.24,2.47l-2.19-2.31A.31.31,0,0,1,50.5,28.05Z"/><path class="cls-3" d="M48.33,34l3.17.36a1.48,1.48,0,1,1-1.24,2.48l-2.19-2.32A.31.31,0,0,1,48.33,34Z"/><path class="cls-3" d="M46.74,39.52l3.17.36a1.47,1.47,0,1,1-1.23,2.48L46.48,40A.31.31,0,0,1,46.74,39.52Z"/><path class="cls-4" d="M57.9,57.58l3.18.36a1.47,1.47,0,1,1-1.24,2.48L57.65,58.1A.31.31,0,0,1,57.9,57.58Z"/><path class="cls-4" d="M62,74.41l3.17.36A1.47,1.47,0,1,1,64,77.24l-2.2-2.32A.31.31,0,0,1,62,74.41Z"/><path class="cls-4" d="M59.63,48.07l3.17.36a1.47,1.47,0,1,1-1.23,2.48l-2.2-2.32A.31.31,0,0,1,59.63,48.07Z"/><path class="cls-4" d="M62,40.58l3.17.36A1.47,1.47,0,1,1,64,43.42l-2.2-2.32A.31.31,0,0,1,62,40.58Z"/><path class="cls-4" d="M53.77,42.23l3.17.36a1.47,1.47,0,1,1-1.23,2.47l-2.2-2.31A.31.31,0,0,1,53.77,42.23Z"/><path class="cls-4" d="M52.92,50.6l3.17.36a1.47,1.47,0,1,1-1.24,2.47l-2.19-2.32A.3.3,0,0,1,52.92,50.6Z"/><path class="cls-4" d="M54.81,70.34,58,70.7a1.47,1.47,0,1,1-1.23,2.48l-2.2-2.32A.31.31,0,0,1,54.81,70.34Z"/><path class="cls-4" d="M57.22,34l3.17.36a1.47,1.47,0,1,1-1.23,2.48L57,34.48A.31.31,0,0,1,57.22,34Z"/><path class="cls-3" d="M45.92,46.43l3.17.36a1.47,1.47,0,1,1-1.24,2.47l-2.19-2.32A.3.3,0,0,1,45.92,46.43Z"/><path class="cls-3" d="M46.74,53.05l3.17.35a1.47,1.47,0,1,1-1.23,2.48l-2.2-2.32A.3.3,0,0,1,46.74,53.05Z"/><path class="cls-3" d="M49.15,59.23l3.17.36a1.47,1.47,0,1,1-1.23,2.47l-2.2-2.31A.31.31,0,0,1,49.15,59.23Z"/><path class="cls-3" d="M59.63,67.05l3.17.36a1.47,1.47,0,1,1-1.23,2.47l-2.2-2.32A.31.31,0,0,1,59.63,67.05Z"/><path class="cls-3" d="M56.34,22.56l2.43,2.07A1.47,1.47,0,1,1,56.36,26l-.52-3.15A.3.3,0,0,1,56.34,22.56Z"/><path class="cls-4" d="M62,25.75l2.43,2.08A1.47,1.47,0,1,1,62,29.19L61.49,26A.31.31,0,0,1,62,25.75Z"/><path class="cls-4" d="M67.4,20.19l2.43,2.07a1.47,1.47,0,1,1-2.4,1.36l-.53-3.14A.31.31,0,0,1,67.4,20.19Z"/><path class="cls-3" d="M60.48,18.94,62.91,21a1.47,1.47,0,1,1-2.41,1.36L60,19.22A.3.3,0,0,1,60.48,18.94Z"/><path class="cls-5" d="M48.93,92.37l4.7,33a2,2,0,0,0,2,1.75H89.69a2,2,0,0,0,2-1.75l4.7-33Z"/><polygon class="cls-6" points="95.47 98.87 96.4 92.37 48.93 92.37 49.85 98.87 95.47 98.87"/><rect class="cls-5" x="43.24" y="82.38" width="58.86" height="13.25" rx="2"/></g></g></svg>