<svg xmlns="http://www.w3.org/2000/svg" viewBox="0 0 145.33 145.33"><defs><style>.cls-1{fill:#fcd65e;}.cls-2{fill:#208140;}.cls-3{fill:#3c9b46;}.cls-4{fill:#f04c45;}.cls-5{fill:#cd2f2e;}.cls-6{fill:#fdc70c;}.cls-7{fill:#cd2f30;}</style></defs><title>Asset 25</title><g id="Layer_2" data-name="Layer 2"><g id="Layer_1-2" data-name="Layer 1"><circle class="cls-1" cx="72.66" cy="72.66" r="72.66"/><rect class="cls-2" x="69.88" y="48.08" width="5.57" height="47.01"/><path class="cls-3" d="M80.8,63.18c4.56-7.13,20.1-15.45,36.77-5.9a1.94,1.94,0,0,1,.32,3.15c-3.2,2.71-9.25,8.45-11.93,14.95-2.76,6.72-16.18,12-24.23,3.63C77.64,74.74,77.86,67.79,80.8,63.18Z"/><path class="cls-2" d="M94.29,68.9a97.66,97.66,0,0,1,7.79-6.21,41.2,41.2,0,0,0-13.72,7.69c-1-5.09,2.58-9,2.58-9-3.71,2.66-4.57,8.45-4.76,10.85A86.78,86.78,0,0,0,71,90.7l4.32,2.54c3.39-8.52,10.39-16.36,16.38-22,9.42.92,13.91-4.39,13.91-4.39C101.75,69.91,96.53,69.34,94.29,68.9Z"/><path class="cls-3" d="M64.53,63.18C60,56.05,44.42,47.73,27.76,57.28a1.94,1.94,0,0,0-.32,3.15c3.2,2.71,9.25,8.45,11.92,14.95,2.77,6.72,16.19,12,24.24,3.63C67.69,74.74,67.47,67.79,64.53,63.18Z"/><path class="cls-2" d="M51,68.9a97.66,97.66,0,0,0-7.79-6.21A41.2,41.2,0,0,1,57,70.38c1-5.09-2.58-9-2.58-9,3.7,2.66,4.56,8.45,4.76,10.85A86.78,86.78,0,0,1,74.36,90.7L70,93.24c-3.39-8.52-10.39-16.36-16.39-22-9.41.92-13.9-4.39-13.9-4.39C43.58,69.91,48.8,69.34,51,68.9Z"/><path class="cls-4" d="M89,28.86c-2.36,2.36-12.23,8.41-14.59,6s3.69-12.23,6-14.59A6,6,0,0,1,89,28.86Z"/><path class="cls-4" d="M64.84,53.05c2.36-2.36,8.4-12.23,6-14.59s-12.23,3.69-14.59,6a6,6,0,1,0,8.54,8.54Z"/><path class="cls-4" d="M80.49,53.05c-2.36-2.36-8.41-12.23-6-14.59s12.23,3.69,14.59,6a6,6,0,0,1-8.54,8.54Z"/><path class="cls-4" d="M56.3,28.86c2.36,2.36,12.23,8.41,14.59,6s-3.69-12.23-6-14.59a6,6,0,0,0-8.54,8.54Z"/><path class="cls-4" d="M78.71,19.58c0,3.33-2.71,14.59-6,14.59s-6-11.26-6-14.59a6,6,0,0,1,12.09,0Z"/><path class="cls-4" d="M78.71,53.79c0-3.33-2.71-14.59-6-14.59s-6,11.26-6,14.59a6,6,0,0,0,12.09,0Z"/><path class="cls-4" d="M89.77,42.73c-3.34,0-14.59-2.71-14.59-6s11.25-6,14.59-6a6,6,0,0,1,0,12.09Z"/><path class="cls-4" d="M55.56,42.73c3.33,0,14.59-2.71,14.59-6s-11.26-6-14.59-6a6,6,0,0,0,0,12.09Z"/><path class="cls-5" d="M78.24,23.23a143.75,143.75,0,0,1-5.58,13.46C73.74,33.48,76.59,26.55,78.24,23.23Z"/><path class="cls-5" d="M67.09,23.23a142.12,142.12,0,0,1,5.57,13.46C71,33.33,68.15,26.38,67.09,23.23Z"/><path class="cls-5" d="M78.24,50.13c-1.47-3-4.38-9.89-5.58-13.45A145.39,145.39,0,0,1,78.24,50.13Z"/><path class="cls-5" d="M67.09,50.13C68.15,47,71,40,72.66,36.68A142.94,142.94,0,0,1,67.09,50.13Z"/><path class="cls-5" d="M86.12,31.11c-2.94,1.46-8.37,3.71-11.31,4.8-1.28.48-2.15.78-2.15.78A144.88,144.88,0,0,1,86.12,31.11Z"/><path class="cls-5" d="M86.12,42.25a145.34,145.34,0,0,1-13.46-5.57C76.21,37.87,83.15,40.78,86.12,42.25Z"/><path class="cls-5" d="M59.21,31.11a143.54,143.54,0,0,1,13.45,5.58C69.46,35.61,62.53,32.76,59.21,31.11Z"/><path class="cls-5" d="M59.21,42.25c3-1.47,9.89-4.37,13.45-5.57A144.41,144.41,0,0,1,59.21,42.25Z"/><path class="cls-5" d="M76.26,32.83c.49-1.82,2.41-5.92,5.6-7.24C79.38,27.23,77.73,30,76.26,32.83Z"/><path class="cls-5" d="M83.79,27.53c-.6,1.92-3.81,4.45-7,5.66C78,32.4,82.55,29.83,83.79,27.53Z"/><path class="cls-5" d="M77.56,36.5c1.78-1,6-2.45,9.08-1.17C83.76,34.75,80.7,35.49,77.56,36.5Z"/><path class="cls-5" d="M86.63,38.08c-1.82,1-5.91.41-9-1C79,37.39,84.15,38.81,86.63,38.08Z"/><path class="cls-5" d="M68.06,36.5c-3-1-6.14-1.76-9.07-1.17C61.88,34.13,66,35.3,68.06,36.5Z"/><path class="cls-5" d="M59,38.08c2.48.73,7.57-.68,9-1C64.39,38.73,60.5,38.87,59,38.08Z"/><path class="cls-5" d="M69.12,33c-1.44-2.8-3.1-5.59-5.6-7.24C66.31,26.93,68.44,30.51,69.12,33Z"/><path class="cls-5" d="M61.59,27.73c1.24,2.29,5.84,4.88,7,5.65C64.89,32,62.09,29.33,61.59,27.73Z"/><path class="cls-5" d="M72.48,32.07c-1-1.78-2.45-6-1.17-9.08C70.73,25.89,71.48,29,72.48,32.07Z"/><path class="cls-5" d="M74.06,23c1.15,2.2.1,6.59-1,9C73.34,30.75,74.8,25.5,74.06,23Z"/><path class="cls-5" d="M76.26,40.54c1.33,2.59,3.16,5.62,5.6,7.24C78.74,46.49,76.75,42.35,76.26,40.54Z"/><path class="cls-5" d="M83.79,45.83c-1.24-2.29-5.83-4.87-7-5.65C79.39,41.17,83.1,43.6,83.79,45.83Z"/><path class="cls-5" d="M69.12,40.34c-.31,1.14-2.09,5.8-5.6,7.24C66,46,67.63,43.24,69.12,40.34Z"/><path class="cls-5" d="M61.59,45.64c.43-1.39,2.94-4.12,7-5.66C67.48,40.72,62.77,43.46,61.59,45.64Z"/><path class="cls-5" d="M72.48,41.3c-.9,2.77-1.75,6.21-1.17,9.07C70.26,47.84,71.11,43.66,72.48,41.3Z"/><path class="cls-5" d="M74.06,50.37c.7-2.39-.74-7.84-1-9C74.45,44.4,75,48.56,74.06,50.37Z"/><circle class="cls-6" cx="72.66" cy="36.69" r="6.04"/><path class="cls-7" d="M52.93,102.42l5,26.66a3.33,3.33,0,0,0,3.28,2.71H83.41a3.34,3.34,0,0,0,3.28-2.71l5-26.66Z"/><rect class="cls-4" x="48.66" y="93.92" width="47.34" height="10.62" rx="2.33"/></g></g></svg>