<svg xmlns="http://www.w3.org/2000/svg" viewBox="0 0 145.33 145.33"><defs><style>.cls-1{fill:#c6dfdc;}.cls-2{fill:#40a348;}.cls-3{fill:#1f8e44;}.cls-4{fill:#f04c45;}.cls-5{fill:#cd2f2e;}.cls-6{fill:#fdc70c;}</style></defs><title>Asset 15</title><g id="Layer_2" data-name="Layer 2"><g id="Layer_1-2" data-name="Layer 1"><circle class="cls-1" cx="72.66" cy="72.66" r="72.66" transform="translate(-30.1 72.66) rotate(-45)"/><path class="cls-2" d="M32.22,101.49C49.94,88,64.35,95.28,70,102.2a13,13,0,0,1,.32,16.06c-7.24,9.64-19,6.77-24.9-3.07-4-6.72-10.53-10.82-13.15-12.27A.86.86,0,0,1,32.22,101.49Z"/><path class="cls-3" d="M56.58,107.13c-3.33-1.59-7.07-3.18-11.27-4.72A89.91,89.91,0,0,1,64,109c-1.44-4.29-6.81-7.79-6.81-7.79,6.43,2,10.06,7.93,11.17,10,2,1.13,10,5.22,12.3,7.6l.56,6.13c-3.35-5.87-14.34-12.66-22.38-16.71a33.34,33.34,0,0,1-12.32.19A22.35,22.35,0,0,0,56.58,107.13Z"/><path class="cls-3" d="M106.81,89.11l-.27-.78s-17.09,4.89-23.23,18.12c-2.57-12.61-9-28.27-24.74-38.84,0,0,26.94,24.06,19.6,55.37a3.41,3.41,0,1,0,6.73.83,79.33,79.33,0,0,0-.52-10.59C86.09,106.52,91.26,95,106.81,89.11Z"/><path class="cls-4" d="M83.21,43.22C79.64,46.79,64.69,56,61.11,52.38s5.59-18.53,9.16-22.1A9.15,9.15,0,0,1,83.21,43.22Z"/><path class="cls-4" d="M46.56,79.87c3.58-3.57,12.74-18.53,9.16-22.1s-18.52,5.58-22.1,9.16A9.15,9.15,0,0,0,46.56,79.87Z"/><path class="cls-4" d="M70.27,79.87c-3.57-3.57-12.73-18.53-9.16-22.1s18.53,5.58,22.1,9.16A9.15,9.15,0,0,1,70.27,79.87Z"/><path class="cls-4" d="M33.62,43.22C37.2,46.79,52.15,56,55.72,52.38s-5.58-18.53-9.16-22.1A9.15,9.15,0,0,0,33.62,43.22Z"/><path class="cls-4" d="M67.57,29.16c0,5.05-4.1,22.1-9.15,22.1s-9.15-17-9.15-22.1a9.15,9.15,0,1,1,18.3,0Z"/><path class="cls-4" d="M67.57,81c0-5.06-4.1-22.1-9.15-22.1s-9.15,17-9.15,22.1a9.15,9.15,0,1,0,18.3,0Z"/><path class="cls-4" d="M84.33,64.22c-5,0-22.1-4.09-22.1-9.15s17.05-9.15,22.1-9.15a9.15,9.15,0,1,1,0,18.3Z"/><path class="cls-4" d="M32.5,64.22c5.06,0,22.11-4.09,22.11-9.15s-17-9.15-22.11-9.15a9.15,9.15,0,1,0,0,18.3Z"/><path class="cls-5" d="M66.86,34.69C65.27,39.4,61,49.87,58.42,55.07A220.11,220.11,0,0,1,66.86,34.69Z"/><path class="cls-5" d="M50,34.69c2.23,4.51,6.64,15,8.44,20.38A218.85,218.85,0,0,1,50,34.69Z"/><path class="cls-5" d="M66.86,75.45c-2.17-4.38-5.59-12.62-7.27-17.14-.73-1.93-1.17-3.24-1.17-3.24C60.7,59.66,65.07,70.14,66.86,75.45Z"/><path class="cls-5" d="M50,75.45a220,220,0,0,1,8.44-20.38C56.84,59.76,52.54,70.29,50,75.45Z"/><path class="cls-5" d="M78.8,46.63c-3.5,1.74-11.27,5.08-17.14,7.27-1.93.73-3.24,1.17-3.24,1.17s1.24-.61,3.12-1.47C67.41,50.93,75.25,47.83,78.8,46.63Z"/><path class="cls-5" d="M78.8,63.51C74,61.9,63.57,57.63,58.42,55.07c0,0,1.31.44,3.24,1.17C67.68,58.48,75.43,61.83,78.8,63.51Z"/><path class="cls-5" d="M38,46.63c3.55,1.2,11.39,4.3,17.25,7,1.89.86,3.13,1.47,3.13,1.47s-1.31-.44-3.25-1.17C49.32,51.72,41.53,48.37,38,46.63Z"/><path class="cls-5" d="M38,63.51c3.92-1.95,9.76-4.37,13.83-6,3-1.19,5.41-2.06,6.55-2.44C53.83,57.34,43.37,61.71,38,63.51Z"/><path class="cls-5" d="M63.87,49.23c.57-2.13,3.43-8.89,8.47-11C68.78,40.62,66.22,44.65,63.87,49.23Z"/><path class="cls-5" d="M75.28,41.21c-1.1,3.51-7.12,7.23-10.66,8.56C65.76,49,73.44,44.59,75.28,41.21Z"/><path class="cls-5" d="M65.84,54.79c2.5-1.45,9-3.76,13.75-1.77C75.18,52.13,70.48,53.29,65.84,54.79Z"/><path class="cls-5" d="M79.58,57.18C77,58.51,71,58,66,55.71,67.82,56.09,75.81,58.3,79.58,57.18Z"/><path class="cls-5" d="M51.44,54.79C46.93,53.33,42.13,52.13,37.7,53,42.13,51.18,48.44,53.05,51.44,54.79Z"/><path class="cls-5" d="M37.7,57.18c3.73,1.1,11.51-1,13.59-1.47C45.91,58.15,40,58.39,37.7,57.18Z"/><path class="cls-5" d="M53,49.52c-2.17-4.22-4.7-8.46-8.47-11C49,40.37,52.11,46,53,49.52Z"/><path class="cls-5" d="M41.63,41.5c1.87,3.43,8.86,7.4,10.66,8.57C46.7,48,42.4,44,41.63,41.5Z"/><path class="cls-5" d="M58.13,48.08c-1.52-2.63-3.72-9-1.76-13.75C55.48,38.72,56.62,43.39,58.13,48.08Z"/><path class="cls-5" d="M60.53,34.34c1.25,2.39.92,8.3-1.48,13.59C59.44,46.08,61.64,38.12,60.53,34.34Z"/><path class="cls-5" d="M63.87,60.91c2.15,4.18,4.68,8.46,8.47,11C68,70.06,64.8,64.4,63.87,60.91Z"/><path class="cls-5" d="M75.28,68.93c-1.86-3.42-8.81-7.36-10.66-8.56C70.21,62.46,74.51,66.48,75.28,68.93Z"/><path class="cls-5" d="M53,60.61c-1.06,4-4.59,9.37-8.47,11C48.26,69.13,51,64.59,53,60.61Z"/><path class="cls-5" d="M41.63,68.64c.92-2.92,5.95-6.8,10.66-8.57C51.15,60.81,43.47,65.26,41.63,68.64Z"/><path class="cls-5" d="M58.13,62.06c-1.46,4.53-2.64,9.41-1.76,13.75C54.47,71.23,56.61,64.68,58.13,62.06Z"/><path class="cls-5" d="M60.53,75.8c1.1-3.72-1-11.5-1.48-13.59C61.53,67.66,61.71,73.53,60.53,75.8Z"/><path class="cls-6" d="M67.57,55.07a9.15,9.15,0,1,1-9.15-9.15A9.15,9.15,0,0,1,67.57,55.07Z"/><path class="cls-4" d="M124.06,80c-2.24,2.24-11.63,8-13.87,5.74s3.51-11.62,5.75-13.87A5.75,5.75,0,1,1,124.06,80Z"/><path class="cls-4" d="M101.06,103c2.24-2.24,8-11.62,5.75-13.86s-11.63,3.5-13.87,5.74a5.74,5.74,0,0,0,8.12,8.12Z"/><path class="cls-4" d="M115.94,103c-2.24-2.24-8-11.62-5.75-13.86s11.63,3.5,13.87,5.74a5.74,5.74,0,0,1-8.12,8.12Z"/><path class="cls-4" d="M92.94,80c2.24,2.24,11.63,8,13.87,5.74s-3.51-11.62-5.75-13.87A5.75,5.75,0,1,0,92.94,80Z"/><path class="cls-4" d="M114.24,71.15c0,3.17-2.57,13.87-5.74,13.87s-5.74-10.7-5.74-13.87a5.74,5.74,0,0,1,11.48,0Z"/><path class="cls-4" d="M114.24,103.68c0-3.17-2.57-13.87-5.74-13.87s-5.74,10.7-5.74,13.87a5.74,5.74,0,0,0,11.48,0Z"/><path class="cls-4" d="M124.76,93.16c-3.17,0-13.87-2.57-13.87-5.75s10.7-5.74,13.87-5.74a5.75,5.75,0,1,1,0,11.49Z"/><path class="cls-4" d="M92.24,93.16c3.17,0,13.87-2.57,13.87-5.75s-10.7-5.74-13.87-5.74a5.75,5.75,0,1,0,0,11.49Z"/><path class="cls-5" d="M113.8,74.62c-1.14,3.38-3.88,9.94-5.3,12.79C109.51,84.42,112.19,77.86,113.8,74.62Z"/><path class="cls-5" d="M103.2,74.62c1.34,2.7,3.45,7.76,4.57,10.76.45,1.21.73,2,.73,2s-.39-.77-.92-2C106.35,82.76,104.2,77.6,103.2,74.62Z"/><path class="cls-5" d="M113.8,100.2c-1.36-2.74-3.5-7.9-4.57-10.75-.45-1.22-.73-2-.73-2A137.69,137.69,0,0,1,113.8,100.2Z"/><path class="cls-5" d="M103.2,100.2c1-3,3.71-9.59,5.3-12.79A137.31,137.31,0,0,1,103.2,100.2Z"/><path class="cls-5" d="M121.29,82.12c-2.79,1.38-9.33,4.13-12.79,5.29A137.52,137.52,0,0,1,121.29,82.12Z"/><path class="cls-5" d="M121.29,92.71c-3.33-1.12-9.91-3.87-12.79-5.3A138.29,138.29,0,0,1,121.29,92.71Z"/><path class="cls-5" d="M95.71,82.12c3.38,1.13,9.94,3.88,12.79,5.29-.71-.24-2.23-.79-4.11-1.53C101.82,84.85,98.21,83.36,95.71,82.12Z"/><path class="cls-5" d="M95.71,92.71a135.45,135.45,0,0,1,12.79-5.3C105.3,89,98.73,91.69,95.71,92.71Z"/><path class="cls-5" d="M111.92,83.75c.42-1.58,2.29-5.64,5.32-6.89C114.93,78.39,113.38,80.9,111.92,83.75Z"/><path class="cls-5" d="M119.08,78.71c-.69,2.2-4.47,4.55-6.68,5.38C113.53,83.35,118,80.78,119.08,78.71Z"/><path class="cls-5" d="M113.16,87.24c1.69-1,5.69-2.33,8.63-1.11C119,85.57,116.1,86.29,113.16,87.24Z"/><path class="cls-5" d="M121.78,88.74c-1.6.84-5.4.49-8.53-.93C114.55,88.09,119.42,89.43,121.78,88.74Z"/><path class="cls-5" d="M104.12,87.24c-2.82-.91-5.83-1.68-8.62-1.11C98.12,85,102,86,104.12,87.24Z"/><path class="cls-5" d="M95.5,88.74c2.34.69,7.23-.65,8.53-.93C100.11,89.59,96.64,89.33,95.5,88.74Z"/><path class="cls-5" d="M105.13,83.93c-1.36-2.65-2.95-5.31-5.32-6.88C102.57,78.19,104.54,81.74,105.13,83.93Z"/><path class="cls-5" d="M98,78.9c1.18,2.18,5.53,4.62,6.68,5.37C102.18,83.34,98.63,81,98,78.9Z"/><path class="cls-5" d="M108.32,83c-1.3-2.25-2.11-6.2-1.11-8.63C106.66,77.12,107.47,80.37,108.32,83Z"/><path class="cls-5" d="M109.82,74.4c1.07,2,.06,6.37-.92,8.53C109.14,81.8,110.5,76.68,109.82,74.4Z"/><path class="cls-5" d="M111.92,91.08c1.36,2.65,3,5.31,5.32,6.88C114.62,96.88,112.57,93.51,111.92,91.08Z"/><path class="cls-5" d="M119.08,96.11c-1.18-2.18-5.54-4.63-6.68-5.38C115.93,92.06,118.6,94.59,119.08,96.11Z"/><path class="cls-5" d="M105.13,90.89c-.67,2.49-2.88,5.88-5.32,6.89C102.16,96.22,103.8,93.48,105.13,90.89Z"/><path class="cls-5" d="M98,95.93c.45-1.45,3-4,6.68-5.38C103.52,91.29,99.15,93.75,98,95.93Z"/><path class="cls-5" d="M108.32,91.8c-.91,2.82-1.67,5.83-1.11,8.63C106,97.54,107.32,93.52,108.32,91.8Z"/><path class="cls-5" d="M109.82,100.42c.7-2.36-.64-7.2-.92-8.53C110.45,95.3,110.57,99,109.82,100.42Z"/><path class="cls-6" d="M114.24,87.41a5.74,5.74,0,1,1-5.74-5.74A5.74,5.74,0,0,1,114.24,87.41Z"/></g></g></svg>