<svg xmlns="http://www.w3.org/2000/svg" viewBox="0 0 145.33 145.33"><defs><style>.cls-1{fill:#fcd65e;}.cls-2{fill:#52ba5a;}.cls-3{fill:#3c9c46;}.cls-4{fill:#63c168;}.cls-5{fill:#f59c1d;}.cls-6{fill:#f9aa53;}.cls-7{fill:#cd2e30;}.cls-8{fill:#ef4c45;}</style></defs><title>Asset 1</title><g id="Layer_2" data-name="Layer 2"><g id="Layer_1-2" data-name="Layer 1"><circle class="cls-1" cx="72.66" cy="72.66" r="72.66"/><path class="cls-2" d="M57,104.35c0-1.7-.53-41.8-19.53-51.15A12.18,12.18,0,0,0,26,53.51a12.64,12.64,0,0,0-6.44,9.82C19.05,69.08,20,78,27.76,87.87c13.46,17.12,24.67,18.37,27,18.44h.42A2,2,0,0,0,57,104.35Z"/><polygon class="cls-3" points="56.16 101.53 47.01 86.88 44.52 71.7 45.1 83.82 33.59 65.39 40.17 77.88 40.17 77.88 32.52 73.44 41.77 80.92 47.98 92.69 34.59 82.77 50.14 96.8 50.14 96.8 55.15 106.31 56.16 101.53"/><path class="cls-4" d="M44.23,61.62c.25.22-11-13.55-19.66-1C24.57,60.63,32.77,51.76,44.23,61.62Z"/><path class="cls-4" d="M29.39,83.25s8.54,14.93,20,18.21C49.36,101.46,40.74,98.37,29.39,83.25Z"/><path class="cls-2" d="M106.54,77.06a10.77,10.77,0,0,0-9.78-3.49C74.3,77.17,58.66,121.92,58,123.83a1.68,1.68,0,0,0,.38,1.71,1.71,1.71,0,0,0,1.7.44c27.41-8.38,43.81-21.54,48.77-39.11A10.47,10.47,0,0,0,106.54,77.06Z"/><path class="cls-3" d="M97.58,97.7l-18.24,6.12L96.53,85.21,84.92,96.88h0l1.36-8-2.53,9.2h0l-9.93,10h0L77.92,92l-5.47,17.45c-7.29,7.36-13.49,13.67-13.87,14.17l.71,1.89,18.38-19.89Z"/><path class="cls-4" d="M79.92,114.08c-5.33,3-10.86,5.68-16.38,8.32a8.41,8.41,0,0,0,2.85-.24A85.88,85.88,0,0,0,91.52,108a10,10,0,0,0,3.14-3.62A130.69,130.69,0,0,1,79.92,114.08Z"/><path class="cls-4" d="M91.17,77.87s10.57-6.82,15,4.53C106.13,82.4,103,73.82,91.17,77.87Z"/><path class="cls-5" d="M96.42,49.6A44.33,44.33,0,0,0,71.88,68.42a42.19,42.19,0,0,1,10.64-5.83l.5-.17a3.35,3.35,0,0,1,4,4.71A3.31,3.31,0,0,1,85.1,68.8c-8.79,2.86-18,12.51-20.3,15-6.59,20.85-3.94,42.88-3.92,43.1a3.34,3.34,0,0,1-3.42,3.77,3.19,3.19,0,0,1-1.41-.35,3.37,3.37,0,0,1-1.83-2.58c0-.22-2.87-23.14,4.08-45.57a3.3,3.3,0,0,1,.58-1.77,71,71,0,0,1,5.87-13.18c.26-1.14,4.66-9.33-3.24-18.68-2.84-3.35,2.27-7.73,5.14-4.33A25.7,25.7,0,0,1,72.6,56.67,50.14,50.14,0,0,1,93.85,43.38a4.59,4.59,0,0,1,.56-.18,3.4,3.4,0,0,1,1.1-.15,3.35,3.35,0,0,1,.91,6.55Z"/><path class="cls-6" d="M93.43,49.6A44.21,44.21,0,0,0,68.91,68.42h3a42.19,42.19,0,0,1,10.64-5.83,3.35,3.35,0,0,1-.41,6.21c-8.79,2.86-18,12.51-20.3,15-6.59,20.85-3.94,42.88-3.92,43.1a3.3,3.3,0,0,1-1.84,3.42,3.37,3.37,0,0,1-1.83-2.58c0-.22-2.87-23.14,4.08-45.57a3.3,3.3,0,0,1,.58-1.77,71,71,0,0,1,5.87-13.18c.26-1.14,4.66-9.33-3.24-18.68a3.36,3.36,0,0,1,1.08-5.17,3.5,3.5,0,0,1,1.07.84,25.6,25.6,0,0,1,6,12.41h3A50.14,50.14,0,0,1,93.85,43.38a3.27,3.27,0,0,1,1.77,2A3.34,3.34,0,0,1,93.43,49.6Z"/><path class="cls-7" d="M123.27,41.12a15.8,15.8,0,0,1-16.39,15.16,16.1,16.1,0,0,1-12-5.93,15.36,15.36,0,0,1-3.45-10.16A15.79,15.79,0,0,1,107.8,25a16,16,0,0,1,9.7,3.6A15.51,15.51,0,0,1,123.27,41.12Z"/><path class="cls-7" d="M71.88,36.17A14,14,0,1,1,58.26,21.74,14.07,14.07,0,0,1,71.88,36.17Z"/><path class="cls-7" d="M98.71,64.19a8.13,8.13,0,0,1-14.95,4.2,8,8,0,0,1-1.33-4.68,8.15,8.15,0,0,1,8.38-7.9A8.06,8.06,0,0,1,95,57.15s0,0,0,0A8.09,8.09,0,0,1,98.71,64.19Z"/><path class="cls-8" d="M120.94,38.79A15.8,15.8,0,0,1,104.57,54a16.15,16.15,0,0,1-9.7-3.6,15.36,15.36,0,0,1-3.45-10.16A15.79,15.79,0,0,1,107.8,25a16,16,0,0,1,9.7,3.6A15.4,15.4,0,0,1,120.94,38.79Z"/><path class="cls-8" d="M69.55,33.84A14,14,0,0,1,46.81,44.43,14,14,0,0,1,66.52,24.75,13.92,13.92,0,0,1,69.55,33.84Z"/><path class="cls-8" d="M96.38,61.86A8.14,8.14,0,0,1,88,69.76a7.89,7.89,0,0,1-4.25-1.37,8,8,0,0,1-1.33-4.68,8.15,8.15,0,0,1,8.38-7.9A8.06,8.06,0,0,1,95,57.15s0,0,0,0A7.9,7.9,0,0,1,96.38,61.86Z"/></g></g></svg>