<svg xmlns="http://www.w3.org/2000/svg" viewBox="0 0 145.33 145.33"><defs><style>.cls-1{fill:#c5dfdc;}.cls-2{fill:#f59c1d;}.cls-3{fill:#f9aa53;}.cls-4{fill:#52ba5a;}.cls-5{fill:#3c9c46;}</style></defs><title>Asset 6</title><g id="Layer_2" data-name="Layer 2"><g id="Layer_1-2" data-name="Layer 1"><circle class="cls-1" cx="72.66" cy="72.66" r="72.66"/><path class="cls-2" d="M90.15,127.16h-35a2,2,0,0,1-1.42-3.3C65.4,111.57,64,83.57,64,83.57l6.75-.82,1.84-.23h.16l8.61,1s-1.42,28,10.21,40.29A2,2,0,0,1,90.15,127.16Z"/><path class="cls-3" d="M86.28,127.16H55.19a2,2,0,0,1-1.42-3.3c6.31-6.67,8.78-18,9.72-26.9A96.8,96.8,0,0,0,64,83.57l6.75-.82,6.75.82a97.29,97.29,0,0,0,.64,14.71c1,8.7,3.57,19.23,9.57,25.58A2,2,0,0,1,86.28,127.16Z"/><path class="cls-2" d="M78.13,98.28A22,22,0,0,1,63.49,97,96.8,96.8,0,0,0,64,83.57l6.75-.82,6.75.82A97.29,97.29,0,0,0,78.13,98.28Z"/><path class="cls-4" d="M112.64,49.62c0-.47.07-.94.07-1.42A22.11,22.11,0,0,0,90.6,26.09c-.32,0-.63,0-.94.05a22.1,22.1,0,0,0-34,0c-.31,0-.62-.05-.94-.05A22.11,22.11,0,0,0,32.62,48.2c0,.48,0,.95.07,1.42A22.1,22.1,0,1,0,54.45,87.4a22.09,22.09,0,0,0,36.43,0,22.1,22.1,0,1,0,21.76-37.78Z"/><path class="cls-5" d="M70.54,77c2.62,1.34,7.09,1.29,9.41,2.17,1.94.73.79-6-.87-9.48,2.43,2.31,4.65,12.1,2.39,11.19C78.37,79.66,72.64,80.1,70.54,77Z"/><path class="cls-5" d="M61.93,83.13c1.31,1.68,4.25,3,5.5,4.33,1,1.07,2.36-3.68,2.36-6.49.88,2.27-.69,9.37-1.89,8.08C66.26,87.27,62.36,85.79,61.93,83.13Z"/><path class="cls-5" d="M63.23,60.62c.89,2.8,4.06,6,5.06,8.23.84,1.9,4.81-3.63,6.15-7.26.06,3.35-5.37,11.8-6.31,9.55C66.85,68.05,62.52,64.26,63.23,60.62Z"/><path class="cls-5" d="M71.06,25.17c-.86,2.81,0,7.21-.49,9.65-.38,2,6-.27,9.18-2.51-1.84,2.8-11.1,6.69-10.6,4.3C69.84,33.35,68.41,27.77,71.06,25.17Z"/><path class="cls-5" d="M104.11,68.88c1.63.83,4.4.8,5.84,1.34,1.2.46.48-3.7-.54-5.87,1.5,1.43,2.88,7.5,1.48,6.93C109,70.51,105.42,70.78,104.11,68.88Z"/><path class="cls-5" d="M86.48,66.84c1.62.83,4.39.8,5.83,1.35,1.2.45.48-3.71-.54-5.88,1.51,1.43,2.88,7.5,1.48,6.94C91.33,68.47,87.78,68.74,86.48,66.84Z"/><path class="cls-5" d="M95.5,78.53c1.62.83,4.39.8,5.83,1.34,1.2.46.48-3.7-.54-5.87,1.51,1.43,2.88,7.5,1.48,6.94C100.35,80.16,96.8,80.43,95.5,78.53Z"/><path class="cls-5" d="M93.05,53.56c1.62.83,4.39.8,5.83,1.35,1.2.45.49-3.71-.54-5.88,1.51,1.43,2.88,7.5,1.48,6.94C97.9,55.19,94.35,55.46,93.05,53.56Z"/><path class="cls-5" d="M79.3,52.06c.39-1.21,0-3.12.26-4.17.17-.88-2.61.09-4,1,.78-1.15,4.85-2.89,4.61-1.81C79.87,48.53,80.46,50.94,79.3,52.06Z"/><path class="cls-5" d="M110.65,79.58c1.27.08,3-.71,4.11-.76.9,0-.72-2.51-2-3.61,1.3.47,4,4,2.87,4C114.21,79.28,112,80.44,110.65,79.58Z"/><path class="cls-5" d="M106.21,57.26c1.27.08,3-.71,4.11-.76.9,0-.71-2.51-2-3.61,1.3.47,4,4,2.87,4C109.77,57,107.57,58.12,106.21,57.26Z"/><path class="cls-5" d="M91.57,46.78c.68-2.17.08-5.58.45-7.46.31-1.57-4.66.17-7.12,1.87C86.35,39,93.54,36.1,93.13,38,92.57,40.47,93.63,44.79,91.57,46.78Z"/><path class="cls-5" d="M42.07,68.88c-1.62.83-4.39.8-5.83,1.34-1.2.46-.49-3.7.54-5.87-1.51,1.43-2.88,7.5-1.48,6.93C37.22,70.51,40.77,70.78,42.07,68.88Z"/><path class="cls-5" d="M59.71,66.84c-1.62.83-4.39.8-5.83,1.35-1.2.45-.49-3.71.54-5.88-1.51,1.43-2.88,7.5-1.48,6.94C54.86,68.47,58.41,68.74,59.71,66.84Z"/><path class="cls-5" d="M50.69,78.53c-1.62.83-4.39.8-5.83,1.34-1.2.46-.49-3.7.54-5.87-1.51,1.43-2.88,7.5-1.48,6.94C45.84,80.16,49.39,80.43,50.69,78.53Z"/><path class="cls-5" d="M53.14,53.56c-1.62.83-4.4.8-5.83,1.35-1.2.45-.49-3.71.54-5.88C46.34,50.46,45,56.53,46.37,56,48.29,55.19,51.84,55.46,53.14,53.56Z"/><path class="cls-5" d="M66.88,52.06c-.38-1.21,0-3.12-.25-4.17-.17-.88,2.61.09,4,1-.77-1.15-4.84-2.89-4.6-1.81C66.32,48.53,65.73,50.94,66.88,52.06Z"/><path class="cls-5" d="M35.54,79.58c-1.27.08-3-.71-4.11-.76-.9,0,.71-2.51,2-3.61-1.31.47-4,4-2.87,4C32,79.28,34.18,80.44,35.54,79.58Z"/><path class="cls-5" d="M40,57.26c-1.27.08-3-.71-4.12-.76-.89,0,.72-2.51,2-3.61-1.31.47-4,4-2.87,4C36.41,57,38.62,58.12,40,57.26Z"/><path class="cls-5" d="M54.62,46.78c-.68-2.17-.08-5.58-.45-7.46-.31-1.57,4.66.17,7.12,1.87C59.84,39,52.65,36.1,53.06,38,53.62,40.47,52.55,44.79,54.62,46.78Z"/></g></g></svg>