<svg xmlns="http://www.w3.org/2000/svg" viewBox="0 0 145.33 145.33"><defs><style>.cls-1{fill:#c5dfdc;}.cls-2{fill:#f59c1d;}.cls-3{fill:#f9aa53;}.cls-4{fill:#3c9c46;}.cls-5{fill:#52ba5a;}.cls-6{fill:none;}.cls-7{fill:#fcd65e;}.cls-8{fill:#ffcc04;}</style></defs><title>Asset 24</title><g id="Layer_2" data-name="Layer 2"><g id="Layer_1-2" data-name="Layer 1"><circle class="cls-1" cx="72.66" cy="72.66" r="72.66"/><path class="cls-2" d="M88.25,71.83q-1,3.39-2.22,6.74a12.33,12.33,0,0,1-1.29,2.84A10.61,10.61,0,0,1,79.58,85a2.19,2.19,0,0,0-1.25.86,1.79,1.79,0,0,0-.14.73,38.7,38.7,0,0,0,1,11.61,1.36,1.36,0,0,1-1.31,1.74H75.36l-5.31,0H69c-3.15,0,2.28-9.28,2.3-13.62a6.37,6.37,0,0,0-.21-2,2.19,2.19,0,0,0-.16-.41c-.21-1.55.83-3-.09-4.27,0-.15,0-.28-.07-.43L70.61,79c-3.28-2.3-7.1-4.54-11-4.3a8.64,8.64,0,0,0-1.33.17,17.28,17.28,0,0,1-3.23.65,5.1,5.1,0,0,1-.57,0c-2.39-.31-4.19-2.45-6.08-4s-3.83-2.63-5.71-4a11.81,11.81,0,0,1-4.27-5.11l-.06-.2A4,4,0,0,1,41.66,64l.22,0,8.76,6.76A8,8,0,0,0,54,72.56h0a3.29,3.29,0,0,0,.54,0,9.94,9.94,0,0,0,1.95-.33,10.94,10.94,0,0,1,1.71-.21h.07a26.68,26.68,0,0,1,5.18.51,13,13,0,0,1,5.88,2.14c.38.25.77.52,1.15.79a6,6,0,0,0-.34-2C69.58,72,68.06,71,66.62,70.11l.29.19c-.56,0-.47-.86-.18-1.33.81-1.26,1.6-2.5,2.41-3.74l.66-1a18.45,18.45,0,0,0,3.39,5.6,4.62,4.62,0,0,1,.74,1c.56,1,.18,2.31.06,3.5s.21,2.46,1.19,2.83h0a1.18,1.18,0,0,0,.4.09,1.76,1.76,0,0,0,1.54-.74,5.6,5.6,0,0,0,.82-3,5.6,5.6,0,0,1,1-2.91,2.73,2.73,0,0,1,1.39-.94,2,2,0,0,1,1.34.1c.17,2-.66,3.84-1.47,5.62s-1.55,3.43-2.34,5.15c-.25.54-.48,1.18-.08,1.67a1,1,0,0,0,.36.26,1.15,1.15,0,0,0,.55.11,2.79,2.79,0,0,0,1.72-.92,23.57,23.57,0,0,0,4.14-4.27,8.39,8.39,0,0,0,1.64-5.55v0C86.85,71.79,87.55,71.81,88.25,71.83Z"/><path class="cls-3" d="M87.16,71.83q-1,3.39-2.22,6.74a12.37,12.37,0,0,1-1.3,2.84A10.67,10.67,0,0,1,78.49,85a2.13,2.13,0,0,0-1.25.86,2,2,0,0,0-.15.73,38.7,38.7,0,0,0,1,11.61,1.36,1.36,0,0,1-1.31,1.74H75.36l-5.31,0c-.47,0-1.52.1-1.82-.21a1,1,0,0,1-.17-.7c0-3.6,3.24-9.1,3.25-12.7a6.37,6.37,0,0,0-.21-2,2.19,2.19,0,0,0-.16-.41c-.21-1.55.83-3-.09-4.27,0-.15,0-.28-.07-.43L70.61,79c-3.28-2.3-7.1-4.54-11-4.3a9,9,0,0,0-2.42.17c-.91.18-1.79.51-2.71.61-2.39-.31-4.19-2.45-6.08-4s-3.83-2.63-5.71-4a11.81,11.81,0,0,1-4.27-5.11A3.92,3.92,0,0,1,40.57,64l.22,0,8.76,6.76c1.17.89,2.48,1.85,4,1.84a3,3,0,0,0,.53,0h0c.46-.06.93-.18,1.4-.28a12.54,12.54,0,0,1,2.8-.21h.07a35.7,35.7,0,0,1,4.09.51,18.61,18.61,0,0,1,3,.7,16.1,16.1,0,0,1,4,2.23s1,.52,1,.26l.08-.26a6,6,0,0,0-.34-2C69.58,72,68.06,71,66.62,70.11l.29.19c-.56,0-.47-.86-.18-1.33.81-1.26,1.6-2.5,2.41-3.74a18.79,18.79,0,0,0,3,4.56,4.62,4.62,0,0,1,.74,1c.56,1,.18,2.31.06,3.5s.3,2.82,1.6,2.92a1.56,1.56,0,0,0,.68-.09h0a1.18,1.18,0,0,0,.4.09,1.76,1.76,0,0,0,1.54-.74,5.6,5.6,0,0,0,.82-3,5.6,5.6,0,0,1,1-2.91,2.73,2.73,0,0,1,1.39-.94l.25.1c.17,2-.66,3.84-1.47,5.62L76.73,80.5c-.25.54-.48,1.18-.08,1.67a1.14,1.14,0,0,0,.9.37,1.68,1.68,0,0,0,.55-.11,1.15,1.15,0,0,0,.55.11,2.79,2.79,0,0,0,1.72-.92,23.57,23.57,0,0,0,4.14-4.27,8.39,8.39,0,0,0,1.64-5.55Z"/><path class="cls-4" d="M119.74,59.39l-3.69,1.69a4.88,4.88,0,0,1,.85,2.68c-.09.94-1,1.87-1.92,1.59l-.09,1.27c-1.12.69-2.53-.13-3.65-.83s-2.79-1.21-3.59-.16a1.74,1.74,0,0,1-.07,3.05,2,2,0,0,1-2.07-.17c-1.3-1-2.09-3.09-3.65-2.75a2.14,2.14,0,0,0-1.45,1.79,1.19,1.19,0,0,1-1,.9,6.45,6.45,0,0,1-4.17-.76.92.92,0,0,1,0-1.61,3.5,3.5,0,0,0,1.63-1.57c.51-1.15-.51-2.87-1.69-2.44a2.54,2.54,0,0,1-1,2.49,2,2,0,0,1-1.18.36,1.06,1.06,0,0,1-1-1.42,4.55,4.55,0,0,0,.16-2.66c-2.24-1-3.83,3-6.29,3.12a11.3,11.3,0,0,1-2.79-.7c-.94-.2-2.21.32-2.12,1.28L80.72,64c.21.37-.22.85-.66.84s-.79,2.91-1.12,2.62c-1.28-1.12-2.66-2.45-2.67-4.15a10.46,10.46,0,0,1-7.37.27,4.5,4.5,0,0,0-1.52-.36,2.74,2.74,0,0,0-1.14.34,6.26,6.26,0,0,0-2.77,2.76,2.71,2.71,0,0,1-.78,1.16c-1,.68-2.23-.36-3.41-.35-.56,0-1.1.27-1.67.33a2.5,2.5,0,0,1-2.28-3.54,15.65,15.65,0,0,1-6.77-1c-1.09-.42-2.48-.91-3.3-.08.86-.09,1.08,1.4.33,1.83A2.2,2.2,0,0,1,43,63.81a1,1,0,0,0-.8-.41c-.8,0-.74,1-1.13,1.58a1.89,1.89,0,0,1-2.28.31,5.54,5.54,0,0,0-2.35-.75,11.31,11.31,0,0,0-1.77.55,3.61,3.61,0,0,1-3.5-1.47c-.83-1-1.24-5.57-1.63-6.85a2.36,2.36,0,0,1-3.62-.34,3.32,3.32,0,0,1,.47-3.92,6,6,0,0,1,4.3-1.74,2.65,2.65,0,0,0,1-.21c1.49-.68.93-2.25.87-3.55a4.58,4.58,0,0,1,4.65-4.59c.83.06,1.86.28,2.31-.5a1.24,1.24,0,0,0,0-1.05c-.37-.9-1.29-1.31-1.81-2.06-1.23-1.77.33-4.13,2-5.54.7-.62,1.45-1.2,2.21-1.75a1.8,1.8,0,0,0,.89.21,2.23,2.23,0,0,1,.89,0c.53.21.66,1,1.22,1.16s.92-.41,1.35-.72a1.72,1.72,0,0,1,2.3.4c.19.26.3.58.5.83a2.79,2.79,0,0,0,2.52.57,1.16,1.16,0,0,0,.63-.18.43.43,0,0,0,.14-.58c-.1-.14-.3-.16-.47-.2a2,2,0,0,1-1.31-2,4,4,0,0,1,1-2.33A1.08,1.08,0,0,0,52,27.9c0-.34-.39-.54-.65-.76a2,2,0,0,1-.59-1c.15-.25.3-.5.47-.73a7.71,7.71,0,0,1,3.48-2.18,32.46,32.46,0,0,1,7.48-2.28,10.6,10.6,0,0,1,8,1.79,2.23,2.23,0,0,0,1.64.5c1.31-.15.83-1.33,1.41-1.85s2,.25,2.51-.48c.28-.41,0-1,.13-1.44.17-.7,1-1,1.76-.87s1.36.5,2.07.6c1.75.24,3.33-1.2,5.1-1.24,2.08-.06,3.72,1.83,4.52,3.75a1.71,1.71,0,0,0,.58.85c.74.44,1.67-.55,2.49-.29s1,1.14,1.67,1.18c.45,0,.91-.36,1.31.06a1,1,0,0,1,.25.76c-.12,1.82,2,2.14,3.5,2.07,1.39-.07,3.21.2,3.46,1.56a7.24,7.24,0,0,0,.13,1.24c.17.42.59.67.94,1a4.72,4.72,0,0,1,1.52,2.52,2,2,0,0,1,0,.35c0,.45-.24.88-.3,1.33-.09.73.18,1.55-.23,2.17-.52.79-1.76.7-2.43,1.36a1.8,1.8,0,0,0-.27,1.93,3.57,3.57,0,0,0,1.37,1.49,1,1,0,0,0,.59.22.92.92,0,0,0,.49-.25,9.84,9.84,0,0,1,1.45-1.12,2.29,2.29,0,0,1,.85-.27c.47.35,1.19.45,1.4,1,.14.37,0,.79,0,1.19.1.63.69.92,1.36,1a1,1,0,0,1,.59,1.65,2.06,2.06,0,0,1-1.33.74,8.4,8.4,0,0,0,7,2.28.57.57,0,0,1,.66.64,2,2,0,0,1-1.07,1.24,1.49,1.49,0,0,0-1,1.1c-.12.67.39,1,.86,1.14a6.77,6.77,0,0,0,2.92.46.57.57,0,0,1,.62.5c.17,1.32-1.75,3-1,4.22.29.48.86.68,1.32,1S120,58.92,119.74,59.39Z"/><path class="cls-5" d="M75.83,31.6a6.07,6.07,0,0,0,2.11-.72,1.18,1.18,0,0,0,.65-.7,1.84,1.84,0,0,1,.06-.4c.1-.24.41-.3.67-.34.63-.08,1.4-.11,1.76.42s0,1.52.38,2.13a6.39,6.39,0,0,0,.5.54c.25.31.32.75.59,1s.94.49,1.29.89a1.22,1.22,0,0,1,0,1.52,1.61,1.61,0,0,1-1.5.48,2.32,2.32,0,0,1-1.35-.9,2.81,2.81,0,0,1-.5-1,3.35,3.35,0,0,0-.27-.81c-.63-1.07-2.53-.45-3.32-1.42-.15-.18-.24-.4-.39-.56a1,1,0,0,0-.58-.3"/><path class="cls-5" d="M60.48,30.29l2.57-.75a.64.64,0,0,0,.26-.13.39.39,0,0,0-.07-.52,1.16,1.16,0,0,0-.54-.21,2,2,0,0,0-1.91.27c-.15.16-.24.37-.39.51a1.62,1.62,0,0,1-1.19.27l-1.5-.07a9.1,9.1,0,0,0-2.39.12,2.91,2.91,0,0,0-1.91,1.33.21.21,0,0,0,0,.11c0,.09.08.16.16.21.59.38,1.48.61,1.55,1.31,0,.29-.09.61.09.84a.75.75,0,0,0,.57.22,10.7,10.7,0,0,0,2.33-.08c.49-.07,1.08-.29,1.13-.78,0-.29-.14-.62,0-.87s.68-.18.88-.44.09-.42.09-.63.07-.49.28-.52"/><path class="cls-5" d="M87.65,26.61l3,1.54A3.37,3.37,0,0,0,93,28.7c.18,0,.37-.11.52,0a.52.52,0,0,1,.13.42,4.54,4.54,0,0,0,1.18,3.55,2.5,2.5,0,0,0,2.6.34,3.43,3.43,0,0,1,1.12-.47c.61-.05,1.24.45,1.78.18a1.82,1.82,0,0,0-1.25-1.91,1.35,1.35,0,0,1,1.51.48,4,4,0,0,1,.66,1.54c.18.67.35,1.34.53,2a1.69,1.69,0,0,1,0,1.23,1.6,1.6,0,0,1-.54.49,5,5,0,0,1-2,.9,2.11,2.11,0,0,1-2-.65c-.36-.47-.48-1.15-1-1.46s-1-.15-1.44-.3a2.83,2.83,0,0,1-1.23-1l-1.13-1.44a3,3,0,0,1-.51-.82c-.22-.6-.16-1.45-.76-1.67-.38-.14-.89.08-1.15-.23a1.71,1.71,0,0,1-.2-.52c-.48-1.21-3-.23-3.33-1.47a.83.83,0,0,1,1-1"/><path class="cls-5" d="M65.63,52.09A2.91,2.91,0,0,0,67,48.67,2.45,2.45,0,0,1,65,48.35a1.49,1.49,0,0,0-.66-.34.87.87,0,0,0-.78.65c-.12.34-.12.72-.23,1.06a1.86,1.86,0,0,1-2.25,1.18c-.73-.22-1.28-.91-2-1s-1.44.25-2-.1a4.17,4.17,0,0,0-.44-.29,1.39,1.39,0,0,0-.76,0c-.64.07-1.28.16-1.92.26,0,.32.27.57.47.83s.35.62.15.87-.58.26-.68.54.32.6.61.84a1.3,1.3,0,0,1,.35,1.55c.56.48,1.37,1,2,.52.4-.31.44-.94.84-1.25.56-.45,1.35,0,2,.18a2.75,2.75,0,0,0,2.13-.31,1,1,0,0,1,.29-.14,1,1,0,0,1,.7.22,2.61,2.61,0,0,0,1.6.3.71.71,0,0,0,.38-.15c.27-.23.16-.66.22-1a1,1,0,0,1,1-.83"/><path class="cls-5" d="M79.48,57.6a2.91,2.91,0,0,0,1.35-3.42,2.46,2.46,0,0,1-1.94-.32,1.49,1.49,0,0,0-.66-.34.87.87,0,0,0-.78.65c-.12.34-.12.72-.23,1.06A1.86,1.86,0,0,1,75,56.41c-.73-.22-1.28-.9-2-1s-1.44.25-2-.1a4.17,4.17,0,0,0-.44-.29,1.39,1.39,0,0,0-.76-.05c-.64.07-1.28.16-1.92.26,0,.32.27.57.47.83s.35.62.16.87-.59.26-.69.54.32.6.61.84a1.31,1.31,0,0,1,.35,1.55c.56.48,1.37,1,2,.52.4-.31.44-.94.84-1.25.56-.45,1.36,0,2.05.18A2.75,2.75,0,0,0,75.64,59a1,1,0,0,1,.29-.14,1,1,0,0,1,.7.22,2.61,2.61,0,0,0,1.6.3.71.71,0,0,0,.38-.15c.27-.23.16-.66.22-1a1,1,0,0,1,1-.83"/><path class="cls-5" d="M38.86,50.49c.69,0,1.54.2,1.73.86,0,.18,0,.37.09.54.23.87,1.93,1.14,2.5.86s.68-1.23,1.29-1.2.64.75.47,1.23-.5,1-.35,1.46c.35,1.14,2.15.61,3.94.32,1.45-.25,1.33,1.4,0,1.48-.49,0-1-.12-1.45-.12a10.32,10.32,0,0,0-2.15.56,1.68,1.68,0,0,1-2-.64c-.25-.54,0-1.3-.53-1.66s-.91-.09-1.36,0c-1.54.43-2.46-.41-2.42-1.25,0-.21.09-.4.09-.61,0-.61-.64-1.21-.34-1.74l.63,0"/><path class="cls-5" d="M89.29,48.63a3.28,3.28,0,0,1,2.66.56c1-.85-.34-2.93.71-3.76.3-.24.71-.28,1-.5.49-.36.56-1.06.83-1.6a.44.44,0,0,1,.23-.25.43.43,0,0,1,.31.05,1.76,1.76,0,0,1,.88,2.12c-.18.51-.61.91-.78,1.43s.09,1.26.63,1.22l0,1.37c-.55-.25-1.12.37-1.29,1s-.19,1.27-.65,1.67a1.45,1.45,0,0,0-.34.31c-.23.39.2.81.48,1.17a2.26,2.26,0,0,1,.18,2.3,3.76,3.76,0,0,1-1.71,1.68,1.36,1.36,0,0,1-1,.2c-.52-.16-.72-.8-.72-1.34a3.46,3.46,0,0,0-.15-1.61,3.22,3.22,0,0,0-.59-.69,7.32,7.32,0,0,1-2.11-4.32.6.6,0,0,1,.07-.42A.59.59,0,0,1,88.2,49l1.44-.47"/><path class="cls-5" d="M68.57,25.63l3.69.43a.38.38,0,0,1,.23.08.38.38,0,0,1,.08.3l-.06,2.34a1.37,1.37,0,0,1-.07.45,1.39,1.39,0,0,0-.12.28.52.52,0,0,0,.08.38,1.06,1.06,0,0,0,.44.4,2.47,2.47,0,0,1-1,.12.82.82,0,0,1-.7-.59c0-.25,0-.55-.14-.73a.79.79,0,0,0-.49-.11,3.65,3.65,0,0,1-2-1,2.63,2.63,0,0,1-.5-.5,1.25,1.25,0,0,1,.75-1.81"/><path class="cls-5" d="M49.05,36.91a7.88,7.88,0,0,0,2.45.42,1.44,1.44,0,0,0,1.3-.5c.21-.34.14-.82.41-1.12a1.24,1.24,0,0,1,.9-.29,1.46,1.46,0,0,1,1.28.33c.42.53.08,1.56.71,1.81a3.4,3.4,0,0,1,.38.12.58.58,0,0,1,.17.72,6.07,6.07,0,0,1-.44.68A1.68,1.68,0,0,0,56,40.36a1.39,1.39,0,0,1,.11.77c-.18.58-1.26.54-1.32,1.14,0,.21.1.42,0,.61a.65.65,0,0,1-.42.35,2.48,2.48,0,0,1-1.63.13,1.56,1.56,0,0,1-1.1-1.15,1.15,1.15,0,0,0-.13-.48.88.88,0,0,0-.33-.24L48.15,40a1,1,0,0,1-.34-.22.76.76,0,0,1-.16-.46,2,2,0,0,1,.83-1.75c.32-.21.74-.4.76-.78"/><path class="cls-5" d="M40.37,39.43a5.92,5.92,0,0,0,2.41-.12,2,2,0,0,0,1.47-1.73,4.78,4.78,0,0,1,0-1,1.21,1.21,0,0,1,.87-.81,3.09,3.09,0,0,1,1.25,0c.34,1.21-1.14,2.39-.81,3.61.09.35.33.71.19,1s-.66.45-.93.75a1.82,1.82,0,0,0-.32,1c-.06.36-.21.77-.56.87s-.73-.18-1-.49-.42-.68-.77-.84a2.8,2.8,0,0,0-.82-.11,2.31,2.31,0,0,1-1.87-1.35.74.74,0,0,1-.06-.56.59.59,0,0,1,.59-.33,1.67,1.67,0,0,1,.68.23"/><path class="cls-6" d="M51.46,22.92a.18.18,0,0,0,.16,0"/><path class="cls-4" d="M57.71,62c-.82.48-.94,1.62-1.56,2.36a5.07,5.07,0,0,1-2.3,1.22A14.65,14.65,0,0,0,49.46,68a3.8,3.8,0,0,0-.84.86,3.11,3.11,0,0,1-.7,1,2,2,0,0,1-.87.28l-3,.42c-.73.1-1.65.42-1.65,1.15,0,.5.46.87.9,1.11a9,9,0,0,0,5.36,1.09c1.59-.17,3.14-.78,4.74-.68a5.05,5.05,0,0,0,1.86,0c.38-.11.72-.35,1.1-.45a4,4,0,0,1,1.75.13,13.14,13.14,0,0,0,5.5-.38c.83-.2,1.65-.44,2.46-.7,1.48-.49,3.17-1.38,3.29-2.93a.65.65,0,0,1,.08-.31.57.57,0,0,1,.27-.13,13.53,13.53,0,0,1,3.8.18c1.27.09,2.75-.21,3.37-1.32A3.06,3.06,0,0,0,76.2,64a5.26,5.26,0,0,0-2.33-1.52c-1.47-.48-3.09-.3-4.58-.71a20.68,20.68,0,0,1-3.47-1.63,5.23,5.23,0,0,0-3.71-.56c-1,.31-1.77,1.09-2.76,1.34a7.38,7.38,0,0,0-1.48.33c-.45.21-.79.81-.51,1.22"/><path class="cls-4" d="M74.43,60.54a3,3,0,0,0,.8,2.75,7,7,0,0,0,2.5,1.58A21,21,0,0,0,86,66.52c.17,1.26,1.51,2.06,2.77,2.24s2.55-.06,3.82.09a27.73,27.73,0,0,1,3.06.73,4.77,4.77,0,0,0,3.08-.14A2.27,2.27,0,0,0,100,66.88c-.19-.57-.66-1-.88-1.57-.54-1.35.58-2.83,1.86-3.52a4,4,0,0,1,2.18-.54A2.23,2.23,0,0,1,105,62.41a7.64,7.64,0,0,1,.3,2.4c.23,1.52,1.49,2.78,1.56,4.32a3.66,3.66,0,0,1-1.2,2.74A6.73,6.73,0,0,1,103,73.33a12,12,0,0,1-5.73.35c-2.27-.41-4.5-1.48-6.77-1.1a6.09,6.09,0,0,1-2.69.29,9.88,9.88,0,0,1-.94-.41,3.32,3.32,0,0,0-2.48,0,1.19,1.19,0,0,0-.78.76c-.18.86,1.22,1.45,1.05,2.31-.11.52-.71.74-1.23.8-2.76.31-5.26-1.48-7.46-3.17a6.62,6.62,0,0,1-1.5-1.44,3.07,3.07,0,0,0-.64-.82,2.56,2.56,0,0,0-1.63-.24,8.26,8.26,0,0,1-4.54-1.16,5.55,5.55,0,0,1-3-3.87,5.45,5.45,0,0,1,.89-3.42,9.09,9.09,0,0,1,4.15-3.65,4.39,4.39,0,0,1,3.45-.26,2.19,2.19,0,0,1,1.19,2.91"/><path class="cls-5" d="M75.59,65.11a3.75,3.75,0,0,0-1.41-1.33A11.28,11.28,0,0,0,70,62.27c-.71-.11-1.54-.21-1.93-.81-.1-.17-.16-.36-.26-.53a2.45,2.45,0,0,0-1.54-1A2.42,2.42,0,0,0,65,59.87a1,1,0,0,0-.72,1A3.48,3.48,0,0,0,62,60.71c-.7.27-1.15,1.27-.63,1.81l-.16-.62a2.08,2.08,0,0,1-.34,2.8,3.34,3.34,0,0,1-1.51.6c-.31,0-.68.14-.79.43-.05.13,0,.28-.09.41-.12.28-.49.34-.79.38a12.86,12.86,0,0,0-2,.38,2.24,2.24,0,0,0-1.26.66.87.87,0,0,0,.12,1.26,1.28,1.28,0,0,0,.7.1l2.44-.11a1.13,1.13,0,0,0,.54-.1c.28-.15.42-.49.71-.63a1.48,1.48,0,0,1,1,.07c.35.08.8.06.95-.26L62,68.5a.62.62,0,0,1,.66-.63A1.89,1.89,0,0,1,63,68a1,1,0,0,0,1.14-.83,1.58,1.58,0,0,1,.88.62c.69-.39,1.07-1.43,1.87-1.35.36,0,.67.33,1,.35a5.31,5.31,0,0,1,.68,0,1.67,1.67,0,0,1,.72.52,2,2,0,0,0,2.59,0,4.59,4.59,0,0,1,.92-.79,3,3,0,0,1,1.54,0c.51.05,1.15-.11,1.3-.61A1.07,1.07,0,0,0,75.59,65.11Z"/><path class="cls-5" d="M109.46,61.48a3.07,3.07,0,0,0-1-1.3,3.43,3.43,0,0,0-2.27-1.08c-.24,0-.47.09-.71.09a4.33,4.33,0,0,1-1.74-.69.72.72,0,0,0-.71,0c-.14.1-.21.28-.35.37-.5.34-1-.67-1.64-.51-.23.06-.38.31-.6.42a2.85,2.85,0,0,1-.66.11.5.5,0,0,0-.43.34,1.51,1.51,0,0,0,0,2.11c.32.28.79.48.85.89,0,.25-.1.53,0,.75s.61.26.78.53a1,1,0,0,1,0,.65c-.19,1.24.7,2.37,1.54,3.31a1.38,1.38,0,0,0,.53.43,1,1,0,0,0,1-.27,1.82,1.82,0,0,0,.35-2.24c-.13-.2-.3-.41-.24-.64a.66.66,0,0,1,.2-.3,2,2,0,0,1,1.22-.79,2,2,0,0,0,.55,0,.52.52,0,0,0,.09-.87,5.71,5.71,0,0,0,2.45-1.39Z"/><path class="cls-5" d="M89.44,41.75c0-.21-.2-.37-.38-.49l-.62-.42a.5.5,0,0,0-.32-.13.49.49,0,0,0-.28.17l0,0a1.55,1.55,0,0,0-.55-.73,3.39,3.39,0,0,0-2-.47,4.56,4.56,0,0,1-2.11-.3c-.23-.12-.43-.28-.67-.39-.89-.41-2,.07-2.89-.32S78.44,37.54,77.82,37a3.33,3.33,0,0,0-1.09-.6,6.61,6.61,0,0,0-1.09.12,1.07,1.07,0,0,0-.2-.36h0l1,.18a7.78,7.78,0,0,0-1.09-.21,1.42,1.42,0,0,0-.57-.3L71,34.53a1.27,1.27,0,0,0-.79-.09c-.55.18-.63,1-1.11,1.29s-1,.06-1.53.14a1.36,1.36,0,0,0-1.12,1.4c-.21-.22-.6,0-.67.31a5.53,5.53,0,0,0,0,.91,2.09,2.09,0,0,1-.63,1.1,2.1,2.1,0,0,0-.64,1.1c-.05.42.28.92.7.86a1.51,1.51,0,0,0,.58-.29,1.58,1.58,0,0,1,1.49-.06,1.12,1.12,0,0,0,1.44.54,1.77,1.77,0,0,0,.41-.31,7.13,7.13,0,0,1,1.33,1l.14.16c0,.32.07.65.1,1s0,.44-.15.55a.84.84,0,0,1-.42,0c-.66,0-1,.8-1.68,1-.31.1-.75.14-.79.46s.16.38.22.58-.06.55,0,.79a.92.92,0,0,0,.58.41l1,.36a2.19,2.19,0,0,0,1.48.15,2.1,2.1,0,0,0,.71-.55l.07-.07a4.29,4.29,0,0,0,1.19.09l1.87,0a1.27,1.27,0,0,1,.62.1A1.6,1.6,0,0,1,76,48a5,5,0,0,0,2.88,2.1,15.18,15.18,0,0,0,3.61.5s0-.11,0-.17a1,1,0,0,0,1.2-.27c.49-.7-.16-1.83.41-2.47.4-.46,1.25-.42,1.51-1s-.29-1.25,0-1.74a1.29,1.29,0,0,1,.48-.38A5.9,5.9,0,0,0,87.92,43a4.07,4.07,0,0,0,1.27-.78A.66.66,0,0,0,89.44,41.75Z"/><path class="cls-5" d="M76.91,36.41l-.43-.07.25.07Z"/><path class="cls-5" d="M110.77,53.59c-.14-.2-.44-.19-.64-.32a.91.91,0,0,1-.33-.62,1.4,1.4,0,0,0-.25-.67c-.16-.18-.49-.24-.62,0a.76.76,0,0,1-.33.82,1.5,1.5,0,0,0-.7-1,4.33,4.33,0,0,0-1-.52,3.84,3.84,0,0,1-.22-1.62c0-.75.18-1.49.17-2.25a5.19,5.19,0,0,0-.45-2.08c.38-.23.75-.55.68-1a.75.75,0,0,0-.62-.57,1.31,1.31,0,0,0-.86.2,2.88,2.88,0,0,1-1.07.58,2.72,2.72,0,0,1-1.16-.34c-.39-.14-.92-.12-1.08.26a1.66,1.66,0,0,0-.05.55c0,.74-.71,1.27-1.22,1.82l-.11.13s0,0,0,0V47a.54.54,0,0,0-.07.19.58.58,0,0,0,.06.26l.14.36a1.52,1.52,0,0,1-.39.85,7.12,7.12,0,0,1-.92.69,1.1,1.1,0,0,0-.5,1c0,.23.17.42.21.65.11.62-.58,1.21-.39,1.82a1.13,1.13,0,0,0,.27.41,3.5,3.5,0,0,0,3,1.06c.77-.11,1.68-.43,2.21.14a5,5,0,0,1,.44.74,1.85,1.85,0,0,0,1.51.66,2.19,2.19,0,0,0,1.25.29h1a.55.55,0,0,0,.45-.14c.09-.11.07-.28.09-.43.08-.53.68-.79,1.15-1.06C110.68,54.25,111,53.87,110.77,53.59Z"/><path class="cls-5" d="M53.26,55.28c-.64-.81-1.29-1.61-1.93-2.41a2.61,2.61,0,0,1-.68-1.29,3.5,3.5,0,0,1,.67-1.81,4.69,4.69,0,0,0,.46-1.46.53.53,0,0,0-.05-.39c-.09-.14-.26-.17-.4-.26-.41-.26-.36-.86-.25-1.34s.18-1.08-.22-1.35a1.09,1.09,0,0,0-.59-.16,18,18,0,0,0-5.38,1,2.06,2.06,0,0,1-.74.09,2.74,2.74,0,0,1-.77-.28,4.88,4.88,0,0,0-3.44-.31,3.45,3.45,0,0,0-2.35,2.42,1.43,1.43,0,0,1-.2.58c-.23.28-.65.28-1,.41a1.74,1.74,0,0,0-.68,2.2,3.12,3.12,0,0,0,1.79,1.82,1.86,1.86,0,0,1,.29.58,5.64,5.64,0,0,0,.4,1.42A5,5,0,0,0,39.53,56c.38.31.69.67,1.06,1a6.62,6.62,0,0,0,3.86,1.33A25.52,25.52,0,0,0,49.31,58l2.8-.33a3.88,3.88,0,0,0,1-.23,1.22,1.22,0,0,0,.69-.75A1.77,1.77,0,0,0,53.26,55.28ZM37,52.39l-.18,0A.84.84,0,0,1,37,52.39Z"/><path class="cls-2" d="M72.75,88.71c0,1.83-1.45,3.56-1.18,7.71.08.07.18,0,.21-.15.42-1.43.09-1.92.14-3,.08-1.69,1.45-3.35.88-5,0,.19,0,.38,0,.56"/><path class="cls-2" d="M75.5,91.58a13.13,13.13,0,0,1-.23-2.8c0-1.4-.24-.77-.51-2a21.49,21.49,0,0,1-.35-2.13.39.39,0,0,0,0,.33l0,0c.2.56,0,1.2.13,1.76.37,1.14.69.38.69,2.53a19,19,0,0,0,.56,4.68A5.63,5.63,0,0,0,75.5,91.58Z"/><path class="cls-2" d="M76.49,84.6l0,.36a1.17,1.17,0,0,1,0-.2A.41.41,0,0,0,76.49,84.6Z"/><path class="cls-2" d="M77,84.34c-.27,0-.34.1-.44.42a.82.82,0,0,1-.07.36l0-.16c-.17.76-.29.79.15,1.59a4.77,4.77,0,0,1,.43-1.9.86.86,0,0,1,.44-.21A7.38,7.38,0,0,0,80.09,83l.17-.14A10.31,10.31,0,0,1,77,84.34Z"/><path class="cls-2" d="M80.26,82.86l.6-.38A1.65,1.65,0,0,0,80.26,82.86Z"/><path class="cls-2" d="M77.54,77.45c.09-.21.17-.41.26-.61A1.94,1.94,0,0,0,77.54,77.45Z"/><path class="cls-2" d="M76.86,79c-.25.36-.74.45-1.06.75s-.69,1.82-.2,2l-.1-.08c0-.45.17-1.46.55-1.7a1.9,1.9,0,0,1,.4-.14,1.65,1.65,0,0,0,.92-1.35c.06-.35.09-.71.17-1C77.47,77.62,77,78.89,76.86,79Z"/><path class="cls-2" d="M71.51,72.74a3,3,0,0,0,.37.87c.42.94.07,2.11.59,3a3.3,3.3,0,0,1,.36.63c.1.29,0,.61.14.9.15.46.63.75.73,1.22-.39-1.15-1.26-3.32-1.34-3.65-.18-.77-.15-2.92-.94-3"/><path class="cls-2" d="M73.66,83.07c-.24-.09-.32,0-.41-.23l-.33-1a13.84,13.84,0,0,1-.65-2.61l0,.15a.58.58,0,0,0-.17-.41,7.2,7.2,0,0,1,.25,1.52c0,1,0,.68.35,1.16.21.33.06.77.11,1.16.07.6.5.65.51,1.07a5.19,5.19,0,0,0,.29,1.6,3.42,3.42,0,0,1,.17-1.59C73.85,83.56,74,83.19,73.66,83.07Z"/><path class="cls-2" d="M76.21,91.47a.48.48,0,0,0,0-.22Z"/><path class="cls-2" d="M75.69,87.5A5,5,0,0,0,76,89.77c.16.26.2.24.2.57a4.73,4.73,0,0,0,.62,2.84c0-.31,0-.62-.08-.94a2.4,2.4,0,0,1,.11-1.17,13.31,13.31,0,0,0,.31-2.28C77.3,87.45,76.14,87,75.69,87.5Z"/><path class="cls-3" d="M76.37,90a.41.41,0,0,0,0-.12Z"/><path class="cls-3" d="M76.28,87.9a.42.42,0,0,0-.18.08,2.69,2.69,0,0,0,.17,1.14c.08.13.1.13.1.29a2.39,2.39,0,0,0,.31,1.44c-.11-1.37,0-.5.18-2.22C76.89,88.2,76.7,87.83,76.28,87.9Z"/><path class="cls-2" d="M66.7,74.75a3.69,3.69,0,0,0-2.71-1,15.57,15.57,0,0,1,2.07,1.07A6.94,6.94,0,0,0,68.31,76,3.63,3.63,0,0,1,66.7,74.75Z"/><path class="cls-2" d="M68.57,76,68.31,76h0a10.62,10.62,0,0,0,1.87.72l0,0,.22-.08Z"/><path class="cls-7" d="M114.87,97.22c-10.24.34-8,3.49-19.54,4.75-7.71-3.92-17-4.5-25.78-4.64-16.58-.21-11.61.34-16.49,1.44-3.78.87-9.29-1.54-11.77-.14a5.3,5.3,0,0,0-1.18,1.09,14.1,14.1,0,0,1-3.34,2.64h0a9.56,9.56,0,0,1-3.86-1.82c-3.2-1.91-7.41.26-7.41,3.79v3.74a2.7,2.7,0,0,0,2.7,2.7h88.94a2.7,2.7,0,0,0,2.71-2.7v-6.36A4.67,4.67,0,0,0,114.87,97.22Z"/><path class="cls-8" d="M95.22,101.89a11.87,11.87,0,0,0-4,.55c-2.92.65-6,.69-8.82,1.55-3.34,1-6.27,3.12-9.63,4,5.77.63,9.77-3.25,17.3-3.83a51.56,51.56,0,0,0,13-2.3c-4.59-.52-6.34,1-8,.05"/><path class="cls-8" d="M61,104.81a41,41,0,0,1-21.11.17c-1.85-.5-2.31-.69-5.52-3.46a13,13,0,0,0,2.35.84h0c3.17,2,6.23,2.18,9.26,2.3C51,104.89,56,104.92,61,104.81Z"/></g></g></svg>