<svg xmlns="http://www.w3.org/2000/svg" viewBox="0 0 145.33 145.33"><defs><style>.cls-1{fill:#545f6f;}.cls-2{fill:#3c9c46;}.cls-3{fill:#52ba5a;}</style></defs><title>Asset 7</title><g id="Layer_2" data-name="Layer 2"><g id="Layer_1-2" data-name="Layer 1"><circle class="cls-1" cx="72.66" cy="72.66" r="72.66"/><path class="cls-2" d="M107.12,53.44a1.13,1.13,0,0,0-1.51-.53C87,62,77.93,85.28,74.62,96.1,70.52,57.93,49.24,37.29,49,37a1.14,1.14,0,1,0-1.56,1.65c.32.3,29.61,28.71,25.17,80.84-4.15-9.06-15.9-30.15-38-37.33a1.15,1.15,0,0,0-1.43.73,1.13,1.13,0,0,0,.73,1.43c25.93,8.44,37.12,37,38.17,39.87-.43,3.58-1,6.13-1.79,9.92a1.14,1.14,0,0,0,.88,1.34l.23,0c.53,0,3.29-.37,3.4-.91.81-4,.72-6.66,1.17-10.4v0c.91-7.66.15-14.74-.19-21.44a10.36,10.36,0,0,1,0-1.57C77,96,85.29,65.38,106.6,55A1.12,1.12,0,0,0,107.12,53.44Z"/><path class="cls-3" d="M102.93,81.32C100.24,85,96.62,87,92.73,87.07a11.4,11.4,0,0,1-5.49-1.25,14.7,14.7,0,0,1-4.82-4.06l-.08-.11a1,1,0,0,1,.07-1.14l.22-.29a13,13,0,0,1,10-5.47c3.89-.09,7.55,1.81,10.31,5.33A1,1,0,0,1,102.93,81.32Z"/><path class="cls-2" d="M89.41,81.07l5.09,2.3-7.13-2.13-5,.41a1,1,0,0,1,.07-1.14l.22-.29,8.56.08,3.72-2-2.53,2,6,0Z"/><path class="cls-3" d="M113.39,65.47c-2.68,3.63-6.3,5.67-10.2,5.75A11.43,11.43,0,0,1,97.7,70a14.72,14.72,0,0,1-4.82-4.07.86.86,0,0,1-.07-.1,1,1,0,0,1,.07-1.14l.21-.29a13,13,0,0,1,10-5.47c3.89-.09,7.55,1.81,10.3,5.33A1,1,0,0,1,113.39,65.47Z"/><path class="cls-2" d="M99.88,65.22l5.08,2.3-7.12-2.13-5,.41a1,1,0,0,1,.07-1.14l.21-.29,8.56.08,3.73-2-2.53,2,6,0Z"/><path class="cls-3" d="M85.52,45.32C82.84,49,82,53,83,56.76a11.34,11.34,0,0,0,2.82,4.88,14.5,14.5,0,0,0,5.29,3.42l.13,0a1,1,0,0,0,1.07-.41l.21-.28a13,13,0,0,0,2.3-11.15c-1.06-3.75-4-6.69-8.12-8.29A1,1,0,0,0,85.52,45.32Z"/><path class="cls-2" d="M89.72,58.17,86,54l4.13,6.19,1.09,4.93a1,1,0,0,0,1.07-.41l.21-.28c-.47-1.47-1.57-4.94-2.59-8.16l.81-4.15-1.17,3c-1-3.1-1.8-5.72-1.8-5.72Z"/><path class="cls-3" d="M124.36,42.77c-4.56-1.85-9.09-1.68-12.75.45a12.55,12.55,0,0,0-4.39,4.3A15.92,15.92,0,0,0,105.06,54a.66.66,0,0,0,0,.14,1.11,1.11,0,0,0,.71,1l.37.14c4.44,1.7,8.82,1.49,12.38-.6s6-6,6.54-10.82A1.1,1.1,0,0,0,124.36,42.77Z"/><path class="cls-2" d="M111.94,50.69l3.42-5-5.41,6-4.9,2.49a1.11,1.11,0,0,0,.71,1l.37.14c1.42-.89,4.78-3,7.9-4.94l4.6-.27-3.49-.42,5.55-3.45Z"/><path class="cls-3" d="M74.32,61.73A12.81,12.81,0,0,0,72.8,72.8a11.17,11.17,0,0,0,2.93,4.5,13.71,13.71,0,0,0,5.11,3l.11,0a.92.92,0,0,0,1-.45l.18-.28a12.76,12.76,0,0,0,1.34-10.79,12.17,12.17,0,0,0-8.05-7.45A.91.91,0,0,0,74.32,61.73Z"/><path class="cls-2" d="M79.07,73.76,75.38,70l4.23,5.67L81,80.29a.92.92,0,0,0,1-.45l.18-.28c-.54-1.38-1.79-4.63-3-7.65l.46-4-.87,2.94-2-5.37Z"/><path class="cls-3" d="M72.77,46.83a12.82,12.82,0,0,0-8.47,7.28,11.28,11.28,0,0,0-.78,5.32A13.56,13.56,0,0,0,65.39,65l.06.1a.92.92,0,0,0,1,.3l.32-.1a12.77,12.77,0,0,0,8.15-7.19,12.16,12.16,0,0,0-1.1-10.91A.9.9,0,0,0,72.77,46.83Z"/><path class="cls-2" d="M68.37,59l-.26-5.28-.59,7-2.07,4.37a.92.92,0,0,0,1,.3l.32-.1c.51-1.39,1.72-4.65,2.85-7.68l3-2.7-2.59,1.63,2-5.38Z"/><path class="cls-3" d="M64.15,30.74A12.8,12.8,0,0,0,55.69,38a11.14,11.14,0,0,0-.79,5.32,13.56,13.56,0,0,0,1.87,5.6l.07.1a.93.93,0,0,0,1,.3l.32-.1a12.74,12.74,0,0,0,8.15-7.19,12.16,12.16,0,0,0-1.1-10.91A.89.89,0,0,0,64.15,30.74Z"/><path class="cls-2" d="M59.75,42.9l-.26-5.28-.58,7.05L56.84,49a.93.93,0,0,0,1,.3l.32-.1c.51-1.39,1.73-4.65,2.86-7.68l3-2.7-2.59,1.62c1.09-2.91,2-5.37,2-5.37Z"/><path class="cls-3" d="M36.1,25.12A12.83,12.83,0,0,0,39,35.92a11.2,11.2,0,0,0,4.44,3,13.51,13.51,0,0,0,5.85.75l.12,0a.92.92,0,0,0,.72-.78c0-.11,0-.22,0-.33A12.71,12.71,0,0,0,47.23,28.1a12.15,12.15,0,0,0-10.3-3.77A.91.91,0,0,0,36.1,25.12Z"/><path class="cls-2" d="M45.13,34.38l-4.86-2.07,6.09,3.6,3,3.76a.92.92,0,0,0,.72-.78c0-.11,0-.22,0-.33l-5.67-5.91-1.12-3.88.33,3.05-4-4.16Z"/><path class="cls-3" d="M46.09,61.68A12.82,12.82,0,0,1,56.8,58.51a11.18,11.18,0,0,1,4.89,2.22,13.54,13.54,0,0,1,3.7,4.61s0,.07,0,.11a.91.91,0,0,1-.29,1l-.26.22a12.74,12.74,0,0,1-10.46,2.95,12.13,12.13,0,0,1-8.57-6.83A.9.9,0,0,1,46.09,61.68Z"/><path class="cls-2" d="M58.7,64.57l-4.3-3.08,6.24,3.33,4.79.63a.91.91,0,0,1-.29,1l-.26.22c-1.44-.33-4.84-1.07-8-1.77L53,66l2.77-1.3-5.61-1.22Z"/><path class="cls-3" d="M37.44,45.86a12.8,12.8,0,0,1,10.71-3.17,11.16,11.16,0,0,1,4.9,2.22,13.59,13.59,0,0,1,3.69,4.6l0,.11a.94.94,0,0,1-.3,1l-.26.21a12.74,12.74,0,0,1-10.45,3A12.19,12.19,0,0,1,37.2,47,.92.92,0,0,1,37.44,45.86Z"/><path class="cls-2" d="M50.05,48.74l-4.3-3.07L52,49l4.8.62a.94.94,0,0,1-.3,1l-.26.21-8-1.76-3.89,1.06,2.77-1.3L41.5,47.63Z"/><path class="cls-3" d="M64.38,84.5A12.82,12.82,0,0,0,58,93.65,11.27,11.27,0,0,0,58.51,99a13.65,13.65,0,0,0,3.19,5l.09.07a.92.92,0,0,0,1.06,0l.28-.18a12.72,12.72,0,0,0,6.13-9,12.15,12.15,0,0,0-3.75-10.31A.91.91,0,0,0,64.38,84.5Z"/><path class="cls-2" d="M63.1,97.37l-1.54-5.06,1.16,7L61.79,104a.92.92,0,0,0,1.06,0l.28-.18c.16-1.47.53-4.93.88-8.15l2.24-3.35-2.11,2.22c.34-3.1.63-5.71.63-5.71Z"/><path class="cls-3" d="M47.35,69.17a13.3,13.3,0,0,0-4.94,10.25,11.46,11.46,0,0,0,1.35,5.27,13.57,13.57,0,0,0,3.9,4.46l.1.06a.9.9,0,0,0,1.05-.13l.25-.22a13.23,13.23,0,0,0,4.69-10,12.28,12.28,0,0,0-5.26-9.72A.89.89,0,0,0,47.35,69.17Z"/><path class="cls-2" d="M48,82.3l-2.29-4.81L48,84.3l-.2,4.91a.9.9,0,0,0,1.05-.13l.25-.22c-.07-1.5-.22-5-.37-8.33L50.4,76.8l-1.75,2.57c-.14-3.17-.25-5.84-.25-5.84Z"/><path class="cls-3" d="M13.87,75.42a15.18,15.18,0,0,0,8.46,9.74,12.84,12.84,0,0,0,6.05,1,15,15,0,0,0,6.32-2.07l.11-.08a1,1,0,0,0,.32-1.15L35,82.46a15.11,15.11,0,0,0-8.33-9.37A13.69,13.69,0,0,0,14.3,74.21,1,1,0,0,0,13.87,75.42Z"/><path class="cls-2" d="M27.78,80.58l-6,.23,8,.75,5,2.41a1,1,0,0,0,.32-1.15L35,82.46l-8.78-3.35L23.1,75.67l1.9,3-6.15-2.36Z"/><path class="cls-3" d="M42.55,106.5a12.81,12.81,0,0,1,9.15-6.41,11.25,11.25,0,0,1,5.34.54,13.68,13.68,0,0,1,5,3.2l.08.09a.92.92,0,0,1,0,1,2.75,2.75,0,0,0-.17.29,12.75,12.75,0,0,1-9,6.12,12.15,12.15,0,0,1-10.3-3.74A.91.91,0,0,1,42.55,106.5Z"/><path class="cls-2" d="M55.42,105.23l-5.05-1.55,7,1.17,4.74-.93a.92.92,0,0,1,0,1,2.75,2.75,0,0,0-.17.29l-8.15.87-3.35,2.25,2.21-2.12-5.71.63Z"/><path class="cls-3" d="M29,95.28a12.85,12.85,0,0,1,8.19-7.6,11.18,11.18,0,0,1,5.36-.18A13.64,13.64,0,0,1,47.88,90l.09.08a.92.92,0,0,1,.19,1c0,.1-.09.21-.14.31A12.75,12.75,0,0,1,40,98.7a12.17,12.17,0,0,1-10.72-2.31A.9.9,0,0,1,29,95.28Z"/><path class="cls-2" d="M41.55,92.27l-5.22-.85,7.07.21L48,90.06a.92.92,0,0,1,.19,1c0,.1-.09.21-.14.31l-8,2-3,2.68L39,93.67l-5.57,1.4Z"/></g></g></svg>