<svg xmlns="http://www.w3.org/2000/svg" viewBox="0 0 145.33 145.33"><defs><style>.cls-1{fill:#545f6e;}.cls-2{fill:#fff;}.cls-3{fill:#94cdcf;}.cls-4{fill:#70a4bc;}</style></defs><title>Asset 14</title><g id="Layer_2" data-name="Layer 2"><g id="Layer_1-2" data-name="Layer 1"><circle class="cls-1" cx="72.66" cy="72.66" r="72.66" transform="translate(-30.1 72.66) rotate(-45)"/><path class="cls-2" d="M120.35,57.17A26.15,26.15,0,0,1,87.54,24.36,1.08,1.08,0,0,0,86,23.1a26.15,26.15,0,1,0,31.32,41.29,26.35,26.35,0,0,0,4.3-5.67A1.08,1.08,0,0,0,120.35,57.17Z"/><path class="cls-3" d="M104.76,74.53A19.32,19.32,0,0,0,78.14,60.17a22.58,22.58,0,0,0-43.08,9.5,22,22,0,0,0,.38,4,22.58,22.58,0,1,0,21.87,39.48A22.56,22.56,0,0,0,94,110.94a19.32,19.32,0,1,0,10.74-36.41Z"/><path class="cls-4" d="M107.67,93.67a13.75,13.75,0,0,0-12.15-11,13.76,13.76,0,0,0-19-10.23,16.08,16.08,0,0,0-30.46,4.12,16.08,16.08,0,0,1,30.46-9.39,13.77,13.77,0,0,1,19,10.22A13.78,13.78,0,0,1,107.67,93.67Z"/><path class="cls-4" d="M52.8,105.13A7.61,7.61,0,0,1,59.51,99,7.59,7.59,0,0,1,70,93.37,8.89,8.89,0,0,1,86.8,95.65,8.89,8.89,0,0,0,70,90.46a7.6,7.6,0,0,0-10.46,5.65A7.61,7.61,0,0,0,52.8,105.13Z"/><path class="cls-2" d="M65.58,32.69a.43.43,0,0,0-.24-.73l-3.12-.46a.42.42,0,0,1-.33-.23l-1.4-2.83a.43.43,0,0,0-.77,0l-1.39,2.83a.44.44,0,0,1-.33.23L54.88,32a.43.43,0,0,0-.24.73L56.9,34.9a.41.41,0,0,1,.12.38l-.53,3.11a.43.43,0,0,0,.62.45l2.8-1.47a.47.47,0,0,1,.4,0l2.79,1.47a.43.43,0,0,0,.63-.45l-.54-3.11a.44.44,0,0,1,.13-.38Z"/><path class="cls-2" d="M32.47,52.12a.29.29,0,0,0-.15-.49l-2.07-.3a.31.31,0,0,1-.22-.15l-.92-1.88a.29.29,0,0,0-.51,0l-.93,1.88a.27.27,0,0,1-.21.15l-2.07.3a.29.29,0,0,0-.16.49l1.5,1.46a.26.26,0,0,1,.08.25l-.35,2.06a.28.28,0,0,0,.41.3l1.85-1a.26.26,0,0,1,.27,0l1.85,1a.28.28,0,0,0,.41-.3l-.35-2.06a.26.26,0,0,1,.08-.25Z"/><path class="cls-2" d="M44.29,36.52a.29.29,0,0,0-.16-.49l-2.07-.3a.27.27,0,0,1-.21-.15l-.93-1.88a.29.29,0,0,0-.51,0l-.92,1.88a.27.27,0,0,1-.22.15l-2.06.3a.29.29,0,0,0-.16.49L38.55,38a.32.32,0,0,1,.08.25l-.36,2.06a.29.29,0,0,0,.42.3l1.85-1a.24.24,0,0,1,.26,0l1.85,1a.28.28,0,0,0,.41-.3l-.35-2.06a.32.32,0,0,1,.08-.25Z"/><path class="cls-2" d="M104.53,31.49a.29.29,0,0,0-.15-.49l-2.07-.3a.31.31,0,0,1-.22-.15l-.92-1.88a.29.29,0,0,0-.51,0l-.93,1.88a.27.27,0,0,1-.21.15l-2.07.3a.29.29,0,0,0-.16.49L98.79,33a.26.26,0,0,1,.08.25l-.35,2.06a.28.28,0,0,0,.41.3l1.85-1a.26.26,0,0,1,.27,0l1.85,1a.28.28,0,0,0,.41-.3L103,33.2A.26.26,0,0,1,103,33Z"/><path class="cls-2" d="M107.6,45.77a.23.23,0,0,0-.13-.4l-1.7-.25a.24.24,0,0,1-.18-.13l-.76-1.54a.24.24,0,0,0-.42,0L103.65,45a.24.24,0,0,1-.18.13l-1.7.25a.23.23,0,0,0-.13.4l1.23,1.2a.23.23,0,0,1,.07.21l-.29,1.69a.24.24,0,0,0,.34.25l1.52-.8a.22.22,0,0,1,.22,0l1.52.8a.24.24,0,0,0,.34-.25l-.29-1.69a.23.23,0,0,1,.07-.21Z"/><path class="cls-2" d="M74.46,19.51a.23.23,0,0,0-.13-.4l-1.74-.26a.26.26,0,0,1-.18-.13l-.77-1.57a.24.24,0,0,0-.43,0l-.78,1.57a.24.24,0,0,1-.18.13l-1.74.26a.23.23,0,0,0-.13.4l1.26,1.23a.27.27,0,0,1,.07.21l-.3,1.73a.24.24,0,0,0,.35.26l1.55-.82a.22.22,0,0,1,.22,0l1.56.82a.24.24,0,0,0,.34-.26L73.14,21a.21.21,0,0,1,.07-.21Z"/></g></g></svg>