<svg xmlns="http://www.w3.org/2000/svg" viewBox="0 0 145.33 145.33"><defs><style>.cls-1{fill:#ffcd09;}.cls-2{fill:#40a348;}.cls-3{fill:#1f8e44;}</style></defs><title>Asset 4</title><g id="Layer_2" data-name="Layer 2"><g id="Layer_1-2" data-name="Layer 1"><circle class="cls-1" cx="72.66" cy="72.66" r="72.66"/><path class="cls-2" d="M126.29,81.36c-21.41-7.46-33,4.15-36.35,12.64a13.2,13.2,0,0,0,4.77,15.63c10.05,7,20.52.53,23.11-10.84,1.76-7.77,6.75-13.79,8.83-16A.86.86,0,0,0,126.29,81.36Z"/><path class="cls-2" d="M36.89,24.11c45,1.14,58.46,30.85,58.68,49A26.19,26.19,0,0,1,75.76,98.76c-23.6,6-38.5-13.39-35.34-36.33,2.16-15.66-2.9-30.34-5.18-35.95A1.72,1.72,0,0,1,36.89,24.11Z"/><path class="cls-3" d="M114.67,92.56a22.61,22.61,0,0,1-10.16,2c2.73-2.59,5.84-5.31,9.41-8.13A91.29,91.29,0,0,0,98,98.61c0-4.61,4.12-9.69,4.12-9.69-5.6,3.94-7.22,10.85-7.63,13.24A70,70,0,0,0,88.87,109a134.45,134.45,0,0,0-7.37-23.9c.91-4.72,2.74-18.71-4.9-29.94,0,0,4,12.3.86,20.88a181.57,181.57,0,0,0-21.11-33.9c4.66,7.75,8.54,15,11.79,21.69A45,45,0,0,1,50.62,53.07s8.7,10.18,19.65,15.27C79.23,88,82.54,103,83.56,113.18a3,3,0,0,0,3.27,2.67,1.52,1.52,0,0,0,1.48-.55A3,3,0,0,0,89.54,113,76.72,76.72,0,0,1,102.7,96.27,34,34,0,0,0,114.67,92.56Z"/><path class="cls-3" d="M51,117.31a9.57,9.57,0,0,1,1.53-3.74,9.23,9.23,0,0,0-10.37,4.71,1.13,1.13,0,1,1-2-1,11.46,11.46,0,0,1,14-5.54c3-2.85,7.69-4.06,11.76-4.13,3.46-4.62,14.45-7.83,19.67-.93a13.25,13.25,0,0,1,2.3,6,1.13,1.13,0,0,1-.93,1.31,1.14,1.14,0,0,1-1.31-.93,11.17,11.17,0,0,0-1.87-5c-2.54-3.35-8.53-4.8-14.75-.27l-.07.06a10.23,10.23,0,0,1,2.42.77c4.7,2.18,6.21,7.93,2.24,10.89-2.72,2-7.76,1.64-8.59-7a11.13,11.13,0,0,1,0-2.53,16,16,0,0,0-8.63,2.91c4.66,3,7.4,9.56,2.46,11.84C54.24,126.72,50.11,122.34,51,117.31Zm3.69-2.85a7.29,7.29,0,0,0-1.45,3.23c-.53,3.13,1.73,6.21,4.59,4.89C60.92,121.14,57.86,116.27,54.65,114.46Zm12.57-4.58a7.57,7.57,0,0,0,0,2.33c.6,6.26,3.3,6.7,5,5.45,2.65-2,1.15-5.64-1.84-7A8.88,8.88,0,0,0,67.22,109.88Z"/></g></g></svg>