<svg xmlns="http://www.w3.org/2000/svg" viewBox="0 0 145.33 145.33"><defs><style>.cls-1{fill:#f04c45;}.cls-2{fill:#d3ecea;}.cls-3{fill:#f5af1b;}.cls-4{fill:#444d5c;}.cls-5{fill:#94cdcf;}</style></defs><title>Asset 22</title><g id="Layer_2" data-name="Layer 2"><g id="Layer_1-2" data-name="Layer 1"><circle class="cls-1" cx="72.66" cy="72.66" r="72.66"/><path class="cls-2" d="M93.22,79.2H52.11A4.83,4.83,0,0,0,47.27,84v9.88c0,24.36,17.51,36.27,25.32,36.27h.15c7.81,0,25.32-11.91,25.32-36.27V84A4.84,4.84,0,0,0,93.22,79.2Z"/><rect class="cls-3" x="66.79" y="41.85" width="11.74" height="37.34"/><rect class="cls-4" x="66.79" y="61.43" width="11.74" height="17.76"/><path class="cls-4" d="M90.06,21.18H55.27a4.18,4.18,0,0,0-4.18,4.18h0a4.18,4.18,0,0,0,4.18,4.18h1.64v.07a15.76,15.76,0,1,0,31.51,0s0,0,0-.07h1.65a4.18,4.18,0,0,0,4.18-4.18h0A4.18,4.18,0,0,0,90.06,21.18Zm-7.17,8.43a10.23,10.23,0,1,1-20.45,0v-.07H82.89Z"/><polygon class="cls-5" points="66.79 79.19 72.31 109.91 78.53 79.19 66.79 79.19"/></g></g></svg>