<svg xmlns="http://www.w3.org/2000/svg" viewBox="0 0 145.33 145.33"><defs><style>.cls-1{fill:#c5dfdc;}.cls-2{fill:#3c9b46;}.cls-3{fill:#208140;}.cls-4{fill:#bc242c;}.cls-5{fill:#cd2f30;}.cls-6{fill:#f04c45;}</style></defs><title>Asset 12</title><g id="Layer_2" data-name="Layer 2"><g id="Layer_1-2" data-name="Layer 1"><circle class="cls-1" cx="72.66" cy="72.66" r="72.66" transform="translate(-30.1 72.66) rotate(-45)"/><path class="cls-2" d="M81.55,74.11a12.31,12.31,0,0,1-15.91-18.8c5.19-4.39,28.32-10.88,24.94-5C82.18,65,86.74,69.72,81.55,74.11Z"/><path class="cls-3" d="M81.64,54.62a73.61,73.61,0,0,0-9.19,6.26c-.94-1,.21-5.86.21-5.86-2.14,1.81-2,5.75-1.92,7.24-7.15,5.92-15.08,13.94-18.84,27l5.4.45s-2-6.9,10-21.17A25.73,25.73,0,0,0,80.51,62a18.44,18.44,0,0,1-10.65,3.63A124.74,124.74,0,0,1,81.64,54.62Z"/><path class="cls-2" d="M27.53,97.23a12.31,12.31,0,1,0,15.91-18.8c-5.19-4.39-28.31-10.88-24.94-5C26.9,88.15,22.34,92.84,27.53,97.23Z"/><path class="cls-3" d="M27.45,77.74A73.61,73.61,0,0,1,36.64,84c.94-1-.22-5.86-.22-5.86,2.14,1.81,2,5.75,1.93,7.24,7.14,5.92,15.08,13.94,18.84,27l-5.41.45s2-6.9-10-21.17a25.67,25.67,0,0,1-13.2-6.53,18.42,18.42,0,0,0,10.64,3.63A123.27,123.27,0,0,0,27.45,77.74Z"/><path class="cls-4" d="M115.73,92c0-7-2.92-12.69-6.53-12.69S102.66,85,102.66,92s2.93,12.68,6.54,12.68S115.73,99,115.73,92Z"/><path class="cls-5" d="M125.58,73.05a13.3,13.3,0,1,0-24.29,10.82c3,6.72,21.07,22.82,21.45,15.48C123.63,82.3,128.57,79.77,125.58,73.05Z"/><path class="cls-6" d="M92.49,73.05a13.3,13.3,0,1,1,24.29,10.82c-3,6.72-21.07,22.82-21.45,15.48C94.44,82.3,89.5,79.77,92.49,73.05Z"/><path class="cls-2" d="M127,71.88c-4.09-6.23-7.8-4.64-11.49-10.31A21.73,21.73,0,0,1,112,49.65v-.44c0-16.61-13.2-30.48-29.81-30.73A30.31,30.31,0,0,0,51.39,48.75v75.39a2.63,2.63,0,0,0,1.36,2.33A2.9,2.9,0,0,0,57.12,124V48.8c0-10.54,8.32-21.45,18.57-23.88a24.6,24.6,0,0,1,30.53,23.83v.56a22.38,22.38,0,0,1-3.56,12.26c-3.74,5.74-7.43,4-11.54,10.39a1,1,0,0,0,1,1.45c.91-.18,1.93-.4,2.63-.58a21,21,0,0,0,9.76-5.6,7.17,7.17,0,0,0,.47,4.52c.52,1.14,2.4,3.94,4.09,4.64,1.67-.69,5.57-4.77,4.56-9.16,3.91,3.93,7.82,5.27,12.38,6.14A1,1,0,0,0,127,71.88Z"/><path class="cls-3" d="M104.52,67.23a44.4,44.4,0,0,0,2.9-9.28A17.59,17.59,0,0,1,104.52,67.23Z"/><path class="cls-3" d="M113.69,67.23A44,44,0,0,1,110.8,58,17.62,17.62,0,0,0,113.69,67.23Z"/></g></g></svg>