<svg xmlns="http://www.w3.org/2000/svg" viewBox="0 0 145.33 145.33"><defs><style>.cls-1{fill:#41a3da;}.cls-2{fill:#444d5b;}.cls-3{fill:#ffcc04;}.cls-4{fill:#fff;}.cls-5{fill:#e5e8ec;}.cls-6{fill:#f59c1d;}</style></defs><title>Asset 9</title><g id="Layer_2" data-name="Layer 2"><g id="Layer_1-2" data-name="Layer 1"><circle class="cls-1" cx="72.66" cy="72.66" r="72.66"/><path class="cls-2" d="M91.52,18.17c-11,.5-16.23,15.8-16.23,15.8l2.76,2.65A22.7,22.7,0,0,1,91.64,18.68.27.27,0,0,0,91.52,18.17Z"/><path class="cls-2" d="M53.81,18.17C64.82,18.67,70,34,70,34l-2.76,2.65A22.72,22.72,0,0,0,53.69,18.68.27.27,0,0,1,53.81,18.17Z"/><path class="cls-2" d="M83.09,48.88l5.13-6.09s1.7-3,4.23-2.15c0,0,.74-1.48,3.26-.89a2.51,2.51,0,0,0,1-2.67s2.95.81.06,3.64a2.71,2.71,0,0,1-3,2.59s-1.11,3.35-5.08,2.16L83.09,54.6Z"/><path class="cls-2" d="M87,60.61l6.16-3.93a2,2,0,0,1,2.52,0s4.38-3.49,8.39.74c0,0,3.2,0,4.16,1.59,0,0,3.34-1.37,4.23,1.6,0,0-2.67-.52-3.71,0s-4.68,1.34-5.72-.89c0,0-4.08,1.54-7.49-.71,0,0-3.34,5.69-7.58,4.87S87,60.61,87,60.61Z"/><path class="cls-2" d="M89.85,68.71s7.83,3.41,8.93,5.27,1.75,3.67.38,5.25c0,0,3.68,5.51,4.13,8.56,0,0,4.23,3,3.78,6.68,0,0-2.82-3.86-5-4.38,0,0-5.57-5-5.35-8.91L91,76.72Z"/><path class="cls-2" d="M62.24,48.88l-5.13-6.09s-1.7-3-4.23-2.15c0,0-.74-1.48-3.27-.89a2.51,2.51,0,0,1-1-2.67s-2.95.81-.07,3.64a2.72,2.72,0,0,0,3,2.59s1.11,3.35,5.08,2.16l5.54,9.13Z"/><path class="cls-2" d="M58.3,60.61l-6.16-3.93a2,2,0,0,0-2.53,0s-4.38-3.49-8.39.74c0,0-3.19,0-4.15,1.59,0,0-3.34-1.37-4.23,1.6,0,0,2.67-.52,3.71,0s4.67,1.34,5.71-.89c0,0,4.09,1.54,7.5-.71,0,0,3.34,5.69,7.58,4.87S58.3,60.61,58.3,60.61Z"/><path class="cls-2" d="M55.48,68.71S47.65,72.12,46.55,74s-1.75,3.67-.38,5.25c0,0-3.68,5.51-4.13,8.56,0,0-4.23,3-3.78,6.68,0,0,2.82-3.86,5-4.38,0,0,5.57-5,5.34-8.91l5.72-4.46Z"/><path class="cls-3" d="M90,92.09c0,2.46-.15,4.86-.39,7.17-.19,1.92-.46,3.79-.79,5.58A57.71,57.71,0,0,1,87.05,112a41.87,41.87,0,0,1-2.19,5.58c-2.86,6-6.68,9.58-10.89,9.58s-8-3.63-10.89-9.58A41.88,41.88,0,0,1,60.9,112a57.71,57.71,0,0,1-1.75-7.16c-.33-1.79-.6-3.66-.79-5.58C58.12,97,58,94.55,58,92.09v-.85c0-1.6,0-3.18.13-4.73.15-2.47.41-4.87.77-7.16.3-1.95.68-3.81,1.12-5.58,2.74-11,8-18.44,14-18.44s11.26,7.43,14,18.44c.44,1.77.82,3.63,1.12,5.58.36,2.29.62,4.69.76,7.16C90,88.44,90,90.26,90,92.09Z"/><path class="cls-2" d="M87.05,112a41.87,41.87,0,0,1-2.19,5.58H63.08A41.88,41.88,0,0,1,60.9,112Z"/><path class="cls-2" d="M89.59,99.26c-.19,1.92-.46,3.79-.79,5.58H59.15c-.33-1.79-.6-3.66-.79-5.58Z"/><path class="cls-2" d="M90,92.09H58v-.85c0-1.6,0-3.18.13-4.73H89.85C90,88.44,90,90.26,90,92.09Z"/><path class="cls-2" d="M89.09,79.35H58.86c.3-1.95.68-3.81,1.12-5.58H88C88.41,75.54,88.79,77.4,89.09,79.35Z"/><path class="cls-4" d="M80.83,54.29s-1,11.49-5.23,18.17,9.48,29.66,16.78,32.61,10.87,2.18,9.32-5.9S85.11,51.8,85.11,51.8Z"/><path class="cls-5" d="M98.89,104.84a6.91,6.91,0,0,0-5.43-6,1.68,1.68,0,0,1-.86-.36,1.25,1.25,0,0,1-.1-1.44c.22-.43.53-.74.74-1.14a4.37,4.37,0,0,0,.28-2.29l-.24-4.27c-.11-2-.33-2.7-2.53-4.25a1.19,1.19,0,0,0-.79-.26c-.21.06-.21.26-.2.47a88.85,88.85,0,0,1,.16,10.19c-.07,1.67-.84,2.17-1.52,2a1.77,1.77,0,0,1-.73-.49c-.94-1-1.85-2-2.71-3-1.54-1.84-1.94-3-1.28-4.94.73-2.18,2.86-5.21,5-5.31a109,109,0,0,1-1.06-13.26c0-1.61-.13-3.13-1.12-4.07-.15.11-.22.36-.21.76A50.69,50.69,0,0,1,86,77.76a17.39,17.39,0,0,1-4.55,9.4c-.6.59-1,.57-1.32.42C79.89,86,79.63,84,79.42,82a9.35,9.35,0,0,1,0-3.45c.51-1.9,4.67-7.73,4.53-17.83h.29c.14,10.14-4,16-4.54,17.92a9.05,9.05,0,0,0,0,3.34c.2,1.8.42,3.63.66,5.44.23,0,.52-.09.85-.41a17.11,17.11,0,0,0,4.47-9.25A50.07,50.07,0,0,0,86,67.25c0-.78.23-1,.55-1.11,1.22,1.07,1.33,2.63,1.36,4.4a110.37,110.37,0,0,0,1.1,13.56c-2.32,0-4.37,2.94-5.1,5.11-.61,1.84-.28,2.86,1.24,4.66.85,1,1.75,2,2.69,2.95a1.27,1.27,0,0,0,.59.42c.48.12,1.1-.23,1.16-1.73a90.61,90.61,0,0,0-.15-10.16c0-.37,0-.68.41-.77a1.44,1.44,0,0,1,1,.3c2.27,1.6,2.53,2.36,2.65,4.47l.24,4.28a4.7,4.7,0,0,1-.31,2.43c-.21.4-.55.76-.74,1.14a1,1,0,0,0,0,1.11,1.55,1.55,0,0,0,.79.29A7.1,7.1,0,0,1,99,103.78c1.41-4.13.15-5.39-.6-6.69a18,18,0,0,1-1.78-5.63,26.92,26.92,0,0,0-1-3.95A26.31,26.31,0,0,0,93,82.66,23.05,23.05,0,0,1,90.11,77a17.82,17.82,0,0,1-.57-5.36c0-.22,0-.44,0-.65a13.93,13.93,0,0,0-.25-3.76,13.7,13.7,0,0,0-.75-2l-2.68-6.17.26-.11,2.69,6.16a14.36,14.36,0,0,1,.76,2A14.11,14.11,0,0,1,89.84,71c0,.22,0,.44,0,.65a17.54,17.54,0,0,0,.56,5.28,22.83,22.83,0,0,0,2.84,5.59,26.23,26.23,0,0,1,2.63,4.9,27.8,27.8,0,0,1,1,4,18,18,0,0,0,1.75,5.54C99.42,98.32,100.9,99.69,98.89,104.84Z"/><path class="cls-4" d="M65.56,54.29s1,11.49,5.23,18.17S61.31,102.12,54,105.07s-10.87,2.18-9.31-5.9S61.28,51.8,61.28,51.8Z"/><path class="cls-5" d="M47.5,104.84a6.92,6.92,0,0,1,5.43-6c1.16-.23,1.38-1,1-1.8-.57-1.13-1.16-.92-1-3.43.23-4,.17-5.36.61-6.34a5.94,5.94,0,0,1,2.16-2.18c.52-.37,1-.45,1,.21a88.85,88.85,0,0,0-.15,10.19c.07,1.67.83,2.17,1.51,2s3-3,3.44-3.46c1.55-1.84,1.94-3,1.28-4.94a10,10,0,0,0-2.49-4,4,4,0,0,0-2.54-1.33,111.06,111.06,0,0,0,1-13.26c0-1.61.14-3.13,1.12-4.07.15.11.22.36.21.76a50,50,0,0,0,.37,10.52A17.44,17.44,0,0,0,65,87.16c.6.59,1,.57,1.32.42C66.5,86,66.76,84,67,82c.32-3,0-3.59-1-5.54a34.24,34.24,0,0,1-3.62-15.74H62.1a34.44,34.44,0,0,0,3.66,15.88c1,2,1.24,2.51.93,5.38-.2,1.8-.42,3.63-.66,5.44-.23,0-.52-.09-.85-.41a17.11,17.11,0,0,1-4.47-9.25,50.07,50.07,0,0,1-.36-10.46c0-.78-.23-1-.55-1.11-1.22,1.07-1.33,2.63-1.36,4.4a108.44,108.44,0,0,1-1.1,13.56A3.53,3.53,0,0,1,60,85.34a9.82,9.82,0,0,1,2.43,3.87c.61,1.84.28,2.86-1.23,4.66-.35.42-2.76,3.24-3.29,3.37s-1.09-.23-1.16-1.73a88.3,88.3,0,0,1,.16-10.16c.06-.92-.72-1-1.45-.47a6.16,6.16,0,0,0-2.26,2.3c-.46,1-.4,2.37-.62,6.45-.15,2.62.47,2.44,1,3.57a1,1,0,0,1,0,1.11,1.51,1.51,0,0,1-.79.29,7.1,7.1,0,0,0-5.39,5.18,11.41,11.41,0,0,1-.59-3.11c-.09-1.79.38-2.17,1.19-3.58a18.33,18.33,0,0,0,1.79-5.63,26.88,26.88,0,0,1,1-3.95,26.92,26.92,0,0,1,2.6-4.85A23.05,23.05,0,0,0,56.28,77a17.82,17.82,0,0,0,.57-5.36,16.68,16.68,0,0,1,.24-4.41c.28-1.07.81-2.14,3.43-8.17L60.26,59c-2.63,6-3.16,7.11-3.45,8.21a16.44,16.44,0,0,0-.24,4.48A17.91,17.91,0,0,1,56,76.92a22.83,22.83,0,0,1-2.84,5.59,26.23,26.23,0,0,0-2.63,4.9,27.8,27.8,0,0,0-1,4,17.74,17.74,0,0,1-1.75,5.54c-.78,1.37-1.32,1.84-1.23,3.75A12.18,12.18,0,0,0,47.5,104.84Z"/><ellipse class="cls-6" cx="72.66" cy="49.63" rx="12.55" ry="17.6"/><path class="cls-2" d="M85.14,35.55c1.63,3,1,6.44-1.37,7.75s-5.63,0-7.26-3-1-6.44,1.37-7.74S83.51,32.58,85.14,35.55Z"/><path class="cls-2" d="M60,35.55c-1.63,3-1,6.44,1.37,7.75s5.63,0,7.26-3,1-6.44-1.37-7.74S61.67,32.58,60,35.55Z"/></g></g></svg>