<svg xmlns="http://www.w3.org/2000/svg" viewBox="0 0 145.33 145.33"><defs><style>.cls-1{fill:#c5dfdc;}.cls-2{fill:#3c9b46;}.cls-3{fill:#ffcd05;}.cls-4{fill:#f5af1b;}.cls-5{fill:#208140;}</style></defs><title>Asset 3</title><g id="Layer_2" data-name="Layer 2"><g id="Layer_1-2" data-name="Layer 1"><circle class="cls-1" cx="72.66" cy="72.66" r="72.66"/><path class="cls-2" d="M72.94,103.72S93.42,72,126.54,68.26a.5.5,0,0,1,.33.93c-7.85,3.7-31,17.25-54.21,56.16Z"/><path class="cls-2" d="M72.88,82S88.3,58,113.26,55.24a.37.37,0,0,1,.24.7c-5.91,2.79-23.37,13-40.84,42.31Z"/><path class="cls-2" d="M72.38,103.72S51.91,72,18.79,68.26a.5.5,0,0,0-.33.93c7.85,3.7,31,17.25,54.2,56.16Z"/><path class="cls-2" d="M72.45,82S57,58,32.07,55.24a.37.37,0,0,0-.24.7c5.91,2.79,23.37,13,40.83,42.31Z"/><path class="cls-2" d="M74.9,66.87A1.13,1.13,0,0,0,73.78,68l-2.22-.09v0a1.13,1.13,0,0,0-2.26,0c0,59.65-.43,56.56,1,58A3.37,3.37,0,0,0,76,123.4V68A1.13,1.13,0,0,0,74.9,66.87Z"/><path class="cls-3" d="M72.66,18.55a8.61,8.61,0,0,0-8.6,8.6V60.69a8.6,8.6,0,0,0,17.2,0V27.15A8.61,8.61,0,0,0,72.66,18.55Z"/><path class="cls-4" d="M76,36.49a1.13,1.13,0,0,1-1.13-1.13V28.13a1.13,1.13,0,1,1,2.26,0v7.23A1.12,1.12,0,0,1,76,36.49Z"/><path class="cls-4" d="M74.88,59a1.14,1.14,0,0,1-1.13-1.13V50.65a1.13,1.13,0,0,1,2.26,0v7.24A1.13,1.13,0,0,1,74.88,59Z"/><path class="cls-4" d="M69.3,47.35a1.13,1.13,0,0,1-1.13-1.13V39a1.13,1.13,0,1,1,2.26,0v7.24A1.14,1.14,0,0,1,69.3,47.35Z"/><path class="cls-5" d="M79.29,80.16a3.38,3.38,0,0,1,2.17-3A3.34,3.34,0,0,1,79.29,80.16Z"/><path class="cls-5" d="M86.81,73.59A6.16,6.16,0,0,1,90,69.29,7.38,7.38,0,0,1,86.81,73.59Z"/><path class="cls-5" d="M96,65.41a2.61,2.61,0,0,1,1.88-2.62A2.6,2.6,0,0,1,96,65.41Z"/><path class="cls-5" d="M65.93,80.16a3.36,3.36,0,0,0-2.16-3A3.35,3.35,0,0,0,65.93,80.16Z"/><path class="cls-5" d="M58.42,73.59a6.16,6.16,0,0,0-3.19-4.3A7.34,7.34,0,0,0,58.42,73.59Z"/><path class="cls-5" d="M49.19,65.41a2.6,2.6,0,0,0-1.88-2.62A2.61,2.61,0,0,0,49.19,65.41Z"/><path class="cls-5" d="M110.21,77.15a2.61,2.61,0,0,1,1.88-2.62A2.6,2.6,0,0,1,110.21,77.15Z"/><path class="cls-5" d="M101.82,82.79a2.61,2.61,0,0,1,1.88-2.63A2.62,2.62,0,0,1,101.82,82.79Z"/><path class="cls-5" d="M94.13,91.64A2.63,2.63,0,0,1,96,89,2.6,2.6,0,0,1,94.13,91.64Z"/><path class="cls-5" d="M87.46,93a2.62,2.62,0,0,1,1.88-2.62A2.6,2.6,0,0,1,87.46,93Z"/><path class="cls-5" d="M80.32,102.54a2.23,2.23,0,0,1,0-.59,2.63,2.63,0,0,1,1.85-2A2.59,2.59,0,0,1,80.32,102.54Z"/><path class="cls-5" d="M75.76,111.92a2.6,2.6,0,0,1,.55-3.18A2.63,2.63,0,0,1,75.76,111.92Z"/><path class="cls-5" d="M72.39,98.4a2.63,2.63,0,0,1,.55-3.19A2.64,2.64,0,0,1,72.39,98.4Z"/><path class="cls-5" d="M73.48,85.69A2.61,2.61,0,0,1,74,82.51,2.62,2.62,0,0,1,73.48,85.69Z"/><path class="cls-5" d="M71.79,76.12a2.6,2.6,0,0,1,.56-3.18A2.61,2.61,0,0,1,71.79,76.12Z"/><path class="cls-5" d="M71.79,119.26a2.61,2.61,0,0,1,.56-3.18A2.61,2.61,0,0,1,71.79,119.26Z"/><path class="cls-5" d="M67.76,110.33a2.44,2.44,0,0,1-1.37-1,2.47,2.47,0,0,1-.44-1.65A2.6,2.6,0,0,1,67.76,110.33Z"/><path class="cls-5" d="M87.46,99.92a2.63,2.63,0,0,1,1.88-2.63A2.61,2.61,0,0,1,87.46,99.92Z"/><path class="cls-5" d="M95.08,85.41A2.61,2.61,0,0,1,97,82.79,2.6,2.6,0,0,1,95.08,85.41Z"/><path class="cls-5" d="M35.76,77.15a2.6,2.6,0,0,0-1.88-2.62A2.6,2.6,0,0,0,35.76,77.15Z"/><path class="cls-5" d="M44.15,82.79a2.6,2.6,0,0,0-1.88-2.63A2.63,2.63,0,0,0,44.15,82.79Z"/><path class="cls-5" d="M51.84,91.64A2.62,2.62,0,0,0,50,89,2.62,2.62,0,0,0,51.84,91.64Z"/><path class="cls-5" d="M58.51,93a2.59,2.59,0,0,0-1.88-2.62A2.63,2.63,0,0,0,58.51,93Z"/><path class="cls-5" d="M65.65,102.54a2.6,2.6,0,0,0-1.88-2.62A2.6,2.6,0,0,0,65.65,102.54Z"/><path class="cls-5" d="M58.51,99.92a2.61,2.61,0,0,0-1.88-2.63A2.62,2.62,0,0,0,58.51,99.92Z"/><path class="cls-5" d="M50.89,85.41A2.6,2.6,0,0,0,49,82.79,2.61,2.61,0,0,0,50.89,85.41Z"/></g></g></svg>