<svg xmlns="http://www.w3.org/2000/svg" viewBox="0 0 145.33 145.33"><defs><style>.cls-1{fill:#fcce0b;}.cls-2{fill:#3c9b46;}.cls-3{fill:#208140;}</style></defs><title>Asset 13</title><g id="Layer_2" data-name="Layer 2"><g id="Layer_1-2" data-name="Layer 1"><circle class="cls-1" cx="72.66" cy="72.66" r="72.66" transform="translate(-30.1 72.66) rotate(-45)"/><path class="cls-2" d="M103.05,68.26c6.83.95,13.76-.45,18.61-5.37,4.16-4.23,5.88-10.26,4.84-17a1.14,1.14,0,0,0-1-.95c-7.55-1.05-14.16.86-18.61,5.37-4.16,4.23-5.88,10.26-4.84,17A1.15,1.15,0,0,0,103.05,68.26Z"/><path class="cls-2" d="M102.4,77.56a1.15,1.15,0,0,0-1,1c-1,6.42.69,12.21,4.73,16.31,5,5,12.38,6.51,19.38,5.53a1.14,1.14,0,0,0,1-1c1-6.42-.68-12.22-4.72-16.32C117.25,78.49,110.18,76.48,102.4,77.56Z"/><path class="cls-2" d="M19.85,44.53a1.15,1.15,0,0,0-1,.93c-1.18,6.83.48,12.93,4.67,17.19,5.27,5.35,13.3,6.68,20.8,5.49a1.12,1.12,0,0,0,.94-.93c1.18-6.83-.47-12.93-4.66-17.18C35.89,45.19,28.3,43.19,19.85,44.53Z"/><path class="cls-3" d="M37.39,59.78c.19-1.85.2-6.2-3.23-8.79a1.14,1.14,0,1,0-1.37,1.81A6.76,6.76,0,0,1,35.17,58l-3.71-2.94a1.14,1.14,0,0,0-1.41,1.78l5.1,4a1.21,1.21,0,0,0,.24.35c-2-.37-4-.93-4.86-1.67A1.14,1.14,0,0,0,29,61.28c2.44,2.14,9.21,2.64,10,2.69h0l12.08,9.58a1.09,1.09,0,0,0,.7.25,1.13,1.13,0,0,0,.89-.43,1.14,1.14,0,0,0-.18-1.6Z"/><path class="cls-3" d="M121.72,90.41c-2.15-2.38-5.78-2.76-7-2.82L96,72.73l13-10h0l4.7-4a11.34,11.34,0,0,0,2.56.31A6.16,6.16,0,0,0,121,57.22a1.14,1.14,0,1,0-1.71-1.5A4.08,4.08,0,0,1,116,56.84l1.5-1.27A1.13,1.13,0,1,0,116,53.84l-5.79,4.88a11.15,11.15,0,0,1,1.58-3.3A1.13,1.13,0,1,0,110.05,54c-1.64,2-2.58,6-2.85,7.27L93.72,71.6a1.13,1.13,0,0,0-.54.35,1.14,1.14,0,0,0,.18,1.6l15.33,12.16c.08,1.29.44,5.54,1.65,7.49A1.13,1.13,0,0,0,112.27,92a13.16,13.16,0,0,1-1.11-4.33l2.43,1.92a1.33,1.33,0,0,0,.72.25c.07,0,3.88,0,5.73,2.08a1.13,1.13,0,1,0,1.68-1.52Z"/><path class="cls-2" d="M93.46,75.84C89.34,95.08,89.67,126,89.67,126H55.28s.33-30.94-3.78-50.19c-.24-1.1-.49-2.15-.75-3.18q.31-1.22.6-2.52C55.61,51,55.28,19.3,55.28,19.3H89.67S89.34,51,93.6,70.14c.2.87.39,1.71.61,2.52Q93.82,74.19,93.46,75.84Z"/><path class="cls-3" d="M94.21,72.66q-.39,1.53-.75,3.18h-42c-.24-1.1-.49-2.15-.75-3.18q.31-1.22.6-2.52H93.6C93.8,71,94,71.85,94.21,72.66Z"/><path class="cls-3" d="M86.25,22.56c.14,2.87.54,11.18.68,14a116.53,116.53,0,0,0,1,12.38,10,10,0,0,1,.14,3.89c-1.41-5.11-1.73-6-1.7-7.32a11.3,11.3,0,0,0,.09-2.9c-.15-.65-.53-1.24-.68-1.89a8.72,8.72,0,0,1,.32-3.23,30.15,30.15,0,0,0-.67-9,9,9,0,0,1-.68-3.32c.13-1.28,1-2.42,1-3.7a1.36,1.36,0,0,1,.41,1.75"/><path class="cls-3" d="M62.22,24.1c-.86,17.66-.94,21.36-1.72,26.36a9.83,9.83,0,0,0-.14,3.89c1.41-5.11,1.73-6,1.69-7.32a11.77,11.77,0,0,1-.08-2.9c.15-.65.53-1.23.68-1.89A8.72,8.72,0,0,0,62.33,39,30.06,30.06,0,0,1,63,30a8.84,8.84,0,0,0,.67-3.33c-.12-1.27-1-2.41-1-3.7a1.36,1.36,0,0,0-.41,1.75"/><path class="cls-3" d="M69.76,25l2.43,13.46a8.21,8.21,0,0,1,0,4c-.32,1-1,2-1.37,3-.91,2.7.85,5.52-.19,8.21-.41,1-1.23,2-1.75,3.1-2.57,5.16,2.65,10.64.82,15.89-5-15.28-2-15.37-.59-26.1.88-6.5-.36-13-1.41-19.51-.25-1.56-.42-3.28,1.38-4.55l1.92,2.3"/><path class="cls-3" d="M60.29,80.16q-.16,3.14-.31,6.25c-.12,2.58-.25,5.16-.37,7.74a118.81,118.81,0,0,1-1,12.37,10.08,10.08,0,0,0-.14,3.9c1.41-5.11,1.73-6,1.7-7.33A11.24,11.24,0,0,1,60,100.2c.15-.66.54-1.24.69-1.89a8.71,8.71,0,0,0-.33-3.23,15.5,15.5,0,0,1-.07-3,26.09,26.09,0,0,1,.74-6,9,9,0,0,0,.68-3.32c-.13-1.28-1-2.42-1-3.7a1.36,1.36,0,0,0-.41,1.75"/><path class="cls-3" d="M67.82,75.62,70.25,89a8,8,0,0,1,.06,3.94c-.32,1-1,2-1.38,3-.91,2.69.86,5.48-.18,8.15-.41,1-1.24,2-1.76,3.08-2.57,5.13,2.65,10.57.82,15.78-1.42-4.31-2.85-8.65-2.78-13s1.6-8.59,2.19-12.9c.88-6.45-.35-12.92-1.4-19.36-.26-1.56-.42-3.26,1.38-4.53l1.92,2.29"/><path class="cls-3" d="M78.24,76.46c-1.72,2.21.63,5.46.69,7.91,0,1.24-.4,2.45-.43,3.7,0,2.19,1.19,4.26,1,6.45-.13,1.66-1.06,3.15-1.15,4.81s.76,3.44,1.12,5.19c.65,3.1-.34,6.33-.18,9.52s1.53,6.62.63,9.76c-1.93-21.42-1.86-21.86-2.53-23.94a7.92,7.92,0,0,1-.61-2.47c0-1.25.82-2.3,1.09-3.51s.17-1.14-1.28-15.69A5,5,0,0,1,76.7,76c.23-.69.87-1.27,1.51-1.12.05.73.09,1.45.13,2.17"/><path class="cls-3" d="M76.63,25.4c1.56,47.22-.64,34.32-1.56,41.77-.24,1.94.68,4.33,2.42,4.49a5.48,5.48,0,0,0,2.73-.19,2.38,2.38,0,0,0,1.46-2.37,198.66,198.66,0,0,1-1.75-30.26c.11-5.68.42-11.6-1.61-16.8-.55-.48-1.4,0-1.66.74a4.35,4.35,0,0,0,0,2.29"/></g></g></svg>