<svg xmlns="http://www.w3.org/2000/svg" viewBox="0 0 145.33 145.33"><defs><style>.cls-1{fill:#fdce0a;}.cls-2{fill:#40a348;}.cls-3{fill:#1f8e44;}.cls-4{fill:#f06097;}.cls-5{fill:#e3227e;}.cls-6{fill:#ee3b87;}.cls-7{fill:#fff;}.cls-8{fill:#e5e8ec;}</style></defs><title>Asset 20</title><g id="Layer_2" data-name="Layer 2"><g id="Layer_1-2" data-name="Layer 1"><circle class="cls-1" cx="72.66" cy="72.66" r="72.66"/><path class="cls-2" d="M34.38,100.31c17-12.94,30.77-6,36.22.69a12.43,12.43,0,0,1,.31,15.38c-6.94,9.23-18.22,6.47-23.86-2.95C43.2,107,37,103.07,34.47,101.68A.81.81,0,0,1,34.38,100.31Z"/><path class="cls-3" d="M57.71,105.71c-3.2-1.52-6.78-3-10.8-4.52a86.1,86.1,0,0,1,17.87,6.27c-1.38-4.11-6.52-7.47-6.52-7.47,6.16,1.89,9.64,7.6,10.7,9.62,2,1.09,9.54,5,11.78,7.28l.54,5.87c-3.22-5.62-13.74-12.13-21.44-16a32.08,32.08,0,0,1-11.79.18A21.3,21.3,0,0,0,57.71,105.71Z"/><path class="cls-3" d="M105.81,88.45l-.26-.74S89.19,92.39,83.3,105.06C80.85,93,74.68,78,59.62,67.87c0,0,25.79,23,18.76,53a3.27,3.27,0,1,0,6.45.8,75.33,75.33,0,0,0-.5-10.14C86,105.13,90.91,94.11,105.81,88.45Z"/><path class="cls-4" d="M67.89,24a7.39,7.39,0,0,0-12.63,0,7.2,7.2,0,0,0-8.67,6.92c0,2.64,3,13.19,7.65,19.27a1,1,0,0,0,1.44.2c.43-.32,2.12-2.61,1.84-3.05l9.17.57c.13.21,7.28-9.34,7.54-9.26a1,1,0,0,0,1.27-.71,33.81,33.81,0,0,0,1.06-7A7.2,7.2,0,0,0,67.89,24Z"/><path class="cls-5" d="M88.37,64.36c-1.71-1.79-10.47-7-17.88-8.47a1,1,0,0,0-1.21.81,1,1,0,0,0,.56,1.11l-5.27,5.71a19,19,0,0,0-3.68.53c-.53.21-.14,9.76.07,10.28,1.74,4.34,4.15,8.42,5.39,9.72a7.4,7.4,0,0,0,11.18-.61,7.41,7.41,0,0,0,7.14-1.52,6.89,6.89,0,0,0,2.18-6.76A6.93,6.93,0,0,0,88.37,64.36Z"/><path class="cls-4" d="M63.5,63h0a1,1,0,0,0-1,.93L54,60.24C54,60,41.4,61.5,41.3,61.31a1,1,0,0,0-1.4-.41,26.22,26.22,0,0,0-5.12,3.46,6.92,6.92,0,0,0,1.52,10.8c-1.25,5.33,4,10,9.32,8.28a7.41,7.41,0,0,0,11.18.61c2-2,7.79-12.39,7.73-20A1,1,0,0,0,63.5,63Z"/><path class="cls-6" d="M93.91,57.11a7.08,7.08,0,0,1-3.88,4,23.58,23.58,0,0,1-4.65,1.09,49.85,49.85,0,0,0-14.89-6.27,1,1,0,0,0-.52,0s0,0,0-.05l-3.57-7.93a1,1,0,0,1-1.62-1.24c4-5.78,11-11.31,13.24-12.26a7.32,7.32,0,0,1,10,4.92A7,7,0,0,1,93.09,50.6,6.78,6.78,0,0,1,93.91,57.11Z"/><path class="cls-6" d="M54.71,61.74a30.2,30.2,0,0,1-8.63,1.09c-5.74,0-11.31-1.07-12.95-1.76A7,7,0,0,1,30.06,50.6a7,7,0,0,1,5.11-11.24,7.3,7.3,0,0,1,10-4.92,13,13,0,0,1,2.45,1.5c1.27,4.34,3.63,10.25,6.64,14.24a1,1,0,0,0,.49.35l-.57,9.23a1,1,0,0,1,.55,2Z"/><path class="cls-5" d="M65.75,51.07s7.87-4.87,15.44-6.75C81.19,44.32,66.35,51.07,65.75,51.07Z"/><path class="cls-5" d="M66.89,53.41s9-2.29,16.75-1.81C83.64,51.6,67.46,53.59,66.89,53.41Z"/><path class="cls-6" d="M64.94,58.9s8,4.72,13.11,10.57C78.05,69.47,65.21,59.43,64.94,58.9Z"/><path class="cls-6" d="M63.39,61s6.18,6.89,9.35,14C72.74,75,63.49,61.58,63.39,61Z"/><path class="cls-6" d="M59.66,62.54s-4.73,7.95-10.58,13.12C49.08,75.66,59.12,62.81,59.66,62.54Z"/><path class="cls-6" d="M57.56,61s-6.89,6.18-14,9.35C43.55,70.34,57,61.1,57.56,61Z"/><path class="cls-5" d="M53.65,56.77s-9.1-1.65-16-5.32C37.67,51.45,53.21,56.37,53.65,56.77Z"/><path class="cls-5" d="M54.37,54.27S46.17,50,40.71,44.4C40.71,44.4,54.06,53.75,54.37,54.27Z"/><path class="cls-6" d="M60.49,50.59s-3.07-8.74-3.27-16.53C57.22,34.06,60.62,50,60.49,50.59Z"/><path class="cls-6" d="M63,50s-.31-9.25,1.83-16.74C64.85,33.23,63.32,49.45,63,50Z"/><path class="cls-7" d="M61.58,45.6a9.74,9.74,0,1,0,9.74,9.74A9.75,9.75,0,0,0,61.58,45.6Z"/><path class="cls-8" d="M60.05,48.91a1,1,0,1,1-1-1A1,1,0,0,1,60.05,48.91Z"/><path class="cls-8" d="M65.07,48.91a1,1,0,1,1-1-1A1,1,0,0,1,65.07,48.91Z"/><path class="cls-8" d="M60.05,55.34a1,1,0,1,1-1-1A1,1,0,0,1,60.05,55.34Z"/><circle class="cls-8" cx="64.08" cy="55.34" r="0.98"/><path class="cls-8" d="M60.05,61.76a1,1,0,1,1-1-1A1,1,0,0,1,60.05,61.76Z"/><path class="cls-8" d="M65.07,61.76a1,1,0,1,1-1-1A1,1,0,0,1,65.07,61.76Z"/><path class="cls-8" d="M57.14,52.12a1,1,0,1,1-1-1A1,1,0,0,1,57.14,52.12Z"/><path class="cls-8" d="M62.56,52.12a1,1,0,1,1-1-1A1,1,0,0,1,62.56,52.12Z"/><path class="cls-8" d="M68,52.12a1,1,0,1,1-1-1A1,1,0,0,1,68,52.12Z"/><path class="cls-8" d="M57.14,58.55a1,1,0,1,1-1-1A1,1,0,0,1,57.14,58.55Z"/><path class="cls-8" d="M62.56,58.55a1,1,0,1,1-1-1A1,1,0,0,1,62.56,58.55Z"/><path class="cls-8" d="M68,58.55a1,1,0,1,1-1-1A1,1,0,0,1,68,58.55Z"/><path class="cls-4" d="M116,63A4.72,4.72,0,0,0,108,63a4.61,4.61,0,0,0-5.55,4.42c0,1.69,1.95,8.43,4.9,12.31a.64.64,0,0,0,.52.26.66.66,0,0,0,.4-.13c.27-.21,1.35-1.66,1.17-2l5.86.36c.08.14,4.65-6,4.81-5.91a.67.67,0,0,0,.82-.45,21.85,21.85,0,0,0,.68-4.49A4.61,4.61,0,0,0,116,63Z"/><path class="cls-5" d="M129.1,88.8c-1.09-1.14-6.69-4.46-11.43-5.41a.65.65,0,0,0-.41,1.23l-3.37,3.64a13.87,13.87,0,0,0-2.35.34c-.34.14-.09,6.24,0,6.58a24.69,24.69,0,0,0,3.44,6.2,4.72,4.72,0,0,0,7.14-.39,4.59,4.59,0,0,0,6-5.29A4.43,4.43,0,0,0,129.1,88.8Z"/><path class="cls-4" d="M113.21,88h0a.64.64,0,0,0-.64.59l-5.46-2.37c0-.12-8,.8-8.08.68a.66.66,0,0,0-.9-.25,16.58,16.58,0,0,0-3.27,2.2,4.43,4.43,0,0,0,1,6.9A4.41,4.41,0,0,0,97.22,100a4.74,4.74,0,0,0,4.57,1,4.72,4.72,0,0,0,7.14.39c1.24-1.3,5-7.91,4.94-12.78A.66.66,0,0,0,113.21,88Z"/><path class="cls-6" d="M130.16,86.7a15.54,15.54,0,0,1-3,.7,32,32,0,0,0-9.51-4,.72.72,0,0,0-.33,0s0,0,0,0L115,78.32a.66.66,0,0,1-.86.11.65.65,0,0,1-.17-.91c2.58-3.69,7-7.22,8.46-7.83a4.67,4.67,0,0,1,6.38,3.14,4.62,4.62,0,0,1,3.78,2.68,4.34,4.34,0,0,1-.52,4.5A4.44,4.44,0,0,1,130.16,86.7Z"/><path class="cls-6" d="M107.59,87.13a19,19,0,0,1-5.51.7,28,28,0,0,1-8.27-1.13,4.44,4.44,0,0,1-2-6.69,4.5,4.5,0,0,1,3.26-7.18c.61-2.71,4-5,7.94-2.18a30.38,30.38,0,0,0,4.25,9.09.64.64,0,0,0,.31.23l-.37,5.9a.66.66,0,0,1,.79.44A.67.67,0,0,1,107.59,87.13Z"/><path class="cls-5" d="M114.65,80.31A40.8,40.8,0,0,1,124.51,76S115,80.31,114.65,80.31Z"/><path class="cls-5" d="M115.38,81.81a40.6,40.6,0,0,1,10.7-1.16S115.74,81.92,115.38,81.81Z"/><path class="cls-6" d="M114.13,85.31a40.85,40.85,0,0,1,8.38,6.76S114.3,85.65,114.13,85.31Z"/><path class="cls-6" d="M113.14,86.65a40.45,40.45,0,0,1,6,9S113.21,87,113.14,86.65Z"/><path class="cls-6" d="M110.75,87.64A41,41,0,0,1,104,96S110.41,87.82,110.75,87.64Z"/><path class="cls-6" d="M109.42,86.65a40.74,40.74,0,0,1-9,6S109,86.72,109.42,86.65Z"/><path class="cls-5" d="M106.92,84a40.65,40.65,0,0,1-10.21-3.4S106.63,83.7,106.92,84Z"/><path class="cls-5" d="M107.38,82.36a40.81,40.81,0,0,1-8.73-6.31S107.18,82,107.38,82.36Z"/><path class="cls-6" d="M111.29,80a40.83,40.83,0,0,1-2.09-10.56S111.37,79.63,111.29,80Z"/><path class="cls-6" d="M112.9,79.61a40.73,40.73,0,0,1,1.17-10.7S113.09,79.28,112.9,79.61Z"/><path class="cls-7" d="M112,76.81A6.23,6.23,0,1,0,118.2,83,6.22,6.22,0,0,0,112,76.81Z"/><path class="cls-8" d="M111,78.93a.63.63,0,1,1-.63-.63A.63.63,0,0,1,111,78.93Z"/><path class="cls-8" d="M114.21,78.93a.63.63,0,0,1-.63.63.63.63,0,1,1,0-1.26A.63.63,0,0,1,114.21,78.93Z"/><path class="cls-8" d="M111,83a.63.63,0,0,1-1.26,0A.63.63,0,0,1,111,83Z"/><path class="cls-8" d="M114.21,83a.63.63,0,0,1-.63.63A.64.64,0,0,1,113,83a.63.63,0,0,1,.63-.63A.63.63,0,0,1,114.21,83Z"/><path class="cls-8" d="M111,87.14a.63.63,0,1,1-.63-.62A.63.63,0,0,1,111,87.14Z"/><path class="cls-8" d="M114.21,87.14a.63.63,0,0,1-.63.63.63.63,0,1,1,0-1.25A.63.63,0,0,1,114.21,87.14Z"/><path class="cls-8" d="M109.15,81a.63.63,0,1,1-.63-.62A.63.63,0,0,1,109.15,81Z"/><path class="cls-8" d="M112.61,81a.63.63,0,1,1-.63-.62A.63.63,0,0,1,112.61,81Z"/><path class="cls-8" d="M116.07,81a.63.63,0,1,1-.63-.62A.63.63,0,0,1,116.07,81Z"/><path class="cls-8" d="M109.15,85.09a.63.63,0,1,1-.63-.63A.63.63,0,0,1,109.15,85.09Z"/><path class="cls-8" d="M112.61,85.09a.63.63,0,1,1-.63-.63A.63.63,0,0,1,112.61,85.09Z"/><path class="cls-8" d="M116.07,85.09a.63.63,0,1,1-.63-.63A.63.63,0,0,1,116.07,85.09Z"/></g></g></svg>