<svg xmlns="http://www.w3.org/2000/svg" viewBox="0 0 145.33 145.33"><defs><style>.cls-1{fill:#c6dfdc;}.cls-2{fill:#52ba5a;}.cls-3{fill:#99c23e;}.cls-4{fill:#3c9c46;}.cls-5{fill:#1c8040;}.cls-6{fill:#f45d5d;}.cls-7{fill:#ef4c45;}.cls-8{fill:#535e6f;}</style></defs><title>Asset 18</title><g id="Layer_2" data-name="Layer 2"><g id="Layer_1-2" data-name="Layer 1"><circle class="cls-1" cx="72.66" cy="72.66" r="72.66"/><path class="cls-2" d="M116.72,97h0a1.63,1.63,0,0,0-1.61-1.08c-1,0-1.9,0-2.83.12a0,0,0,0,1,0,0c.75-.35,1.53-.68,2.32-1a.81.81,0,0,0,.33-1.39h0a2,2,0,0,0-2.06-.46c-.86.37-1.7.77-2.5,1.18-.08,0-.16,0-.24-.09.55-.45,1.13-.9,1.72-1.33s.45-1-.2-1.45h0a1.94,1.94,0,0,0-2.13,0q-1.32,1.06-2.52,2.22l-.81,0c.44-.44.89-.86,1.35-1.29s.34-1.07-.34-1.42h0a2,2,0,0,0-2.09.21c-.8.8-1.56,1.63-2.26,2.47-.27,0-.54,0-.81,0,.39-.48.79-1,1.2-1.42s.23-1.09-.48-1.37h0a1.92,1.92,0,0,0-2.06.42c-.71.87-1.37,1.77-2,2.68l-.8.11q.51-.76,1-1.53c.37-.51.11-1.12-.62-1.32h0a1.9,1.9,0,0,0-2,.63c-.62.94-1.19,1.9-1.71,2.86l-.77.2c.28-.55.57-1.09.88-1.63s0-1.12-.75-1.25h0a1.9,1.9,0,0,0-1.92.82c-.51,1-1,2-1.4,3l-.75.28c.22-.58.46-1.14.71-1.71s-.11-1.12-.87-1.17h0a1.91,1.91,0,0,0-1.83,1c-.41,1-.77,2.1-1.09,3.15l-.73.35c.17-.59.35-1.18.55-1.78s-.23-1.1-1-1.07h0A1.91,1.91,0,0,0,84,96.12c-.31,1.09-.57,2.17-.78,3.26l-.69.42c.11-.61.23-1.22.37-1.83s-.34-1.07-1.1-1a2,2,0,0,0-1.6,1.37q-.3,1.68-.45,3.33l-.65.49c0-.62.11-1.24.19-1.86s-.45-1-1.19-.85A2,2,0,0,0,76.58,101c-.09,1.13-.13,2.26-.13,3.37l-.6.56c0-.62,0-1.24,0-1.88s-.55-1-1.28-.71a2,2,0,0,0-1.31,1.69c0,1.15.09,2.28.2,3.39-.28.32-.56.65-.83,1,0,2.63.34,4.07,2.1,4.56a4.82,4.82,0,0,0,3.23-.34,3.28,3.28,0,0,0,.86-.47c1,.07,2,.19,3,.35a1.19,1.19,0,0,0,1.31-.84,1,1,0,0,0-.69-1.25c-.55-.12-1.11-.22-1.68-.31l.5-.47c1,.18,2,.41,3,.68a1.17,1.17,0,0,0,1.37-.68,1,1,0,0,0-.55-1.32c-.54-.18-1.08-.34-1.63-.49l.53-.41c1,.29,1.94.62,2.86,1a1.17,1.17,0,0,0,1.42-.53,1,1,0,0,0-.42-1.37q-.77-.34-1.56-.66l.57-.35q.72.3,1.41.63a4.65,4.65,0,0,0,2.78.27h0a1,1,0,0,0-.28-1.4c-.48-.28-1-.55-1.48-.81l.59-.29q1.35.74,2.58,1.56a1.13,1.13,0,0,0,1.49-.23h0a1,1,0,0,0-.14-1.42c-.45-.33-.91-.65-1.39-1l.62-.22c.84.57,1.64,1.18,2.41,1.81a1.13,1.13,0,0,0,1.5-.08h0a1,1,0,0,0,0-1.43c-.42-.38-.85-.74-1.29-1.1l.64-.16c.78.66,1.52,1.34,2.21,2a1.14,1.14,0,0,0,1.51.06h0a1,1,0,0,0,.15-1.43c-.38-.41-.77-.82-1.17-1.22.22,0,.43-.07.65-.09.71.73,1.38,1.48,2,2.25a1.14,1.14,0,0,0,1.5.23h0a1,1,0,0,0,.29-1.4c-.33-.45-.68-.9-1-1.34l.66,0c.63.81,1.22,1.62,1.77,2.45a1.15,1.15,0,0,0,1.47.38h0a1,1,0,0,0,.44-1.36c-.29-.49-.59-1-.91-1.44l.67,0c.55.86,1.05,1.73,1.52,2.62a1.19,1.19,0,0,0,1.44.53h0a1,1,0,0,0,.58-1.31c-.28-.6-.58-1.19-.9-1.78a3.69,3.69,0,0,0,.66-.14c.51.57,1,1.15,1.46,1.74a1.33,1.33,0,0,0,1.6.36.9.9,0,0,0,.33-1.39c-.41-.55-.85-1.1-1.31-1.65,1,.29,1.95.61,2.9,1a1.25,1.25,0,0,0,1.6-.44,1.11,1.11,0,0,0-.81-1.41c-.81-.32-1.64-.61-2.48-.87.83,0,1.66-.07,2.51-.06S116.83,97.58,116.72,97Z"/><path class="cls-3" d="M74.84,109a2.43,2.43,0,0,1,.74-2.29c.58-.61,1.32-1,1.94-1.61.38-.34.7-.72,1.07-1.06a14.79,14.79,0,0,1,2-1.5q2.13-1.43,4.29-2.81a18.14,18.14,0,0,1,2.58-1.45c2.12-.93,4.49-1.12,6.68-1.87A20.2,20.2,0,0,1,98.57,95c.61,0,1.22,0,1.83,0,2,0,4-.61,6-.57s4.25.94,5,2.83a1.89,1.89,0,0,1,.09,1.15,2,2,0,0,1-1.23,1.14,9.8,9.8,0,0,1-3.41.5l-1.8,0c-.7,0-1.4,0-2.1,0a19.87,19.87,0,0,0-2-.18,9.89,9.89,0,0,0-2.09.33c-1.35.33-2.69.67-4,1a33.93,33.93,0,0,0-5.22,1.72,31.89,31.89,0,0,0-3.88,2.15q-3.14,1.94-6.16,4a5.51,5.51,0,0,1-2.74,1.21c-1,0-2.12-.77-2-1.77"/><path class="cls-2" d="M71,112.19c-.81-.5-1.56-.23-1.7.55s-.28,1.5-.45,2.24l-.58-.82c.27-1.32.5-2.68.67-4.06a2.4,2.4,0,0,0-1.38-2.19c-.85-.41-1.58,0-1.63.72s-.14,1.52-.23,2.27l-.66-.74c.14-1.34.23-2.71.26-4.09a2.38,2.38,0,0,0-1.58-2c-.88-.31-1.56.12-1.54.89s0,1.52,0,2.27l-.72-.66c0-1.35,0-2.71-.14-4.09a2.33,2.33,0,0,0-1.77-1.84h0c-.9-.22-1.54.27-1.44,1s.16,1.5.22,2.25l-.78-.59c-.13-1.33-.31-2.68-.55-4A2.33,2.33,0,0,0,55,97.63h0c-.92-.13-1.5.42-1.33,1.18s.31,1.49.44,2.23c-.27-.18-.55-.35-.83-.51-.26-1.32-.57-2.64-1-4a2.3,2.3,0,0,0-2.09-1.45h0c-.93,0-1.45.58-1.2,1.31s.46,1.45.66,2.17c-.29-.15-.59-.28-.88-.42-.39-1.29-.84-2.57-1.34-3.85a2.34,2.34,0,0,0-2.23-1.23h0c-.92.06-1.38.73-1.06,1.43s.61,1.39.88,2.09l-.92-.33c-.52-1.24-1.09-2.47-1.73-3.69a2.32,2.32,0,0,0-2.35-1h0c-.93.17-1.31.86-.92,1.53s.75,1.33,1.09,2l-.95-.23c-.64-1.18-1.34-2.35-2.11-3.5a2.36,2.36,0,0,0-2.45-.76h0c-.9.25-1.21,1-.75,1.61s.88,1.24,1.3,1.87l-1-.14c-.77-1.1-1.59-2.2-2.48-3.27a2.37,2.37,0,0,0-2.54-.5h0c-.87.34-1.12,1.11-.59,1.69s1.18,1.33,1.74,2a2.87,2.87,0,0,0-.31,0c-.86-.69-1.76-1.37-2.7-2a2.41,2.41,0,0,0-2.58,0h0a1,1,0,0,0,.05,1.74c.88.57,1.73,1.14,2.54,1.75l0,0c-1.1-.31-2.21-.59-3.36-.83a2,2,0,0,0-2.18.9h0c-.28.66.23,1.33,1.1,1.49s2,.42,3,.68c-1.06.11-2.12.25-3.18.43-.89.15-1.47.83-1.3,1.49a1.51,1.51,0,0,0,1.8.92c1.23-.21,2.47-.36,3.7-.46-.68.53-1.33,1.09-2,1.65a1.09,1.09,0,0,0,.06,1.74,1.62,1.62,0,0,0,2,0c.69-.59,1.42-1.17,2.17-1.73a4,4,0,0,0,.76.33c-.53.63-1,1.27-1.51,1.91a1.17,1.17,0,0,0,.37,1.7h0a1.45,1.45,0,0,0,1.86-.28c.77-.95,1.58-1.86,2.45-2.76l.81.11q-.75.73-1.44,1.5a1.18,1.18,0,0,0,.19,1.73h0a1.41,1.41,0,0,0,1.85-.1c.86-.86,1.76-1.69,2.71-2.5l.78.2c-.54.44-1.06.89-1.57,1.34a1.18,1.18,0,0,0,0,1.75h0a2.31,2.31,0,0,0,2.28-.26c.8-.65,1.63-1.27,2.5-1.86l.76.27c-.58.38-1.15.78-1.7,1.18a1.19,1.19,0,0,0-.17,1.74h0A1.37,1.37,0,0,0,42,108c1-.68,2.06-1.32,3.14-1.91l.73.34c-.61.32-1.21.66-1.8,1a1.17,1.17,0,0,0-.34,1.71h0a3.34,3.34,0,0,0,2.63,0c.8-.41,1.62-.79,2.46-1.15l.69.42c-.64.26-1.27.53-1.9.82a1.19,1.19,0,0,0-.51,1.66h0a1.38,1.38,0,0,0,1.73.65c1.12-.46,2.28-.88,3.46-1.24l.65.48c-.67.2-1.33.4-2,.62a1.18,1.18,0,0,0-.68,1.61h0a5.47,5.47,0,0,0,3.29.37c.64-.16,1.29-.3,2-.43l.59.55c-.69.12-1.36.26-2,.41a1.19,1.19,0,0,0-.84,1.54,1.44,1.44,0,0,0,1.58,1c1.19-.22,2.41-.38,3.66-.49l.54.61c-.7,0-1.39.11-2.07.2a1.18,1.18,0,0,0-1,1.44,1.44,1.44,0,0,0,1.48,1.15c1.21-.09,2.45-.12,3.7-.1l.48.68c-.7,0-1.4,0-2.09,0a1.16,1.16,0,0,0-1.12,1.33,1.45,1.45,0,0,0,1.36,1.32,36.43,36.43,0,0,1,3.71.32,4.41,4.41,0,0,0,.95.79,5.92,5.92,0,0,0,3.5,1.18c2.42-.05,3.23-1.69,3.87-5-.25-.46-.5-.92-.76-1.37.41-1.3.76-2.64,1.07-4A2.46,2.46,0,0,0,71,112.19Z"/><path class="cls-3" d="M69,120a3,3,0,0,0-.32-2.92c-.55-.87-1.33-1.57-1.94-2.39-.37-.5-.67-1-1-1.53a18.45,18.45,0,0,0-2-2.29c-1.47-1.47-2.95-3-4.45-4.4a25.52,25.52,0,0,0-2.73-2.36c-2.31-1.63-5.11-2.43-7.55-3.85-1.64-1-3.14-2.19-5-2.73-.71-.21-1.45-.31-2.18-.47-2.41-.52-4.66-1.7-7.08-2.14s-5.32.09-6.62,2.19a2.23,2.23,0,0,0-.39,1.34,2.38,2.38,0,0,0,1.2,1.66,11.61,11.61,0,0,0,4,1.43l2.14.49a24.13,24.13,0,0,0,2.51.48,22.66,22.66,0,0,1,2.48.28,11.24,11.24,0,0,1,2.42.91c1.53.71,3.06,1.44,4.57,2.19a42,42,0,0,1,5.84,3.32A41.82,41.82,0,0,1,57,112.75c2.17,2,4.31,4.14,6.39,6.28a6.69,6.69,0,0,0,3,2.11c1.2.28,2.72-.4,2.83-1.63"/><path class="cls-2" d="M70.52,82.73c-.58-.35-1.12-.16-1.22.39s-.2,1.08-.32,1.61l-.42-.59q.3-1.42.48-2.91a1.7,1.7,0,0,0-1-1.56c-.6-.3-1.12,0-1.16.52s-.1,1.08-.17,1.62l-.46-.53c.1-1,.16-1.94.18-2.93a1.7,1.7,0,0,0-1.13-1.45c-.63-.22-1.12.09-1.1.64s0,1.09,0,1.63q-.26-.26-.51-.48c0-1,0-1.94-.1-2.92a1.68,1.68,0,0,0-1.27-1.32h0c-.65-.16-1.1.19-1,.75s.12,1.07.16,1.61l-.56-.42c-.09-1-.22-1.92-.39-2.89a1.66,1.66,0,0,0-1.39-1.18h0c-.66-.08-1.07.31-1,.85s.22,1.06.31,1.59l-.59-.36c-.19-.94-.41-1.89-.68-2.83a1.65,1.65,0,0,0-1.5-1h0c-.66,0-1,.42-.86.94s.33,1,.48,1.55l-.63-.3c-.28-.92-.6-1.84-1-2.75a1.67,1.67,0,0,0-1.6-.88h0c-.66,0-1,.52-.76,1s.43,1,.63,1.49l-.66-.23q-.56-1.33-1.23-2.64A1.68,1.68,0,0,0,48.42,68h0c-.66.12-.93.61-.65,1.09s.53,1,.78,1.43l-.68-.17c-.46-.84-1-1.68-1.51-2.51a1.72,1.72,0,0,0-1.76-.54h0c-.65.19-.87.71-.54,1.16s.63.88.93,1.33l-.7-.1c-.55-.79-1.14-1.57-1.77-2.33A1.67,1.67,0,0,0,40.7,67h0c-.63.24-.81.79-.43,1.2s.85,1,1.24,1.44l-.22,0c-.61-.5-1.26-1-1.93-1.44a1.68,1.68,0,0,0-1.84,0h0a.7.7,0,0,0,0,1.25c.63.4,1.24.81,1.82,1.24l0,0c-.78-.22-1.58-.42-2.4-.59a1.41,1.41,0,0,0-1.56.64h0c-.2.47.17,1,.79,1.06s1.44.31,2.14.49c-.76.08-1.52.18-2.28.31s-1,.59-.93,1.06a1.09,1.09,0,0,0,1.29.66c.88-.15,1.77-.26,2.65-.33-.49.39-1,.78-1.41,1.19a.78.78,0,0,0,0,1.24,1.16,1.16,0,0,0,1.43,0c.5-.43,1-.84,1.55-1.24a3.7,3.7,0,0,0,.54.24c-.37.45-.73.9-1.08,1.36a.84.84,0,0,0,.27,1.22h0a1,1,0,0,0,1.33-.2c.55-.68,1.13-1.33,1.75-2l.58.08c-.35.35-.7.71-1,1.07a.84.84,0,0,0,.14,1.24h0a1,1,0,0,0,1.33-.07c.61-.61,1.25-1.21,1.93-1.79l.57.14c-.39.32-.76.64-1.13,1a.84.84,0,0,0,0,1.24h0a1,1,0,0,0,1.32.07c.67-.55,1.37-1.08,2.1-1.58l.54.19c-.41.27-.82.56-1.21.85a.85.85,0,0,0-.12,1.24h0a1,1,0,0,0,1.3.2c.72-.48,1.47-.94,2.25-1.37l.52.25q-.66.34-1.29.72a.84.84,0,0,0-.24,1.22h0a1,1,0,0,0,1.27.33,25.83,25.83,0,0,1,2.37-1.13l.5.3c-.47.18-.92.38-1.36.58a.85.85,0,0,0-.37,1.19h0a1,1,0,0,0,1.24.46c.8-.33,1.62-.62,2.47-.88l.47.34-1.42.44a.85.85,0,0,0-.48,1.15h0a4.12,4.12,0,0,0,2.43.24l1.31-.29.43.4c-.49.08-1,.18-1.45.29a.85.85,0,0,0-.6,1.1,1,1,0,0,0,1.13.7c.85-.15,1.72-.27,2.61-.35l.39.44c-.5,0-1,.08-1.48.14a.83.83,0,0,0-.7,1,1,1,0,0,0,1,.82c.87-.06,1.75-.09,2.65-.07.11.16.23.32.34.49l-1.49,0a.85.85,0,0,0-.81,1,1,1,0,0,0,1,.94c.87,0,1.75.11,2.65.23a3.35,3.35,0,0,0,.66.55,4.18,4.18,0,0,0,2.7.85c1.59-.11,2.15-1.28,2.59-3.54-.17-.33-.36-.65-.54-1,.29-.93.54-1.89.76-2.86A1.74,1.74,0,0,0,70.52,82.73Z"/><path class="cls-3" d="M69.15,88.33a2.11,2.11,0,0,0-.23-2.09c-.39-.62-1-1.12-1.39-1.71-.26-.35-.47-.73-.72-1.09a14.25,14.25,0,0,0-1.46-1.64c-1.06-1-2.12-2.11-3.19-3.14A16.4,16.4,0,0,0,60.21,77c-1.66-1.17-3.65-1.74-5.4-2.76a17.25,17.25,0,0,0-3.54-1.95c-.51-.15-1-.22-1.56-.33-1.73-.38-3.33-1.22-5.06-1.53s-3.8.06-4.74,1.56a1.59,1.59,0,0,0-.28,1,1.76,1.76,0,0,0,.86,1.19,8.49,8.49,0,0,0,2.83,1l1.54.35a18.21,18.21,0,0,0,1.79.34,17.42,17.42,0,0,1,1.77.2,8.28,8.28,0,0,1,1.74.65c1.09.51,2.18,1,3.26,1.57a29.24,29.24,0,0,1,4.18,2.38,29.28,29.28,0,0,1,2.94,2.51c1.56,1.47,3.09,3,4.58,4.49a4.79,4.79,0,0,0,2.13,1.51,1.63,1.63,0,0,0,2-1.17"/><path class="cls-2" d="M87.4,83.55c-.08-.33-.35-.45-.58-.29s-.45.32-.69.47l.06-.36c.41-.27.81-.57,1.21-.88a.86.86,0,0,0,.2-.92c-.11-.32-.39-.41-.6-.23l-.64.53c0-.12,0-.24,0-.36q.57-.47,1.11-1a.88.88,0,0,0,.11-.93c-.15-.3-.44-.36-.63-.16s-.38.4-.58.59c0-.12,0-.24,0-.36.35-.35.68-.71,1-1.09a.87.87,0,0,0,0-.93h0c-.18-.29-.47-.32-.64-.1s-.34.44-.52.64c0-.11,0-.23,0-.35.31-.38.61-.77.89-1.18a.84.84,0,0,0-.08-.92h0c-.21-.27-.5-.27-.65,0a8.18,8.18,0,0,1-.45.69c0-.11,0-.23-.08-.34.26-.41.52-.83.76-1.27a.83.83,0,0,0-.17-.9h0c-.24-.24-.53-.21-.65,0s-.25.49-.38.73l-.12-.34c.23-.43.44-.87.64-1.33a.85.85,0,0,0-.27-.89h0c-.25-.22-.54-.16-.64.1s-.2.51-.3.76c-.05-.1-.1-.21-.16-.32.19-.45.35-.91.5-1.39a.85.85,0,0,0-.35-.86h0c-.29-.19-.56-.11-.63.16s-.14.53-.23.79l-.18-.3c.13-.47.25-1,.35-1.44a.87.87,0,0,0-.45-.82h0c-.3-.17-.56-.06-.6.22s-.09.55-.14.81c-.08-.09-.15-.19-.22-.28.08-.48.15-1,.19-1.48a.87.87,0,0,0-.53-.78h0c-.31-.13-.57,0-.58.29s0,.64-.06,1l-.1-.06c0-.4-.11-.81-.18-1.21a.89.89,0,0,0-.68-.65h0a.35.35,0,0,0-.43.46c.08.37.15.74.21,1.1h0c-.2-.36-.42-.71-.66-1.07a.72.72,0,0,0-.79-.32h0c-.24.1-.28.4-.09.66s.41.63.59.94c-.3-.24-.61-.47-.93-.7s-.59-.16-.71.06a.54.54,0,0,0,.23.69c.37.26.73.54,1.07.83-.31,0-.62-.06-.93-.08a.4.4,0,0,0-.42.47.58.58,0,0,0,.52.5c.33,0,.67.06,1,.11,0,.09.06.18.1.27l-.87.11a.43.43,0,0,0-.34.54h0a.54.54,0,0,0,.55.4c.44-.05.89-.08,1.34-.09l.18.23q-.37,0-.75,0a.42.42,0,0,0-.39.49h0a.51.51,0,0,0,.5.45c.44,0,.88,0,1.34,0l.15.25q-.37,0-.75-.06a.43.43,0,0,0-.44.46h0a.5.5,0,0,0,.45.49q.66.06,1.32.18l.13.26-.74-.13a.43.43,0,0,0-.48.41h0a.5.5,0,0,0,.4.54q.65.12,1.29.3c0,.09.07.19.1.28l-.72-.2a.42.42,0,0,0-.52.35h0a.51.51,0,0,0,.34.58c.42.12.84.27,1.26.43,0,.1.05.19.07.29l-.7-.28a.43.43,0,0,0-.55.3h0a.5.5,0,0,0,.28.61c.41.17.81.35,1.21.56,0,.1,0,.2,0,.29l-.66-.34a.43.43,0,0,0-.59.24h0a2.12,2.12,0,0,0,.79,1c.2.11.39.23.58.36,0,.1,0,.2,0,.3a6.9,6.9,0,0,0-.63-.42.43.43,0,0,0-.6.19.51.51,0,0,0,.15.65,12,12,0,0,1,1.07.81c0,.1,0,.2,0,.29l-.59-.47a.42.42,0,0,0-.62.12.52.52,0,0,0,.09.67c.34.29.66.59,1,.92,0,.1,0,.2,0,.3-.17-.19-.35-.37-.53-.54a.42.42,0,0,0-.63.06.52.52,0,0,0,0,.68c.3.33.59.67.87,1a1.63,1.63,0,0,0,.05.43,2.11,2.11,0,0,0,.67,1.27c.61.53,1.23.3,2.2-.35l.15-.55c.43-.23.87-.49,1.29-.76A.9.9,0,0,0,87.4,83.55Z"/><path class="cls-3" d="M84.91,85.09a1.05,1.05,0,0,0,.66-.84c.08-.36.06-.74.11-1.11,0-.22.09-.43.13-.65a5.9,5.9,0,0,0,0-1.11c0-.76,0-1.52,0-2.27a8.17,8.17,0,0,0-.1-1.31c-.18-1-.7-1.93-1-2.92a8.93,8.93,0,0,0-.58-2c-.13-.23-.3-.45-.45-.67-.49-.75-.77-1.63-1.28-2.36a2.33,2.33,0,0,0-2.27-1.12.75.75,0,0,0-.44.25.85.85,0,0,0-.12.73,4.5,4.5,0,0,0,.66,1.38c.15.22.29.45.43.67s.34.52.53.76.4.45.57.71a4.36,4.36,0,0,1,.39.85c.22.58.42,1.15.62,1.73a15,15,0,0,1,.67,2.35,14.13,14.13,0,0,1,.16,2c0,1.08.06,2.16.06,3.25a2.38,2.38,0,0,0,.23,1.3.82.82,0,0,0,1.15.3"/><path class="cls-4" d="M93,42.73c0,.13-.08.27-.13.41C88.86,56,78.81,65,74.25,68.51v58.81a2.63,2.63,0,0,1-.76,1.84,2.58,2.58,0,0,1-1.18.67,2.5,2.5,0,0,1-.66.09,2.59,2.59,0,0,1-2.59-2.6V68c-5.38-4.36-16.91-14.4-22.14-24.21l3.09.05S60.4,57.62,69.4,63.55c-.85-3.61-3.78-13.49-11.43-18.9l2.38-.84A33.31,33.31,0,0,1,70.86,59.43a97.09,97.09,0,0,0,1.06-17.09l1.74-.41c.63,2.14.61,9.88.52,15.28,3.64-6.92,9.62-16.07,9.62-16.07l.55.29.92.5C85,45.64,78,57.25,74.05,63.46L74.6,63c8.9-7.32,16.61-20.68,16.61-20.68Z"/><path class="cls-4" d="M120.37,76.89C110.78,82,99.75,81,96.16,80.43L73.69,99.2l-.41.34-.2-1.15-.24-1.31-.49-2.67,22.21-17.5c-.52-5.34-1.15-16,1.15-23.59L97.3,55s-1.79,12.67-.19,20.47c1.45-2.33,5.08-9,3.91-15.87l1.69.81A24.58,24.58,0,0,1,100,74a71.62,71.62,0,0,0,9.5-8.39l1.11.7c-.79,1.45-4.84,5.49-7.71,8.27,5.52-1.71,13.43-3.38,13.43-3.38l.36,1.19c-2.09,1.79-11.83,4.19-17.13,5.39,8.54,1,20-2.08,20-2.08l.45.7Z"/><path class="cls-5" d="M92.9,43.14C88.86,56,78.81,65,74.25,68.51v58.81a2.63,2.63,0,0,1-.76,1.84,2.58,2.58,0,0,1-1.18.67c-.25-9.15-1.6-60.85,1-63,2.87-2.31,4.81-5.29,10-10.64s8.62-13.43,8.62-13.43Z"/><path class="cls-5" d="M120.37,76.89C110.78,82,99.75,81,96.16,80.43L73.69,99.2l-.61-.81-.73-.94.49-.37,22.7-17.74H97c11.29,1.54,23-2.9,23-2.9Z"/><path class="cls-5" d="M74.05,63.46c4-6.39,11-18,11.22-21.53l-.92-.5s-5.31,12.16-10.3,21Z"/><path class="cls-5" d="M74.18,57.11c0-1.27.14-14.15-.42-14.77s-.73,0-.73,0l-.2,14.77Z"/><path class="cls-5" d="M116.48,72s-12.28,4.2-17,4.94l.11.89s13.53-2.92,16.83-5.16Z"/><path class="cls-5" d="M110,66.57s-4.72,5.67-6.94,7l-.14,1.1s4.23-4.16,5.22-5.19,2.14-2.55,2.14-2.55Z"/><path class="cls-6" d="M98.69,34.9c-.4-3.82-3.28-8.46-10.08-8.93a24.63,24.63,0,0,1-7.25-1.92c-8.65-3.46-21.59-5.79-34.13,2.76C41.86,30.49,39.42,34,40,37.27c.9,5,8.31,7,9.19,7.23a35.19,35.19,0,0,0,6.86.53,89.42,89.42,0,0,0,22.16-3.15,10.83,10.83,0,0,1,6.85.5,13.72,13.72,0,0,0,8.94.77C97.17,42.24,99.1,38.85,98.69,34.9Z"/><path class="cls-7" d="M86.67,27.44s4.17,7.48-8,12.73c0,0,6.9-1.12,10.6,1.27,3.14,2,10.28-2.35,6.89-9.06S86.67,27.44,86.67,27.44Z"/><circle class="cls-7" cx="68.02" cy="23.62" r="0.79"/><path class="cls-7" d="M76.58,25.74a.8.8,0,1,1-.8-.8A.8.8,0,0,1,76.58,25.74Z"/><path class="cls-7" d="M83.38,28.5a.79.79,0,1,1-.79-.8A.79.79,0,0,1,83.38,28.5Z"/><path class="cls-7" d="M73.45,24.09a.47.47,0,1,1-.94,0,.47.47,0,0,1,.94,0Z"/><path class="cls-7" d="M78.69,27.23a.47.47,0,1,1-.47-.47A.47.47,0,0,1,78.69,27.23Z"/><path class="cls-7" d="M84.59,26.76a.47.47,0,1,1-.47-.47A.47.47,0,0,1,84.59,26.76Z"/><path class="cls-7" d="M86,29.82a.47.47,0,0,1-.47.47.47.47,0,1,1,0-.94A.47.47,0,0,1,86,29.82Z"/><path class="cls-7" d="M70.81,25.26a.47.47,0,1,1-.94,0,.47.47,0,0,1,.94,0Z"/><path class="cls-7" d="M81.29,26.68a.48.48,0,1,1-.48-.47A.47.47,0,0,1,81.29,26.68Z"/><path class="cls-7" d="M79.16,24.79a.47.47,0,1,1-.47-.47A.47.47,0,0,1,79.16,24.79Z"/><path class="cls-7" d="M73.45,26.21a.47.47,0,1,1-.47-.47A.47.47,0,0,1,73.45,26.21Z"/><path class="cls-7" d="M65.7,25.26a.47.47,0,1,1-.94,0,.47.47,0,0,1,.94,0Z"/><path class="cls-7" d="M58,41.93a.8.8,0,1,1-.8-.79A.8.8,0,0,1,58,41.93Z"/><path class="cls-7" d="M66.71,39.55a.79.79,0,1,1-.79-.79A.79.79,0,0,1,66.71,39.55Z"/><path class="cls-7" d="M60.83,40.35a.47.47,0,0,1-.47.47.48.48,0,0,1-.48-.47.49.49,0,0,1,.48-.48A.48.48,0,0,1,60.83,40.35Z"/><path class="cls-7" d="M63.8,42.34a.48.48,0,1,1-.48-.47A.47.47,0,0,1,63.8,42.34Z"/><path class="cls-7" d="M71.28,39.08a.47.47,0,1,1-.47-.47A.47.47,0,0,1,71.28,39.08Z"/><path class="cls-7" d="M69.68,41.44a.47.47,0,0,1-.94,0,.47.47,0,1,1,.94,0Z"/><path class="cls-7" d="M75,40.82a.47.47,0,1,1-.47-.47A.47.47,0,0,1,75,40.82Z"/><path class="cls-7" d="M58.51,23.18c-7.1,1.4-13.24,6.21-15,8.41-2.84,3.46-1.32,6-.91,7.32s6.1,4.18,9.45,3.82c0,0-5.71-10.1,3.86-14.19,8.37-3.57,7.93-6.38,7.93-6.38Z"/><path class="cls-8" d="M64.09,37.33a.64.64,0,0,1-.65-.59c-.11-1.08-.65-4.07-1.85-4.89a.66.66,0,0,1,.75-1.08c1.9,1.31,2.35,5.38,2.4,5.84a.65.65,0,0,1-.59.71Z"/><path class="cls-8" d="M68.28,36.31a.66.66,0,0,1-.65-.59c-.1-1.08-.65-4.07-1.84-4.89a.65.65,0,0,1,.74-1.08c1.91,1.32,2.36,5.39,2.4,5.85a.65.65,0,0,1-.58.71Z"/><path class="cls-8" d="M71.92,36.31h-.06a.66.66,0,0,1-.59-.71c0-.46.5-4.53,2.4-5.85a.66.66,0,0,1,.75,1.08c-1.2.82-1.74,3.81-1.85,4.89A.65.65,0,0,1,71.92,36.31Z"/><path class="cls-6" d="M127.42,75.76c1.79-2.21,2.71-6.14-.6-9.94A18.43,18.43,0,0,1,124,61c-2.71-6.33-8.26-14.32-19.29-16.4-4.74-.89-7.85-.32-9.25,1.69-2.15,3.08.67,8,1,8.59a26.19,26.19,0,0,0,3.31,3.86,66.74,66.74,0,0,0,13.24,9.94,8.06,8.06,0,0,1,3.32,3.85,10.16,10.16,0,0,0,4.27,5.07C122.79,78.81,125.57,78,127.42,75.76Z"/><path class="cls-7" d="M125,65.57s-1.73,6.1-10.83,2.49c0,0,4.19,3,4.88,6.21.58,2.7,6.6,4.14,8.34-1.14S125,65.57,125,65.57Z"/><path class="cls-7" d="M117.69,54.23a.59.59,0,0,1-.83-.83.6.6,0,0,1,.83,0A.59.59,0,0,1,117.69,54.23Z"/><path class="cls-7" d="M120.65,59.41a.6.6,0,0,1-.83,0,.6.6,0,0,1,0-.84.6.6,0,0,1,.83,0A.6.6,0,0,1,120.65,59.41Z"/><path class="cls-7" d="M122.77,64.41a.59.59,0,1,1,0-.83A.59.59,0,0,1,122.77,64.41Z"/><path class="cls-7" d="M119.88,56.91a.35.35,0,0,1-.5,0,.36.36,0,0,1,0-.49.35.35,0,0,1,.5,0A.36.36,0,0,1,119.88,56.91Z"/><path class="cls-7" d="M121,61.29a.35.35,0,1,1,0-.49A.34.34,0,0,1,121,61.29Z"/><path class="cls-7" d="M124.31,64.13a.35.35,0,0,1-.5,0,.36.36,0,0,1,0-.49.35.35,0,0,1,.5,0A.36.36,0,0,1,124.31,64.13Z"/><path class="cls-7" d="M123.45,66.47a.35.35,0,0,1-.5,0,.36.36,0,0,1,0-.49.35.35,0,0,1,.5,0A.36.36,0,0,1,123.45,66.47Z"/><path class="cls-7" d="M117.88,56.14a.35.35,0,1,1,0-.49A.34.34,0,0,1,117.88,56.14Z"/><circle class="cls-7" cx="122.37" cy="62.12" r="0.35"/><path class="cls-7" d="M122.5,60.26a.35.35,0,0,1-.5,0,.36.36,0,0,1,0-.49.35.35,0,0,1,.5,0A.36.36,0,0,1,122.5,60.26Z"/><path class="cls-7" d="M118.77,58a.34.34,0,0,1-.49,0,.35.35,0,0,1,0-.5.36.36,0,0,1,.49,0A.35.35,0,0,1,118.77,58Z"/><circle class="cls-7" cx="114.96" cy="53.22" r="0.35"/><path class="cls-7" d="M102.44,58.14a.59.59,0,0,1-.83,0,.6.6,0,0,1,0-.83.59.59,0,1,1,.83.83Z"/><circle class="cls-7" cx="107.85" cy="61.06" r="0.59"/><path class="cls-7" d="M104.77,58.81a.35.35,0,1,1,0-.49A.34.34,0,0,1,104.77,58.81Z"/><path class="cls-7" d="M105.28,61.4a.35.35,0,1,1,0-.49A.34.34,0,0,1,105.28,61.4Z"/><path class="cls-7" d="M110.9,63.62a.36.36,0,0,1-.49,0,.35.35,0,0,1,0-.5.34.34,0,0,1,.49,0A.35.35,0,0,1,110.9,63.62Z"/><path class="cls-7" d="M108.83,64a.35.35,0,1,1,0-.49A.34.34,0,0,1,108.83,64Z"/><path class="cls-7" d="M111.93,66.46a.35.35,0,1,1,0-.49A.34.34,0,0,1,111.93,66.46Z"/><path class="cls-7" d="M112.54,48.62a18.64,18.64,0,0,0-4.4-2.19,22.39,22.39,0,0,0-7.87-1.28c-3.3.32-3.83,2.44-4.31,3.35s1,5.37,3,6.94c0,0,2.29-8.27,9.43-5.4,6.26,2.51,7.49.81,7.49.81Z"/><path class="cls-8" d="M108.4,59.25a.66.66,0,0,1-.51-1.07c.69-.84,1.72-2.51,1.56-3.39A.65.65,0,0,1,110,54a.67.67,0,0,1,.77.53c.32,1.76-1.62,4.18-1.84,4.45A.67.67,0,0,1,108.4,59.25Z"/><path class="cls-8" d="M111.12,60.91a.66.66,0,0,1-.5-1.07c.68-.84,1.72-2.5,1.56-3.38a.64.64,0,0,1,.52-.76.66.66,0,0,1,.76.52c.32,1.76-1.61,4.18-1.83,4.45A.65.65,0,0,1,111.12,60.91Z"/><path class="cls-8" d="M113,62.81a.65.65,0,0,1-.42-1.16c.27-.22,2.69-2.15,4.45-1.83a.66.66,0,0,1,.53.76.67.67,0,0,1-.77.53c-.87-.18-2.54.86-3.38,1.55A.65.65,0,0,1,113,62.81Z"/></g></g></svg>