<svg xmlns="http://www.w3.org/2000/svg" viewBox="0 0 145.33 145.33"><defs><style>.cls-1{fill:#fcd65e;}.cls-2{fill:#cd2e30;}.cls-3{fill:#1c8040;}.cls-4{fill:#f45d5d;}.cls-5{fill:#ef4c45;}.cls-6{fill:#52ba5a;}.cls-7{fill:#3c9c46;}</style></defs><title>Asset 19</title><g id="Layer_2" data-name="Layer 2"><g id="Layer_1-2" data-name="Layer 1"><circle class="cls-1" cx="72.66" cy="72.66" r="72.66"/><path class="cls-2" d="M72,18.17c-4.44,0-8,11.1-8,24.8s3.6,24.81,8,24.81,8-11.11,8-24.81S76.46,18.17,72,18.17Z"/><path class="cls-3" d="M72.66,63a3.48,3.48,0,0,0-3.47,3.48v56.29a3.48,3.48,0,0,0,7,0V66.5A3.48,3.48,0,0,0,72.66,63Z"/><path class="cls-4" d="M89.53,26.39c-4.43-1.26-12.38,8.54-17.66,18.67l-.52,34.53c5.83,1.67,16.33-3.61,20.22-15.8S95.36,28.06,89.53,26.39Z"/><path class="cls-5" d="M76.2,54.48C72.31,42.29,60.34,24.72,54.51,26.39s-5.94,25.2-2,37.4,14.39,17.47,20.22,15.8S80.09,66.68,76.2,54.48Z"/><path class="cls-6" d="M100.83,57.75c-2.31,11-2.24,12-7.58,20.45C84.8,91.49,84,90.83,79.22,96.69a50,50,0,0,0-10.81,25.08h0c-1.24,5.72,7.43,7.64,8.82,2,5.37-21.73,12-22.28,19.76-35.14,5.29-8.78,5.38-20.41,5.58-30.69A.88.88,0,0,0,100.83,57.75Z"/><path class="cls-6" d="M102.57,57.94c-.2,10.29-.29,21.92-5.58,30.7-7.75,12.87-14.38,13.4-19.76,35.14a4.53,4.53,0,0,1-8.92-1.06,5.2,5.2,0,0,1,.1-1,50.14,50.14,0,0,1,10.8-25.08C83.92,91,85,91.27,93.24,78.2c5.3-8.28,5.3-9.47,7.59-20.45A.88.88,0,0,1,102.57,57.94Z"/><path class="cls-7" d="M44.49,57.75l1,4.59c1.46,6.9,2.13,8.79,6.62,15.86,8.44,13.29,9.24,12.63,14,18.49a50,50,0,0,1,10.81,25.08h0c1.24,5.72-7.43,7.64-8.82,2-1.9-7.7-4.9-16-9.7-21.85-3.54-4.29-7.19-8.52-10.07-13.29C43,79.86,43,68.23,42.76,58A.87.87,0,0,1,44.49,57.75Z"/><path class="cls-7" d="M102.57,57.94c-.2,10.29-.29,21.92-5.58,30.7-7.75,12.87-14.38,13.4-19.76,35.14a4.51,4.51,0,0,1-2.53,3,36.77,36.77,0,0,1,1.22-8c1.1-3.74,3.19-7.08,5.27-10.38a63.3,63.3,0,0,1,7.08-9.86c4-4.29,3.6-3.18,7.8-12.86a52.21,52.21,0,0,0,4.4-17.56c.1-1.1.21-2.19.31-3.29a10.43,10.43,0,0,0-.38-5l.43-2.06A.88.88,0,0,1,102.57,57.94Z"/><path class="cls-5" d="M91.67,32.07a10.91,10.91,0,0,0-2-3.26c-2.31-2.16-6.1,1.75-7.45,4.16L83,32c-1.19,1.65-2.45,2.92-2,3.83,3.27-3.36,4.6-5.14,6.39-4.81a2.8,2.8,0,0,1,1.84,1.46c.71,1.28,2.45,9.78,2.57,13.51a3.38,3.38,0,0,0,.74,2.52C92.87,43.62,92.29,33.82,91.67,32.07Z"/><path class="cls-2" d="M74.56,70.64c0-.2-.06-.46-.26-.49s-.33.19-.4.37c-.42,1.17-.57,2.51-1.44,3.4-1.39,1.43-5.09,2-8.76-.43-2.8-1.84-7.65-7.91-8.21-9-.45-.93-.55-2-1.22-2.84-.2-.24-.38-.08-.25,0h-.1A31.61,31.61,0,0,0,59.7,72.73c1,1.14,5.3,4.82,9.19,5.26C73.67,78.53,74.73,75.36,74.56,70.64Z"/></g></g></svg>