<svg xmlns="http://www.w3.org/2000/svg" viewBox="0 0 145.33 145.33"><defs><style>.cls-1{fill:#fcce0b;}.cls-2{fill:#3c9b46;}.cls-3{fill:#208140;}</style></defs><title>Asset 23</title><g id="Layer_2" data-name="Layer 2"><g id="Layer_1-2" data-name="Layer 1"><circle class="cls-1" cx="72.66" cy="72.66" r="72.66"/><path class="cls-2" d="M126.76,95a15.78,15.78,0,0,0-2.43-.82A8.26,8.26,0,0,1,121.09,93c-.91-.7-1.34-2.2-.51-3a15.9,15.9,0,0,1-7.11-3.32,5.9,5.9,0,0,1-7.64-2.38c-.65-1.22-.68-3,.49-3.74a2.17,2.17,0,0,1,.85-.9c.25-.14.52-.22.78-.35a2.19,2.19,0,0,0,1.1-1.4c1.53,0,2.84-1,4-2a3,3,0,0,0,.84-.93,7,7,0,0,1,.27-.72,1.83,1.83,0,0,1,.48-.52,44.88,44.88,0,0,1,5.27-3.94l.19-.12a.66.66,0,0,0-.32-1.22,3.57,3.57,0,0,1-.72-.1,2.47,2.47,0,0,1-.91-.43c-.42-.33-.66-.84-1.08-1.17a5.32,5.32,0,0,0-1.59-.65c-.68-.23-1.39-.71-1.25-1.55a1.33,1.33,0,0,1,.3-.62,5.5,5.5,0,0,1,1.84-1.15A5.18,5.18,0,0,0,119,59.16a6.7,6.7,0,0,1,3.29-4.26.66.66,0,0,0-.2-1.2,2.79,2.79,0,0,1-1.85-1.16,3.4,3.4,0,0,1-.42-1.91A9.26,9.26,0,0,1,121.21,46c.41-.65.89-1.25,1.28-1.92a8.12,8.12,0,0,0,1.08-3.43.66.66,0,0,0-1.07-.57c-3.89,3-9.29,3.64-13.73,5.94-1.26.65-2.67,1.46-4,1a3.69,3.69,0,0,1-2-2.38,16.31,16.31,0,0,0-1.11-3,3.8,3.8,0,0,0-.65,2.09,6.57,6.57,0,0,1-1.7,3.38c-1,1-2.2,1.66-3.24,2.56A9.39,9.39,0,0,0,93,55.45a5.69,5.69,0,0,1-.78,2.89,1.58,1.58,0,0,1-1.23.66c-1.25,0-1.67-1.45-1.42-2.54a18.79,18.79,0,0,0,.87-2.89c.09-1.36-.74-2.68-.54-4A6,6,0,0,1,91.25,47a28.22,28.22,0,0,0,2.19-3.34,10,10,0,0,0,.69-1.44c.21-.6.32-1.23.48-1.85a21.92,21.92,0,0,1,1.61-3.85l1.11-2.22a.66.66,0,0,0-.91-.88,18.19,18.19,0,0,1-6.35,1.82,2.09,2.09,0,0,1-1.48-.34c-1-.71-.58-1.74-.47-2.69.08-.73-.22-1.67-1-1.71-.4,0-.83.24-1.15,0a.87.87,0,0,1-.28-.48l-1.11-3.28a1.43,1.43,0,0,1-2.3-.33c-.84-.56-1.73-1.11-2-2.07a5.52,5.52,0,0,1-.16-1c-.09-.89-.26-1.77-.42-2.65-.12-.64-.23-1.28-.35-1.92a.82.82,0,0,0-.17-.43.29.29,0,0,0-.41,0,.46.46,0,0,0-.07.31A11.06,11.06,0,0,1,78,22.82a7.55,7.55,0,0,1-1.44,3c-.83.81-2.5.83-3-.24.09,1.32-.07,3-1.33,3.4s-2.6-1.24-4-1.25c0,1.67,0,3.34-.05,5a1.28,1.28,0,0,1-.22.86,1,1,0,0,1-.67.27c-1.43.11-2.56-1.09-3.62-2.05a15.31,15.31,0,0,0-3.37-2.32.66.66,0,0,0-.91.84,13.81,13.81,0,0,0,1.32,2,8.52,8.52,0,0,1,.84,4.54A43,43,0,0,0,64,50.94c.83,2.29,1.93,4.56,2,7a2.37,2.37,0,0,1-2.11-.54c-.6-.46-1.07-1.06-1.67-1.52-1-.76-2.3-1.12-3.14-2.06-.57-.65-.86-1.52-1.45-2.16a13.65,13.65,0,0,0-1.81-1.37,8,8,0,0,1-2.6-5.41,37,37,0,0,1-.17-3.8.67.67,0,0,0-1.25-.31l-1,1.93a6.9,6.9,0,0,1-1.38,2,2.33,2.33,0,0,1-2.22.56c-.82-.29-1.32-1.16-2.13-1.45-1.11-.39-2.54.35-3.4-.44-.33-.29-.47-.74-.77-1.06-.56-.6-1.48-.61-2.27-.82-2.07-.53-3.41-2.46-4.8-4.08s-3.1-2.93-5-2.69a.65.65,0,0,0-.56.72A4.38,4.38,0,0,0,29,37.06a20.69,20.69,0,0,1,3.12,9.59,2.26,2.26,0,0,1-1,2.05c-1.24.81-2.35-.22-3.54-.62a.66.66,0,0,0-.85.81,3.79,3.79,0,0,0,1.09,1.63c.72.66,1.61,1.13,2.36,1.77,2.22,1.89,3,4.94,3.64,7.78.1.46-.21.93-.19,1.4-1.12,1-2.82.84-4.32.77a20.56,20.56,0,0,0-6.44.7.66.66,0,0,0-.36,1,5.81,5.81,0,0,0,2.91,1.68L29,66.81a5.5,5.5,0,0,1,1.58.71,6.16,6.16,0,0,1,1.2,1.39,24.73,24.73,0,0,0,2.55,3,7.22,7.22,0,0,0,2,1.58c1.52.71,3.48.52,4.68,1.69s1.06,2.94.91,4.52a1,1,0,0,1-.26.7.89.89,0,0,1-.48.16c-1.72.16-3.39-.88-5.1-.64-1.11.16-2.11.84-3.22,1-1.84.19-3.49-1.16-5.32-1.42-.25,1,.69,2.12.14,3a2,2,0,0,1-.93.67q-4,1.81-8.15,3.31a.66.66,0,0,0,.2,1.28l1.93.1a22.81,22.81,0,0,1,3.2.31,15,15,0,0,1,4.91,2,2.12,2.12,0,0,1,.94.91.79.79,0,0,1-.45,1.08q2.07,1.14,4.16,2.26c.41.23.88.53.9,1s-.42,1-.1,1.36a4.33,4.33,0,0,1-1.65,3.55l-.79.71a.66.66,0,0,0,.74,1.08h0a14.21,14.21,0,0,1,7.58-1.18c2.58.18,5.14.67,7.73.68a29.2,29.2,0,0,0,4.38-.37,1.66,1.66,0,0,1,.83,0,1.27,1.27,0,0,1,.66,1.24c0,2.09-2.25,3.6-2.45,5.68a11.85,11.85,0,0,0,.37,2.69,13.12,13.12,0,0,1-.38,4.4,20.54,20.54,0,0,1-1.41,4.88c-.11.24-.23.47-.34.71a.67.67,0,0,0,1,.83,11.77,11.77,0,0,0,2-1.81,27.51,27.51,0,0,1,2.71-3.08,30.2,30.2,0,0,1,4.26-2.32,16.07,16.07,0,0,0,2.84-2.15A33.73,33.73,0,0,0,72.3,95.85l.18.09a15.55,15.55,0,0,1,2.08,3.85,38.21,38.21,0,0,0,8.15,12.47,21.4,21.4,0,0,0,11.4,5.91.66.66,0,0,0,.65-1,11.23,11.23,0,0,1-1.62-3.86,70.47,70.47,0,0,1-1.64-8,1.62,1.62,0,0,1,.85-1.72c.87-.44,1.51.3,2.27.57,1.62.58,3.33-1.09,5-.76a10.06,10.06,0,0,1,2.49,1.39c1.68.87,3.73.46,5.55,1,1.47.41,2.79,1.44,4.23,1.87a.66.66,0,0,0,.78-.92,3.68,3.68,0,0,1-.43-1.77c.08-1.73,1.8-2.91,3.46-3.41s3.48-.63,4.91-1.6c1.22-.82,2-2.16,3.27-2.94a5.07,5.07,0,0,1,2.6-.72A.67.67,0,0,0,126.76,95Z"/><path class="cls-3" d="M111.72,69.53,92.17,74.69l11.25-12.13,12-5.24L104.5,61.39l5.6-6c-3.93,3.57-7.72,7.23-11.27,10.82l1.34-12L97.31,67.72C86.27,79,76.62,89.43,73.08,93.79c1-6.28,3.13-23.21,4.44-39.56l8.31-11-8.15,8.88c.37-5,.64-10.29.74-15.6l-.87,8.19L73.46,33.78l3.93,12.46L75.65,62.69l-9-18.12,8.64,21.16-3,28.17v.15h0C70,89.89,62.37,78.59,52.67,65.24l-.87-13.8-.41,12.05c-3-4.07-6.21-8.23-9.58-12.34l4.66,6.79L36.3,52.34l11.08,6.91,9.37,13.64L38.16,65,58.49,75.41l5,7.43c-4.08,1.2-9.17,2.8-14.66,4.79l-9-2,7.66,2.49C44.33,89.3,41.06,90.59,37.8,92L43,90.26l-5.48,5.5L44,89.92l10.48-3.5L46,96.89,56.46,85.78l7.37-2.46L71.69,95s.31,18.19-5.6,28.58a2.4,2.4,0,0,0,2.09,3.58h0a2.4,2.4,0,0,0,2.37-2,208.07,208.07,0,0,0,2.7-30l8-8.65,11.42,3.81,10.47,11.12L94.62,90.92l10.49,3.5,6.48,5.83-5.47-5.5,5.22,1.75c-3.26-1.41-6.53-2.71-9.69-3.88l7.65-2.49-9,2c-7.52-2.73-14.32-4.74-18.74-6l8.55-9.23Z"/></g></g></svg>