<svg xmlns="http://www.w3.org/2000/svg" viewBox="0 0 113.53 172.29"><defs><style>.cls-1{fill:#ff9b00;}.cls-2{fill:#ff8;}.cls-3{fill:#1f741f;}.cls-4{fill:#279127;}.cls-5{fill:#64c12a;}.cls-6{fill:#d1e2f6;}.cls-7{fill:#fff;}.cls-8{fill:#5acaf1;}.cls-9{fill:#72e2ff;}.cls-10{fill:#96f8ff;}.cls-11{fill:#51b229;}</style></defs><title>Asset 1</title><g id="Layer_2" data-name="Layer 2"><g id="ps_flip_30012017_17"><g id="g9334"><path id="path15632" class="cls-1" d="M70.82,134.83c4.54,4.72,6.31,15.2,4.49,22-2.46,9.21-8.93,13-12.83-5.13,4.72,19-12.28,34.53-12.4.58-4.26,17.8-11.06,12.7-12.44.26-.72-6.57,1.58-15.37,8.18-20s20.46-2.39,25,2.32Z"/><path id="path15634" class="cls-2" d="M67.8,133.35c3.75,3.29,5.21,10.59,3.71,15.34-2,6.41-7.37,9.07-10.59-3.58,3.89,13.24-10.13,24.07-10.24.41-3.51,12.4-9.12,8.85-10.25.18a14.39,14.39,0,0,1,6.74-14c5.45-3.26,16.88-1.66,20.63,1.62Z"/><path id="rect8351" class="cls-3" d="M76.2,121.83H37.33V136.9c15.61,6.63,27.42,3.77,38.87,0Z"/><path id="path15531" class="cls-4" d="M35.79,67.88c-1.58.8-34.9,27-34.9,27L.1,152.76l7.14,13.49c1.64-39.75,14.4-46.18,28.55-48.39Z"/><path id="path15533" class="cls-5" d="M35.52,67.34C33.93,68.13.6,94.58.6,94.58L0,152.76C1.93,140.34,2.47,115,3.59,98.09l31.93-20.9Z"/><path id="path15535" class="cls-3" d="M33,79.9c-5.05,8.93-21.1,47.44-21.1,48.45,0,.27.22,3.36.52,7.67,5.33-13.42,14-16.69,23.35-18.15Z"/><path id="path8354" class="cls-4" d="M77.74,67.88c1.59.8,34.9,27,34.9,27l.8,57.91-7.14,13.49c-1.65-39.75-14.4-46.18-28.56-48.39Z"/><path id="path15456" class="cls-5" d="M78,67.34c1.58.79,34.91,27.24,34.91,27.24l.6,58.18C111.6,140.34,111.06,115,110,98.09L78,77.19Z"/><path id="path15471" class="cls-3" d="M80.52,79.9c5,8.93,21.1,47.44,21.1,48.45,0,.27-.23,3.36-.52,7.67-5.34-13.42-14-16.69-23.36-18.15Z"/><path id="path8342" class="cls-6" d="M57.22,12.11c4.62.21,20.7,29.83,21.82,35.27,5.28,25.75-.62,77.87-.62,77.87a89.42,89.42,0,0,1-44.2-.48S29.5,60,34.85,45.33,52.59,11.9,57.22,12.11Z"/><path id="path10604" class="cls-7" d="M57.88,13.87c5.62,4.28,18.75,29.31,19.74,34.26a137.16,137.16,0,0,1,2,22.79c0,2.1.07,4.21.07,6.35s0,4-.07,6v.41c0,2.12-.09,4.24-.16,6.32-.25,6.95-.67,13.41-1.08,19-10.37,8.58-23,8.45-31.7,2.3-8.57-6-9.51-18.77-9.11-30.54s1.21-29.14,2.94-34.68C44.56,33.22,53.24,17.17,57.88,13.87Z"/><path id="rect8344" class="cls-4" d="M79.46,49.65C82,54.3,81.3,57,80.68,60h-48c-.78-4.28-.65-7.9,1.07-10.31Z"/><path id="path8349" class="cls-6" d="M38.27,84.33a18.5,18.5,0,1,0,18.5-18.5A18.49,18.49,0,0,0,38.27,84.33Z"/><path id="path15427" class="cls-4" d="M39.19,81.58A17.58,17.58,0,1,0,56.77,64,17.58,17.58,0,0,0,39.19,81.58Z"/><path id="rect15483" class="cls-5" d="M56.76,63.87A17.57,17.57,0,0,1,73.87,77.44c-4.18,5.91-9.77,10.48-17.11,10.69s-13-4.28-17.22-10.28A17.58,17.58,0,0,1,56.76,63.87Z"/><path id="path15385" class="cls-8" d="M41.47,81.58a15.3,15.3,0,1,0,15.3-15.29A15.3,15.3,0,0,0,41.47,81.58Z"/><path id="path15387" class="cls-9" d="M42.78,80.28A13.73,13.73,0,1,0,56.51,66.55,13.73,13.73,0,0,0,42.78,80.28Z"/><path id="path15389" class="cls-10" d="M56.49,66.55a13.75,13.75,0,0,1,12.6,8.25,13.71,13.71,0,0,1-25.16,0A13.71,13.71,0,0,1,56.49,66.55Z"/><path id="path15391" class="cls-7" d="M44,76.65A3.66,3.66,0,1,0,47.68,73,3.65,3.65,0,0,0,44,76.65Z"/><path id="path15393" class="cls-10" d="M60.74,91.27a2.35,2.35,0,1,0,2.34-2.35A2.34,2.34,0,0,0,60.74,91.27Z"/><path id="rect8360" class="cls-4" d="M53.17,2.48,52.4,15c2.18-1.25,7.11-.84,8.73,0L60.37,2.48C59.7-.86,53.66-.79,53.17,2.48Z"/><path id="path15476" class="cls-11" d="M73.85,128.94a63.21,63.21,0,0,1-34.16,0v6.17c13.71,5.83,24.1,3.32,34.16,0Z"/><path id="path15478" class="cls-5" d="M77.49,51.12c3.2,2.51,2.59,4.89,1.41,7.35l-40.06.69a12.52,12.52,0,0,1,.86-8.6Z"/></g></g></g></svg>