<svg xmlns="http://www.w3.org/2000/svg" viewBox="0 0 63.7 198.25"><defs><style>.cls-1{fill:#ff9b00;}.cls-2{fill:#ff8;}.cls-3{fill:#d1e2f6;}.cls-4{fill:#fff;}.cls-5{fill:#aa1897;}.cls-6{fill:#e544d1;}.cls-7{fill:#5acaf1;}.cls-8{fill:#72e2ff;}.cls-9{fill:#96f8ff;}</style></defs><title>Asset 14</title><g id="Layer_2" data-name="Layer 2"><g id="ps_flip_30012017_17"><g id="g10459"><path id="path24085" class="cls-1" d="M39.43,169c3,9.56-4.82,29.14-7.64,29.3S21.51,178.16,24.16,169s13.09-7,15.27,0Z"/><path id="path24087" class="cls-2" d="M37.47,167.38c2.21,7.11-3.58,21.68-5.66,21.8s-7.63-15-5.66-21.8S35.85,162.19,37.47,167.38Z"/><path id="rect8398" class="cls-3" d="M31.85,0S13,39.29,12.22,42.54s0,108.61,0,108.61c0,.3.26.43.54.55,18.83,8.25,28,3.44,38.18,0,.28-.1.54-.25.54-.55,0,0,.63-104.89,0-108.61S31.85,0,31.85,0Z"/><path id="path19194" class="cls-4" d="M36.74,12.13c5.4,11.76,12.77,28,13.16,30.4.49,3,.2,62.76.06,91-8,4.87-26,6.64-30.45-.61-5-8.19-2.55-83.09-1.8-85.79.49-1.74,5.89-18.51,11.2-28.28,2.76-5.07,7.57-6.23,7.83-6.7Z"/><path id="rect8401" class="cls-5" d="M31.86,0s9.07,18.24,15,30.92c-10,3.5-19.95,4.53-29.92.1C22.87,18.38,31.86,0,31.86,0Z"/><path id="path19205" class="cls-3" d="M15.77,73.41c0,11.71,7.24,21.2,16.16,21.2s16.16-9.49,16.16-21.2S40.86,52.2,31.93,52.2,15.77,61.7,15.77,73.41Z"/><path id="path19207" class="cls-5" d="M15.77,70.85c0,11.71,7.24,21.2,16.16,21.2s16.16-9.49,16.16-21.2S40.86,49.64,31.93,49.64,15.77,59.13,15.77,70.85Z"/><path id="path19253" class="cls-6" d="M31.93,49.55C40.4,49.55,47.35,58.1,48,69c-4,5.64-9.33,9.8-16.07,10S19.89,75.1,15.83,69.4C16.36,58.32,23.35,49.55,31.93,49.55Z"/><path id="path19213" class="cls-7" d="M18.47,70.85c0,9.91,6,17.94,13.46,17.94s13.47-8,13.47-17.94-6-17.95-13.47-17.95S18.47,60.93,18.47,70.85Z"/><path id="path19215" class="cls-8" d="M19.62,69.32c0,8.89,5.41,16.11,12.08,16.11s12.09-7.22,12.09-16.11S38.38,53.2,31.7,53.2,19.62,60.42,19.62,69.32Z"/><path id="path19217" class="cls-9" d="M31.69,53.21c5,0,9.23,4,11.09,9.68-1.86,5.7-6.13,9.69-11.09,9.69s-9.19-4-11.06-9.69C22.5,57.19,26.73,53.21,31.69,53.21Z"/><path id="path19219" class="cls-4" d="M20.72,65.06c0,2.37,1.44,4.29,3.22,4.29s3.21-1.92,3.21-4.29-1.44-4.29-3.21-4.29S20.72,62.69,20.72,65.06Z"/><path id="path19221" class="cls-9" d="M35.43,82.21c0,1.52.92,2.75,2.06,2.75s2.07-1.23,2.07-2.75-.92-2.76-2.07-2.76S35.43,80.69,35.43,82.21Z"/><path id="path24136" class="cls-1" d="M15.83,158.17c3,7.45-4.82,22.74-7.63,22.87S-2.09,165.35.56,158.17,13.65,152.72,15.83,158.17Z"/><path id="path24138" class="cls-2" d="M13.87,156.94c2.21,5.55-3.58,16.92-5.66,17s-7.63-11.68-5.66-17S12.26,152.88,13.87,156.94Z"/><path id="path8408" class="cls-5" d="M14.25,93.8,8.25,80l-6,13.8s-.09,0-.12.06a.17.17,0,0,0,0,.12v61.16c0,.1.08.14.17.18,5.92,2.71,8.8,1.13,12,0,.09,0,.17-.08.17-.18V94a.17.17,0,0,0-.05-.12.14.14,0,0,0-.12-.06Z"/><path id="path19403" class="cls-6" d="M5.52,86.28l4,8.71s.07,0,.1.07.07,0,.07.1v57.71c0,.1-.08.15-.17.18a10,10,0,0,1-7.46-.9V94a.21.21,0,0,1,0-.14s.12,0,.14,0l3.26-7.53Z"/><path id="path24142" class="cls-1" d="M63,158.17c3,7.45-4.82,22.74-7.64,22.87s-10.28-15.69-7.63-22.87,13.09-5.45,15.27,0Z"/><path id="path24144" class="cls-2" d="M61.07,156.94c2.21,5.55-3.58,16.92-5.66,17s-7.63-11.68-5.66-17S59.45,152.88,61.07,156.94Z"/><path id="path19414" class="cls-5" d="M49.45,93.8l6-13.8,6,13.8s.09,0,.12.06a.17.17,0,0,1,0,.12v61.16c0,.1-.09.14-.17.18-5.92,2.71-8.8,1.13-12,0-.09,0-.17-.08-.17-.18V94a.17.17,0,0,1,0-.12.14.14,0,0,1,.12-.06Z"/><path id="path19416" class="cls-6" d="M58.17,86.28l-4,8.71s-.08,0-.11.07-.07,0-.07.1v57.71c0,.1.09.15.18.18,2.25.75,5.47,1.15,7.46-.9V94a.21.21,0,0,0,0-.14s-.12,0-.14,0l-3.27-7.53Z"/><path id="path8412" class="cls-5" d="M37.85,117.2l-6-13.8-6,13.8s-.09,0-.12.06a.17.17,0,0,0-.05.13v46.08c0,.1.08.14.17.18,5.92,2.71,8.8,1.13,12,0,.09,0,.17-.08.17-.18V117.39a.19.19,0,0,0-.05-.13.16.16,0,0,0-.12-.06Z"/><path id="path19418" class="cls-6" d="M35.69,118.49,31.85,107.3,28,118.49s-.06,0-.08,0a.18.18,0,0,0,0,.11V156a.16.16,0,0,0,.11.15c3.79,2.2,5.63.92,7.68,0a.16.16,0,0,0,.11-.15V118.64a.18.18,0,0,0,0-.11.09.09,0,0,0-.08,0Z"/><path id="path19420" class="cls-6" d="M31.87,3.26s6.5,14.76,10.74,25c-7.14,2.83-17,3.59-18.09-1.86S31.87,3.26,31.87,3.26Z"/></g></g></g></svg>