<svg xmlns="http://www.w3.org/2000/svg" viewBox="0 0 103.72 159.25"><defs><style>.cls-1{fill:#ff9b00;}.cls-2{fill:#ff8;}.cls-3{fill:#279127;}.cls-4{fill:#64c12a;}.cls-5{fill:#1f741f;}.cls-6{fill:#d1e2f6;}.cls-7{fill:#fff;}.cls-8{fill:#5acaf1;}.cls-9{fill:#72e2ff;}.cls-10{fill:#96f8ff;}</style></defs><title>Asset 10</title><g id="Layer_2" data-name="Layer 2"><g id="ps_flip_30012017_17"><g id="g10075"><path id="path24836" class="cls-1" d="M70.44,120.65c3.41,5.9,2.34,13-.45,18.63-1.6,3.23-6.11,9.46-7.51,9.66s-2-4-2.76-5.69a19.26,19.26,0,0,0-3.79-5.87,24.11,24.11,0,0,1-1,12.54c-1.24,3.43-4.56,8.89-5.34,9.32s-1.67-8.23-2.84-11.8S44,140.85,41.85,139a10.27,10.27,0,0,1-4.59,8.37c-2.42-7.68-9.34-16.82-4.35-25.33s11.43-8.26,18.48-8.52c6.51-.24,15.65,1.19,19,7.1Z"/><path id="path24838" class="cls-2" d="M64.2,117.21c3.84,3,5.07,8.14,4.56,12.62A28,28,0,0,1,63,143.27c-1.32-4.49-5.24-9-9-11.47,1.37,6.57,1.17,15.76-3.31,19-.25-7.32-5.61-13.59-9.42-18.83-1.1,3.2-1.08,7.39-4,9.48.11-5.72-2.4-11.15-1.52-16a14.81,14.81,0,0,1,8.57-10.85c6.19-2.52,16-.46,19.89,2.55Z"/><path id="path8731" class="cls-3" d="M33,61.38C32.51,62.44,6.34,76.31,3.31,80.5s-3.6,20.87-3.19,25c.36,3.56,3.72,10.09,3.72,10.09s2.28-12.72,6.9-16.47C16.62,94.32,33,94.84,33,94.84Z"/><path id="path24801" class="cls-4" d="M33,61.18V74.89c-11.84.92-22.66,5.4-31.58,10.48A14.36,14.36,0,0,1,3.3,80.3c3-4.19,29.21-18.06,29.74-19.12Z"/><path id="path24792" class="cls-5" d="M33,76.77V95s-16.44-.5-22.32,4.27C6.1,103,3.85,115.75,3.85,115.75s-.35-.65-.76-1.53C2.88,97,14.74,80.42,33,76.77Z"/><path id="path24818" class="cls-3" d="M70.68,61.38c.53,1.06,26.7,14.93,29.73,19.12s3.6,20.87,3.19,25c-.36,3.56-3.72,10.09-3.72,10.09S97.6,102.83,93,99.08c-5.88-4.76-22.3-4.24-22.3-4.24Z"/><path id="path24820" class="cls-4" d="M70.68,61.18V74.89c11.83.92,22.66,5.4,31.58,10.48a14.36,14.36,0,0,0-1.84-5.07c-3-4.19-29.21-18.06-29.74-19.12Z"/><path id="path24822" class="cls-5" d="M70.68,76.77V95S87.12,94.53,93,99.3c4.62,3.74,6.87,16.45,6.87,16.45s.34-.65.76-1.53C100.84,97,89,80.42,70.68,76.77Z"/><path id="rect8733" class="cls-5" d="M70.71,95.9H33v23.36c11.39,4.72,23.5,6.55,37.7,0Z"/><path id="path24809" class="cls-3" d="M66.05,99.31H37.67V116.9c8.57,3.55,17.69,4.93,28.38,0Z"/><path id="path10111" class="cls-6" d="M52.37,0C57.18.22,74.88,30,75,35.84c.7,26.41-.64,66.62-.64,66.62C60,110.73,44.9,114,28.49,102c0,0-.12-52.89.66-66.12S47.57-.22,52.37,0Z"/><path id="path24737" class="cls-7" d="M51.84.85c6.33,4.87,20.82,29.72,21,35,.49,18.4,0,42.83-.38,56.36-10.2,6.44-22,5.89-30.3.45-8.85-5.77-9.85-18-9.43-29.25S34,35.48,35.74,30.17C39.42,19.24,46.85,6,51.84.85Z"/><path id="path24778" class="cls-5" d="M52.37,0c3.23.15,12.25,13.6,17.89,24.21-20.21,4.79-28.34,2-37.61,0C38.22,12.35,48.81-.15,52.37,0Z"/><path id="rect8724" class="cls-3" d="M52.37,0c3.23.15,12.25,13.6,17.89,24.21-20.21-4.75-28.34-1-37.61,0C38.22,12.35,48.81-.15,52.37,0Z"/><path id="path24683" class="cls-6" d="M33.37,60.93A18.49,18.49,0,1,0,51.86,42.44,18.49,18.49,0,0,0,33.37,60.93Z"/><path id="path24685" class="cls-3" d="M34.28,58.18A17.58,17.58,0,1,0,51.86,40.61,17.58,17.58,0,0,0,34.28,58.18Z"/><path id="path24687" class="cls-4" d="M51.85,40.47A17.57,17.57,0,0,1,69,54C64.78,60,59.19,64.52,51.85,64.73s-13-4.28-17.21-10.27A17.56,17.56,0,0,1,51.85,40.47Z"/><path id="path24691" class="cls-8" d="M36.56,58.18a15.3,15.3,0,1,0,15.3-15.29A15.3,15.3,0,0,0,36.56,58.18Z"/><path id="path24693" class="cls-9" d="M37.87,56.88A13.73,13.73,0,1,0,51.6,43.15,13.73,13.73,0,0,0,37.87,56.88Z"/><path id="path24695" class="cls-10" d="M51.59,43.15A13.75,13.75,0,0,1,64.18,51.4,13.7,13.7,0,0,1,39,51.4,13.68,13.68,0,0,1,51.59,43.15Z"/><path id="path24697" class="cls-7" d="M39.12,53.25a3.66,3.66,0,1,0,3.66-3.65A3.66,3.66,0,0,0,39.12,53.25Z"/><path id="path24699" class="cls-10" d="M55.83,67.87a2.35,2.35,0,1,0,2.35-2.35A2.35,2.35,0,0,0,55.83,67.87Z"/></g></g></g></svg>