<svg xmlns="http://www.w3.org/2000/svg" viewBox="0 0 138.18 170.52"><defs><style>.cls-1{fill:#aa1897;}.cls-2{fill:#e544d1;}.cls-3{fill:#ff9b00;}.cls-4{fill:#ff8;}.cls-5{fill:#98beeb;}.cls-6{fill:#d1e2f6;}.cls-7{fill:#fff;}.cls-8{fill:#5acaf1;}.cls-9{fill:#72e2ff;}.cls-10{fill:#96f8ff;}</style></defs><title>Asset 7</title><g id="Layer_2" data-name="Layer 2"><g id="ps_flip_30012017_17"><g id="g9589"><path id="rect8168" class="cls-1" d="M15.64,98.36l33-22v25.94l-33,22Z"/><path id="path25351" class="cls-2" d="M48.66,76.4V93.82L15.65,105v-6.6Z"/><path id="path8178" class="cls-1" d="M1.94,107.91c3.25,14.49,9.43,25.44,13.81,24.46s5.3-13.52,2.05-28S8.37,78.92,4,79.9-1.3,93.43,1.94,107.91Z"/><path id="path25356" class="cls-2" d="M2.62,103.07c2.51,11.23,7.3,19.72,10.7,19s4.11-10.48,1.59-21.71S7.6,80.6,4.21,81.36.1,91.84,2.62,103.07Z"/><path id="rect25494" class="cls-1" d="M122.54,98.36l-33-22v25.94l33,22Z"/><path id="path25496" class="cls-2" d="M89.52,76.4V93.82l33,11.14v-6.6Z"/><path id="path25498" class="cls-1" d="M136.24,107.91c-3.25,14.49-9.43,25.44-13.81,24.46s-5.3-13.52-2.06-28,9.43-25.44,13.81-24.46S139.48,93.43,136.24,107.91Z"/><path id="path25500" class="cls-2" d="M135.56,103.07c-2.51,11.23-7.31,19.72-10.7,19s-4.11-10.48-1.59-21.71,7.31-19.72,10.7-19S138.08,91.84,135.56,103.07Z"/><path id="path25482" class="cls-3" d="M80.94,140.38c4.64,9.82-7.52,30-11.9,30.14s-16-20.67-11.9-30.14C61.33,130.76,77.55,133.2,80.94,140.38Z"/><path id="path25484" class="cls-4" d="M77.88,138.76c3.45,7.31-5.57,22.3-8.82,22.43s-11.89-15.38-8.82-22.43S75.37,133.41,77.88,138.76Z"/><path id="rect8151" class="cls-5" d="M88.22,113.9H50l-5.66,24.76s12.27,4.12,24.76,4.12,24.76-4.12,24.76-4.12Z"/><path id="path25358" class="cls-6" d="M83.81,117.23H54.43l-4.35,19a68.4,68.4,0,0,0,19,3.17,68.42,68.42,0,0,0,19-3.17Z"/><path id="path10362" class="cls-6" d="M43.64,57.11c-3.45,10.94,0,61.15,0,61.15C57,129.94,81,129.05,95,118.26c0,0,2.56-51,0-61.15S71.09,0,69.31,0C66.65,0,47.09,46.16,43.64,57.11Z"/><path id="path10574" class="cls-7" d="M44.66,59.19c-3.31,10.51,2.67,44.86,13.7,50.41s32,3.86,34-9.91c1.61-11.64,2.83-35.86,1.65-40.5S71,4.37,69.3,4.37C66.75,4.37,48,48.69,44.66,59.19Z"/><path id="rect8136" class="cls-1" d="M95.29,111.55c-.15,3.54-.29,6.71-.29,6.71-14,10.8-38,11.68-51.36,0,0,0-.19-3.14-.4-6.71C58.57,118.29,75.27,120.46,95.29,111.55Z"/><path id="rect8145" class="cls-1" d="M82.3,25.77C85,28.26,85.3,31.19,86,34c-10-1.67-20.49-2.52-33.26,0,.51-3.12,1.25-6.16,3.54-8.24A78.63,78.63,0,0,1,82.3,25.77Z"/><path id="path25291" class="cls-6" d="M53,57.3c0,9.38,7.24,17,16.16,17s16.16-7.61,16.16-17-7.24-17-16.16-17S53,47.92,53,57.3Z"/><path id="path25293" class="cls-1" d="M53,55.25c0,9.38,7.24,17,16.16,17s16.16-7.61,16.16-17-7.24-17-16.16-17S53,45.87,53,55.25Z"/><path id="path25295" class="cls-2" d="M69.19,38.19c8.47,0,15.42,6.85,16.1,15.57-4.05,4.52-9.32,7.85-16.06,8s-12.08-3.12-16.14-7.68c.53-8.87,7.52-15.9,16.1-15.9Z"/><path id="path25299" class="cls-8" d="M55.72,55.25c0,7.94,6,14.38,13.47,14.38s13.47-6.44,13.47-14.38-6-14.38-13.47-14.38S55.72,47.31,55.72,55.25Z"/><path id="path25301" class="cls-9" d="M56.87,54c0,7.13,5.42,12.91,12.09,12.91S81.05,61.15,81.05,54,75.64,41.12,69,41.12,56.87,46.9,56.87,54Z"/><path id="path25303" class="cls-10" d="M69,41.12A12.11,12.11,0,0,1,80,48.88a11.79,11.79,0,0,1-22.15,0A12.07,12.07,0,0,1,69,41.12Z"/><path id="path25305" class="cls-7" d="M58,50.61a3.22,3.22,0,1,0,3.22-3.43A3.33,3.33,0,0,0,58,50.61Z"/><path id="path25307" class="cls-10" d="M72.68,64.35a2.07,2.07,0,1,0,2.07-2.21A2.15,2.15,0,0,0,72.68,64.35Z"/><path id="path25333" class="cls-6" d="M56.36,93.27c0,7.45,5.75,13.48,12.83,13.48S82,100.72,82,93.27,76.27,79.79,69.19,79.79,56.36,85.82,56.36,93.27Z"/><path id="path25335" class="cls-1" d="M56.36,91.64c0,7.45,5.75,13.49,12.83,13.49S82,99.09,82,91.64,76.27,78.16,69.19,78.16,56.36,84.19,56.36,91.64Z"/><path id="path25337" class="cls-2" d="M69.19,78.1A13.09,13.09,0,0,1,82,90.46c-3.21,3.59-7.4,6.23-12.75,6.36s-9.59-2.48-12.81-6.1C56.83,83.68,62.38,78.1,69.19,78.1Z"/><path id="path25341" class="cls-8" d="M58.5,91.64c0,6.3,4.79,11.41,10.69,11.41s10.69-5.11,10.69-11.41S75.09,80.23,69.19,80.23,58.5,85.34,58.5,91.64Z"/><path id="path25343" class="cls-9" d="M59.41,90.67c0,5.66,4.3,10.24,9.6,10.24s9.59-4.58,9.59-10.24S74.31,80.42,69,80.42,59.41,85,59.41,90.67Z"/><path id="path25345" class="cls-10" d="M69,80.42a9.61,9.61,0,0,1,8.8,6.16,9.35,9.35,0,0,1-17.58,0A9.58,9.58,0,0,1,69,80.42Z"/><path id="path25347" class="cls-7" d="M60.29,88a2.56,2.56,0,1,0,2.55-2.73A2.64,2.64,0,0,0,60.29,88Z"/><path id="path25349" class="cls-10" d="M72,98.87a1.65,1.65,0,1,0,1.65-1.76A1.71,1.71,0,0,0,72,98.87Z"/></g></g></g></svg>