<svg xmlns="http://www.w3.org/2000/svg" viewBox="0 0 141.65 162.54"><defs><style>.cls-1{fill:#1c6eca;}.cls-2{fill:#4eafe1;}.cls-3{fill:#ff9b00;}.cls-4{fill:#ff8;}.cls-5{fill:#d1e2f6;}.cls-6{fill:#fff;}.cls-7{fill:#5acaf1;}.cls-8{fill:#72e2ff;}.cls-9{fill:#96f8ff;}</style></defs><title>Asset 16</title><g id="Layer_2" data-name="Layer 2"><g id="ps_flip_30012017_17"><g id="g10293"><path id="path8002" class="cls-1" d="M5.94,105.86,41.31,57.77l10.94,38.6-46.31,18Z"/><path id="path24988" class="cls-2" d="M41.31,57.76,45.61,73,13.92,101l-1.66-3.68L41.31,57.76Z"/><path id="path8008" class="cls-1" d="M18.86,86.59,9.72,69.75,0,86.59v39.3H18.86Z"/><path id="path25016" class="cls-2" d="M8.2,72.41,13.85,86.6V122H0V86.6Z"/><path id="path25029" class="cls-1" d="M135.71,105.86,100.35,57.77,89.4,96.37l46.31,18Z"/><path id="path25031" class="cls-2" d="M100.35,57.76,96,73l31.69,28,1.66-3.68-29-39.53Z"/><path id="path25033" class="cls-1" d="M122.79,86.59l9.14-16.84,9.72,16.84v39.3H122.79Z"/><path id="path25035" class="cls-2" d="M133.46,72.41,127.8,86.6V122h13.85V86.6Z"/><path id="path25051" class="cls-3" d="M77.42,153c3.27-1.93,9,3.74,12.36-.13,6.87-7.91,4-24.67-4.39-30.72-12.58-9.08-27.29-4-32.79,4.19s-6.44,21.89-.61,27c.49.42,6.36-4,8.58-2,1.92,1.66-2.14,7-.12,8.73,4.12,3.59,12.18,3.52,17.76-.87-1.66-1.63-2.68-5-.79-6.12Z"/><path id="path25053" class="cls-4" d="M75.66,143.43c2.39-1.41,6.58,2.74,9-.09,5-5.79,2.94-18.07-3.21-22.51-9.22-6.64-20-3-24,3.08s-4.73,16-.45,19.75c.35.31,4.65-2.92,6.29-1.5,1.4,1.22-1.57,5.11-.09,6.4,3,2.63,8.92,2.58,13-.64-1.22-1.19-2-3.67-.58-4.49Z"/><path id="path7995" class="cls-5" d="M70.83,0c4.87,0,35.68,30.62,36.05,49.07.34,16.21-8.95,40.16-19.57,54.64l12.39,20c-19.26,9-40.08,10.16-57.77,0l12.41-20C43.71,89.23,34.44,65.28,34.77,49.07,35.14,31,66,0,70.83,0Z"/><path id="path25011" class="cls-6" d="M84.78,14C94.22,24.46,104,38.71,104.25,49.08c.33,16.21-8.92,40.15-19.54,54.63l8.54,16.17c-10.77,4.6-24.51,7.49-38.38,2.85,1.94-5.82,4.35-12,7.57-19.65-22.73-31.17-32-60.23-10.87-79.85,3.39.51,6.15-2.63,8.41-3.77,6.83-3.41,16-4.59,24.8-5.46Z"/><path id="path8016" class="cls-1" d="M70.83,0c2.9,0,15,10.81,24.35,23.46C76,28.37,59,26.09,44.79,26c9.57-13.65,23-26,26-26Z"/><path id="path24904" class="cls-5" d="M49.2,64.51A21.63,21.63,0,1,0,70.83,42.88,21.62,21.62,0,0,0,49.2,64.51Z"/><path id="path24912" class="cls-1" d="M49.2,60.18A21.63,21.63,0,1,0,70.83,38.56,21.62,21.62,0,0,0,49.2,60.18Z"/><path id="path24914" class="cls-2" d="M70.82,38.3A21.64,21.64,0,0,1,91.73,54.39c-5.26,6.78-12.1,11.78-20.86,12s-15.76-4.7-21.05-11.58A21.61,21.61,0,0,1,70.82,38.3Z"/><path id="path24918" class="cls-7" d="M52.76,60.18A18.07,18.07,0,1,0,70.83,42.12,18.07,18.07,0,0,0,52.76,60.18Z"/><path id="path24920" class="cls-8" d="M54.3,58.64A16.22,16.22,0,1,0,70.52,42.42,16.22,16.22,0,0,0,54.3,58.64Z"/><path id="path24922" class="cls-9" d="M70.5,42.43a16.22,16.22,0,0,1,14.88,9.75,16.19,16.19,0,0,1-29.71,0A16.16,16.16,0,0,1,70.5,42.43Z"/><path id="path24924" class="cls-6" d="M55.78,54.36A4.32,4.32,0,1,0,60.1,50,4.32,4.32,0,0,0,55.78,54.36Z"/><path id="path24926" class="cls-9" d="M75.51,71.62a2.78,2.78,0,1,0,2.78-2.77A2.79,2.79,0,0,0,75.51,71.62Z"/><path id="path24975" class="cls-2" d="M70.83,0c2.9,0,15,10.81,24.35,23.46C80.86,21.67,62.4,20.25,44.79,26c9.57-13.65,23-26,26-26Z"/></g></g></g></svg>