<svg xmlns="http://www.w3.org/2000/svg" viewBox="0 0 92.27 183.05"><defs><style>.cls-1{fill:#ff9b00;}.cls-2{fill:#ff8;}.cls-3{fill:#8644e5;}.cls-4{fill:#672abf;}.cls-5{fill:#98beeb;}.cls-6{fill:#d1e2f6;}.cls-7{fill:#fff;}.cls-8{fill:#cf8af8;}.cls-9{fill:#5acaf1;}.cls-10{fill:#72e2ff;}.cls-11{fill:#96f8ff;}</style></defs><title>Asset 11</title><g id="Layer_2" data-name="Layer 2"><g id="ps_flip_30012017_17"><g id="g9987"><path id="path24367" class="cls-1" d="M54.34,144.81c-6.83-4-18.09-3.17-22.28,6.62s4.42,13.59,7.06,19.89C40.65,175,37.33,179,36.87,183c8.16.11,18.52-6,22.81-14.61,3.42-6.87,1.48-19.62-5.34-23.62Z"/><path id="path24369" class="cls-2" d="M49.32,143.23a11.23,11.23,0,0,0-15,8.77c-1.54,8.32,5.2,9.91,8,14.41,1.65,2.61-.14,6.26.14,9.53,5.87-1.23,12.4-7.66,14.19-15.12C58.11,154.91,54.82,145.25,49.32,143.23Z"/><path id="path8681" class="cls-3" d="M25.33,96.72.59,114.39,0,171.53l10-48.3,20.62-4.71Z"/><path id="path24325" class="cls-4" d="M30,105.88l.59,12.64-20.35,4.76L2.75,158.37l1.88-39.92Z"/><path id="path24342" class="cls-3" d="M66.94,96.72l24.74,17.67.59,57.14-10-48.3-20.61-4.71Z"/><path id="path24344" class="cls-4" d="M62.23,105.88l-.59,12.64L82,123.38l7.47,34.78-1.85-39.71Z"/><path id="path8689" class="cls-5" d="M62.18,119.24,72,149.46c-19.55,7.2-35.7,5.3-50.56,0l9.78-30.22Z"/><path id="path24340" class="cls-6" d="M58,128.27l7.48,18.16c-15.4,6.09-27.86,5.39-38.67,0l7.48-18.16C41.28,129.29,50,130.87,58,128.27Z"/><path id="path10121" class="cls-6" d="M16.33,53.77s5,53.36,10,64.83,34.78,11.3,39.66,0,10-64.83,10-64.83S48.14,0,46.13,0C43.12,0,16.33,53.77,16.33,53.77Z"/><path id="path24271" class="cls-7" d="M74.09,53.48c-.55,6.85-3.83,46.1-8.16,54.5-4.74,9.18-33.71,9.32-38.53,0C23,99.38,18.63,60.22,18,54,41.45,57.83,58.3,56.09,74.09,53.48Z"/><path id="rect8670" class="cls-3" d="M46.13,0c2,0,29.71,53.55,29.79,53.71-16.46,2.83-33.82,4.91-59.56,0C16.44,53.55,43.12,0,46.13,0Z"/><path id="path8679" class="cls-3" d="M51.54,114.07c-4.53-1.84-12.93,1.45-12.6,9l4,16.34,5.25,32.64Z"/><path id="path24303" class="cls-6" d="M27.79,86A18.35,18.35,0,1,0,46.13,67.62,18.34,18.34,0,0,0,27.79,86Z"/><path id="path24305" class="cls-3" d="M27.79,83.41A18.35,18.35,0,1,0,46.13,65.06,18.34,18.34,0,0,0,27.79,83.41Z"/><path id="path24307" class="cls-8" d="M46.14,64.84A18.34,18.34,0,0,1,64,79c-4.45,5.89-10.27,10.3-17.8,10.52s-13.51-4.14-18-10.15a18.38,18.38,0,0,1,18-14.51Z"/><path id="path24311" class="cls-9" d="M30.59,83.41A15.55,15.55,0,1,0,46.13,67.86,15.54,15.54,0,0,0,30.59,83.41Z"/><path id="path24313" class="cls-10" d="M31.92,82.08a14,14,0,1,0,13.95-14A13.94,13.94,0,0,0,31.92,82.08Z"/><path id="path24315" class="cls-11" d="M45.86,68.13a14,14,0,0,1,12.79,8.39,13.93,13.93,0,0,1-25.56,0A13.91,13.91,0,0,1,45.86,68.13Z"/><path id="path24317" class="cls-7" d="M33.19,78.39a3.72,3.72,0,1,0,3.71-3.71A3.72,3.72,0,0,0,33.19,78.39Z"/><path id="path24319" class="cls-11" d="M50.17,93.25a2.39,2.39,0,1,0,2.38-2.39A2.38,2.38,0,0,0,50.17,93.25Z"/><path id="path24321" class="cls-8" d="M46.13,4.76c1.67,0,24.72,44.56,24.79,44.69-13.69,2.36-41,3.24-42.9-3.88S43.62,4.76,46.13,4.76Z"/><path id="path24371" class="cls-4" d="M48.55,113.42a7,7,0,0,1,2.84.52l0,.41a48.5,48.5,0,0,0-5.82,8.18,35.93,35.93,0,0,0-4,11.29C41.25,133.31,38.8,123,38.8,123c-.27-6.17,5.25-9.5,9.75-9.54Z"/></g></g></g></svg>