<svg xmlns="http://www.w3.org/2000/svg" viewBox="0 0 116 155.55"><defs><style>.cls-1{fill:#ff9b00;}.cls-2{fill:#ff8;}.cls-3{fill:#e54467;}.cls-4{fill:#c32b4c;}.cls-5{fill:#d1e2f6;}.cls-6{fill:#fff;}.cls-7{fill:#f47373;}.cls-8{fill:#5acaf1;}.cls-9{fill:#72e2ff;}.cls-10{fill:#96f8ff;}</style></defs><title>Asset 3</title><g id="Layer_2" data-name="Layer 2"><g id="ps_flip_30012017_17"><g id="g9120"><path id="path8362" class="cls-1" d="M75.72,110.35c7,14.74-11.27,45-17.85,45.2s-24-31-17.84-45.2c6.29-14.42,30.6-10.77,35.69,0Z"/><path id="path10526" class="cls-2" d="M71.14,107.93c5.16,11-8.36,33.44-13.23,33.63s-17.83-23.07-13.24-33.63C49.34,97.19,67.37,99.91,71.14,107.93Z"/><path id="path15351" class="cls-3" d="M112.13,133C125.9,97,100.42,73.38,75.31,63.76c-4.3,10.1-1.31,30-.81,36.79C82.3,99.39,100.32,104.89,112.13,133Z"/><path id="path15355" class="cls-4" d="M76.27,80.15a5.9,5.9,0,0,0-3.2,1.57c.19,7.68,1.16,15.17,1.43,18.84,7.79-1.16,25.81,4.32,37.62,32.38.11-.29.2-.58.31-.87C113.69,107.18,95.73,86.08,76.27,80.15Z"/><path id="path7806" class="cls-3" d="M3.87,133C-9.9,97,15.58,73.38,40.69,63.76c4.3,10.1,1.31,30,.81,36.79C33.7,99.39,15.68,104.89,3.87,133Z"/><path id="path10623" class="cls-4" d="M39.73,80.15a5.9,5.9,0,0,1,3.2,1.57c-.19,7.68-1.16,15.17-1.43,18.84-7.79-1.16-25.81,4.32-37.62,32.38-.11-.29-.2-.58-.31-.87C2.3,107.18,20.27,86.08,39.73,80.15Z"/><path id="path10131" class="cls-5" d="M29.29,53.07c-.3,17.46,5,44.22,16.51,57.25,4.18,4.74,8.42,5.21,12.2,5.21,3.56,0,7.52-.13,11.46-4.39C81.19,98.44,87,70.91,86.71,53.07S70,0,58,0,29.58,35.6,29.29,53.07Z"/><path id="path9108" class="cls-6" d="M31.85,53.12C31.59,70,44.21,86.37,57.78,86.43S84.42,70.35,84.15,53.12,68.94,1.87,58,1.87,32.12,36.25,31.85,53.12Z"/><path id="path8328" class="cls-3" d="M63.92,70.1c-1.12.56-12,11.76-12.67,15.14s2.25,25.5,2.25,25.5l4.25,26.13c4.3,0,10.85-67.9,6.17-66.77Z"/><path id="path10630" class="cls-5" d="M38.46,42.8A19.54,19.54,0,1,0,58,23.27,19.54,19.54,0,0,0,38.46,42.8Z"/><path id="path8324" class="cls-3" d="M38.46,39.75A19.54,19.54,0,1,0,58,20.21,19.53,19.53,0,0,0,38.46,39.75Z"/><path id="rect10718" class="cls-7" d="M58,20.12a19.54,19.54,0,0,1,17.56,11c-4.39,8.32-10.62,17-17.56,17s-13.14-8.65-17.53-17A19.48,19.48,0,0,1,58,20.12Z"/><path id="path9114" class="cls-8" d="M41.73,39.75A16.27,16.27,0,1,0,58,23.48,16.26,16.26,0,0,0,41.73,39.75Z"/><path id="path10655" class="cls-9" d="M43.12,38.36a14.61,14.61,0,1,0,14.6-14.6A14.6,14.6,0,0,0,43.12,38.36Z"/><path id="path10659" class="cls-10" d="M57.71,23.76A14.6,14.6,0,0,1,71.1,32.54a14.58,14.58,0,0,1-26.75,0A14.55,14.55,0,0,1,57.71,23.76Z"/><path id="path10678" class="cls-6" d="M44.45,34.5a3.89,3.89,0,1,0,3.89-3.89A3.89,3.89,0,0,0,44.45,34.5Z"/><path id="path10680" class="cls-10" d="M62.22,50.05a2.5,2.5,0,1,0,2.5-2.5A2.5,2.5,0,0,0,62.22,50.05Z"/><path id="path26068" class="cls-4" d="M64,70c.43.13.76,1,1,2.5,0,2.73-1.36,6.93-3.6,10.67S54.6,93.53,51.66,94.82c-.57-4.23-.79-8.38-.51-9.66C51.87,81.78,62.7,70.56,63.82,70A.37.37,0,0,1,64,70Z"/></g></g></g></svg>