<svg xmlns="http://www.w3.org/2000/svg" viewBox="0 0 77.98 171.57"><defs><style>.cls-1{fill:#5c9812;}.cls-2{fill:#b4f15a;}.cls-3{fill:#ff9b00;}.cls-4{fill:#ff8;}.cls-5{fill:#d1e2f6;}.cls-6{fill:#fff;}.cls-7{fill:#5acaf1;}.cls-8{fill:#72e2ff;}.cls-9{fill:#96f8ff;}</style></defs><title>Asset 15</title><g id="Layer_2" data-name="Layer 2"><g id="ps_flip_30012017_17"><g id="g10612"><path id="path8103" class="cls-1" d="M47.88,90.64v46.28l23.45,6.28L78,131.69Z"/><path id="path25912" class="cls-2" d="M47.9,90.64,78,131.7l-6.61,11.46-.3-10.25L47.9,112.41Z"/><path id="path25936" class="cls-1" d="M30.1,90.64v46.28L6.65,143.2,0,131.69Z"/><path id="path25938" class="cls-2" d="M30.09,90.64,0,131.7l6.6,11.46.3-10.25,23.18-20.5Z"/><path id="path25908" class="cls-3" d="M47.09,145c3.18,8.67-5.15,26.45-8.15,26.6S28,153.32,30.79,145,44.76,138.63,47.09,145Z"/><path id="path25910" class="cls-4" d="M45,143.54c2.36,6.45-3.81,19.68-6,19.79s-8.13-13.57-6-19.79S43.27,138.82,45,143.54Z"/><path id="rect8100" class="cls-5" d="M39.12,2.28,58.66,71.33,48.89,91.11v52.11H29.05V91.06L19.34,71.33Z"/><path id="path25896" class="cls-6" d="M39,12.23,58.05,71.32l0,.11-.06.11s-7,16.6-18.95,16.6-19-16.6-19-16.6L20,71.43l-.06-.11Z"/><path id="rect8116" class="cls-1" d="M39,0l9.41,34.1H29.56Z"/><path id="path25121" class="cls-5" d="M24.74,69.52A14.26,14.26,0,1,0,39,55,14.37,14.37,0,0,0,24.74,69.52Z"/><path id="path25123" class="cls-1" d="M25,67.21a14,14,0,1,0,14-14A14,14,0,0,0,25,67.21Z"/><path id="path25125" class="cls-2" d="M39,53A14,14,0,0,1,52.93,65.87v0C49.55,70.74,45,74.47,39,74.64s-10.59-3.5-14-8.41A14,14,0,0,1,39,53Z"/><path id="path25129" class="cls-7" d="M27.53,67.21A11.46,11.46,0,1,0,39,55.74,11.46,11.46,0,0,0,27.53,67.21Z"/><path id="path25131" class="cls-8" d="M28.51,66.23A10.29,10.29,0,1,0,38.8,55.94,10.29,10.29,0,0,0,28.51,66.23Z"/><path id="path25133" class="cls-9" d="M38.79,55.94a10.28,10.28,0,0,1,9.43,6.19,10.28,10.28,0,0,1-18.85,0A10.27,10.27,0,0,1,38.79,55.94Z"/><path id="path25135" class="cls-6" d="M29.45,63.51a2.74,2.74,0,1,0,2.74-2.74A2.74,2.74,0,0,0,29.45,63.51Z"/><path id="path25137" class="cls-9" d="M42,74.46a1.76,1.76,0,1,0,1.76-1.76A1.76,1.76,0,0,0,42,74.46Z"/><path id="path25901" class="cls-6" d="M47.18,91.43l-.13,48.91H30.93l-.11-48.93c4.3,1.15,9.5,1.41,16.36,0Z"/><path id="path25950" class="cls-2" d="M39,3.34l7.28,29.32c-4.86-1.58-10.32-1.72-14.56,0Z"/></g></g></g></svg>