<svg xmlns="http://www.w3.org/2000/svg" viewBox="0 0 101.82 180.66"><defs><style>.cls-1{fill:#ff9b00;}.cls-2{fill:#ff8;}.cls-3{fill:#00b4e4;}.cls-4{fill:#34fcff;}.cls-5{fill:#0091b8;}.cls-6{fill:#d1e2f6;}.cls-7{fill:#fff;}.cls-8{fill:#5acaf1;}.cls-9{fill:#72e2ff;}.cls-10{fill:#96f8ff;}</style></defs><title>Asset 2</title><g id="Layer_2" data-name="Layer 2"><g id="ps_flip_30012017_17"><g id="g9247"><path id="path18599" class="cls-1" d="M62.13,139.13c4.41,13.54-7.14,41.3-11.3,41.53s-15.22-28.48-11.3-41.53C43.51,125.88,58.91,129.24,62.13,139.13Z"/><path id="path18601" class="cls-2" d="M59.23,136.9c3.27,10.08-5.29,30.73-8.38,30.9s-11.28-21.19-8.38-30.9S56.84,129.54,59.23,136.9Z"/><path id="path8534" class="cls-3" d="M25.25,82.6C23.79,84.78-5.24,115.7.83,138c7.6-9.86,14.88-15.88,24.42-16Z"/><path id="path18546" class="cls-4" d="M25.25,82.6V100c-8.07,4.41-16.69,9.24-22.17,16.9C9.57,99.91,24.23,84.13,25.25,82.6Z"/><path id="path18529" class="cls-5" d="M25.25,109.8V122c-9.54.16-16.83,6.17-24.43,16,0-.06,0-.14,0-.2a71.71,71.71,0,0,1,3.64-10.07c4.72-9.7,13-13.88,20.83-17.91Z"/><path id="path18581" class="cls-3" d="M76.57,82.6C78,84.78,107.06,115.7,101,138c-7.6-9.86-14.88-15.88-24.42-16Z"/><path id="path18583" class="cls-4" d="M76.57,82.6V100c8.07,4.41,16.69,9.24,22.17,16.9C92.25,99.91,77.59,84.13,76.57,82.6Z"/><path id="path18585" class="cls-5" d="M76.57,109.8V122c9.54.16,16.83,6.17,24.43,16,0-.06,0-.14,0-.2a71.71,71.71,0,0,0-3.64-10.07c-4.72-9.7-13-13.88-20.83-17.91Z"/><path id="rect8527" class="cls-6" d="M78.74,31.78c0-3.08-1.87-5.19-4.66-8.46C66.94,14.94,53.8,0,50.91,0S38.55,9.19,32,17.2c-5,6.18-9,10.64-9,14.58s0,12.59,0,12.59v91.69c16.71,6,34.77,7.59,55.66,0V31.78Z"/><path id="path18466" class="cls-7" d="M50.75,2.11c2.76,0,14.55,14.67,21.4,22.9,2.67,3.21,4.49,5.29,4.49,8.32v78.52c-7.64,5.87-32.79,10.78-43.57-5-8.33-12.18-5.5-69.46-4-73.86S44.88,6.39,50.21,2.21c.86,0,.54.06.54-.1Z"/><path id="path8530" class="cls-6" d="M30.1,52.12A20.81,20.81,0,1,0,50.91,31.31,20.81,20.81,0,0,0,30.1,52.12Z"/><path id="path18468" class="cls-3" d="M30.91,50.49a20,20,0,1,0,20-20A20,20,0,0,0,30.91,50.49Z"/><path id="path18490" class="cls-4" d="M50.92,30.29A20,20,0,0,1,70.54,46.46C66.06,54,59.74,60.22,51,60.47s-15.24-6-19.73-13.65A20,20,0,0,1,50.92,30.29Z"/><path id="path18472" class="cls-8" d="M34.53,50.79A16.85,16.85,0,1,0,51.38,34,16.84,16.84,0,0,0,34.53,50.79Z"/><path id="path18474" class="cls-9" d="M36,49.35A15.12,15.12,0,1,0,51.09,34.23,15.12,15.12,0,0,0,36,49.35Z"/><path id="path18476" class="cls-10" d="M51.08,34.23A15.14,15.14,0,0,1,65,43.33a15.1,15.1,0,0,1-27.71,0A15.09,15.09,0,0,1,51.08,34.23Z"/><path id="path18478" class="cls-7" d="M37.35,45.36a4,4,0,1,0,4-4A4,4,0,0,0,37.35,45.36Z"/><path id="path18480" class="cls-10" d="M55.75,61.46a2.59,2.59,0,1,0,2.58-2.59A2.59,2.59,0,0,0,55.75,61.46Z"/><path id="path18508" class="cls-6" d="M38.35,93.46A12.56,12.56,0,1,0,50.91,80.9,12.56,12.56,0,0,0,38.35,93.46Z"/><path id="path18510" class="cls-3" d="M38.84,91A12.07,12.07,0,1,0,50.91,78.91,12.07,12.07,0,0,0,38.84,91Z"/><path id="path18512" class="cls-4" d="M50.92,78.79a12.06,12.06,0,0,1,11.84,9.76c-2.7,4.53-6.52,8.31-11.82,8.46S41.74,93.38,39,88.77a12.07,12.07,0,0,1,11.89-10Z"/><path id="path18516" class="cls-8" d="M41,91.17A10.17,10.17,0,1,0,51.19,81,10.17,10.17,0,0,0,41,91.17Z"/><path id="path18518" class="cls-9" d="M41.89,90.3A9.13,9.13,0,1,0,51,81.17,9.13,9.13,0,0,0,41.89,90.3Z"/><path id="path18520" class="cls-10" d="M51,81.17a9.12,9.12,0,0,1,8.37,5.49,9.11,9.11,0,0,1-16.72,0A9.1,9.1,0,0,1,51,81.17Z"/><path id="path18522" class="cls-7" d="M42.72,87.88a2.43,2.43,0,1,0,2.43-2.42A2.43,2.43,0,0,0,42.72,87.88Z"/><path id="path18524" class="cls-10" d="M53.83,97.6A1.57,1.57,0,1,0,55.39,96,1.56,1.56,0,0,0,53.83,97.6Z"/><path id="path8538" class="cls-3" d="M42.3,107.39c-5-.4-21,63.82-15.67,67.05l15.67-27Z"/><path id="path18551" class="cls-5" d="M42.51,107.58v40.08l-5.93,10.17c-1.5-4.13-2.36-11.44-1.52-18a213.08,213.08,0,0,1,7.31-32.26c.05,0,.1,0,.14,0Z"/><path id="path18562" class="cls-3" d="M59.52,107.39c5-.4,21,63.82,15.67,67.05l-15.67-27Z"/><path id="path18564" class="cls-5" d="M59.31,107.58v40.08l5.93,10.17c1.5-4.13,2.36-11.44,1.52-18a214.32,214.32,0,0,0-7.31-32.26c-.05,0-.1,0-.14,0Z"/></g></g></g></svg>