<svg xmlns="http://www.w3.org/2000/svg" viewBox="0 0 129.38 137.03"><defs><style>.cls-1{fill:#98beeb;}.cls-2{fill:#fff;}.cls-3{fill:#d93920;}.cls-4{fill:#f29954;}.cls-5{fill:#ff9b00;}.cls-6{fill:#ff8;}.cls-7{fill:#d1e2f6;}.cls-8{fill:#e56044;}.cls-9{fill:#5acaf1;}.cls-10{fill:#72e2ff;}.cls-11{fill:#96f8ff;}</style></defs><title>Asset 13</title><g id="Layer_2" data-name="Layer 2"><g id="ps_flip_30012017_17"><g id="g10566"><path id="path8787" class="cls-1" d="M61.06,108.14,15.06,74l-.8-25.38,46.8,32.52Z"/><path id="path24490" class="cls-2" d="M14.27,48.66,61.05,81.18v10.2L14.75,64.31l-.48-15.65Z"/><path id="path10337" class="cls-3" d="M17.77,54.68C15.19,40.71.11,44.76,0,57.06s13.89,57.87,16.76,57.49c3.57-.48,3.58-45.91,1-59.87Z"/><path id="path24488" class="cls-4" d="M14.51,55.32c-2-10.71-13.38-7.63-13.45,1.8s10.6,44.39,12.77,44.1C16.53,100.86,16.47,66,14.51,55.32Z"/><path id="path24591" class="cls-1" d="M68.32,108.14l46-34.11.79-25.38L68.32,81.17Z"/><path id="path24593" class="cls-2" d="M115.12,48.66,68.34,81.18v10.2l46.29-27.07.49-15.65Z"/><path id="path24597" class="cls-3" d="M111.62,54.68c2.57-14,17.65-9.92,17.76,2.38s-13.89,57.87-16.76,57.49c-3.57-.48-3.58-45.91-1-59.87Z"/><path id="path24599" class="cls-4" d="M114.88,55.32c2-10.71,13.37-7.63,13.44,1.8s-10.59,44.39-12.76,44.1C112.86,100.86,112.91,66,114.88,55.32Z"/><path id="path24552" class="cls-5" d="M73.41,105.27c2.81,4,3.91,12.88,2.78,18.65-1.52,7.81-5.53,11-8-4.34,2.92,16.1-7.62,29.27-7.7.49-2.64,15.09-6.85,10.77-7.71.22-.45-5.57,1-13,5.07-17s12.69-2,15.51,2Z"/><path id="path24554" class="cls-6" d="M71.54,104c2.32,2.79,3.23,9,2.3,13-1.26,5.45-4.57,7.7-6.57-3,2.41,11.23-6.28,20.41-6.35.35-2.18,10.51-5.66,7.5-6.36.15-.37-3.88.8-9.08,4.18-11.84s10.47-1.42,12.8,1.37Z"/><path id="path8774" class="cls-7" d="M30.37,47.49C30,64.82,44.11,91.38,54.09,104.31c3.63,4.71,7.32,5.18,10.6,5.18,3.09,0,6.54-.14,10-4.37C84.85,92.52,99.37,65.19,99,47.49S75.4-.19,64.69.39,30.72,30.15,30.37,47.49Z"/><path id="path24497" class="cls-2" d="M66,18.91a80,80,0,0,1,21.94,3c4.29,7.71,7.38,16,7.5,22.56C95.59,54,93.18,67.78,84.75,76.6s-28.44,9.69-38.58,1.12S34.64,54,34.81,44.49c.13-6.55,3.33-14.85,7.76-22.56A97.16,97.16,0,0,1,66,18.91Z"/><path id="rect8791" class="cls-3" d="M64.68,0c6.76-.36,18.4,11.14,26.47,24.29-9.79.5-25,2.24-52.62,0C46.58,11.57,58,.37,64.68,0Z"/><path id="rect8796" class="cls-3" d="M89,81.86a130.29,130.29,0,0,1-14.4,23.25c-3.42,4.23-6.87,4.37-10,4.37-3.28,0-7-.46-10.58-5.17A139.29,139.29,0,0,1,40.39,81.86C55.69,86.46,71.64,87.8,89,81.86Z"/><path id="path24450" class="cls-7" d="M44.14,50.09A20.55,20.55,0,1,0,64.69,29.54,20.55,20.55,0,0,0,44.14,50.09Z"/><path id="path24452" class="cls-8" d="M45.07,48.71A19.63,19.63,0,1,0,64.69,29.08,19.61,19.61,0,0,0,45.07,48.71Z"/><path id="path24454" class="cls-4" d="M64.67,29a19.64,19.64,0,0,1,19.42,16.8c-4.83,6.45-11.17,11.29-19.37,11.52s-14.65-4.51-19.5-11A19.6,19.6,0,0,1,64.67,29Z"/><path id="path24458" class="cls-9" d="M48.36,48.71A16.33,16.33,0,1,0,64.69,32.38,16.33,16.33,0,0,0,48.36,48.71Z"/><path id="path24460" class="cls-10" d="M49.75,47.31A14.66,14.66,0,1,0,64.41,32.65,14.66,14.66,0,0,0,49.75,47.31Z"/><path id="path24462" class="cls-11" d="M64.4,32.66a14.66,14.66,0,0,1,13.45,8.81,14.64,14.64,0,0,1-26.86,0A14.6,14.6,0,0,1,64.4,32.66Z"/><path id="path24464" class="cls-2" d="M51.09,43.44A3.91,3.91,0,1,0,55,39.54,3.91,3.91,0,0,0,51.09,43.44Z"/><path id="path24466" class="cls-11" d="M68.93,59a2.51,2.51,0,1,0,2.51-2.5A2.51,2.51,0,0,0,68.93,59Z"/><path id="path24543" class="cls-4" d="M45.78,85.3c12,3.07,24.43,3.84,37.76.16-3.47,6.71-7.34,19-19,18.7S49.1,91.73,45.78,85.3Z"/><path id="path24707" class="cls-8" d="M64.68,0c6.76-.36,18.4,11.14,26.47,24.29-8.71-1.43-23.88-5.55-52.62,0C46.58,11.57,58,.37,64.68,0Z"/><path id="path57809" class="cls-4" d="M65.24.87c5.31.34,13.78,10.47,20.1,22.4-8.45-1.49-21.1-3.15-41,0C50.85,11.33,59.51,1.21,64.7.87A4.86,4.86,0,0,1,65.24.87Z"/></g></g></g></svg>