<svg xmlns="http://www.w3.org/2000/svg" viewBox="0 0 119.47 185.05"><defs><style>.cls-1{fill:#ff9b00;}.cls-2{fill:#ff8;}.cls-3{fill:#e54467;}.cls-4{fill:#c32b4c;}.cls-5{fill:#f47373;}.cls-6{fill:#98beeb;}.cls-7{fill:#d1e2f6;}.cls-8{fill:#fff;}.cls-9{fill:#5acaf1;}.cls-10{fill:#72e2ff;}.cls-11{fill:#96f8ff;}</style></defs><title>Asset 12</title><g id="Layer_2" data-name="Layer 2"><g id="ps_flip_30012017_17"><g id="g9902"><path id="path17710" class="cls-1" d="M79.1,148.43c2.79,6.1,1,13.06-2.37,18.4-1.93,3.07-7.07,8.9-8.49,9s-1.59-4.15-2.16-5.83a18.36,18.36,0,0,0-3.18-6.1,24,24,0,0,1-2.32,12.33c-1.59,3.3-5.46,8.45-6.28,8.82s-.82-8.27-1.62-11.9-2-6.71-4-8.68a10.54,10.54,0,0,1-5.44,7.93C41.62,164.61,35.67,155,41.52,147s12.26-7.31,19.31-7c6.52.25,15.48,2.36,18.27,8.46Z"/><path id="path17712" class="cls-2" d="M73.22,144.55c3.52,3.27,4.23,8.44,3.26,12.84a28.69,28.69,0,0,1-7.13,12.86c-.86-4.54-4.3-9.33-7.84-12,.68,6.6-.47,15.68-5.27,18.56.5-7.26-4.19-13.88-7.45-19.34-1.43,3.08-1.85,7.22-4.93,9.07.7-5.65-1.24-11.21.13-15.89a15.32,15.32,0,0,1,9.66-10.09c6.43-2,16.05.76,19.57,4Z"/><path id="path10107" class="cls-3" d="M2.57,147.05C-6.64,108.37,9.74,84,37.91,82.48c5.39,8.87,3.52,27,3.45,33.15C32.78,115,13.5,121,2.57,147.05Z"/><path id="path17657" class="cls-4" d="M38.88,102.36l-1.56.17a20.94,20.94,0,0,0,4.4,2.85c-.07,4.29-.32,8.06-.34,10.27-8.59-.59-27.88,5.4-38.8,31.41a2.86,2.86,0,0,1-.07-.28C3.45,124,18,102.65,38.88,102.36Z"/><path id="path17668" class="cls-5" d="M37.91,82.47c2.21,3.65,3.18,8.86,3.57,14.16-5.07-.12-8.17.46-13.2,1.18-8.47,1.21-19.34,9-24.35,15.72-1.53,2-2.41,4.44-3.61,6.63C2.59,97.33,17,83.57,37.91,82.47Z"/><path id="path17684" class="cls-3" d="M116.9,147.05c9.21-38.68-7.16-63.09-35.33-64.57-5.4,8.87-3.53,27-3.46,33.15C86.7,115,106,121,116.9,147.05Z"/><path id="path17686" class="cls-4" d="M80.6,102.36l1.56.17a21.05,21.05,0,0,1-4.41,2.85c.07,4.29.32,8.06.35,10.27,8.58-.59,27.88,5.4,38.8,31.41,0-.1,0-.18.07-.28C116,124,101.52,102.65,80.6,102.36Z"/><path id="path17688" class="cls-5" d="M81.57,82.47c-2.22,3.65-3.18,8.86-3.58,14.16,5.07-.12,8.18.46,13.21,1.18,8.47,1.21,19.34,9,24.34,15.72,1.53,2,2.42,4.44,3.61,6.63-2.26-22.83-16.67-36.59-37.58-37.69Z"/><path id="rect8224" class="cls-6" d="M73.45,119.82H46l-7.94,25c14.44,6.71,28.88,6.33,43.32,0Z"/><path id="path17680" class="cls-7" d="M70.82,122.69H48.66l-6.42,20.2c11.67,5.42,23.33,5.11,35,0Z"/><path id="path8220" class="cls-7" d="M22.11,55.21c-.39,20.19,11.67,51.12,24.26,66.19,4.58,5.48,9.22,6,13.37,6,3.9,0,8.24-.16,12.56-5.09,12.87-14.68,25.46-46.51,25.07-67.13S59.75.35,59.74.35C58,.35,22.49,35,22.11,55.21Z"/><path id="path10572" class="cls-8" d="M23.6,55.21C23.23,75.4,45.09,107.72,59.49,107S96.25,75.83,95.87,55.21,59.74.35,59.74.35C58.07.35,24,35,23.6,55.21Z"/><path id="rect8237" class="cls-4" d="M59.75,0S76.54,15.49,87.91,32c-30.59,6.51-43.17,3-56.6,0C42.29,15.56,58.57,0,59.75,0Z"/><path id="path8242" class="cls-3" d="M50.17,113.68c0-10.81,3.89-22.06,18-16.6,5.9,19-.69,54.1-10.83,69.31C61.54,153.57,55.38,118.76,50.17,113.68Z"/><path id="path8233" class="cls-7" d="M37.07,62.45a21.4,21.4,0,1,0,21.4-21.39A21.4,21.4,0,0,0,37.07,62.45Z"/><path id="path17500" class="cls-3" d="M38.77,59.91a19.7,19.7,0,1,0,19.7-19.7A19.7,19.7,0,0,0,38.77,59.91Z"/><path id="path17506" class="cls-9" d="M42.2,59.91A16.27,16.27,0,1,0,58.47,43.65,16.27,16.27,0,0,0,42.2,59.91Z"/><path id="path17508" class="cls-10" d="M43.59,58.53a14.6,14.6,0,1,0,14.6-14.6A14.6,14.6,0,0,0,43.59,58.53Z"/><path id="path17510" class="cls-11" d="M58.18,43.93a14.6,14.6,0,0,1,13.39,8.78,14.58,14.58,0,0,1-26.75,0A14.56,14.56,0,0,1,58.18,43.93Z"/><path id="path17512" class="cls-8" d="M44.93,54.67a3.89,3.89,0,1,0,3.88-3.89A3.88,3.88,0,0,0,44.93,54.67Z"/><path id="path17514" class="cls-11" d="M62.69,70.21a2.5,2.5,0,1,0,2.5-2.5A2.5,2.5,0,0,0,62.69,70.21Z"/><path id="path17646" class="cls-4" d="M62.2,95.57a15.45,15.45,0,0,1,6,1.51c.07.25.13.51.21.77-.89,6.3-3.79,14.91-14.1,25.4-1.31-4.66-2.76-8.21-4.16-9.58,0-9.12,2.65-18.66,12-18.1Z"/><path id="path17678" class="cls-3" d="M59.75,0S76.54,15.49,87.91,32c-29.41.59-31,.69-56.6,0C42.29,15.56,58.57,0,59.75,0Z"/></g></g></g></svg>