<svg xmlns="http://www.w3.org/2000/svg" viewBox="0 0 96.18 170.69"><defs><style>.cls-1{fill:#ff9b00;}.cls-2{fill:#ff8;}.cls-3{fill:#0091b8;}.cls-4{fill:#00b4e4;}.cls-5{fill:#34fcff;}.cls-6{fill:#d1e2f6;}.cls-7{fill:#fff;}.cls-8{fill:#5acaf1;}.cls-9{fill:#72e2ff;}.cls-10{fill:#96f8ff;}</style></defs><title>Asset 9</title><g id="Layer_2" data-name="Layer 2"><g id="ps_flip_30012017_17"><g id="g10197"><path id="path25716" class="cls-1" d="M24.28,138.82c-1.31,5,.74,6.55,1.64,9,.57,1.52.33,4.49-.31,5.29,2,.68,3.43-2.18,4.79-3.74,1.54,4.65-2.89,13.28-1.35,16.57s4.11,4.78,5.6,4.78c-1.93-2.88-1.63-5.63-.51-8.33,2.22-5.31,8.91-15.77,5.73-24.06s-13.95-5.75-15.59.52Z"/><path id="path25718" class="cls-2" d="M29.6,143.5c-.1,1.4-.23,4-1.61,4.45.25-3.69-4.17-7.64-1.93-11.45,3.48-5.91,10.47-3.12,12.15.11,5.51,8.66-5.3,18-5.67,24.65-5.08-2.84,3.78-14-2.94-17.76Z"/><path id="path25724" class="cls-1" d="M55.89,138.82c-1.3,5,.75,6.55,1.65,9,.57,1.52.33,4.49-.31,5.29,2,.68,3.43-2.18,4.79-3.74,1.54,4.65-2.89,13.28-1.35,16.57s4.11,4.78,5.6,4.78c-1.93-2.88-1.64-5.63-.51-8.33,2.22-5.31,8.91-15.77,5.73-24.06s-14-5.75-15.6.52Z"/><path id="path25726" class="cls-2" d="M61.22,143.5c-.1,1.4-.23,4-1.61,4.45.25-3.69-4.17-7.64-1.93-11.45,3.48-5.91,10.47-3.12,12.15.11,5.51,8.66-5.3,18-5.67,24.65C59.08,158.42,67.94,147.27,61.22,143.5Z"/><path id="path7987" class="cls-3" d="M67.34,108.29l7.82,29.16c-7.51,2.76-15,3.08-22.52,0l7.8-29.16Z"/><path id="path25741" class="cls-4" d="M66.55,111.64l6,22.47c-5.79,2.71-11.57,4-17.36,0l6-22.47Z"/><path id="path7989" class="cls-3" d="M35.72,108.29l7.82,29.16c-8.48,1.47-16,1.45-22.52,0l7.8-29.16Z"/><path id="path25736" class="cls-4" d="M35.12,115.1l5.28,19.67c-5.07,1.54-10.13,2.33-15.2,0l5.26-19.67Z"/><path id="path25797" class="cls-3" d="M22,55c-.39,18.73,17.42,51.88,1.08,62.07H0Z"/><path id="path25799" class="cls-4" d="M22,55l4.8,43L0,117.06Z"/><path id="path25801" class="cls-5" d="M22,55,4.26,104.49,26,71.72,22.9,61.37Z"/><path id="path25749" class="cls-3" d="M74.21,55c.73,18.71-.58,51-1.08,62.07H96.18Z"/><path id="path25751" class="cls-4" d="M74.21,55l-4.8,43,26.77,19.08Z"/><path id="path25777" class="cls-5" d="M74.22,55l17.7,49.51L70.14,71.72l3.14-10.35Z"/><path id="path7962" class="cls-6" d="M23.46,42.92c-3.33,11.21,0,78.23,0,78.23,12.92,12,36.15,11.07,49.64,0,0,0,2.48-67.87,0-78.23S50,0,48.28,0C45.7,0,26.79,31.71,23.46,42.92Z"/><path id="path25709" class="cls-7" d="M47.05,3.35c1.62,0,21.16,31.64,23.5,41.7,1.68,7.2,1,42.75.4,62.52-8.62,10.73-28.1,10.82-38.67,3.17-9.74-7.06-6.76-59-5.86-64.92s3.63-11.6,4.52-17.26C37.3,16.44,45.46,3.35,47.05,3.35Z"/><path id="path7982" class="cls-3" d="M48.27,0c1.23,0,12,16.51,19.06,29.77H29.26C36.14,16.39,46.42,0,48.27,0Z"/><path id="path25599" class="cls-6" d="M28,72.33A20.09,20.09,0,1,0,48.09,52.24,20.09,20.09,0,0,0,28,72.33Z"/><path id="path25601" class="cls-4" d="M28.78,70.76a19.31,19.31,0,1,0,19.31-19.3A19.31,19.31,0,0,0,28.78,70.76Z"/><path id="path25603" class="cls-5" d="M48.1,51.26A19.3,19.3,0,0,1,67.05,66.87C62.72,74.11,56.62,80.16,48.14,80.4s-14.71-5.81-19-13.18A19.31,19.31,0,0,1,48.1,51.26Z"/><path id="path25607" class="cls-8" d="M32.28,71.05A16.27,16.27,0,1,0,48.54,54.79,16.27,16.27,0,0,0,32.28,71.05Z"/><path id="path25609" class="cls-9" d="M33.66,69.66a14.6,14.6,0,1,0,14.6-14.6A14.6,14.6,0,0,0,33.66,69.66Z"/><path id="path25611" class="cls-10" d="M48.25,55.07a14.61,14.61,0,0,1,13.39,8.77,14.57,14.57,0,0,1-26.74,0A14.55,14.55,0,0,1,48.25,55.07Z"/><path id="path25613" class="cls-7" d="M35,65.81a3.89,3.89,0,1,0,3.89-3.89A3.89,3.89,0,0,0,35,65.81Z"/><path id="path25615" class="cls-10" d="M52.76,81.35a2.5,2.5,0,1,0,2.5-2.5A2.5,2.5,0,0,0,52.76,81.35Z"/><path id="path25734" class="cls-4" d="M48.27,0c1.23,0,12,16.51,19.06,29.77-8.64-4.05-19.84-5.55-38.07,0C36.14,16.39,46.42,0,48.27,0Z"/></g></g></g></svg>