<svg xmlns="http://www.w3.org/2000/svg" viewBox="0 0 125.92 172.79"><defs><style>.cls-1{fill:#ff9b00;}.cls-2{fill:#ff8;}.cls-3{fill:#98beeb;}.cls-4{fill:#d1e2f6;}.cls-5{fill:#1c6eca;}.cls-6{fill:#4eafe1;}.cls-7{fill:#fff;}.cls-8{fill:#5acaf1;}.cls-9{fill:#72e2ff;}.cls-10{fill:#96f8ff;}</style></defs><title>Asset 5</title><g id="Layer_2" data-name="Layer 2"><g id="ps_flip_30012017_17"><g id="g9810"><path id="path18854" class="cls-1" d="M80.09,137.2c3.14,5.44,2.16,12-.41,17.17-1.48,3-5.63,8.73-6.93,8.91s-1.85-3.72-2.54-5.24a17.86,17.86,0,0,0-3.49-5.41,22.35,22.35,0,0,1-1,11.55c-1.15,3.16-4.21,8.2-4.93,8.59s-1.54-7.58-2.62-10.88-2.47-6.06-4.49-7.74a9.46,9.46,0,0,1-4.22,7.71c-2.24-7.08-8.62-15.51-4-23.35s10.54-7.61,17-7.85c6-.23,14.42,1.09,17.56,6.54Z"/><path id="path18856" class="cls-2" d="M74.33,134c3.55,2.77,4.68,7.5,4.22,11.63a25.93,25.93,0,0,1-5.32,12.4c-1.21-4.15-4.83-8.33-8.34-10.58,1.26,6.05,1.07,14.52-3,17.53-.24-6.75-5.17-12.54-8.68-17.36-1,2.95-1,6.8-3.66,8.73.11-5.27-2.21-10.27-1.4-14.7a13.64,13.64,0,0,1,7.9-10C61.7,129.35,70.79,131.25,74.33,134Z"/><path id="path8573" class="cls-3" d="M12.33,92.82,44.85,66.64V99.16l-32.52,11.9Z"/><path id="path18700" class="cls-4" d="M40.52,70V84.84L12.34,95.15V92.61Z"/><path id="path8571" class="cls-5" d="M9.94,68.6c-1.88.1-8.41,19.93-8.86,22.58-2.15,12.5.25,34.08.25,34.08,5.62,3.84,11.54,5.35,18-.24,0,0,1.92-27.71-.25-34.84S11.82,68.5,9.94,68.6Z"/><path id="path18705" class="cls-6" d="M9.29,68.86a165.38,165.38,0,0,1,5.38,16.52c1.83,6.7,1.42,26.39.21,32.76-.88,4.69-12.55,5.89-14.3.77C0,111.57-.52,99.45.9,91.18,1.32,88.71,7,71.24,9.29,68.86Z"/><path id="path18773" class="cls-3" d="M113.59,92.82,81.07,66.64V99.16l32.52,11.9Z"/><path id="path18775" class="cls-4" d="M85.41,70V84.84l28.18,10.31V92.61Z"/><path id="path18777" class="cls-5" d="M116,68.6c1.88.1,8.41,19.93,8.86,22.58,2.15,12.5-.25,34.08-.25,34.08-5.62,3.84-11.53,5.35-18-.24,0,0-1.92-27.71.25-34.84S114.1,68.5,116,68.6Z"/><path id="path18779" class="cls-6" d="M116.63,68.86a168,168,0,0,0-5.38,16.52c-1.83,6.7-1.42,26.39-.21,32.76.89,4.69,12.55,5.89,14.3.77.55-7.34,1.1-19.46-.31-27.73C124.6,88.71,118.91,71.24,116.63,68.86Z"/><path id="path8548" class="cls-4" d="M63.4,0c4.47.24,20,46.49,21.11,52.66,2.34,13.34,2.41,31.1,1.8,46.45a163.61,163.61,0,0,1-4.64,32.69c-13.38,8.95-23.74,12.86-39-.18a263.83,263.83,0,0,1-3.07-32.51C39,80.4,39.08,58.94,41.76,50.34S58.92-.23,63.4,0Z"/><path id="path18660" class="cls-7" d="M78.15,35.58c2.7,8.1,4.74,15,5.1,17.08,1.89,11.08,2.26,25.21,2,38.48C78.09,96,59.79,104.79,48.26,93c-9.83-10.09-4.07-42.8,1.62-56.64,5.48-1.89,6.39-7.82,14.84-7.12S77.23,32.81,78.15,35.58Z"/><path id="path8550" class="cls-4" d="M46.48,67.75A16.66,16.66,0,1,0,63.14,51.09,16.66,16.66,0,0,0,46.48,67.75Z"/><path id="rect8552" class="cls-5" d="M63.41,0C66.31.16,74,18.61,79.06,34.92c-9.6,4-19.41,5.26-32.21,0C52.59,17.93,60.08-.17,63.41,0Z"/><path id="rect8583" class="cls-5" d="M86.31,99.16c-.72,18.19-2.39,33-2.39,33-7.38,4.94-15,6.47-22.86,6.25-6.42-.18-13-.92-19.9-6.77,0,0-1.08-15.06-1.6-32.48,13.49,5.59,27.06,10.94,46.75,0Z"/><path id="path8588" class="cls-3" d="M40.54,121.12c12.13,6.68,26.06,8.54,44.38.63-.53,6.37-1,10.41-1,10.41-13.39,9-27.47,12.52-42.76-.52,0,0-.27-4.17-.62-10.52Z"/><path id="path18665" class="cls-5" d="M46.48,64.42A16.66,16.66,0,1,0,63.14,47.76,16.66,16.66,0,0,0,46.48,64.42Z"/><path id="path18681" class="cls-6" d="M63.14,47.57A16.66,16.66,0,0,1,79.24,60c-4,5.21-9.32,9.07-16.07,9.26S51,65.6,47,60.3A16.63,16.63,0,0,1,63.14,47.57Z"/><path id="path18671" class="cls-8" d="M49.22,64.42A13.92,13.92,0,1,0,63.14,50.5,13.92,13.92,0,0,0,49.22,64.42Z"/><path id="path18673" class="cls-9" d="M50.41,63.23A12.49,12.49,0,1,0,62.9,50.74,12.49,12.49,0,0,0,50.41,63.23Z"/><path id="path18675" class="cls-10" d="M62.89,50.74a12.5,12.5,0,0,1,11.46,7.51,12.48,12.48,0,0,1-22.89,0A12.46,12.46,0,0,1,62.89,50.74Z"/><path id="path18677" class="cls-7" d="M51.55,59.93a3.33,3.33,0,1,0,3.33-3.33A3.32,3.32,0,0,0,51.55,59.93Z"/><path id="path18679" class="cls-10" d="M66.75,73.23a2.14,2.14,0,1,0,2.14-2.14A2.13,2.13,0,0,0,66.75,73.23Z"/><path id="path18710" class="cls-6" d="M63.34,2.79c2.48.13,8.88,16.68,13.36,29.81C69,35.77,57.89,36.87,54.48,31.49s6-28.85,8.86-28.7Z"/><path id="path18746" class="cls-4" d="M44.13,123.84c10.31,5.12,22.08,6.36,37.11.38-1.11,7.17-9,12.73-18.52,12.73C53,137,45,131.19,44.13,123.84Z"/><path id="path18795" class="cls-6" d="M43.18,102.58c11.42,4.28,23.27,7.47,39.18.52.06.63.11,1.28.11,1.92,0,11.47-8.83,20.77-19.72,20.77S43,116.49,43,105a21.9,21.9,0,0,1,.14-2.44Z"/></g></g></g></svg>