<svg xmlns="http://www.w3.org/2000/svg" viewBox="0 0 114.15 173.67"><defs><style>.cls-1{fill:#ff9b00;}.cls-2{fill:#ff8;}.cls-3{fill:#98beeb;}.cls-4{fill:#d1e2f6;}.cls-5{fill:#d93920;}.cls-6{fill:#f29954;}.cls-7{fill:#e56044;}.cls-8{fill:#fff;}.cls-9{fill:#5acaf1;}.cls-10{fill:#72e2ff;}.cls-11{fill:#96f8ff;}</style></defs><title>Asset 6</title><g id="Layer_2" data-name="Layer 2"><g id="ps_flip_30012017_17"><g id="g9716"><path id="path18393" class="cls-1" d="M39.67,137c2.19,5.84-3.56,17.83-5.64,17.93S26.44,142.63,28.4,137s9.66-4.27,11.27,0Z"/><path id="path18395" class="cls-2" d="M38.22,136c1.63,4.35-2.64,13.26-4.18,13.34s-5.63-9.15-4.18-13.34,7.17-3.18,8.36,0Z"/><path id="path8492" class="cls-3" d="M36.88,116.61l5.6,19.27c-5.31,1.17-10.71,2-16.82,0l5.61-19.27Z"/><path id="path18263" class="cls-4" d="M36,119.74l3.9,13.38c-3.7.82-7.45,1.4-11.7,0l3.9-13.38Z"/><path id="path18387" class="cls-1" d="M66.14,147c3.56,8.71-5.77,26.57-9.13,26.72S44.72,155.35,47.88,147,63.53,140.58,66.14,147Z"/><path id="path18389" class="cls-2" d="M63.79,145.51C66.43,152,59.52,165.29,57,165.4s-9.12-13.64-6.77-19.89,11.6-4.73,13.53,0Z"/><path id="path8494" class="cls-3" d="M61.51,115.3l8.86,30.4c-9.23,5-18.1,4.72-26.59,0l8.86-30.4Z"/><path id="path18261" class="cls-4" d="M60.58,118.68l7,24c-6.61,3.19-13,4.54-21,0l7-24Z"/><path id="path18409" class="cls-1" d="M85.75,137c2.2,5.84-3.56,17.83-5.63,17.93s-7.59-12.3-5.64-17.93,9.67-4.27,11.27,0Z"/><path id="path18411" class="cls-2" d="M84.31,136c1.63,4.35-2.64,13.26-4.18,13.34S74.5,140.23,76,136s7.17-3.18,8.36,0Z"/><path id="path18415" class="cls-3" d="M83,116.61l5.61,19.27c-5.31,1.17-10.71,2-16.83,0l5.61-19.27Z"/><path id="path18417" class="cls-4" d="M82.11,119.74,86,133.12c-3.69.82-7.44,1.4-11.69,0l3.9-13.38Z"/><path id="path8468" class="cls-5" d="M56.72,0c2.17-.26,15.57,13.65,24.47,47.46s7,54.89,7.16,70.82c-9.9,5.23-20.06,8.88-30.57,9.32s-21.38-2.34-32.69-9.95c1.41-14.54.47-36.39,9.69-70.19S54.55.27,56.72,0Z"/><path id="path18227" class="cls-6" d="M56.94,2.23a.49.49,0,0,0-.21,0c-1.79.25-10.37,12.76-18,44.11C49.88,50.8,62.79,50,76.79,45.92,69.57,15.84,59.21,2.8,56.94,2.23ZM30.67,107.77c-.14,2.68-.3,5.54-.49,7.82,9.48,7.32,19,9.67,27.85,9.25s18.5-2.9,25.22-9.25c0-2.7,0-5.33,0-8.38C66.28,112,49.12,114.82,30.67,107.77Z"/><path id="path18236" class="cls-7" d="M81.63,63.61c1.58,0,30.14,7.14,30.14,7.14l2.38,44.42C106.66,105.63,103.35,92.62,84,93Z"/><path id="path18238" class="cls-6" d="M81.63,63.62,82,68.24l1.11,1.11,24.37,4.72L113,93.54l-1.21-22.8S83.22,63.62,81.63,63.62Z"/><path id="path18240" class="cls-5" d="M82.66,80.33,84,93c19-.34,22.58,12.23,29.81,21.72-1-13-4.48-21.71-12.21-28.63C96.68,81.64,87.48,81.08,82.66,80.33Z"/><path id="path8484" class="cls-7" d="M32.52,63.61c-1.58,0-30.14,7.14-30.14,7.14L0,115.17C7.49,105.63,10.8,92.62,30.14,93Z"/><path id="path18196" class="cls-6" d="M32.52,63.62l-.39,4.62L31,69.35,6.66,74.07,1.18,93.54l1.21-22.8S30.93,63.62,32.52,63.62Z"/><path id="path18185" class="cls-5" d="M31.49,80.33,30.16,93c-19-.34-22.58,12.23-29.81,21.72C1.38,101.7,4.83,93,12.56,86c4.91-4.4,14.11-5,18.93-5.71Z"/><path id="rect8470" class="cls-4" d="M81.06,47c0,.17.1.32.14.49,7.14,27.08,7.3,46,7.19,60.59-20.14,6.14-40.43,10.53-62.65,0,.78-14.13,1.63-33.47,9-60.59,0-.17.09-.32.14-.49C48,53.92,63.77,52.67,81.06,47Z"/><path id="path10597" class="cls-8" d="M81.13,47.14c0,.1,0,.2.07.31a207.94,207.94,0,0,1,7.22,54.9v0l-.94.48c-4.82,2.5-22.84,6.14-33.7,3.09-10.2-2.86-13.85-7-17.53-13.32C32.11,85.51,32.72,75.29,33,68.13a59.22,59.22,0,0,1,1.28-10.82c.38-2,.91-5,1.18-6.53s.53-2.92.56-3,.17-.1.59.11a25.89,25.89,0,0,0,3.29,1.31c.34.12.65.24,1,.35l.42.14c1,.32,2,.59,3.08.83.61.15,1.23.27,1.84.39s1.08.22,1.64.31l.27,0c.64.1,1.25.2,1.88.28.47.06,1.25.07,2.18.1h.25a53.44,53.44,0,0,0,6.07,0c.31,0,.49,0,.76,0,.61,0,1.27,0,1.67-.07a94.77,94.77,0,0,0,18.5-3.92,16.47,16.47,0,0,1,1.63-.45Z"/><path id="path8480" class="cls-4" d="M36.52,81A20.56,20.56,0,1,0,57.07,60.4,20.55,20.55,0,0,0,36.52,81Z"/><path id="path17757" class="cls-7" d="M37.45,79.57A19.63,19.63,0,1,0,57.07,59.94,19.62,19.62,0,0,0,37.45,79.57Z"/><path id="path18211" class="cls-6" d="M57.06,59.85a19.64,19.64,0,0,1,19.41,16.8C71.64,83.1,65.31,87.94,57.1,88.18s-14.65-4.52-19.5-11A19.61,19.61,0,0,1,57.06,59.85Z"/><path id="path17761" class="cls-9" d="M40.74,79.57A16.34,16.34,0,1,0,57.07,63.24,16.33,16.33,0,0,0,40.74,79.57Z"/><path id="path17763" class="cls-10" d="M42.14,78.17A14.66,14.66,0,1,0,56.8,63.52,14.66,14.66,0,0,0,42.14,78.17Z"/><path id="path17765" class="cls-11" d="M56.78,63.52a14.66,14.66,0,0,1,13.45,8.81,14.64,14.64,0,0,1-26.86,0A14.63,14.63,0,0,1,56.78,63.52Z"/><path id="path17767" class="cls-8" d="M43.48,74.3a3.9,3.9,0,1,0,3.9-3.9A3.89,3.89,0,0,0,43.48,74.3Z"/><path id="path17769" class="cls-11" d="M61.31,89.91a2.51,2.51,0,1,0,2.51-2.51A2.5,2.5,0,0,0,61.31,89.91Z"/></g></g></g></svg>