<svg xmlns="http://www.w3.org/2000/svg" viewBox="0 0 98.24 183.43"><defs><style>.cls-1{fill:#5c9812;}.cls-2{fill:#ff9b00;}.cls-3{fill:#ff8;}.cls-4{fill:#b4f15a;}.cls-5{fill:#d1e2f6;}.cls-6{fill:#fff;}.cls-7{fill:#5acaf1;}.cls-8{fill:#72e2ff;}.cls-9{fill:#96f8ff;}</style></defs><title>Asset 8</title><g id="Layer_2" data-name="Layer 2"><g id="ps_flip_30012017_17"><g id="g9453"><path id="rect8838" class="cls-1" d="M49.12,0,39.45,47.75H58.79Z"/><path id="path18981" class="cls-2" d="M31.07,144.37c-2.94,6.11,1.68,8,3.72,11,1.28,1.87.74,5.5-.7,6.49,4.59.83,7.72-2.68,10.78-4.58,3.48,5.7-6.51,16.27-3,20.31a18.43,18.43,0,0,0,12.63,5.85c-4.34-3.53-3.69-6.9-1.15-10.21,5-6.5,20.09-19.32,12.91-29.48s-31.45-7.05-35.15.63Z"/><path id="path18983" class="cls-3" d="M43.07,150.11c-.21,1.72-.52,4.88-3.62,5.46.57-4.53-9.41-9.37-4.35-14,7.84-7.25,23.6-3.84,27.38.12,12.42,10.62-11.93,22.1-12.77,30.21C38.26,168.39,58.22,154.73,43.07,150.11Z"/><path id="path10117" class="cls-4" d="M24.23,83.44l10.69,20.94S18.28,110.86,16.18,114c-1.37,2-8.37,20.88-8.37,20.88-2-.7-8.44-27.17-7.76-31.53.42-2.73,24.18-19.92,24.18-19.92Z"/><path id="path18921" class="cls-1" d="M32.13,98.9l2.81,5.49S18.27,110.85,16.16,114c-1.36,2-8.36,20.89-8.36,20.89a.74.74,0,0,1-.31-.27c-.17-8.69.66-22.55,1.94-25.34C10.24,107.51,24,102,32.13,98.9Z"/><path id="path18928" class="cls-4" d="M74,83.44l-10.7,20.94S80,110.86,82.06,114c1.37,2,8.37,20.88,8.37,20.88,2-.7,8.43-27.17,7.76-31.53C97.77,100.63,74,83.44,74,83.44Z"/><path id="path18930" class="cls-1" d="M66.11,98.9l-2.81,5.49S80,110.85,82.08,114c1.36,2,8.36,20.89,8.36,20.89a.8.8,0,0,0,.31-.27c.16-8.69-.66-22.55-1.94-25.34C88,107.51,74.27,102,66.11,98.9Z"/><path id="path18926" class="cls-4" d="M49.12,13.12l-6.9,37.41H56Z"/><path id="path10119" class="cls-1" d="M63.44,121H34.8l-8.13,17.68c8,11.16,36.29,9.5,44.9,0Z"/><path id="path18850" class="cls-4" d="M62.23,128.29c-9,5.36-17.87,5.45-26.23,0l-5.4,9.5c6.63,9.21,29.94,7.84,37,0Z"/><path id="path8834" class="cls-5" d="M21.31,80c0,26.83,12.45,48.57,27.81,48.57S76.93,106.82,76.93,80,64.48,31.42,49.12,31.42,21.31,53.16,21.31,80Z"/><path id="path18837" class="cls-6" d="M25,76.29c0,23.64,11,42.81,24.47,42.81S74,99.93,74,76.29s-11-42.8-24.48-42.8S25,52.66,25,76.29Z"/><path id="path8836" class="cls-5" d="M32.39,70.4A17.54,17.54,0,1,0,49.93,52.58,17.68,17.68,0,0,0,32.39,70.4Z"/><path id="path18839" class="cls-1" d="M32.72,67.56A17.21,17.21,0,1,0,49.93,50.35,17.21,17.21,0,0,0,32.72,67.56Z"/><path id="path18843" class="cls-4" d="M49.92,50.14A17.22,17.22,0,0,1,67.07,65.91v0c-4.16,6-9.75,10.55-17.11,10.76s-13-4.31-17.18-10.34A17.18,17.18,0,0,1,49.92,50.14Z"/><path id="path17747" class="cls-7" d="M35.83,67.56a14.1,14.1,0,1,0,14.1-14.1A14.1,14.1,0,0,0,35.83,67.56Z"/><path id="path17749" class="cls-8" d="M37,66.35A12.66,12.66,0,1,0,49.68,53.7,12.66,12.66,0,0,0,37,66.35Z"/><path id="path17751" class="cls-9" d="M49.67,53.7a12.65,12.65,0,0,1,11.61,7.61,12.63,12.63,0,0,1-23.18,0A12.61,12.61,0,0,1,49.67,53.7Z"/><path id="path17753" class="cls-6" d="M38.19,63a3.37,3.37,0,1,0,3.36-3.37A3.36,3.36,0,0,0,38.19,63Z"/><path id="path17755" class="cls-9" d="M53.58,76.48a2.17,2.17,0,1,0,2.17-2.16A2.17,2.17,0,0,0,53.58,76.48Z"/><path id="path18961" class="cls-5" d="M38,108.35a11.91,11.91,0,1,0,11.91-12.1A12,12,0,0,0,38,108.35Z"/><path id="path18963" class="cls-1" d="M38.24,106.42A11.69,11.69,0,1,0,49.93,94.73,11.69,11.69,0,0,0,38.24,106.42Z"/><path id="path18965" class="cls-4" d="M49.92,94.59A11.7,11.7,0,0,1,61.57,105.3v0c-2.82,4.06-6.62,7.17-11.62,7.31s-8.85-2.93-11.67-7a11.67,11.67,0,0,1,11.64-11Z"/><path id="path18969" class="cls-7" d="M40.35,106.42a9.58,9.58,0,1,0,9.58-9.58A9.58,9.58,0,0,0,40.35,106.42Z"/><path id="path18971" class="cls-8" d="M41.17,105.6A8.6,8.6,0,1,0,49.76,97,8.59,8.59,0,0,0,41.17,105.6Z"/><path id="path18973" class="cls-9" d="M49.75,97a8.6,8.6,0,0,1,7.89,5.17,8.59,8.59,0,0,1-15.75,0A8.58,8.58,0,0,1,49.75,97Z"/><path id="path18975" class="cls-6" d="M42,103.33A2.29,2.29,0,1,0,44.24,101,2.29,2.29,0,0,0,42,103.33Z"/><path id="path18977" class="cls-9" d="M52.41,112.48A1.47,1.47,0,1,0,53.88,111,1.47,1.47,0,0,0,52.41,112.48Z"/></g></g></g></svg>