<svg xmlns="http://www.w3.org/2000/svg" viewBox="0 0 93.08 168.28"><defs><style>.cls-1{fill:#ff9b00;}.cls-2{fill:#ff8;}.cls-3{fill:#8644e5;}.cls-4{fill:#672abf;}.cls-5{fill:#cf8af8;}.cls-6{fill:#98beeb;}.cls-7{fill:#d1e2f6;}.cls-8{fill:#fff;}.cls-9{fill:#5acaf1;}.cls-10{fill:#72e2ff;}.cls-11{fill:#96f8ff;}</style></defs><title>Asset 4</title><g id="Layer_2" data-name="Layer 2"><g id="ps_flip_30012017_17"><g id="g9045"><path id="path17389" class="cls-1" d="M51.72,160.77c2.57-1.52,7.06,2.94,9.71-.1,5.4-6.21,3.14-19.38-3.45-24.14-9.88-7.12-21.43-3.17-25.76,3.3S27.16,157,31.74,161c.39.33,5-3.14,6.75-1.62,1.5,1.31-1.69,5.49-.1,6.87,3.24,2.81,9.57,2.76,14-.69-1.31-1.28-2.11-3.93-.62-4.81Z"/><path id="path17391" class="cls-2" d="M50.34,153.27c1.88-1.11,5.17,2.16,7.11-.07,3.95-4.55,2.3-14.2-2.53-17.68-7.24-5.22-15.7-2.32-18.87,2.41s-3.71,12.6-.35,15.52c.28.25,3.66-2.29,4.94-1.18,1.1,1-1.23,4-.07,5,2.37,2.06,7,2,10.22-.5-1-.94-1.55-2.88-.46-3.53Z"/><path id="path8283" class="cls-3" d="M64.33,62.68,92.89,77.75v74.8l-13.49-55L62.75,89.65Z"/><path id="path17333" class="cls-4" d="M64.77,65.9,84.21,95.33,86.36,126,79.42,97.66,62.76,89.75l1.39-23.81a4.12,4.12,0,0,1,.62,0Z"/><path id="path17353" class="cls-5" d="M67.81,64.23,93.08,77.55V115.1L88.89,80.72l-25-12.33,3.87-4.16Z"/><path id="path17365" class="cls-3" d="M28.75,62.68.19,77.75v74.8l13.48-55,16.66-7.93Z"/><path id="path17367" class="cls-4" d="M28.31,65.81,8.87,95.24,6.72,125.88l6.94-28.32,16.66-7.91L28.93,65.84a6.13,6.13,0,0,0-.62,0Z"/><path id="path17369" class="cls-5" d="M25.27,64.23,0,77.55V115.1L4.19,80.72,29.13,68.39l-3.86-4.16Z"/><path id="rect8280" class="cls-6" d="M60.64,112.61H32.44l-4.72,23.06c12.94,5.75,23.62,6.39,37.64,0Z"/><path id="path10564" class="cls-7" d="M57.3,121.19c-8,2.6-14.89,1.8-21.43,0l-3.59,14.09c9.83,3.51,17.95,3.91,28.6,0Z"/><path id="path8278" class="cls-7" d="M47,0c4.18.21,14.84,16.23,19.72,35.42s-.56,78.19-.56,78.19c-12.5,7.94-25.67,11.07-39.95-.48,0,0-4.8-60.7.57-79.77S42.86-.21,47,0Z"/><path id="path10599" class="cls-8" d="M47,2.43C50.86,2.62,60.7,17.36,65.2,35c3,11.86,1.77,40,.61,57.36-4.5,4.55-23,7.24-32.38-.25-8.24-6.56-6.74-31.61-6.75-47.74A63.9,63.9,0,0,1,28.4,33.15C33.35,15.59,43.16,2.24,47,2.43Z"/><path id="path8291" class="cls-3" d="M48.31,77.83c-2.05,1.68-9.29,25.52-8.58,33.31,0,0,6.43,6.58,6.2,9.52s3.81,31.89,3.81,31.89l4.3-42.2s-3.67-34.2-5.73-32.52Z"/><path id="path17301" class="cls-7" d="M30,43.11A16.88,16.88,0,1,0,46.88,26.23,16.88,16.88,0,0,0,30,43.11Z"/><path id="path17303" class="cls-3" d="M30,40.75A16.88,16.88,0,1,0,46.88,23.87,16.89,16.89,0,0,0,30,40.75Z"/><path id="path17317" class="cls-5" d="M46.88,23.66a16.9,16.9,0,0,1,16.42,13c-4.09,5.43-9.45,9.49-16.38,9.69S34.48,42.55,30.36,37A16.92,16.92,0,0,1,46.88,23.66Z"/><path id="path17307" class="cls-9" d="M32.57,40.75a14.31,14.31,0,1,0,14.31-14.3A14.31,14.31,0,0,0,32.57,40.75Z"/><path id="path17309" class="cls-10" d="M33.79,39.53A12.85,12.85,0,1,0,46.64,26.69,12.85,12.85,0,0,0,33.79,39.53Z"/><path id="path17311" class="cls-11" d="M46.63,26.69a12.85,12.85,0,0,1,11.78,7.72,12.82,12.82,0,0,1-23.53,0A12.8,12.8,0,0,1,46.63,26.69Z"/><path id="path17313" class="cls-8" d="M35,36.14a3.42,3.42,0,1,0,3.42-3.42A3.42,3.42,0,0,0,35,36.14Z"/><path id="path17315" class="cls-11" d="M50.59,49.81a2.2,2.2,0,1,0,2.2-2.2A2.21,2.21,0,0,0,50.59,49.81Z"/><path id="path17348" class="cls-4" d="M48.42,77.68a.48.48,0,0,1,.17.11c-.29,8.54-.12,29.2-2.68,42.69C45.65,118,39.64,111,39.64,111c-.71-7.8,6.51-31.64,8.57-33.32a.26.26,0,0,1,.21,0Z"/></g></g></g></svg>